<svg width="256" height="256" viewBox="0 0 256 256" fill="none" xmlns="http://www.w3.org/2000/svg" id="figma">
<style>
#figma {
    rect {fill: #15191C}
    path {fill: #F4F2ED}

    @media (prefers-color-scheme: light) {
        rect {fill: #F4F2ED}
        path {fill: #15191C}
    }
}
</style>
<rect width="256" height="256" rx="25" fill="#15191C"/>
<path d="M155.708 106.592H122.71V42H155.708C173.515 42 188 56.4849 188 74.2925C188 92.1001 173.515 106.592 155.708 106.592ZM133.29 96.0126H155.708C167.682 96.0126 177.42 86.2673 177.42 74.2997C177.42 62.332 167.675 52.5868 155.708 52.5868H133.29V96.0126ZM133.29 106.592H100.3C82.4921 106.592 68.0072 92.1073 68.0072 74.2997C68.0072 56.4921 82.4921 42 100.3 42H133.297V106.592H133.29ZM100.3 52.5796C88.3248 52.5796 78.5868 62.3248 78.5868 74.2925C78.5868 86.2601 88.3248 96.0126 100.3 96.0126H122.717V52.5796H100.3ZM133.29 160.598H100.3C82.4921 160.598 68.0072 146.113 68.0072 128.305C68.0072 110.497 82.4921 96.0126 100.3 96.0126H133.297V160.598H133.29ZM100.3 106.592C88.3248 106.592 78.5868 116.337 78.5868 128.305C78.5868 140.273 88.332 150.018 100.3 150.018H122.717V106.592H100.3ZM100.472 214.61C82.5712 214.61 68 200.125 68 182.318C68 164.51 82.4849 150.025 100.292 150.025H133.29V181.965C133.29 199.967 118.568 214.61 100.472 214.61ZM100.3 160.598C94.5434 160.605 89.025 162.895 84.9547 166.966C80.8844 171.036 78.5944 176.554 78.5868 182.31C78.5868 194.285 88.404 204.023 100.479 204.023C112.742 204.023 122.725 194.127 122.725 181.958V160.598H100.3ZM155.708 160.598H155.003C137.195 160.598 122.71 146.113 122.71 128.305C122.71 110.497 137.195 96.0126 155.003 96.0126H155.708C173.515 96.0126 188 110.497 188 128.305C188 146.113 173.515 160.598 155.708 160.598ZM155.01 106.592C143.035 106.592 133.297 116.337 133.297 128.305C133.297 140.273 143.042 150.018 155.01 150.018H155.715C167.69 150.018 177.428 140.273 177.428 128.305C177.428 116.337 167.675 106.592 155.708 106.592H155.01Z" fill="#F24E1E"/>
</svg>