<svg width="256" height="256" viewBox="0 0 256 256" fill="none" xmlns="http://www.w3.org/2000/svg" id="flask">
<style>
#flask {
    rect {fill: #15191C}

    @media (prefers-color-scheme: light) {
        rect {fill: #F4F2ED}
    }
}
</style>
<rect width="256" height="256" rx="25" fill="#15191C"/>
<path d="M131.223 196.001C128.618 195.429 125.88 195.066 123.408 194.287C120.935 193.508 116.436 191.383 116.436 191.383L109.465 188.48L102.644 184.001L95.8236 179.523L89.9034 174.076L83.9831 168.63L108.52 156.05L133.057 143.469H133.75H134.444L136.604 147.539L138.763 151.61L143.651 157.535C143.651 157.535 145.409 160.522 148.538 163.461C151.667 166.4 151.616 166.13 155.544 168.602C159.472 171.074 162.55 172.833 162.55 172.833L169.643 175.058L176.737 177.284L183.339 177.933L189.942 178.583L192.764 177.963L195.586 177.343V176.149V174.954L198.114 173.999L202.196 172.541L203.147 173.762L207.079 172.044L208.834 171.262L210.463 170.816L213.378 175.17L216 179.356L215.478 180.716L214.956 182.077L211.247 183.561L207.539 185.045L206.699 185.507L207.539 186.642L205.47 187.98L203.275 188.898L200.873 189.94L198.974 190.603L198.722 188.914L198.344 187.603H197.994H197.644L191.393 189.956L185.143 192.309L175.883 194.614L166.622 196.92L152.831 197.317C152.831 197.317 144.249 198.509 139.039 197.715C133.828 196.92 133.828 196.572 131.223 196.001ZM72.5406 153.353L68.0506 146.687L66.4683 143.614L64.8859 140.54L65.1836 140.327L65.4813 140.115L93.525 127.609L121.569 115.103C122.59 114.68 123.383 114.408 124.284 113.918L126.737 124.055L129.442 133.604L129.183 133.791L128.924 133.977L103.461 146.998L77.9967 160.02H77.5137H77.0306L72.5406 153.353ZM57.686 126.291L55.7812 121.984L53.4132 114.389L51.0452 106.794L49.0686 106.513L47.092 106.231L44.046 100.471L41 94.7108L41.5323 93.0337L42.0646 91.3566L79.0582 75.5513L116.052 59.7461C116.052 59.7461 117.245 59.1755 117.926 59.0162C118.607 58.8569 118.834 59.9238 118.834 59.9238L118.989 62.6712L119.27 65.5445L119.582 71.1342L119.936 76.766L120.824 90.075L122.048 102.628C122.048 102.628 122.103 103.04 121.787 103.521C121.471 104.003 121.107 104.036 121.107 104.036L91.4599 117.148L61.3511 130.597H60.4709H59.5908L57.686 126.291Z" fill="#38A8BE"/>
</svg>