<svg width="256" height="256" viewBox="0 0 256 256" fill="none" xmlns="http://www.w3.org/2000/svg">
<rect width="256" height="256" rx="25" fill="#E95420"/>
<path d="M164.73 53C158.889 53 153.287 55.3202 149.157 59.4503C145.027 63.5803 142.707 69.1818 142.707 75.0226C142.707 80.8634 145.027 86.4649 149.157 90.5949C153.287 94.725 158.889 97.0452 164.73 97.0452C170.57 97.0452 176.172 94.725 180.302 90.5949C184.432 86.4649 186.752 80.8634 186.752 75.0226C186.752 69.1818 184.432 63.5803 180.302 59.4503C176.172 55.3202 170.57 53 164.73 53ZM134.44 55.2281C108.627 55.0796 84.176 69.0552 71.3305 91.7236C71.8897 91.6924 72.4496 91.6773 73.0097 91.6784C78.9085 91.6846 84.6891 93.3327 89.7042 96.4381C94.5579 89.4277 101.011 83.6737 108.53 79.6521C116.049 75.6305 124.417 73.457 132.942 73.3112C133.298 66.8147 135.63 60.5821 139.626 55.4477C137.901 55.3114 136.171 55.2381 134.44 55.2281ZM194.024 87.4805C191.48 93.4712 187.156 98.535 181.637 101.986C186.042 110.302 188.197 119.626 187.888 129.032C187.579 138.438 184.816 147.599 179.874 155.609C185.03 159.828 188.719 165.57 190.414 172.012C199.854 160.103 205.286 145.515 205.934 130.332C206.583 115.15 202.414 100.151 194.024 87.4805ZM73.0226 101.288C67.1818 101.288 61.5803 103.608 57.4503 107.739C53.3202 111.869 51 117.47 51 123.311C51.0017 129.15 53.3227 134.75 57.4526 138.879C61.5824 143.008 67.183 145.327 73.0226 145.327C78.8634 145.327 84.4649 143.007 88.5949 138.877C92.725 134.747 95.0452 129.145 95.0452 123.304C95.0452 117.464 92.725 111.862 88.5949 107.732C84.4649 103.602 78.8634 101.288 73.0226 101.288ZM86.1134 152.089C80.2213 154.763 73.6518 155.57 67.2877 154.401C71.6894 165.286 78.6976 174.924 87.6963 182.466C96.6949 190.009 107.409 195.226 118.895 197.658C124.036 198.759 129.281 199.298 134.537 199.266C130.494 193.968 128.235 187.524 128.086 180.86C126.272 180.658 124.47 180.364 122.686 179.982C114.903 178.336 107.582 174.978 101.257 170.152C94.9311 165.327 89.7583 159.154 86.1134 152.082V152.089ZM159.77 158.082C153.929 158.082 148.327 160.402 144.197 164.532C140.067 168.662 137.747 174.264 137.747 180.105C137.747 185.945 140.067 191.547 144.197 195.677C148.327 199.807 153.929 202.127 159.77 202.127C165.61 202.127 171.212 199.807 175.342 195.677C179.472 191.547 181.792 185.945 181.792 180.105C181.792 174.264 179.472 168.662 175.342 164.532C171.212 160.402 165.61 158.082 159.77 158.082Z" fill="white"/>
</svg>