<svg width="256" height="256" title="Actix" viewBox="0 0 256 256" fill="none" xmlns="http://www.w3.org/2000/svg">
<rect width="256" height="256" rx="40" fill="black"/>
<path d="M74.4177 68.8323C72.449 70.4365 68.6719 69.401 65.9302 66.3969C64.7927 67.5344 63.9687 68.5698 62.9333 69.7073C65.9302 72.1427 67.2792 76.0219 65.675 77.8302C64.0708 79.799 60.1917 79.4344 57.1948 77.0062C56.3635 78.1437 55.5906 79.4344 54.7594 80.5719C58.0698 82.7448 59.674 86.0552 58.5365 88.2792C57.399 90.5031 53.6219 90.7146 50.0562 88.8479C49.4802 90.2479 48.6562 91.5896 48.0875 92.625C51.6531 94.2292 53.5708 96.9708 52.6885 99.5083C51.8646 101.681 48.3427 102.505 44.7771 101.47C44.2083 102.87 43.9458 104.211 43.6396 105.611C47.2052 106.749 49.5896 109.177 49.1229 111.35C48.5542 113.785 45.3458 115.127 41.7729 114.66C41.5687 116.06 41.5687 117.665 41.2042 119.006C44.7771 119.575 47.5187 121.442 47.5187 123.921C47.5187 126.407 44.5146 128.062 41 128.267V132.612C44.5729 132.612 47.5187 134.217 47.8833 136.39C48.0875 138.562 45.7104 140.991 42.1375 141.559C42.3417 142.959 42.7063 144.564 42.9688 145.905C46.5344 145.336 49.4802 146.474 50.0562 148.647C50.625 150.82 48.6562 153.561 45.4479 154.597C46.0167 155.997 46.2792 157.339 46.8479 158.739C50.1583 157.601 53.3667 158.527 54.1906 160.343C55.0219 162.516 53.6219 165.257 50.4135 167.219C50.9823 168.619 51.8135 169.654 52.5865 170.996C55.5906 169.392 58.901 169.596 59.9365 171.565C61.3292 173.533 59.9365 176.479 57.501 178.652C58.3323 179.79 59.1052 181.08 60.2427 182.218C62.9844 180.256 66.1927 180.052 67.5854 181.649C69.1896 183.253 68.4167 186.564 66.1927 188.999C67.3302 190.136 68.3656 191.172 69.5031 191.996C71.9312 189.568 74.9865 188.685 76.8458 190.034C78.6615 191.427 78.45 194.635 76.6417 197.742C77.7792 198.566 79.0698 199.346 80.2073 200.17C82.3802 197.428 85.1219 196.035 87.0906 197.173C89.0594 198.31 89.5187 201.519 87.9219 204.88C89.3146 205.704 90.6635 206.273 91.6917 206.842C93.2958 203.845 96.0375 201.927 98.2104 202.707C100.383 203.531 101.215 206.842 100.383 210.05C101.783 210.619 103.125 210.881 104.525 211.45C105.662 208.14 108.091 205.967 110.264 206.273C112.436 206.842 113.836 209.846 113.574 213.36C114.974 213.572 116.578 213.929 117.92 213.929C118.489 210.364 120.355 207.622 122.834 207.979C125.27 207.979 126.976 210.983 127.18 214.862H131.526C131.526 211.29 133.13 208.344 135.303 207.979C137.731 207.775 139.904 210.415 140.786 213.929C142.179 213.725 143.783 213.36 145.132 213.105C144.301 209.532 145.701 206.222 147.874 205.398C150.302 204.829 153.044 207.002 154.181 210.881C155.581 210.312 156.923 210.05 158.323 209.481C156.923 205.916 157.492 202.394 159.716 201.358C161.889 200.323 165.199 202.496 166.803 205.967C168.203 205.398 169.545 204.567 170.58 203.998C168.619 200.687 168.619 196.91 170.58 195.518C172.753 194.118 176.326 195.722 178.499 199.083C179.636 198.259 180.927 197.479 182.065 196.342C179.323 193.345 178.754 189.466 180.672 187.861C182.633 186.257 186.41 187.293 189.152 190.29C190.29 189.152 191.325 188.117 192.156 187.293C188.839 184.551 187.81 180.978 189.152 179.17C190.756 177.201 194.635 177.566 197.844 180.307L198.048 180.511C198.879 179.374 200.017 178.083 200.79 176.946C197.224 174.773 195.306 171.462 196.444 169.027C197.844 166.854 201.621 166.599 205.135 168.823L205.347 169.027C206.171 167.634 206.74 166.285 207.308 164.893H207.104C203.327 163.493 200.79 160.284 201.621 157.805C202.445 155.268 206.535 154.495 210.312 156.201C210.517 156.201 210.517 156.405 210.881 156.405C211.45 155.012 212.019 153.408 212.274 152.059H211.705C207.571 151.235 204.618 148.494 205.186 146.117C205.755 143.681 209.532 142.34 213.674 143.112C213.878 143.112 214.243 143.112 214.498 143.324C214.709 141.72 215.067 140.32 215.329 138.716H214.498C210.364 138.511 207.155 136.287 207.155 133.801C207.155 131.322 210.721 129.2 214.862 129.455H216V124.854H215.169C211.034 125.423 207.461 123.454 207.257 121.077C207.053 118.649 209.999 116.162 214.345 115.594H215.482C215.278 113.99 214.914 112.597 214.658 110.993C214.447 110.993 214.09 111.197 213.514 111.197C209.379 112.334 205.602 111.197 205.033 108.769C204.209 106.333 207.002 103.285 210.983 102.25C211.187 102.25 211.807 102.039 212.121 102.039C211.552 100.434 210.983 99.0417 210.517 97.6927C210.312 97.9042 209.948 97.9042 209.379 98.2615C205.602 99.8656 201.672 99.399 200.687 97.124C199.55 94.6958 201.825 91.3854 205.602 89.7812C206.171 89.5771 206.433 89.5771 207.002 89.2125C206.171 87.8125 205.602 86.4708 204.829 85.0708C204.618 85.2823 204.26 85.6396 203.692 85.9021C200.119 88.075 196.342 88.3302 194.635 86.1062C193.243 83.9333 194.84 80.3677 198.412 77.9833C198.617 77.7792 199.236 77.4146 199.55 77.4146C198.726 76.0219 197.581 74.9865 196.553 73.6448C196.342 73.849 195.984 74.2135 195.722 74.4687C192.725 77.2104 188.634 78.0417 187.03 76.0729C185.426 74.1042 186.461 70.3344 189.466 67.5927C189.67 67.3812 190.29 67.0167 190.603 66.7615C189.466 65.624 188.43 64.5885 187.03 63.451C186.826 63.6552 186.461 64.0198 186.206 64.5885C183.465 67.899 179.892 69.1896 177.719 67.5927C175.757 65.9885 176.115 62.1094 178.856 58.901C179.068 58.6896 179.425 58.0698 179.688 57.7635C178.288 56.9323 177.252 55.7948 175.91 55.0219C175.706 55.226 175.706 55.8458 175.342 56.1594C173.169 59.725 169.858 61.6427 167.423 60.5052C165.25 59.1052 164.995 55.3281 167.219 51.8135C167.423 51.6021 167.787 50.9823 168.05 50.676C166.65 49.8448 165.308 49.276 163.704 48.5031C163.704 48.7073 163.493 49.3271 163.493 49.6406C162.1 53.4177 158.892 55.9479 156.405 55.124C153.875 54.2927 153.095 50.2094 154.801 46.4323C155.013 46.2281 155.013 45.601 155.37 45.2948C153.977 44.726 152.373 44.4635 150.769 43.8948C150.769 44.1062 150.769 44.4635 150.565 45.0323C149.733 49.174 146.992 52.1198 144.615 51.551C142.179 50.9823 140.838 47.2052 141.61 43.0708C141.61 42.8594 141.822 42.2396 141.822 41.9333C140.218 41.7219 138.818 41.3646 137.214 41.3646V42.1885C137.009 46.3302 134.785 49.5385 132.299 49.5385C129.871 49.5385 127.698 45.9656 127.96 41.8312V41H123.352V41.8312C123.921 45.9656 121.959 49.5385 119.575 49.7427C117.147 49.9469 114.66 47.001 114.092 42.6552V41.8312C112.699 42.0354 111.095 42.4 109.746 42.6552C109.746 42.8594 109.746 42.8594 109.957 43.224C111.095 47.3656 109.957 51.1427 107.522 51.7115C105.094 52.5354 102.039 49.7427 101.003 45.7615V45.1927C99.6104 45.7615 98.2615 46.3302 96.6573 46.7969C96.6573 46.7969 96.6573 47.001 96.8688 47.001C98.4729 50.7781 98.0062 54.7083 95.7312 55.6927C93.2958 56.8302 89.9854 54.5552 88.3813 50.7781V50.5667C86.9885 51.3979 85.6396 51.9667 84.6042 52.7396C86.7771 56.3125 87.0396 60.0896 84.8156 61.7958C82.6427 63.1885 79.0698 61.5917 76.6927 58.0187C75.5552 58.85 74.2646 59.9875 73.1271 60.7604C75.5552 63.451 76.3281 67.2281 74.4177 68.8323ZM70.6406 116.162C67.3302 115.025 65.4708 111.561 66.499 108.251C67.6437 104.941 71.1073 103.074 74.4177 104.109C77.7281 105.247 79.5875 108.71 78.5521 112.028C77.7281 115.28 73.951 117.198 70.6406 116.162ZM76.3281 175.91C60.5052 158.476 53.6219 134.166 62.9333 125.678C71.9823 117.562 92.4208 129.251 108.557 146.685C124.388 164.112 134.472 185.426 125.16 193.914C115.907 202.19 92.1583 193.133 76.3281 175.91ZM142.959 191.741C139.386 192.565 136.076 190.341 135.252 186.826C134.421 183.253 136.645 179.943 140.167 179.119C143.732 178.287 147.043 180.511 147.874 184.033C148.494 187.759 146.321 190.96 142.959 191.741ZM187.242 98.4219C198.93 102.199 203.065 127.078 195.926 149.478C188.787 171.878 171.047 189.983 159.358 186.41C147.663 182.633 147.663 158.79 154.75 136.39C161.786 114.252 175.546 94.4917 187.242 98.4219ZM177.15 83.6271C179.585 86.3687 179.323 90.1458 176.581 92.676C173.84 95.2135 170.063 94.849 167.532 92.1073C164.995 89.3656 165.359 85.5885 168.101 83.0583C170.843 80.8854 174.977 81.1917 177.15 83.6271ZM141.355 116.425C147.874 123.505 147.305 134.421 140.218 140.94C133.13 147.458 122.215 146.89 115.696 139.802C109.177 132.715 109.746 121.799 116.833 115.28C123.819 108.71 134.836 109.286 141.355 116.425ZM113.523 59.0542C136.441 54.1396 161.014 60.4469 163.755 72.449C166.497 84.451 145.752 96.1979 122.834 101.368C99.9167 106.282 76.175 104.372 73.6448 92.3187C70.8448 80.0542 90.5542 64.0198 113.523 59.0542Z" fill="white"/>
</svg>