<svg width="256" height="256" title="Adobe Premiere Pro" viewBox="0 0 256 256" fill="none" xmlns="http://www.w3.org/2000/svg">
<rect width="256" height="256" rx="40" fill="#00005B"/>
<path d="M53 183.64V71.8452C53 71.0854 53.3256 70.6512 54.0854 70.6512C55.9305 70.6512 57.6671 70.6512 60.1635 70.5427C62.7685 70.4342 65.4819 70.4342 68.4124 70.3256C71.343 70.2171 74.4906 70.2171 77.8553 70.1085C81.22 70 84.4761 70 87.7323 70C96.6324 70 104.013 71.0854 110.091 73.3647C115.518 75.2098 120.511 78.2489 124.635 82.2648C128.109 85.7381 130.822 89.9711 132.559 94.6382C134.187 99.1968 135.055 103.864 135.055 108.748C135.055 118.082 132.884 125.789 128.543 131.867C124.201 137.945 118.123 142.504 111.068 145.109C103.687 147.822 95.547 148.799 86.6469 148.799C84.042 148.799 82.3054 148.799 81.22 148.69C80.1346 148.582 78.615 148.582 76.5528 148.582V183.423C76.6614 184.182 76.1187 184.834 75.3589 184.942H54.3025C53.4342 184.942 53 184.508 53 183.531V183.64ZM76.6614 91.7077V128.177C78.1809 128.285 79.5919 128.394 80.8944 128.394H86.6469C90.8799 128.394 95.1129 127.742 99.1288 126.44C102.602 125.463 105.641 123.401 108.029 120.687C110.308 117.974 111.394 114.284 111.394 109.508C111.502 106.143 110.634 102.779 108.897 99.8481C107.052 97.0261 104.447 94.8553 101.3 93.6614C97.2836 92.0333 92.9421 91.3821 88.492 91.4906C85.67 91.4906 83.1737 91.4906 81.1114 91.5991C78.9407 91.4906 77.4211 91.5991 76.6614 91.7077Z" fill="#9999FF"/>
<path d="M150.685 98.1114H169.679C170.764 98.1114 171.632 98.8712 171.958 99.8481C172.284 100.716 172.501 101.585 172.609 102.562C172.826 103.647 173.043 104.841 173.152 105.926C173.26 107.12 173.369 108.423 173.369 109.834C176.625 106.035 180.533 102.887 184.983 100.499C189.975 97.6773 195.728 96.2663 201.48 96.2663C202.24 96.1577 202.891 96.7004 203 97.4602V119.059C203 119.928 202.457 120.253 201.263 120.253C197.356 120.145 193.34 120.47 189.541 121.339C186.394 121.99 183.355 122.967 180.424 124.269C178.362 125.246 176.408 126.548 174.889 128.285V183.64C174.889 184.725 174.454 185.159 173.478 185.159H152.096C151.227 185.268 150.467 184.725 150.359 183.857V123.292C150.359 120.687 150.359 117.974 150.25 115.152C150.142 112.33 150.142 109.508 150.033 106.686C150.033 104.19 149.816 101.802 149.599 99.3054C149.491 98.7627 149.816 98.22 150.359 98.1114C150.359 98.0029 150.576 98.0029 150.685 98.1114Z" fill="#9999FF"/>
</svg>