<svg width="256" height="256" title="Adobe After Effects" viewBox="0 0 256 256" fill="none" xmlns="http://www.w3.org/2000/svg">
<rect width="256" height="256" rx="40" fill="#00005B"/>
<path d="M106.71 153.8H69.5096L61.9096 177.4C61.7096 178.3 60.9096 178.9 60.0096 178.8H41.2096C40.1096 178.8 39.8096 178.2 40.1096 177L72.3096 84.7C72.6096 83.7 72.9096 82.8 73.3096 81.6C73.7096 79.5 73.9096 77.3 73.9096 75.1C73.8096 74.6 74.2096 74.1 74.7096 74H100.61C101.31 74 101.81 74.3 101.91 74.8L138.41 176.8C138.71 177.9 138.41 178.4 137.41 178.4H116.51C115.81 178.5 115.11 178 114.91 177.3L106.71 153.3V153.8ZM75.3096 133.9H100.71C100.11 131.8 99.3096 129.3 98.4096 126.7C97.5096 124 96.6096 121.1 95.7096 118.1C94.7096 115 93.8096 112 92.8096 108.9C91.8096 105.8 90.9096 102.9 90.1096 100C89.3096 97.2 88.6096 94.6 87.9096 92.2H87.7096C86.8096 96.5 85.7096 100.8 84.3096 105.1C82.8096 109.9 81.3096 114.9 79.7096 119.9C78.4096 125 76.8096 129.7 75.3096 133.9Z" fill="#9999FF"/>
<path d="M197.31 144.8H165.61C166.01 147.9 167.01 151 168.71 153.7C170.51 156.4 173.01 158.5 176.01 159.7C180.01 161.4 184.41 162.3 188.81 162.2C192.31 162.1 195.81 161.8 199.21 161.1C202.31 160.7 205.31 159.9 208.11 158.8C208.61 158.4 208.91 158.6 208.91 159.6V174.9C208.91 175.3 208.81 175.7 208.71 176.1C208.51 176.4 208.31 176.6 208.01 176.8C204.81 178.2 201.51 179.2 198.01 179.8C193.31 180.7 188.61 181.1 183.81 181C176.21 181 169.81 179.8 164.61 177.5C159.71 175.4 155.41 172.1 152.01 168C148.81 164.1 146.51 159.7 145.11 154.9C143.71 150.2 143.01 145.3 143.01 140.3C143.01 134.9 143.81 129.6 145.51 124.4C147.11 119.4 149.61 114.8 153.01 110.7C156.31 106.7 160.41 103.5 165.11 101.2C169.81 98.9 175.41 98.1 181.81 98.1C187.11 98 192.41 99 197.31 101.2C201.41 103 205.01 105.7 207.81 109.2C210.41 112.6 212.51 116.4 213.81 120.6C215.11 124.6 215.71 128.7 215.71 132.8C215.71 135.2 215.61 137.3 215.51 139.2C215.31 141.1 215.21 142.5 215.11 143.4C215.01 144.1 214.41 144.7 213.71 144.7C213.11 144.7 212.01 144.8 210.41 144.9C208.81 145.1 206.91 145.2 204.61 145.2C202.31 145.2 199.91 144.8 197.31 144.8ZM165.61 130.2H186.71C189.31 130.2 191.21 130.2 192.41 130.1C193.21 130 194.01 129.8 194.71 129.3V128.3C194.71 127 194.51 125.8 194.11 124.6C192.31 119 187.01 115.2 181.11 115.4C175.61 115.1 170.41 118 167.81 123C166.61 125.3 165.91 127.7 165.61 130.2Z" fill="#9999FF"/>
</svg>