<svg width="256" height="256" title="Adobe InDesign" viewBox="0 0 256 256" fill="none" xmlns="http://www.w3.org/2000/svg">
<rect width="256" height="256" rx="40" fill="#49021F"/>
<path d="M85.6773 68.3065V196.143C85.6773 197.509 85.0567 198.129 83.9397 198.129H59.6135C58.4964 198.129 58 197.509 58 196.143V68.3065C58 67.1895 58.6206 66.6931 59.7376 66.6931H83.9397C84.6844 66.5689 85.4291 67.0654 85.5532 67.9342C85.6773 68.0583 85.6773 68.1824 85.6773 68.3065Z" fill="#FF3366"/>
<path d="M157.415 199.619C148.23 199.743 139.046 197.881 130.73 194.033C122.911 190.434 116.457 184.477 111.989 177.154C107.397 169.583 105.163 160.15 105.163 148.856C105.039 139.672 107.397 130.611 111.989 122.668C116.706 114.601 123.532 107.899 131.723 103.431C140.411 98.5902 150.837 96.2321 163.124 96.2321C163.745 96.2321 164.613 96.2321 165.73 96.3562C166.848 96.4803 168.089 96.4803 169.578 96.6044V57.3845C169.578 56.5157 169.95 56.0193 170.819 56.0193H196.014C196.635 55.8952 197.131 56.3916 197.255 56.8881V175.292C197.255 177.526 197.379 180.009 197.504 182.739C197.752 185.346 197.876 187.828 198 189.938C198 190.807 197.628 191.551 196.759 191.924C190.305 194.654 183.479 196.64 176.528 197.881C170.323 198.998 163.869 199.619 157.415 199.619ZM169.578 174.796V120.186C168.461 119.938 167.344 119.69 166.227 119.565C164.862 119.441 163.496 119.317 162.131 119.317C157.291 119.317 152.45 120.31 148.106 122.544C143.887 124.654 140.287 127.757 137.557 131.729C134.826 135.7 133.461 141.037 133.461 147.491C133.337 151.835 134.082 156.179 135.571 160.275C136.812 163.626 138.674 166.604 141.156 169.087C143.514 171.321 146.369 173.058 149.596 174.051C152.947 175.168 156.422 175.665 159.897 175.665C161.759 175.665 163.496 175.541 165.11 175.416C166.723 175.541 168.213 175.292 169.578 174.796Z" fill="#FF3366"/>
</svg>