<svg width="256" height="256" title="Adobe ColdFusion" viewBox="0 0 256 256" fill="none" xmlns="http://www.w3.org/2000/svg">
<rect width="256" height="256" rx="40" fill="#002258"/>
<path d="M135.073 169.746V188.25C135.145 188.769 135.043 189.298 134.784 189.753C134.524 190.208 134.122 190.564 133.64 190.765C130.136 191.99 126.503 192.804 122.812 193.191C118.149 193.747 113.457 194.017 108.761 193.999C102.093 194.03 95.4485 193.215 88.9844 191.574C82.9317 190.049 77.1609 187.563 71.891 184.208C66.8123 180.963 62.3317 176.86 58.6475 172.081C54.8277 167.062 51.9197 161.407 50.0569 155.374C47.9347 148.39 46.9084 141.118 47.0147 133.817C46.7738 122.674 49.4917 111.668 54.8893 101.929C60.127 92.7785 67.8992 85.3517 77.2617 80.5503C87.9837 75.2187 99.8413 72.5977 111.803 72.9153C116.437 72.8695 121.07 73.1098 125.675 73.6349C128.88 73.9854 132.034 74.7086 135.073 75.7898C135.399 76.0376 135.653 76.3678 135.81 76.7467C135.967 77.1256 136.021 77.5395 135.966 77.9461V97.7078C135.966 98.7853 135.545 99.1444 134.714 98.7853C131.361 97.2375 127.805 96.1789 124.154 95.6417C119.832 94.9634 115.464 94.6328 111.09 94.653C103.925 94.4518 96.8318 96.1233 90.5051 99.5035C84.9088 102.605 80.3134 107.249 77.2616 112.888C74.0298 119.12 72.4287 126.074 72.6086 133.098C72.5082 138.101 73.2648 143.084 74.8454 147.83C76.2262 151.827 78.3182 155.54 81.0197 158.787C83.5089 161.791 86.5464 164.291 89.9691 166.153C93.3296 167.956 96.9086 169.315 100.617 170.195C104.222 171.075 107.916 171.527 111.626 171.543C115.66 171.566 119.692 171.386 123.708 171.004C127.09 170.674 130.423 169.951 133.64 168.848C134.114 168.488 134.472 168.399 134.714 168.578C134.856 168.735 134.962 168.92 135.024 169.122C135.086 169.324 135.103 169.537 135.073 169.746Z" fill="#7BADFF"/>
<path d="M154.94 123.757H144.2C143.364 123.638 142.946 123.217 142.946 122.499V104.175C142.922 104.004 142.938 103.83 142.993 103.666C143.047 103.503 143.139 103.354 143.26 103.232C143.382 103.11 143.53 103.018 143.694 102.963C143.857 102.909 144.03 102.893 144.2 102.918H154.94V100.043C154.904 96.2813 155.203 92.5237 155.833 88.8152C156.379 85.676 157.343 82.6245 158.698 79.7425C161.012 74.9176 164.526 70.7723 168.899 67.7062C174.123 64.3643 180.252 62.7324 186.439 63.0358C188.173 63.0267 189.907 63.1166 191.631 63.3049C193.04 63.4513 194.423 63.7837 195.745 64.2935C196.118 64.4191 196.441 64.6613 196.667 64.9844C196.892 65.3076 197.009 65.6948 196.999 66.0893V83.8749C196.999 84.7142 196.522 85.0137 195.566 84.7735C194.677 84.6505 193.78 84.5903 192.883 84.5933H190.199C188.246 84.55 186.311 84.9815 184.559 85.8508C182.885 86.7628 181.609 88.2681 180.981 90.0732C180.111 92.6445 179.716 95.3537 179.816 98.0675V102.918H194.852C195.566 102.918 196.015 103.038 196.194 103.277C196.395 103.599 196.49 103.976 196.463 104.355V122.5C196.463 123.339 195.926 123.758 194.853 123.757H179.816V190.586C179.812 190.961 179.721 191.33 179.549 191.663C179.37 192.023 178.924 192.203 178.206 192.203H156.371C155.415 192.203 154.94 191.663 154.94 190.586L154.94 123.757Z" fill="#7BADFF"/>
</svg>