<svg width="256" height="256" title="Adobe Illustrator" viewBox="0 0 256 256" fill="none" xmlns="http://www.w3.org/2000/svg">
<rect width="256" height="256" rx="40" fill="#330000"/>
<path d="M128.062 165.734H83.4162L74.295 193.938C74.055 195.018 73.0949 195.738 72.0147 195.618H49.4517C48.1315 195.618 47.7714 194.898 48.1315 193.458L86.7767 82.203C87.1367 81.0028 87.4968 79.6827 87.9769 78.2425C88.4569 75.7221 88.6969 73.0818 88.6969 70.4414C88.5769 69.8413 89.057 69.2412 89.6571 69.1212H120.741C121.701 69.1212 122.181 69.4813 122.301 70.0814L166.107 193.698C166.467 195.018 166.107 195.618 164.907 195.618H139.824C138.984 195.738 138.144 195.138 137.904 194.298L128.062 165.734ZM90.3772 141.371H120.861C120.141 138.851 119.181 135.85 118.101 132.73C117.021 129.489 115.941 126.009 114.86 122.408C113.66 118.688 112.58 115.087 111.38 111.367C110.18 107.646 109.1 104.166 108.14 100.685C107.179 97.325 106.339 94.2046 105.499 91.3242H105.259C104.179 96.4849 102.859 101.646 101.179 106.806C99.3784 112.567 97.5781 118.568 95.6579 124.569C93.9777 130.69 92.1774 136.33 90.3772 141.371ZM192.871 90.1241C188.91 90.2441 185.07 88.6839 182.19 85.9235C179.429 82.9231 177.989 78.9626 178.109 74.882C177.989 70.8015 179.549 66.9609 182.43 64.2006C185.31 61.4402 189.15 60 193.111 60C197.792 60 201.392 61.4402 204.032 64.2006C206.673 67.081 208.113 70.9215 207.993 74.882C208.113 78.9626 206.673 82.9231 203.792 85.9235C201.032 88.8039 196.952 90.3641 192.871 90.1241ZM179.429 194.298V101.886C179.429 100.685 179.909 100.205 180.989 100.205H204.753C205.833 100.205 206.313 100.806 206.313 101.886V194.298C206.313 195.618 205.833 196.218 204.753 196.218H181.229C180.029 196.218 179.429 195.498 179.429 194.298Z" fill="#FF9A00"/>
</svg>