<svg width="256" height="256" title="Adobe Audition" viewBox="0 0 256 256" fill="none" xmlns="http://www.w3.org/2000/svg">
<rect width="256" height="256" rx="40" fill="#00005B"/>
<path d="M107.276 154.222H70.3259L62.7869 177.572C62.6007 178.498 61.7631 179.054 60.9254 178.962H42.2176C41.1007 178.962 40.8215 178.406 41.1007 177.201L73.1181 85.6556C73.3973 84.6364 73.6765 83.6171 74.1419 82.4126C74.6072 80.3741 74.9795 78.243 74.9795 76.1119C74.8865 75.6486 75.2588 75.0927 75.8172 75C75.9103 75 76.0034 75 76.0964 75H101.599C102.25 75 102.808 75.278 102.901 75.8339L139.014 177.386C139.293 178.498 139.014 178.962 137.99 178.962H117.235C116.583 179.054 115.839 178.591 115.653 177.85L107.276 154.222ZM76.0964 134.486H101.319C100.761 132.448 99.9233 129.946 98.9926 127.351C98.0618 124.664 97.2242 121.792 96.2934 118.827C95.2696 115.769 94.4319 112.804 93.4081 109.747C92.3843 106.689 91.5467 103.816 90.709 100.944C89.8713 98.1643 89.2198 95.5699 88.4752 93.2535H88.2891C87.3583 97.5157 86.3345 101.778 84.9384 106.04C83.4493 110.766 81.9601 115.769 80.3778 120.68C79.1679 125.684 77.5856 130.316 76.0964 134.486Z" fill="#9999FF"/>
<path d="M215.241 100.944V161.635C215.241 164.322 215.241 166.638 215.335 168.769C215.428 170.808 215.521 172.661 215.614 174.236C215.8 175.811 215.893 176.738 215.986 177.757C216.079 178.684 215.707 179.054 214.869 179.054H197.837C196.999 179.147 196.254 178.684 195.975 177.942C195.789 177.108 195.603 176.274 195.417 175.441C195.231 174.792 195.231 174.051 195.231 173.402C192.066 176.274 188.157 178.313 183.969 179.517C180.432 180.537 176.616 181 172.893 181C169.17 181 165.54 180.537 162.096 179.332C158.932 178.22 155.953 176.367 153.627 173.865C151.021 171.086 149.159 167.843 148.042 164.229C146.646 159.689 145.995 154.963 146.088 150.145V101.037C145.995 100.481 146.367 99.8324 147.111 99.7397C147.205 99.7397 147.298 99.7397 147.391 99.7397H166.378C166.936 99.647 167.588 100.018 167.681 100.759C167.681 100.852 167.681 100.944 167.681 101.037V147.551C167.681 151.906 168.705 155.334 170.566 157.836C172.428 160.337 176.337 161.635 180.804 161.635C183.131 161.635 185.365 161.264 187.599 160.43C189.925 159.596 191.973 158.577 193.834 157.187V100.944C193.834 100.296 194.3 99.8324 195.231 99.8324H214.218C214.683 99.7397 215.335 100.11 215.335 100.666C215.241 100.759 215.241 100.852 215.241 100.944Z" fill="#9999FF"/>
</svg>