<svg width="256" height="256" title="Adobe XD" viewBox="0 0 256 256" fill="none" xmlns="http://www.w3.org/2000/svg">
<rect width="256" height="256" rx="40" fill="#470137"/>
<path d="M134.239 80.2155L104.239 129.716L136.239 182.216C136.439 182.616 136.539 183.016 136.439 183.416C136.339 183.816 135.939 183.516 135.339 183.616H112.439C110.839 183.616 109.739 183.516 109.039 182.516C106.939 178.316 104.739 174.216 102.639 170.016C100.539 165.916 98.2392 161.716 95.8392 157.416C93.4392 153.116 91.0392 148.816 88.6392 144.416H88.4392C86.3392 148.716 84.0392 153.016 81.7392 157.316C79.4392 161.616 77.1392 165.916 74.9392 170.116C72.6392 174.316 70.3392 178.616 68.0392 182.716C67.6392 183.716 66.8392 183.816 65.7392 183.816H43.7392C43.3392 183.816 43.0392 184.016 43.0392 183.516C42.9392 183.116 43.0392 182.716 43.2392 182.416L74.3392 131.416L44.0392 80.1155C43.7392 79.7155 43.6392 79.3155 43.8392 79.1155C44.0392 78.8155 44.4392 78.7155 44.8392 78.7155H67.5392C68.0392 78.7155 68.5392 78.8155 68.9392 78.9155C69.3392 79.1155 69.6392 79.4155 69.9392 79.8155C71.8392 84.1155 74.0392 88.4155 76.3392 92.7155C78.7392 97.0155 81.0392 101.216 83.5392 105.416C85.9392 109.616 88.1392 113.816 90.2392 118.116H90.4392C92.5392 113.716 94.7392 109.416 96.9392 105.216C99.1392 101.016 101.439 96.8155 103.739 92.6155C106.039 88.4155 108.239 84.1155 110.439 80.0155C110.539 79.6155 110.739 79.2155 111.039 79.0155C111.439 78.8155 111.839 78.7155 112.339 78.8155H133.439C133.939 78.7155 134.439 79.0155 134.539 79.5155C134.639 79.6155 134.439 80.0155 134.239 80.2155Z" fill="#FF61F6"/>
<path d="M180.439 185.716C173.039 185.816 165.639 184.316 158.939 181.216C152.639 178.316 147.439 173.516 143.839 167.616C140.139 161.516 138.339 153.916 138.339 144.816C138.239 137.416 140.139 130.116 143.839 123.716C147.639 117.216 153.139 111.816 159.739 108.216C166.739 104.316 175.139 102.416 185.039 102.416C185.539 102.416 186.239 102.416 187.139 102.516C188.039 102.616 189.039 102.616 190.239 102.716V71.1155C190.239 70.4155 190.539 70.0155 191.239 70.0155H211.539C212.039 69.9155 212.439 70.3155 212.539 70.7155C212.539 70.8155 212.539 70.9155 212.539 70.9155V166.116C212.539 167.916 212.639 169.916 212.739 172.116C212.939 174.216 213.039 176.216 213.139 177.916C213.139 178.616 212.839 179.216 212.139 179.516C206.939 181.716 201.439 183.316 195.839 184.316C190.739 185.216 185.639 185.716 180.439 185.716ZM190.239 165.716V121.716C189.339 121.516 188.439 121.316 187.539 121.216C186.439 121.116 185.339 121.016 184.239 121.016C180.339 121.016 176.439 121.816 172.939 123.616C169.539 125.316 166.639 127.816 164.439 131.016C162.239 134.216 161.139 138.516 161.139 143.716C161.039 147.216 161.639 150.716 162.839 154.016C163.839 156.716 165.339 159.116 167.339 161.116C169.239 162.916 171.539 164.316 174.139 165.116C176.839 166.016 179.639 166.416 182.439 166.416C183.939 166.416 185.339 166.316 186.639 166.216C187.939 166.316 189.039 166.116 190.239 165.716Z" fill="#FF61F6"/>
</svg>