<svg width="256" height="256" title="AdonisJS" viewBox="0 0 256 256" fill="none" xmlns="http://www.w3.org/2000/svg">
<rect width="256" height="256" rx="40" fill="#5A45FE"/>
<path fill-rule="evenodd" clip-rule="evenodd" d="M60.9739 154.883L96.2029 74.817C102.15 61.3203 113.588 54 128 54C142.412 54 153.849 61.3203 159.798 74.817L195.027 154.883C196.628 158.772 198 163.804 198 168.151C198 188.053 184.045 202.007 164.143 202.007C157.365 202.007 151.98 200.277 146.531 198.526C140.947 196.732 135.294 194.915 128 194.915C120.79 194.915 114.995 196.75 109.301 198.551C103.794 200.294 98.3782 202.007 91.8561 202.007C71.9543 202.007 58 188.053 58 168.151C58 163.804 59.3725 158.772 60.9739 154.883ZM128 88.7719L93.2289 167.465C103.523 162.66 115.419 160.373 128 160.373C140.124 160.373 152.477 162.66 162.314 167.465L128 88.7719Z" fill="white"/>
</svg>