<svg width="256" height="256" title="Affinity" viewBox="0 0 256 256" fill="none" xmlns="http://www.w3.org/2000/svg">
<rect width="256" height="256" rx="40" fill="#A7F175"/>
<path d="M119.959 172.069C109.985 172.069 103.64 165.987 103.64 158.274C103.64 125.265 190 118.657 190 83.6021C190 62.2171 165.355 53 133.895 53C114.758 53 93.1199 56.5602 73.0242 62.9305V104.749C102.639 83.0687 135.542 73.7881 156.736 73.7881C170.063 73.7881 179.106 77.5254 179.106 84.2221C179.106 111.812 60 107.44 60 167.057C60 189.908 75.6323 203 97.6255 203C130.892 203 156.054 170.505 174.879 130.895L178.693 132.272C168.779 156.477 148.263 183.019 144.267 200.08H187.095V111.813H177.204C162.846 143.173 141.806 172.069 119.959 172.069Z" fill="black"/>
</svg>