<svg width="256" height="256" title="Agda" viewBox="0 0 256 256" fill="none" xmlns="http://www.w3.org/2000/svg" id="agda">
<style>
#agda {
    rect {fill: #15191C}
    path {fill: #FFFFFF}

    @media (prefers-color-scheme: light) {
        rect {fill: #F4F2ED}
        path {fill: #212121}
    }
}
</style>
<rect width="256" height="256" rx="40" fill="#15191C"/>
<path d="M181.417 64.9954L129.638 116.724C127.302 118.829 124.272 115.668 126.342 113.432L178.122 61.7033C180.324 59.5992 183.537 62.6667 181.417 64.9954ZM204.011 74.6356L178.122 100.5C176.014 102.814 179.199 105.888 181.417 103.792L207.306 77.9276C209.382 75.5648 206.193 72.5336 204.011 74.6356ZM204.011 61.7033L178.122 87.5679C176.002 89.8795 179.09 92.9388 181.417 90.8599L207.306 64.9954C209.406 62.6434 206.281 59.6755 204.011 61.7033ZM113.398 61.7033L87.508 87.5679C85.3939 89.822 88.4754 92.9449 90.8032 90.8599L116.693 64.9954C118.765 62.7285 115.727 59.6042 113.398 61.7033ZM103.748 90.8599L129.638 64.9954C131.7 62.8089 128.702 59.5636 126.342 61.7033L100.453 87.5679C98.3747 89.8521 101.443 92.9172 103.748 90.8599ZM127.99 195C154.343 195.004 181.087 174.958 182.099 140.943L182.099 116.043L207.306 90.8599C209.397 88.5307 206.26 85.47 204.011 87.5679L178.122 113.432C177.685 113.869 177.439 114.461 177.439 115.078V140.943C176.663 172.73 151.705 190.344 127.99 190.344C106.256 190.344 79.4416 174.063 78.5409 140.943L78.5409 115.078C78.5409 113.793 77.4977 112.751 76.2108 112.751H55.9465L103.748 64.9954C105.817 62.8089 102.834 59.5948 100.453 61.7033L48.6736 113.432C47.2656 114.882 48.1844 117.406 50.3212 117.406L73.8808 117.406L73.8808 140.943C75.3087 176.732 102.949 194.996 127.99 195ZM84.8839 98.2665C84.8839 95.5885 81.9621 93.9057 79.6373 95.2447C77.3125 96.5837 77.3125 99.9493 79.6373 101.288C81.9621 102.627 84.8839 100.944 84.8839 98.2665ZM97.8287 98.2665C97.8287 95.5885 94.9069 93.9057 92.5821 95.2447C90.2573 96.5837 90.2573 99.9493 92.5821 101.288C94.9069 102.627 97.8287 100.944 97.8287 98.2665Z" fill="#FFFFFF"/>
</svg>