<svg width="256" height="256" title="AiScript" viewBox="0 0 256 256" fill="none" xmlns="http://www.w3.org/2000/svg" id="aiscript">
<style>
#aiscript {
    rect {fill: #15191C}

    @media (prefers-color-scheme: light) {
        rect {fill: #F4F2ED}
    }
}
</style>
<rect width="256" height="256" rx="40" fill="#15191C"/>
<path fill-rule="evenodd" clip-rule="evenodd" d="M93.8765 108.336C92.4613 108.993 91.5322 110.402 91.5162 111.916C91.5045 113.025 91.7296 113.722 92.3534 114.508C93.4614 115.904 95.4999 116.424 97.1273 115.725C98.043 115.331 99.0557 114.241 99.3642 113.316C99.6614 112.425 99.5767 111.092 99.173 110.304C98.1743 108.356 95.7646 107.461 93.8765 108.336ZM177.886 108.281C176.547 108.886 175.718 109.91 175.45 111.287C174.699 115.144 179.566 117.677 182.274 114.838C183.819 113.219 183.836 110.876 182.314 109.294C181.464 108.411 180.566 108.02 179.387 108.023C178.752 108.024 178.272 108.106 177.886 108.281ZM213.775 108.257C212.847 108.587 212.009 109.298 211.528 110.162L211.132 110.874V120.572V130.27L211.506 131.465C212.742 135.408 215.756 138.406 219.668 139.582C220.747 139.906 221.085 139.944 223.003 139.955C225.069 139.967 225.158 139.956 225.804 139.614C227.199 138.875 227.91 137.742 227.985 136.14C228.029 135.193 227.997 135.029 227.612 134.251C227.158 133.333 226.422 132.625 225.527 132.246C225.206 132.11 224.408 131.989 223.47 131.932C221.72 131.827 221.148 131.611 220.249 130.716C219.283 129.754 219.154 129.283 219.092 126.517L219.039 124.092H221.897C225.366 124.092 225.706 124.01 226.814 122.907C227.684 122.04 228.007 121.26 227.999 120.05C227.989 118.671 227.425 117.578 226.313 116.783C225.409 116.136 224.578 115.993 221.702 115.991L219.201 115.989V114.087C219.201 111.228 218.995 110.387 218.035 109.329C216.996 108.182 215.231 107.739 213.775 108.257ZM49.1054 116.128C46.7284 116.712 45.3558 119.234 46.2014 121.465C46.5358 122.347 47.3678 123.267 48.2255 123.704C48.9172 124.055 50.2997 124.187 51.0827 123.976C53.0428 123.448 54.3726 121.277 53.9538 119.289C53.6897 118.036 52.6844 116.814 51.5201 116.332C50.9112 116.08 49.7132 115.979 49.1054 116.128ZM111.363 116.133C108.029 116.626 104.699 118.712 103.002 121.369C102.039 122.877 101.664 123.87 101.591 125.108C101.535 126.06 101.568 126.278 101.86 126.913C102.781 128.917 105.166 129.871 107.112 129.014C108.006 128.62 108.258 128.358 109.364 126.669C110.317 125.214 110.845 124.672 111.63 124.341C111.919 124.219 113.504 124.153 117.365 124.099C122.601 124.027 122.711 124.02 123.273 123.722C124.725 122.95 125.497 121.693 125.494 120.107C125.492 118.413 124.627 117.059 123.1 116.361C122.444 116.06 122.351 116.055 117.298 116.035C114.474 116.024 111.803 116.068 111.363 116.133ZM162.648 116.079C158.61 116.493 154.99 119.02 153.128 122.725C152.078 124.815 151.85 126.465 151.846 132.006C151.843 137.028 151.982 137.768 153.133 138.857C154.033 139.709 154.689 139.964 155.979 139.964C156.897 139.964 157.219 139.908 157.676 139.666C158.567 139.194 159.136 138.619 159.574 137.746L159.98 136.936V132.531C159.98 129.953 160.04 127.806 160.124 127.353C160.284 126.492 160.661 125.824 161.333 125.212C162.455 124.191 162.971 124.092 167.184 124.092C170.179 124.092 170.578 124.066 171.219 123.827C172.112 123.495 172.984 122.658 173.424 121.713C174.473 119.456 173.031 116.665 170.544 116.139C169.895 116.001 163.854 115.956 162.648 116.079ZM196.126 116.071C195.87 116.102 195.216 116.222 194.674 116.337C190.597 117.205 186.981 120.614 185.859 124.647C185.378 126.374 185.303 128.14 185.347 136.713L185.389 144.883L185.738 145.613C186.45 147.106 187.592 147.88 189.226 147.977C190.187 148.034 190.325 148.008 191.133 147.612C191.748 147.31 192.157 146.991 192.528 146.523C193.316 145.531 193.459 144.878 193.459 142.268V140.034H195.563C198.765 140.034 200.554 139.749 202.229 138.973C205.368 137.518 207.858 134.642 208.807 131.376C209.159 130.166 209.298 127.389 209.078 125.98C208.623 123.068 206.897 120.277 204.377 118.379C203.044 117.375 201.737 116.746 200.248 116.392C199.152 116.132 197.011 115.965 196.126 116.071ZM38.3488 116.554C37.7295 116.883 36.4842 117.997 33.1018 121.247C27.9723 126.177 28 126.14 28 128.011C28 129.876 27.9581 129.821 33.2871 134.99C37.5083 139.085 37.9749 139.498 38.689 139.765C41.6149 140.86 44.6173 138.357 44.0581 135.288C43.9813 134.866 43.777 134.282 43.6041 133.989C43.4312 133.697 42.0535 132.233 40.5426 130.735L37.7955 128.011L40.7189 125.155C43.4183 122.518 43.6649 122.238 43.9373 121.502C44.4767 120.044 44.1292 118.476 43.0149 117.34C41.7421 116.041 39.8968 115.73 38.3488 116.554ZM74.6914 116.333C71.2034 117.107 68.1291 119.553 66.5517 122.81C65.8541 124.25 65.5578 125.33 65.4361 126.876C65.1207 130.88 66.3838 134.182 69.2532 136.856C70.429 137.952 71.2901 138.509 72.8401 139.176C74.6366 139.949 75.6528 140.048 81.305 140.005C86.1747 139.968 86.3013 139.961 86.901 139.666C87.7362 139.256 88.4556 138.518 88.8732 137.643L89.2218 136.912V131.665C89.2218 125.905 89.1679 125.392 88.3577 123.435C87.0185 120.201 83.8183 117.385 80.4186 116.45C79.2601 116.131 75.9102 116.063 74.6914 116.333ZM136.439 116.342C132.173 117.248 128.583 120.677 127.419 124.956C127.001 126.494 126.999 129.549 127.415 131.067C128.55 135.21 131.697 138.397 135.905 139.668C136.774 139.93 137.205 139.953 142.111 140.001C147.249 140.051 147.402 140.045 148.151 139.766C149.18 139.382 150.122 138.445 150.512 137.415C151.253 135.46 150.279 133.185 148.323 132.303C147.663 132.006 147.498 131.995 142.841 131.93C137.453 131.856 137.548 131.872 136.435 130.85C135.484 129.977 135.245 129.421 135.241 128.078C135.239 127.239 135.302 126.821 135.486 126.451C135.818 125.786 136.631 124.97 137.333 124.596C137.892 124.299 138.02 124.29 142.774 124.224C147.488 124.158 147.664 124.146 148.309 123.852C150.27 122.959 151.254 120.698 150.522 118.768C150.171 117.841 149.262 116.875 148.336 116.446L147.643 116.124L142.507 116.134C138.489 116.141 137.169 116.187 136.439 116.342ZM94.4838 119.085C93.2836 119.422 92.313 120.26 91.7701 121.429C91.4952 122.021 91.4892 122.19 91.4892 129.406C91.4892 136.339 91.5045 136.818 91.7435 137.436C92.5225 139.448 94.9186 140.526 96.9297 139.77C97.9563 139.384 98.9051 138.443 99.2837 137.435C99.5596 136.701 99.5645 136.535 99.5286 129.293L99.4921 121.901L99.1808 121.303C98.2615 119.538 96.2521 118.589 94.4838 119.085ZM178.485 119.049C177.258 119.354 176.226 120.224 175.671 121.419C175.39 122.023 175.386 122.154 175.386 129.473V136.912L175.694 137.589C176.579 139.537 178.863 140.508 180.826 139.77C181.854 139.383 182.802 138.443 183.181 137.432C183.458 136.695 183.463 136.539 183.426 129.29L183.389 121.901L183.032 121.228C182.612 120.434 181.776 119.644 180.993 119.299C180.306 118.996 179.157 118.881 178.485 119.049ZM196.57 124.23C195.464 124.45 194.43 125.262 193.831 126.379C193.549 126.904 193.522 127.143 193.482 129.454L193.438 131.96L195.816 131.905C197.92 131.855 198.272 131.814 198.875 131.549C200.29 130.927 201.126 129.606 201.117 128.011C201.11 126.862 200.796 126.112 199.982 125.301C199.047 124.37 197.812 123.982 196.57 124.23ZM75.7367 124.537C74.2509 125.241 73.4883 126.442 73.4883 128.078C73.4883 129.29 73.8032 130.066 74.6136 130.849C75.5496 131.754 76.2473 131.93 78.8898 131.93H81.1522L81.1509 129.572C81.1497 127.362 81.1296 127.171 80.8285 126.527C80.4619 125.743 79.6482 124.899 78.9173 124.544C78.6093 124.394 78.0345 124.285 77.4176 124.258C76.577 124.221 76.3085 124.266 75.7367 124.537ZM119.909 127.017C119.005 127.369 118.301 128.096 117.736 129.261C117.181 130.408 116.535 131.168 115.774 131.575C115.249 131.854 115.055 131.866 109.896 131.93L104.561 131.997L103.797 132.37C102.435 133.037 101.67 134.201 101.584 135.74C101.489 137.449 102.259 138.828 103.744 139.608L104.427 139.967L109.691 140.006C115.401 140.049 116.145 139.992 117.941 139.377C122.767 137.723 126.577 132.357 125.175 129.189C124.773 128.281 123.799 127.336 122.932 127.013C122.023 126.675 120.786 126.676 119.909 127.017ZM48.22 132.343C46.7073 133.096 45.8406 134.608 45.9739 136.262C46.1445 138.377 47.8508 139.935 50.0078 139.945C52.2721 139.956 53.9864 138.253 53.9966 135.982C54.0021 134.739 53.6121 133.869 52.6626 133.004C51.3762 131.833 49.7352 131.589 48.22 132.343Z" fill="url(#linearGradient)"/>
<linearGradient id="linearGradient" x1="228" y1="128" x2="28" y2="128" gradientUnits="userSpaceOnUse">
<stop stop-color="#FC5D9D"/>
<stop offset="1" stop-color="#FC09B9"/>
</linearGradient>
</svg>