<svg width="256" height="256" title="Algolia" viewBox="0 0 256 256" fill="none" xmlns="http://www.w3.org/2000/svg">
<rect width="256" height="256" rx="40" fill="#5468FF"/>
<path d="M150.35 70.4476V62.744C150.348 60.1588 149.321 57.6801 147.495 55.8528C145.669 54.0257 143.193 52.9996 140.612 53H117.912C115.331 52.9996 112.856 54.0257 111.03 55.8528C109.204 57.6801 108.177 60.1588 108.175 62.744V70.6534C108.175 71.5333 108.988 72.1511 109.876 71.9451C116.297 70.0882 122.948 69.1492 129.631 69.1559C136.108 69.1559 142.519 70.0356 148.715 71.7393C149.537 71.9451 150.35 71.3368 150.35 70.4476ZM88.1385 80.5286L84.2603 76.6441C83.3567 75.7383 82.2837 75.0199 81.1026 74.5297C79.9217 74.0395 78.6559 73.7872 77.3774 73.7872C76.099 73.7872 74.8331 74.0395 73.6523 74.5297C72.4712 75.0199 71.3982 75.7383 70.4948 76.6441L65.8594 81.2774C64.9533 82.1796 64.234 83.2523 63.7435 84.4337C63.2528 85.6151 63 86.8823 63 88.1619C63 89.4415 63.2528 90.7085 63.7435 91.8901C64.234 93.0716 64.9533 94.1442 65.8594 95.0464L69.6723 98.8654C70.2891 99.4738 71.1768 99.3334 71.7189 98.725C73.9685 95.6305 76.4523 92.7139 79.1484 90.0011C81.8672 87.2687 84.8051 84.7644 87.933 82.5129C88.6133 82.1012 88.6806 81.1464 88.1385 80.5286ZM129.564 104.987V138.31C129.564 139.264 130.592 139.948 131.471 139.47L161.048 124.138C161.721 123.801 161.927 122.977 161.59 122.303C155.46 111.53 144.078 104.173 130.929 103.695C130.246 103.695 129.564 104.238 129.564 104.987ZM129.564 185.261C104.902 185.261 84.8659 165.22 84.8659 140.556C84.8659 115.892 104.902 95.8608 129.564 95.8608C154.236 95.8608 174.264 115.892 174.264 140.556C174.264 165.22 154.303 185.261 129.564 185.261ZM129.564 77.0558C94.5383 77.0558 66.1286 105.474 66.1286 140.556C66.1286 175.648 94.5383 204 129.564 204C164.59 204 193 175.582 193 140.49C193 105.399 164.656 77.0558 129.564 77.0558Z" fill="white"/>
</svg>