<svg width="256" height="256" viewBox="0 0 256 256" fill="none" xmlns="http://www.w3.org/2000/svg">
<rect width="256" height="256" rx="25" fill="#003DFF"/>
<path d="M127.998 58C89.745 58 58.559 88.8444 58.0074 126.969C57.4474 165.689 88.8602 197.771 127.584 197.995C139.542 198.065 151.061 195.139 161.29 189.582C162.286 189.041 162.44 187.669 161.592 186.916L155.043 181.109C153.713 179.927 151.817 179.594 150.179 180.291C143.039 183.329 135.281 184.88 127.287 184.782C95.9973 184.399 70.7164 158.365 71.2148 127.075C71.7076 96.1831 96.9913 71.2018 127.998 71.2018H184.79V172.149L152.568 143.519C151.526 142.593 149.927 142.775 149.087 143.886C143.916 150.735 135.491 154.994 126.133 154.347C113.153 153.451 102.636 143.001 101.662 130.026C100.5 114.548 112.763 101.584 128.001 101.584C141.78 101.584 153.128 112.191 154.312 125.667C154.419 126.865 154.959 127.985 155.861 128.783L164.252 136.223C165.204 137.065 166.716 136.55 166.948 135.299C167.553 132.065 167.766 128.691 167.528 125.233C166.176 105.524 150.213 89.6704 130.496 88.4552C107.892 87.0608 88.9918 104.745 88.3926 126.913C87.8074 148.514 105.506 167.137 127.11 167.613C136.129 167.812 144.49 164.975 151.246 160.061L193.346 197.382C195.152 198.981 198 197.701 198 195.288V60.6572C198 59.19 196.81 58 195.343 58H127.998Z" fill="white"/>
</svg>