<svg width="256" height="256" title="Alibaba Cloud" viewBox="0 0 256 256" fill="none" xmlns="http://www.w3.org/2000/svg">
<rect width="256" height="256" rx="40" fill="#ED6B1E"/>
<path d="M156.091 122.045H101.045V134.405H156.091V122.045Z" fill="white"/>
<path d="M183.545 77H147.168L155.953 89.4973L182.584 97.6C187.526 99.1107 190.683 103.78 190.546 108.587V148.413C190.546 153.357 187.388 157.889 182.584 159.4L156.091 167.503L147.168 180H183.545C198.782 180 210.999 167.64 210.999 152.533V104.467C211.136 89.36 198.782 77 183.545 77Z" fill="white"/>
<path d="M73.4541 77H109.831L101.045 89.4973L74.5522 97.6C69.6105 99.1107 66.4533 103.78 66.5905 108.587V148.413C66.5905 153.357 69.7478 157.889 74.5522 159.4L101.045 167.503L109.831 180H73.4541C58.3543 180 46 167.64 46 152.533V104.467C46 89.36 58.3543 77 73.4541 77Z" fill="white"/>
</svg>