<svg width="256" height="256" title="Amazon S3" viewBox="0 0 256 256" fill="none" xmlns="http://www.w3.org/2000/svg" id="amazons3">
<style>
#amazons3 {
    rect {fill: #7AA116}
    path {fill: #FFFFFF}

    @media (prefers-color-scheme: light) {
        rect {fill: #F4F2ED}
        path {fill: #15191C}
    }
}
</style>
<rect width="256" height="256" rx="40" fill="#7AA116"/>
<path d="M154.277,99.256 L155.504,91.205 C166.716,97.992 166.867,100.715 166.864,100.792 C166.849,100.808 164.963,102.42 154.277,99.256 Z M148.058,97.526 C128.555,91.603 101.6,79.096 90.564,73.876 C90.564,73.831 90.576,73.789 90.576,73.744 C90.576,69.504 87.127,66.054 82.887,66.054 C78.656,66.054 75.197,69.504 75.197,73.744 C75.197,77.984 78.656,81.433 82.887,81.433 C84.746,81.433 86.434,80.739 87.77,79.636 C100.755,85.793 127.79,98.108 147.539,103.936 L139.744,158.596 C139.722,158.746 139.712,158.896 139.712,159.046 C139.712,163.894 118.25,172.8 83.181,172.8 C47.813,172.8 26.053,163.894 26.053,159.046 C26.053,158.899 26.043,158.755 26.024,158.611 L9.622,39.789 C23.831,49.541 54.176,54.4 83.2,54.4 C112.179,54.4 142.494,49.555 156.717,39.898 L148.058,97.526 Z M6.4,27.13 C6.63,22.918 30.83,6.4 83.2,6.4 C135.565,6.4 159.766,22.915 160,27.13 L160,28.566 C157.216,38.01 125.856,48 83.2,48 C40.192,48 8.816,37.978 6.4,28.522 L6.4,27.13 Z M163.2,27.2 C163.2,16.112 131.411,0 83.2,0 C34.989,0 3.2,16.112 3.2,27.2 L3.501,29.613 L21.156,159.29 C21.582,173.792 60.291,179.2 84.615,179.2 C114.691,179.2 146.893,172.231 147.309,159.299 L154.976,107.629 C159.238,108.65 162.749,109.171 164.571,109.171 C168.357,109.171 170.917,108.246 172.469,106.397 C173.739,104.88 174.225,103.043 173.859,101.088 C173.03,96.659 167.778,91.885 157.075,85.776 L164.672,29.338 L163.2,27.2 Z" fill="#FFFFFF"/>
</svg>