<svg width="256" height="256" title="Anaconda" viewBox="0 0 256 256" fill="none" xmlns="http://www.w3.org/2000/svg" id="anaconda">
<style>
#anaconda {
    rect {fill: #15191C}

    @media (prefers-color-scheme: light) {
        rect {fill: #F4F2ED}
    }
}
</style>
<rect width="256" height="256" rx="40" fill="#15191C"/>
<path fill-rule="evenodd" clip-rule="evenodd" d="M128.185 43C124.935 43 121.685 43.2491 118.63 43.4983C123.176 46.5887 127.461 50.0448 131.445 53.8321L134.695 56.8543L131.445 60.1039C128.578 62.7705 125.893 65.6257 123.408 68.6505V68.8996C122.961 69.3777 122.542 69.8804 122.151 70.4053C124.155 70.1979 126.17 70.1148 128.185 70.1561C143.376 70.3641 157.874 76.5447 168.543 87.3607C179.212 98.1767 185.193 112.758 185.193 127.951C185.193 143.143 179.212 157.725 168.543 168.541C157.874 179.357 143.376 185.538 128.185 185.746C117.526 185.807 107.069 182.844 98.0279 177.199C93.6913 177.7 89.3297 177.953 84.9643 177.957C82.9497 178 80.9343 177.914 78.9308 177.697C79.1635 184.508 79.7528 191.302 80.6964 198.051C94.6799 207.616 111.242 212.701 128.185 212.631C139.323 212.631 150.352 210.437 160.642 206.175C170.932 201.912 180.283 195.665 188.158 187.789C196.034 179.913 202.282 170.563 206.544 160.273C210.806 149.983 213 138.953 213 127.815C213 116.677 210.806 105.648 206.544 95.358C202.282 85.0678 196.034 75.7178 188.158 67.8419C180.283 59.966 170.932 53.7186 160.642 49.4562C150.352 45.1938 139.323 43 128.185 43ZM82.2013 56.5683C88.0029 52.8026 94.2457 49.7648 100.789 47.5235C98.6515 51.4399 96.7172 55.464 94.994 59.5797C90.7894 58.3374 86.5184 57.332 82.2013 56.5683ZM77.4328 87.4072C80.8247 87.1808 84.0476 86.9657 87.4767 86.9657C83.9231 90.3646 80.8769 94.2571 78.4319 98.5236C77.5191 94.8887 76.846 91.1979 76.4171 87.4748L77.4328 87.4072ZM74.4133 172.659V173.157L73.655 172.93C67.1895 172.383 60.7932 171.204 54.558 169.409L54.0597 169.16L54.3088 168.651C56.2375 162.64 58.5866 156.773 61.3389 151.092L61.5989 150.583L62.0972 150.832C66.3244 153.245 70.686 155.416 75.1607 157.331L75.6698 157.581V158.079C74.8648 162.898 74.4446 167.773 74.4133 172.659ZM74.4131 177.672V177.174H73.904C68.4058 176.601 62.9498 175.679 57.5691 174.412L56.0635 174.162L56.8217 175.419C61.7432 182.815 67.7585 189.422 74.6622 195.014L75.6696 196.022V194.256C74.9019 188.76 74.4823 183.221 74.4131 177.672ZM122.15 57.3171C120.396 59.0827 118.63 61.0867 116.875 63.1014C116.659 63.3506 115.369 64.8562 113.853 66.8819C110.341 65.2128 106.741 63.7761 103.174 62.3521L102.555 62.1049C104.539 57.2401 106.89 52.5327 109.585 48.0231C113.934 50.8983 118.128 54.0006 122.15 57.3171ZM59.335 111.6L59.5842 112.098L60.0825 111.85C64.038 109.024 68.1499 106.424 72.3986 104.061L72.8969 103.812V103.303C71.5945 98.446 70.671 93.4953 70.1347 88.4954V87.9863H69.6364C63.3857 89.1265 57.246 90.8082 51.2868 93.0125L50.7885 93.2616L51.0377 93.7707C53.0256 100.046 55.8144 106.039 59.335 111.6ZM57.8289 120.138L58.3272 119.64L58.6305 120.355C61.3627 124.193 64.2988 127.881 67.4262 131.404L67.6753 131.653L67.4262 132.162C64.6689 135.859 62.1368 139.718 59.8437 143.72L59.5946 144.218L59.0963 143.969C54.1928 140.741 49.4902 137.218 45.0145 133.418L44.5054 132.909L45.0145 132.454C48.9682 128.031 53.252 123.913 57.8289 120.138ZM91.7449 173.412H93.2506L91.994 172.404C87.4376 168.727 83.5307 164.311 80.4362 159.341V159.092L79.4396 158.583V159.341C78.8412 163.758 78.5048 168.207 78.4322 172.664V173.163H78.9305C79.9379 173.163 80.9426 173.225 81.9473 173.287C82.9519 173.35 83.9566 173.412 84.964 173.412H91.7449ZM92.5029 67.1262C91.0659 71.1517 89.89 75.2656 88.9825 79.4424C84.6175 79.4283 80.2555 79.6706 75.9189 80.1681C75.6302 74.6408 75.7135 69.1003 76.1681 63.5841C81.6893 64.3805 87.1477 65.5641 92.5029 67.1262ZM97.0198 79.1737C100.779 76.9 104.734 74.9678 108.838 73.4001C105.911 71.9328 102.885 70.6731 99.782 69.6306C98.7854 72.6419 97.778 75.9132 97.0198 79.1737ZM57.0818 148.075H57.5692L57.331 149.071C55.0654 153.652 53.0512 158.353 51.2974 163.153L50.7992 164.41L50.3009 163.153C46.824 155.683 44.5326 147.715 43.5091 139.539L43.26 138.023L44.5165 139.03C48.5387 142.269 52.7333 145.289 57.0818 148.075ZM68.3797 67.624C63.3282 72.6577 58.9384 78.3143 55.3162 84.4571C59.5521 83.21 64.0441 82.219 68.5275 81.2298L68.6288 81.2075C68.3797 76.6688 68.3797 72.1518 68.3797 67.624ZM70.8927 125.668V127.173L70.1777 125.906C68.2717 123.811 66.5152 121.423 64.7901 119.078C64.2409 118.331 63.6944 117.588 63.1477 116.861L62.3894 116.352L62.8986 116.103C66.0181 113.929 69.1377 111.996 72.2573 110.062L72.6475 109.82L73.904 109.073L73.4057 110.589C71.9197 115.485 71.075 120.554 70.8927 125.668ZM71.6403 135.975L71.3912 134.469L70.6438 135.725C68.3799 138.975 66.116 142.506 64.1445 146.027L63.8845 146.525L64.3936 146.774C67.8062 148.733 71.4646 150.447 75.1299 152.163L75.4424 152.31L76.699 152.808L76.2006 151.551C73.9273 146.61 72.3908 141.362 71.6403 135.975ZM55.5653 115.323L55.0561 115.572C50.9522 118.636 47.2413 122.194 44.0074 126.165L43 127.173V125.667C43.1902 117.558 44.5435 109.518 47.0187 101.793L47.5278 100.288L48.0261 101.544C50.2073 106.1 52.6411 110.529 55.3161 114.814L55.5653 115.323Z" fill="#43B049"/>
</svg>