<svg width="256" height="256" title="Android Studio" viewBox="0 0 256 256" fill="none" xmlns="http://www.w3.org/2000/svg" id="androidstudio">
<style>
#androidstudio {
    rect {fill: #15191C}

    @media (prefers-color-scheme: light) {
        rect {fill: #F4F2ED}
    }
}
</style>
<rect width="256" height="256" rx="40" fill="#15191C"/>
<path d="M107.478 212.605C104.609 211.923 102.206 210.331 98.845 206.883C93.2309 201.124 88.6729 198.724 80.7537 197.362C72.5371 195.948 68.8872 192.893 66.6924 185.6C63.9825 176.596 61.1509 172.285 54.929 167.689C47.87 162.475 46.0596 157.878 47.7815 149.546C49.3773 141.829 48.7665 136.343 45.5258 129.289C41.6583 120.873 42.1355 116.376 47.6277 109.481C52.663 103.159 54.2427 98.9809 54.9971 89.9955C55.7573 80.9273 58.28 77.2078 65.7103 74.1977C71.9104 71.6851 77.2155 67.323 80.156 62.3197C83.5564 56.5329 84.0526 55.8699 86.1603 54.2974C89.5607 51.7602 92.3097 51.0581 97.5452 51.3859C106.641 51.956 111.515 50.8637 117.622 46.8874C125.585 41.7042 130.415 41.7042 138.377 46.8874C144.486 50.8637 149.36 51.956 158.454 51.3859C167.056 50.8463 170.634 53.1035 175.877 62.3777C178.475 66.9719 183.784 71.4443 189.598 73.9323C197.875 77.4748 200.28 80.7083 200.891 89.1106C201.552 98.2106 203.418 103.298 208.36 109.481C213.864 116.363 214.344 120.864 210.474 129.289C207.234 136.343 206.622 141.829 208.218 149.546C209.941 157.878 208.129 162.475 201.072 167.689C194.85 172.285 192.018 176.596 189.309 185.6C187.114 192.893 183.462 195.948 175.247 197.362C167.309 198.727 162.749 201.134 157.155 206.902C150.954 213.296 146.509 214.351 137.842 211.486C130.752 209.142 125.293 209.131 118.233 211.449C113.286 213.073 110.651 213.356 107.478 212.605Z" fill="white"/>
<path d="M158.471 120.79C157.936 119.696 158.395 118.386 159.487 117.851C160.579 117.315 161.891 117.774 162.427 118.867C162.961 119.959 162.503 121.27 161.411 121.806C160.319 122.341 159.007 121.882 158.471 120.79ZM169.101 142.637C168.565 141.545 169.024 140.233 170.116 139.698C171.209 139.163 172.52 139.623 173.055 140.715C173.59 141.807 173.132 143.117 172.04 143.653C170.948 144.188 169.636 143.73 169.101 142.637ZM170.029 114.289C163.039 109.298 153.916 108.008 145.472 111.275L168.554 158.738C176.332 154.118 180.943 146.133 181.336 137.557L190.097 138.18C190.216 138.19 190.336 138.174 190.451 138.135C190.565 138.097 190.67 138.037 190.76 137.957C190.85 137.878 190.924 137.782 190.977 137.674C191.03 137.565 191.061 137.448 191.068 137.328C191.077 137.208 191.061 137.087 191.024 136.973C190.986 136.859 190.924 136.754 190.845 136.664C190.766 136.573 190.67 136.5 190.562 136.446C190.454 136.394 190.336 136.363 190.216 136.356L181.346 135.722C181.259 131.986 180.364 128.174 178.582 124.504C176.803 120.844 174.355 117.785 171.471 115.404L176.452 108.03C176.584 107.83 176.631 107.587 176.584 107.353C176.537 107.118 176.4 106.911 176.203 106.776C176.006 106.642 175.763 106.59 175.528 106.633C175.293 106.675 175.084 106.808 174.945 107.003L170.029 114.279" fill="#3DDC84"/>
<path d="M148.749 132.161C142.239 135.307 135.237 136.901 127.94 136.901C119.989 136.907 112.161 134.933 105.164 131.157C98.167 127.381 92.2202 121.922 87.8606 115.273C87.1729 114.225 85.7527 113.973 84.7372 114.716L76.3582 120.887C75.408 121.587 75.1889 122.919 75.8548 123.903C81.5869 132.455 89.3379 139.461 98.4224 144.305C107.506 149.148 117.644 151.677 127.94 151.671C137.477 151.671 146.641 149.585 155.173 145.466L148.749 132.161ZM123.331 79.6507H132.398V69.6338C132.398 67.1314 130.365 65.1005 127.864 65.1005C125.361 65.1005 123.331 67.1314 123.331 69.6338V79.6507Z" fill="#4285F4"/>
<path d="M116.066 99.2043L84.8997 163.349C84.226 164.732 83.8608 166.245 83.8292 167.783L83.6434 176.184C83.5999 178.358 86.1125 179.581 87.7953 178.205L94.2841 172.873C95.4749 171.898 96.4401 170.676 97.1129 169.292L127.831 106.053L116.076 99.2144L116.066 99.2043ZM171.907 167.773C171.876 166.232 171.505 164.725 170.837 163.339L139.673 99.1927L127.917 106.053L158.636 169.268C159.311 170.652 160.276 171.873 161.464 172.852L167.953 178.183C169.636 179.56 172.159 178.335 172.105 176.163L171.919 167.761L171.907 167.773Z" fill="#4285F4"/>
<path d="M127.863 78.8528C120.358 78.8528 114.263 84.9601 114.263 92.4528C114.263 99.9469 120.37 106.053 127.863 106.053C135.357 106.053 141.463 99.9469 141.463 92.4528C141.463 84.9601 135.357 78.8528 127.863 78.8528ZM127.863 99.9354C123.746 99.9354 120.38 96.5828 120.38 92.4528C120.38 88.3242 123.734 84.9703 127.863 84.9703C131.992 84.9703 135.346 88.3242 135.346 92.4528C135.346 96.5828 131.992 99.9354 127.863 99.9354Z" fill="#073042"/>
</svg>