<svg viewBox="0 0 256 256" xmlns="http://www.w3.org/2000/svg" xml:space="preserve" style="fill-rule:evenodd;clip-rule:evenodd;stroke-linejoin:round;stroke-miterlimit:2"><path d="M256 40v176c0 22.077-17.923 40-40 40H40c-22.077 0-40-17.923-40-40V40C0 17.923 17.923 0 40 0h176c22.077 0 40 17.923 40 40" style="fill:#1f1e1e"/><path d="M15.916 3.636c-.328.12-.746.374-.955.569-.836.777-.792-.135-.792 16.862 0 8.625.045 15.696.12 15.696.06 0 .716-.359 1.448-.792l1.343-.792.045-14.157c.015-7.788.06-14.157.09-14.157s25.258 14.561 25.811 14.904c.074.045-.448.404-1.15.823-.716.403-1.254.792-1.209.867.03.059.687.463 1.433.897l1.374.777.477-.269c1.403-.748 2.09-1.331 2.374-2.018.403-1.002.239-1.929-.478-2.691-.388-.389-4.702-2.975-13.988-8.327a3749 3749 0 0 0-13.883-7.997c-.702-.359-1.433-.419-2.06-.195" style="fill:#00b0e8;fill-rule:nonzero" transform="translate(39.772 42.057)scale(3.30313)"/><path d="M8.691 7.777c-.672.195-1.493 1.062-1.687 1.764-.105.404-.134 5.741-.12 16.788l.045 16.204.403.613c.538.823 1.553 1.316 2.434 1.196.507-.074 3.777-1.898 14.137-7.893a3176 3176 0 0 0 13.51-7.818c.015-.015-.642-.419-1.463-.897l-1.493-.852-12.181 7.026c-6.688 3.872-12.227 7.041-12.301 7.041-.075 0-.135-6.01-.135-14.949 0-8.969.06-14.949.135-14.949.074 0 .656.299 1.268.673.628.374 1.18.673 1.225.673.03 0 .044-.793.03-1.749l-.045-1.749-1.239-.643c-1.254-.658-1.657-.733-2.523-.479" style="fill:#00b0e8;fill-rule:nonzero" transform="translate(39.772 42.057)scale(3.30313)"/><path d="m18.677 14.295.045 1.749L30.933 23.1l12.212 7.056-.493.299c-.97.598-25.378 14.68-25.438 14.68-.03 0-.059-.673-.059-1.51 0-.823-.06-1.48-.12-1.45-.059.015-.731.403-1.493.837l-1.373.807v1.405c0 1.57.149 2.033.896 2.661.671.568 1.507.777 2.224.568.478-.149 25.841-14.695 27.931-16.025.895-.583 1.254-1.211 1.269-2.257 0-1.63.761-1.122-13.958-9.627a4317 4317 0 0 0-13.54-7.819l-.358-.194z" style="fill:#00b0e8;fill-rule:nonzero" transform="translate(39.772 42.057)scale(3.30313)"/></svg>