<svg viewBox="0 0 256 256" xmlns="http://www.w3.org/2000/svg" xml:space="preserve" style="fill-rule:evenodd;clip-rule:evenodd;stroke-linejoin:round;stroke-miterlimit:2"><path d="M256 40v176c0 22.077-17.923 40-40 40H40c-22.077 0-40-17.923-40-40V40C0 17.923 17.923 0 40 0h176c22.077 0 40 17.923 40 40" style="fill:#1f1e1e"/><path d="M167.115 81.781h32v124.438h-32zm0 0H67.669v-32h99.446zm-65.782 124.438c-28.28 0-51.552-23.272-51.552-51.552s23.272-51.552 51.552-51.552 51.552 23.271 51.552 51.552-23.271 51.552-51.552 51.552" style="fill:url(#a)"/><defs><linearGradient id="a" x1="0" y1="0" x2="1" y2="0" gradientUnits="userSpaceOnUse" gradientTransform="rotate(90 37.333 87.115)scale(156.437)"><stop offset="0" style="stop-color:#fff;stop-opacity:1"/><stop offset="1" style="stop-color:#8b8b8b;stop-opacity:1"/></linearGradient></defs></svg>