<svg width="256" height="256" title="Apache Maven" viewBox="0 0 256 256" fill="none" xmlns="http://www.w3.org/2000/svg" id="apachemaven">
<style>
#apachemaven {
    rect {fill: #15191C}

    @media (prefers-color-scheme: light) {
        rect {fill: #F4F2ED}
    }
}
</style>
<rect width="256" height="256" rx="40" fill="#15191C"/>
<path d="M82.9085 45.5005C81.6948 48.3656 80.7394 54.5946 80.3035 62.9299L89.6724 67.4636C89.5174 61.4968 89.7407 55.8841 90.3407 50.7846C90.3765 50.403 90.4106 50.1806 90.4106 50.1806C90.4021 50.3842 90.3492 50.581 90.3407 50.7846C90.1515 52.4633 89.7535 57.7305 90.2986 67.2408C94.1763 64.0786 99.7574 58.7184 104.172 54.1356C99.508 44.6083 93.7064 42.9443 93.7064 42.9443C93.7064 42.9443 85.4075 39.5993 82.9085 45.5005Z" fill="url(#linearGradient1)"/>
<path d="M115.387 117.448C114.949 117.928 114.492 118.381 114.035 118.835C114.273 118.621 114.518 118.363 114.737 118.123C114.974 117.909 115.193 117.669 115.387 117.448Z" fill="#BE202E"/>
<path d="M115.387 117.448C114.949 117.928 114.492 118.381 114.035 118.835C114.273 118.621 114.518 118.363 114.737 118.123C114.974 117.909 115.193 117.669 115.387 117.448Z" fill="#BE202E"/>
<path d="M111.956 109.977C111.93 109.996 111.93 109.996 111.956 109.977C112.033 109.921 112.091 109.839 112.168 109.782C112.464 109.486 112.76 109.19 113.011 108.887C112.683 109.246 112.31 109.599 111.956 109.977Z" fill="#BE202E"/>
<path d="M111.956 109.977C111.93 109.996 111.93 109.996 111.956 109.977C112.033 109.921 112.091 109.839 112.168 109.782C112.464 109.486 112.76 109.19 113.011 108.887C112.683 109.246 112.31 109.599 111.956 109.977Z" fill="#BE202E"/>
<path d="M92.1251 95.1181C91.6925 92.0006 91.2976 88.9344 90.9403 85.9195C90.5778 82.79 90.2975 79.7186 90.0805 76.6797C90.0633 76.4949 90.0461 76.3101 90.0477 76.1509C89.8427 73.1822 89.6942 70.2904 89.6279 67.4567L80.2778 62.9487C80.2593 63.5151 80.215 64.1003 80.1896 64.7112C80.0966 66.9512 80.0275 69.3314 80.0081 71.8331C79.9854 74.6531 80.0124 77.5946 80.0635 80.6764C80.1298 83.51 80.2458 86.4651 80.3994 89.4716C80.5512 92.0451 80.7218 94.6442 80.9301 97.2947C80.9352 97.4094 80.9472 97.4795 80.9524 97.5942L93.4605 103.93C93.0262 100.972 92.5662 98.032 92.1251 95.1181Z" fill="url(#linearGradient2)"/>
<path d="M110.609 169.086C111.298 171.424 111.999 173.831 112.763 176.271C112.782 176.296 112.775 176.341 112.794 176.366C112.898 176.724 112.984 177.056 113.114 177.395C113.613 179.042 114.094 180.505 115.129 183.852C117.152 183.433 119.676 184.344 122.312 185.568C120.62 183.533 118.279 182.172 115.481 181.856C123.141 176.747 128.181 170.165 127.472 162.314C127.397 161.62 127.302 160.899 127.163 160.172C127.043 163.182 125.799 165.359 122.133 167.734C125.595 161.639 126.548 157.505 126.138 152.159C126.037 150.891 125.879 149.547 125.645 148.099C124.538 156.058 120.264 161.209 114.013 164.258L110.221 167.752C110.357 168.205 110.473 168.633 110.609 169.086Z" fill="url(#linearGradient3)"/>
<path d="M105.734 158.411C104.937 155.443 104.147 152.43 103.337 149.391C102.578 146.474 101.844 143.538 101.117 140.557C100.391 137.577 99.6894 134.577 98.9881 131.578C98.2749 128.509 97.6061 125.446 96.9631 122.364C96.3131 119.327 95.7145 116.253 95.1091 113.223C94.8913 112.119 94.6923 111.041 94.5002 109.919C94.1502 108.043 93.8259 106.149 93.5017 104.255C93.4708 104.159 93.4656 104.045 93.4348 103.949L80.9969 97.601C81.0141 97.7858 81.0502 97.9962 81.0417 98.1999C81.2928 101.016 81.5371 103.877 81.8704 106.752C82.1968 109.671 82.5678 112.597 83.0021 115.555C83.3711 118.048 83.7658 120.522 84.1793 123.022C84.2634 123.513 84.3663 124.03 84.4504 124.521C85.0233 127.615 85.6355 130.6 86.3007 133.389C87.0448 136.554 87.8419 139.523 88.6474 142.288C89.1889 144.101 89.7185 145.845 90.2617 147.499C90.7312 148.892 91.2451 150.291 91.7403 151.665C92.9293 154.899 94.2466 158.038 95.6666 161.102L108.238 167.47C107.568 165.159 106.949 162.81 106.267 160.428C106.095 159.764 105.924 159.101 105.734 158.411Z" fill="url(#linearGradient4)"/>
<path d="M95.8533 161.518C97.5849 165.222 99.4962 168.794 101.638 172.196C101.714 172.299 101.782 172.446 101.858 172.549C98.3833 171.151 92.2269 171.8 92.2714 171.807C98.6276 174.011 104.202 176.711 107.719 180.802C106.321 182.341 103.706 183.511 100.417 184.464C104.964 184.957 107.499 184.161 108.427 183.757C106.051 185.738 104.721 189.359 103.554 193.256C106.229 188.885 108.881 185.99 111.465 184.883C115.238 197.394 119.784 210.956 124.82 225.185C125.671 224.086 125.767 222.871 125.41 221.633C124.482 219.077 118.493 202.151 111.657 179.175C111.46 178.53 111.289 177.866 111.073 177.195C111.011 177.004 110.968 176.838 110.906 176.646C110.205 174.239 109.492 171.761 108.767 169.214C108.608 168.62 108.442 168.071 108.282 167.477L108.264 167.452L95.6922 161.083C95.7351 161.249 95.7848 161.371 95.8533 161.518Z" fill="url(#linearGradient5)"/>
<path d="M94.9219 104.2C94.994 104.621 95.0729 104.997 95.1449 105.418C95.3868 106.662 95.6029 107.925 95.8636 109.194C96.1295 110.578 96.4142 111.988 96.692 113.443C96.831 114.17 96.9699 114.897 97.1277 115.65C97.5822 117.883 98.0743 120.167 98.5785 122.521C99.2044 125.418 99.8868 128.391 100.619 131.487C101.308 134.416 102.047 137.466 102.824 140.568C103.576 143.53 104.341 146.562 105.181 149.696C105.916 152.473 106.708 155.327 107.512 158.251C107.536 158.391 107.604 158.539 107.628 158.679C108.439 161.558 109.28 164.534 110.16 167.56C110.172 167.63 110.184 167.701 110.221 167.752L114.013 164.258C113.918 164.289 113.841 164.345 113.719 164.395C118.219 160.144 122.076 151.627 122.957 143.952C123.362 140.417 123.325 136.654 122.839 132.549C122.488 129.49 121.866 126.275 121.01 122.797C120.264 119.79 119.342 116.598 118.218 113.238C117.522 114.657 116.534 116.053 115.323 117.416C115.104 117.656 114.885 117.895 114.666 118.135C114.448 118.375 114.21 118.589 113.965 118.847C117.284 113.686 117.679 108.145 116.694 102.393C116.091 104.099 114.906 106.627 112.941 108.899C112.689 109.202 112.394 109.498 112.098 109.794C112.021 109.851 111.963 109.933 111.86 110.008C112.961 108.173 113.775 106.431 114.296 104.667C114.421 104.299 114.501 103.924 114.581 103.549C114.714 102.977 114.803 102.399 114.892 101.821C114.927 101.439 114.982 101.083 115.018 100.701C115.084 99.8236 115.087 98.9133 115.001 97.9893C114.979 97.6898 114.975 97.4161 114.927 97.1355C114.855 96.7145 114.802 96.3193 114.723 95.9429C114.423 94.1891 114.088 92.6577 113.746 91.33C113.574 90.6662 113.415 90.0725 113.249 89.5233C113.168 89.306 113.132 89.0956 113.051 88.8783C112.848 88.2778 112.681 87.7285 112.501 87.2683C112.241 86.5908 112.005 86.0536 111.811 85.6824C111.751 85.9237 111.666 86.1838 111.536 86.4371C110.753 88.2753 108.932 90.7967 107.271 92.5685C107.245 92.5873 107.22 92.6061 107.213 92.6506C107.052 92.8081 106.866 92.9845 106.698 93.1864C106.705 93.142 106.756 93.1043 106.763 93.0598L94.8157 104.001C94.9167 104.085 94.9287 104.155 94.9219 104.2Z" fill="url(#linearGradient6)"/>
<path d="M90.2986 67.2408C90.4435 69.8588 90.6742 72.8088 90.9717 76.065C90.9889 76.2497 90.9872 76.4089 91.0301 76.5748C91.3001 79.417 91.6505 82.4763 92.0935 85.8232C92.4713 88.7046 92.8919 91.752 93.4119 95.0423C93.841 97.886 94.3643 100.858 94.9047 104.015L106.852 93.0734C109.343 88.56 109.888 85.7517 109.854 82.2627C109.838 81.3267 109.784 80.3394 109.712 79.3264C109.521 76.2687 109.153 73.0245 108.631 69.8933C108.141 66.8579 107.54 63.9424 106.853 61.4461C106.418 59.831 105.955 58.3938 105.484 57.1603C105.056 56.0927 104.614 55.1142 104.165 54.1801C99.7574 58.7184 94.1763 64.0786 90.2986 67.2408Z" fill="url(#linearGradient7)"/>
<path d="M114.755 118.149C114.537 118.388 114.299 118.602 114.054 118.861C114.273 118.621 114.492 118.381 114.755 118.149Z" fill="#BE202E"/>
<path d="M114.755 118.149C114.537 118.388 114.299 118.602 114.054 118.861C114.273 118.621 114.492 118.381 114.755 118.149Z" fill="#BE202E"/>
<path d="M114.755 118.149C114.537 118.388 114.299 118.602 114.054 118.861C114.273 118.621 114.492 118.381 114.755 118.149Z" fill="url(#linearGradient8)"/>
<path d="M111.93 109.996C112.007 109.94 112.065 109.857 112.168 109.782C112.091 109.839 112.033 109.921 111.93 109.996Z" fill="#BE202E"/>
<path d="M111.93 109.996C112.007 109.94 112.065 109.857 112.168 109.782C112.091 109.839 112.033 109.921 111.93 109.996Z" fill="#BE202E"/>
<path d="M111.93 109.996C112.007 109.94 112.065 109.857 112.168 109.782C112.091 109.839 112.033 109.921 111.93 109.996Z" fill="url(#linearGradient9)"/>
<path d="M184.318 52.4846C181.442 53.671 176.386 57.433 170.221 63.0589L173.703 72.8671C177.785 68.5117 181.886 64.6741 185.896 61.4663C186.189 61.2199 186.37 61.0855 186.37 61.0855C186.221 61.2245 186.045 61.3273 185.896 61.4663C184.582 62.5282 180.599 65.9971 174.306 73.1485C179.287 73.622 187.024 73.7279 193.385 73.5674C196.759 63.5106 193.799 58.2508 193.799 58.2508C193.799 58.2508 190.243 50.0403 184.318 52.4846Z" fill="url(#linearGradient10)"/>
<path d="M156.89 126.505C156.242 126.538 155.598 126.54 154.954 126.542C155.274 126.557 155.629 126.545 155.954 126.528C156.273 126.543 156.597 126.526 156.89 126.505Z" fill="#BE202E"/>
<path d="M156.89 126.505C156.242 126.538 155.598 126.54 154.954 126.542C155.274 126.557 155.629 126.545 155.954 126.528C156.273 126.543 156.597 126.526 156.89 126.505Z" fill="#BE202E"/>
<path d="M159.697 118.778C159.665 118.773 159.665 118.773 159.697 118.778C159.791 118.791 159.89 118.774 159.985 118.788C160.403 118.785 160.822 118.782 161.214 118.743C160.727 118.768 160.214 118.757 159.697 118.778Z" fill="#BE202E"/>
<path d="M159.697 118.778C159.665 118.773 159.665 118.773 159.697 118.778C159.791 118.791 159.89 118.774 159.985 118.788C160.403 118.785 160.822 118.782 161.214 118.743C160.727 118.768 160.214 118.757 159.697 118.778Z" fill="#BE202E"/>
<path d="M156.022 94.2716C157.904 91.749 159.777 89.2893 161.641 86.8927C163.581 84.4108 165.539 82.028 167.52 79.7128C167.637 79.5692 167.755 79.4256 167.868 79.3134C169.807 77.0566 171.733 74.8942 173.677 72.831L170.189 63.0543C169.778 63.4443 169.335 63.8298 168.888 64.2467C167.248 65.7755 165.527 67.4209 163.756 69.1878C161.759 71.1788 159.712 73.2912 157.583 75.5203C155.639 77.5836 153.646 79.7682 151.643 82.0158C149.944 83.9539 148.239 85.9236 146.525 87.9562C146.449 88.0414 146.408 88.0998 146.331 88.185L150.782 101.481C152.551 99.0704 154.289 96.6553 156.022 94.2716Z" fill="url(#linearGradient11)"/>
<path d="M117.214 159.899C116.063 162.046 114.87 164.252 113.7 166.525C113.696 166.556 113.66 166.583 113.655 166.615C113.478 166.943 113.306 167.239 113.161 167.572C112.358 169.095 111.673 170.474 110.059 173.583C111.792 174.706 112.949 177.127 113.965 179.85C114.191 177.213 113.481 174.599 111.711 172.41C120.752 174.154 128.963 173.011 133.973 166.926C134.407 166.378 134.846 165.799 135.258 165.184C133.058 167.242 130.643 167.917 126.365 167.032C133.111 165.126 136.694 162.853 140.157 158.761C140.976 157.788 141.808 156.719 142.659 155.525C136.28 160.412 129.62 161.076 123.029 158.854L117.876 158.677C117.654 159.095 117.436 159.481 117.214 159.899Z" fill="url(#linearGradient12)"/>
<path d="M121.244 148.877C122.762 146.204 124.316 143.505 125.875 140.774C127.384 138.164 128.925 135.559 130.501 132.927C132.077 130.295 133.685 127.668 135.293 125.041C136.942 122.355 138.618 119.706 140.325 117.061C141.996 114.443 143.729 111.834 145.427 109.253C146.048 108.314 146.663 107.407 147.315 106.473C148.383 104.893 149.483 103.317 150.583 101.741C150.628 101.651 150.705 101.566 150.75 101.476L146.358 88.2211C146.24 88.3647 146.118 88.5398 145.969 88.6788C144.169 90.8596 142.333 93.0674 140.551 95.3473C138.733 97.6541 136.941 99.997 135.172 102.408C133.683 104.441 132.226 106.479 130.764 108.549C130.479 108.957 130.19 109.397 129.904 109.806C128.139 112.41 126.477 114.965 124.992 117.417C123.298 120.193 121.779 122.865 120.41 125.399C119.522 127.07 118.674 128.683 117.898 130.242C117.254 131.563 116.637 132.92 116.024 134.245C114.599 137.382 113.331 140.541 112.189 143.72L116.662 157.083C117.809 154.967 119.019 152.861 120.206 150.687C120.551 150.094 120.895 149.501 121.244 148.877Z" fill="url(#linearGradient13)"/>
<path d="M112.03 144.147C110.66 147.999 109.511 151.884 108.646 155.81C108.627 155.936 108.572 156.089 108.554 156.215C107.064 152.779 102.226 148.917 102.253 148.953C105.228 154.987 107.299 160.824 106.927 166.207C104.852 166.32 102.168 165.315 99.1583 163.683C102.048 167.228 104.411 168.443 105.355 168.807C102.273 168.548 98.7825 170.191 95.2145 172.144C100.189 170.912 104.11 170.715 106.726 171.742C100.623 183.297 94.3312 196.142 87.919 209.807C89.2971 209.623 90.2184 208.825 90.8349 207.693C91.9696 205.222 99.598 188.969 110.873 167.815C111.186 167.218 111.53 166.625 111.848 165.996C111.939 165.816 112.025 165.668 112.115 165.488C113.308 163.282 114.541 161.018 115.814 158.696C116.118 158.161 116.385 157.654 116.689 157.119L116.694 157.088L112.22 143.724C112.134 143.872 112.084 143.994 112.03 144.147Z" fill="url(#linearGradient14)"/>
<path d="M151.633 102.7C151.388 103.05 151.18 103.373 150.935 103.723C150.234 104.778 149.501 105.829 148.794 106.916C148.011 108.087 147.223 109.291 146.399 110.521C145.987 111.136 145.575 111.751 145.159 112.398C143.914 114.306 142.659 116.278 141.364 118.307C139.775 120.809 138.171 123.404 136.518 126.121C134.951 128.69 133.334 131.38 131.707 134.134C130.162 136.77 128.577 139.465 126.972 142.286C125.545 144.779 124.104 147.366 122.622 150.012C122.54 150.128 122.486 150.281 122.404 150.398C120.958 153.017 119.467 155.725 117.967 158.497C117.926 158.555 117.885 158.614 117.876 158.677L123.029 158.854C122.94 158.808 122.845 158.795 122.724 158.745C128.913 158.881 137.64 155.529 143.659 150.686C146.431 148.454 149.048 145.75 151.585 142.487C153.485 140.064 155.3 137.338 157.135 134.262C158.716 131.598 160.303 128.678 161.863 125.497C160.371 126.018 158.687 126.318 156.868 126.437C156.543 126.454 156.219 126.471 155.895 126.488C155.571 126.504 155.251 126.49 154.896 126.502C160.883 125.161 165.056 121.494 168.397 116.708C166.769 117.499 164.15 118.466 161.155 118.702C160.764 118.741 160.345 118.744 159.926 118.747C159.832 118.733 159.733 118.751 159.607 118.732C161.679 118.2 163.482 117.532 165.093 116.642C165.44 116.468 165.76 116.257 166.081 116.047C166.577 115.734 167.047 115.384 167.516 115.035C167.81 114.789 168.099 114.574 168.392 114.327C169.056 113.749 169.698 113.103 170.286 112.385C170.48 112.156 170.67 111.959 170.833 111.726C171.077 111.375 171.317 111.057 171.525 110.733C172.544 109.274 173.381 107.95 174.07 106.764C174.414 106.171 174.718 105.636 174.985 105.129C175.081 104.918 175.203 104.743 175.298 104.531C175.575 103.961 175.843 103.453 176.038 102.999C176.329 102.334 176.538 101.786 176.661 101.386C176.449 101.515 176.205 101.64 175.935 101.729C174.086 102.488 171.019 103.003 168.592 103.097C168.561 103.092 168.529 103.088 168.493 103.115C168.268 103.114 168.012 103.108 167.75 103.134C167.786 103.107 167.849 103.117 167.886 103.09L151.696 102.484C151.709 102.614 151.669 102.673 151.633 102.7Z" fill="url(#linearGradient15)"/>
<path d="M174.306 73.1485C172.57 75.1135 170.661 77.3749 168.586 79.9013C168.468 80.0449 168.355 80.1571 168.269 80.3053C166.465 82.5176 164.565 84.9412 162.529 87.6343C160.774 89.9503 158.932 92.4146 156.991 95.1216C155.299 97.4469 153.583 99.9296 151.75 102.556L167.939 103.162C172.883 101.7 175.243 100.084 177.67 97.5767C178.316 96.8995 178.972 96.1592 179.632 95.3875C181.644 93.0769 183.661 90.5098 185.489 87.9149C187.273 85.4099 188.893 82.9133 190.158 80.6539C190.983 79.1985 191.663 77.8507 192.194 76.6419C192.639 75.5812 193.012 74.5743 193.349 73.5943C187.024 73.7279 179.287 73.622 174.306 73.1485Z" fill="url(#linearGradient16)"/>
<path d="M155.949 126.56C155.625 126.577 155.305 126.562 154.95 126.574C155.274 126.557 155.598 126.54 155.949 126.56Z" fill="#BE202E"/>
<path d="M155.949 126.56C155.625 126.577 155.305 126.562 154.95 126.574C155.274 126.557 155.598 126.54 155.949 126.56Z" fill="#BE202E"/>
<path d="M155.949 126.56C155.625 126.577 155.305 126.562 154.95 126.574C155.274 126.557 155.598 126.54 155.949 126.56Z" fill="url(#linearGradient17)"/>
<path d="M159.665 118.773C159.76 118.787 159.859 118.769 159.985 118.788C159.89 118.774 159.791 118.791 159.665 118.773Z" fill="#BE202E"/>
<path d="M159.665 118.773C159.76 118.787 159.859 118.769 159.985 118.788C159.89 118.774 159.791 118.791 159.665 118.773Z" fill="#BE202E"/>
<path d="M159.665 118.773C159.76 118.787 159.859 118.769 159.985 118.788C159.89 118.774 159.791 118.791 159.665 118.773Z" fill="url(#linearGradient18)"/>
<linearGradient id="linearGradient1" x1="87.9076" y1="158.429" x2="160.774" y2="153.647" gradientUnits="userSpaceOnUse">
<stop stop-color="#F69923"/>
<stop offset="0.3123" stop-color="#F79A23"/>
<stop offset="0.8383" stop-color="#E97826"/>
</linearGradient>
<linearGradient id="linearGradient2" x1="-23.3564" y1="765.528" x2="400.085" y2="377.893" gradientUnits="userSpaceOnUse">
<stop offset="0.3233" stop-color="#9E2064"/>
<stop offset="0.6302" stop-color="#C92037"/>
<stop offset="0.7514" stop-color="#CD2335"/>
<stop offset="1" stop-color="#E97826"/>
</linearGradient>
<linearGradient id="linearGradient3" x1="70.1982" y1="394.286" x2="373.493" y2="233.467" gradientUnits="userSpaceOnUse">
<stop stop-color="#282662"/>
<stop offset="0.0954839" stop-color="#662E8D"/>
<stop offset="0.7882" stop-color="#9F2064"/>
<stop offset="0.9487" stop-color="#CD2032"/>
</linearGradient>
<linearGradient id="linearGradient4" x1="41.9442" y1="354.326" x2="275.35" y2="60.4361" gradientUnits="userSpaceOnUse">
<stop offset="0.3233" stop-color="#9E2064"/>
<stop offset="0.6302" stop-color="#C92037"/>
<stop offset="0.7514" stop-color="#CD2335"/>
<stop offset="1" stop-color="#E97826"/>
</linearGradient>
<linearGradient id="linearGradient5" x1="71.2907" y1="183.611" x2="182.301" y2="-20.9123" gradientUnits="userSpaceOnUse">
<stop stop-color="#282662"/>
<stop offset="0.0954839" stop-color="#662E8D"/>
<stop offset="0.7882" stop-color="#9F2064"/>
<stop offset="0.9487" stop-color="#CD2032"/>
</linearGradient>
<linearGradient id="linearGradient6" x1="63.4825" y1="385.802" x2="316.81" y2="201.33" gradientUnits="userSpaceOnUse">
<stop offset="0.3233" stop-color="#9E2064"/>
<stop offset="0.6302" stop-color="#C92037"/>
<stop offset="0.7514" stop-color="#CD2335"/>
<stop offset="1" stop-color="#E97826"/>
</linearGradient>
<linearGradient id="linearGradient7" x1="18.2642" y1="895.282" x2="429.012" y2="680.663" gradientUnits="userSpaceOnUse">
<stop offset="0.3233" stop-color="#9E2064"/>
<stop offset="0.6302" stop-color="#C92037"/>
<stop offset="0.7514" stop-color="#CD2335"/>
<stop offset="1" stop-color="#E97826"/>
</linearGradient>
<linearGradient id="linearGradient8" x1="-2066.22" y1="111373" x2="17360.3" y2="109630" gradientUnits="userSpaceOnUse">
<stop offset="0.3233" stop-color="#9E2064"/>
<stop offset="0.6302" stop-color="#C92037"/>
<stop offset="0.7514" stop-color="#CD2335"/>
<stop offset="1" stop-color="#E97826"/>
</linearGradient>
<linearGradient id="linearGradient9" x1="134.684" y1="223.174" x2="101.078" y2="54.7318" gradientUnits="userSpaceOnUse">
<stop offset="0.3233" stop-color="#9E2064"/>
<stop offset="0.6302" stop-color="#C92037"/>
<stop offset="0.7514" stop-color="#CD2335"/>
<stop offset="1" stop-color="#E97826"/>
</linearGradient>
<linearGradient id="linearGradient10" x1="105.731" y1="152.31" x2="265.852" y2="124.828" gradientUnits="userSpaceOnUse">
<stop stop-color="#F69923"/>
<stop offset="0.3123" stop-color="#F79A23"/>
<stop offset="0.8383" stop-color="#E97826"/>
</linearGradient>
<linearGradient id="linearGradient11" x1="-144.892" y1="675.202" x2="115.534" y2="51.7152" gradientUnits="userSpaceOnUse">
<stop offset="0.3233" stop-color="#9E2064"/>
<stop offset="0.6302" stop-color="#C92037"/>
<stop offset="0.7514" stop-color="#CD2335"/>
<stop offset="1" stop-color="#E97826"/>
</linearGradient>
<linearGradient id="linearGradient12" x1="65.8403" y1="355.453" x2="365.28" y2="-59.7829" gradientUnits="userSpaceOnUse">
<stop stop-color="#282662"/>
<stop offset="0.0954839" stop-color="#662E8D"/>
<stop offset="0.7882" stop-color="#9F2064"/>
<stop offset="0.9487" stop-color="#CD2032"/>
</linearGradient>
<linearGradient id="linearGradient13" x1="2.19802" y1="321.035" x2="116.968" y2="-56.8961" gradientUnits="userSpaceOnUse">
<stop offset="0.3233" stop-color="#9E2064"/>
<stop offset="0.6302" stop-color="#C92037"/>
<stop offset="0.7514" stop-color="#CD2335"/>
<stop offset="1" stop-color="#E97826"/>
</linearGradient>
<linearGradient id="linearGradient14" x1="68.3012" y1="173.999" x2="113.677" y2="-44.6351" gradientUnits="userSpaceOnUse">
<stop stop-color="#282662"/>
<stop offset="0.0954839" stop-color="#662E8D"/>
<stop offset="0.7882" stop-color="#9F2064"/>
<stop offset="0.9487" stop-color="#CD2032"/>
</linearGradient>
<linearGradient id="linearGradient15" x1="50.7133" y1="348.145" x2="239.44" y2="-11.2699" gradientUnits="userSpaceOnUse">
<stop offset="0.3233" stop-color="#9E2064"/>
<stop offset="0.6302" stop-color="#C92037"/>
<stop offset="0.7514" stop-color="#CD2335"/>
<stop offset="1" stop-color="#E97826"/>
</linearGradient>
<linearGradient id="linearGradient16" x1="-51.1412" y1="786.959" x2="359.633" y2="225.64" gradientUnits="userSpaceOnUse">
<stop offset="0.3233" stop-color="#9E2064"/>
<stop offset="0.6302" stop-color="#C92037"/>
<stop offset="0.7514" stop-color="#CD2335"/>
<stop offset="1" stop-color="#E97826"/>
</linearGradient>
<linearGradient id="linearGradient17" x1="-4746.46" y1="95941.4" x2="37060.4" y2="86126.9" gradientUnits="userSpaceOnUse">
<stop offset="0.3233" stop-color="#9E2064"/>
<stop offset="0.6302" stop-color="#C92037"/>
<stop offset="0.7514" stop-color="#CD2335"/>
<stop offset="1" stop-color="#E97826"/>
</linearGradient>
<linearGradient id="linearGradient18" x1="96.3522" y1="215.305" x2="190.765" y2="71.8186" gradientUnits="userSpaceOnUse">
<stop offset="0.3233" stop-color="#9E2064"/>
<stop offset="0.6302" stop-color="#C92037"/>
<stop offset="0.7514" stop-color="#CD2335"/>
<stop offset="1" stop-color="#E97826"/>
</linearGradient>
</svg>