<svg width="256" height="256" title="Apache Subversion" viewBox="0 0 256 256" fill="none" xmlns="http://www.w3.org/2000/svg" id="apachesubversion">
<style>
#apachesubversion {
    rect {fill: #15191C}

    @media (prefers-color-scheme: light) {
        rect {fill: #F4F2ED}
    }
}
</style>
<rect width="256" height="256" rx="40" fill="#15191C"/>
<path d="M194.926 68.1411H54.1362V170.851H194.928L194.926 68.1411Z" fill="#809CC9"/>
<path d="M196.145 67L198.312 75.5846C178.379 78.4744 160.643 81.8806 145.104 85.8045C128.337 90.0388 114.852 94.3409 104.645 98.7095C94.4161 102.992 89.6394 106.471 90.3136 109.142C90.9082 111.498 95.1842 112.566 103.176 112.341C107.272 112.265 113.937 111.821 123.173 111C132.41 110.184 144.326 108.997 158.924 107.445C185.786 104.65 204.256 103.433 214.335 103.794C224.39 104.068 229.911 106.12 230.881 109.956C232.194 115.156 222.66 122.124 202.281 130.855C181.864 139.504 155.492 147.906 123.188 156.065C95.9928 162.931 72.5471 167.839 52.8479 170.789L50.7028 162.299C74.0037 158.968 94.9586 154.954 113.565 150.255C130.943 145.868 144.333 141.61 153.73 137.477C163.126 133.344 167.466 129.861 166.748 127.019C166.126 124.56 161.786 123.304 153.743 123.249C149.624 123.294 143.95 123.584 136.709 124.12C129.451 124.66 120.436 125.498 109.665 126.628C92.9543 128.421 79.0687 129.777 68.0259 130.698C56.9675 131.623 48.7245 132.069 43.2801 132.041C32.8345 131.945 27.1228 129.929 26.1317 126.006C24.7963 120.71 33.617 114.015 52.5976 105.92C71.7764 97.7458 97.7571 89.5198 130.574 81.2338C153.27 75.5038 175.126 70.7596 196.145 67Z" fill="white"/>
<path d="M60.2003 140.129C60.5641 140.129 60.8797 140.266 61.1496 140.541C61.417 140.808 61.5526 141.129 61.5526 141.501C61.5526 141.888 61.417 142.216 61.1496 142.484C60.881 142.752 60.5576 142.886 60.1781 142.886C59.7908 142.886 59.4635 142.752 59.1962 142.483C58.9275 142.208 58.7932 141.88 58.7932 141.501C58.7932 141.114 58.9275 140.79 59.1962 140.529C59.47 140.263 59.8052 140.129 60.2003 140.129ZM60.2003 149.001C60.5641 149.001 60.8797 149.14 61.1496 149.415C61.417 149.685 61.5526 150.01 61.5526 150.391C61.5526 150.771 61.417 151.096 61.1496 151.366C60.8667 151.628 60.5433 151.759 60.1781 151.759C59.9851 151.759 59.8039 151.723 59.6369 151.652C59.47 151.581 59.3227 151.485 59.1962 151.361C59.0684 151.237 58.9706 151.092 58.8988 150.923C58.8271 150.755 58.7932 150.573 58.7932 150.379C58.7932 149.998 58.9275 149.672 59.1962 149.404C59.47 149.135 59.8052 149.001 60.2003 149.001Z" fill="white"/>
<path d="M64.9653 140.129C65.3304 140.129 65.646 140.266 65.9147 140.541C66.1833 140.809 66.3176 141.129 66.3176 141.501C66.3176 141.888 66.1833 142.216 65.9147 142.484C65.6473 142.752 65.3239 142.886 64.9444 142.886C64.5571 142.886 64.2285 142.752 63.9612 142.483C63.6925 142.208 63.5582 141.88 63.5582 141.501C63.5582 141.114 63.6925 140.79 63.9612 140.529C64.2363 140.263 64.5715 140.129 64.9653 140.129ZM64.9653 149.001C65.3304 149.001 65.646 149.14 65.9147 149.415C66.1833 149.685 66.3176 150.01 66.3176 150.391C66.3176 150.772 66.1833 151.096 65.9147 151.366C65.6317 151.628 65.3083 151.759 64.9444 151.759C64.7514 151.759 64.5702 151.723 64.402 151.652C64.235 151.581 64.0877 151.485 63.9612 151.361C63.8347 151.237 63.7356 151.092 63.6652 150.923C63.5934 150.755 63.5582 150.573 63.5582 150.379C63.5582 149.998 63.6925 149.672 63.9612 149.404C64.2363 149.135 64.5715 149.001 64.9653 149.001Z" fill="white"/>
<path d="M62.2697 180.997C62.2697 181.562 62.1249 182.069 61.8341 182.519C61.5433 182.969 61.1182 183.321 60.5575 183.576C59.998 183.831 59.3343 183.959 58.5688 183.959C57.6481 183.959 56.8891 183.784 56.2919 183.437C55.8668 183.188 55.5212 182.853 55.2565 182.434C54.9904 182.015 54.8574 181.609 54.8574 181.213C54.8574 180.984 54.937 180.788 55.0974 180.624C55.2552 180.461 55.4586 180.379 55.7051 180.379C55.9046 180.379 56.0728 180.443 56.2123 180.569C56.3519 180.696 56.4679 180.886 56.5657 181.138C56.6844 181.435 56.8122 181.683 56.9517 181.882C57.0887 182.082 57.283 182.246 57.5347 182.377C57.7837 182.507 58.1137 182.571 58.5231 182.571C59.0839 182.571 59.539 182.439 59.8898 182.178C60.2406 181.918 60.4153 181.59 60.4153 181.2C60.4153 180.89 60.3214 180.637 60.131 180.444C59.942 180.252 59.6981 180.104 59.3982 180.002C59.0982 179.9 58.6979 179.792 58.1958 179.677C57.5242 179.519 56.9635 179.336 56.5097 179.124C56.0572 178.916 55.6985 178.628 55.4338 178.265C55.1678 177.902 55.0348 177.45 55.0348 176.911C55.0348 176.396 55.1743 175.94 55.4547 175.541C55.7351 175.14 56.1393 174.834 56.6701 174.619C57.2008 174.405 57.8242 174.298 58.5427 174.298C59.1139 174.298 59.6094 174.37 60.028 174.511C60.4453 174.653 60.7935 174.843 61.0687 175.078C61.3451 175.315 61.5459 175.562 61.6737 175.821C61.8015 176.079 61.8641 176.334 61.8641 176.579C61.8641 176.804 61.7846 177.007 61.6268 177.188C61.4677 177.369 61.2708 177.459 61.0334 177.459C60.8183 177.459 60.654 177.404 60.5431 177.296C60.431 177.188 60.3097 177.01 60.1793 176.764C60.0085 176.411 59.805 176.137 59.5664 175.939C59.3277 175.74 58.9456 175.643 58.4188 175.643C57.9311 175.643 57.536 175.749 57.2373 175.963C56.9387 176.178 56.7874 176.437 56.7874 176.738C56.7874 176.926 56.8383 177.087 56.94 177.223C57.0417 177.359 57.1826 177.475 57.3599 177.574C57.5373 177.673 57.7185 177.749 57.9024 177.803C58.0863 177.859 58.3862 177.939 58.8074 178.046C59.3316 178.17 59.8076 178.305 60.2328 178.454C60.6579 178.603 61.0204 178.783 61.3177 178.995C61.6164 179.208 61.8498 179.476 62.0167 179.801C62.1836 180.126 62.2697 180.526 62.2697 180.997Z" fill="#809CC9"/>
<path d="M69.7706 179.937V175.446C69.7706 175.064 69.8567 174.777 70.0288 174.586C70.201 174.396 70.4279 174.299 70.7082 174.299C71.003 174.299 71.2351 174.395 71.4072 174.586C71.5794 174.778 71.6654 175.065 71.6654 175.448V180.05C71.6654 180.573 71.7241 181.01 71.8402 181.362C71.9562 181.714 72.1623 181.987 72.4596 182.18C72.7556 182.373 73.1703 182.471 73.7037 182.471C74.4392 182.471 74.9595 182.274 75.2633 181.88C75.5672 181.486 75.7211 180.889 75.7211 180.089V175.448C75.7211 175.061 75.8058 174.771 75.9753 174.582C76.1462 174.393 76.3731 174.299 76.6574 174.299C76.9417 174.299 77.1738 174.393 77.3498 174.582C77.5259 174.773 77.6145 175.06 77.6145 175.447V179.943C77.6145 180.675 77.5428 181.284 77.4007 181.773C77.2585 182.262 76.9899 182.692 76.5935 183.063C76.2544 183.373 75.8606 183.6 75.412 183.742C74.9608 183.884 74.4366 183.957 73.8341 183.957C73.1168 183.957 72.5013 183.878 71.9836 183.724C71.4672 183.569 71.0434 183.329 70.7174 183.004C70.3914 182.679 70.1514 182.263 69.9988 181.755C69.8463 181.249 69.7706 180.642 69.7706 179.937Z" fill="#809CC9"/>
<path d="M89.5102 183.794H86.6543C86.2422 183.794 85.9475 183.702 85.7714 183.516C85.5941 183.331 85.5067 183.038 85.5067 182.635V175.619C85.5067 175.208 85.5967 174.912 85.778 174.731C85.9579 174.55 86.25 174.461 86.6543 174.461H89.6836C90.1296 174.461 90.5169 174.488 90.8442 174.542C91.1716 174.595 91.465 174.702 91.7245 174.857C91.9449 174.989 92.1392 175.156 92.3087 175.357C92.4782 175.558 92.6073 175.781 92.6973 176.025C92.786 176.27 92.8316 176.527 92.8316 176.798C92.8316 177.732 92.3661 178.414 91.4324 178.847C92.6569 179.238 93.2711 179.999 93.2711 181.13C93.2711 181.653 93.1368 182.125 92.8694 182.542C92.6021 182.961 92.2422 183.271 91.7884 183.471C91.5028 183.589 91.1755 183.672 90.8051 183.72C90.4348 183.771 90.0031 183.794 89.5102 183.794ZM87.4002 175.868V178.292H89.1346C89.6054 178.292 89.9705 178.247 90.2274 178.157C90.4843 178.067 90.6812 177.897 90.8182 177.644C90.9238 177.466 90.9772 177.265 90.9772 177.043C90.9772 176.57 90.809 176.255 90.4726 176.099C90.1374 175.944 89.6249 175.866 88.9364 175.866H87.4002V175.868ZM89.3706 179.638H87.4002V182.388H89.4345C90.7138 182.388 91.3541 181.923 91.3541 180.993C91.3541 180.518 91.1885 180.173 90.8573 179.959C90.5247 179.745 90.0292 179.638 89.3706 179.638Z" fill="#809CC9"/>
<path d="M102.152 175.54L104.262 181.798L106.38 175.495C106.49 175.164 106.571 174.933 106.627 174.805C106.682 174.676 106.772 174.56 106.9 174.455C107.028 174.349 107.201 174.299 107.422 174.299C107.582 174.299 107.732 174.338 107.87 174.419C108.007 174.5 108.115 174.608 108.194 174.741C108.273 174.876 108.312 175.01 108.312 175.147C108.312 175.24 108.299 175.341 108.274 175.448C108.248 175.558 108.217 175.663 108.179 175.768C108.141 175.871 108.102 175.979 108.064 176.089L105.808 182.193C105.728 182.426 105.647 182.649 105.566 182.859C105.485 183.069 105.392 183.254 105.286 183.413C105.18 183.573 105.039 183.704 104.863 183.806C104.687 183.906 104.472 183.959 104.219 183.959C103.965 183.959 103.749 183.908 103.573 183.809C103.396 183.709 103.255 183.576 103.147 183.413C103.039 183.25 102.945 183.064 102.864 182.855C102.783 182.648 102.704 182.426 102.621 182.193L100.403 176.139C100.365 176.03 100.325 175.922 100.284 175.815C100.245 175.709 100.21 175.594 100.184 175.47C100.157 175.348 100.142 175.243 100.142 175.159C100.142 174.942 100.228 174.745 100.403 174.567C100.577 174.388 100.796 174.299 101.058 174.299C101.38 174.299 101.608 174.397 101.741 174.595C101.874 174.794 102.012 175.107 102.152 175.54Z" fill="#999999"/>
<path d="M121.769 175.91H117.508V178.213H121.431C121.719 178.213 121.936 178.277 122.078 178.406C122.219 178.536 122.29 178.706 122.29 178.918C122.29 179.131 122.22 179.304 122.08 179.437C121.941 179.57 121.724 179.638 121.431 179.638H117.508V182.308H121.915C122.212 182.308 122.435 182.375 122.588 182.511C122.738 182.648 122.813 182.829 122.813 183.056C122.813 183.275 122.738 183.454 122.588 183.589C122.436 183.725 122.212 183.794 121.915 183.794H116.776C116.363 183.794 116.066 183.703 115.885 183.519C115.704 183.336 115.614 183.043 115.614 182.635V175.619C115.614 175.348 115.654 175.126 115.735 174.954C115.816 174.782 115.942 174.657 116.114 174.578C116.287 174.5 116.507 174.461 116.776 174.461H121.769C122.07 174.461 122.294 174.528 122.44 174.659C122.588 174.792 122.661 174.964 122.661 175.18C122.661 175.399 122.588 175.575 122.44 175.706C122.294 175.843 122.07 175.91 121.769 175.91Z" fill="#999999"/>
<path d="M132.715 179.801H132.054V182.804C132.054 183.2 131.968 183.489 131.792 183.677C131.618 183.865 131.39 183.959 131.11 183.959C130.809 183.959 130.575 183.861 130.408 183.665C130.243 183.469 130.16 183.183 130.16 182.804V175.622C130.16 175.215 130.252 174.919 130.434 174.735C130.617 174.552 130.912 174.462 131.32 174.462H134.393C134.817 174.462 135.181 174.481 135.482 174.516C135.782 174.551 136.055 174.624 136.297 174.732C136.589 174.856 136.849 175.032 137.073 175.262C137.299 175.491 137.47 175.757 137.586 176.06C137.703 176.364 137.762 176.684 137.762 177.025C137.762 177.721 137.566 178.277 137.174 178.693C136.781 179.109 136.185 179.405 135.388 179.578C135.724 179.757 136.043 180.02 136.348 180.367C136.653 180.717 136.926 181.087 137.167 181.481C137.407 181.873 137.594 182.228 137.727 182.544C137.862 182.86 137.927 183.078 137.927 183.197C137.927 183.321 137.888 183.442 137.81 183.563C137.73 183.685 137.624 183.78 137.488 183.85C137.352 183.921 137.196 183.956 137.018 183.956C136.806 183.956 136.627 183.905 136.484 183.806C136.339 183.707 136.215 183.579 136.112 183.426C136.008 183.274 135.867 183.048 135.69 182.75L134.932 181.487C134.661 181.024 134.417 180.672 134.203 180.428C133.989 180.186 133.771 180.022 133.551 179.932C133.331 179.842 133.05 179.801 132.715 179.801ZM133.797 175.868H132.055V178.455H133.747C134.2 178.455 134.582 178.415 134.892 178.335C135.201 178.256 135.438 178.122 135.601 177.931C135.764 177.741 135.846 177.477 135.846 177.143C135.846 176.883 135.78 176.652 135.649 176.454C135.519 176.255 135.336 176.105 135.103 176.006C134.881 175.915 134.447 175.868 133.797 175.868Z" fill="#999999"/>
<path d="M152.513 180.997C152.513 181.562 152.369 182.069 152.078 182.519C151.787 182.969 151.362 183.321 150.802 183.576C150.242 183.831 149.579 183.959 148.811 183.959C147.892 183.959 147.133 183.784 146.536 183.437C146.11 183.188 145.765 182.853 145.5 182.434C145.234 182.015 145.101 181.609 145.101 181.213C145.101 180.984 145.182 180.788 145.34 180.624C145.5 180.461 145.702 180.379 145.949 180.379C146.148 180.379 146.318 180.443 146.456 180.569C146.594 180.696 146.712 180.886 146.809 181.138C146.928 181.435 147.056 181.683 147.194 181.882C147.332 182.082 147.528 182.246 147.777 182.377C148.029 182.507 148.357 182.571 148.765 182.571C149.328 182.571 149.781 182.439 150.133 182.178C150.484 181.918 150.659 181.59 150.659 181.2C150.659 180.89 150.565 180.637 150.375 180.444C150.186 180.252 149.942 180.104 149.642 180.002C149.343 179.9 148.943 179.792 148.441 179.677C147.769 179.519 147.208 179.336 146.756 179.124C146.302 178.916 145.943 178.628 145.679 178.265C145.413 177.902 145.28 177.45 145.28 176.911C145.28 176.396 145.419 175.94 145.7 175.541C145.98 175.14 146.384 174.834 146.915 174.619C147.446 174.405 148.07 174.298 148.786 174.298C149.359 174.298 149.854 174.37 150.273 174.511C150.69 174.653 151.038 174.843 151.314 175.078C151.59 175.315 151.791 175.562 151.919 175.821C152.046 176.079 152.109 176.334 152.109 176.579C152.109 176.804 152.03 177.007 151.87 177.188C151.713 177.369 151.516 177.459 151.278 177.459C151.063 177.459 150.9 177.404 150.788 177.296C150.676 177.188 150.553 177.01 150.424 176.764C150.253 176.411 150.05 176.137 149.811 175.939C149.573 175.74 149.191 175.643 148.664 175.643C148.175 175.643 147.781 175.749 147.482 175.963C147.182 176.178 147.032 176.437 147.032 176.738C147.032 176.926 147.083 177.087 147.185 177.223C147.287 177.359 147.428 177.475 147.606 177.574C147.785 177.672 147.965 177.749 148.147 177.803C148.33 177.859 148.631 177.939 149.052 178.046C149.577 178.17 150.053 178.305 150.478 178.454C150.903 178.603 151.265 178.783 151.564 178.995C151.863 179.208 152.093 179.476 152.262 179.801C152.43 180.127 152.513 180.526 152.513 180.997Z" fill="#999999"/>
<path d="M160.076 182.804V175.446C160.076 175.064 160.162 174.777 160.336 174.586C160.511 174.396 160.737 174.299 161.014 174.299C161.299 174.299 161.53 174.393 161.706 174.582C161.883 174.773 161.97 175.058 161.97 175.446V182.804C161.97 183.192 161.883 183.48 161.706 183.67C161.528 183.861 161.299 183.959 161.014 183.959C160.742 183.959 160.516 183.862 160.34 183.668C160.163 183.473 160.076 183.187 160.076 182.804Z" fill="#999999"/>
<path d="M174.049 174.299C175.015 174.299 175.844 174.495 176.537 174.887C177.229 175.281 177.755 175.839 178.111 176.563C178.465 177.288 178.644 178.137 178.644 179.115C178.644 179.836 178.546 180.494 178.351 181.084C178.156 181.674 177.864 182.186 177.474 182.619C177.083 183.052 176.604 183.385 176.036 183.614C175.467 183.842 174.817 183.959 174.085 183.959C173.355 183.959 172.703 183.84 172.128 183.605C171.551 183.369 171.069 183.037 170.684 182.608C170.299 182.178 170.007 181.662 169.81 181.06C169.613 180.456 169.514 179.804 169.514 179.104C169.514 178.385 169.616 177.726 169.822 177.128C170.028 176.528 170.325 176.018 170.717 175.598C171.107 175.178 171.58 174.856 172.141 174.633C172.701 174.41 173.336 174.299 174.049 174.299ZM176.728 179.104C176.728 178.416 176.619 177.82 176.397 177.317C176.178 176.814 175.864 176.431 175.454 176.175C175.046 175.916 174.575 175.787 174.047 175.787C173.67 175.787 173.322 175.859 173.001 176.001C172.683 176.143 172.407 176.353 172.176 176.626C171.945 176.898 171.764 177.248 171.629 177.673C171.495 178.098 171.43 178.574 171.43 179.105C171.43 179.637 171.496 180.119 171.629 180.551C171.764 180.981 171.952 181.339 172.195 181.623C172.439 181.906 172.718 182.118 173.034 182.259C173.35 182.399 173.696 182.471 174.073 182.471C174.556 182.471 174.999 182.348 175.405 182.105C175.81 181.863 176.131 181.486 176.37 180.979C176.61 180.471 176.728 179.844 176.728 179.104Z" fill="#999999"/>
<path d="M188.605 175.433L192.253 180.942V175.382C192.253 175.022 192.33 174.751 192.485 174.569C192.639 174.388 192.847 174.299 193.11 174.299C193.381 174.299 193.594 174.388 193.752 174.569C193.907 174.751 193.986 175.02 193.986 175.382V182.727C193.986 183.548 193.647 183.957 192.969 183.957C192.8 183.957 192.647 183.931 192.511 183.883C192.376 183.833 192.248 183.756 192.129 183.649C192.011 183.544 191.9 183.419 191.798 183.276C191.696 183.134 191.596 182.988 191.494 182.84L187.936 177.395V182.871C187.936 183.228 187.853 183.498 187.688 183.681C187.521 183.865 187.31 183.956 187.05 183.956C186.783 183.956 186.568 183.863 186.406 183.678C186.244 183.493 186.163 183.224 186.163 182.872V175.667C186.163 175.362 186.196 175.122 186.265 174.947C186.346 174.757 186.479 174.599 186.668 174.479C186.854 174.358 187.057 174.298 187.274 174.298C187.444 174.298 187.59 174.325 187.711 174.38C187.833 174.435 187.938 174.509 188.029 174.603C188.121 174.697 188.215 174.817 188.311 174.966C188.404 175.117 188.502 175.272 188.605 175.433Z" fill="#999999"/>
<path d="M53.4895 189.036H194.66" stroke="#809CC9"/>
</svg>