<svg width="256" height="256" title="Apollo" viewBox="0 0 256 256" fill="none" xmlns="http://www.w3.org/2000/svg">
<rect width="256" height="256" rx="40" fill="#311C87"/>
<path d="M128.5 50.0001C85.6942 50.0001 51 84.7007 51 127.5C51 170.306 85.6942 205 128.5 205C171.299 205 206 170.306 206 127.5C206.003 120.195 204.975 112.927 202.945 105.91C202.565 104.986 201.842 104.244 200.928 103.841C200.014 103.437 198.979 103.402 198.04 103.743C197.101 104.083 196.329 104.774 195.887 105.67C195.445 106.566 195.366 107.598 195.667 108.551H195.654C197.365 114.642 198.25 121.003 198.25 127.5C198.275 136.664 196.483 145.741 192.976 154.207C189.47 162.673 184.319 170.36 177.822 176.822C171.36 183.32 163.674 188.47 155.207 191.977C146.741 195.483 137.664 197.276 128.5 197.25C119.336 197.275 110.259 195.483 101.793 191.976C93.3266 188.47 85.64 183.319 79.1777 176.822C72.6802 170.36 67.5291 162.674 64.0227 154.208C60.5162 145.741 58.7241 136.664 58.75 127.5C58.7248 118.337 60.5173 109.259 64.0237 100.793C67.5301 92.3267 72.6808 84.64 79.1777 78.1778C85.6396 71.6803 93.3261 66.5292 101.792 63.0228C110.259 59.5163 119.336 57.7242 128.5 57.7501C145.137 57.7501 160.876 63.5367 173.437 74.1542C172.643 76.1693 172.564 78.3956 173.213 80.4619C173.862 82.5283 175.2 84.3096 177.003 85.5088C178.807 86.7081 180.967 87.2528 183.124 87.052C185.28 86.8513 187.303 85.9172 188.854 84.4057C190.405 82.8941 191.391 80.8964 191.647 78.7458C191.904 76.5952 191.415 74.4217 190.263 72.5879C189.111 70.754 187.364 69.3706 185.316 68.6684C183.267 67.9662 181.039 67.9877 179.004 68.7292C164.964 56.6248 147.037 49.9768 128.5 50.0001ZM119.2 87.9751L92.075 158.384H109.06L113.497 146.449H139.13L134.487 133.261H117.611L128.59 102.965L148.12 158.377H165.112L137.994 87.9751H119.2Z" fill="white"/>
</svg>