<svg width="256" height="256" title="Apple" viewBox="0 0 256 256" fill="none" xmlns="http://www.w3.org/2000/svg" id="apple">
<style>
#apple {
    rect {fill: #15191C}
    path {fill: #F4F2ED}

    @media (prefers-color-scheme: light) {
        rect {fill: #F4F2ED}
        path {fill: #15191C}
    }
}
</style>
<rect width="256" height="256" rx="40" fill="#15191C"/>
<path d="M201.05 97.9054C199.945 98.7622 180.449 109.748 180.449 134.176C180.449 162.43 205.257 172.426 206 172.673C205.886 173.283 202.059 186.363 192.92 199.69C184.771 211.418 176.26 223.128 163.314 223.128C150.367 223.128 147.035 215.607 132.089 215.607C117.524 215.607 112.345 223.375 100.503 223.375C88.66 223.375 80.3969 212.523 70.8962 199.195C59.8914 183.545 51 159.231 51 136.156C51 99.143 75.0658 79.5133 98.7509 79.5133C111.336 79.5133 121.827 87.7764 129.728 87.7764C137.249 87.7764 148.977 79.0183 163.295 79.0183C168.721 79.0183 188.217 79.5133 201.05 97.9054ZM156.497 63.3488C162.419 56.3233 166.607 46.5751 166.607 36.8269C166.607 35.4751 166.493 34.1043 166.246 33C156.612 33.3617 145.15 39.4163 138.239 47.4319C132.812 53.6007 127.748 63.3489 127.748 73.2303C127.748 74.7154 127.995 76.2005 128.11 76.6765C128.719 76.7907 129.709 76.924 130.699 76.924C139.343 76.924 150.214 71.136 156.497 63.3488Z" fill="#F4F2ED"/>
</svg>