<svg width="256" height="256" title="Arduino" viewBox="0 0 256 256" fill="none" xmlns="http://www.w3.org/2000/svg">
<rect width="256" height="256" rx="40" fill="#00878F"/>
<path d="M172.884 85C170.697 85 168.458 85.124 166.271 85.5031C147.808 88.1792 135.427 101.829 128.5 112.293C121.573 101.829 109.192 88.1792 90.7292 85.5031C88.5391 85.1809 86.3292 85.0128 84.1156 85C60.3083 85 41 104.133 41 127.685C41 151.237 60.3667 170.371 84.1156 170.371C86.3031 170.371 88.5417 170.247 90.7948 169.868C109.25 167.126 121.639 153.483 128.566 143.013C135.485 153.483 147.867 167.126 166.336 169.868C168.517 170.181 170.762 170.371 173.008 170.371C196.633 170.371 216 151.237 216 127.685C216 104.133 196.633 85 172.884 85ZM88.6146 154.913C87.1066 155.141 85.5824 155.246 84.0573 155.226C68.3948 155.226 55.7 142.83 55.7 127.685C55.7 112.482 68.4531 100.145 84.1229 100.145C85.6396 100.145 87.1562 100.269 88.6729 100.458C106.1 103.01 116.724 120.642 120.37 127.685C116.666 134.787 105.976 152.36 88.6146 154.913ZM172.892 155.226C171.375 155.226 169.858 155.102 168.342 154.913C150.915 152.36 140.225 134.729 136.645 127.685C140.225 120.642 150.915 103.01 168.342 100.458C169.858 100.269 171.375 100.145 172.892 100.145C188.561 100.145 201.256 112.541 201.256 127.685C201.256 142.889 188.496 155.226 172.892 155.226ZM184.923 123.114V131.382H176.136V140.001H167.707V131.382H158.906V123.114H167.7V114.487H176.129V123.114H184.923ZM71.9604 131.317H98.0208V123.114H71.9531L71.9604 131.317Z" fill="white"/>
</svg>