<svg width="256" height="256" title="Axios" viewBox="0 0 256 256" fill="none" xmlns="http://www.w3.org/2000/svg">
<rect width="256" height="256" rx="40" fill="#5A29E4"/>
<path d="M84.3661 114.194L91.8376 123.8L99.3091 114.194H105.665L94.9425 127.924L105.325 141.314H98.9707L91.8387 132.096L84.7554 141.314H78.3025L88.7334 127.924L77.9618 114.194H84.3661ZM166.603 141.508C164.468 141.508 162.528 141.137 160.781 140.393C159.034 139.616 157.53 138.581 156.268 137.288C155.028 135.994 154.041 134.48 153.357 132.824C152.685 131.21 152.339 129.479 152.338 127.73C152.338 125.951 152.694 124.236 153.405 122.587C154.11 120.947 155.133 119.463 156.414 118.22C157.723 116.917 159.271 115.879 160.974 115.164C162.721 114.42 164.629 114.048 166.699 114.048C168.833 114.048 170.775 114.452 172.522 115.261C174.269 116.037 175.756 117.088 176.985 118.414C178.231 119.685 179.219 121.184 179.895 122.829C180.565 124.428 180.911 126.142 180.915 127.875C180.915 129.654 180.559 131.368 179.848 133.018C179.127 134.649 178.106 136.13 176.839 137.385C175.577 138.646 174.074 139.648 172.328 140.392C170.581 141.136 168.673 141.508 166.603 141.508ZM158.257 127.778C158.257 129.234 158.598 130.624 159.277 131.951C159.943 133.231 160.929 134.317 162.139 135.104C163.401 135.913 164.904 136.317 166.651 136.317C168.43 136.317 169.934 135.897 171.163 135.056C172.393 134.182 173.33 133.099 173.977 131.805C174.624 130.479 174.948 129.12 174.948 127.73C174.948 126.274 174.609 124.9 173.929 123.606C173.261 122.324 172.254 121.25 171.018 120.501C169.788 119.692 168.318 119.288 166.603 119.288C164.824 119.288 163.303 119.708 162.042 120.55C160.843 121.356 159.874 122.459 159.228 123.751C158.592 124.999 158.26 126.378 158.257 127.778ZM33 141.314L44.8381 114.194H49.6411L61.4306 141.314H55.2204L52.5033 134.959H41.9755L39.2584 141.314H33ZM47.2639 121.326L43.2855 129.864H51.0965L47.2639 121.326ZM127.3 117.407L120.287 123.121H124.867V141.693L127.3 139.734V117.407ZM129.322 138.075L136.459 132.218H131.751V114.07L129.322 115.761L129.322 138.075ZM217.663 120.744C218.472 121.164 219.054 121.52 219.41 121.811L221.933 117.008C220.671 116.232 219.151 115.536 217.372 114.922C215.625 114.308 213.733 114 211.696 114C209.755 114 207.96 114.324 206.31 114.97C204.693 115.617 203.399 116.571 202.429 117.833C201.491 119.095 201.022 120.663 201.022 122.539C201.022 124.641 201.685 126.259 203.011 127.391C204.369 128.49 206.44 129.396 209.221 130.107C211.453 130.69 213.248 131.223 214.607 131.709C215.997 132.161 216.693 132.921 216.693 133.989C216.693 135.574 215.205 136.366 212.229 136.366C210.741 136.366 209.335 136.188 208.008 135.833C206.682 135.476 205.518 135.04 204.515 134.523C203.545 134.005 202.85 133.536 202.429 133.116L199.809 138.21C201.491 139.277 203.416 140.118 205.583 140.733C207.75 141.347 209.933 141.655 212.132 141.655C214.041 141.655 215.82 141.396 217.469 140.878C219.119 140.328 220.445 139.455 221.447 138.258C222.483 137.029 223 135.412 223 133.407C223 131.757 222.612 130.431 221.836 129.428C221.092 128.393 220.008 127.568 218.585 126.954C217.194 126.339 215.545 125.789 213.636 125.304C211.469 124.787 209.82 124.318 208.687 123.897C207.588 123.477 207.038 122.765 207.038 121.763C207.038 120.048 208.558 119.191 211.598 119.191C212.73 119.191 213.83 119.353 214.897 119.677C215.965 119.967 216.887 120.323 217.663 120.744Z" fill="white"/>
</svg>