<svg width="256" height="256" title="Bevy" viewBox="0 0 256 256" fill="none" xmlns="http://www.w3.org/2000/svg">
<rect width="256" height="256" rx="40" fill="#232326"/>
<path d="M187.5 122.925C187.485 122.925 187.471 122.925 187.455 122.925C186.515 125.873 185.789 129.074 185.65 132.721C185.39 139.568 186.085 143.736 185.298 148.172C184.512 152.607 182.188 156.974 176.274 163.821C169.236 171.971 158.082 178.277 145.198 180.408C142.8 181.943 140.268 183.349 137.606 184.601C147.634 188.385 158.122 188.591 166.436 185.856C181.082 181.039 179.948 177.578 186.512 167.497C188.579 164.321 190.967 161.897 193.364 159.906C200.194 162.891 206.921 164.808 211.113 164.333C213.366 159.096 211.058 153.023 207.222 147.282C210.368 137.485 205.594 127.675 195.019 124.207C192.261 123.302 189.782 122.877 187.5 122.921L187.5 122.925ZM195.433 137.31C196.014 137.297 196.589 137.411 197.118 137.643C197.647 137.874 198.118 138.218 198.498 138.651C198.844 139.046 199.108 139.507 199.275 140.007C199.441 140.507 199.507 141.038 199.468 141.567C199.429 142.096 199.286 142.615 199.048 143.093C198.809 143.571 198.48 143.999 198.078 144.353C197.268 145.067 196.213 145.435 195.145 145.376C194.077 145.318 193.084 144.837 192.385 144.039C192.039 143.644 191.775 143.184 191.608 142.683C191.442 142.183 191.376 141.653 191.415 141.124C191.454 140.594 191.597 140.076 191.835 139.598C192.073 139.12 192.403 138.692 192.804 138.338C193.535 137.694 194.468 137.329 195.433 137.31ZM129.891 180.911C130.013 180.983 130.137 181.047 130.259 181.118C130.385 181.071 130.513 181.021 130.638 180.973C130.389 180.951 130.14 180.935 129.891 180.911Z" fill="#787878"/>
<path d="M134.889 62.0004C129.164 61.9667 123.293 64.2564 118.247 69.1672C111.621 75.6171 109.562 81.4232 110.725 88.6674L111.043 90.6547L109.062 90.3319C94.5036 87.9674 76.4853 89.1618 55.9849 97.4744C62.0113 100.064 73.0723 104.385 85.3468 110.294L89.2391 112.168L85.0079 113.028C68.7997 116.321 49.5668 125.834 32 146.593C39.8585 145.981 55.9193 144.087 72.67 144.113C81.9814 144.127 91.158 144.773 98.6339 146.715C106.11 148.658 112.904 153.105 113.862 156.363C114.819 159.621 114.276 161.336 113.333 163.885C112.39 166.433 109.489 170.305 105.477 172.861C101.465 175.417 96.3744 177.65 91.0854 179.549C80.5073 183.346 69.2492 185.773 64.279 186.236C63.2226 186.334 62.8008 186.714 62.3937 187.455C61.9866 188.196 61.7621 189.36 61.7291 190.578C61.685 192.204 61.937 193.053 62.3951 193.697C62.8532 194.341 63.5687 194.598 64.3059 194.648C95.5383 196.767 118.891 188.892 135.852 182.146C155.36 173.181 167.689 155.476 170.366 139.535C172.043 129.548 171.684 124.653 170.066 120.484C168.449 116.315 165.348 112.613 161.415 105.544C158.887 101.001 157.478 96.5438 156.603 92.3925L156.418 91.518L157.115 90.9587C164.342 85.1509 170.229 78.8095 172.366 74.1929C167.981 69.5186 160.404 68.5307 151.927 69.4393L151.23 69.5123L150.74 69.0112C146.222 64.3986 140.615 62.0345 134.889 62.0004ZM137.428 72.7929C139.914 72.7535 142.107 74.4807 142.702 76.9459C143.402 79.8492 141.666 82.7614 138.823 83.4503C135.98 84.1398 133.107 82.3452 132.407 79.4418C131.706 76.5386 133.443 73.6263 136.286 72.9374C136.66 72.8471 137.043 72.7986 137.428 72.7929Z" fill="#ECECEC"/>
<path d="M172.991 85.436C171.159 85.3985 169.241 85.5917 167.26 86.044C167.127 86.0748 167.01 86.1122 166.878 86.1435C164.698 88.3036 162.265 90.4718 159.661 92.5973C160.499 96.3058 161.744 100.171 163.946 104.129C167.768 110.999 170.919 114.665 172.768 119.431C174.617 124.197 174.938 129.803 173.223 140.016C171.097 152.678 163.407 166.086 151.215 175.984C160.678 173.217 168.744 168.113 174.084 161.93C179.848 155.255 181.771 151.479 182.446 147.675C183.12 143.87 182.488 139.7 182.756 132.624C182.929 128.065 183.898 124.077 185.13 120.57L185.426 119.73L186.31 119.613C194.197 118.588 201.326 116.57 205.011 114.186C203.828 108.851 198.799 104.712 192.14 101.566L191.505 101.265L191.346 100.58C189.234 91.4896 182.153 85.6267 172.991 85.436ZM177.576 96.6639C178.047 96.6635 178.515 96.7363 178.963 96.8797C180.131 97.254 181.1 98.0865 181.657 99.1943C182.214 100.302 182.313 101.595 181.933 102.787C181.744 103.378 181.444 103.926 181.049 104.401C180.653 104.876 180.171 105.268 179.629 105.554C179.087 105.841 178.496 106.017 177.89 106.072C177.283 106.127 176.673 106.06 176.095 105.874C174.927 105.5 173.959 104.667 173.402 103.56C172.845 102.452 172.746 101.159 173.126 99.9668C173.431 99.0098 174.027 98.1735 174.827 97.5795C175.628 96.9855 176.591 96.6647 177.576 96.6639Z" fill="#B2B2B2"/>
</svg>