<svg width="256" height="256" title="Bini.js" viewBox="0 0 256 256" fill="none" xmlns="http://www.w3.org/2000/svg" id="binijs">
<style>
#binijs {
    rect {fill: #15191C}

    @media (prefers-color-scheme: light) {
        rect {fill: #F4F2ED}
    }
}
</style>
<rect width="256" height="256" rx="40" fill="#15191C"/>
<path d="M120.309 207.521V179.898C126.125 183.623 132.292 185.485 138.81 185.485C144.626 185.485 149.252 183.658 152.686 180.003C156.189 176.278 157.942 171.182 157.942 164.716C157.942 156.562 154.823 150.131 148.586 145.422C142.349 140.642 133.554 138.077 122.201 137.725V114.425C129.98 113.863 136.006 111.473 140.281 107.256C144.626 103.038 146.799 97.4505 146.799 90.492C146.799 84.5879 145.222 79.9489 142.068 76.5751C138.985 73.2013 134.815 71.5144 129.559 71.5144C116.665 71.5144 110.218 80.1246 110.218 97.3451V208.364H77V97.7668C77 82.0927 81.8004 69.5463 91.4013 60.1278C101.002 50.7093 114.352 46 131.452 46C146.659 46 158.677 49.8658 167.507 57.5975C176.337 65.2588 180.752 75.1342 180.752 87.2237C180.752 95.7987 178.229 103.32 173.184 109.786C168.208 116.252 161.761 120.68 153.842 123.07V123.492C179.281 128.342 192 142.364 192 165.559C192 178.211 187.55 188.965 178.65 197.821C169.82 206.607 157.836 211 142.699 211C135.341 211 127.877 209.84 120.309 207.521Z" fill="url(#paint0_linear_189_100)"/>
<linearGradient id="paint0_linear_189_100" x1="130.606" y1="-23.7432" x2="130.606" y2="262.355" gradientUnits="userSpaceOnUse">
<stop stop-color="#00CFFF"/>
<stop offset="1" stop-color="#0077FF"/>
</linearGradient>
</svg>