<svg width="256" height="256" title="Blazor" viewBox="0 0 256 256" fill="none" xmlns="http://www.w3.org/2000/svg" id="blazor">
<style>
#blazor {
    rect {fill: #15191C}

    @media (prefers-color-scheme: light) {
        rect {fill: #F4F2ED}
    }
}
</style>
<rect width="256" height="256" rx="40" fill="#15191C"/>
<path d="M206.891 102.437C203.432 124.178 192.394 143.983 175.74 158.33C159.086 172.676 137.897 180.633 115.942 180.786C111.495 180.957 107.042 180.686 102.648 179.977C93.4594 178.411 85.0836 173.735 78.9178 166.727C72.752 159.719 69.1689 150.803 68.7661 141.467C68.8549 131.053 73.0237 121.092 80.373 113.734C87.7219 106.375 97.6621 102.21 108.048 102.136C118.433 102.063 128.431 106.087 135.883 113.34C143.335 120.594 147.644 130.495 147.88 140.906C148.046 147.481 145.205 153.249 139.367 153.416C133.129 153.416 130.204 148.953 130.204 142.938V126.225C130.207 123.522 129.143 120.928 127.245 119.008C125.348 117.089 122.77 116 120.074 115.978H106.102C102.037 115.95 98.0306 116.944 94.448 118.868C90.8654 120.793 87.8212 123.587 85.5934 126.996C83.3655 130.404 82.0248 134.318 81.694 138.379C81.3632 142.441 82.0527 146.521 83.6996 150.247C85.3466 153.972 87.8984 157.225 91.1219 159.707C94.3454 162.189 98.1379 163.822 102.153 164.456C106.168 165.089 110.277 164.704 114.105 163.335C117.933 161.966 121.358 159.656 124.066 156.618L124.555 155.888L125.044 156.699C126.725 158.988 128.944 160.825 131.503 162.047C134.063 163.27 136.884 163.839 139.716 163.704C144.764 163.336 149.468 161.005 152.824 157.207C156.181 153.409 157.924 148.446 157.681 143.378C157.73 139.028 157.244 134.69 156.233 130.46C153.642 118.51 146.731 107.945 136.832 100.802C126.933 93.6596 114.748 90.444 102.624 91.7754C90.5013 93.1068 79.2989 98.891 71.1771 108.013C63.0547 117.135 58.5877 128.949 58.6371 141.178C58.793 154.145 63.9554 166.546 73.0398 175.777C82.1234 185.007 94.422 190.347 107.351 190.675C107.351 190.675 111.01 191.009 115.135 190.914C135.189 190.786 154.789 184.923 171.633 174.012C171.873 173.845 172.112 174.179 171.953 174.422C163.752 183.28 153.724 190.238 142.568 194.813C131.411 199.388 119.393 201.469 107.352 200.912C99.4806 201.055 91.6615 199.598 84.3667 196.628C77.072 193.659 70.4528 189.238 64.9087 183.634C59.364 178.029 55.009 171.356 52.1064 164.018C49.2038 156.68 47.8138 148.828 48.02 140.936C48.0238 131.528 50.2161 122.25 54.4227 113.84C58.6292 105.43 64.7342 98.1196 72.2524 92.4895C82.3559 85.0294 94.5658 80.9879 107.113 80.9505H125.867C133.192 80.945 140.437 79.41 147.138 76.4432C153.84 73.4764 159.851 69.1428 164.791 63.7185C164.895 63.6025 165.034 63.5231 165.186 63.4919C165.339 63.4588 165.498 63.4747 165.641 63.5372C165.784 63.5998 165.904 63.7058 165.983 63.8404C166.064 63.9755 166.1 64.1321 166.087 64.2893C165.292 72.7406 162.486 80.8773 157.904 88.016C157.836 88.1399 157.806 88.281 157.816 88.4221C157.827 88.5631 157.879 88.6979 157.964 88.8102C158.05 88.9222 158.166 89.007 158.298 89.0543C158.431 89.1016 158.574 89.1094 158.711 89.0767C167.368 87.1159 175.445 83.1451 182.292 77.4837C189.139 71.8224 194.565 64.6286 198.133 56.4812C198.224 56.3356 198.349 56.2147 198.498 56.129C198.647 56.0444 198.816 56 198.988 56C199.159 56 199.328 56.0444 199.478 56.129C199.626 56.2141 199.752 56.335 199.841 56.4812C207.191 70.5982 209.67 86.7585 206.891 102.437ZM107.303 126.016C105.145 126.015 103.015 126.495 101.065 127.419C99.1146 128.344 97.3933 129.691 96.0247 131.362C94.6562 133.034 93.6745 134.99 93.1505 137.088C92.6265 139.186 92.5731 141.374 92.9943 143.496C93.5572 146.333 94.9464 148.939 96.9865 150.985C99.0265 153.03 101.626 154.424 104.455 154.988C106.571 155.41 108.754 155.356 110.846 154.831C112.938 154.305 114.888 153.32 116.556 151.948C118.223 150.576 119.566 148.85 120.488 146.895C121.41 144.94 121.888 142.804 121.887 140.641V126.987C121.874 126.726 121.765 126.479 121.58 126.294C121.396 126.109 121.15 125.999 120.889 125.986L107.303 126.016Z" fill="#702AF7"/>
</svg>