<svg width="256" height="256" title="Blender" viewBox="0 0 256 256" fill="none" xmlns="http://www.w3.org/2000/svg" id="blender">
<style>
#blender {
    rect {fill: #15191C}

    @media (prefers-color-scheme: light) {
        rect {fill: #F4F2ED}
    }
}
</style>
<rect width="256" height="256" rx="40" fill="#15191C"/>
<path d="M173.687 159.466C170.264 162.892 166.191 165.599 161.708 167.43C157.224 169.26 152.42 170.177 147.578 170.126C137.458 170.126 128.148 166.28 121.469 159.534C118.23 156.228 115.801 152.45 114.317 148.334C112.878 144.406 112.308 140.213 112.646 136.043C112.984 131.874 114.221 127.827 116.274 124.182C118.23 120.673 120.929 117.435 124.235 114.736C130.711 109.474 138.942 106.64 147.578 106.64C156.213 106.64 164.444 109.407 170.921 114.669C174.227 117.368 176.925 120.538 178.814 124.114C181.938 129.763 183.121 136.281 182.183 142.667C181.244 149.053 178.236 154.955 173.619 159.466H173.687Z" fill="white"/>
<path d="M125.989 136.325C126.326 130.861 129.025 126.003 133.073 122.562C137.053 119.189 142.45 117.098 148.32 117.098C154.122 117.098 159.519 119.189 163.5 122.562C167.548 126.003 170.246 130.861 170.584 136.325C170.853 141.992 168.627 147.255 164.647 151.168C160.531 155.081 154.797 157.577 148.32 157.577C141.843 157.577 136.041 155.081 131.926 151.168C127.945 147.255 125.719 141.992 125.989 136.325Z" fill="#005385"/>
<path d="M90.5693 147.457C90.5693 149.616 91.2439 153.799 92.3234 157.105C94.4823 163.986 98.1254 170.396 103.253 176.063C108.515 181.797 114.924 186.452 122.413 189.758C130.334 193.291 138.912 195.111 147.585 195.099C156.258 195.088 164.831 193.245 172.742 189.691C180.002 186.463 186.505 181.752 191.835 175.86C199.257 167.678 203.826 157.309 204.856 146.31C205.66 135.882 203.081 125.472 197.502 116.625C194.139 111.233 189.845 106.482 184.819 102.593L133.275 63.0577L133.14 62.9228C129.767 60.3591 124.032 60.3591 120.322 62.9228C116.611 65.5539 116.139 69.9392 119.512 72.7053L140.966 90.1789L75.457 90.2463H75.3895C69.9248 90.2463 64.7299 93.822 63.718 98.2748C62.6385 102.862 66.3491 106.64 71.9488 106.708L105.142 106.64L45.907 152.112L45.7046 152.315C40.105 156.565 38.2834 163.716 41.7916 168.169C45.3673 172.757 52.9909 172.757 58.658 168.237L90.9741 141.723C90.9741 141.723 90.5018 145.298 90.5018 147.457H90.5693ZM173.687 159.466C170.264 162.892 166.191 165.599 161.708 167.43C157.224 169.26 152.42 170.177 147.578 170.126C137.458 170.126 128.148 166.28 121.469 159.534C118.23 156.228 115.801 152.45 114.317 148.334C112.878 144.406 112.308 140.213 112.646 136.043C112.984 131.874 114.221 127.827 116.274 124.182C118.23 120.673 120.929 117.435 124.235 114.736C130.711 109.474 138.942 106.64 147.578 106.64C156.213 106.64 164.444 109.407 170.921 114.669C174.227 117.368 176.925 120.538 178.814 124.114C181.938 129.763 183.121 136.281 182.183 142.667C181.244 149.053 178.236 154.955 173.619 159.466H173.687Z" fill="#FF7021"/>
</svg>