<svg width="256" height="256" title="Bun" viewBox="0 0 256 256" fill="none" xmlns="http://www.w3.org/2000/svg" id="bun">
<style>
#bun {
    rect {fill: #15191C}

    @media (prefers-color-scheme: light) {
        rect {fill: #F4F2ED}
    }
}
</style>
<rect width="256" height="256" rx="40" fill="#15191C"/>
<path d="M190.525 95.9013C190.192 95.5481 189.839 95.1948 189.486 94.8623C189.132 94.5299 188.8 94.1558 188.447 93.8234C188.094 93.4909 187.761 93.1169 187.408 92.7844C187.055 92.452 186.722 92.0779 186.369 91.7455C186.016 91.413 185.683 91.039 185.33 90.7065C184.977 90.374 184.644 90 184.291 89.6675C183.938 89.3351 183.605 88.961 183.252 88.6286C193.559 98.7579 199.463 112.538 199.688 126.987C199.688 161.418 164.738 189.429 121.766 189.429C97.7039 189.429 76.1766 180.639 61.8598 166.862L69.1325 174.135C83.4286 188.493 105.434 197.74 130.078 197.74C173.049 197.74 208 169.73 208 135.403C208 120.732 201.683 106.831 190.525 95.9013Z" fill="black"/>
<path d="M198.649 131.143C198.649 162.748 166.088 188.369 125.922 188.369C85.7558 188.369 53.1948 162.748 53.1948 131.143C53.1948 111.548 65.6623 94.239 84.8208 83.974C103.979 73.7091 115.906 63.1948 125.922 63.1948C135.938 63.1948 144.499 71.7766 167.023 83.974C186.182 94.239 198.649 111.548 198.649 131.143Z" fill="#FBF0DF"/>
<path d="M198.649 131.143C198.639 127.083 198.08 123.043 196.987 119.132C191.314 188.327 106.909 191.652 73.7247 170.956C88.6421 182.518 107.051 188.659 125.922 188.369C166.026 188.369 198.649 162.706 198.649 131.143Z" fill="#F6DECE"/>
<path d="M97.9325 80.1714C107.221 74.6026 119.564 64.1506 131.699 64.1299C129.832 63.5264 127.884 63.2111 125.922 63.1948C120.893 63.1948 115.532 65.7922 108.779 69.6987C106.431 71.0701 104 72.587 101.423 74.1662C96.5818 77.1584 91.0338 80.5454 84.8 83.9325C65.0182 94.6338 53.1948 112.275 53.1948 131.143C53.1948 131.974 53.1948 132.805 53.1948 133.616C65.787 89.1273 88.6649 85.7403 97.9325 80.1714Z" fill="#FFFEFC"/>
<path fill-rule="evenodd" clip-rule="evenodd" d="M119.938 68.4519C119.967 73.3584 118.937 78.2133 116.918 82.6852C114.899 87.157 111.938 91.1405 108.239 94.3636C107.657 94.8831 108.114 95.8805 108.862 95.5896C115.865 92.8675 125.319 84.7221 121.33 68.2857C121.164 67.3506 119.938 67.6 119.938 68.4519ZM124.655 68.4519C127.197 72.6004 128.812 77.2495 129.39 82.0807C129.967 86.9119 129.493 91.8108 128 96.4415C127.751 97.1688 128.644 97.7922 129.143 97.1896C133.694 91.3714 137.662 79.8182 125.777 67.3506C125.174 66.8104 124.239 67.6415 124.655 68.3688V68.4519ZM130.39 68.0987C134.371 70.9175 137.702 74.5574 140.157 78.7728C142.613 82.9882 144.136 87.6811 144.623 92.535C144.602 92.71 144.649 92.8863 144.755 93.0274C144.86 93.1685 145.016 93.2636 145.19 93.293C145.363 93.3224 145.542 93.2838 145.688 93.1853C145.834 93.0867 145.936 92.9357 145.974 92.7636C147.886 85.5117 146.805 73.148 131.075 66.7273C130.244 66.3948 129.704 67.5169 130.39 68.0156V68.0987ZM92.0312 89.7091C96.7673 88.2941 101.152 85.8976 104.901 82.6754C108.649 79.4533 111.677 75.4778 113.787 71.0078C114.161 70.2597 115.345 70.5506 115.158 71.3818C111.564 88.0052 99.5325 91.4753 92.052 91.0182C91.2623 91.0389 91.2831 89.9376 92.0312 89.7091Z" fill="#CCBEA7"/>
<path d="M125.922 193.584C82.9506 193.584 48 165.574 48 131.143C48 110.364 60.8416 90.9766 82.348 79.361C88.5818 76.0364 93.9221 72.6909 98.6805 69.761C101.299 68.1403 103.771 66.6234 106.161 65.2104C113.455 60.8883 119.688 58 125.922 58C132.156 58 137.6 60.4935 144.416 64.5247C146.493 65.7091 148.571 66.9974 150.795 68.4104C155.969 71.6104 161.808 75.226 169.496 79.361C191.003 90.9766 203.844 110.343 203.844 131.143C203.844 165.574 168.893 193.584 125.922 193.584ZM125.922 63.1948C120.893 63.1948 115.532 65.7922 108.779 69.6987C106.431 71.0701 104 72.587 101.423 74.1662C96.5818 77.1584 91.0338 80.5454 84.8 83.9325C65.0182 94.6338 53.1948 112.275 53.1948 131.143C53.1948 162.706 85.8182 188.39 125.922 188.39C166.026 188.39 198.649 162.706 198.649 131.143C198.649 112.275 186.826 94.6338 167.023 83.974C159.169 79.8182 153.039 75.9117 148.073 72.8364C145.808 71.4442 143.73 70.1558 141.839 69.013C135.543 65.2727 130.951 63.1948 125.922 63.1948Z" fill="black"/>
<path d="M140.571 146.312C139.638 150.135 137.513 153.562 134.504 156.099C132.245 158.289 129.32 159.663 126.192 160.005C122.97 159.717 119.943 158.339 117.61 156.099C114.632 153.55 112.537 150.124 111.626 146.312C111.596 146.085 111.618 145.855 111.69 145.639C111.763 145.422 111.884 145.225 112.044 145.063C112.205 144.9 112.4 144.777 112.616 144.701C112.832 144.626 113.062 144.601 113.288 144.629H138.93C139.155 144.605 139.383 144.632 139.595 144.709C139.808 144.786 140.001 144.91 140.159 145.072C140.317 145.234 140.436 145.43 140.508 145.644C140.579 145.859 140.601 146.087 140.571 146.312Z" fill="#B71422"/>
<path d="M117.61 156.265C119.938 158.507 122.955 159.898 126.171 160.213C129.381 159.893 132.389 158.503 134.712 156.265C135.455 155.572 136.149 154.83 136.79 154.042C135.51 152.589 133.946 151.414 132.195 150.589C130.444 149.763 128.543 149.305 126.608 149.242C124.538 149.291 122.51 149.842 120.7 150.848C118.891 151.855 117.352 153.286 116.218 155.018C116.696 155.455 117.112 155.87 117.61 156.265Z" fill="#FF6164"/>
<path d="M117.943 154.623C118.973 153.292 120.292 152.211 121.8 151.462C123.308 150.714 124.966 150.317 126.649 150.301C129.761 150.393 132.726 151.646 134.961 153.813C135.439 153.293 135.896 152.753 136.332 152.213C133.689 149.695 130.195 148.264 126.545 148.203C124.595 148.219 122.672 148.668 120.915 149.516C119.159 150.364 117.611 151.59 116.384 153.106C116.876 153.64 117.396 154.147 117.943 154.623Z" fill="black"/>
<path d="M126.109 161.252C122.646 160.949 119.388 159.484 116.862 157.096C113.646 154.376 111.382 150.699 110.4 146.603C110.33 146.238 110.342 145.862 110.435 145.503C110.528 145.143 110.701 144.809 110.94 144.525C111.225 144.181 111.585 143.907 111.992 143.723C112.398 143.539 112.842 143.451 113.288 143.465H138.93C139.375 143.456 139.818 143.546 140.224 143.729C140.63 143.913 140.99 144.184 141.278 144.525C141.515 144.81 141.684 145.145 141.774 145.504C141.864 145.864 141.872 146.239 141.797 146.603C140.816 150.699 138.552 154.376 135.335 157.096C132.815 159.48 129.564 160.944 126.109 161.252ZM113.288 145.875C112.956 145.875 112.873 146.021 112.852 146.062C113.73 149.615 115.717 152.795 118.525 155.143C120.578 157.165 123.247 158.445 126.109 158.779C128.964 158.449 131.63 157.185 133.693 155.184C136.492 152.833 138.471 149.653 139.345 146.104C139.3 146.037 139.237 145.985 139.164 145.952C139.091 145.919 139.01 145.907 138.93 145.917L113.288 145.875Z" fill="black"/>
<path d="M157.548 147.6C164.262 147.6 169.704 144.4 169.704 140.452C169.704 136.504 164.262 133.304 157.548 133.304C150.835 133.304 145.392 136.504 145.392 140.452C145.392 144.4 150.835 147.6 157.548 147.6Z" fill="#FEBBD0"/>
<path d="M94.6494 147.6C101.363 147.6 106.805 144.4 106.805 140.452C106.805 136.504 101.363 133.304 94.6494 133.304C87.9359 133.304 82.4935 136.504 82.4935 140.452C82.4935 144.4 87.9359 147.6 94.6494 147.6Z" fill="#FEBBD0"/>
<path fill-rule="evenodd" clip-rule="evenodd" d="M100.364 137.584C102.629 137.588 104.845 136.92 106.73 135.665C108.616 134.409 110.087 132.623 110.956 130.531C111.826 128.439 112.056 126.136 111.616 123.914C111.177 121.692 110.088 119.65 108.488 118.046C106.887 116.443 104.847 115.351 102.626 114.907C100.404 114.464 98.1011 114.689 96.0078 115.555C93.9145 116.421 92.1251 117.889 90.8661 119.772C89.6071 121.655 88.9351 123.87 88.9351 126.135C88.9351 129.168 90.1385 132.077 92.2812 134.224C94.4238 136.37 97.3307 137.579 100.364 137.584ZM151.834 137.584C154.102 137.601 156.323 136.943 158.217 135.695C160.111 134.447 161.591 132.665 162.471 130.574C163.35 128.484 163.589 126.179 163.156 123.953C162.724 121.726 161.64 119.679 160.042 118.069C158.444 116.459 156.404 115.361 154.181 114.912C151.958 114.464 149.652 114.685 147.555 115.549C145.458 116.414 143.665 117.881 142.403 119.766C141.141 121.65 140.468 123.867 140.468 126.135C140.462 129.159 141.655 132.062 143.785 134.208C145.916 136.354 148.81 137.568 151.834 137.584Z" fill="black"/>
<path fill-rule="evenodd" clip-rule="evenodd" d="M96.8312 126.862C97.6828 126.866 98.5164 126.618 99.2265 126.148C99.9365 125.677 100.491 125.007 100.82 124.222C101.149 123.436 101.237 122.57 101.073 121.735C100.909 120.899 100.501 120.131 99.9008 119.527C99.3001 118.923 98.5337 118.512 97.6988 118.344C96.8638 118.176 95.9979 118.26 95.2107 118.585C94.4236 118.91 93.7506 119.461 93.277 120.169C92.8035 120.877 92.5507 121.709 92.5506 122.561C92.5506 123.698 93.0009 124.789 93.8031 125.595C94.6053 126.401 95.694 126.857 96.8312 126.862ZM148.301 126.862C149.153 126.866 149.987 126.618 150.697 126.148C151.407 125.677 151.961 125.007 152.29 124.222C152.619 123.436 152.707 122.57 152.543 121.735C152.38 120.899 151.972 120.131 151.371 119.527C150.77 118.923 150.004 118.512 149.169 118.344C148.334 118.176 147.468 118.26 146.681 118.585C145.894 118.91 145.221 119.461 144.747 120.169C144.274 120.877 144.021 121.709 144.021 122.561C144.021 123.691 144.465 124.776 145.258 125.581C146.052 126.386 147.13 126.846 148.26 126.862H148.301Z" fill="white"/>
</svg>