<svg width="256" height="256" title="C" viewBox="0 0 256 256" fill="none" xmlns="http://www.w3.org/2000/svg">
<rect width="256" height="256" rx="40" fill="#394AAB"/>
<path d="M133.368 48C163.098 48 189.056 64.1465 202.959 88.1465L202.823 87.9155L167.843 108.056C160.952 96.3876 148.317 88.5129 133.824 88.3507L133.368 88.3482C111.266 88.3482 93.3482 106.265 93.3482 128.366C93.3482 135.594 95.2751 142.37 98.6262 148.221C105.525 160.264 118.492 168.387 133.368 168.387C148.335 168.387 161.377 160.161 168.24 147.99L168.073 148.281L203 168.515C189.25 192.313 163.648 208.409 134.263 208.729L133.368 208.735C103.543 208.735 77.5123 192.489 63.644 168.361C56.8738 156.583 53 142.928 53 128.366C53 83.982 88.9811 48 133.368 48Z" fill="white"/>
</svg>