<svg width="256" height="256" title="CakePHP" viewBox="0 0 256 256" fill="none" xmlns="http://www.w3.org/2000/svg" id="cakephp">
<style>
#cakephp {
    rect {fill: #15191C}

    @media (prefers-color-scheme: light) {
        rect {fill: #F4F2ED}
    }
}
</style>
<rect width="256" height="256" rx="40" fill="#15191C"/>
<path d="M206 165.413V140.814C206 146.609 199.671 151.929 189.105 156.136L128.5 140.814V165.411L189.105 180.735C199.671 176.534 206 171.211 206 165.411" fill="#D32F2F"/>
<path d="M189.105 131.557C199.671 127.323 206 122.027 206 116.227V91.5947C206 78.0389 171.286 67 128.5 67C85.6812 67 51 78.0311 51 91.5885V116.227C51 129.801 85.7014 140.821 128.5 140.821V116.238L189.105 131.557ZM128.5 190V165.413C85.6812 165.413 51 154.376 51 140.826V165.413C51 178.989 85.6812 190 128.5 190Z" fill="#D32F2F"/>
</svg>