<svg width="256" height="256" title="Cassandra" viewBox="0 0 256 256" fill="none" xmlns="http://www.w3.org/2000/svg" id="cassandra">
<style>
#cassandra {
    rect {fill: #15191C}
    path.cassandra {fill: #F4F2ED}

    @media (prefers-color-scheme: light) {
        rect {fill: #F4F2ED}
        path.cassandra {fill: #373535}
    }
}
</style>
<rect width="256" height="256" rx="40" fill="#15191C"/>
<path d="M60.8807 167.549C62.3206 167.549 63.6847 167.891 64.3676 168.572C64.4813 169.634 63.5332 171.339 62.9269 171.339C62.2069 171.074 61.5248 170.921 60.6912 170.921C57.243 170.921 55.5371 174.485 55.5371 178.008C55.5371 180.206 56.295 181.533 58.0388 181.533C59.8955 181.533 61.7901 180.283 62.8511 179.335C63.1164 179.524 63.4574 180.131 63.4574 180.813C63.4574 181.571 63.23 182.291 62.548 182.973C61.3354 184.186 59.2893 185.208 56.3328 185.208C52.9225 185.208 50.5732 183.276 50.5732 178.767C50.5732 172.855 54.4761 167.549 60.8428 167.549H60.8807Z" class="cassandra" fill="#F4F2ED"/>
<path d="M72.0202 181.343C73.8769 181.343 77.2501 178.084 78.1975 171.87C78.2354 171.491 78.2732 171.377 78.349 170.998C77.9322 170.847 77.3639 170.733 76.7946 170.733C75.3926 170.733 73.9527 171.15 72.6643 172.893C71.3382 174.749 70.7697 177.061 70.7697 178.918C70.7697 180.509 71.2244 181.343 71.9823 181.343H72.0202ZM65.9188 179.639C65.9188 177.403 66.6766 173.499 69.5193 170.657C71.9444 168.156 74.9 167.549 77.5912 167.549C79.3721 167.549 81.7972 168.117 83.3129 168.421C82.934 170.088 82.0246 176.378 81.6078 180.017C81.4183 181.571 81.3425 183.731 81.4183 184.527C80.1679 185.057 77.8185 185.208 77.1736 185.208C76.8333 185.208 76.7567 183.655 76.8712 182.177C76.9083 181.685 76.9849 180.964 77.022 180.661C75.5442 183.124 72.6265 185.208 69.5572 185.208C67.3594 185.208 65.9188 183.39 65.9188 179.676V179.639Z" class="cassandra" fill="#F4F2ED"/>
<path d="M92.7472 167.549C94.3007 167.549 95.7785 168.118 96.4614 168.837C96.4235 169.9 95.5899 171.68 94.2629 171.187C93.6945 170.997 93.1261 170.847 92.3682 170.847C91.3451 170.847 90.4736 171.301 90.4736 172.248C90.4736 172.968 91.0041 173.499 93.5429 175.28C95.3625 176.607 96.0825 177.781 96.0825 179.448C96.0825 182.215 93.4671 185.208 88.92 185.208C87.0633 185.208 85.4332 184.489 84.9027 183.731C84.2206 182.594 84.7511 180.359 85.5097 180.737C86.495 181.229 88.1243 181.76 89.4505 181.76C90.701 181.76 91.4967 181.191 91.4967 180.434C91.4967 179.79 90.9283 179.221 88.6169 177.591C86.6836 176.152 86.0774 174.825 86.0774 173.31C86.0774 170.165 88.7685 167.549 92.7093 167.549H92.7472Z" class="cassandra" fill="#F4F2ED"/>
<path d="M105.82 167.549C107.374 167.549 108.851 168.118 109.534 168.837C109.496 169.9 108.663 171.68 107.336 171.187C106.767 170.997 106.199 170.847 105.441 170.847C104.418 170.847 103.547 171.301 103.547 172.248C103.547 172.968 104.077 173.499 106.616 175.28C108.434 176.607 109.155 177.781 109.155 179.448C109.155 182.215 106.539 185.208 101.992 185.208C100.135 185.208 98.5061 184.489 97.9756 183.731C97.2935 182.594 97.824 180.359 98.5818 180.737C99.5671 181.229 101.196 181.76 102.523 181.76C103.773 181.76 104.569 181.191 104.569 180.434C104.569 179.79 104.001 179.221 101.689 177.591C99.7565 176.152 99.1503 174.825 99.1503 173.31C99.1503 170.165 101.841 167.549 105.783 167.549H105.82Z" class="cassandra" fill="#F4F2ED"/>
<path d="M117.754 181.343C119.612 181.343 122.985 178.084 123.932 171.87C123.969 171.491 124.008 171.377 124.084 170.998C123.666 170.847 123.099 170.733 122.53 170.733C121.128 170.733 119.688 171.15 118.399 172.893C117.074 174.749 116.504 177.061 116.504 178.918C116.504 180.509 116.959 181.343 117.717 181.343H117.754ZM111.653 179.639C111.653 177.403 112.412 173.499 115.253 170.657C117.679 168.156 120.634 167.549 123.326 167.549C125.107 167.549 127.533 168.117 129.048 168.421C128.669 170.088 127.759 176.378 127.343 180.017C127.153 181.571 127.078 183.731 127.153 184.527C125.902 185.057 123.553 185.208 122.909 185.208C122.569 185.208 122.492 183.655 122.606 182.177C122.644 181.685 122.719 180.964 122.757 180.661C121.28 183.124 118.362 185.208 115.292 185.208C113.094 185.208 111.653 183.39 111.653 179.676V179.639Z" class="cassandra" fill="#F4F2ED"/>
<path d="M137.61 172.476C139.354 169.671 141.627 167.549 144.811 167.549C147.501 167.549 148.372 170.05 147.881 173.612C147.615 175.28 147.16 177.667 146.857 179.865C146.592 181.723 146.402 183.39 146.441 184.527C145.455 185.02 142.575 185.209 141.931 185.209C141.665 185.209 141.627 183.124 141.969 180.926C142.271 179.108 142.916 175.811 143.219 173.915C143.409 172.818 143.37 171.49 142.31 171.49C140.906 171.49 137.573 173.727 135.905 182.897C135.791 183.655 135.488 184.109 135.07 184.374C134.503 184.716 133.29 185.02 130.827 185.058C131.282 182.746 132.002 178.008 132.532 174.523C133.024 171.339 133.215 169.292 133.1 168.497C133.745 168.27 137.118 167.549 137.496 167.549C137.914 167.549 137.989 168.725 137.61 171.567C137.573 171.832 137.534 172.248 137.496 172.476H137.61Z" class="cassandra" fill="#F4F2ED"/>
<path d="M156.86 181.306C158.526 181.306 161.9 178.198 162.847 172.703C162.886 172.4 163 171.832 163.075 171.49C162.582 171.035 161.937 170.732 160.916 170.732C157.087 170.732 155.382 175.318 155.382 178.615C155.382 180.396 155.988 181.306 156.821 181.306H156.86ZM154.359 185.208C151.934 185.208 150.419 183.048 150.419 179.335C150.419 173.196 154.245 167.549 160.687 167.549C161.824 167.549 162.847 167.852 163.492 168.231C163.833 166.488 164.628 161.107 164.667 159.515C165.727 159.326 168.001 158.986 169.023 158.986C169.442 158.986 169.556 159.402 169.403 160.349C168.493 166.033 166.865 176.947 166.561 179.373C166.333 181.419 166.296 183.428 166.333 184.564C165.122 185.095 162.658 185.208 162.014 185.208C161.748 185.208 161.597 183.465 161.673 181.912C161.711 181.419 161.786 180.698 161.786 180.585C159.891 183.693 157.276 185.208 154.396 185.208H154.359Z" class="cassandra" fill="#F4F2ED"/>
<path d="M176.564 173.006C178.573 168.534 180.959 167.549 182.513 167.549C183.006 167.549 183.763 167.853 184.105 168.232C184.257 169.482 183.272 171.983 182.4 172.93C181.944 172.703 181.377 172.476 180.733 172.476C179.443 172.476 176.904 174.485 175.313 183.124C175.198 183.845 174.971 184.148 174.555 184.337C173.912 184.716 171.372 185.02 170.16 185.058C170.727 181.949 171.712 175.621 172.092 171.907C172.206 170.959 172.243 169.216 172.168 168.534C172.887 168.194 175.73 167.549 176.374 167.549C176.715 167.549 176.981 169.634 176.449 173.006H176.564Z" class="cassandra" fill="#F4F2ED"/>
<path d="M189.939 181.343C191.797 181.343 195.168 178.084 196.117 171.87C196.154 171.491 196.193 171.377 196.269 170.998C195.852 170.847 195.283 170.733 194.714 170.733C193.312 170.733 191.872 171.15 190.583 172.893C189.257 174.749 188.688 177.061 188.688 178.918C188.688 180.509 189.143 181.343 189.902 181.343H189.939ZM183.838 179.639C183.838 177.403 184.596 173.499 187.438 170.657C189.863 168.156 192.819 167.549 195.51 167.549C197.29 167.549 199.716 168.117 201.233 168.421C200.854 170.088 199.944 176.378 199.527 180.017C199.337 181.571 199.261 183.731 199.337 184.527C198.087 185.057 195.738 185.208 195.093 185.208C194.752 185.208 194.677 183.655 194.79 182.177C194.828 181.685 194.903 180.964 194.942 180.661C193.463 183.124 190.546 185.208 187.477 185.208C185.278 185.208 183.838 183.39 183.838 179.676V179.639Z" class="cassandra" fill="#F4F2ED"/>
<path d="M178.811 103.333C180.061 117.899 157.137 131.763 127.61 134.296C98.0817 136.829 73.1312 127.072 71.8823 112.506C70.6318 97.9377 93.5559 84.0746 123.083 81.5413C152.611 79.0089 177.561 88.7638 178.811 103.333Z" fill="#BBE6FB"/>
<g opacity="0.350006">
<g opacity="0.350006">
<path opacity="0.350006" d="M123.95 83.2496C112.687 83.0665 99.5065 87.5386 89.6995 91.7265C88.6788 94.6678 88.1293 97.7964 88.1293 101.039C88.1293 118.319 103.731 132.328 122.979 132.328C142.225 132.328 157.827 118.319 157.827 101.039C157.827 95.571 156.262 90.4334 153.515 85.9606C145.669 84.7409 134.877 83.4273 123.95 83.2496Z" fill="white"/>
</g>
</g>
<path d="M122.978 83.2463C116.742 82.8658 105.994 86.119 97.0321 89.3643C95.6703 92.5781 94.914 96.095 94.914 99.7855C94.914 114.925 108.641 127.198 123.161 127.198C137.586 127.198 150.349 114.905 151.409 99.7855C151.752 94.8619 150.058 90.2224 147.704 86.2224C138.413 84.586 128.552 83.5865 122.978 83.2463Z" fill="white"/>
<path d="M106.975 97.7976C107.741 96.1035 108.9 95.2738 110.022 93.8537C109.898 93.5174 109.624 92.4177 109.624 92.0364C109.624 90.3344 111.005 88.9529 112.707 88.9529C113.109 88.9529 113.493 89.0327 113.845 89.1723C118.948 85.2829 125.667 83.5872 132.419 85.0966C133.036 85.2356 133.64 85.4037 134.234 85.5884C127.561 84.6632 120.039 87.0268 114.923 91.1563C115.079 91.5248 115.513 92.5788 115.513 93.0027C115.513 94.7055 114.411 95.1199 112.707 95.1199C112.321 95.1199 111.952 95.0457 111.61 94.9155C110.454 96.4675 109.037 99.4239 108.344 101.272C111.173 103.803 113.73 104.72 117.061 105.965C117.053 105.806 117.176 105.659 117.176 105.498C117.176 100.364 121.695 96.1919 126.829 96.1919C131.43 96.1919 135.24 99.5375 135.984 103.927C138.279 102.466 140.499 101.347 142.191 99.1823C141.797 98.7007 141.371 97.3374 141.371 96.6664C141.371 95.1215 142.625 93.8687 144.169 93.8687C144.388 93.8687 144.598 93.9003 144.802 93.9476C145.662 92.1825 146.31 90.3115 146.724 88.3822C138.695 82.4386 123.162 83.2494 123.162 83.2494C123.162 83.2494 110.801 82.6044 102.433 86.6825C102.991 90.7173 104.601 94.5531 106.975 97.7976Z" class="cassandra" fill="#F4F2ED"/>
<path d="M145.349 95.482C145.916 95.9935 146.226 96.4427 146.47 96.8801C147.22 98.23 145.714 99.4654 144.169 99.4654C144.012 99.4654 143.86 99.4441 143.71 99.4188C141.97 102.139 138.92 105.627 136.212 107.383C140.365 108.064 144.281 109.727 147.398 112.297C149.667 108.232 151.409 102.359 151.409 97.3718C151.409 93.5755 149.733 90.7928 147.203 88.7513C147.069 90.7849 145.984 93.6292 145.349 95.482Z" class="cassandra" fill="#F4F2ED"/>
<path d="M111.635 121.237C113.019 117.415 116.423 114.454 119.643 111.849C119.172 111.204 118.465 109.607 118.17 108.85C114.243 107.657 110.769 105.421 108.073 102.461C108.053 102.547 108.029 102.631 108.008 102.717C107.501 104.991 107.408 107.271 107.66 109.493C109.541 109.844 110.964 111.492 110.964 113.473C110.964 114.649 109.934 116.353 109.134 117.094C110.003 118.969 110.596 119.875 111.635 121.237Z" class="cassandra" fill="#F4F2ED"/>
<path d="M111.391 124.445C109.741 122.804 108.599 119.53 107.528 117.474C107.328 117.505 107.123 117.526 106.913 117.526C104.673 117.526 102.328 115.647 102.859 113.473C103.152 112.27 103.982 111.484 105.335 110.827C105.027 108.335 104.943 104.752 105.522 102.161C105.688 101.42 106.039 101.072 106.272 100.367C103.802 96.7519 102.206 92.0074 102.206 87.3001C102.206 87.128 102.214 86.9583 102.218 86.7878C98.0439 88.8814 94.9139 92.1795 94.9139 97.3716C94.9139 108.856 101.528 120.122 111.37 124.538C111.377 124.507 111.383 124.476 111.391 124.445Z" class="cassandra" fill="#F4F2ED"/>
<path d="M135.592 108.568C134.32 112.185 130.881 114.783 126.829 114.783C124.661 114.783 122.673 114.036 121.093 112.793C117.835 115.33 114.879 119.787 113.376 123.654C114.051 124.379 114.521 124.976 115.277 125.62C117.556 126.213 120.694 125.62 123.162 125.62C133.085 125.62 141.873 121.206 146.913 113.465C143.562 111.144 139.61 108.936 135.592 108.568Z" class="cassandra" fill="#F4F2ED"/>
<path d="M106.721 99.1398C107.487 97.4457 108.446 95.8779 109.567 94.4578C109.443 94.1222 109.37 93.7599 109.37 93.3786C109.37 91.6766 110.75 90.2951 112.453 90.2951C112.855 90.2951 113.239 90.3748 113.59 90.5146C118.693 86.625 125.413 84.9294 132.165 86.4388C132.781 86.5777 133.386 86.7458 133.979 86.9306C127.306 86.0054 120.411 88.0508 115.296 92.181C115.452 92.5489 115.537 92.9547 115.537 93.3786C115.537 95.0814 114.156 96.462 112.453 96.462C112.066 96.462 111.697 96.3879 111.355 96.2576C110.199 97.8096 109.254 99.5243 108.561 101.373C110.991 103.992 113.973 106.062 117.304 107.307C117.297 107.148 117.28 106.991 117.28 106.83C117.28 101.696 121.441 97.5341 126.575 97.5341C131.176 97.5341 134.986 100.88 135.73 105.269C138.025 103.808 140.065 101.933 141.756 99.7682C141.361 99.2866 141.116 98.6796 141.116 98.0086C141.116 96.4636 142.37 95.2108 143.915 95.2108C144.134 95.2108 144.344 95.2425 144.548 95.2898C145.407 93.5246 146.055 91.6537 146.469 89.7243C138.442 83.7808 122.907 84.5915 122.907 84.5915C122.907 84.5915 110.547 83.9465 102.179 88.0247C102.737 92.0594 104.346 95.8953 106.721 99.1398Z" fill="#1287B1"/>
<path d="M145.782 95.9398C146.349 96.4514 146.713 97.1847 146.713 98.0088C146.713 99.5537 145.46 100.807 143.915 100.807C143.758 100.807 143.607 100.786 143.456 100.761C141.715 103.481 139.409 105.8 136.699 107.556C140.703 108.182 144.471 109.881 147.587 112.452C149.857 108.385 151.154 103.701 151.154 98.7139C151.154 94.9175 149.478 92.1347 146.948 90.0933C146.816 92.1269 146.417 94.087 145.782 95.9398Z" fill="#1287B1"/>
<path d="M112.062 122.155C113.446 118.334 115.851 114.904 119.071 112.3C118.6 111.654 118.211 110.949 117.917 110.193C113.988 108.999 110.514 106.763 107.819 103.803C107.8 103.889 107.774 103.973 107.755 104.059C107.246 106.333 107.153 108.612 107.406 110.836C109.286 111.186 110.71 112.833 110.71 114.816C110.71 115.991 110.205 117.048 109.406 117.79C110.131 119.327 111.024 120.792 112.062 122.155Z" fill="#1287B1"/>
<path d="M111.381 124.398C109.73 122.757 108.344 120.872 107.274 118.818C107.073 118.848 106.868 118.869 106.658 118.869C104.42 118.869 102.605 117.054 102.605 114.815C102.605 113.212 103.539 111.828 104.891 111.172C104.584 108.68 104.688 106.094 105.269 103.503C105.434 102.763 105.636 102.04 105.869 101.333C103.399 97.719 101.952 93.3495 101.952 88.6422C101.952 88.4701 101.96 88.3004 101.964 88.1307C97.7892 90.2234 94.6591 93.5224 94.6591 98.7137C94.6591 110.199 101.518 120.076 111.359 124.491C111.366 124.461 111.373 124.429 111.381 124.398Z" fill="#1287B1"/>
<path d="M135.337 109.91C134.065 113.527 130.627 116.125 126.575 116.125C124.407 116.125 122.419 115.378 120.838 114.135C117.58 116.673 115.121 120.131 113.62 123.999C114.293 124.724 115.013 125.407 115.769 126.05C118.049 126.644 120.441 126.962 122.907 126.962C132.83 126.962 141.554 121.839 146.593 114.098C143.243 111.777 139.356 110.279 135.337 109.91Z" fill="#1287B1"/>
<path d="M135.664 107.514L144.252 105.465L135.631 105.025L142.647 99.6637L134.686 102.517L140.096 95.0203L132.624 99.9866L135.237 91.2106L130.105 98.444L129.988 89.3033L126.612 97.4454L123.797 89.2062L123.949 98.9121L119.084 90.2119L121.717 99.4498L113.825 93.7106L120.007 101.479L110.21 97.8756L117.942 103.597L108.027 103.901L118.164 106.518L108.018 108.711L118.034 109.438L109.587 114.846L118.284 111.693L112.25 119.335L119.875 113.186L117.129 123.441L123.016 115.096L122.191 124.952L125.532 116.017L128.377 125.408L129.069 115.989L133.29 124.025L130.796 114.833L138.527 120.821L133.536 113.186L142.018 116.49L135.532 110.117L144.229 110.8L135.664 107.514Z" fill="white"/>
<g opacity="0.350006">
<g opacity="0.350006">
<path opacity="0.350006" d="M44.2334 123.947C70.8686 97.3126 92.1412 89.0899 111.448 85.3363C114.001 84.8398 114.485 79.2577 114.485 79.2577C114.485 79.2577 114.843 83.369 116.63 83.905C118.418 84.4418 120.741 77.4697 120.741 77.4697C120.741 77.4697 118.596 83.7267 120.741 84.0842C122.887 84.4418 126.819 78.0065 126.819 78.0065C126.819 78.0065 125.211 83.5475 126.284 83.905C127.355 84.2627 132.717 75.8616 132.717 75.8616C132.717 75.8616 129.5 81.4026 132.539 81.9394C135.579 82.4754 140.012 78.1572 140.012 78.1572C140.012 78.1572 136.527 82.1083 138.08 82.6538C144.695 84.9787 150.047 76.3818 150.047 76.3818C150.047 76.3818 148.807 80.1513 145.589 84.2627C152.56 86.0499 157.737 75.5482 157.737 75.5482L152.56 86.0499C155.242 87.4811 165.968 75.1464 165.968 75.1464C165.968 75.1464 160.426 84.7995 157.209 86.7651C158.995 88.1956 165.431 82.4754 165.431 82.4754C165.431 82.4754 160.247 88.91 162.213 89.2676C165.074 91.5917 175.619 77.2912 175.619 77.2912C175.619 77.2912 171.509 85.6923 165.431 92.3069C170.512 94.8481 183.129 78.5425 183.129 78.5425C183.129 78.5425 182.771 83.7266 173.653 91.9492C180.447 91.0557 189.206 78.1849 189.206 78.1849C189.206 78.1849 185.989 87.8379 178.301 94.6301C184.971 93.9362 195.64 77.4697 195.64 77.4697C195.64 77.4697 191.529 88.91 183.129 95.5246C192.424 97.5802 205.831 83.7266 205.831 83.7266C205.831 83.7266 200.557 93.5589 193.674 97.5802C201.361 100.53 211.909 88.374 211.909 88.374C211.909 88.374 201.361 104.642 184.559 103.926C179.046 103.692 162.369 87.2001 126.641 88.5531C79.4488 90.3412 69.439 110.361 44.2334 123.947Z" class="cassandra" fill="#F4F2ED"/>
</g>
</g>
<path d="M45.325 119.799C71.9601 93.1646 93.232 84.9429 112.538 81.1883C115.094 80.6918 115.577 75.1105 115.577 75.1105C115.577 75.1105 115.934 79.2227 117.723 79.7579C119.51 80.294 121.833 73.3233 121.833 73.3233C121.833 73.3233 119.688 79.5803 121.833 79.9371C123.978 80.294 127.911 73.8593 127.911 73.8593C127.911 73.8593 126.302 79.4003 127.374 79.7579C128.447 80.1155 133.809 71.7136 133.809 71.7136C133.809 71.7136 130.592 77.2554 133.631 77.7914C136.669 78.3283 141.104 74.0102 141.104 74.0102C141.104 74.0102 137.618 77.9612 139.171 78.5066C145.786 80.8307 151.137 72.2347 151.137 72.2347C151.137 72.2347 149.897 76.0042 146.681 80.1155C153.651 81.9035 158.829 71.4002 158.829 71.4002L153.651 81.9035C156.333 83.3332 167.058 71 167.058 71C167.058 71 161.518 80.6515 158.3 82.618C160.088 84.0484 166.523 78.3283 166.523 78.3283C166.523 78.3283 161.339 84.7636 163.305 85.1204C166.165 87.4453 176.711 73.1441 176.711 73.1441C176.711 73.1441 172.599 81.546 166.523 88.1597C171.603 90.7017 184.22 74.3953 184.22 74.3953C184.22 74.3953 183.863 79.5803 174.746 87.8029C181.538 86.9085 190.298 74.0377 190.298 74.0377C190.298 74.0377 187.08 83.6909 179.393 90.4838C186.063 89.7899 196.731 73.3233 196.731 73.3233C196.731 73.3233 192.621 84.7636 184.22 91.3774C193.515 93.4331 206.922 79.5803 206.922 79.5803C206.922 79.5803 201.649 89.411 194.766 93.4331C202.454 96.3824 213 84.2268 213 84.2268C213 84.2268 202.454 100.495 185.649 99.7793C180.137 99.544 163.461 83.0521 127.731 84.406C80.5404 86.1933 70.5298 106.214 45.325 119.799Z" class="cassandra" fill="#F4F2ED"/>
<g opacity="0.350006">
<g opacity="0.350006">
<path opacity="0.350006" d="M43.5357 126.86C57.6127 133.922 70.4843 125.788 86.7061 130.359C99.0393 133.836 114.056 138.121 134.433 135.172C154.811 132.224 172.241 123.374 180.554 107.554C183.146 100.494 193.692 109.163 193.692 109.163C193.692 109.163 186.006 105.946 186.185 107.465C186.364 108.984 197.715 114.258 197.715 114.258C197.715 114.258 187.436 111.04 188.062 113.453C188.688 115.866 200.931 125.519 200.931 125.519C200.931 125.519 187.078 114.973 185.917 116.402C184.754 117.833 191.816 123.643 191.816 123.643C191.816 123.643 180.107 116.402 175.995 118.538C173.037 120.072 188.151 129.989 188.151 129.989C188.151 129.989 178.319 122.481 175.995 124.446C173.671 126.414 187.078 142.502 187.078 142.502C187.078 142.502 171.882 126.055 170.364 126.86C168.844 127.664 174.564 135.531 174.564 135.531C174.564 135.531 167.057 127.307 165.002 128.737C162.947 130.168 175.727 151.529 175.727 151.529C175.727 151.529 161.874 129.632 156.153 133.295C165.137 153.003 161.784 155.819 161.784 155.819C161.784 155.819 160.638 135.712 149.45 136.245C143.818 136.513 152.131 151.261 152.131 151.261C152.131 151.261 144.48 137.791 139.385 138.06C148.775 155.831 145.428 163.058 145.428 163.058C145.428 163.058 146.981 147.881 134.245 139.435C139.071 143.724 131.217 163.058 131.217 163.058C131.217 163.058 138.126 134.567 126.121 139.999C124.224 140.855 125.987 154.21 125.987 154.21C125.987 154.21 123.574 138.925 119.955 139.73C117.845 140.198 106.548 160.913 106.548 160.913C106.548 160.913 115.799 138.523 112.984 139.462C110.933 140.146 107.085 149.384 107.085 149.384C107.085 149.384 108.961 140.266 107.085 139.73C105.208 139.194 94.7496 149.384 94.7496 149.384C94.7496 149.384 102.526 140.266 101.185 138.389C99.153 135.546 96.7713 135.411 93.9451 136.513C89.8331 138.115 84.2929 145.629 84.2929 145.629C84.2929 145.629 89.8157 138.022 88.8502 135.172C87.3006 130.593 71.4221 144.02 71.4221 144.02C71.4221 144.02 80.8068 135.172 78.6619 133.295C76.517 131.418 64.8699 131.998 61.233 131.988C50.5079 131.955 46.7913 129.439 43.5357 126.86Z" class="cassandra" fill="#F4F2ED"/>
</g>
</g>
<path d="M43 125.251C57.077 132.312 69.9477 124.179 86.1696 128.751C98.5027 132.226 113.52 136.513 133.898 133.563C154.276 130.613 171.704 121.765 180.018 105.946C182.609 98.885 193.156 107.554 193.156 107.554C193.156 107.554 185.469 104.337 185.649 105.857C185.827 107.376 197.178 112.648 197.178 112.648C197.178 112.648 186.899 109.431 187.525 111.845C188.151 114.257 200.396 123.91 200.396 123.91C200.396 123.91 186.541 113.363 185.38 114.794C184.219 116.224 191.28 122.034 191.28 122.034C191.28 122.034 179.571 114.794 175.459 116.928C172.501 118.462 187.614 128.379 187.614 128.379C187.614 128.379 177.782 120.872 175.459 122.838C173.135 124.805 186.543 140.892 186.543 140.892C186.543 140.892 171.346 124.446 169.828 125.251C168.309 126.056 174.029 133.921 174.029 133.921C174.029 133.921 166.521 125.697 164.466 127.128C162.41 128.558 175.191 149.92 175.191 149.92C175.191 149.92 161.337 128.022 155.616 131.686C164.6 151.394 161.248 154.21 161.248 154.21C161.248 154.21 160.102 134.103 148.913 134.637C143.282 134.905 151.594 149.652 151.594 149.652C151.594 149.652 143.943 136.181 138.85 136.45C148.24 154.221 144.892 161.449 144.892 161.449C144.892 161.449 146.444 146.271 133.708 137.825C138.534 142.115 130.68 161.449 130.68 161.449C130.68 161.449 137.591 132.958 125.586 138.39C123.689 139.247 125.452 152.601 125.452 152.601C125.452 152.601 123.038 137.317 119.42 138.121C117.308 138.59 106.011 159.304 106.011 159.304C106.011 159.304 115.262 136.915 112.447 137.854C110.396 138.537 106.548 147.774 106.548 147.774C106.548 147.774 108.425 138.657 106.548 138.121C104.672 137.585 94.2139 147.774 94.2139 147.774C94.2139 147.774 101.99 138.657 100.648 136.781C98.6165 133.936 96.2348 133.803 93.4094 134.905C89.2965 136.506 83.7563 144.02 83.7563 144.02C83.7563 144.02 89.2791 136.412 88.3144 133.563C86.764 128.985 70.8863 142.411 70.8863 142.411C70.8863 142.411 80.271 133.563 78.1254 131.686C75.9805 129.809 64.3334 130.39 60.6964 130.379C49.9713 130.345 46.2556 127.83 43 125.251Z" class="cassandra" fill="#F4F2ED"/>
</svg>