<svg width="256" height="256" title="Chart.js" viewBox="0 0 256 256" fill="none" xmlns="http://www.w3.org/2000/svg" id="chartjs">
<style>
#chartjs {
    rect {fill: #15191C}

    @media (prefers-color-scheme: light) {
        rect {fill: #F4F2ED}
    }
}
</style>
<rect width="256" height="256" rx="40" fill="#15191C"/>
<path d="M201.503 129.098C176.485 129.589 181.696 145.427 164.065 149.432C146.154 153.501 143.326 105.688 125.42 105.688C107.511 105.688 103.544 152.133 81.12 184.018L80.4802 184.92L128.557 212.673L201.503 170.562V129.098Z" fill="#36A2EB"/>
<path d="M201.503 127.657C193.128 116.908 187.447 104.552 175.226 104.552C153.598 104.552 159.289 139.833 135.386 139.833C111.482 139.833 108.968 101.883 81.8884 137.557C73.2595 148.924 66.3139 161.598 60.8581 173.592L128.557 212.674L201.503 170.563V127.657Z" fill="#FFCE56"/>
<path d="M55.6092 142.271C63.8164 119.543 67.3585 101.136 83.027 101.136C106.929 101.136 112.619 168.287 133.11 161.455C153.598 154.627 151.321 118.206 183.194 118.206C189.26 118.206 195.454 121.922 201.504 127.934V170.562L128.558 212.673L55.6092 170.562V142.271Z" fill="#FE6184"/>
<path d="M128.5 217.953L51 173.216V83.7382L128.5 39L206 83.7382V173.215L128.5 217.953ZM60.1053 167.959L128.5 207.442L196.895 167.959V88.9949L128.5 49.5124L60.1053 88.9949V167.959Z" fill="white"/>
</svg>