<svg width="256" height="256" title="Cinema 4D" viewBox="0 0 256 256" fill="none" xmlns="http://www.w3.org/2000/svg" id="cinema4d">
<style>
#cinema4d {
    rect {fill: #15191C}

    @media (prefers-color-scheme: light) {
        rect {fill: #F4F2ED}
    }
}
</style>
<rect width="256" height="256" rx="40" fill="#15191C"/>
<path d="M121.386 33.7669L49.6036 75.1653C45.5085 77.5211 43 81.89 43 86.6018V169.399C43 174.11 45.5299 178.479 49.6036 180.835L121.386 222.234C125.481 224.589 130.519 224.589 134.614 222.234L206.396 180.835C210.491 178.479 213 174.11 213 169.399V86.6018C213 81.89 210.47 77.5211 206.396 75.1653L134.614 33.7669C130.519 31.411 125.481 31.411 121.386 33.7669Z" fill="#2B2CA3"/>
<path d="M188.676 128.206C188.676 123.972 188.655 119.927 187.816 115.745C187.396 113.618 186.882 109.877 185.592 107.267C185.067 106.198 184.406 105.318 183.567 104.815C177.241 101.032 172.96 113.408 172.31 117.663C168.281 144.366 160.916 155.852 152.985 164.298C152.985 164.298 152.974 164.309 152.953 164.34C152.46 164.864 151.967 165.367 151.474 165.87C147.907 169.318 138.171 177.241 123.986 177.44C112.645 177.283 101.357 172.923 92.701 164.277C84.0457 155.632 79.6813 144.355 79.5239 133.027C79.7232 118.868 87.6652 109.133 91.1063 105.569C91.6099 105.077 92.1136 104.584 92.638 104.092C92.6695 104.071 92.6801 104.06 92.6801 104.06C101.147 96.1271 112.635 88.7704 139.367 84.746C143.626 84.1069 156.006 79.8206 152.229 73.5012C151.725 72.6628 150.844 72.0027 149.774 71.4786C147.162 70.1896 143.406 69.676 141.287 69.2569C137.111 68.4291 133.061 68.408 128.823 68.408C95.6386 68.408 68.7283 95.2887 68.7283 128.436C68.7283 144.429 74.8761 159.373 86.1335 170.733H86.2489V170.848C97.6214 182.093 112.582 188.234 128.592 188.234C161.766 188.234 188.687 161.353 188.687 128.206H188.676Z" fill="url(#linearGradient)"/>
<path d="M150.624 149.721C150.718 149.637 150.823 149.543 150.918 149.459C154.81 145.928 156.919 142.05 157.454 141.002C160.78 133.708 162.689 125.702 163.885 117.842C163.896 117.737 165.711 107.372 171.575 104.616C171.796 104.511 172.016 104.427 172.236 104.354C170.463 100.529 167.998 96.9449 164.84 93.7904C164.609 93.5598 164.378 93.3504 164.147 93.1198C163.927 92.8892 163.707 92.6481 163.476 92.4281C160.318 89.2737 156.73 86.8109 152.901 85.0399C152.827 85.2599 152.743 85.4799 152.638 85.7001C149.869 91.5582 139.493 93.3713 139.398 93.3817C131.53 94.566 123.514 96.4838 116.212 99.8059C115.258 100.288 111.984 102.07 108.743 105.287C108.7 105.329 108.669 105.36 108.627 105.392C108.564 105.455 108.501 105.528 108.428 105.601C108.26 105.779 108.082 105.958 107.914 106.146C97.0762 117.768 97.6006 136.244 109.288 147.919C120.661 159.279 138.496 160.075 150.163 150.13C150.32 149.994 150.477 149.868 150.635 149.732L150.624 149.721Z" fill="url(#radialGradient)"/>
<linearGradient id="linearGradient" x1="165.773" y1="68.408" x2="50.5888" y2="217.807" gradientUnits="userSpaceOnUse">
<stop stop-color="#71D0FF"/>
<stop offset="1" stop-color="#2D12D3"/>
</linearGradient>
<radialGradient id="radialGradient" cx="0" cy="0" r="1" gradientTransform="matrix(-55.2261 55.166 -54.9299 -54.9621 161.435 91.8414)" gradientUnits="userSpaceOnUse">
<stop stop-color="#71D0FF"/>
<stop offset="1" stop-color="#524CF6"/>
</radialGradient>
</svg>