<svg width="256" height="256" title="Clojure" viewBox="0 0 256 256" fill="none" xmlns="http://www.w3.org/2000/svg" id="clojure">
<style>
#clojure {
    rect {fill: #15191C}

    @media (prefers-color-scheme: light) {
        rect {fill: #F4F2ED}
    }
}
</style>
<rect width="256" height="256" rx="40" fill="#15191C"/>
<path d="M127.999 53C86.6463 53 53 86.6455 53 127.999C53 169.356 86.6463 203 127.999 203C169.354 203 203 169.356 203 127.999C203 86.6455 169.354 53 127.999 53Z" fill="white"/>
<path d="M125.257 129.348C124.583 130.808 123.839 132.448 123.069 134.194C120.348 140.361 117.334 147.864 116.233 152.671C115.837 154.383 115.592 156.505 115.597 158.857C115.597 159.787 115.647 160.765 115.726 161.761C119.574 163.175 123.73 163.953 128.07 163.96C132.021 163.953 135.816 163.3 139.369 162.119C138.534 161.355 137.737 160.542 137.012 159.624C132.195 153.483 129.508 144.482 125.257 129.348Z" fill="#91DC47"/>
<path d="M107.475 98.8339C98.276 105.316 92.2566 116.009 92.2338 128.125C92.2566 140.061 98.095 150.615 107.062 157.124C109.262 147.962 114.775 139.573 123.044 122.757C122.553 121.408 121.993 119.932 121.367 118.381C119.076 112.635 115.77 105.963 112.82 102.941C111.316 101.363 109.491 99.9986 107.475 98.8339Z" fill="#91DC47"/>
<path d="M159.286 169.228C154.54 168.633 150.623 167.916 147.196 166.707C141.433 169.568 134.942 171.185 128.07 171.185C104.29 171.185 85.0133 151.912 85.0103 128.126C85.0103 115.219 90.6964 103.65 99.6916 95.759C97.2857 95.1777 94.7768 94.8386 92.2139 94.8433C79.5798 94.9622 66.2434 101.954 60.691 120.837C60.1719 123.585 60.2955 125.663 60.2955 128.127C60.2955 165.558 90.6417 195.904 128.072 195.904C150.995 195.904 171.245 184.514 183.508 167.095C176.875 168.748 170.496 169.538 165.034 169.555C162.987 169.555 161.065 169.445 159.286 169.228Z" fill="#63B132"/>
<path d="M146.55 156.095C146.968 156.302 147.917 156.641 149.237 157.016C158.118 150.496 163.889 139.994 163.912 128.125H163.909C163.875 108.338 147.862 92.3278 128.07 92.2885C124.136 92.2962 120.356 92.9453 116.818 94.1179C124.095 102.412 127.594 114.265 130.979 127.231C130.981 127.237 130.983 127.242 130.985 127.247C130.991 127.257 132.068 130.847 133.916 135.61C135.751 140.367 138.365 146.255 141.216 150.546C143.089 153.422 145.147 155.489 146.55 156.095Z" fill="#90B4FE"/>
<path d="M128.072 60.348C105.37 60.348 85.2887 71.5233 72.9887 88.6588C79.3901 84.6498 85.9262 83.2037 91.6302 83.2553C99.5088 83.2781 105.703 85.7209 108.675 87.3919C109.392 87.8056 110.074 88.2509 110.741 88.7086C116.044 86.373 121.903 85.0669 128.07 85.0669C151.852 85.0699 171.132 104.343 171.136 128.125H171.132C171.132 140.116 166.228 150.957 158.322 158.764C160.262 158.981 162.332 159.117 164.445 159.106C171.952 159.11 180.065 157.453 186.148 152.337C190.114 148.996 193.437 144.105 195.28 136.77C195.64 133.937 195.848 131.057 195.848 128.127C195.848 90.6965 165.504 60.348 128.072 60.348Z" fill="#5881D8"/>
</svg>