<svg width="256" height="256" title="Cloudflare" viewBox="0 0 256 256" fill="none" xmlns="http://www.w3.org/2000/svg" id="cloudflare">
<style>
#cloudflare {
    rect {fill: #15191C}

    @media (prefers-color-scheme: light) {
        rect {fill: #F4F2ED}
    }
}
</style>
<rect width="256" height="256" rx="40" fill="#15191C"/>
<path d="M201.444 135.043L179.435 122.419L175.63 120.78L85.6036 121.404V167.1H201.425L201.444 135.043Z" fill="white"/>
<path d="M161.367 162.886C162.441 159.198 162.031 155.803 160.236 153.286C158.597 150.984 155.826 149.637 152.49 149.481L89.3499 148.662C88.9401 148.662 88.5889 148.447 88.3743 148.154C88.1597 147.842 88.1206 147.432 88.2182 147.023C88.4328 146.398 89.0377 145.95 89.7011 145.891L153.407 145.072C160.938 144.72 169.153 138.613 172.021 131.121L175.669 121.638C175.825 121.228 175.884 120.819 175.767 120.409C171.689 101.853 155.124 88 135.319 88C117.056 88 101.564 99.8045 96.0229 116.155C92.4327 113.482 87.867 112.058 82.95 112.507C74.1698 113.385 67.1456 120.409 66.2871 129.17C66.0725 131.433 66.2286 133.638 66.7554 135.686C52.4533 136.096 41 147.784 41 162.203C41 163.491 41.0976 164.759 41.2536 166.047C41.3512 166.671 41.878 167.12 42.4829 167.12H159.026C159.689 167.12 160.314 166.651 160.509 165.988L161.367 162.886Z" fill="#F38020"/>
<path d="M181.484 122.321C180.918 122.321 180.313 122.321 179.747 122.38C179.338 122.38 178.986 122.692 178.83 123.101L176.372 131.667C175.299 135.355 175.708 138.75 177.503 141.267C179.142 143.569 181.913 144.915 185.25 145.072L198.693 145.891C199.103 145.891 199.454 146.106 199.669 146.398C199.883 146.711 199.922 147.159 199.825 147.53C199.61 148.154 199.005 148.603 198.342 148.662L184.333 149.481C176.743 149.832 168.587 155.94 165.718 163.432L164.684 166.047C164.47 166.554 164.84 167.081 165.406 167.081H213.483C214.049 167.081 214.556 166.73 214.712 166.164C215.532 163.198 216 160.057 216 156.837C216 137.813 200.508 122.321 181.484 122.321Z" fill="#FAAE40"/>
</svg>