<svg width="256" height="256" title="CodePen" viewBox="0 0 256 256" fill="none" xmlns="http://www.w3.org/2000/svg" id="codepen">
<style>
#codepen {
    rect {fill: #15191C}
    path {fill: #F4F2ED}

    @media (prefers-color-scheme: light) {
        rect {fill: #F4F2ED}
        path {fill: #15191C}
    }
}
</style>
<rect width="256" height="256" rx="40" fill="#15191C"/>
<path fill-rule="evenodd" clip-rule="evenodd" d="M190.109 138.786L173.984 128L190.109 117.214V138.786ZM134.445 184.508V154.447L162.392 135.758L184.948 150.842L134.445 184.508ZM128 143.248L105.205 128L128 112.752L150.8 128L128 143.248ZM121.555 184.508L71.0516 150.842L93.6125 135.758L121.555 154.447V184.508ZM65.8906 117.214L82.0203 128L65.8906 138.786V117.214ZM121.555 71.4922V101.553L93.6125 120.247L71.0516 105.158L121.555 71.4922ZM134.445 71.4922L184.948 105.158L162.392 120.247L134.445 101.553V71.4922ZM202.944 104.309C202.93 104.211 202.906 104.122 202.892 104.028C202.859 103.845 202.827 103.662 202.78 103.489C202.752 103.381 202.709 103.278 202.677 103.175C202.625 103.016 202.573 102.861 202.512 102.706C202.47 102.598 202.419 102.491 202.367 102.392C202.302 102.242 202.231 102.102 202.147 101.966C202.091 101.863 202.025 101.764 201.964 101.666C201.88 101.53 201.791 101.398 201.692 101.272C201.622 101.178 201.547 101.084 201.472 100.995C201.369 100.873 201.261 100.756 201.148 100.644C201.064 100.559 200.984 100.47 200.895 100.395C200.773 100.288 200.652 100.184 200.53 100.086C200.431 100.011 200.337 99.9359 200.239 99.8656C200.202 99.8422 200.169 99.8094 200.131 99.7859L131.577 54.0828C129.411 52.6391 126.594 52.6391 124.423 54.0828L55.8734 99.7859C55.8359 99.8094 55.8031 99.8422 55.7656 99.8656C55.6625 99.9359 55.5687 100.011 55.475 100.086C55.3484 100.184 55.2266 100.288 55.1094 100.395C55.0203 100.47 54.9359 100.559 54.8516 100.644C54.7391 100.756 54.6312 100.873 54.5328 100.995C54.4531 101.084 54.3781 101.178 54.3078 101.272C54.2141 101.398 54.125 101.53 54.0406 101.666C53.975 101.764 53.9141 101.863 53.8531 101.966C53.7734 102.102 53.7031 102.242 53.6328 102.392C53.5859 102.491 53.5344 102.598 53.4922 102.706C53.4266 102.861 53.375 103.016 53.3234 103.175C53.2906 103.278 53.2531 103.381 53.225 103.489C53.1781 103.662 53.1453 103.845 53.1125 104.028C53.0938 104.122 53.0703 104.211 53.0609 104.309C53.0234 104.581 53 104.862 53 105.148V150.852C53 151.133 53.0234 151.414 53.0609 151.695C53.0703 151.784 53.0938 151.878 53.1125 151.972C53.1453 152.155 53.1781 152.333 53.225 152.511C53.2531 152.619 53.2906 152.722 53.3234 152.825C53.375 152.98 53.4266 153.139 53.4922 153.298C53.5344 153.402 53.5859 153.505 53.6328 153.608C53.7031 153.753 53.7734 153.894 53.8531 154.039C53.9141 154.138 53.975 154.236 54.0406 154.334C54.125 154.47 54.2141 154.597 54.3078 154.723C54.3781 154.822 54.4531 154.916 54.5328 155.005C54.6312 155.122 54.7391 155.244 54.8516 155.352C54.9359 155.441 55.0203 155.525 55.1094 155.605C55.2266 155.712 55.3484 155.816 55.475 155.914C55.5687 155.989 55.6625 156.064 55.7656 156.134C55.8031 156.158 55.8359 156.191 55.8734 156.214L124.423 201.917C125.506 202.639 126.753 203 128 203C129.247 203 130.494 202.639 131.577 201.917L200.131 156.214C200.169 156.191 200.202 156.158 200.239 156.134C200.337 156.064 200.431 155.989 200.53 155.914C200.652 155.816 200.773 155.712 200.895 155.605C200.984 155.525 201.064 155.441 201.148 155.352C201.261 155.244 201.369 155.122 201.472 155.005C201.547 154.916 201.622 154.822 201.692 154.723C201.791 154.597 201.88 154.47 201.964 154.334C202.025 154.236 202.091 154.138 202.147 154.039C202.231 153.894 202.302 153.753 202.367 153.608C202.419 153.505 202.47 153.402 202.512 153.298C202.573 153.139 202.625 152.98 202.677 152.825C202.709 152.722 202.752 152.619 202.78 152.511C202.827 152.333 202.859 152.155 202.892 151.972C202.906 151.878 202.93 151.784 202.944 151.695C202.981 151.414 203 151.133 203 150.852V105.148C203 104.862 202.981 104.581 202.944 104.309Z" fill="#F4F2ED"/>
</svg>