<svg width="256" height="256" title="Codewars" viewBox="0 0 256 256" fill="none" xmlns="http://www.w3.org/2000/svg" id="codewars">
<style>
#codewars {
    rect {fill: #15191C}

    @media (prefers-color-scheme: light) {
        rect {fill: #F4F2ED}
    }
}
</style>
<rect width="256" height="256" rx="40" fill="#15191C"/>
<path d="M24.4159 129.675L23.6827 129.308C22.0329 128.391 20.7497 127.017 19.8331 125.275C18.5499 122.892 18 120.692 18 118.401L18.1833 117.209C18.1833 115.376 18.6416 113.726 19.4665 112.168L20.1998 110.793C20.5664 110.06 21.1163 109.419 21.5746 108.777C22.1245 108.135 22.2162 107.31 22.0329 106.577L21.5746 105.111C21.0247 103.278 20.658 101.445 20.658 99.6114L20.3831 98.5115C20.3831 96.4951 20.933 94.4786 22.2162 93.0121L23.1328 91.8206C23.7744 90.9041 24.7826 90.3541 25.8824 89.9875C26.799 89.7125 27.4406 88.796 27.5323 87.6961L27.7156 84.5798C27.7156 82.1051 28.9071 79.8137 30.7402 78.1639L32.94 76.5141C33.3982 76.0559 33.8565 75.5976 34.2231 74.8644C34.6814 74.3143 34.7731 73.5813 34.6814 73.0313C34.4981 72.1148 34.6814 71.8398 35.1397 71.7481C36.6062 72.298 37.5228 72.1148 38.1644 71.3815L39.3559 69.8234L42.6555 66.1571C43.5721 65.2407 43.9387 63.5908 43.3888 62.3076L42.2889 59.9245C42.1056 59.3747 42.2889 58.733 42.7472 58.5496C43.9387 58.5496 44.7636 59.0078 45.1303 59.7411L45.4969 60.3827C46.0468 61.4826 47.33 62.0325 48.2466 61.5742C50.263 60.841 51.9128 60.6576 53.471 60.6576H56.404C58.4204 60.6576 60.0702 59.2827 60.4369 57.1746C60.8035 54.6083 61.72 52.5918 63.0032 51.217C64.3781 49.6589 65.9362 48.4673 67.7694 47.5507C70.1524 46.2676 71.6189 44.4344 72.0772 42.0514C72.7188 39.1184 74.2769 37.0103 76.385 35.6354L83.3509 31.6942L85.3674 30.5027C86.5589 29.7695 87.6588 28.853 88.5753 27.753L90.4084 25.5533C91.325 24.6368 92.2416 23.9952 93.3414 23.7202C94.258 23.4452 95.5412 23.2619 96.6411 23.3535L100.307 23.6286C102.14 23.6286 103.607 24.0868 105.073 24.7284L105.99 25.1867C106.907 25.5533 107.823 25.3701 108.281 24.7284L109.106 24.2702L113.048 20.1457C113.964 19.2292 115.064 18.8626 116.255 19.0458C117.447 19.2292 118.639 19.6874 119.738 20.2373C121.388 21.1538 122.763 21.5206 124.321 21.5206H125.238C127.254 21.5206 129.271 21.7956 131.287 22.2538L132.662 22.6205C134.037 22.9871 135.412 22.4372 136.328 21.3374C136.603 20.8791 137.245 20.7873 137.611 21.154C137.886 21.3374 137.978 21.5206 138.07 21.7956C138.253 23.6287 139.353 25.0036 140.819 25.4618L142.286 25.9201C143.844 26.3783 145.219 27.3866 146.135 28.6698C147.052 30.0447 148.152 31.4195 149.435 32.336L150.352 33.2525C151.268 34.169 152.551 34.5356 153.835 34.444H159.242C161.442 34.444 163.55 34.8106 165.658 35.7273C167.675 36.6438 169.783 36.8272 171.707 36.0939C173.724 35.4523 175.832 35.1774 177.94 35.4523L181.881 36.0939C183.714 36.2773 185.548 37.1938 186.647 38.5687L187.106 39.0269C188.022 39.9434 188.939 41.135 189.855 42.4182C190.405 43.6097 191.688 44.2513 192.972 44.2513H198.654C200.029 44.2513 201.404 44.5263 202.504 45.1678C203.695 46.0843 204.704 47.0009 205.62 47.9175L206.537 49.1089C207.637 50.3921 208.186 52.1336 208.095 53.9667C208.095 55.4332 209.195 56.7164 210.661 56.7164L212.494 56.8998C213.777 56.8998 214.877 57.8163 215.519 59.0079L216.435 60.841L218.819 66.1571C219.185 67.0736 219.277 67.9902 219.185 68.7235C219.185 69.64 219.46 70.3732 220.102 70.7399L221.018 71.3816C222.21 72.2981 222.851 73.673 222.668 75.2311L222.026 79.539L221.843 81.3721C221.66 82.2886 222.118 83.4802 222.943 84.1218C224.318 85.0383 224.959 86.2299 225.051 87.6047V89.4378C225.051 90.3545 224.868 91.4543 224.134 92.1875C223.584 92.9208 223.218 93.8373 223.218 94.9372L223.493 97.0453C223.493 98.5118 224.41 99.795 225.326 100.712C226.609 101.628 227.343 103.095 227.526 104.561C227.893 106.853 227.984 108.686 227.984 110.519V112.627C227.984 113.36 227.984 114.093 228.259 114.827C228.443 115.468 228.901 116.11 229.451 116.476L231.284 117.851C233.117 119.043 234.4 120.601 235.133 122.709C236.05 124.725 236.325 126.834 236.325 128.942V129.675C236.325 131.325 236.142 133.066 235.592 134.624C235.133 136.274 235.225 137.832 235.867 139.207C236.6 140.49 237.058 141.957 237.242 143.515C237.608 145.348 237.425 147.181 236.783 148.648L236.6 149.289C236.142 150.389 235.409 151.397 234.492 152.222C233.575 153.139 232.659 153.689 232.109 154.33C231.559 154.881 231.192 155.797 231.467 156.622L231.742 157.905C232.201 159.738 232.201 161.571 231.742 163.221V163.954C231.376 165.329 230.826 166.521 230.276 167.621C229.634 168.812 228.718 169.729 227.526 170.37L226.151 171.287C225.51 171.654 225.051 172.478 225.051 173.303C225.051 174.22 224.685 175.136 224.135 175.686L222.76 177.52C221.843 178.711 220.652 179.719 219.369 180.269C218.086 181.186 216.986 182.102 216.161 183.019C215.244 184.119 214.511 185.402 214.144 186.685C213.778 188.335 212.494 189.252 211.12 189.252H206.17C204.887 189.252 203.695 190.168 203.145 191.268C202.504 192.734 201.862 193.743 201.037 194.659C200.121 195.576 199.571 196.676 199.204 197.959C199.021 199.059 198.104 199.792 197.188 199.425C195.996 198.875 194.805 199.425 194.255 200.342C193.155 202.175 192.055 203.55 190.864 204.741L190.222 205.291C189.03 206.208 187.472 206.941 186.097 206.941C184.448 206.941 183.623 207.674 183.348 208.774C183.073 209.691 182.889 210.882 182.798 211.891C182.614 212.99 182.248 213.999 181.881 214.915L181.423 215.465C180.506 216.84 179.773 218.215 178.856 219.406L178.49 219.957C177.298 221.515 175.74 222.706 173.907 223.164C171.707 223.898 169.782 224.081 167.858 224.081H166.575C165.658 224.081 164.741 224.631 164.1 225.547L163.55 226.464L163 227.564L161.808 229.58C160.892 231.23 159.517 232.33 157.684 232.88C155.851 233.338 153.743 233.522 151.818 233.43L150.351 233.247C149.068 233.247 147.877 232.88 146.685 232.33C145.769 231.964 144.485 232.33 143.935 233.247C143.019 234.53 141.919 235.263 140.727 235.63L137.978 236.546C136.145 237.005 134.128 237.005 132.203 236.546L130.737 236.088C129.82 236.088 128.904 235.63 128.171 235.172C127.254 234.714 126.337 234.53 125.421 234.622L124.229 234.805C122.396 234.988 120.746 234.805 119.097 234.347L116.622 233.796C115.522 233.429 114.514 232.696 113.872 231.688C113.414 230.771 112.406 230.038 111.123 229.855H108.19C106.357 229.58 104.707 228.938 103.607 227.563L99.9407 224.081L98.6575 222.981L96.6411 221.514L95.4495 220.598C94.0747 219.681 92.4249 218.948 90.6834 218.765L85.184 217.848C84.6341 217.848 84.2675 217.665 83.7175 217.573L81.6094 217.115C80.6929 216.931 79.7763 216.198 79.1347 215.281C78.5848 214.365 77.5766 213.998 76.66 214.365C74.8269 215.098 73.3604 215.282 71.8939 215.557H70.6107C68.2276 215.74 66.0279 215.373 63.8281 214.365C61.6284 213.448 60.1619 212.074 58.787 210.332C57.6871 208.774 56.0373 207.582 54.0209 207.216L51.4545 206.666C49.6214 206.299 47.7883 205.566 46.1385 204.466C44.3053 203.183 43.3888 201.991 42.6555 200.525C41.9223 199.15 41.464 197.592 41.3723 195.942V195.209C41.189 193.376 39.9058 191.726 38.1644 191.268C36.0563 190.626 34.4981 189.71 33.1233 188.518C31.8401 187.326 31.1068 185.585 31.1068 183.752L31.2902 179.719C31.2902 178.161 30.8319 176.786 29.732 175.778C28.6321 174.678 27.8989 173.303 27.8989 171.836L27.6239 168.537C27.4406 166.154 26.9823 163.771 26.4324 161.388C25.8824 159.28 26.7073 157.171 28.4488 156.163L29.0904 155.705C30.007 155.063 30.3736 153.872 29.8237 152.772L29.0904 151.855C28.1738 150.939 27.2573 150.297 26.3407 150.022C25.6075 149.839 25.4241 149.106 25.4241 148.647L26.3407 147.547C26.8907 146.906 26.799 145.898 26.3407 145.348C25.6075 144.614 25.2408 143.698 25.1492 142.781L24.9659 136.365C24.9659 135.082 25.1492 133.799 25.5158 132.516C25.8824 131.416 25.5158 130.133 24.4159 129.583L24.4159 129.675ZM115.156 117.576C115.797 116.934 115.706 115.743 115.156 115.285C114.239 114.551 113.597 113.726 113.048 112.81L112.131 111.343C111.489 110.152 110.664 109.144 109.748 108.227L109.565 108.044C108.648 107.31 108.006 106.394 107.456 105.294C106.998 104.377 106.998 103.461 107.456 102.544L108.006 101.628C108.556 100.711 108.923 99.4279 108.923 98.328V97.9614C108.923 97.0449 108.556 96.1282 108.006 95.2117C107.64 94.4784 107.273 93.562 107.09 92.6453V92.0955C106.815 90.9956 107.09 89.804 107.823 88.8875C108.556 87.696 109.106 86.5961 109.381 85.2212V85.038C109.748 84.1215 109.565 82.9299 109.015 82.0134C108.465 81.0969 108.281 80.1802 108.648 79.0804L109.29 77.2472C109.84 75.5975 110.664 74.1309 111.764 72.8477L113.048 71.4728L113.964 70.3729L114.514 69.8229C115.064 69.2729 115.156 68.3564 114.697 67.6232C114.239 66.7067 113.964 65.79 114.147 64.8735L114.331 63.5902C114.606 61.7571 115.247 59.9239 116.439 58.4574L116.805 58.0908C118.18 56.2577 119.922 55.0662 121.938 54.4246L124.413 53.5081C125.513 53.1415 126.246 51.95 126.246 50.7584C126.246 49.2919 126.704 48.0087 127.529 46.8172L127.987 46.3589C128.904 44.8008 130.004 43.2426 130.737 41.5928L131.379 40.4013C131.562 40.1263 131.654 39.7597 131.654 39.4846C131.654 37.9265 130.737 36.5517 129.271 36.46L125.238 36.185C122.946 36.0016 120.655 36.185 118.455 36.185L110.664 37.1015C109.473 37.1015 108.556 38.0181 108.465 39.3012C108.465 40.5843 107.548 41.6843 106.448 42.0509L103.149 42.9674L102.232 43.2424L99.4824 44.1589C97.466 44.8005 95.8161 46.267 94.8996 48.2834L94.1663 49.4749C93.2498 51.4913 91.6916 53.1411 89.7668 54.3327C87.9337 55.5242 87.0171 57.449 86.8338 59.6487V60.5652C86.6505 62.3983 86.1006 64.2315 85.0007 65.5147L84.5424 66.2479C83.8092 67.1644 83.6259 68.356 84.0841 69.3642C84.5424 70.4641 84.8174 71.6556 84.7257 72.8472V77.7049C84.7257 78.988 83.8092 80.088 82.8926 80.4546C81.6094 80.9128 80.7845 81.9211 80.4179 83.2043L79.9596 85.0374C79.593 86.8706 80.2346 88.7037 81.7927 89.8035C83.2592 90.9034 84.1758 92.5532 84.5424 94.5697V96.2194C84.8174 98.0525 85.8256 99.8857 87.4754 100.802C89.1252 101.902 90.4084 103.552 91.1417 105.385L91.6 106.852C92.3332 108.868 93.983 110.06 95.8161 110.243H96.3661C98.0159 110.243 99.4824 111.159 100.399 112.626C101.316 114.092 102.782 115.101 104.432 115.376L106.998 116.109C108.556 116.567 110.023 117.392 111.214 118.584L111.398 118.767C112.314 119.5 113.781 119.409 114.606 118.4L115.247 117.667L115.156 117.576ZM125.604 109.144C126.521 109.694 127.438 109.419 127.804 108.594L128.079 108.136C128.721 106.852 129.546 105.569 130.462 104.469L132.295 101.72C132.57 101.72 132.662 101.536 132.754 101.353L134.953 98.42C135.87 97.5035 136.97 96.8619 138.253 96.8619C139.445 96.8619 140.453 96.2202 141.003 95.0287C141.369 93.7456 141.919 92.554 143.019 91.5458L143.477 90.9958C144.394 90.0793 145.311 89.6209 146.227 89.1627C147.419 88.9792 148.518 88.796 149.618 88.796H152.368C153.468 88.796 154.384 88.3378 154.934 87.4211C155.484 86.5046 156.309 85.863 157.226 85.4047L158.142 85.0381C159.609 84.3964 161.259 83.9382 162.908 83.7549L164.742 83.5715C165.841 83.5715 167.033 83.5715 168.133 84.2132C169.049 84.8548 170.241 84.7632 171.158 84.0298L171.799 83.6631C173.174 82.7467 174.732 82.0134 176.382 81.83H176.565C178.398 81.4634 180.048 81.4634 181.881 81.555H182.798C184.631 81.83 186.189 82.4715 187.381 83.8464L187.656 84.213C188.572 85.1295 190.039 85.8628 191.322 85.8628H192.88C193.338 85.8628 193.797 85.6794 194.072 85.2211C194.347 84.9461 194.805 84.6713 195.263 84.6713H196.18C197.463 84.6713 198.654 85.0379 199.846 85.4045L201.404 86.0462C202.87 86.5044 204.429 86.9627 205.987 87.1461H207.087C207.82 87.1461 208.278 86.6878 208.278 86.0462C208.278 85.1295 208.095 84.2131 207.637 83.4798L206.995 82.0133C206.262 80.8218 205.712 79.5386 205.162 78.347L204.978 77.8888C204.52 76.9723 204.52 76.0557 204.978 75.1391V74.6809C205.162 73.9476 204.795 73.1227 204.062 72.8477H203.329C201.862 72.3895 200.579 71.5646 199.662 70.373L198.746 69.4565C197.829 68.5401 197.279 67.1651 196.913 65.7903C196.454 64.5988 195.446 63.6822 194.163 63.6822H190.313C188.939 63.4988 187.747 62.7655 186.922 61.6657L186.556 61.2075C185.914 60.291 185.364 59.191 184.998 58.0911C184.539 57.1747 183.531 56.6246 182.615 56.8997L181.515 57.2663C179.682 57.9079 177.848 58.1828 176.015 57.9995L174.549 57.8163C172.991 57.8163 171.524 57.1747 170.333 56.2582L169.416 55.6165C168.683 55.0667 167.95 54.7001 167.125 54.3334C166.208 53.9668 165.475 54.15 164.925 54.7917L164.467 55.3417C163.55 56.2582 162.267 56.9914 160.984 57.1748L156.034 57.4498C155.118 57.4498 154.201 57.9081 153.56 58.5497C152.826 59.1914 152.001 59.6496 151.085 59.8328H150.902C149.985 59.8328 149.068 60.4745 148.152 61.116V61.2994C147.235 62.2158 146.044 62.6743 144.852 62.6743L144.486 62.8577C143.386 62.8577 142.286 62.8577 141.186 63.1327H140.086C138.528 63.4077 137.336 64.6908 136.97 66.3407L136.603 68.4487C136.328 69.9153 135.687 71.1984 134.77 72.39C133.853 73.4899 132.754 74.2231 131.379 74.2231H130.004H129.821C128.904 74.4065 127.987 75.4146 128.171 76.5145C128.354 78.0726 128.171 79.4475 127.896 80.8223L127.529 82.3805C127.163 83.7554 126.246 84.8552 125.054 85.3135L124.505 85.5885H124.321C123.771 85.9551 123.405 86.78 123.863 87.4216C124.413 88.3381 124.596 89.2547 124.505 90.1713L124.23 93.1038C124.23 94.2037 123.771 95.2119 123.313 96.1284C122.763 97.0449 122.763 97.9616 123.13 98.8781L124.046 100.895C124.505 101.811 124.596 102.728 124.321 103.828C124.046 104.744 123.863 105.661 123.955 106.577C123.955 107.494 124.505 108.41 125.238 108.777L125.421 108.96L125.604 109.144ZM198.013 175.411C198.93 176.328 200.304 176.694 201.404 175.961L203.237 174.769C204.154 174.128 204.887 173.211 205.254 172.02V171.836L206.17 169.087L206.72 168.17L207.087 167.254L207.453 166.612C207.82 165.879 208.37 165.329 209.287 165.054L209.653 164.871C210.386 164.687 210.845 163.954 210.845 163.221C210.845 162.304 211.303 161.571 211.761 160.929L212.494 160.288L214.328 157.905V157.721C214.877 156.988 215.244 156.163 215.427 155.247C215.611 154.33 215.427 153.414 215.061 152.497L214.878 152.13C214.511 151.214 214.328 150.572 214.236 149.747L213.961 147.181L213.686 144.431C213.686 143.515 214.053 142.598 214.602 141.682C215.244 140.948 215.702 140.032 216.069 139.115V138.749L216.252 138.565C216.436 137.649 215.977 136.732 215.152 136.732C214.236 136.274 213.319 135.541 213.044 134.441L212.769 133.891C212.311 132.241 212.036 130.591 212.036 128.941L212.219 124.359V124.084C212.219 122.525 210.936 121.334 209.47 121.334H209.286C207.453 121.334 205.987 120.784 204.704 119.501L203.97 118.584L202.137 116.476L199.754 113.726C198.838 112.443 197.921 111.343 196.729 110.244C195.813 109.327 194.438 108.41 193.063 108.227L191.23 107.952C190.314 107.769 189.122 107.31 188.114 106.669C187.381 106.119 186.281 106.302 185.547 107.036L184.356 108.319L183.806 108.685C183.164 108.869 182.523 108.502 182.248 107.769C181.881 106.669 181.881 105.386 182.431 104.286V103.736C182.431 103.094 181.881 102.636 181.331 102.819H179.865C178.215 102.819 176.565 102.636 175.007 101.903L174.09 101.536C173.174 101.078 172.074 100.803 171.066 100.803C170.149 100.803 169.233 100.986 168.316 101.536L167.949 101.811C166.85 102.545 165.566 102.911 164.283 103.003H161.258C159.884 103.003 158.509 103.461 157.592 104.194C156.401 104.928 155.118 105.386 153.743 105.661L151.268 106.027C150.168 106.302 148.977 106.761 147.968 107.586C147.052 108.502 145.769 109.052 144.577 109.419L144.119 109.602C142.652 110.06 141.369 110.977 140.453 112.352L139.353 113.451C138.711 114.368 138.711 115.468 139.353 116.384C139.903 117.301 141.002 117.576 142.102 117.301L143.477 116.751C144.21 116.476 145.035 116.751 145.677 117.118C146.227 117.576 147.052 117.851 147.877 117.759L150.168 117.484C151.451 117.484 152.734 117.484 154.018 117.851C155.393 118.309 156.584 118.768 157.684 119.684C158.784 120.601 159.975 120.967 161.35 121.151C162.725 121.334 164.1 121.609 165.383 122.067L166.3 122.25C167.216 122.525 167.949 123.167 168.499 124.083C168.958 124.817 169.416 125.917 169.416 126.833V127.108C169.416 128.208 170.332 128.941 171.249 128.941H171.799C173.265 128.941 174.824 129.124 176.382 129.583L177.023 129.858C177.94 130.225 178.856 130.774 179.498 131.691C180.231 132.608 180.69 133.524 180.965 134.441L181.24 135.724C181.514 137.099 181.606 138.474 181.606 139.94V140.398C181.606 141.315 182.248 142.231 183.256 142.598C184.173 142.781 185.272 143.148 186.281 143.698L186.739 143.881C187.93 144.614 189.122 145.531 190.038 146.631L190.497 147.273C191.688 148.647 192.33 150.389 192.33 152.13V152.772C192.33 154.147 192.055 155.522 191.597 156.805C191.23 157.905 191.597 159.188 192.788 159.554L193.43 160.013C194.805 160.563 195.996 161.571 196.913 162.762C197.829 164.137 198.196 165.695 198.196 167.345V170.095C198.013 171.011 197.738 171.745 197.279 172.386C196.821 173.028 196.821 173.944 197.279 174.586L197.829 175.503L198.013 175.411ZM139.353 128.483H139.17C138.803 128.483 138.62 128.941 138.711 129.4L139.078 131.233C139.445 132.699 139.628 134.166 139.811 135.632C139.994 137.099 140.728 138.382 141.828 139.298H142.194C143.569 140.398 144.394 142.048 144.486 143.698V148.281C144.302 149.197 144.486 150.114 145.036 150.847L145.494 151.305C146.41 152.405 146.777 153.688 146.869 154.972L147.144 160.013C147.144 161.204 146.41 162.212 145.311 162.396L144.394 162.579C143.752 162.579 143.477 163.312 143.477 163.954C143.477 164.687 143.752 165.512 144.027 166.245V166.429C144.302 167.345 144.394 168.262 144.302 169.178L143.936 171.653C143.569 173.486 143.019 175.136 142.103 176.786L141.461 177.886C141.003 178.802 140.361 179.352 139.628 179.719C138.711 180.086 138.07 180.819 137.795 181.735L137.061 185.035C136.603 186.868 135.778 188.701 134.678 190.534H134.495C133.395 192.001 132.02 193.284 130.371 194.201L129.271 194.934L126.521 196.309C125.604 196.675 125.055 197.5 124.871 198.508L124.413 201.533C124.138 203.366 123.496 204.924 122.213 206.116L121.022 207.491L119.647 208.866L118.272 210.332C117.172 211.615 115.522 212.165 113.689 211.89L110.39 211.249L107.365 210.882H106.54C106.173 211.249 106.082 211.799 106.357 212.349C106.998 213.449 108.006 214.182 109.106 214.182L111.123 214.548C112.039 214.548 113.139 215.007 114.056 215.465C114.972 216.107 115.889 216.565 116.989 216.84H117.172C118.364 217.298 119.647 217.39 120.838 217.298L122.213 217.115C123.771 216.932 125.238 217.115 126.521 217.665L127.621 218.032C128.079 218.215 128.812 218.032 129.271 217.573C129.821 217.023 130.371 216.657 131.104 216.382L131.837 216.199C133.029 215.832 134.22 215.649 135.503 215.649H136.237C137.336 215.649 138.345 215.832 139.261 216.382L139.628 216.565C140.269 216.84 141.003 216.565 141.461 216.015C141.736 215.374 142.378 214.732 143.019 214.182L145.311 212.624L146.777 211.708L147.51 211.249C148.427 210.608 149.71 210.333 150.81 210.333L154.11 210.058C155.393 209.874 156.493 208.958 156.859 207.675C157.226 206.3 157.776 204.925 158.692 203.734C159.609 202.542 160.526 201.534 161.442 200.617C162.634 199.701 163.825 199.242 165.108 199.151H165.842C167.308 198.876 168.408 197.501 168.316 196.034V195.851V189.893C168.5 188.977 168.866 187.785 169.416 186.869L171.249 184.119L171.983 183.202C172.532 182.744 172.899 182.103 173.541 181.369L174.457 180.178C175.007 179.261 175.007 178.07 174.274 177.245C173.357 176.328 172.899 175.045 172.716 173.762V173.395C172.532 171.929 172.532 170.371 172.991 168.812V168.354C173.449 167.163 174.091 165.971 174.824 164.871C175.557 163.955 175.465 162.672 174.549 161.938L172.991 160.563C171.708 159.464 170.974 157.814 170.791 156.164L170.608 154.331C170.608 153.781 170.608 153.139 170.424 152.498L170.241 151.122C170.058 149.564 169.141 148.372 167.858 147.456L167.216 147.273C166.3 146.723 165.383 145.898 164.65 144.798C163.917 143.881 163.55 142.598 163.275 141.315L163 139.757C163 139.207 162.634 138.84 162.084 138.565L160.617 138.107L157.684 137.19C156.768 137.007 155.851 136.274 155.209 135.632H155.026C154.476 134.899 153.56 134.899 153.01 135.449L152.093 136.365C151.91 136.64 151.726 136.732 151.452 136.64C150.902 136.64 150.535 136.182 150.718 135.724C150.902 134.258 150.352 132.791 149.16 131.874L147.969 130.958L145.219 129.125C144.486 128.85 143.386 129.125 143.019 130.041L142.652 130.591C142.652 130.774 142.378 130.866 142.286 130.958C141.919 130.958 141.369 130.958 141.369 130.5L141.094 130.041C140.819 129.491 140.178 129.125 139.628 128.941L139.353 128.483ZM128.354 137.649L127.896 137.19C127.438 136.824 126.979 136.915 126.521 137.374C125.879 138.474 125.329 139.665 125.054 140.857V141.04C124.78 142.231 123.68 143.056 122.58 142.873H121.663H121.48C120.197 142.873 119.188 143.973 119.188 145.256C119.188 146.906 118.639 148.556 117.63 149.839L117.08 150.389C116.164 151.58 114.789 152.405 113.414 152.864L112.681 153.047C111.764 153.322 111.031 153.964 110.848 155.063C110.848 155.98 110.298 156.896 109.565 157.63L108.648 158.363C107.548 159.554 105.898 160.196 104.249 160.379L99.6657 160.838C98.1992 160.838 96.916 161.754 95.9995 163.129C95.0829 164.504 93.7081 165.42 92.3332 165.604L90.3168 165.787C88.8503 165.97 87.2921 165.97 85.734 165.604L84.8174 165.421L82.3427 164.779C81.4261 164.504 80.6929 164.779 80.1429 165.421L79.2264 166.612C78.0349 167.987 76.2934 168.628 74.6436 168.445L68.6859 167.712C67.7694 167.712 67.0361 167.254 66.2112 166.795C65.2947 166.245 64.653 165.604 64.0115 164.962L61.72 162.213C61.4451 162.029 60.9868 161.938 60.5285 162.029L59.2453 162.579L54.1126 163.863C53.196 164.138 52.0045 163.863 51.0879 163.312C50.1713 162.579 49.0715 162.396 47.9716 162.396H46.7801C45.6802 162.671 44.9469 163.863 45.3136 164.962L45.6802 166.796C45.9552 167.712 45.8635 168.812 45.4052 169.728C44.947 170.645 45.0386 171.562 45.6802 172.478L46.2301 173.211C46.9634 174.311 48.0633 175.228 48.9798 176.144C49.8964 177.061 50.8129 177.978 51.5462 179.169L52.921 181.644C53.6543 182.927 54.7542 183.66 56.2207 183.66C57.5955 183.66 58.9704 184.119 60.0702 185.035L62.8199 187.602C63.5532 188.243 64.653 188.335 65.3863 187.785L65.8446 187.602C66.3945 187.602 66.7611 187.968 66.7611 188.518V188.976C66.7611 190.168 67.6777 191.268 68.8692 191.726L72.9937 192.643C74.4602 193.101 75.9267 193.559 77.3016 194.476H78.0348C78.7681 194.476 79.4097 193.834 79.318 193.009V189.801C79.318 188.885 79.6847 187.968 80.4179 187.602L80.8762 187.418C81.3344 187.602 81.7927 187.968 81.6094 188.335V189.893C81.6094 191.084 81.9761 192.184 82.801 193.009C83.7175 193.925 84.9091 194.109 85.9173 193.742C87.0171 193.284 88.117 193.192 89.3086 193.284L92.6998 193.467C94.3497 193.65 95.9078 193.467 97.2826 192.826C98.9325 192.276 100.307 191.542 101.59 190.534L102.14 190.168L104.89 187.693C105.807 186.776 106.998 186.318 108.098 186.318H111.764C113.597 186.135 115.247 184.485 115.431 182.652L115.797 180.819C115.797 179.627 116.347 178.527 117.172 177.611C118.089 176.694 119.005 176.144 119.922 175.777L121.022 175.319C122.58 174.678 123.771 173.303 124.321 171.653L124.871 169.453C125.329 167.62 126.246 165.787 127.621 164.595L127.804 164.412C128.904 163.496 129.087 161.662 128.354 160.379L128.079 159.738C127.438 158.821 127.346 157.446 127.804 156.255C128.262 154.972 128.721 153.872 129.454 152.772L130.371 151.489C130.737 150.755 130.737 149.655 130.187 149.014C129.637 148.281 129.271 147.364 129.271 146.447L129.087 145.164V142.048C129.271 141.131 129.087 139.94 128.812 139.023L128.446 137.924L128.354 137.649ZM115.247 130.683V130.408C115.247 129.491 114.697 128.941 113.964 128.941H111.581C110.664 129.125 109.748 129.125 109.015 128.941H104.89C102.782 128.941 100.766 128.575 98.7492 128.025L96.5494 127.475L94.7163 126.925L90.5917 125.55C88.392 124.909 86.7422 123.442 85.734 121.426L85.2757 120.509C84.6341 119.134 83.2592 118.401 81.8844 118.676C80.3262 118.676 78.7681 118.676 77.3016 117.943L76.2017 117.484C74.0936 116.568 72.5355 114.735 72.5355 112.26L72.1688 109.785C71.8939 108.502 71.069 107.311 69.9691 106.852C68.6859 106.302 67.4944 105.569 66.3028 104.744L65.8446 104.469C64.4697 103.369 63.2782 101.903 62.6366 100.161L62.4533 99.6113C61.995 98.1448 61.9033 96.5866 62.27 95.0285L62.4533 94.4785C62.8199 93.287 62.9116 92.0954 62.9116 90.8122C62.9116 89.7123 62.4533 88.6125 61.6284 87.7875L60.3452 86.5961C58.8787 85.4047 57.9621 83.6632 57.8705 81.7384C57.6871 79.722 57.6871 77.7972 58.0538 75.8724V75.5974V75.3224C58.0538 74.2225 57.1372 73.4893 56.2207 73.4893H55.9457C54.7542 73.4893 53.7459 74.2225 53.196 75.3224C52.7377 76.6055 52.0045 77.6138 51.1796 78.622L50.8129 79.0803L48.9798 80.9134L48.0632 81.8299C47.1467 82.7463 46.5967 84.1213 46.4134 85.4961C46.2301 86.871 45.8635 88.2458 45.3136 89.529L45.1302 89.9872C44.672 91.0871 43.9387 92.0953 43.0222 92.7369C42.1056 93.4702 41.464 94.57 41.464 95.6699L41.2807 99.8861C41.2807 101.719 41.0057 103.552 40.3641 105.385L40.1808 106.119C39.7225 107.31 40.1808 108.593 41.2807 109.143L45.1302 110.793L45.4969 110.976C45.7718 110.976 45.8635 111.16 45.9551 111.435C46.2301 111.801 45.9551 112.351 45.6802 112.351L44.7636 112.809C44.2137 112.993 43.8471 113.543 43.6637 114.184L43.4804 115.101V115.284L42.5639 120.417C42.3806 121.15 42.3806 121.975 42.3806 122.8C42.3806 123.533 42.8388 124.175 43.4804 124.45L45.4969 125.366C46.4134 125.916 47.5133 126.558 48.2466 127.199L49.1631 127.933C49.4381 128.299 49.8964 128.666 50.263 128.849L50.6296 129.216C51.2712 129.766 51.7295 130.499 51.9128 131.324L52.8294 135.448C52.8294 136.548 53.7459 137.465 54.6625 137.74L56.129 138.198C56.129 138.198 56.4039 138.198 56.5873 138.381L58.4204 138.932C59.8869 139.39 61.1701 140.215 62.2699 141.315C63.3698 142.231 64.4697 143.423 65.3863 144.706L65.7529 145.072C66.4861 145.989 67.586 146.447 68.6859 146.172C69.7857 145.897 70.9773 145.806 72.1688 145.806H73.5437C74.4602 145.806 75.6518 146.081 76.66 146.722C77.5765 147.272 78.7681 147.639 79.8679 148.097H80.1429C81.2428 148.555 82.4343 148.372 83.3509 147.73C84.2675 146.997 85.459 146.631 86.6505 146.631L90.9584 146.906C91.8749 146.906 92.7915 146.722 93.2498 145.989H93.4331L94.9912 144.522L95.4495 144.064C96.1828 143.148 97.2826 142.781 98.3825 142.689H102.507C103.607 142.689 104.615 141.773 105.073 140.856C105.532 139.94 106.448 139.206 107.548 139.023L109.381 138.656C110.115 138.656 110.756 138.015 111.031 137.19C111.306 136.273 111.764 135.54 112.406 134.99L113.872 133.524C114.789 132.607 115.247 131.691 115.431 130.591L115.247 130.683Z" fill="black"/>
</svg>