<svg width="256" height="256" title="CodeIgniter" viewBox="0 0 256 256" fill="none" xmlns="http://www.w3.org/2000/svg" id="codeigniter">
<style>
#codeigniter {
    rect {fill: #15191C}

    @media (prefers-color-scheme: light) {
        rect {fill: #F4F2ED}
    }
}
</style>
<rect width="256" height="256" rx="40" fill="#15191C"/>
<path d="M104.817 205.989C86.2649 201.721 69.8368 189.655 64.7111 170.703C59.5818 151.735 66.5617 132.613 77.9629 117.409C83.6635 109.813 90.3309 102.996 97.2663 96.5241C103.722 90.4983 110.835 84.9612 116.683 78.3293C122.715 71.4876 130.253 59.2499 124.531 50C134.921 57.7567 143.3 70.7188 141.899 84.0709C140.78 94.7245 132.781 105.572 140.616 115.632C145.49 121.886 155.356 120.575 159 114.535L158.732 114.823C159.356 113.83 159.813 112.742 160.084 111.602C160.103 110.676 159.939 109.642 159.438 108.427L160.392 108.947C178.659 118.411 193.405 134.943 192.992 156.423C192.493 182.533 168.15 200.805 144.59 206C155.739 201.612 165.679 192.919 167.033 180.419C168.282 168.887 162.096 158.944 153.718 151.59C145.754 144.593 136.25 140.082 127.588 134.113C122.595 130.673 115.017 123.766 117.683 116.762C114.214 119.747 111.475 123.922 110.394 128.379C108.236 137.271 113.722 144.197 119.392 150.329C125.127 156.52 124.684 167.148 115.009 169.264C110.869 170.164 106.484 168.506 103.981 165.093C101.288 161.422 101.881 157.668 102.968 153.564C93.9254 159.96 86.6554 169.693 86.6808 181.156C86.7017 191.669 95.4584 201.944 104.817 205.989Z" fill="#EE4323"/>
</svg>