<svg width="256" height="256" title="CoffeeScript" viewBox="0 0 256 256" fill="none" xmlns="http://www.w3.org/2000/svg" id="coffeescript">
<style>
#coffeescript {
    rect {fill: #15191C}
    path.coffeescript {fill: white}

    @media (prefers-color-scheme: light) {
        rect {fill: #F4F2ED}
        path.coffeescript {fill: black}
    }
}
</style>
<rect width="256" height="256" rx="40" fill="#15191C"/>
<path d="M75.9018 96.3393C90.7447 100.123 109.742 102.014 132.592 102.014C155.97 102.014 174.515 100.123 189.319 96.3393C205.106 92.6696 212.698 87.7135 212.698 83.0223C212.698 79.6931 209.299 76.4396 203.143 73.9426C204.54 74.8884 205.636 76.4396 205.636 78.142C205.636 82.9088 198.459 86.8056 184.108 90.0592C170.775 92.9722 153.817 95.053 133.12 95.053C113.141 95.053 95.3902 92.9722 82.549 90.2483C68.7636 86.8434 61.5499 83.1737 61.5499 78.3311C61.5499 76.3261 62.4563 74.6236 65.2134 72.6564C56.6023 75.9856 51.9191 78.823 51.9191 83.0602C52.41 87.8649 60.1148 92.6696 75.9018 96.3393ZM109.1 81.0551C125.189 79.6553 129.873 69.2892 148.719 67.5868C157.972 66.868 163.864 68.7218 164.468 71.9754C165.035 75.0398 160.427 77.0827 154.837 77.4989C147.133 78.2933 143.96 75.5316 143.318 72.8834C137.577 73.5265 136.671 75.9477 136.973 77.6124C137.615 80.8659 144.527 84.1573 156.461 83.0223C169.907 81.9631 174.439 76.6666 173.306 71.3322C171.908 64.3711 161.56 58.5449 143.016 60.323C119.222 62.4416 119.373 73.5265 103.17 74.8506C96.5232 75.4937 92.8219 73.9048 92.1798 71.2944C91.7644 68.6462 95.0124 67.3977 98.8271 67.095C102.377 66.7167 106.683 67.3598 108.722 68.4948C110.233 67.7003 110.724 66.9058 110.573 65.9979C109.855 63.5388 104.945 62.4416 98.8271 62.8956C86.779 63.955 86.779 69.3649 87.1945 71.7484C88.3275 77.9906 97.6185 82.1144 109.1 81.0551ZM189.962 108.256C175.081 111.737 156.121 114.007 133.233 114.007C109.893 114.007 90.858 111.586 76.0529 108.332C62.7585 104.927 55.6581 101.144 53.1654 97.2851C54.4495 105.986 56.6401 114.423 59.4727 122.443C56.0735 124.562 53.0144 127.21 50.2573 130.767C45.1963 136.933 42.6281 144.765 43.0435 152.747C43.5723 160.086 47.2358 166.859 53.1277 171.323C59.2839 176.127 65.9311 177.565 73.5224 176.127C76.4306 175.635 79.6786 174.16 82.6623 173.176C76.4306 173.176 71.1808 171.171 65.9688 167.01C60.2281 163.037 56.4134 156.795 55.3937 149.871C53.9963 143.213 55.3937 137.009 59.1706 131.561C60.0392 130.502 60.9456 129.556 61.9276 128.723C64.0426 133.907 66.3087 139.014 68.8769 143.743C74.6177 152.482 80.3585 160.049 86.0992 168.296C88.5919 173.101 90.1782 177.868 91.3112 182.634C95.1636 187.969 100.753 191.714 107.099 193.265C115.256 196.103 123.754 197.389 132.44 196.898H133.347C142.185 197.276 151.061 196.027 159.482 193.228C165.563 191.412 170.927 187.704 174.779 182.634H175.269C176.176 177.905 177.725 173.139 179.991 168.296C185.656 160.01 191.472 152.482 197.137 143.743C204.956 129.291 210.318 113.591 213 97.3608C209.903 101.636 202.765 105.344 189.962 108.256Z" class="coffeescript" fill="white"/>
</svg>