<svg width="256" height="256" title="Crystal" viewBox="0 0 256 256" fill="none" xmlns="http://www.w3.org/2000/svg">
<rect width="256" height="256" rx="40" fill="white"/>
<path d="M212.898 150.608L190.491 67.0901C190.491 66.8445 190.245 66.5988 189.752 66.3532L105.788 44C105.542 44 105.05 44 104.803 44.2456L43.2462 105.41C43 105.656 43 105.901 43 106.392L65.4068 189.91C65.4068 190.156 65.6531 190.401 66.1455 190.647L150.11 213C150.356 213 150.848 213 151.095 212.754L212.652 151.59C212.898 151.099 213.144 150.853 212.898 150.608ZM130.658 85.0218L108.497 167.065C108.497 167.311 108.251 167.311 108.004 167.065L47.9246 107.129C47.6784 106.884 47.9246 106.884 47.9246 106.638L130.411 84.5305C130.411 84.7762 130.658 84.7762 130.658 85.0218Z" fill="black"/>
</svg>