<svg width="256" height="256" title="CSS" viewBox="0 0 256 256" fill="none" xmlns="http://www.w3.org/2000/svg">
<rect width="256" height="256" rx="40" fill="#663399"/>
<path d="M106.456 231.979C92.4677 231.966 83.8368 224.059 84.0023 209.51V172.701C84.0023 165.326 86.1541 159.717 90.4576 155.878C98.1869 148.405 116.119 147.95 123.69 155.992C128.355 160.121 130.115 168.557 129.696 176.428H113.641C113.763 173.335 113.6 168.651 111.788 166.887C109.433 163.689 103.216 164.065 101.571 167.394C100.561 169.199 100.055 171.873 100.055 175.409V207.363C100.055 214.063 102.375 217.451 107.016 217.526C109.185 217.526 110.834 216.734 111.955 215.154C113.521 213.278 113.765 209.125 113.639 206.122H129.694C130.792 221.439 121.784 232.169 106.454 231.979H106.456ZM157.427 231.979C141.927 232.193 134.993 221.124 135.422 206.122H150.578C150.158 212.662 152.396 218.619 157.763 218.203C160.156 218.203 161.842 217.451 162.815 215.945C164.667 213.193 165.013 205.245 162.367 202.17C160.518 199.208 153.866 196.593 150.354 194.831C145.338 192.423 141.727 189.563 139.519 186.249C134.538 178.896 134.999 162.755 141.988 156.215C148.779 148.144 166.513 147.773 173.311 156.047C177.503 160.311 179.335 168.703 178.98 176.426H164.383C164.508 173.252 164.209 168.13 162.981 166.264C162.121 164.683 160.492 163.892 158.098 163.892C153.832 163.892 151.699 166.452 151.699 171.569C151.745 177.003 153.856 179.233 158.773 181.504C165.141 183.987 173.239 188.228 176.174 193.36C184.929 208.998 178.923 232.886 157.425 231.975L157.427 231.979ZM206.377 231.979C190.877 232.193 183.943 221.124 184.372 206.122H199.528C199.107 212.662 201.346 218.619 206.713 218.203C209.106 218.203 210.792 217.451 211.765 215.945C213.616 213.193 213.963 205.245 211.317 202.17C209.468 199.208 202.816 196.593 199.303 194.831C194.288 192.423 190.677 189.563 188.469 186.249C183.488 178.896 183.949 162.755 190.938 156.215C197.729 148.144 215.463 147.773 222.26 156.047C226.453 160.311 228.284 168.703 227.929 176.426H213.333C213.458 173.252 213.159 168.13 211.931 166.264C211.071 164.683 209.441 163.892 207.048 163.892C202.782 163.892 200.649 166.452 200.649 171.569C200.695 177.003 202.806 179.233 207.723 181.504C214.091 183.987 222.189 188.228 225.124 193.36C233.879 208.998 227.873 232.886 206.375 231.975L206.377 231.979Z" fill="white"/>
</svg>