<svg width="256" height="256" title="Cypress" viewBox="0 0 256 256" fill="none" xmlns="http://www.w3.org/2000/svg" id="cypress">
<style>
#cypress {
    rect {fill: #15191C}
    path.switch {fill: #F4F2ED}

    @media (prefers-color-scheme: light) {
        rect {fill: #F4F2ED}
        path.switch {fill: #15191C}
    }
}
</style>
<rect width="256" height="256" rx="40" fill="#15191C"/>
<path d="M53.9143 149.598C51.9832 142.565 51 135.261 51 127.903C51 94.3177 72.0933 63.6083 103.492 51.4982L107.609 62.1526C80.5815 72.5791 62.4288 99.0003 62.4288 127.903C62.4288 134.243 63.2715 140.522 64.9305 146.573L53.9143 149.598Z" fill="#69D3A7"/>
<path d="M195.862 95.4578C183.643 72.0004 159.591 57.4261 133.109 57.4261C123.725 57.4261 114.605 59.2326 106.02 62.784L101.64 52.2348C111.62 48.1046 122.206 46 133.109 46C163.875 46 191.806 62.9244 206 90.1787L195.862 95.4578Z" fill="url(#linearGradient1)"/>
<path d="M108.592 111.005C115.219 111.005 120.618 114.539 123.392 120.704L123.611 121.186L134.741 117.407L134.504 116.837C130.194 106.34 120.266 99.8158 108.592 99.8158C100.384 99.8158 93.7134 102.447 88.2009 107.848C82.7233 113.215 79.9496 119.967 79.9496 127.921C79.9496 135.804 82.7233 142.521 88.2009 147.888C93.7134 153.29 100.384 155.921 108.592 155.921C120.266 155.921 130.194 149.396 134.504 138.909L134.741 138.339L123.593 134.55L123.383 135.05C120.898 141.11 115.368 144.731 108.592 144.731C103.975 144.731 100.077 143.118 96.9873 139.943C93.8625 136.725 92.2825 132.683 92.2825 127.93C92.2825 123.142 93.8273 119.178 96.9873 115.811C100.068 112.619 103.975 111.005 108.592 111.005Z" class="switch" fill="#F4F2ED"/>
<path d="M178.305 100.851L162.444 140.987L146.477 100.851H133.416L155.808 155.631L139.876 194.268L151.296 196.539L190.647 100.851H178.305Z" class="switch" fill="#F4F2ED"/>
<path d="M141.92 189.287L139.137 196.022C138.584 197.355 137.32 198.258 135.898 198.319C134.959 198.354 134.011 198.381 133.054 198.381C100.304 198.363 71.3278 175.274 64.1474 143.46L52.9995 145.976C57.0285 163.822 67.1407 180.018 81.475 191.594C95.9762 203.3 114.243 209.763 132.931 209.798C132.957 209.798 133.098 209.798 133.098 209.798C134.195 209.798 135.283 209.772 136.372 209.728C142.235 209.482 147.476 205.808 149.714 200.363L153.348 191.558L141.92 189.287Z" fill="url(#linearGradient2)"/>
<linearGradient id="linearGradient1" x1="124.565" y1="40.7127" x2="186.893" y2="107.33" gradientUnits="userSpaceOnUse">
<stop offset="0.0939" stop-color="#58D09E"/>
<stop offset="0.9883" stop-color="#58D09E" stop-opacity="0"/>
</linearGradient>
<linearGradient id="linearGradient2" x1="50.125" y1="165.168" x2="169.201" y2="196.862" gradientUnits="userSpaceOnUse">
<stop offset="0.0774" stop-color="#58D09E"/>
<stop offset="0.7617" stop-color="#58D09E" stop-opacity="0"/>
</linearGradient>
</svg>