<svg width="256" height="256" title="D3.js" viewBox="0 0 256 256" fill="none" xmlns="http://www.w3.org/2000/svg" id="d3js">
<style>
#d3js {
    rect {fill: #15191C}

    @media (prefers-color-scheme: light) {
        rect {fill: #F4F2ED}
    }
}
</style>
<rect width="256" height="256" rx="40" fill="#15191C"/>
<path d="M56 60H67.7056C85.9321 60 103.412 67.2169 116.3 80.0632C129.188 92.9094 136.429 110.333 136.429 128.5C136.429 146.667 129.188 164.091 116.3 176.937C103.412 189.783 85.9321 197 67.7056 197H56V166.89H67.7056C77.9204 166.89 87.7169 162.845 94.9399 155.646C102.163 148.446 106.221 138.682 106.221 128.5C106.221 118.318 102.163 108.554 94.9399 101.354C87.7169 94.1545 77.9204 90.1099 67.7056 90.1099H56V60ZM110.753 60H159.086C167.05 59.9999 174.849 62.2614 181.57 66.5195C188.291 70.7777 193.656 76.8564 197.036 84.0437C200.417 91.2311 201.673 99.2297 200.658 107.103C199.643 114.976 196.398 122.398 191.304 128.5C196.398 134.602 199.643 142.024 200.658 149.897C201.673 157.77 200.417 165.769 197.036 172.956C193.656 180.144 188.291 186.222 181.57 190.48C174.849 194.739 167.05 197 159.086 197H110.753C122.646 189.574 132.403 179.2 139.068 166.89H159.085C160.622 166.89 162.144 166.588 163.564 166.002C164.984 165.416 166.275 164.556 167.362 163.473C168.449 162.389 169.311 161.103 169.899 159.688C170.487 158.272 170.79 156.755 170.79 155.223C170.79 153.69 170.487 152.173 169.899 150.758C169.311 149.342 168.449 148.056 167.362 146.972C166.275 145.889 164.984 145.029 163.564 144.443C162.144 143.857 160.622 143.555 159.085 143.555H147.379C149.271 133.607 149.271 123.393 147.379 113.445H159.085C160.622 113.445 162.144 113.143 163.564 112.557C164.984 111.971 166.275 111.111 167.362 110.028C168.449 108.944 169.311 107.658 169.899 106.242C170.487 104.827 170.79 103.31 170.79 101.777C170.79 100.245 170.487 98.7281 169.899 97.3125C169.311 95.8969 168.449 94.6107 167.362 93.5272C166.275 92.4438 164.984 91.5844 163.564 90.998C162.144 90.4117 160.622 90.1099 159.085 90.1099H139.068C132.403 77.8003 122.646 67.4255 110.753 60Z" fill="url(#linearGradient)"/>
<linearGradient id="linearGradient" x1="128.5" y1="60" x2="128.5" y2="197" gradientUnits="userSpaceOnUse">
<stop stop-color="#B84E51"/>
<stop offset="0.5" stop-color="#F9A03C"/>
<stop offset="1" stop-color="#F8984F"/>
</linearGradient>
</svg>