<svg width="256" height="256" title="daisyUI" viewBox="0 0 256 256" fill="none" xmlns="http://www.w3.org/2000/svg" id="daisyui">
<style>
#daisyui {
    rect {fill: #15191C}

    @media (prefers-color-scheme: light) {
        rect {fill: #F4F2ED}
    }
}
</style>
<rect width="256" height="256" rx="40" fill="#15191C"/>
<path opacity="0.7" d="M98.6371 56.4048C96.4037 59.6942 94.6288 63.5104 93.4592 67.8533C90.097 80.3416 80.3421 90.0965 67.8536 93.4592C63.5106 94.6283 59.6943 96.4033 56.4048 98.637C51.7427 74.2507 74.2508 51.7426 98.6371 56.4048Z" fill="#FFD819"/>
<path opacity="0.7" d="M56.4054 98.6367C57.152 102.542 58.5954 106.496 60.8394 110.394C67.2924 121.602 67.2924 135.397 60.8394 146.606C58.5953 150.503 57.1519 154.457 56.4053 158.362C35.8649 144.415 35.8649 112.584 56.4054 98.6367Z" fill="#FFE029"/>
<path opacity="0.7" d="M98.6371 200.594C96.4037 197.305 94.6288 193.488 93.4592 189.145C90.097 176.657 80.3421 166.902 67.8536 163.54C63.5106 162.37 59.6943 160.595 56.4048 158.362C51.7427 182.748 74.2508 205.256 98.6371 200.594Z" fill="#FFC141"/>
<path opacity="0.7" d="M158.363 200.594C154.458 199.847 150.504 198.404 146.606 196.16C135.398 189.707 121.602 189.707 110.394 196.16C106.496 198.404 102.543 199.847 98.6375 200.594C112.584 221.134 144.416 221.134 158.363 200.594Z" fill="#FFB655"/>
<path opacity="0.7" d="M200.595 158.362C197.306 160.596 193.49 162.37 189.147 163.54C176.658 166.902 166.904 176.657 163.541 189.146C162.372 193.488 160.597 197.305 158.363 200.594C182.749 205.256 205.257 182.748 200.595 158.362Z" fill="#FFB35B"/>
<path opacity="0.7" d="M200.595 98.637C199.848 102.542 198.405 106.496 196.161 110.394C189.708 121.602 189.708 135.397 196.161 146.606C198.405 150.503 199.848 154.457 200.595 158.362C221.135 144.415 221.135 112.584 200.595 98.637Z" fill="#FFB656"/>
<path opacity="0.7" d="M158.363 56.4047C160.597 59.6941 162.372 63.5103 163.541 67.8533C166.904 80.3416 176.658 90.0965 189.147 93.4592C193.49 94.6283 197.306 96.4033 200.595 98.6366C205.257 74.2506 182.749 51.7428 158.363 56.4047Z" fill="#FFC042"/>
<path opacity="0.7" d="M98.6375 56.405C102.543 57.1516 106.496 58.595 110.394 60.8391C121.602 67.2921 135.398 67.2921 146.606 60.8391C150.504 58.5951 154.457 57.1517 158.362 56.4051C144.415 35.865 112.584 35.865 98.6375 56.405Z" fill="#FFCE2A"/>
<path fill-rule="evenodd" clip-rule="evenodd" d="M93.4604 67.8531C94.6295 63.5102 96.4045 59.6941 98.6382 56.4046C102.543 57.1513 106.497 58.5947 110.394 60.8387C121.603 67.2917 135.398 67.2917 146.606 60.8387C150.504 58.5946 154.458 57.1511 158.363 56.4046C160.597 59.694 162.372 63.5102 163.541 67.8531C166.904 80.3416 176.659 90.0965 189.147 93.4588C193.49 94.6283 197.306 96.4029 200.595 98.6366C199.849 102.542 198.405 106.496 196.161 110.393C189.708 121.602 189.708 135.397 196.161 146.606C198.405 150.503 199.849 154.457 200.595 158.362C197.306 160.596 193.49 162.37 189.147 163.54C176.659 166.902 166.904 176.657 163.541 189.145C162.372 193.488 160.597 197.305 158.363 200.594C154.458 199.847 150.504 198.404 146.606 196.16C135.398 189.707 121.603 189.707 110.394 196.16C106.497 198.404 102.543 199.847 98.6382 200.594C96.4045 197.305 94.6295 193.488 93.4604 189.145C90.0977 176.657 80.3428 166.902 67.8545 163.54C63.5115 162.37 59.6952 160.595 56.4058 158.362C57.1524 154.457 58.5958 150.503 60.8398 146.606C67.2928 135.397 67.2928 121.602 60.8398 110.393C58.5958 106.496 57.1524 102.542 56.4058 98.637C59.6952 96.4033 63.5114 94.6283 67.8545 93.4588C80.3428 90.0965 90.0977 80.3416 93.4604 67.8531Z" fill="url(#radialGradient)"/>
<path d="M167.561 147.31L164.508 142.023C163.665 140.563 161.798 140.063 160.338 140.906L160.338 140.906C158.878 141.749 158.378 143.615 159.221 145.076L162.274 150.363C163.117 151.823 164.984 152.323 166.444 151.48L166.444 151.48C167.904 150.637 168.404 148.77 167.561 147.31Z" fill="#FFA17A"/>
<path d="M159.93 147.31L156.878 142.023C156.035 140.563 154.168 140.063 152.708 140.906L152.708 140.906C151.248 141.749 150.747 143.616 151.59 145.076L154.643 150.363C155.486 151.823 157.353 152.323 158.813 151.48L158.813 151.48C160.273 150.637 160.773 148.77 159.93 147.31Z" fill="#FFA17A"/>
<path d="M105.746 147.31L102.694 142.023C101.851 140.563 99.9838 140.063 98.5237 140.906L98.5237 140.906C97.0637 141.749 96.5634 143.615 97.4064 145.076L100.459 150.363C101.302 151.823 103.169 152.323 104.629 151.48L104.629 151.48C106.089 150.637 106.589 148.77 105.746 147.31Z" fill="#FFAB89"/>
<path d="M98.1147 147.31L95.0621 142.023C94.2191 140.563 92.3522 140.063 90.8921 140.906L90.8921 140.906C89.4321 141.749 88.9318 143.615 89.7748 145.076L92.8274 150.363C93.6704 151.823 95.5373 152.323 96.9973 151.48L96.9974 151.48C98.4574 150.637 98.9576 148.77 98.1147 147.31Z" fill="#FFAB89"/>
<path d="M165.069 107.408L159.172 105.827C157.544 105.391 155.87 106.358 155.434 107.986L155.434 107.986C154.997 109.614 155.964 111.288 157.592 111.725L163.489 113.305C165.118 113.741 166.792 112.775 167.228 111.146C167.664 109.518 166.698 107.844 165.069 107.408Z" fill="#FFA17A"/>
<path d="M97.8579 105.827L91.9607 107.408C90.3322 107.844 89.3658 109.518 89.8022 111.146L89.8022 111.146C90.2385 112.775 91.9124 113.741 93.5408 113.305L99.438 111.725C101.066 111.288 102.033 109.614 101.597 107.986C101.16 106.357 99.4863 105.391 97.8579 105.827Z" fill="#FFAB89"/>
<path d="M121.827 139.379C123.437 141.163 126.293 142.432 128.696 142.432C131.099 142.432 133.954 141.163 135.564 139.379" stroke="#8B2C0C" stroke-opacity="0.05" stroke-width="12" stroke-linecap="round"/>
<path d="M121.827 138.616C123.437 140.4 126.293 141.669 128.696 141.669C131.099 141.669 133.954 140.4 135.564 138.616" stroke="#D05B34" stroke-width="4" stroke-linecap="round"/>
<path d="M95.9889 122.197L91.6718 117.88C90.4797 116.688 88.5469 116.688 87.3548 117.88C86.1627 119.072 86.1627 121.005 87.3548 122.197L91.6718 126.514C92.8639 127.706 94.7968 127.706 95.9889 126.514C97.181 125.322 97.181 123.389 95.9889 122.197Z" fill="black"/>
<path d="M109.617 128.695C109.617 122.373 104.492 117.248 98.1694 117.248C91.8472 117.248 86.7221 122.373 86.7221 128.695C86.7221 135.017 91.8472 140.143 98.1694 140.143C104.492 140.143 109.617 135.017 109.617 128.695Z" fill="black"/>
<path d="M109.617 129.458C109.617 123.136 104.492 118.011 98.1694 118.011C91.8472 118.011 86.7221 123.136 86.7221 129.458C86.7221 135.78 91.8472 140.905 98.1694 140.905C104.492 140.905 109.617 135.78 109.617 129.458Z" fill="black" fill-opacity="0.05"/>
<path fill-rule="evenodd" clip-rule="evenodd" d="M89.5324 131.747C90.7897 128.19 94.1817 125.642 98.1689 125.642C102.157 125.642 105.548 128.191 106.806 131.748C105.548 135.304 102.156 137.852 98.1693 137.852C94.1817 137.852 90.7894 135.304 89.5324 131.747Z" fill="#784012"/>
<path fill-rule="evenodd" clip-rule="evenodd" d="M105.817 133.736C106.772 132.29 107.328 130.558 107.328 128.695C107.328 123.638 103.228 119.537 98.1701 119.537C93.1124 119.537 89.0124 123.638 89.0124 128.695C89.0124 130.365 89.4591 131.93 90.2397 133.278C91.8785 130.797 94.6915 129.161 97.8869 129.161C101.275 129.161 104.233 131.001 105.817 133.736Z" fill="black" fill-opacity="0.35"/>
<path d="M103.511 128.695C103.511 125.745 101.12 123.353 98.1693 123.353C95.2189 123.353 92.8272 125.745 92.8272 128.695C92.8272 131.646 95.2189 134.037 98.1693 134.037C101.12 134.037 103.511 131.646 103.511 128.695Z" fill="black"/>
<path d="M95.668 127.864C98.1968 127.864 100.247 125.814 100.247 123.285C100.247 120.756 98.1968 118.706 95.668 118.706C93.1391 118.706 91.089 120.756 91.089 123.285C91.089 125.814 93.1391 127.864 95.668 127.864Z" fill="white"/>
<path d="M104.263 131.828C105.528 131.828 106.553 130.803 106.553 129.539C106.553 128.274 105.528 127.249 104.263 127.249C102.999 127.249 101.974 128.274 101.974 129.539C101.974 130.803 102.999 131.828 104.263 131.828Z" fill="white"/>
<path d="M101.407 135.829C102.25 135.829 102.933 135.146 102.933 134.303C102.933 133.46 102.25 132.777 101.407 132.777C100.564 132.777 99.8804 133.46 99.8804 134.303C99.8804 135.146 100.564 135.829 101.407 135.829Z" fill="white"/>
<path d="M165.796 126.514L170.113 122.197C171.305 121.005 171.305 119.072 170.113 117.88C168.921 116.688 166.988 116.688 165.796 117.88L161.479 122.197C160.287 123.389 160.287 125.322 161.479 126.514C162.671 127.706 164.604 127.706 165.796 126.514Z" fill="black"/>
<path d="M170.669 129.458C170.669 123.136 165.544 118.011 159.222 118.011C152.9 118.011 147.774 123.136 147.774 129.458C147.774 135.78 152.9 140.906 159.222 140.906C165.544 140.906 170.669 135.78 170.669 129.458Z" fill="black" fill-opacity="0.05"/>
<path d="M170.669 128.695C170.669 122.373 165.544 117.248 159.222 117.248C152.9 117.248 147.774 122.373 147.774 128.695C147.774 135.017 152.9 140.143 159.222 140.143C165.544 140.143 170.669 135.017 170.669 128.695Z" fill="black"/>
<path fill-rule="evenodd" clip-rule="evenodd" d="M150.6 131.789C151.784 128.103 155.241 125.435 159.321 125.435C163.293 125.435 166.674 127.963 167.943 131.498C166.759 135.185 163.302 137.853 159.222 137.853C155.25 137.853 151.869 135.325 150.6 131.789Z" fill="#784012"/>
<path fill-rule="evenodd" clip-rule="evenodd" d="M167.075 133.407C167.903 132.031 168.379 130.419 168.379 128.696C168.379 123.638 164.279 119.538 159.221 119.538C154.163 119.538 150.064 123.638 150.064 128.696C150.064 130.486 150.577 132.156 151.465 133.567C153.067 130.903 155.985 129.121 159.319 129.121C162.587 129.121 165.455 130.832 167.075 133.407Z" fill="black" fill-opacity="0.35"/>
<path d="M164.564 128.696C164.564 125.745 162.172 123.354 159.222 123.354C156.271 123.354 153.88 125.745 153.88 128.696C153.88 131.646 156.271 134.038 159.222 134.038C162.172 134.038 164.564 131.646 164.564 128.696Z" fill="black"/>
<path d="M156.721 127.864C159.249 127.864 161.3 125.814 161.3 123.285C161.3 120.756 159.249 118.706 156.721 118.706C154.192 118.706 152.142 120.756 152.142 123.285C152.142 125.814 154.192 127.864 156.721 127.864Z" fill="white"/>
<path d="M165.316 131.828C166.581 131.828 167.606 130.803 167.606 129.539C167.606 128.274 166.581 127.249 165.316 127.249C164.052 127.249 163.027 128.274 163.027 129.539C163.027 130.803 164.052 131.828 165.316 131.828Z" fill="white"/>
<path d="M162.459 135.829C163.302 135.829 163.986 135.146 163.986 134.303C163.986 133.46 163.302 132.777 162.459 132.777C161.616 132.777 160.933 133.46 160.933 134.303C160.933 135.146 161.616 135.829 162.459 135.829Z" fill="white"/>
<radialGradient id="radialGradient" cx="0" cy="0" r="1" gradientUnits="userSpaceOnUse" gradientTransform="translate(56.3417 56.3409) rotate(45) scale(203.98)">
<stop stop-color="#FFE600"/>
<stop offset="1" stop-color="#FFA573"/>
</radialGradient>
</svg>