<svg width="256" height="256" title="Dart" viewBox="0 0 256 256" fill="none" xmlns="http://www.w3.org/2000/svg" id="dart">
<style>
#dart {
    rect {fill: #15191C}

    @media (prefers-color-scheme: light) {
        rect {fill: #F4F2ED}
    }
}
</style>
<rect width="256" height="256" rx="40" fill="#15191C"/>
<path d="M83.5911 172.409L57.9294 146.747C54.8858 143.626 53 139.215 53 134.903C53 132.907 54.1248 129.787 54.974 128L78.6617 78.6617L83.5911 172.409Z" fill="#01579B"/>
<path d="M171.427 83.5911L145.766 57.9294C143.527 55.6798 138.862 53 134.914 53C131.518 53 128.187 53.6837 126.037 54.974L78.6727 78.6617L171.427 83.5911Z" fill="#40C4FF"/>
<path d="M114.182 203H176.357V176.357L129.974 161.547L87.5391 176.357L114.182 203Z" fill="#40C4FF"/>
<path d="M78.6617 158.591C78.6617 166.509 79.6542 168.45 83.5911 172.409L87.5391 176.357H176.357L132.94 127.019L78.6617 78.6617L78.6617 158.591Z" fill="#29B6F6"/>
<path d="M157.61 78.6506H78.6617L176.357 176.346H203V115.164L171.416 83.5801C166.983 79.1359 163.046 78.6506 157.61 78.6506Z" fill="#01579B"/>
<path d="M84.5836 173.39C80.6356 169.431 79.6542 165.528 79.6542 158.591V79.6431L78.6727 78.6617L78.6727 158.591C78.6617 165.528 78.6617 167.446 84.5836 173.39Z" fill="white"/>
<path d="M202.019 114.182V175.364H175.375L176.357 176.357H203V115.164L202.019 114.182Z" fill="#263238"/>
<path d="M171.427 83.5911C166.531 78.6948 162.528 78.6617 156.628 78.6617L78.6727 78.6617L79.6542 79.6431H156.628C159.573 79.6431 167.005 79.1469 171.427 83.5911Z" fill="white"/>
<path d="M202.019 114.182L171.427 83.5911L145.766 57.9294C143.527 55.6798 138.862 53 134.914 53C131.518 53 128.187 53.6837 126.037 54.974L78.6727 78.6617L54.985 128C54.1359 129.798 53.011 132.918 53.011 134.903C53.011 139.215 54.9078 143.615 57.9405 146.747L81.584 170.225C82.1465 170.92 82.8081 171.626 83.5911 172.409L114.171 202.989H176.335V176.346H202.978V115.164L202.019 114.182Z" fill="url(#radialGradient)"/>
<radialGradient id="radialGradient" cx="0" cy="0" r="1" gradientUnits="userSpaceOnUse" gradientTransform="translate(127.995 127.997) scale(74.989 74.989)">
<stop stop-color="white" stop-opacity="0.1"/>
<stop offset="1" stop-color="white" stop-opacity="0"/>
</radialGradient>
</svg>