<svg width="256" height="256" title="DBeaver" viewBox="0 0 256 256" fill="none" xmlns="http://www.w3.org/2000/svg" id="dbeaver">
<style>
#dbeaver {
    rect {fill: #15191C}

    @media (prefers-color-scheme: light) {
        rect {fill: #F4F2ED}
    }
}
</style>
<rect width="256" height="256" rx="40" fill="#15191C"/>
<path d="M122.241 43H133.758C166.401 46.3637 190.165 62.6159 205.041 91.7647C209.476 101.503 212.129 111.66 213 122.241V133.758C209.637 166.401 193.384 190.165 164.235 205.041C154.498 209.476 144.34 212.129 133.758 213H122.242C89.5992 209.637 65.8353 193.384 50.9534 164.236C46.5193 154.498 43.8709 144.34 43 133.758V122.242C46.3638 89.5992 62.6159 65.8353 91.7647 50.9534C101.503 46.5192 111.66 43.8708 122.241 43Z" fill="#382A24"/>
<path d="M193.358 127.321C192.993 118.259 190.623 109.79 186.248 101.922C187.122 99.3083 187.412 96.5347 187.097 93.7967C186.398 92.0604 185.102 91.1043 183.2 90.9158C180.27 90.7475 177.334 90.692 174.398 90.7493C175.005 90.4741 175.682 90.3036 176.429 90.2389C172.591 84.434 167.778 79.3361 162.204 75.1699C155.073 69.2898 146.829 66.3552 137.484 66.3663C130.088 66.5176 123.199 68.4891 116.825 72.289C103.33 80.0072 92.1568 90.2761 83.2954 103.109C80.5438 103.426 77.7758 103.594 75.0022 103.614C60.606 101.352 56.4291 106.888 62.4701 120.21C64.9126 125.092 67.1714 130.063 69.2418 135.113C68.9349 139.171 68.7093 143.233 68.5649 147.302C64.1819 154.374 60.0582 161.603 56.202 168.975C55.9764 169.426 55.7508 169.426 55.5251 168.975C44.4762 148.27 42.0466 126.594 48.2431 103.953C57.5572 76.1316 76.1303 57.5585 103.951 48.2444C134.161 40.2979 161.028 46.504 184.555 66.8726C206.1 87.9276 214.511 113.385 209.786 143.238C205.917 162.558 196.604 178.643 181.847 191.498C181.104 192.149 180.314 192.6 179.477 192.853C177.365 186.554 177.757 180.406 180.659 174.398C184.949 167.392 188.363 159.885 190.821 152.046C193.24 143.904 194.083 135.666 193.358 127.321Z" fill="#E1D7CB"/>
<path d="M162.204 75.1699C167.778 79.3361 172.591 84.434 176.429 90.2389C175.729 90.2922 175.042 90.4658 174.398 90.7493C168.6 91.1434 162.892 92.3977 157.464 94.4737C152.159 94.7309 146.856 94.8974 141.546 94.9785C140.198 95.5261 138.843 95.5853 137.484 95.1506C133.662 94.9896 130.501 93.4624 127.997 90.5774C124.242 88.2826 120.29 87.8314 116.148 89.2222C113.217 91.2323 112.144 93.9962 112.929 97.521C114.728 100.718 115.234 104.104 114.455 107.683C114.132 108.225 113.848 108.791 113.605 109.375C104.19 117.991 95.7832 127.649 88.5468 138.162C86.3962 141.899 84.6919 145.876 83.4688 150.011C82.7919 155.89 85.2202 159.895 90.7508 162.039C93.791 163.247 96.9789 164.044 100.23 164.409C97.5225 166.467 94.4696 167.144 91.0893 166.44C86.8153 165.692 82.6592 164.382 78.7292 162.544C74.6773 169.854 70.8927 177.309 67.3831 184.894C65.1239 182.349 62.922 179.752 60.7794 177.107C60.6683 176.899 60.6102 176.667 60.6102 176.431C60.6102 176.194 60.6683 175.962 60.7794 175.754C63.6652 168.967 66.8276 162.301 70.2585 155.773C72.0222 158.895 74.5647 160.986 77.8803 162.039C75.225 159.492 73.5851 156.384 72.9674 152.724C72.3468 146.912 72.9246 141.034 74.6651 135.453C81.4588 113.66 93.706 95.6514 111.408 81.4367C119.045 75.9817 127.51 72.4831 136.807 70.9353C145.615 70.3341 154.083 71.7401 162.204 75.1699Z" fill="#FCFCFC"/>
<path d="M137.484 95.1506C132.737 96.8404 128.1 98.8202 123.596 101.079C120.504 103.38 117.51 105.81 114.621 108.361C114.546 108.266 114.493 108.157 114.464 108.039C114.435 107.922 114.433 107.801 114.455 107.683C115.234 104.104 114.728 100.718 112.929 97.521C112.144 93.9962 113.217 91.2323 116.148 89.2222C120.29 87.8314 124.242 88.2826 127.997 90.5774C130.501 93.4624 133.662 94.9896 137.484 95.1506Z" fill="#382A24"/>
<path d="M174.398 90.7493C177.332 90.6916 180.266 90.7479 183.2 90.9158C185.102 91.1043 186.398 92.0604 187.097 93.7967C187.412 96.5347 187.122 99.3083 186.248 101.922C184.173 107.714 181.008 112.847 176.769 117.335C173.801 119.339 170.641 119.678 167.283 118.35C159.855 116.136 153.928 111.902 149.505 105.646C148.096 102.094 149.054 99.326 152.386 97.3545C154.078 96.3914 155.77 95.4353 157.464 94.4737C162.892 92.3977 168.6 91.1434 174.398 90.7493Z" fill="#372923"/>
<path d="M157.464 94.4737C155.77 95.4353 154.078 96.3914 152.386 97.3545C149.054 99.326 148.096 102.094 149.505 105.646C153.928 111.902 159.855 116.136 167.283 118.35C170.641 119.678 173.801 119.339 176.769 117.335C181.008 112.847 184.173 107.714 186.248 101.922C190.623 109.79 192.993 118.259 193.358 127.321C191.72 132.626 189.507 137.736 186.759 142.561C185.475 144.411 184.06 146.166 182.524 147.812C180.895 148.93 179.314 150.118 177.784 151.369L177.444 150.86C178.982 145.181 179.384 139.254 178.628 133.419C178.336 131.861 177.763 130.37 176.936 129.018C176.411 136.543 174.457 143.899 171.18 150.692C166.816 158.878 160.103 161.758 151.031 159.324C137.466 155.454 125.558 148.736 115.299 139.175C115.953 143.248 117.091 147.228 118.689 151.031C120.78 157.34 121.344 163.773 120.381 170.33C120.066 171.728 119.612 173.091 119.027 174.398C114.45 181.854 110.485 189.668 107.172 197.765C106.066 200.748 105.161 203.801 104.465 206.905C104.381 207.074 104.261 207.221 104.114 207.338C103.967 207.455 103.797 207.539 103.614 207.584C89.5029 203.153 77.4222 195.595 67.3831 184.894C70.8927 177.309 74.6773 169.854 78.7292 162.544C82.6592 164.382 86.8153 165.692 91.0893 166.44C94.4696 167.144 97.5225 166.467 100.23 164.409C96.9789 164.044 93.791 163.247 90.7508 162.039C85.2202 159.895 82.7919 155.89 83.4688 150.011C84.6919 145.876 86.3962 141.899 88.5468 138.162C95.7832 127.649 104.19 117.991 113.605 109.375C113.848 108.791 114.132 108.225 114.455 107.683C114.433 107.801 114.435 107.922 114.464 108.039C114.493 108.157 114.546 108.266 114.621 108.361C117.51 105.81 120.504 103.38 123.596 101.079C128.1 98.8202 132.737 96.8404 137.484 95.1506C138.843 95.5853 140.198 95.5261 141.546 94.9785C146.861 94.8974 152.164 94.7254 157.464 94.4737Z" fill="#887363"/>
<path d="M180.492 154.417C178.618 162.34 175.952 170.055 172.533 177.444C171.817 178.783 170.744 179.687 169.313 180.155L168.975 179.643C170.439 175.574 171.128 171.267 171.007 166.945C169.788 172.021 167.911 176.918 165.423 181.508C162.823 182.578 160.168 182.744 157.464 182.014C156.624 180.957 155.991 179.752 155.599 178.462C154.727 174.222 154.219 169.915 154.078 165.59C164.816 166.316 173.617 162.588 180.492 154.417Z" fill="#FBFBFB"/>
</svg>
