<svg width="256" height="256" viewBox="0 0 256 256" fill="none" xmlns="http://www.w3.org/2000/svg">
<g clip-path="url(#clip0_1_2)">
<rect width="256" height="256" rx="40" fill="white"/>
<g clip-path="url(#clip1_1_2)">
<path d="M216 0H40C17.9086 0 0 17.9086 0 40V216C0 238.091 17.9086 256 40 256H216C238.091 256 256 238.091 256 216V40C256 17.9086 238.091 0 216 0Z" fill="#15191C"/>
<g clip-path="url(#clip2_1_2)">
<path fill-rule="evenodd" clip-rule="evenodd" d="M151.86 46.4394C106.811 33.2642 59.6202 59.0957 46.4389 104.144C33.2639 149.189 59.0984 196.385 104.149 209.56C149.188 222.735 196.39 196.906 209.561 151.861C222.734 106.805 196.899 59.6146 151.86 46.4394Z" fill="#EFF4F8"/>
<path fill-rule="evenodd" clip-rule="evenodd" d="M151.318 48.2933C107.292 35.4195 61.173 60.6612 48.2935 104.687C35.4176 148.707 60.6653 194.832 104.691 207.707C148.708 220.583 194.837 195.34 207.707 151.319C220.583 107.288 195.335 61.1699 151.319 48.2947L151.318 48.2933Z" fill="white"/>
<path opacity="0.8" fill-rule="evenodd" clip-rule="evenodd" d="M153.106 58.8465C142.557 54.9983 131.75 53.959 121.263 54.9345C109.103 55.894 103.167 59.6596 103.518 58.9784C83.6347 66.0769 66.824 81.3458 59.0378 102.76C45.1733 140.897 64.8102 183.07 102.889 196.955C140.983 210.84 183.095 191.176 196.959 153.04C210.828 114.904 191.191 72.7362 153.106 58.8465ZM105.396 190.059C101.337 188.576 97.5458 186.688 93.975 184.533C111.719 185.896 134.875 181.806 150.49 167.193C150.49 167.193 180.258 143.408 158.723 104.376C158.723 104.376 162.194 120.106 157.769 133.047C157.769 133.047 153.548 150.644 134.786 155.757C107.152 163.286 75.6645 143.944 62.5022 134.573C61.5115 124.941 62.3922 114.988 65.9222 105.277C71.1543 90.8895 80.9911 79.663 93.0103 72.1231C90.0064 93.144 92.3813 112.497 95.7957 120.604C100.378 131.475 108.342 144.153 123.879 145.778C139.416 147.409 147.984 132.869 147.984 132.869C155.954 120.756 157.203 103.364 157.082 102.944C156.961 102.52 154.958 101.372 154.958 101.372C149.594 123.079 140.748 130.331 140.748 130.331C126.8 143.796 116.921 134.458 116.921 134.458C106.303 123.053 113.738 104.517 113.738 104.517C117.896 91.891 130.015 73.4124 143.747 64.0166C146.034 64.5825 148.335 64.934 150.595 65.7573C158.906 68.788 166.185 73.3551 172.341 78.9658C162.299 82.6307 146.086 90.38 146.086 90.38C120.387 101.204 118.652 117.573 118.652 117.573C115.993 134.447 129.38 127.306 129.38 127.306C143.16 120.594 149.93 99.6773 149.93 99.6773C145.63 98.8591 142.242 100.165 142.242 100.165C136.742 113.74 125.52 119.325 125.52 119.325C121.106 121.664 120.078 117.531 120.078 117.531C119.333 114.438 123.271 113.908 123.271 113.908C129.385 111.533 133.297 105.11 134.183 102.483C135.064 99.8505 136.705 99.6461 136.705 99.6461C145.085 96.972 152.724 96.3741 152.724 96.3741C163.127 95.0942 179.052 100.056 179.052 100.056C182.623 101.492 186.047 102.567 189.089 103.426C194.924 118.009 195.847 134.615 190.064 150.534C177.595 184.853 139.684 202.555 105.396 190.059Z" fill="#00B7FF"/>
</g>
</g>
</g>
<defs>
<clipPath id="clip0_1_2">
<rect width="256" height="256" rx="40" fill="white"/>
</clipPath>
<clipPath id="clip1_1_2">
<rect width="256" height="256" fill="white"/>
</clipPath>
<clipPath id="clip2_1_2">
<rect width="170" height="170" fill="white" transform="translate(43 43)"/>
</clipPath>
</defs>
</svg>
