<svg width="256" height="256" title="Deno" viewBox="0 0 256 256" fill="none" xmlns="http://www.w3.org/2000/svg" id="deno">
<style>
#deno {
    rect {fill: #15191C}

    @media (prefers-color-scheme: light) {
        rect {fill: #F4F2ED}
    }
}
</style>
<rect width="256" height="256" rx="40" fill="#15191C"/>
<path fill-rule="evenodd" clip-rule="evenodd" d="M57.8508 160.419C53.2813 150.558 50.7308 139.574 50.7308 127.999C50.7308 125.003 50.9013 122.047 51.234 119.14C51.5715 116.202 52.0715 113.319 52.7242 110.5C56.392 94.6827 64.9232 80.7204 76.6535 70.2764C86.5066 61.5156 98.5772 55.2652 111.809 52.4321C117.03 51.3167 122.447 50.7298 127.999 50.7298C129.946 50.7318 131.906 50.8067 133.878 50.957C143.23 51.6711 152.067 54.0253 160.129 57.7161C166.633 60.6972 172.652 64.5542 178.036 69.1364C191.56 80.6569 200.992 96.7053 204.129 114.714C204.878 119.03 205.269 123.469 205.269 127.999C205.267 129.948 205.192 131.911 205.041 133.886C204.471 141.351 202.856 148.487 200.351 155.163C196.854 164.462 191.615 172.91 185.032 180.11C176.47 188.853 165.589 192.743 156.501 192.581C149.893 192.463 143.428 189.834 138.96 185.987C132.577 180.49 129.999 174.208 129.116 167.197C128.896 165.455 129.025 160.706 129.932 157.418C130.608 154.967 132.322 150.234 134.83 148.164C131.897 146.9 128.122 144.15 126.932 142.829C126.639 142.504 126.677 141.996 126.939 141.647C127.201 141.297 127.66 141.159 128.072 141.307C130.593 142.173 133.664 143.026 136.902 143.568C141.161 144.28 146.457 145.177 151.823 145.44C164.904 146.083 178.569 140.211 182.81 128.528C187.051 116.845 185.406 105.29 170.191 98.358C154.976 91.4264 147.949 83.1851 135.656 78.2143C127.626 74.9672 118.69 76.8947 109.514 81.9654C84.8008 95.6228 62.6594 138.774 72.8663 178.754C73.0122 179.3 72.766 179.877 72.2695 180.149C71.8048 180.404 71.2326 180.331 70.8472 179.979C67.8768 176.715 65.1821 173.196 62.7994 169.459C60.9559 166.567 59.3013 163.547 57.8508 160.419Z" fill="black"/>
<path fill-rule="evenodd" clip-rule="evenodd" d="M131.95 43.0933C178.811 45.2732 215.087 85.0884 212.907 131.95C210.727 178.811 170.912 215.086 124.05 212.906C77.1891 210.726 40.9134 170.912 43.0933 124.05C45.2732 77.1891 85.0884 40.9134 131.95 43.0933ZM151.823 145.441C146.458 145.177 141.161 144.28 136.903 143.569C133.665 143.027 130.594 142.173 128.072 141.308C127.661 141.16 127.201 141.298 126.939 141.647C126.678 141.997 126.64 142.505 126.932 142.83C128.122 144.15 131.897 146.901 134.83 148.164C132.323 150.234 130.608 154.968 129.932 157.419C129.025 160.707 128.896 165.455 129.116 167.198C130 174.209 132.578 180.491 138.96 185.987C143.428 189.835 149.894 192.464 156.502 192.582C165.621 192.744 176.546 188.827 185.121 180.02C196.333 167.728 203.678 151.745 205.042 133.887C208.289 91.364 176.402 54.2045 133.879 50.9575C91.3558 47.7105 54.1963 79.5979 50.9493 122.121C49.2677 144.142 57.0091 164.726 70.7722 179.904C71.1555 180.321 71.7736 180.422 72.2698 180.15C72.7661 179.878 73.0123 179.302 72.8664 178.755C62.6597 138.775 84.8012 95.6233 109.515 81.9659C118.69 76.8952 127.627 74.9677 135.656 78.2147C147.949 83.1854 154.977 91.4268 170.192 98.3586C185.406 105.29 187.052 116.846 182.81 128.529C178.569 140.211 164.905 146.083 151.823 145.441ZM125.2 83.601C120.214 83.9912 116.94 90.1627 116.512 94.133C116.081 98.1028 118.051 104.655 124.548 104.527C132.157 104.377 134.469 97.8645 133.634 91.5628C133.007 86.8301 129.369 83.2743 125.2 83.601Z" fill="white"/>
<path fill-rule="evenodd" clip-rule="evenodd" d="M125.235 83.5773C129.403 83.2507 133.04 86.8085 133.667 91.5398C134.503 97.8428 132.19 104.354 124.583 104.504C118.085 104.633 116.117 98.0803 116.547 94.1106C116.975 90.1407 120.247 83.9688 125.235 83.5773Z" fill="black"/>
</svg>