<svg width="256" height="256" title="DevExtreme" viewBox="0 0 256 256" fill="none" xmlns="http://www.w3.org/2000/svg">
<rect width="256" height="256" rx="35" fill="white"/>
<path fill-rule="evenodd" clip-rule="evenodd" d="M24 256H231C242 256.5 255.5 247 256 232L255.936 66.9914C131.968 88.6182 57.088 155.545 17.728 204.813C10.816 212.683 5.888 220.553 2.944 226.44C1.984 228.359 1.5 229.5 0 232C0.5 243.5 9.5 255.5 24 256Z" fill="#596C7D"/>
<path d="M210.111 171.669C214.911 175.764 219.007 180.435 222.207 185.553L222.271 185.425C224.703 189.905 225.855 194.831 225.663 199.758C225.919 206.604 223.295 213.387 218.303 218.697C215.871 221.129 212.991 222.984 209.727 224.264C206.655 225.416 203.327 226.056 200.063 226.056H198.911C193.215 226.056 187.583 224.328 183.039 221.193L182.335 220.745V204.365L184.895 206.22C188.543 208.972 193.023 210.508 197.823 210.828C199.295 210.828 200.831 210.636 202.175 210.124C203.519 209.612 204.735 208.844 205.695 207.884C207.743 205.645 208.767 202.765 208.575 199.822C208.639 196.815 207.871 193.871 206.271 191.312C205.311 189.841 204.159 188.433 202.943 187.089C201.407 185.425 199.487 183.57 197.247 181.587C193.151 177.939 190.335 175.316 188.223 173.14C186.239 171.221 168.191 151.898 186.111 133.983C188.479 131.615 191.423 129.823 194.623 128.608C197.823 127.392 201.407 126.88 204.799 127.008H204.991C210.111 127.008 215.295 128.16 219.903 130.271L220.799 130.719V147.227L218.303 145.436C215.103 143.196 211.263 141.853 207.167 141.661C205.631 141.661 204.159 141.916 202.751 142.428C201.343 142.94 200.127 143.772 199.167 144.732C196.991 146.844 192.255 154.394 202.431 164.567C204.287 166.422 206.783 168.726 210.111 171.669Z" fill="white"/>
<path d="M145.216 128.417H162.624V201.678C162.624 219.274 153.792 223.241 150.464 224.584C147.776 225.672 144.832 226.248 141.824 226.248C141.504 226.248 141.2 226.232 140.896 226.216C140.592 226.2 140.288 226.184 139.968 226.184H139.264C135.168 226.184 131.072 225.288 127.36 223.624L126.4 223.177V206.733L128.832 208.204C131.392 209.804 134.4 210.764 137.536 211.084C144.576 211.084 145.216 204.493 145.216 200.974V128.417Z" fill="white"/>
<path fill-rule="evenodd" clip-rule="evenodd" d="M24.5 0C11 0.5 0.5 11 0 24V152C45.312 104.78 127.296 56.3918 248 39.5C252.48 38.8602 253.824 38.8839 256 38.5V24C255.5 10 244.5 0.5 232 0L24.5 0Z" fill="#2190F7"/>
</svg>