<svg width="256" height="256" title="Dev.to" viewBox="0 0 256 256" fill="none" xmlns="http://www.w3.org/2000/svg">
<rect width="256" height="256" rx="40" fill="black"/>
<path fill-rule="evenodd" clip-rule="evenodd" d="M92.9179 145.146C92.9179 154.081 87.4145 167.617 69.9944 167.589H48V89H70.4589C87.2581 89 92.9085 102.518 92.9132 111.457L92.9179 145.146ZM71.2411 103.705C73.0803 103.705 74.9242 104.394 76.7634 105.771C78.5978 107.148 79.5222 109.219 79.5269 111.974V145.056C79.5269 147.815 78.6073 149.881 76.7682 151.259C74.929 152.636 73.085 153.325 71.2458 153.325H62.9742V103.705H71.2411Z" fill="white"/>
<path d="M140.642 103.035H115.386V121.283H130.825V135.328H115.386V153.572H140.647V167.617H111.172C105.882 167.755 101.483 163.565 101.351 158.265V98.8414C101.223 93.5455 105.408 89.1472 110.694 89.0142H140.647L140.642 103.035Z" fill="white"/>
<path d="M189.77 157.795C183.512 172.4 172.302 169.493 167.282 157.795L149.018 89.019H164.456L178.54 143.033L192.556 89.019H208L189.77 157.795Z" fill="white"/>
</svg>