<svg width="256" height="256" title="Dhizuku" viewBox="0 0 256 256" fill="none" xmlns="http://www.w3.org/2000/svg" id="dhizuku">
<style>
#dhizuku {
    rect {fill: #15191C}

    @media (prefers-color-scheme: light) {
        rect {fill: #F4F2ED}
    }
}
</style>
<rect width="256" height="256" rx="40" fill="#15191C"/>
<path d="M169.267 49H180.896L183.97 49.2669L185.842 49.9341L187.312 50.7348L188.916 52.2027L190.119 53.5372L190.921 54.8716L191.455 56.7399L191.589 59.4088V72.353L191.322 74.6216L190.787 76.223L190.252 77.2905L189.317 78.4916L188.381 79.5591L186.51 80.8936L184.772 81.5608L183.302 81.8277H166.327L164.455 81.4274L163.653 81.1605L162.584 82.0946L144.272 100.377L143.337 101.444L142.267 102.512L142.134 102.779H141.866L141.599 103.313L120.079 124.797V125.064H162.851L162.985 124.397L163.119 120.527L163.52 118.792L164.455 116.924L165.525 115.456L166.594 114.255L168.465 113.054L169.936 112.387L171.005 112.12H187.98L189.718 112.52L191.589 113.454L193.059 114.655L194.53 116.257L195.599 118.125L196 119.326V137.074L195.465 138.809L194.663 140.277L193.193 142.012L191.455 143.346L189.718 144.147L188.114 144.547L186.777 144.681H173.277L170.604 144.414L168.733 143.747L166.861 142.412L165.525 141.078L164.589 139.743L163.787 138.008L163.119 135.473L162.985 131.069L160.312 130.936H123.822L119.01 131.069L119.946 132.137L132.777 144.948L133.847 145.882L134.782 146.816L135.05 146.949V147.216L135.584 147.483L139.861 151.753V152.02L140.396 152.287L142.535 154.422V154.689L143.069 154.956L144.139 156.024V156.291H144.406V156.557H144.673L145.208 157.091V157.358L145.743 157.625L146.678 158.693L156.97 168.968L158.04 169.902L158.975 170.836L160.446 172.037L163.386 174.973L164.054 175.106L165.391 174.573L166.594 174.306H183.035L184.906 174.573L186.243 175.106L187.579 175.907L189.317 177.375L190.52 179.11L191.054 180.177L191.455 181.512L191.589 184.448V197.525L191.322 200.194L190.653 201.929L189.718 203.264L188.515 204.598L187.045 205.666L184.906 206.6L183.837 206.867L171.807 207H167.797L165.658 206.733L163.787 205.932L162.584 204.998L161.649 204.198L160.713 203.13L159.777 201.796L159.109 200.061L158.975 199.527V181.779L159.376 180.177L159.51 179.91V179.11L158.307 177.775L145.074 164.564L144.005 163.63L141.866 161.628L139.594 159.493L130.238 150.152V149.885L129.837 149.752L128.901 148.684L117.406 137.208L116.337 136.274L110.99 130.936H92.9455L92.5446 131.069L92.4109 197.392L92.1436 199.26L91.3416 200.861L90.1386 202.063L89.0693 202.73L87.4653 203.264H85.1931L83.5891 202.73L82.2525 201.796L81.3168 200.861L80.3812 198.993L80.1139 197.525L79.9802 195.123H67.9505L66.4802 194.99L65.4109 194.323L64.8762 193.655L64.4752 192.454V188.451L64.8762 187.383L65.4109 186.583L66.7475 185.248L67.0149 185.115H78.5099L78.3762 176.841L66.4802 176.708L65.8119 176.307L65.0099 175.24L64.6089 174.306L64.4752 173.505V163.764L64.8762 162.429L65.4109 161.628L66.2129 160.961L67.4158 160.427L79.3119 160.294L79.8465 160.16L79.9802 159.894L80.1139 107.583L79.0446 107.049L76.2376 105.981L74.099 104.914L72.0941 103.713L70.3564 102.378L69.0198 101.177L66.7475 98.9088L65.4109 97.174L64.3416 95.4392L63.2723 93.3041L62.4703 91.3024L61.6683 88.6334L61.1337 85.4307L61 84.2297V81.027L61.2673 78.8919L62.0693 75.5557L63.1386 72.6199L63.9406 71.0186L65.4109 68.6166L66.4802 67.1486L67.2822 66.0811H67.5495L67.8168 65.5473L68.8861 64.4797L70.3564 63.2787L72.495 61.6774L74.7673 60.3429L76.7723 59.4088L79.1782 58.6081L82.2525 57.9409L84.9257 57.674H88.5347L90.9406 57.9409L94.1485 58.7416L96.2871 59.5422L98.9604 60.8767L101.366 62.478L103.104 63.8125L104.708 65.2804L105.777 66.4814L107.381 68.6166L108.985 71.2855L109.921 73.2872L110.99 76.3564L111.658 79.826V85.5642L111.124 88.7669L110.589 90.6351L109.787 92.7703L108.718 95.0389L107.381 97.174L106.045 98.9088L105.777 99.3091H105.51L105.243 99.8429L104.173 101.044L102.703 102.245L101.366 103.313L99.4951 104.514L97.4901 105.581L94.8168 106.649L92.5446 107.449V124.264L92.9455 125.064H112.059L113.129 123.997L114.064 122.929L157.104 79.9595L157.505 79.4257H157.772L158.04 78.8919H158.307L158.441 78.4916L159.376 77.6909L159.51 77.0236L158.975 74.7551V56.8733L159.51 55.1385L160.312 53.6706L161.515 52.0693L162.851 50.8682L164.322 49.9341L166.327 49.2669L166.995 49.1334L169.267 49ZM168.465 54.4713L167.262 54.6047L165.926 55.272L164.856 56.2061L164.455 57.0068L164.322 61.0101V71.9527L164.455 73.5541L165.124 75.1554L166.193 76.0895L166.995 76.4899H182.901L183.97 76.0895L185.04 75.1554L185.708 74.0878L185.975 73.0203V57.8074L185.441 56.3395L184.639 55.4054L183.569 54.7382L183.168 54.6047L180.361 54.4713H168.465ZM85.7277 69.5507L83.4554 69.8176L81.1832 70.4848L78.9109 71.6858L77.5743 72.7534L76.104 74.2213L74.6337 76.3564L73.698 78.3581L73.0297 80.7601L72.896 81.5608V83.9628L73.297 86.098L73.8317 87.6993L75.1683 90.2348L76.6386 92.103L78.1089 93.4375L79.5792 94.3716L81.7178 95.4392L83.8564 95.973L84.9257 96.1064H87.599L89.604 95.8395L92.1436 94.9054L93.7475 93.9713L95.3515 92.7703L96.9554 91.1689L98.4257 88.9003L99.3614 86.4983L99.7624 84.4966V82.0946L99.6287 80.2264L98.9604 77.9578L97.8911 75.8226L96.8218 74.3547L94.8168 72.353L93.4802 71.4189L90.9406 70.2179L88.802 69.6841L85.7277 69.5507ZM171.673 117.591L170.337 118.258L169.535 119.193L169.134 119.993L169 128V132.537L169.134 136.274L169.535 137.208L170.337 138.275L171.54 139.076L171.941 139.209H187.579L188.916 138.676L189.718 138.008L190.252 137.208L190.52 136.274V120.394L189.851 119.059L189.317 118.392L188.381 117.725L187.98 117.591H171.673ZM167.663 179.644L166.594 179.91L165.525 180.711L164.856 181.645L164.455 182.846L164.322 192.454V196.858L164.455 198.593L164.99 199.927L166.059 200.995L167.396 201.529L168.733 201.662H171.673L183.168 201.529L184.238 201.128L185.307 200.194L185.842 199.127L185.975 197.125L185.842 182.313L185.307 181.245L184.639 180.444L183.837 179.91L182.634 179.644H167.663Z" fill="#4DCBE6"/>
</svg>