<svg width="256" height="256" title="Discord.js" viewBox="0 0 256 256" fill="none" xmlns="http://www.w3.org/2000/svg" id="discordjs">
<style>
#discordjs {
    rect {fill: #15191C}

    @media (prefers-color-scheme: light) {
        rect {fill: #F4F2ED}
    }
}
</style>
<rect width="256" height="256" rx="40" fill="#15191C"/>
<path d="M92.3102 153.674C91.1646 154.162 89.5613 154.822 88.2693 155.229C85.5325 156.091 83.3371 156.44 81.0872 156.781C83.7924 165.455 94.3905 173.973 106.749 173.169C118.4 173.169 126.466 167.426 130.757 159.096C118.587 158.924 100.859 163.99 92.3102 153.674ZM203.517 155.104C199.261 155.612 196.222 154.756 189.249 156.993C172.37 163.945 155.665 158.049 150.347 156.896C148.601 156.715 147.8 154.16 144.217 158.387L142.47 160.447C150.718 168.564 162.026 173.222 173.736 173.222C189.502 173.222 200.162 165.608 203.704 155.265L203.517 155.104Z" fill="#5865F2"/>
<path d="M204.411 141.559C195.141 135.12 193.287 139.775 188.638 144.8C189.068 145.9 189.3 147.15 189.3 148.603C189.3 155.389 183.846 159.781 174.134 159.781C166.017 159.781 157.637 155.79 151.385 149.935L144.216 158.387C153.923 158.823 163.748 161.33 173.576 160.942C184.332 160.516 198.54 157.111 203.517 155.105L203.705 155.265C204.567 152.735 205.005 150.079 205 147.406C205 145.291 204.794 143.35 204.411 141.559ZM134.388 141.699C129.135 137.692 124.1 139.057 119.272 144.718V145.687C119.272 153.358 113.073 159.576 105.427 159.576C103.081 159.577 100.773 158.98 98.7207 157.842C96.6685 156.705 94.9396 155.064 93.6967 153.074C93.6967 153.074 93.0924 153.34 92.3102 153.673C95.9284 158.233 100.375 160.591 109.199 160.942C116.386 161.227 123.573 159.967 130.76 159.096C133.161 154.438 134.388 148.975 134.388 143.246V141.699Z" fill="#5865F2"/>
<path d="M134.388 125.25C129.481 120.933 124.486 120.062 119.272 126.65V144.718C124.327 143.541 129.371 142.345 134.388 141.699V125.25ZM192.889 126.562C185.343 123.259 162.747 126.564 158.752 128.077C160.402 129.05 162.119 129.906 163.89 130.637L175.732 135.827C182.1 138.482 186.939 140.462 188.638 144.8C193.526 144.091 197.742 143.117 200.547 142.472L204.41 141.559C202.929 134.643 198.732 130 192.889 126.562Z" fill="#5865F2"/>
<path d="M146.348 108.59C146.745 118.185 152.301 124.252 158.781 128.089C163.726 129.065 168.672 129.912 173.617 129.912C180.521 129.912 187.417 128.267 192.895 126.565C191.138 125.542 189.315 124.636 187.439 123.852L175.732 118.929C169.948 116.572 164.512 114.472 162.611 110.204C150.945 104.28 158.77 100.542 146.351 108.591L146.348 108.59ZM134.388 109.752C129.951 106.691 124.945 107.608 119.27 112.524L119.272 126.659C124.309 126.154 129.349 125.484 134.388 125.25V109.752Z" fill="#5865F2"/>
<path d="M151.559 93.0859C148.229 97.0881 146.328 102.037 146.328 107.484C146.328 107.857 146.336 108.225 146.351 108.589C151.744 108.535 157.17 109.133 162.611 110.205C162.125 109.096 161.881 107.897 161.895 106.686C161.895 100.298 167.216 96.439 175.466 96.439C182.915 96.439 188.903 99.2338 194.357 103.89L200.149 96.749C183.224 91.5177 168.095 88.2276 151.561 93.0847L151.559 93.0859ZM134.388 96.5056C128.144 91.0225 123.351 95.067 119.27 102.718V112.524C124.31 111.743 129.348 110.602 134.388 109.751V96.5056Z" fill="#5865F2"/>
<path d="M119.27 83V102.719C124.31 101.018 129.348 98.5012 134.388 96.5044V83H119.27ZM175.464 83C165.221 83 156.693 86.9174 151.56 93.0823C158.866 93.1101 166.22 94.5863 173.575 95.4642C184.097 96.7211 194.582 96.7478 200.147 96.7478L202.341 94.0438C195.555 87.2565 185.709 83 175.464 83Z" fill="#5865F2"/>
<path d="M50 83V149.604H75.2153C81.8246 149.604 86.8864 148.557 91.5872 146.186C91.5787 146.022 91.5787 145.855 91.5787 145.689C91.5787 138.018 97.7787 131.802 105.427 131.802C105.653 131.802 105.877 131.807 106.102 131.819C108.5 126.935 109.468 122.093 109.468 115.731C109.468 109.166 108.233 103.453 105.758 98.5072C103.189 93.655 99.478 89.849 94.5322 87.0881C89.5819 84.3308 83.589 83 76.4517 83H50ZM65.9844 97.2709H75.5956C81.2107 97.2709 85.4914 98.8899 88.3468 102.22C91.2009 105.549 92.6274 110.115 92.6274 116.015C92.6274 122.009 91.1028 126.674 88.1542 130.098C85.2056 133.619 80.828 135.331 75.0228 135.331H65.9856L65.9844 97.2709ZM105.467 136.941C104.303 136.918 103.146 137.126 102.064 137.555C100.982 137.984 99.996 138.625 99.165 139.44C98.3332 140.254 97.6727 141.227 97.2217 142.3C96.7707 143.373 96.5385 144.526 96.5385 145.69C96.5385 146.854 96.7707 148.006 97.2217 149.079C97.6727 150.153 98.3332 151.125 99.165 151.94C99.996 152.755 100.982 153.395 102.064 153.824C103.146 154.253 104.303 154.462 105.467 154.438C107.762 154.4 109.95 153.461 111.56 151.825C113.17 150.188 114.072 147.985 114.072 145.689C114.072 143.394 113.17 141.19 111.56 139.554C109.95 137.917 107.762 136.98 105.467 136.941Z" fill="#5865F2"/>
</svg>