<svg width="256" height="256" title="Discord Bots" viewBox="0 0 256 256" fill="none" xmlns="http://www.w3.org/2000/svg" id="discordbots">
<style>
#discordbots {
    rect {fill: #15191C}

    @media (prefers-color-scheme: light) {
        rect {fill: #F4F2ED}
    }
}
</style>
<rect width="256" height="256" rx="40" fill="#15191C"/>
<path fill-rule="evenodd" clip-rule="evenodd" d="M194.667 116.653H61.3332C58.8788 116.653 56.8888 123.141 56.8888 131.145C56.8888 139.149 58.8788 145.637 61.3332 145.637H194.667C197.121 145.637 199.111 139.149 199.111 131.145C199.111 123.141 197.121 116.653 194.667 116.653Z" fill="#DCDDDE"/>
<path fill-rule="evenodd" clip-rule="evenodd" d="M188 163.102H67.9999V125.199C67.9999 91.9523 94.8632 65 128 65C161.137 65 188 91.9523 188 125.199V163.102Z" fill="#B9BBBE"/>
<path fill-rule="evenodd" clip-rule="evenodd" d="M140.187 112.54C134.213 120.93 121.786 120.93 115.812 112.54C113.001 108.591 108.462 106.247 103.626 106.247H90.1844C84.6822 106.247 80.2222 110.723 80.2222 116.243V151.953H175.778V116.243C175.778 110.723 171.318 106.247 165.814 106.247H152.373C147.537 106.247 142.998 108.591 140.187 112.54Z" fill="#202225"/>
<path fill-rule="evenodd" clip-rule="evenodd" d="M134.667 103.368C134.667 99.6745 131.681 96.679 128 96.679C124.318 96.679 121.333 99.6745 121.333 103.368C121.333 107.061 124.318 110.057 128 110.057C131.681 110.057 134.667 107.061 134.667 103.368Z" fill="#72767D"/>
<path fill-rule="evenodd" clip-rule="evenodd" d="M106.889 130.773C106.889 126.464 103.407 122.969 99.111 122.969C94.8154 122.969 91.3332 126.464 91.3332 130.773C91.3332 135.082 94.8154 138.576 99.111 138.576C103.407 138.576 106.889 135.082 106.889 130.773ZM164.667 130.773C164.667 126.464 161.184 122.969 156.889 122.969C152.593 122.969 149.111 126.464 149.111 130.773C149.111 135.082 152.593 138.576 156.889 138.576C161.184 138.576 164.667 135.082 164.667 130.773Z" fill="#DCDDDE"/>
<path fill-rule="evenodd" clip-rule="evenodd" d="M142.964 190.959C162.758 190.945 182.581 191.058 202.403 190.959L208 161.987H48L54.3311 190.959C83.8733 190.778 113.436 190.981 142.964 190.959Z" fill="#4F545C"/>
<path fill-rule="evenodd" clip-rule="evenodd" d="M179.111 175.215C179.111 173.369 177.619 171.871 175.778 171.871C173.937 171.871 172.444 173.369 172.444 175.215C172.444 177.062 173.937 178.56 175.778 178.56C177.619 178.56 179.111 177.062 179.111 175.215ZM168 175.215C168 173.369 166.508 171.871 164.667 171.871C162.825 171.871 161.333 173.369 161.333 175.215C161.333 177.062 162.825 178.56 164.667 178.56C166.508 178.56 168 177.062 168 175.215ZM156.889 175.215C156.889 173.369 155.397 171.871 153.555 171.871C151.714 171.871 150.222 173.369 150.222 175.215C150.222 177.062 151.714 178.56 153.555 178.56C155.397 178.56 156.889 177.062 156.889 175.215Z" fill="#B9BBBE"/>
</svg>