<svg width="256" height="256" title="Discord" viewBox="0 0 256 256" fill="none" xmlns="http://www.w3.org/2000/svg">
<rect width="256" height="256" rx="40" fill="#5865F2"/>
<path d="M182.214 78.7938C172.165 74.181 161.56 70.8917 150.664 69.0081C150.565 68.9897 150.463 69.0029 150.372 69.0459C150.281 69.0889 150.206 69.1595 150.157 69.2477C148.795 71.6715 147.285 74.8329 146.229 77.3174C134.315 75.5336 122.462 75.5336 110.793 77.3174C109.737 74.7773 108.172 71.6715 106.804 69.2477C106.753 69.1615 106.678 69.0926 106.587 69.05C106.497 69.0074 106.396 68.993 106.297 69.0088C95.4002 70.8879 84.7945 74.177 74.7466 78.7931C74.6607 78.8299 74.5882 78.8924 74.5393 78.972C54.4449 108.993 48.9398 138.276 51.6407 167.195C51.6483 167.266 51.6701 167.335 51.7047 167.397C51.7393 167.459 51.7861 167.514 51.8422 167.558C65.0998 177.294 77.9422 183.205 90.5463 187.122C90.6443 187.152 90.7489 187.15 90.8461 187.118C90.9433 187.087 91.0284 187.026 91.0901 186.944C94.0712 182.873 96.7288 178.579 99.008 174.065C99.0393 174.003 99.0572 173.935 99.0604 173.866C99.0637 173.797 99.0523 173.728 99.0269 173.663C99.0015 173.599 98.9628 173.541 98.9132 173.492C98.8636 173.444 98.8044 173.406 98.7393 173.382C94.5233 171.783 90.5095 169.834 86.648 167.62C86.5776 167.578 86.5185 167.52 86.4758 167.451C86.4332 167.381 86.4083 167.302 86.4035 167.22C86.3986 167.139 86.4139 167.057 86.448 166.983C86.4821 166.909 86.5339 166.844 86.599 166.795C87.4114 166.186 88.2245 165.553 89.0002 164.913C89.0691 164.856 89.1525 164.82 89.2411 164.808C89.3296 164.796 89.4198 164.809 89.5013 164.845C114.868 176.427 142.33 176.427 167.398 164.845C167.479 164.806 167.57 164.791 167.66 164.802C167.75 164.813 167.835 164.849 167.905 164.906C168.681 165.546 169.493 166.186 170.312 166.795C170.378 166.844 170.43 166.908 170.464 166.982C170.499 167.056 170.515 167.137 170.51 167.218C170.506 167.3 170.482 167.379 170.44 167.449C170.398 167.519 170.34 167.577 170.27 167.619C166.407 169.875 162.36 171.801 158.173 173.376C158.108 173.401 158.049 173.439 158 173.488C157.951 173.538 157.913 173.597 157.888 173.662C157.863 173.727 157.852 173.796 157.856 173.866C157.86 173.935 157.879 174.003 157.91 174.065C160.238 178.573 162.896 182.866 165.822 186.938C165.882 187.022 165.966 187.085 166.064 187.118C166.162 187.151 166.267 187.153 166.366 187.122C179.03 183.204 191.873 177.294 205.131 167.558C205.188 167.516 205.235 167.463 205.27 167.401C205.305 167.34 205.326 167.272 205.333 167.201C208.564 133.766 199.919 104.724 182.415 78.9778C182.372 78.8942 182.301 78.8293 182.214 78.7938ZM102.796 149.586C95.1588 149.586 88.8658 142.574 88.8658 133.963C88.8658 125.353 95.0368 118.341 102.796 118.341C110.616 118.341 116.848 125.414 116.726 133.964C116.726 142.574 110.555 149.586 102.796 149.586ZM154.3 149.586C146.663 149.586 140.37 142.574 140.37 133.963C140.37 125.353 146.54 118.341 154.3 118.341C162.119 118.341 168.351 125.414 168.229 133.964C168.229 142.574 162.119 149.586 154.3 149.586Z" fill="white"/>
</svg>