<svg width="256" height="256" title="Django" viewBox="0 0 256 256" fill="none" xmlns="http://www.w3.org/2000/svg">
<rect width="256" height="256" rx="40" fill="#092E20"/>
<path d="M116.228 60H140.453V172.148C128.025 174.506 118.901 175.451 108.992 175.451C79.4152 175.451 64 162.079 64 136.434C64 111.728 80.3598 95.689 105.69 95.689C109.622 95.689 112.61 95.9977 116.228 96.9422V60ZM116.228 116.444C113.595 115.555 110.827 115.129 108.048 115.185C95.775 115.185 88.7002 122.735 88.7002 135.959C88.7002 148.861 95.4663 155.936 107.894 155.936C110.567 155.936 112.771 155.782 116.228 155.307V116.444ZM179 97.4114V153.578C179 172.926 177.586 182.211 173.339 190.23C169.406 197.941 164.214 202.818 153.516 208.164L131.02 197.465C141.718 192.434 146.91 188.02 150.213 181.26C153.676 174.339 154.775 166.314 154.775 145.238V97.4053L179 97.4114ZM154.775 60.1296H179V84.9842H154.775V60.1296Z" fill="white"/>
</svg>