<svg width="256" height="256" title="draw.io" viewBox="0 0 256 256" fill="none" xmlns="http://www.w3.org/2000/svg" id="drawio">
<style>
#drawio {
    rect {fill: #15191C}

    @media (prefers-color-scheme: light) {
        rect {fill: #F4F2ED}
    }
}
</style>
<rect width="256" height="256" rx="40" fill="#15191C"/>
<path d="M208 201.168C208 205.03 204.832 208 201.168 208H54.8317C50.9703 208 48 204.832 48 201.168V54.8317C48 50.9703 51.1683 48 54.8317 48H201.168C205.03 48 208 51.1683 208 54.8317V201.168Z" fill="#F08705"/>
<path d="M208 201.168C208 205.03 204.832 208 201.168 208H102.752L70.8713 175.624L90.6732 143.248L149.485 70.1782L207.802 130.277L208 201.168Z" fill="#DF6C0C"/>
<path d="M179.386 137.406H162.554L144.733 107.109C148.693 106.317 151.663 102.752 151.663 98.5941V75.7228C151.663 70.8713 147.802 67.0099 142.95 67.0099H113.247C108.396 67.0099 104.535 70.8713 104.535 75.7228V98.5941C104.535 102.851 107.505 106.317 111.366 107.109L93.5445 137.505H76.7128C71.8613 137.505 68 141.366 68 146.218V169.089C68 173.941 71.8613 177.802 76.7128 177.802H106.416C111.267 177.802 115.129 173.941 115.129 169.089V146.218C115.129 141.366 111.267 137.505 106.416 137.505H103.545L121.168 107.406H134.931L152.653 137.505H149.683C144.832 137.505 140.97 141.366 140.97 146.218V169.089C140.97 173.941 144.832 177.802 149.683 177.802H179.386C184.238 177.802 188.099 173.941 188.099 169.089V146.218C188.099 141.366 184.238 137.406 179.386 137.406Z" fill="white"/>
</svg>