<svg width="256" height="256" title="Eclipse IDE" viewBox="0 0 256 256" fill="none" xmlns="http://www.w3.org/2000/svg" id="eclipseide">
<style>
#eclipseide {
    rect {fill: #15191C}

    @media (prefers-color-scheme: light) {
        rect {fill: #F4F2ED}
    }
}
</style>
<rect width="256" height="256" rx="40" fill="#15191C"/>
<path d="M62.3291 150.505C65.8822 162.692 72.4752 173.615 82.1274 183.269C97.5152 198.658 116.018 206.343 137.656 206.343C141.982 206.343 146.173 206.021 150.243 205.407C166.541 202.947 180.811 195.578 193.037 183.269C202.751 173.618 209.391 162.692 212.971 150.505H62.3291ZM74.3669 114.059H60.3489C59.8262 117.186 59.4855 120.341 59.3283 123.508H215.99C215.831 120.284 215.481 117.139 214.964 114.059M59.3283 132.282C59.4867 135.508 59.8345 138.652 60.3489 141.73H214.966C215.493 138.604 215.836 135.449 215.995 132.282M212.974 105.283C209.397 93.062 202.756 82.0874 193.037 72.3659C180.843 60.1724 166.614 52.8564 150.368 50.3954C146.161 49.7592 141.912 49.4414 137.657 49.4447C116.019 49.4447 97.5145 57.0878 82.1281 72.3666C72.4724 82.0874 65.8753 93.062 62.325 105.283" fill="#2C2255"/>
<path d="M54.6696 127.897C54.6696 86.5115 85.7511 52.1252 126.186 46.0768C125.183 46.0405 124.175 46 123.162 46C77.7869 46.0007 41 82.6683 41 127.897C41 173.129 77.7856 209.794 123.162 209.794C124.178 209.794 125.186 209.755 126.193 209.718C85.7511 203.67 54.6696 169.283 54.6696 127.897Z" fill="#F7941E"/>
<path d="M190.973 123.506C190.717 120.314 190.174 117.152 189.352 114.057H85.9692C85.1457 117.152 84.6026 120.314 84.3463 123.506H190.973Z" fill="url(#linearGradient1)"/>
<path d="M190.973 132.281H84.3476C84.6028 135.473 85.1455 138.636 85.9691 141.73H189.353C190.175 138.636 190.717 135.473 190.973 132.281Z" fill="url(#linearGradient2)"/>
<path d="M137.66 181.404C159.129 181.404 177.637 168.755 186.159 150.505H89.1621C97.6846 168.755 116.191 181.404 137.66 181.404Z" fill="url(#linearGradient3)"/>
<path d="M215.885 132.282C215.959 130.886 216 129.481 216 128.066C216 126.535 215.944 125.017 215.857 123.506H59.3283C59.2419 125.015 59.1856 126.535 59.1856 128.066C59.1856 129.481 59.2268 130.886 59.3009 132.282H215.885ZM88.8494 105.283H62.3237C61.4519 108.14 60.8894 111.072 60.3489 114.059H214.468C213.936 111.095 213.231 108.165 212.359 105.283M60.3476 141.729C60.873 144.714 61.4718 147.644 62.3291 150.505L212.872 150.505C213.733 147.622 214.425 144.692 214.946 141.729H60.3476Z" fill="white"/>
<linearGradient id="linearGradient1" x1="8791" y1="178482" x2="8791" y2="-26079.1" gradientUnits="userSpaceOnUse">
<stop offset="0.3033" stop-color="#473788"/>
<stop offset="0.872" stop-color="#2C2255"/>
</linearGradient>
<linearGradient id="linearGradient2" x1="8790.83" y1="146893" x2="8790.83" y2="-57668.1" gradientUnits="userSpaceOnUse">
<stop offset="0.3033" stop-color="#473788"/>
<stop offset="0.872" stop-color="#2C2255"/>
</linearGradient>
<linearGradient id="linearGradient3" x1="8790.82" y1="35289.5" x2="8790.82" y2="-27260.8" gradientUnits="userSpaceOnUse">
<stop offset="0.3033" stop-color="#473788"/>
<stop offset="0.8631" stop-color="#2C2255"/>
</linearGradient>
</svg>