<svg width="256" height="256" title="Elementary OS" viewBox="0 0 256 256" fill="none" xmlns="http://www.w3.org/2000/svg">
<rect width="256" height="256" rx="40" fill="#3892E0"/>
<path d="M128.5 41C80.1751 41 41 80.1751 41 128.5C41 176.825 80.1751 216 128.5 216C176.825 216 216 176.825 216 128.5C216 80.1751 176.825 41 128.5 41ZM128.5 48.2917C165.24 48.2917 196.212 72.9954 205.71 106.698C197.529 123.572 185.888 138.764 171.712 151.04C164.902 156.938 157.467 162.195 149.254 165.897C141.041 169.599 132.007 171.699 123.013 171.184C116.256 170.796 109.58 168.914 103.663 165.633C119.346 157.135 133.496 145.804 145.079 132.237C152.682 123.332 159.335 113.211 161.896 101.785C163.176 96.0722 163.394 90.0891 162.197 84.3581C161 78.627 158.35 73.1655 154.34 68.8997C150.422 64.7323 145.279 61.7803 139.766 60.2591C134.252 58.7379 128.384 58.6202 122.758 59.6484C111.505 61.7049 101.458 68.245 93.3997 76.3646C79.1962 90.6765 70.4153 110.871 72.026 130.97C72.8314 141.02 76.1991 150.895 81.9701 159.161C83.2582 161.007 84.6743 162.764 86.1901 164.43C77.7831 167.372 69.0784 169.466 60.25 170.646C52.6702 158.398 48.2917 143.962 48.2917 128.5C48.2917 84.2022 84.2022 48.2917 128.5 48.2917ZM129.01 64.4974C134.649 64.505 140.325 66.212 144.824 69.6107C148.877 72.6727 151.881 77.0291 153.583 81.8151C155.286 86.6011 155.723 91.7985 155.142 96.8451C153.98 106.938 148.888 116.194 142.737 124.28C131.845 138.597 117.367 150.056 101.266 158.077C99.6175 158.898 97.9432 159.678 96.2617 160.428C92.7581 157.362 89.7552 153.726 87.4661 149.673C82.6832 141.205 81.1059 131.145 82.0339 121.464C82.9618 111.782 86.2843 102.451 90.7474 93.8099C95.9222 83.7907 102.976 74.3003 112.85 68.8542C117.787 66.1311 123.372 64.4898 129.01 64.4974ZM207.988 117.763C208.458 121.275 208.708 124.859 208.708 128.5C208.708 172.798 172.798 208.708 128.5 208.708C103.622 208.708 81.3877 197.383 66.6758 179.605C75.7564 177.543 84.6316 174.581 93.1445 170.81C96.8673 173.645 100.979 175.97 105.349 177.646C117.935 182.471 132.224 181.773 144.961 177.363C157.698 172.954 168.993 165.039 178.84 155.835C190.57 144.869 200.459 131.945 207.988 117.763Z" fill="white"/>
</svg>