<svg width="256" height="256" title="ElysiaJS" viewBox="0 0 256 256" fill="none" xmlns="http://www.w3.org/2000/svg" id="elysiajs">
<style>
#elysiajs {
    rect {fill: #15191C}

    @media (prefers-color-scheme: light) {
        rect {fill: #F4F2ED}
    }
}
</style>
<rect width="256" height="256" rx="40" fill="#15191C"/>
<path fill-rule="evenodd" clip-rule="evenodd" d="M183.915 198.778C201.74 183.197 213 160.292 213 134.757C213 87.8129 174.944 49.7571 128 49.7571C81.0558 49.7571 43 87.8129 43 134.757C43 159.546 53.6112 181.856 70.539 197.393L70.6173 196.847L182.169 160.323L183.915 198.778Z" fill="#333333"/>
<path d="M106.058 59.9641L90.9785 57.7258L93.2373 57.0309C94.5983 56.612 95.8753 55.9567 97.0089 55.095L97.3635 54.8257C98.7298 53.7871 99.8172 52.4254 100.527 50.8629C100.911 50.0188 101.18 49.1271 101.326 48.2116L101.495 47.1572C101.677 46.0208 101.667 44.8621 101.467 43.7288C101.382 43.2474 101.862 42.8616 102.314 43.0477L102.931 43.3018C103.705 43.6205 104.454 43.9978 105.17 44.4304L107.734 45.9787C111.142 48.0363 114.13 50.7207 116.538 53.8901L118.244 56.1338C118.879 56.9697 119.627 57.7134 120.467 58.3434C121.389 59.0344 122.41 59.581 123.496 59.9643L124.68 60.3821L118.462 60.6308C114.315 60.7967 110.163 60.5735 106.058 59.9641Z" fill="#CCCCCC"/>
<path d="M102.208 73.3333L106.68 65.1582C106.724 65.078 106.727 64.9817 106.688 64.8991L105.163 61.689C104.206 59.674 102.174 58.3899 99.9434 58.3899L99.5217 58.3754C96.6021 58.2747 93.7025 57.853 90.8749 57.1179L90.3158 56.9725C87.9972 56.3696 85.7477 55.5255 83.6051 54.4541L82.6598 53.9815C81.2364 53.2699 79.8883 52.4173 78.6353 51.4366L77.3818 50.4558C77.0093 50.1643 76.4697 50.2387 76.19 50.6201C75.3283 51.7952 74.788 53.1749 74.6225 54.6227L74.3947 56.6159C74.2725 57.6851 74.259 58.764 74.3542 59.836L74.9092 66.0796C75.3221 70.7249 76.9253 75.1854 79.5643 79.0306L80.1294 79.8541C80.9402 81.0354 81.8852 82.1188 82.9454 83.0827C83.0948 83.2185 83.285 83.3022 83.4866 83.3201C91.1542 84.0081 98.5136 80.0875 102.208 73.3333Z" fill="#CCCCCC"/>
<path d="M85.2935 83.4709L90.6053 81.1716C92.9501 80.1569 93.664 77.1752 92.0331 75.2084C90.7072 73.6095 88.3488 73.358 86.7156 74.6413L85.4558 75.6308C85.154 75.868 84.8781 76.1363 84.6324 76.4312L81.603 80.0662C81.1776 80.5769 81.2115 81.3279 81.6816 81.7981L82.6173 82.8676C82.7674 83.0389 82.942 83.1877 83.1353 83.3085C83.7844 83.7143 84.5912 83.7747 85.2935 83.4709Z" fill="#EDEDED"/>
<path d="M92.1366 57.3419L91.9746 57.3938L92.46 57.5482C94.5625 58.2172 96.7429 58.609 98.9466 58.714C99.0568 58.7192 99.1674 58.7065 99.2737 58.6761L100.275 58.3899L100.773 58.2239L97.5922 57.5323C97.1736 57.4413 96.7831 57.2506 96.454 56.9763C96.1974 56.7623 96.199 56.3673 96.4577 56.1556L96.9295 55.7696C97.493 55.3086 97.9488 54.7296 98.2646 54.0735C96.4351 55.5225 94.3593 56.6297 92.1366 57.3419Z" fill="#B2B2B2"/>
<path d="M110.328 115.309L67.0027 192.761C66.7877 193.145 66.265 193.217 65.9536 192.906L65.0801 192.032L61.4277 187.882L59.0998 184.87C56.8924 182.013 54.9217 178.981 53.2071 175.804L52.8757 175.19C51.0545 171.815 49.5289 168.289 48.3162 164.651L47.1504 161.154C45.399 154.805 44.997 148.16 45.9703 141.646L46.0114 141.371C46.4379 138.517 47.1183 135.707 48.0447 132.974L49.9727 127.286L51.4115 124.26C53.6428 119.566 56.7193 115.324 60.4871 111.744L62.3149 110.008C66.0937 106.418 70.6893 103.801 75.7051 102.384C74.532 102.715 73.3346 102.954 72.1241 103.097L69.7285 103.38L67.9023 103.546L65.9102 103.878L63.918 104.064L62.5898 104.21L61.6331 104.27C61.3257 104.289 61.1812 103.897 61.4277 103.712L62.7649 103.071C67.0745 101.006 70.6172 97.6267 72.8828 93.4192L74.3595 91.1156C76.1205 88.3683 78.4633 86.0415 81.2221 84.299L81.7922 83.939C82.8222 83.2886 83.9215 82.7557 85.07 82.3503L90.2965 80.5055C91.2601 80.1655 92.0377 79.4374 92.4405 78.498L92.5201 78.3118C92.7067 77.8758 92.7821 77.4004 92.7393 76.9282C92.6745 76.2163 92.3452 75.5548 91.8162 75.074L90.8975 74.2387C90.8411 74.1873 90.7893 74.1306 90.7434 74.0695L84.8359 66.1926L80.1221 59.6953C79.1894 58.4096 78.6465 56.8825 78.5586 55.2964C78.5443 55.0451 78.8049 54.8709 79.032 54.9798L84.1324 57.4279C88.5461 59.5465 93.5783 59.992 98.2955 58.6816C99.3922 58.377 100.512 58.1655 101.645 58.0494L103.986 57.8093C109.873 57.2055 115.821 57.6944 121.531 59.2516L122.023 59.386L127.601 61.3939C134.597 63.9125 140.141 69.3659 142.775 76.3196L143.945 80.8797C144.271 82.1524 144.732 83.3869 145.319 84.5619C146.7 87.3238 148.75 89.6968 151.282 91.4645L154.258 93.5421C155.566 94.4551 156.939 95.2713 158.365 95.9848L164.951 99.2779C165.247 99.4253 165.335 99.8048 165.135 100.067C163.319 102.457 160.92 104.341 158.168 105.54L154.354 107.201C152.835 107.863 151.269 108.41 149.669 108.84L146.867 109.593C142.939 110.648 138.889 111.183 134.822 111.183H128.111C126.721 111.183 125.344 110.922 124.051 110.412C118.896 108.381 113.033 110.473 110.328 115.309Z" fill="white"/>
<path d="M133.042 87.3815L135.964 87.4154C136.361 87.4201 136.451 86.8609 136.072 86.7414C135.451 86.5452 134.847 86.2965 134.268 85.9983L131.987 84.8229C130.44 84.0264 128.986 83.0625 127.649 81.9485L127.2 81.5746C126.187 80.73 125.267 79.7787 124.457 78.7374L123.939 78.0704C123.761 77.8423 123.396 77.9814 123.415 78.2696C123.754 83.354 127.947 87.3224 133.042 87.3815Z" fill="#666666"/>
<path d="M70.3006 193.99L119.803 149.831C124.47 145.669 128.525 140.867 131.848 135.571L132.15 135.089C133.779 131.833 134.474 128.189 134.158 124.561L133.724 119.569C133.457 116.498 132.19 113.6 130.116 111.319C130.036 111.231 129.929 111.17 129.812 111.146L121.857 109.523C116.086 107.78 109.967 107.529 104.072 108.792L103.762 108.859L99.1332 109.941C85.6345 113.096 73.7375 121.039 65.6484 132.297L65.4443 132.581C63.2156 135.683 61.3222 139.013 59.796 142.514L59.5235 143.139C55.6685 151.983 54.369 161.731 55.7727 171.276L56.2318 174.397C56.7046 177.612 57.6735 180.735 59.1039 183.653C60.4249 186.348 62.1255 188.839 64.1535 191.052L66.6797 193.808C67.6338 194.848 69.247 194.929 70.3006 193.99Z" fill="#CCCCCC"/>
<path d="M113.639 135.042L113.479 135.133C109.302 137.52 107.055 142.026 107.275 146.832C107.337 148.199 108.707 149.451 110.023 149.078L112.449 148.391C115.584 147.502 118.488 145.94 120.957 143.813L128 137.745L130.089 136.199C142.235 127.21 157.495 123.506 172.411 125.927C172.871 126.001 172.885 126.658 172.429 126.753L170.666 127.12L169.867 127.4C168.226 127.974 166.8 129.038 165.782 130.448C165.591 130.713 165.846 131.068 166.158 130.972L166.736 130.794C169.991 129.793 173.406 129.413 176.801 129.674L178.137 129.777C185.389 130.092 192.12 133.637 196.483 139.439L198.118 141.614C202.965 148.059 205.016 156.183 203.809 164.157L203.179 168.321C202.321 173.991 200.256 179.411 197.124 184.214L196.896 184.562L193.41 189.21L189.592 193.527L186.094 196.885C182.9 199.951 179.407 202.69 175.669 205.061L174.484 205.812L172.218 206.891C171.635 207.169 171.147 206.369 171.662 205.978L174.816 202.989L175.465 202.309C177.218 200.468 178.478 198.215 179.128 195.758L179.428 194.625C179.563 194.116 179.631 193.584 179.631 193.058C179.631 190.176 177.59 187.649 174.762 187.096C173.008 186.752 171.192 187.205 169.805 188.332L166.682 190.87L161.168 195.382C157.549 198.342 153.628 200.913 149.469 203.05L143.771 205.978L134.143 209.63L132.121 210.181C128.605 211.141 125.016 211.808 121.39 212.178L118.703 212.452H110.07L98.6152 211.207L92.4169 209.866C89.1474 209.158 85.9834 208.03 83.0038 206.51C80.5796 205.273 78.2926 203.784 76.1802 202.068L71.3887 198.175C65.5798 193.739 61.9407 187.035 61.3862 179.747L61.0957 175.929L61.4375 170.557C61.9703 162.186 65.1767 154.206 70.5849 147.794C72.7716 145.201 75.2859 142.903 78.0645 140.958L79.0842 140.244C83.3279 137.274 88.0633 135.076 93.072 133.753L96.4394 132.864C100.818 131.707 105.406 131.585 109.84 132.506L113.353 133.236C114.235 133.419 114.421 134.595 113.639 135.042Z" fill="#5E5E5E"/>
</svg>