<svg width="256" height="256" title="Ember.js" viewBox="0 0 256 256" fill="none" xmlns="http://www.w3.org/2000/svg">
<rect width="256" height="256" rx="40" fill="#E05C43"/>
<path fill-rule="evenodd" clip-rule="evenodd" d="M133.884 68.0133C147.235 67.7494 156.67 71.3696 164.788 82.8926C182.491 126.784 119.216 149.436 116.679 150.327L116.599 150.353C116.599 150.353 114.689 162.274 132.835 161.816C155.167 161.816 178.645 144.506 187.576 137.19C188.614 136.337 189.936 135.907 191.277 135.986C192.618 136.066 193.88 136.649 194.81 137.619L201.497 144.565C202.437 145.534 202.973 146.823 202.999 148.173C203.025 149.523 202.537 150.832 201.634 151.836C195.822 158.307 182.183 171.593 161.65 180.176C161.65 180.176 127.39 196.04 104.302 181.018C90.5353 172.065 86.7483 161.345 85.2086 150.194C85.2167 150.194 68.4933 149.346 57.754 145.152C47.0114 140.956 57.8333 128.296 57.8333 128.296C57.8333 128.296 61.1362 123.062 67.4182 128.296C73.7051 133.523 85.4385 131.165 85.4385 131.165C86.4844 122.91 88.2233 112.015 93.3461 100.516C104.084 76.4163 120.529 68.2723 133.884 68.0133ZM141.742 92.1618C134.668 85.3455 114.243 98.9651 113.455 130.129C113.455 130.129 119.484 131.965 132.835 122.795C146.193 113.629 148.815 98.9651 141.742 92.1618Z" fill="white"/>
</svg>