<svg width="256" height="256" title="ESLint" viewBox="0 0 256 256" fill="none" xmlns="http://www.w3.org/2000/svg" id="eslint">
<style>
#eslint {
    rect {fill: #15191C}

    @media (prefers-color-scheme: light) {
        rect {fill: #F4F2ED}
    }
}
</style>
<rect width="256" height="256" rx="40" fill="#15191C"/>
<path d="M161.593 107.353L129.306 88.7115C128.909 88.4819 128.458 88.361 128 88.361C127.541 88.361 127.09 88.4819 126.693 88.7115L94.4057 107.353C94.0086 107.582 93.6787 107.911 93.4491 108.308C93.2195 108.705 93.0984 109.155 93.0978 109.613V146.895C93.0978 147.827 93.5973 148.69 94.4057 149.158L126.693 167.799C127.501 168.266 128.495 168.266 129.306 167.799L161.593 149.158C162.402 148.692 162.899 147.83 162.899 146.895V109.613C162.899 108.679 162.402 107.819 161.593 107.35V107.353Z" fill="#8080F2"/>
<path d="M44.0492 124.333L82.6289 57.2174C84.0296 54.7894 86.6197 53 89.421 53H166.578C169.382 53 171.969 54.7894 173.373 57.2174L211.95 124.186C212.638 125.392 213 126.755 213 128.143C213 129.531 212.638 130.895 211.95 132.101L173.373 198.668C171.969 201.093 169.382 202.334 166.578 202.334H89.421C86.6197 202.334 84.0296 201.132 82.6289 198.704L44.0517 132.029C43.3632 130.863 43 129.534 43 128.18C43 126.825 43.3632 125.496 44.0517 124.33L44.0492 124.333ZM75.9938 156.605C75.9938 157.593 76.5886 158.505 77.4434 158.999L126.585 187.349C127.44 187.844 128.511 187.844 129.365 187.349L178.543 158.999C179.398 158.505 179.995 157.593 179.995 156.605V99.9013C179.995 98.9152 179.405 98.0011 178.553 97.5068L129.409 69.1616C128.986 68.919 128.508 68.7914 128.02 68.7914C127.533 68.7914 127.054 68.919 126.631 69.1616L77.4486 97.5094C76.5937 98.0037 75.9913 98.9177 75.9913 99.9038V156.607L75.9938 156.605Z" fill="#4B32C3"/>
</svg>