<svg width="256" height="256" title="Expo" viewBox="0 0 256 256" fill="none" xmlns="http://www.w3.org/2000/svg">
<rect width="256" height="256" rx="40" fill="#000020"/>
<path d="M48 181.92C48.2867 185.453 49.5333 189.007 52.7867 193.773C56.6533 199.433 63.2933 202.54 68.14 197.553C71.4067 194.187 106.767 132.38 123.807 108.953C124.274 108.284 124.897 107.737 125.621 107.359C126.345 106.981 127.15 106.784 127.967 106.784C128.783 106.784 129.588 106.981 130.312 107.359C131.037 107.737 131.659 108.284 132.127 108.953C149.167 132.38 184.527 194.187 187.793 197.553C192.64 202.54 199.28 199.433 203.147 193.773C206.947 188.207 208 184.307 208 180.133C208 177.293 152.933 74.8133 147.387 66.28C142.053 58.08 140.427 56.2933 131.407 56H124.527C115.507 56.2933 113.88 58.0733 108.54 66.28C103.113 74.6333 50.2 173.08 48 179.827V181.92Z" fill="white"/>
</svg>