<svg width="256" height="256" title="Express.js" viewBox="0 0 256 256" fill="none" xmlns="http://www.w3.org/2000/svg" id="expressjs">
<style>
#expressjs {
    rect {fill: #15191C}
    path {fill: #F4F2ED}

    @media (prefers-color-scheme: light) {
        rect {fill: #F4F2ED}
        path {fill: #15191C}
    }
}
</style>
<rect width="256" height="256" rx="40" fill="#15191C"/>
<path d="M221 178.467C218.307 179.487 215.334 179.484 212.643 178.461C209.952 177.437 207.728 175.463 206.393 172.912C198.01 160.363 188.753 148.379 179.855 136.139L175.997 130.996C165.402 145.191 154.807 158.82 145.138 172.964C143.878 175.402 141.776 177.299 139.221 178.302C136.666 179.306 133.834 179.345 131.252 178.416L171.008 125.081L134.029 76.8893C136.691 75.9282 139.603 75.9149 142.273 76.852C144.944 77.789 147.209 79.6188 148.687 82.0325C157.276 94.5818 166.791 106.566 176.254 119.27C185.77 106.668 195.181 94.6332 203.976 82.1868C205.243 79.7881 207.347 77.9387 209.889 76.9903C212.43 76.042 215.232 76.061 217.76 77.0436L203.41 96.0734C196.982 104.559 190.655 113.097 183.97 121.378C183.43 121.86 182.999 122.451 182.704 123.111C182.409 123.771 182.256 124.487 182.256 125.21C182.256 125.932 182.409 126.647 182.704 127.308C182.999 127.968 183.43 128.558 183.97 129.041C196.262 145.345 208.451 161.7 221 178.467Z" fill="#F4F2ED"/>
<path d="M36 124.413C37.08 119.27 37.7487 113.663 39.2402 108.417C48.1379 76.7869 84.3973 63.6204 109.341 83.216C123.948 94.6852 127.6 110.938 126.88 129.248H44.5891C43.2519 161.958 66.859 181.708 97.0495 171.627C101.947 169.875 106.331 166.932 109.806 163.062C113.281 159.192 115.737 154.517 116.953 149.46C118.548 144.317 121.119 143.443 126.005 144.934C125.201 151.195 122.987 157.193 119.53 162.475C116.074 167.758 111.465 172.188 106.05 175.433C97.103 180.326 86.838 182.264 76.7228 180.971C66.6077 179.678 57.1606 175.219 49.7323 168.233C42.3835 159.97 37.94 149.53 37.08 138.505C37.08 136.757 36.4114 135.007 36.0514 133.362C36.0171 130.31 36 127.327 36 124.413ZM44.692 122.201H119.114C118.651 98.4911 103.684 81.673 83.7287 81.5187C61.5101 81.2101 45.6178 97.6683 44.6405 122.098L44.692 122.201Z" fill="#F4F2ED"/>
</svg>