<svg width="256" height="256" title="ExpressVPN" viewBox="0 0 256 256" fill="none" xmlns="http://www.w3.org/2000/svg">
<rect width="256" height="256" rx="40" fill="#DA3940"/>
<path d="M89.565 109.647c-6.983 0-11.437-3.923-11.437-9.375 0-1.796.532-3.989 2.593-8.444h-7.314l6.715-14.363h46.743c1.064 0 1.795-.797 1.795-1.727 0-.932-.731-1.73-1.795-1.73H89.032l3.325-7.114c2.061-4.388 6.516-7.247 11.369-7.247h15.892c9.175 0 15.957 6.316 15.957 14.56 0 9.775-8.976 17.621-19.348 17.621H85.509c-.932 1.928.132 3.458 2.393 3.458h24.468c4.056 0 7.181 2.858 7.181 6.515 0 4.189-4.055 7.846-8.644 7.846z" style="fill:#fff" transform="translate(-141.155 -90.042)scale(2.57588)"/>
</svg>