<svg width="256" height="256" viewBox="0 0 256 256" fill="none" xmlns="http://www.w3.org/2000/svg" id="fedora">
<style>
#fedora {
    rect {fill: #15191C}

    @media (prefers-color-scheme: light) {
        rect {fill: #F4F2ED}
    }
}
</style>
<rect width="256" height="256" rx="25" fill="#15191C"/>
<path d="M213 128.003C213 81.0608 174.945 43 127.997 43C81.0477 43 43.0314 81.0286 43 127.946V193.724C43.0262 204.374 51.6648 213 62.3277 213H128.035C174.964 212.981 213 174.939 213 128.003Z" fill="#294172"/>
<path d="M152.956 63.1254C130.972 63.1254 113.082 81.0164 113.082 103V124.166H92.0045C70.0152 124.166 52.1303 142.057 52.1303 164.04C52.1303 186.023 70.0152 203.914 92.0045 203.914C113.995 203.914 131.879 186.023 131.879 164.04V142.874H152.956C174.945 142.874 192.83 124.99 192.83 103C192.83 81.0094 174.939 63.1254 152.956 63.1254ZM113.228 164.04C113.228 175.744 103.708 185.264 92.0045 185.264C80.3006 185.264 70.7806 175.744 70.7806 164.04C70.7806 152.336 80.3006 142.816 92.0045 142.816H113.082V142.874H113.228V164.04ZM152.956 124.223H131.879V124.166H131.732V103C131.732 91.2957 141.252 81.7757 152.956 81.7757C164.66 81.7757 174.179 91.2957 174.179 103C174.179 114.703 164.659 124.223 152.956 124.223Z" fill="#3C6EB4"/>
<path d="M161.767 64.3328C158.671 63.5212 156.295 63.1446 152.956 63.1446C130.921 63.1446 113.063 81.0094 113.063 103.038V124.185H96.353C91.1431 124.185 86.9358 128.277 86.9358 133.481C86.9358 138.647 91.0987 142.759 96.251 142.759H110.087C110.875 142.759 111.631 143.072 112.189 143.628C112.746 144.185 113.061 144.94 113.063 145.728V164.027C113.043 175.641 103.619 185.053 92.0053 185.053C88.0718 185.053 87.0954 184.536 84.4137 184.536C78.7689 184.536 74.9957 188.316 74.9957 193.52C74.9957 197.823 78.6861 201.519 83.1941 202.701C86.2907 203.512 88.6655 203.889 92.0053 203.889C114.04 203.889 131.899 186.023 131.899 163.996V142.848H148.607C153.818 142.848 158.025 138.755 158.025 133.552C158.025 128.386 153.863 124.274 148.71 124.274H134.88C134.092 124.274 133.337 123.961 132.779 123.405C132.221 122.848 131.907 122.093 131.905 121.305V103.007C131.924 91.3916 141.348 81.9806 152.962 81.9806C156.896 81.9806 157.872 82.4975 160.561 82.4975C166.205 82.4975 169.979 78.7174 169.979 73.5137C169.979 69.2105 166.287 65.5132 161.78 64.332L161.767 64.3328Z" fill="white"/>
</svg>