<svg width="256" height="256" title="Firebase" viewBox="0 0 256 256" fill="none" xmlns="http://www.w3.org/2000/svg" id="firebase">
<style>
#firebase {
    rect {fill: #15191C}

    @media (prefers-color-scheme: light) {
        rect {fill: #F4F2ED}
    }
}
</style>
<rect width="256" height="256" rx="40" fill="#15191C"/>
<path d="M103.61 201.808C110.197 204.459 117.343 206.032 124.846 206.294C135.001 206.649 144.658 204.55 153.291 200.561C142.938 196.494 133.563 190.546 125.561 183.151C120.374 191.456 112.703 198.015 103.61 201.808Z" fill="#FF9100"/>
<path d="M125.56 183.154C107.295 166.261 96.2143 141.811 97.1507 114.993C97.1813 114.122 97.2272 113.252 97.281 112.382C94.0096 111.536 90.5943 111.019 87.0799 110.897C82.0493 110.721 77.1774 111.345 72.578 112.64C67.7021 121.181 64.7597 130.981 64.3931 141.478C63.4471 168.568 79.841 192.238 103.609 201.811C112.702 198.018 120.373 191.466 125.56 183.154Z" fill="#FFC400"/>
<path d="M125.561 183.153C129.807 176.357 132.382 168.389 132.682 159.805C133.47 137.225 118.29 117.801 97.2813 112.381C97.2274 113.251 97.1815 114.121 97.1509 114.992C96.2145 141.81 107.295 166.26 125.561 183.153Z" fill="#FF9100"/>
<path d="M130.332 48.9099C118.367 58.4957 108.918 71.1356 103.201 85.6963C99.9285 94.0366 97.8718 102.995 97.2714 112.386C118.281 117.807 133.46 137.231 132.672 159.811C132.372 168.395 129.79 176.355 125.551 183.158C133.552 190.561 142.928 196.502 153.28 200.568C174.059 190.963 188.801 170.295 189.655 145.849C190.208 130.011 184.123 115.894 175.524 103.979C166.443 91.3769 130.332 48.9099 130.332 48.9099Z" fill="#DD2C00"/>
</svg>