<svg width="256" height="256" title="Flask" viewBox="0 0 256 256" fill="none" xmlns="http://www.w3.org/2000/svg">
<rect width="256" height="256" rx="40" fill="url(#linearGradient)"/>
<g filter="url(#filter)">
<path d="M118.801 59.8403C118.78 58.3463 118.627 57.8443 117.829 57.3843C117.071 56.8823 115.925 56.8723 114.83 57.3533L41.147 88.9043C40.052 89.3853 39.019 90.3473 38.466 91.3903C37.914 92.4343 37.852 93.5393 38.282 94.3273L44.433 105.625L44.514 105.758C45.18 106.813 46.684 107.089 48.219 106.413L48.669 106.219C50.593 114.283 53.745 124.374 57.951 131.568L122.137 102.842C121.216 94.5123 118.698 70.5853 118.801 59.8303V59.8403Z" fill="white"/>
<path d="M123.897 112.328L62.0861 139.99C65.7191 146.877 70.2011 154.184 75.6661 161.225C93.8201 151.974 111.985 142.723 130.14 133.471C128.963 130.422 127.817 127.116 123.897 112.328Z" fill="white"/>
<path d="M217.136 178.233L212.766 171.561C212.111 170.834 211.098 170.558 210.208 170.916L204.6 173.076C203.935 172.339 202.973 172.063 202.031 172.431C200.199 173.147 198.357 173.874 196.526 174.59C195.932 174.815 195.768 175.255 195.881 175.829L196.239 177.578C185.903 178.694 168.434 178.141 152.787 165.851C145.869 160.427 139.381 152.752 133.967 142.016L81.8571 168.573C91.3851 179.042 103.348 188.324 118.207 193.911C138.879 201.699 165.221 202.436 198.429 189.061L198.613 190.002C198.777 191.056 200.046 192.172 201.765 191.496L207.281 189.347C209.174 188.631 209.185 187.178 208.908 186.236L216.011 183.463C216.809 183.156 219.285 181.242 217.157 178.233H217.136Z" fill="white"/>
</g>
<filter id="filter" x="-12" y="7" width="280" height="242.498" filterUnits="userSpaceOnUse" color-interpolation-filters="sRGB">
<feFlood flood-opacity="0" result="BackgroundImageFix"/>
<feColorMatrix in="SourceAlpha" type="matrix" values="0 0 0 0 0 0 0 0 0 0 0 0 0 0 0 0 0 0 127 0" result="hardAlpha"/>
<feOffset/>
<feGaussianBlur stdDeviation="25"/>
<feComposite in2="hardAlpha" operator="out"/>
<feColorMatrix type="matrix" values="0 0 0 0 0 0 0 0 0 0 0 0 0 0 0 0 0 0 0.25 0"/>
<feBlend mode="normal" in2="BackgroundImageFix" result="effect1_dropShadow_189_100"/>
<feBlend mode="normal" in="SourceGraphic" in2="effect1_dropShadow_189_100" result="shape"/>
</filter>
<linearGradient id="linearGradient" x1="137.006" y1="0" x2="137.006" y2="256" gradientUnits="userSpaceOnUse">
<stop stop-color="#BDDDEB"/>
<stop offset="1" stop-color="#53A9D1"/>
</linearGradient>
</svg>
