<svg width="256" height="256" title="Forgejo" viewBox="0 0 256 256" fill="none" xmlns="http://www.w3.org/2000/svg" id="forgejo">
<style>
#forgejo {
    rect {fill: #15191C}

    @media (prefers-color-scheme: light) {
        rect {fill: #F4F2ED}
    }
}
</style>
<rect width="256" height="256" rx="40" fill="#15191C"/>
<path d="M92.6154 190.308V101.846C92.6154 90.1154 97.2754 78.8651 105.57 70.5703C113.865 62.2754 125.115 57.6154 136.846 57.6154H154.538" stroke="#FF5500" stroke-width="16"/>
<path d="M92.6154 190.308V159.346C92.6154 147.615 97.2754 136.365 105.57 128.07C113.865 119.775 125.115 115.115 136.846 115.115H154.538" stroke="#CC0000" stroke-width="16"/>
<path d="M163.385 72.2307C171.456 72.2307 178 65.6872 178 57.6154C178 49.5435 171.456 43 163.385 43C155.313 43 148.769 49.5435 148.769 57.6154C148.769 65.6872 155.313 72.2307 163.385 72.2307Z" stroke="#FF5500" stroke-width="10"/>
<path d="M163.385 129.731C171.456 129.731 178 123.187 178 115.115C178 107.044 171.456 100.5 163.385 100.5C155.313 100.5 148.769 107.044 148.769 115.115C148.769 123.187 155.313 129.731 163.385 129.731Z" stroke="#CC0000" stroke-width="10"/>
<path d="M92.6154 213.769C100.687 213.769 107.231 207.226 107.231 199.154C107.231 191.082 100.687 184.539 92.6154 184.539C84.5435 184.539 78 191.082 78 199.154C78 207.226 84.5435 213.769 92.6154 213.769Z" stroke="#CC0000" stroke-width="10"/>
</svg>