<svg width="256" height="256" title="Fortran" viewBox="0 0 256 256" fill="none" xmlns="http://www.w3.org/2000/svg">
<rect width="256" height="256" rx="40" fill="#734F96"/>
<path d="M58.0006 187.128L65.3766 186.677C80.3552 185.698 80.2048 185.774 80.9573 174.032C81.6349 162.892 80.7813 75.6732 80.2796 73.9244C79.4542 71.0442 76.3539 69.3876 67.1075 69.3895L58.0006 69.3332V53H198V115.548L181.516 115.303C181.365 115.153 180.914 110.731 180.613 106.666C178.881 87.5482 174.592 76.5485 166.312 72.2581C161.946 69.9999 155.129 69.3338 133.295 69.3274L112.947 69.3332V116.225H116.559C122.656 116.15 130.409 114.72 132.968 113.139C136.28 111.107 139.064 105.236 140.043 98.1608C140.781 92.9969 141.35 89.1339 141.35 89.1339L157.355 89.1288V163.645H140.796V160.71C140.796 155.893 138.538 144.678 136.957 141.291C134.473 136.097 130.258 134.291 118.29 133.161L112.796 132.635L113.097 156.796C113.323 179.753 113.473 181.032 114.903 182.99C116.71 185.398 118.667 185.85 130.634 186.753L138.668 187.135L138.613 203.538H58V187.129L58.0006 187.128Z" fill="white"/>
</svg>