<svg width="256" height="256" title="Gatsby" viewBox="0 0 256 256" fill="none" xmlns="http://www.w3.org/2000/svg" id="gatsby">
<style>
#gatsby {
    rect {fill: #15191C}

    @media (prefers-color-scheme: light) {
        rect {fill: #F4F2ED}
    }
}
</style>
<rect width="256" height="256" rx="40" fill="#15191C"/>
<path d="M128 38C78.2912 38 38 78.2912 38 128C38 177.709 78.2912 218 128 218C177.709 218 218 177.709 218 128C218 78.2912 177.709 38 128 38ZM57.3392 128.936L127.064 198.661C88.7744 198.164 57.836 167.226 57.3392 128.936ZM143.818 196.897L59.1032 112.182C66.2888 80.768 94.4048 57.3248 128 57.3248C151.479 57.3248 172.287 68.78 185.139 86.4056L175.354 95.0384C164.929 80.0912 147.606 70.3064 128 70.3064C103.038 70.3064 81.776 86.1608 73.7408 108.351L147.649 182.252C165.598 175.75 179.401 160.602 184.023 141.838H153.394V128H198.682C198.675 161.595 175.232 189.711 143.818 196.897Z" fill="#744C9E"/>
</svg>