<svg width="256" height="256" title="Ghidra" viewBox="0 0 256 256" fill="none" xmlns="http://www.w3.org/2000/svg">
<rect width="256" height="256" rx="40" fill="#231F20"/>
<mask id="mask" style="mask-type:luminance" maskUnits="userSpaceOnUse" x="41" y="41" width="175" height="175">
<path d="M128.5 216C176.825 216 216 176.825 216 128.5C216 80.1751 176.825 41 128.5 41C80.1751 41 41 80.1751 41 128.5C41 176.825 80.1751 216 128.5 216Z" fill="white"/>
</mask>
<g mask="url(#mask)">
<path d="M152.61 316.415C176.098 316.159 199.634 309.5 219.073 296.207C229.012 289.976 238.476 282.793 246.232 274.085C250.136 269.73 253.535 264.948 256.366 259.829C257.902 257.39 259.207 254.695 260.622 252.134C262.037 249.573 263.244 246.878 264.512 244.244C269.457 233.613 273.141 222.439 275.488 210.951C277.769 199.487 278.18 187.73 276.707 176.134L276.439 173.976C276.341 173.256 276.171 172.537 276.037 171.829L275.183 167.549C274.951 166.11 274.463 164.732 274.098 163.317L272.878 159.122C271.866 156.402 270.939 153.646 269.829 150.963C268.719 148.281 267.39 145.634 266.085 143.037C263.535 137.813 260.475 132.854 256.951 128.232C255.183 125.963 253.247 123.831 251.159 121.854C249.07 119.91 246.827 118.14 244.451 116.561L242.829 115.488L244.28 114.268C245.452 113.186 246.939 112.507 248.524 112.329C250.047 112.256 251.563 112.575 252.927 113.256C254.146 113.829 255.293 114.476 256.366 115.024C257.325 115.552 258.363 115.923 259.439 116.122L258.085 118.659C253.776 113.86 248.502 110.024 242.61 107.402C236.665 104.809 230.339 103.195 223.878 102.622L219.951 102.232L222.939 99.6586C224.751 98.1616 226.904 97.1353 229.207 96.6708C231.379 96.2168 233.604 96.069 235.817 96.2317C237.984 96.372 240.133 96.7232 242.232 97.2805C244.329 97.8133 246.37 98.5443 248.329 99.4634L246.171 102.134C245.849 101.697 245.49 101.289 245.098 100.915C244.942 100.775 244.775 100.648 244.598 100.537H244.524C244.613 100.553 244.704 100.553 244.793 100.537H245C245.091 100.526 245.181 100.506 245.268 100.476C245.404 100.437 245.532 100.375 245.646 100.293C245.813 100.179 245.955 100.041 246.073 99.8781C246.36 99.4939 246.441 98.9927 246.293 98.5366C246.273 98.4525 246.235 98.3735 246.183 98.3049C246.337 98.4317 246.499 98.5456 246.671 98.6464C247.13 98.9065 247.61 99.122 248.11 99.2927L246.256 102.256C239.368 95.6485 231.064 90.6979 221.976 87.7805C212.85 84.8371 203.307 83.3956 193.719 83.5122H189.524L192.183 80.2927C192.5 79.9269 192.805 79.5488 193.195 79.1708L193.537 78.8659L193.707 78.7073L193.963 78.5366L194.232 78.3659C194.401 78.2797 194.576 78.2065 194.756 78.1464C195.135 78.0427 195.535 78.0427 195.915 78.1464C196.054 78.1708 196.189 78.2114 196.317 78.2683C196.526 78.3675 196.717 78.4935 196.89 78.6464C197.171 78.9013 197.374 79.2317 197.476 79.5976C197.546 79.8366 197.578 80.0805 197.573 80.3293C197.587 80.41 197.587 80.4925 197.573 80.5732V80.7439C197.534 80.9335 197.473 81.1177 197.39 81.2927C197.281 81.5277 197.147 81.7472 196.988 81.9512C196.729 82.2765 196.428 82.5569 196.085 82.7927C195.447 83.2283 194.708 83.4928 193.939 83.561L186.963 84.2683L192.585 80C194.842 78.3234 197.407 77.1091 200.134 76.4269C202.789 75.7688 205.522 75.4816 208.256 75.5732C213.558 75.8236 218.79 76.8889 223.768 78.7317L221.841 82.3903L217.256 79.122L214.951 77.5488L213.805 76.8049L213.268 76.4878L213.061 76.3781H213.793C213.902 76.3903 214.012 76.3903 214.122 76.3781C214.573 76.2927 214.982 76.0561 215.28 75.7073C215.696 75.2342 215.876 74.5964 215.768 73.9756V73.5732L215.549 73.3537L215.463 73.2195L215.39 73.1342L215.573 73.3049L216.049 73.7073L217.11 74.5244C217.829 75.0732 218.573 75.5976 219.329 76.1098C220.744 77.1046 222.251 77.9622 223.829 78.6708L221.707 82.3293C212.251 74.8834 200.909 70.2173 188.951 68.8537C177.052 67.3504 164.977 69.5026 154.329 75.0244L148.232 78.2683L151 71.9878C152.092 69.6267 153.671 67.5236 155.634 65.8171C157.484 64.1835 159.532 62.7903 161.732 61.6708C163.874 60.556 166.121 59.6534 168.439 58.9756C170.818 58.2692 173.276 57.8596 175.756 57.7561L174.939 62.5244C169.501 60.4262 163.69 59.4674 157.866 59.7073C152.03 59.9458 146.284 61.2304 140.902 63.5C130.017 68.0035 120.903 75.9437 114.951 86.1098L113.963 87.7317L112.122 87.4025C109.841 87 107.854 86.4391 105.927 86.0976C104.21 85.7088 102.435 85.6467 100.695 85.9147C99.9996 86.0437 99.3365 86.3089 98.7439 86.6952C98.1341 87.0964 97.6012 87.6049 97.1707 88.1952C96.1969 89.595 95.5356 91.1879 95.2317 92.8659C95.2317 93.2073 95.0122 93.8903 94.8902 94.4391L94.4512 96.0976C94.1114 97.2227 93.7042 98.3263 93.2317 99.4025L92.4756 101C92.2073 101.537 91.8658 102.024 91.5609 102.524C90.9612 103.522 90.2972 104.479 89.5731 105.39C86.5201 108.828 82.8088 111.619 78.6585 113.598C74.6938 115.516 70.5417 117.02 66.2682 118.085L64.7439 118.451L64 118.634L63.4634 118.817C62.6219 119.119 61.8089 119.485 61.0243 119.915C59.483 120.758 58.1005 121.864 56.939 123.183C56.3981 123.82 55.9241 124.51 55.5243 125.244C55.3341 125.585 55.1674 125.939 55.0243 126.305C54.8658 126.707 54.7195 127.171 54.5731 127.622C53.9979 129.418 53.6137 131.27 53.4268 133.146C53.0125 136.634 53.922 140.151 55.9756 143L50.5487 144.366C50.9396 141.286 51.8771 138.3 53.317 135.549C54.1711 134.025 55.2999 132.673 56.6463 131.561C58.1588 130.319 59.9955 129.536 61.939 129.305L66.6585 128.781L65.2439 133.354C64.9998 134.092 64.8964 134.87 64.939 135.646C64.9792 136.235 65.2 136.798 65.5731 137.256C66.7694 138.418 68.3094 139.163 69.9634 139.378L66.7926 144.39C65.8553 143.144 65.1792 141.721 64.8048 140.207C64.4442 138.74 64.341 137.222 64.5 135.72C64.8239 132.806 66.0084 130.055 67.9024 127.817L71.5609 123.5L73.4268 128.866C73.8855 130.21 74.7348 131.386 75.8658 132.244C76.8556 132.98 78.0945 133.3 79.317 133.134L77.8658 139.073C76.5009 138.167 75.4523 136.859 74.8658 135.329C74.3888 133.872 74.3129 132.314 74.6463 130.817C74.8707 129.775 75.1471 128.746 75.4756 127.732C75.7243 126.963 75.9276 126.182 76.0853 125.39L77 120.134L81.2561 123.354C82.4967 124.333 83.889 125.104 85.378 125.634C85.8644 125.82 86.3881 125.888 86.9057 125.83C87.4233 125.773 87.9197 125.593 88.3536 125.305C88.7535 125.069 89.0887 124.738 89.3292 124.341C89.6758 123.712 89.9499 123.045 90.1463 122.354C90.4744 121.228 90.9024 120.134 91.4268 119.085C92.1415 117.757 93.1511 116.61 94.378 115.732L94.5731 115.598L94.7804 115.488C97.4662 114.194 100.409 113.523 103.39 113.524C106.134 113.451 108.634 113.695 110.915 113.72L111.098 120.5H107.5C107.303 120.455 107.111 120.39 106.927 120.305L106.634 120.159C106.105 119.87 105.66 119.45 105.341 118.939C104.975 118.278 104.83 117.518 104.927 116.768C104.98 116.383 105.105 116.011 105.293 115.671C105.433 115.387 105.618 115.127 105.841 114.902C106.056 114.673 106.303 114.476 106.573 114.317C106.75 114.214 106.932 114.124 107.122 114.049L107.463 113.939C107.588 113.905 107.714 113.881 107.841 113.866H111.11V120.671C109.981 120.748 108.869 120.982 107.805 121.366C107 121.637 106.287 122.127 105.744 122.781C104.939 123.878 104.841 125.585 105.744 127.866C106.646 130.146 108.256 132.549 109.659 135.634C110.027 136.466 110.336 137.32 110.585 138.195C110.82 139.081 110.983 139.98 111.073 140.89C111.244 142.539 111.276 144.199 111.171 145.854C111.012 149.012 110.561 151.951 110.354 154.72C110.256 156.061 110.244 157.573 110.073 159.244C109.93 161.185 109.395 163.077 108.5 164.805C107.899 165.881 107.066 166.81 106.061 167.524C105.564 167.894 105.028 168.209 104.463 168.463L103.646 168.756C103.398 168.847 103.146 168.924 102.89 168.988C101.237 169.396 99.5439 169.634 97.8414 169.695C94.7241 169.771 91.6056 169.612 88.5122 169.22L91.4512 163.671C93.5962 166.256 96.0871 168.534 98.8536 170.439C101.438 172.285 104.399 173.535 107.524 174.098L108.598 174.451C108.709 174.487 108.815 174.536 108.915 174.598C108.93 174.591 108.947 174.587 108.963 174.587C108.98 174.587 108.997 174.591 109.012 174.598C109.043 174.611 108.719 174.598 108.646 174.683C108.972 174.32 109.239 173.909 109.439 173.463C109.854 172.634 110.244 171.598 110.78 170.378L112.305 167.195C114.207 163.085 116.037 158.854 117.829 154.622C119.622 150.39 121.341 146.085 123.049 141.829L128.146 128.866L129.354 125.793L132.256 127.012C133.458 127.518 134.79 127.633 136.061 127.341C137.506 126.986 138.855 126.315 140.012 125.378C142.61 123.297 144.644 120.596 145.927 117.524C147.235 114.237 148.013 110.763 148.232 107.232C148.415 103.793 147.854 100.366 146.171 98.0244L150.768 94.5854C151.699 95.8553 152.477 97.2307 153.085 98.683C153.675 100.063 154.144 101.491 154.488 102.951C154.843 104.409 155.076 105.894 155.183 107.39C155.3 108.962 155.226 110.543 154.963 112.098L151.841 108.841C158.061 107.938 164.403 108.4 170.427 110.195C176.325 111.972 181.903 114.677 186.951 118.207C191.923 121.649 196.529 125.593 200.695 129.976L203.756 133.268L206.683 136.659C207.61 137.878 208.561 138.939 209.488 140.134C210.415 141.329 211.329 142.573 212.207 143.793C219.07 153.911 222.88 165.79 223.183 178.012C223.475 190.069 221.058 202.038 216.11 213.037L216.219 212.671L215.28 217.732V217.951L215.207 218.11C212.136 224.599 208.247 230.669 203.634 236.171C201.325 238.916 198.806 241.477 196.098 243.829C193.41 246.196 190.525 248.33 187.476 250.207C181.381 253.938 174.739 256.691 167.793 258.366C164.384 259.381 160.896 260.107 157.366 260.537C153.804 260.935 150.199 260.7 146.719 259.841L146.878 259.195C150.287 259.913 153.796 260.024 157.244 259.524C160.692 258.995 164.09 258.179 167.402 257.085L172.439 255.488C174.061 254.866 175.707 254.268 177.317 253.573C180.508 252.195 183.569 250.534 186.463 248.61C189.365 246.708 192.102 244.566 194.646 242.207C197.2 239.865 199.565 237.324 201.719 234.61C206.033 229.177 209.631 223.214 212.427 216.866L212.305 217.244L213.146 212.171V212L213.219 211.805C217.732 201.209 219.816 189.738 219.317 178.232C218.818 166.846 215.064 155.842 208.5 146.524C201.61 137.439 193.451 128.915 184.11 122.61C179.485 119.447 174.39 117.035 169.012 115.463C163.726 113.955 158.176 113.61 152.744 114.451L148.951 115.073L149.537 111.159C150.018 106.56 148.851 101.94 146.244 98.122L150.841 94.6952C152.195 96.598 153.138 98.7618 153.61 101.049C154.052 103.168 154.224 105.337 154.122 107.5C153.919 111.677 153.046 115.795 151.537 119.695C150.722 121.732 149.652 123.658 148.354 125.427C147.053 127.213 145.519 128.816 143.793 130.195C141.945 131.699 139.788 132.778 137.476 133.354C134.955 133.937 132.316 133.732 129.915 132.768L134 131.061L129.122 143.988C127.378 148.341 125.707 152.622 123.939 156.976C122.171 161.329 120.39 165.585 118.39 169.866L116.927 172.963C116.524 173.854 116.122 174.988 115.512 176.232C115.171 176.94 114.763 177.614 114.293 178.244C113.697 179.097 112.928 179.816 112.037 180.354C110.927 180.987 109.65 181.264 108.378 181.146C107.836 181.072 107.301 180.949 106.78 180.781C106.354 180.61 105.927 180.427 105.561 180.232L106.634 180.585C102.515 179.879 98.6036 178.267 95.1829 175.866C91.8993 173.615 88.9372 170.928 86.378 167.878L80.9512 161.488L89.317 162.329C92.0713 162.673 94.8472 162.811 97.6219 162.744C98.8556 162.697 100.081 162.525 101.28 162.232C101.381 162.208 101.479 162.176 101.573 162.134C101.649 162.104 101.726 162.08 101.805 162.061C101.89 161.976 102.037 161.963 102.098 161.878C102.304 161.724 102.471 161.523 102.585 161.293C103.007 160.376 103.248 159.386 103.293 158.378C103.427 157.159 103.439 155.695 103.549 154.085C103.78 150.939 104.207 148.098 104.329 145.354C104.394 144.068 104.354 142.779 104.207 141.5C104.094 140.38 103.794 139.288 103.317 138.268C102.293 135.976 100.61 133.39 99.317 130.232C98.5754 128.462 98.1861 126.565 98.1707 124.646C98.1707 124.11 98.1707 123.573 98.3048 123.049C98.439 122.524 98.5244 121.976 98.6829 121.463C98.8414 120.951 99.0731 120.451 99.2926 119.963C99.565 119.439 99.8821 118.943 100.244 118.476C101.554 116.811 103.303 115.544 105.293 114.817C106.999 114.178 108.791 113.796 110.61 113.683V120.488H108.646H109.085L109.39 120.39C109.57 120.316 109.745 120.231 109.915 120.134C110.183 119.971 110.428 119.774 110.646 119.549C110.862 119.32 111.045 119.068 111.195 118.793L111.366 118.402C111.45 118.172 111.511 117.937 111.549 117.695C111.649 116.968 111.513 116.227 111.159 115.583C110.805 114.94 110.253 114.427 109.585 114.122C109.413 114.043 109.233 113.982 109.049 113.939H108.707H110.573L110.756 120.72C108.098 120.72 105.683 120.439 103.439 120.5C101.46 120.462 99.4993 120.88 97.7073 121.72L98.1097 121.476C97.7336 121.739 97.4279 122.091 97.2195 122.5C96.878 123.207 96.5966 123.941 96.378 124.695C96.0203 125.885 95.5208 127.027 94.8902 128.098C94.0934 129.358 93.0208 130.421 91.7533 131.207C90.4859 131.993 89.0566 132.481 87.5731 132.634C86.1715 132.659 84.7789 132.407 83.4756 131.89C81.2711 131.135 79.2097 130.014 77.378 128.573L82.5975 126.488C82.3925 127.548 82.1237 128.594 81.7926 129.622C81.4959 130.417 81.2439 131.226 81.0365 132.049C80.9625 132.399 80.9625 132.76 81.0365 133.11C81.1683 133.344 81.3573 133.541 81.5853 133.683L88.1585 138.561L80.1219 139.561C78.6817 139.749 77.2185 139.65 75.817 139.268C74.4278 138.901 73.1232 138.267 71.9756 137.402C69.8106 135.748 68.1955 133.478 67.3414 130.89L72.8536 131.951C71.7843 133.189 71.1091 134.718 70.9146 136.341C70.7048 137.814 71.0671 139.311 71.9268 140.524L76.878 147.232L68.7195 145.61C67.277 145.327 65.8758 144.864 64.5487 144.232C63.0469 143.514 61.7194 142.478 60.6585 141.195C59.5217 139.769 58.8341 138.037 58.6829 136.22C58.571 134.605 58.7782 132.985 59.2926 131.451L62.6219 135.549C61.8462 135.631 61.1121 135.941 60.5122 136.439C59.7722 137.068 59.1559 137.828 58.6951 138.683C57.6007 140.75 56.8705 142.99 56.5365 145.305L55.317 152.622L50.9878 146.524C49.5413 144.5 48.4903 142.22 47.8902 139.805C47.3033 137.413 47.1423 134.936 47.4146 132.488C47.6475 130.185 48.1341 127.915 48.8658 125.72C49.0365 125.183 49.2195 124.646 49.439 124.061C49.6853 123.455 49.9658 122.866 50.2804 122.293C50.8935 121.187 51.6211 120.149 52.4512 119.195C54.1039 117.411 56.0561 115.929 58.2195 114.817C59.2792 114.233 60.3844 113.735 61.5243 113.329L62.4878 113.024L63.2682 112.841L64.8048 112.476C68.7164 111.551 72.5214 110.223 76.1585 108.512C79.6237 106.893 82.7263 104.591 85.2804 101.744C85.8696 101.041 86.4114 100.299 86.9024 99.5244C87.1341 99.122 87.4146 98.7561 87.6219 98.3049L88.2195 97.0854C88.5995 96.248 88.9294 95.3888 89.2073 94.5122L89.5243 93.1586C89.6341 92.683 89.7317 92.3415 89.8658 91.6586C90.3704 89.1903 91.4112 86.8631 92.9146 84.8415C93.7419 83.7529 94.748 82.8127 95.8902 82.061C97.0722 81.3183 98.3838 80.8052 99.7561 80.5488C102.186 80.1557 104.669 80.226 107.073 80.7561C109.28 81.183 111.329 81.7805 113.171 82.1098L110.305 83.4391C116.896 72.2907 126.958 63.6082 138.951 58.7195C144.908 56.2688 151.257 54.9058 157.695 54.6952C164.176 54.488 170.632 55.5999 176.671 57.9634L187.866 62.3781L175.829 62.683C173.788 62.7649 171.765 63.0966 169.805 63.6708C167.787 64.24 165.83 65.0079 163.963 65.9634C162.133 66.8965 160.425 68.0516 158.878 69.4025C157.428 70.647 156.253 72.1794 155.427 73.9025L152.134 70.9147C157.865 67.9132 164.041 65.8543 170.427 64.8171C176.758 63.776 183.206 63.6487 189.573 64.4391C202.343 65.9738 214.43 71.042 224.476 79.0732L236.134 88.4878L222.354 82.7439C220.479 81.9096 218.694 80.8882 217.024 79.6952C216.219 79.1342 215.427 78.561 214.585 77.9756L213.366 77.0488L212.768 76.5244L212.427 76.2195L212.207 75.9756C212.136 75.9118 212.074 75.8379 212.024 75.7561L211.89 75.561C211.832 75.4579 211.779 75.3521 211.732 75.2439V74.9878C211.727 74.9269 211.727 74.8658 211.732 74.8049C211.679 74.4905 211.695 74.1684 211.779 73.8609C211.864 73.5534 212.014 73.268 212.219 73.0244C212.543 72.6734 212.97 72.4343 213.439 72.3415H213.963C214.044 72.3278 214.127 72.3278 214.207 72.3415L214.5 72.4147H214.646L214.976 72.561L215.39 72.7927L216.061 73.2073L217.28 74.0122L219.646 75.6586L224.268 78.9878L236.268 87.6464L222.341 82.622C217.785 80.892 212.988 79.8799 208.122 79.622C203.366 79.4512 198.585 80.4147 194.951 83.1586L193.598 79.5976C193.679 79.589 193.758 79.5641 193.829 79.5244C193.901 79.4842 193.829 79.5244 193.768 79.6464C193.73 79.7283 193.702 79.8142 193.683 79.9025V80.1586C193.669 80.3525 193.694 80.5476 193.756 80.7317C193.858 81.0449 194.034 81.3292 194.268 81.561C194.422 81.6952 194.593 81.8008 194.78 81.8781L195.11 82C195.391 82.0561 195.682 82.0561 195.963 82L196.183 81.9025H196.122L195.976 82.0244C195.768 82.2317 195.537 82.5 195.293 82.7805L193.756 79.5854C203.768 79.5194 213.723 81.0846 223.232 84.2195C232.835 87.368 241.593 92.6649 248.841 99.7073L254.598 105.415L246.988 102.659C246.271 102.41 245.581 102.092 244.927 101.707C244.55 101.48 244.195 101.218 243.866 100.927C243.646 100.722 243.446 100.498 243.268 100.256C243.134 100.05 243.024 99.8301 242.939 99.5976C242.835 99.2988 242.803 98.9796 242.845 98.666C242.887 98.3524 243.003 98.0532 243.183 97.7927C243.324 97.5952 243.494 97.4285 243.695 97.2927C243.849 97.1977 244.012 97.1199 244.183 97.061C244.307 97.0089 244.439 96.98 244.573 96.9756H244.89C245.145 96.9854 245.393 97.0301 245.634 97.1098C245.911 97.2033 246.176 97.3252 246.427 97.4756C246.798 97.7065 247.148 97.9667 247.476 98.2561C248.028 98.7683 248.532 99.3252 248.988 99.9269L253.451 105.707L246.817 102.622C243.284 100.96 239.478 99.9515 235.585 99.6464C233.697 99.5037 231.798 99.6144 229.939 99.9756C228.185 100.314 226.539 101.076 225.146 102.195L224.207 99.2317C231.019 99.8798 237.68 101.635 243.927 104.427C250.207 107.284 255.81 111.44 260.366 116.622L263.11 119.695L259 119.085C257.583 118.842 256.218 118.359 254.963 117.659C253.744 117.049 252.707 116.439 251.659 115.927C250.757 115.451 249.75 115.212 248.732 115.232C247.782 115.36 246.898 115.787 246.207 116.451L246.037 114.11C248.556 115.804 250.934 117.701 253.146 119.781C255.313 121.886 257.326 124.144 259.171 126.537C262.755 131.335 265.859 136.473 268.439 141.878C269.756 144.549 270.976 147.232 272.171 149.963C273.366 152.695 274.232 155.573 275.244 158.378L276.463 162.695C276.829 164.146 277.317 165.561 277.549 167.037L278.378 171.439C278.512 172.171 278.683 172.89 278.78 173.634L279.024 175.854C280.454 187.698 279.951 199.695 277.537 211.378C275.08 222.999 271.269 234.291 266.183 245.024C264.878 247.683 263.585 250.354 262.195 252.963C260.805 255.573 259.402 258.183 257.841 260.695C254.924 265.887 251.421 270.727 247.402 275.122C239.427 283.963 229.805 291.098 219.756 297.281C217.256 298.841 214.707 300.342 212.146 301.805C209.6 303.323 206.979 304.711 204.293 305.963C198.902 308.413 193.343 310.476 187.659 312.134C181.973 313.752 176.183 314.975 170.329 315.793C164.472 316.588 158.569 316.995 152.659 317.012L152.61 316.415Z" fill="#672F25"/>
<path d="M270.317 148.61C259.342 125.512 245.598 115.207 245.598 115.207C245.598 115.207 244.024 113.915 249.744 114.427C253.105 114.71 256.35 115.793 259.207 117.585C254.354 112.258 248.449 107.994 241.866 105.061C234.281 101.878 224.037 100.939 224.037 100.939C224.037 100.939 224.293 98.2561 232.024 98.3293C237.321 98.4256 242.571 99.3427 247.585 101.049C252.6 102.755 241.805 92.939 223.256 86.4147C205.793 80.3171 193.793 81.5366 193.793 81.5366C193.793 81.5366 195.768 78.4512 204.024 77.7927C210.505 77.4107 216.994 78.3911 223.073 80.6708C229.151 82.95 205.268 67.4269 186.488 66.2439C168.646 65.122 153.232 72.9512 153.232 72.9512C153.232 72.9512 154.317 69.622 161.659 64.9025C165.859 62.1105 170.732 60.4975 175.768 60.2317C180.805 59.9659 161.207 54.1342 141.402 60.3415C125.463 65.3659 115.951 79.3659 112.866 84.5976C107.39 83.9878 103.866 83.4878 103.866 83.4878C101.659 83.0366 96.6708 81.622 93.7561 89.9634C90.8415 98.3049 91.0366 102.622 84.183 108.451C77.3293 114.281 59.3049 115.024 55.6952 120.11C52.0854 125.195 49.8049 133.207 50.4147 136.768C51.0805 139.582 52.1224 142.294 53.5122 144.829C53.9745 141.9 54.9619 139.078 56.4269 136.5C57.0094 135.406 57.8421 134.464 58.8571 133.752C59.8721 133.04 61.0409 132.578 62.2683 132.402C64.7561 132.049 60.8903 136.354 62.561 138.963C64.2318 141.573 69.3415 142.5 69.3415 142.5C68.134 140.769 67.5532 138.679 67.6952 136.573C67.6525 135.34 67.8668 134.111 68.3245 132.964C68.7822 131.818 69.4732 130.78 70.3537 129.915C72.9757 137.549 79.6708 136.39 79.6708 136.39C78.3204 134.966 77.5581 133.084 77.5366 131.122C77.3537 128.512 78.3415 127.756 79.5 126.171C79.5 126.171 85.7074 130.183 89.4879 128.915C93.2683 127.646 92.8415 118.476 99.3293 117.622C102.173 117.289 104.987 116.735 107.744 115.963C105.5 116.841 100.756 119.451 101.878 125.72C103.342 133.854 107.854 136.939 107.5 141.329C107.146 145.72 107.256 160.5 105.22 163.878C103.183 167.256 88.8781 165.695 88.8781 165.695C88.8781 165.695 94.0854 172.037 99.6708 174.524C105.256 177.012 109.72 179 111.756 175.622C113.793 172.244 131.073 129.89 131.073 129.89C131.073 129.89 135.024 131.89 142.012 127.768C149 123.646 150.549 112.061 150.549 112.061L150.768 111.976C151.132 108.589 151.005 105.167 150.39 101.817C150.091 100.29 149.683 98.7864 149.171 97.3171C148.988 96.9719 148.784 96.6379 148.561 96.3171C148.338 95.9964 148.756 96.3171 149.171 97.3171C150.61 100.041 151.606 102.976 152.122 106.012C152.531 107.843 152.593 109.733 152.305 111.585C156.512 110.732 168.402 110.024 186.963 122.476L186.793 122.134C218.061 144.402 229.817 174.366 213.963 215.439C206.768 234.159 182.89 263.439 144.768 259.341C146.598 278.476 148.098 297.622 149.902 316.756C173.91 317.063 197.477 310.303 217.671 297.317C253.573 274.341 263.451 247.695 263.451 247.695C263.451 247.695 291.439 193.293 270.317 148.61Z" fill="#E1251B"/>
<path d="M58.183 123.207L66.0854 119.805L65.9025 122.451L58.183 123.207ZM149.768 94.6952C149.768 94.6952 155.573 99.183 158.305 103.366C159.996 106.264 161.199 109.419 161.866 112.707L149.561 116.72C150.91 112.467 151.269 107.962 150.61 103.549C149.939 99.2683 143.427 90.7683 143.427 90.7683L149.768 94.6952ZM162.744 64.5C162.744 64.5 151.5 71.6708 148.793 74.2561C146.945 76.1273 145.309 78.1967 143.915 80.4269C142.521 82.6573 149.256 76.4391 152.451 74.3293C155.646 72.2195 166.159 68.2927 166.159 68.2927L159.11 69.1708L162.744 64.5Z" fill="#672F25"/>
<path d="M217.415 160.244C222.598 175.841 222.293 193.939 214.232 214.841C207.012 233.622 183.037 263 144.72 258.744C144.988 261.671 145.268 264.598 145.537 267.524C185.622 273.805 210.683 243.354 218.085 224.085C227.793 198.963 226.561 177.854 217.415 160.244Z" fill="#F2B131"/>
<path d="M143.89 98.6464C143.89 98.6464 149.329 106.512 148.232 113.146C147.134 119.781 144.573 124.781 140.268 126.134C137.347 126.984 134.333 127.475 131.293 127.598C136.493 125.064 140.55 120.667 142.658 115.281C144.719 109.983 145.148 104.19 143.89 98.6464Z" fill="#FF7F40"/>
<path d="M102.793 129.329C101.768 124.232 100.744 117.256 106.159 116.805C109.515 116.54 112.89 116.659 116.22 117.159C113.405 115.607 110.185 114.948 106.988 115.268C103.754 115.863 100.629 116.945 97.7195 118.476L100.549 122.756C100.549 122.756 103.11 130.854 102.793 129.329ZM79.5 126.171C79.5 126.171 87.2317 128.293 88.5976 127.695C89.9634 127.098 94.3659 121.256 94.3659 121.256L92.0122 130.537L85.9146 131.012L79.5 126.171ZM101.695 165.268C101.695 165.268 94.1829 165.634 93.5976 167.366C93.0122 169.098 100.463 176.293 100.463 176.293L85.9146 164.744L101.695 165.268Z" fill="#672F25"/>
<path d="M97.3903 168.476C97.3903 168.476 98.0732 169.951 102.841 172.659C107.61 175.366 109.329 174.963 110.732 173.341C112.134 171.72 127.378 130.451 127.378 130.451C127.378 130.451 112.439 168.695 107.085 169.256C103.833 169.51 100.56 169.247 97.3903 168.476Z" fill="#FF7F40"/>
<path d="M143.805 80.5731C143.805 80.5731 146.744 70.2195 158.439 63.2805C164.537 59.6219 175.756 60.2439 175.756 60.2439C175.756 60.2439 165.902 63.4634 161.561 66.817L143.805 80.5731ZM193.793 81.5853C193.793 81.5853 198.915 74.1097 207.11 74.4268C215.305 74.7439 226.707 82.3536 226.707 82.3536C226.707 82.3536 216.122 78.6219 209.183 79.6585C202.244 80.6951 193.793 81.5853 193.793 81.5853Z" fill="#672F25"/>
<path d="M120.488 74.5732C120.488 74.5732 135.732 58.1707 150.061 57.6829C164.39 57.1951 171.671 58.4634 171.671 58.4634C171.671 58.4634 154.854 58.1463 142.5 62.3781C134.571 65.2693 127.144 69.3842 120.488 74.5732ZM143.805 80.5732C143.805 80.5732 163.963 64.2317 184.171 66.2805C196.193 67.431 207.833 71.1267 218.317 77.122C228.801 83.1159 195.268 67.4634 174.061 70.8659C152.854 74.2683 143.744 81.3049 143.744 81.3049M193.793 81.5854C193.793 81.5854 208.098 79.4756 225.817 87.4512C243.537 95.4268 246.549 99.6463 246.549 99.6463C238.638 95.0261 230.242 91.2921 221.512 88.5122C207.39 84.1829 193.793 81.5854 193.793 81.5854Z" fill="#FF7F40"/>
<path d="M65.0122 144.317C65.0122 144.317 70.3171 145.951 72.5 146.402C73.9903 146.661 75.511 146.698 77.0122 146.512C78.5134 146.327 71.5122 142.756 70.9146 141.329C70.3171 139.902 68.4756 142.866 68.4756 142.866L65.0122 144.317ZM78.4268 139.22L85.2317 137.317L81.3415 133.817L78.4268 139.22ZM93.8903 103.695C95.8374 101.383 97.5377 98.8731 98.9634 96.2073C100.256 93.4719 101.396 90.6667 102.378 87.8049L102.89 100L93.8903 103.695Z" fill="#672F25"/>
<path d="M91.8293 147.305C91.4496 147.324 91.0714 147.244 90.7318 147.073C90.4056 146.914 90.1152 146.69 89.8781 146.415C89.6314 146.121 89.4449 145.781 89.3293 145.415C89.1978 145.021 89.1278 144.61 89.122 144.195C89.1158 143.781 89.1776 143.369 89.3049 142.976C89.4171 142.61 89.5952 142.266 89.8293 141.963C90.0574 141.678 90.3452 141.445 90.6708 141.28C91.0086 141.102 91.3854 141.01 91.7683 141.012C92.1472 141.003 92.523 141.082 92.8659 141.244C93.194 141.4 93.4818 141.629 93.7074 141.915C93.9501 142.209 94.1403 142.543 94.2683 142.902C94.3818 143.287 94.4427 143.684 94.4513 144.085C94.4513 144.499 94.3903 144.91 94.2683 145.305C94.1561 145.671 93.9781 146.015 93.744 146.317C93.5167 146.607 93.2297 146.844 92.9025 147.012C92.5744 147.195 92.2049 147.296 91.8293 147.305ZM91.8293 146.341C92.0565 146.346 92.2803 146.287 92.4757 146.171C92.6659 146.048 92.8281 145.885 92.9513 145.695C93.0897 145.477 93.1926 145.238 93.2561 144.988C93.3342 144.708 93.3667 144.424 93.3537 144.134C93.3586 143.841 93.3171 143.549 93.2318 143.268C93.1615 143.02 93.0502 142.785 92.9025 142.573C92.7781 142.383 92.6111 142.224 92.4147 142.11C92.2158 141.992 91.9874 141.932 91.7562 141.939C91.532 141.941 91.3126 142.004 91.122 142.122C90.9228 142.238 90.7552 142.401 90.6342 142.598C90.4951 142.811 90.392 143.046 90.3293 143.293C90.2634 143.572 90.2306 143.859 90.2318 144.146C90.2391 144.435 90.2797 144.72 90.3537 145C90.4253 145.25 90.535 145.481 90.683 145.695C90.8171 145.888 90.9838 146.046 91.183 146.171C91.3781 146.287 91.6025 146.346 91.8293 146.341Z" fill="url(#paint0_linear_189_100)"/>
<path d="M69.5244 156.622C69.1574 156.63 68.7937 156.55 68.4634 156.39C68.1468 156.243 67.8674 156.026 67.6463 155.756C67.408 155.472 67.226 155.145 67.1098 154.793C66.9783 154.4 66.9124 153.988 66.9146 153.573C66.8998 153.16 66.9576 152.747 67.0854 152.354C67.203 152.006 67.385 151.683 67.6219 151.402C67.839 151.123 68.1134 150.894 68.4268 150.732C68.7537 150.559 69.1183 150.471 69.4878 150.476C69.8537 150.471 70.2159 150.545 70.5488 150.695C70.861 150.855 71.1378 151.074 71.3659 151.341C71.5976 151.631 71.7793 151.956 71.9024 152.305C72.0341 152.698 72.1 153.11 72.0976 153.524C72.1061 153.938 72.0476 154.349 71.9268 154.744C71.8121 155.096 71.639 155.425 71.4146 155.72C70.9707 156.301 70.2805 156.644 69.5488 156.646L69.5244 156.622ZM69.5244 155.683C69.7433 155.683 69.9581 155.624 70.1463 155.512C70.3352 155.397 70.494 155.238 70.6098 155.049C70.7487 154.846 70.8481 154.618 70.9024 154.378C70.9732 154.106 71.0057 153.829 71 153.549C70.9977 153.268 70.9567 152.989 70.878 152.72C70.8091 152.48 70.702 152.254 70.561 152.049C70.44 151.863 70.277 151.709 70.0854 151.598C69.8961 151.475 69.6766 151.408 69.4512 151.402C69.2354 151.409 69.0244 151.472 68.8415 151.585C68.6524 151.695 68.4939 151.851 68.378 152.037C68.2391 152.24 68.1397 152.467 68.0854 152.707C68.015 152.978 67.9821 153.257 67.9878 153.537C67.9862 153.819 68.0228 154.095 68.0976 154.366C68.1675 154.607 68.2732 154.83 68.4146 155.037C68.5439 155.22 68.7098 155.373 68.9024 155.488C69.0882 155.608 69.3032 155.676 69.5244 155.683Z" fill="url(#paint1_linear_189_100)"/>
<path d="M61.805 164.646C61.438 164.654 61.0743 164.575 60.744 164.415C60.4294 164.264 60.1508 164.048 59.9269 163.78C59.6932 163.493 59.5116 163.167 59.3903 162.817C59.2648 162.423 59.199 162.012 59.1952 161.598C59.1851 161.184 59.2428 160.772 59.366 160.378C59.4757 160.024 59.6501 159.694 59.8782 159.402C60.1038 159.127 60.3806 158.899 60.6952 158.732C61.0221 158.573 61.3806 158.485 61.744 158.476C62.1111 158.468 62.4745 158.548 62.805 158.707C63.1221 158.855 63.4013 159.071 63.6221 159.341C63.8562 159.629 64.0379 159.955 64.1586 160.305C64.294 160.698 64.3647 161.11 64.366 161.524C64.3684 161.937 64.3111 162.348 64.1952 162.744C64.0815 163.098 63.9037 163.429 63.6708 163.719C63.2269 164.301 62.5367 164.644 61.805 164.646ZM61.805 163.707C62.0239 163.707 62.2387 163.648 62.4269 163.537C62.6147 163.415 62.7692 163.261 62.8903 163.073C63.0204 162.863 63.118 162.64 63.183 162.402C63.2489 162.13 63.2773 161.854 63.2684 161.573C63.2701 161.293 63.2332 161.014 63.1586 160.744C63.0845 160.507 62.9778 160.281 62.8416 160.073C62.7179 159.89 62.5556 159.736 62.366 159.622C62.1806 159.515 61.9703 159.459 61.7562 159.459C61.5421 159.459 61.3318 159.515 61.1464 159.622C60.9574 159.737 60.7952 159.89 60.6708 160.073C60.539 160.285 60.4403 160.515 60.3782 160.756C60.3141 161.028 60.2814 161.306 60.2806 161.585C60.2895 161.867 60.3302 162.143 60.4025 162.415C60.4647 162.656 60.5721 162.884 60.7196 163.085C60.8428 163.268 61.0062 163.423 61.1952 163.537C61.3818 163.652 61.5977 163.711 61.8172 163.707H61.805Z" fill="url(#paint2_linear_189_100)"/>
<path d="M69.622 164.549C69.255 164.557 68.8914 164.477 68.5611 164.317C68.2444 164.17 67.9651 163.953 67.744 163.683C67.5057 163.399 67.3236 163.072 67.2074 162.719C67.076 162.326 67.01 161.914 67.0123 161.5C66.9974 161.087 67.0552 160.674 67.183 160.28C67.2928 159.927 67.4672 159.596 67.6952 159.305C68.1391 158.723 68.8294 158.38 69.5611 158.378C69.9281 158.371 70.2916 158.45 70.622 158.61C70.9366 158.76 71.2152 158.977 71.4391 159.244C71.6733 159.532 71.855 159.857 71.9757 160.207C72.1074 160.6 72.1733 161.012 72.1708 161.427C72.1857 161.84 72.1279 162.253 72.0001 162.646C71.8854 162.998 71.7122 163.328 71.4879 163.622C71.044 164.204 70.3538 164.546 69.622 164.549ZM69.622 163.61C69.8409 163.61 70.0558 163.551 70.244 163.439C70.4329 163.323 70.5917 163.164 70.7074 162.976C70.8464 162.772 70.9457 162.545 71.0001 162.305C71.0708 162.033 71.1033 161.756 71.0977 161.476C71.0954 161.195 71.0543 160.916 70.9757 160.646C70.9069 160.409 70.8042 160.183 70.6708 159.976C70.545 159.79 70.3781 159.635 70.183 159.524C69.9961 159.411 69.7796 159.356 69.5611 159.366C69.3422 159.366 69.1274 159.425 68.9391 159.537C68.7525 159.65 68.594 159.805 68.4757 159.988C68.3355 160.195 68.2355 160.427 68.183 160.671C68.111 160.941 68.0782 161.22 68.0855 161.5C68.083 161.783 68.1237 162.059 68.2074 162.329C68.2726 162.568 68.3755 162.794 68.5123 163C68.6432 163.185 68.8058 163.335 69.0001 163.451C69.1883 163.561 69.4048 163.612 69.622 163.598V163.61Z" fill="url(#paint3_linear_189_100)"/>
<path d="M69.7195 172.463C69.3537 172.481 68.9878 172.405 68.6586 172.244C68.3459 172.09 68.0679 171.875 67.8415 171.61C67.6032 171.326 67.4211 170.999 67.3049 170.646C67.1734 170.253 67.1075 169.841 67.1098 169.427C67.0997 169.014 67.1573 168.602 67.2805 168.207C67.3915 167.85 67.5647 167.516 67.7927 167.22C68.011 166.945 68.2854 166.72 68.5976 166.561C68.9244 166.388 69.289 166.3 69.6586 166.305C70.0173 166.294 70.3736 166.366 70.6995 166.517C71.0255 166.667 71.312 166.891 71.5366 167.171C71.772 167.456 71.9549 167.783 72.0732 168.134C72.2073 168.527 72.2732 168.939 72.2683 169.354C72.2832 169.767 72.2254 170.18 72.0976 170.573C71.9829 170.925 71.8097 171.255 71.5854 171.549C71.3659 171.826 71.0927 172.054 70.7805 172.22C70.4512 172.384 70.0878 172.467 69.7195 172.463ZM69.7195 171.537C69.9348 171.538 70.1461 171.479 70.3293 171.366C70.5182 171.25 70.677 171.091 70.7927 170.902C70.9317 170.699 71.031 170.472 71.0854 170.232C71.161 169.962 71.1939 169.682 71.1829 169.402C71.186 169.121 71.1448 168.842 71.061 168.573C70.9939 168.335 70.8911 168.109 70.7561 167.902C70.6303 167.717 70.4634 167.562 70.2683 167.451C70.0829 167.344 69.8726 167.288 69.6586 167.288C69.4445 167.288 69.2342 167.344 69.0488 167.451C68.8598 167.561 68.7012 167.717 68.5854 167.902C68.4464 168.106 68.3471 168.333 68.2927 168.573C68.2223 168.844 68.1895 169.123 68.1951 169.402C68.1984 169.685 68.239 169.961 68.3171 170.232C68.3823 170.47 68.4852 170.697 68.622 170.902C68.7553 171.085 68.9179 171.235 69.1098 171.354C69.2968 171.47 69.5117 171.533 69.7317 171.537H69.7195Z" fill="url(#paint4_linear_189_100)"/>
<path d="M77.1952 164.451C76.8365 164.462 76.4801 164.39 76.1542 164.239C75.8283 164.089 75.5417 163.865 75.3171 163.585C75.0763 163.303 74.8939 162.975 74.7805 162.622C74.6491 162.229 74.5832 161.817 74.5854 161.402C74.5706 160.989 74.6284 160.576 74.7561 160.183C74.8709 159.831 75.044 159.501 75.2683 159.207C75.7122 158.626 76.4025 158.283 77.1342 158.28C77.5013 158.273 77.8647 158.352 78.1952 158.512C78.5097 158.663 78.7883 158.879 79.0122 159.146C79.2415 159.439 79.4204 159.76 79.5488 160.11C79.6805 160.502 79.7464 160.915 79.7439 161.329C79.7588 161.743 79.701 162.155 79.5732 162.549C79.4658 162.903 79.292 163.235 79.061 163.524C78.6171 164.106 77.9269 164.449 77.1952 164.451ZM77.1952 163.524C77.4152 163.521 77.6301 163.457 77.8171 163.341C78.0037 163.228 78.1622 163.073 78.2805 162.89C78.4187 162.68 78.5163 162.453 78.5732 162.207C78.6439 161.94 78.6765 161.667 78.6708 161.39C78.6685 161.11 78.6275 160.83 78.5488 160.561C78.4798 160.322 78.3728 160.095 78.2318 159.89C78.1064 159.708 77.9444 159.555 77.7561 159.439C77.5708 159.332 77.3605 159.276 77.1464 159.276C76.9323 159.276 76.722 159.332 76.5366 159.439C76.35 159.552 76.1915 159.707 76.0732 159.89C75.935 160.1 75.8374 160.328 75.7805 160.573C75.7101 160.844 75.6773 161.123 75.683 161.402C75.6813 161.685 75.7179 161.961 75.7927 162.232C75.8622 162.471 75.9683 162.698 76.1098 162.902C76.2354 163.088 76.4025 163.243 76.5976 163.354C76.7781 163.461 76.9842 163.52 77.1952 163.524Z" fill="url(#paint5_linear_189_100)"/>
<path d="M46.3536 172.756C45.9878 172.771 45.6231 172.695 45.2926 172.537C44.98 172.383 44.702 172.167 44.4756 171.902C44.2416 171.617 44.0637 171.29 43.9512 170.939C43.8177 170.546 43.7477 170.134 43.7439 169.72C43.7398 169.307 43.7973 168.896 43.9146 168.5C44.0256 168.143 44.1987 167.809 44.4268 167.512C44.6536 167.241 44.9304 167.017 45.2439 166.854C45.5707 166.68 45.9353 166.593 46.3048 166.598C46.6701 166.594 47.0319 166.669 47.3658 166.817C47.6768 166.973 47.9512 167.193 48.1707 167.463C48.4109 167.746 48.5939 168.073 48.7073 168.427C48.8451 168.818 48.9158 169.231 48.9146 169.646C48.917 170.059 48.8597 170.47 48.7439 170.866C48.6291 171.218 48.456 171.547 48.2317 171.841C48.0065 172.117 47.7287 172.345 47.4146 172.512C47.0853 172.677 46.7219 172.76 46.3536 172.756ZM46.3536 171.829C46.5725 171.829 46.7873 171.77 46.9756 171.659C47.1634 171.537 47.3178 171.383 47.439 171.195C47.5691 170.985 47.6666 170.762 47.7317 170.524C47.7959 170.252 47.8284 169.976 47.8292 169.695C47.8205 169.415 47.7796 169.137 47.7073 168.866C47.6364 168.627 47.5295 168.401 47.3902 168.195C47.2666 168.012 47.1042 167.858 46.9146 167.744C46.7228 167.63 46.5035 167.571 46.2804 167.573C46.0646 167.579 45.8536 167.643 45.6707 167.756C45.479 167.867 45.3161 168.022 45.1951 168.207C45.0643 168.415 44.9657 168.641 44.9024 168.878C44.8383 169.15 44.8056 169.428 44.8048 169.707C44.8138 169.989 44.8544 170.265 44.9268 170.537C44.9967 170.777 45.1024 171.001 45.2439 171.207C45.3731 171.388 45.5317 171.538 45.7195 171.659C45.9146 171.774 46.139 171.834 46.3658 171.829H46.3536Z" fill="url(#paint6_linear_189_100)"/>
<path d="M46.4513 180.256C46.0855 180.268 45.7221 180.193 45.3904 180.037C45.0803 179.9 44.8021 179.701 44.5733 179.451C44.335 179.167 44.1529 178.84 44.0367 178.488C43.9093 178.094 43.8435 177.682 43.8416 177.268C43.8315 176.855 43.8891 176.443 44.0123 176.049C44.1233 175.691 44.2965 175.357 44.5245 175.061C44.7391 174.783 45.0148 174.559 45.3294 174.402C45.6562 174.229 46.0209 174.141 46.3904 174.146C46.7562 174.129 47.1221 174.205 47.4513 174.366C47.7696 174.517 48.0489 174.738 48.2684 175.012C48.5067 175.296 48.6888 175.623 48.805 175.976C48.9391 176.368 49.005 176.78 49.0001 177.195C49.0172 177.609 48.9599 178.022 48.8294 178.415C48.7296 178.776 48.5551 179.113 48.3172 179.402C48.1023 179.68 47.827 179.905 47.5123 180.061C47.1806 180.213 46.816 180.28 46.4513 180.256ZM46.4513 179.329C46.667 179.334 46.879 179.274 47.0611 179.159C47.2489 179.037 47.4034 178.883 47.5245 178.695C47.6635 178.492 47.7628 178.264 47.8172 178.024C47.8928 177.755 47.9257 177.475 47.9148 177.195C47.9186 176.918 47.8774 176.642 47.7928 176.378C47.732 176.138 47.6288 175.911 47.4879 175.707C47.3635 175.517 47.1965 175.358 47.0001 175.244C46.8107 175.136 46.5959 175.082 46.3782 175.085C46.1593 175.085 45.9445 175.144 45.7562 175.256C45.57 175.375 45.4119 175.533 45.2928 175.72C45.1619 175.928 45.0644 176.152 45.0001 176.39C44.9297 176.661 44.8969 176.94 44.9026 177.22C44.9123 177.496 44.953 177.768 45.0245 178.037C45.0855 178.277 45.1879 178.504 45.3294 178.707C45.4619 178.894 45.6245 179.049 45.8172 179.171C46.0138 179.282 46.2376 179.337 46.4635 179.329H46.4513Z" fill="url(#paint7_linear_189_100)"/>
<path d="M38.8902 187.463C38.5244 187.481 38.1585 187.405 37.8293 187.244C37.5126 187.097 37.2333 186.88 37.0122 186.61C36.7739 186.326 36.5918 185.999 36.4756 185.646C36.3441 185.253 36.2782 184.841 36.2805 184.427C36.2656 184.014 36.3234 183.601 36.4512 183.207C36.5622 182.85 36.7354 182.516 36.9634 182.22C37.1817 181.945 37.4561 181.72 37.7683 181.561C38.0951 181.388 38.4597 181.3 38.8293 181.305C39.1951 181.3 39.5573 181.374 39.8902 181.524C40.2024 181.684 40.4793 181.904 40.7073 182.171C40.939 182.46 41.1207 182.785 41.2439 183.134C41.3756 183.527 41.4415 183.939 41.439 184.354C41.4539 184.767 41.3961 185.18 41.2683 185.573C41.1536 185.925 40.9804 186.255 40.7561 186.549C40.5366 186.826 40.2634 187.054 39.9512 187.22C39.6219 187.384 39.2585 187.467 38.8902 187.463ZM38.8902 186.537C39.1091 186.537 39.3239 186.478 39.5122 186.366C39.7011 186.25 39.8599 186.091 39.9756 185.902C40.1146 185.699 40.2139 185.472 40.2683 185.232C40.339 184.959 40.3715 184.683 40.3658 184.402C40.3636 184.122 40.3225 183.843 40.2439 183.573C40.177 183.333 40.0698 183.106 39.9268 182.902C39.8058 182.717 39.6429 182.562 39.4512 182.451C39.2658 182.344 39.0555 182.288 38.8415 182.288C38.6274 182.288 38.4171 182.344 38.2317 182.451C38.0427 182.561 37.8841 182.717 37.7683 182.902C37.6293 183.106 37.53 183.333 37.4756 183.573C37.4052 183.844 37.3724 184.123 37.378 184.402C37.3764 184.685 37.413 184.961 37.4878 185.232C37.5573 185.471 37.6634 185.698 37.8049 185.902C37.9341 186.085 38.1 186.239 38.2927 186.354C38.4732 186.466 38.678 186.528 38.8902 186.537Z" fill="url(#paint8_linear_189_100)"/>
<path d="M61.9999 180.061C61.6341 180.078 61.2682 180.002 60.939 179.841C60.6232 179.687 60.3445 179.467 60.1219 179.195C59.8836 178.911 59.7015 178.584 59.5853 178.232C59.4579 177.838 59.3921 177.426 59.3902 177.012C59.3801 176.599 59.4377 176.187 59.5609 175.793C59.6719 175.435 59.845 175.101 60.0731 174.805C60.2877 174.527 60.5633 174.302 60.878 174.146C61.2048 173.973 61.5694 173.885 61.939 173.89C62.2977 173.879 62.654 173.952 62.9799 174.102C63.3058 174.252 63.5924 174.476 63.817 174.756C64.0553 175.04 64.2374 175.367 64.3536 175.72C64.4877 176.112 64.5536 176.524 64.5487 176.939C64.5658 177.352 64.5085 177.766 64.378 178.159C64.2782 178.52 64.1037 178.857 63.8658 179.146C63.6509 179.424 63.3756 179.649 63.0609 179.805C62.7344 179.978 62.3695 180.066 61.9999 180.061ZM61.9999 179.134C62.2155 179.138 62.4276 179.079 62.6097 178.963C62.7975 178.842 62.952 178.688 63.0731 178.5C63.2121 178.297 63.3114 178.069 63.3658 177.829C63.4414 177.56 63.4743 177.28 63.4633 177C63.4672 176.723 63.426 176.447 63.3414 176.183C63.2806 175.943 63.1774 175.716 63.0365 175.512C62.9089 175.325 62.7426 175.167 62.5487 175.049C62.3593 174.941 62.1445 174.887 61.9268 174.89C61.7079 174.89 61.493 174.949 61.3048 175.061C61.1186 175.18 60.9604 175.338 60.8414 175.524C60.7105 175.733 60.6129 175.957 60.5487 176.195C60.4783 176.466 60.4455 176.745 60.4511 177.024C60.4609 177.301 60.5016 177.573 60.5731 177.841C60.6349 178.083 60.7365 178.307 60.878 178.512C61.0081 178.702 61.1707 178.856 61.3658 178.976C61.5624 179.087 61.7861 179.142 62.0121 179.134H61.9999Z" fill="url(#paint9_linear_189_100)"/>
<path d="M77.0975 156.524C76.7292 156.528 76.3658 156.445 76.0365 156.28C75.7176 156.131 75.4347 155.915 75.2073 155.646C74.9778 155.358 74.8004 155.032 74.6829 154.683C74.5443 154.292 74.4781 153.878 74.4878 153.463C74.4729 153.05 74.5307 152.637 74.6585 152.244C74.7597 151.887 74.9341 151.555 75.1707 151.268C75.6146 150.687 76.3048 150.344 77.0365 150.341C77.4036 150.334 77.767 150.413 78.0975 150.573C78.4121 150.724 78.6907 150.94 78.9146 151.207C79.1438 151.495 79.3219 151.822 79.439 152.171C79.5743 152.563 79.6451 152.976 79.6463 153.39C79.656 153.804 79.5987 154.216 79.4756 154.61C79.3658 154.963 79.1914 155.294 78.9634 155.585C78.5195 156.167 77.8292 156.51 77.0975 156.512V156.524ZM77.0975 155.585C77.3164 155.585 77.5312 155.526 77.7195 155.415C77.9084 155.299 78.0672 155.14 78.1829 154.951C78.3138 154.742 78.4113 154.519 78.4756 154.28C78.5479 154.008 78.5804 153.732 78.5731 153.451C78.5644 153.171 78.5235 152.893 78.4512 152.622C78.3822 152.383 78.2751 152.156 78.1341 151.951C78.0105 151.768 77.8481 151.614 77.6585 151.5C77.4681 151.384 77.2469 151.329 77.0243 151.341C76.8096 151.344 76.5993 151.403 76.4146 151.512C76.228 151.626 76.0695 151.78 75.9512 151.963C75.8109 152.171 75.7109 152.402 75.6585 152.646C75.5829 152.916 75.55 153.196 75.5609 153.476C75.5593 153.758 75.5959 154.034 75.6707 154.305C75.7402 154.544 75.8463 154.771 75.9878 154.976C76.1134 155.161 76.2804 155.316 76.4756 155.427C76.6624 155.54 76.879 155.596 77.0975 155.585Z" fill="url(#paint10_linear_189_100)"/>
<path d="M83.3536 148.963L82.2195 149.293L81.9756 148.39L83.6585 147.829H84.439L84.5244 154.183H83.4756L83.3536 148.963Z" fill="url(#paint11_linear_189_100)"/>
<path d="M53.6708 159.707L52.5855 160.024L52.3538 159.159L53.9757 158.61H54.7318L54.805 164.707H53.744L53.6708 159.707Z" fill="url(#paint12_linear_189_100)"/>
<path d="M53.7804 167.622L52.6829 167.939L52.4512 167.073L54.0731 166.537H54.8292L54.9024 172.634H53.8414L53.7804 167.622Z" fill="url(#paint13_linear_189_100)"/>
<path d="M61.9756 167.524L60.8903 167.841L60.6464 166.976L62.2805 166.439H63.0366L63.1098 172.537H62.0488L61.9756 167.524Z" fill="url(#paint14_linear_189_100)"/>
<path d="M53.8658 175.122L52.7804 175.439L52.5365 174.573L54.1706 174.037H54.9267L54.9999 180.134H53.9267L53.8658 175.122Z" fill="url(#paint15_linear_189_100)"/>
<path d="M53.9634 182.244L52.8659 182.561L52.6342 181.695L54.2561 181.146H55.0122L55.0854 187.244H54.0244L53.9634 182.244Z" fill="url(#paint16_linear_189_100)"/>
<path d="M46.6098 182.329L45.5244 182.646L45.2805 181.781L46.8903 181.244H47.6464L47.7195 187.341H46.683L46.6098 182.329Z" fill="url(#paint17_linear_189_100)"/>
<path d="M165.183 107.902C165.183 107.902 187.317 119.024 187.317 146C187.317 168.646 175.476 192.829 135.841 200.561C87.8292 209.939 55.0731 174.817 55.0731 174.817C55.0731 174.817 80.1829 217.085 118.329 216.537C156.476 215.988 180.146 199.524 180.146 199.524C180.146 199.524 206.402 177.902 209.488 167.61C212.573 157.317 217.207 142.39 217.207 142.39L207.939 113.598L171.354 97.6342L165.183 107.902Z" fill="#E1251B"/>
<path d="M156.976 113.207C161.397 113.012 165.819 113.556 170.061 114.817C174.425 116.024 178.277 118.618 181.037 122.207C183.496 125.986 185.156 130.227 185.915 134.671C186.802 139.032 187.211 143.477 187.134 147.927C187.043 156.933 184.926 165.802 180.939 173.878C178.87 177.98 176.161 181.726 172.915 184.976C172.11 185.817 171.219 186.561 170.341 187.317C169.463 188.073 168.573 188.695 167.683 189.39C166.793 190.085 165.915 190.744 164.988 191.366C164.061 191.988 163.158 192.659 162.207 193.256C154.61 198.237 146.186 201.821 137.329 203.841C128.384 205.807 119.123 205.853 110.158 203.976C105.773 202.995 101.464 201.695 97.2683 200.085C93.1219 198.512 89.0731 196.817 85.0731 194.951C77.1355 191.279 69.4553 187.075 62.0853 182.366L62.4024 181.72C70.6585 184.5 78.817 187.402 87 190.11L93.0975 192.098C95.1463 192.707 97.1951 193.317 99.1951 193.915C103.197 195.129 107.269 196.094 111.39 196.805C119.506 198.171 127.788 198.245 135.927 197.024C144.114 195.643 151.971 192.748 159.098 188.488C160 187.963 160.878 187.378 161.768 186.829C162.658 186.28 163.537 185.695 164.39 185.073C166.11 183.948 167.741 182.692 169.268 181.317C172.279 178.544 174.827 175.309 176.817 171.732C180.865 164.342 183.239 156.153 183.768 147.744C184.087 143.526 183.948 139.286 183.354 135.098C182.853 130.963 181.531 126.97 179.463 123.354C177.033 119.942 173.563 117.409 169.573 116.134C165.532 114.717 161.283 113.983 157 113.963L156.976 113.207Z" fill="#672F25"/>
<path d="M141.024 207.756C178.085 200.561 189.732 178.061 191.476 156.805C193.537 131.585 181.183 120.22 174.317 114.768C178.781 118.427 186.841 130.549 186.841 146C186.841 168.646 175 192.829 135.366 200.561C109.488 205.598 76.561 190.354 62.2805 182.024C73.561 192.988 108.11 214.159 141.024 207.756Z" fill="#FF9E18"/>
<path d="M129.024 216.512C177.349 216.512 216.524 177.337 216.524 129.012C216.524 80.6873 177.349 41.5122 129.024 41.5122C80.6995 41.5122 41.5244 80.6873 41.5244 129.012C41.5244 177.337 80.6995 216.512 129.024 216.512Z" stroke="#231F20" stroke-width="9" stroke-miterlimit="10"/>
</g>
<linearGradient id="paint0_linear_189_100" x1="-163.263" y1="304.281" x2="54.7656" y2="167.385" gradientUnits="userSpaceOnUse">
<stop stop-color="#CE0E2D"/>
<stop offset="0.53" stop-color="#FF9E18"/>
<stop offset="0.99" stop-color="#F7BE00"/>
<stop offset="1" stop-color="#F7BE00"/>
</linearGradient>
<linearGradient id="paint1_linear_189_100" x1="-794.523" y1="1603.86" x2="107.417" y2="948.567" gradientUnits="userSpaceOnUse">
<stop stop-color="#CE0E2D"/>
<stop offset="0.53" stop-color="#FF9E18"/>
<stop offset="0.99" stop-color="#F7BE00"/>
<stop offset="1" stop-color="#F7BE00"/>
</linearGradient>
<linearGradient id="paint2_linear_189_100" x1="-833.067" y1="1652.16" x2="66.4905" y2="996.842" gradientUnits="userSpaceOnUse">
<stop stop-color="#CE0E2D"/>
<stop offset="0.53" stop-color="#FF9E18"/>
<stop offset="0.99" stop-color="#F7BE00"/>
<stop offset="1" stop-color="#F7BE00"/>
</linearGradient>
<linearGradient id="paint3_linear_189_100" x1="-790.628" y1="1652.05" x2="107.342" y2="996.735" gradientUnits="userSpaceOnUse">
<stop stop-color="#CE0E2D"/>
<stop offset="0.53" stop-color="#FF9E18"/>
<stop offset="0.99" stop-color="#F7BE00"/>
<stop offset="1" stop-color="#F7BE00"/>
</linearGradient>
<linearGradient id="paint4_linear_189_100" x1="-790.339" y1="1697.67" x2="107.431" y2="1043.39" gradientUnits="userSpaceOnUse">
<stop stop-color="#CE0E2D"/>
<stop offset="0.53" stop-color="#FF9E18"/>
<stop offset="0.99" stop-color="#F7BE00"/>
<stop offset="1" stop-color="#F7BE00"/>
</linearGradient>
<linearGradient id="paint5_linear_189_100" x1="-751.045" y1="1652.15" x2="146.972" y2="996.755" gradientUnits="userSpaceOnUse">
<stop stop-color="#CE0E2D"/>
<stop offset="0.53" stop-color="#FF9E18"/>
<stop offset="0.99" stop-color="#F7BE00"/>
<stop offset="1" stop-color="#F7BE00"/>
</linearGradient>
<linearGradient id="paint6_linear_189_100" x1="-914.286" y1="1697.59" x2="-14.8894" y2="1043.47" gradientUnits="userSpaceOnUse">
<stop stop-color="#CE0E2D"/>
<stop offset="0.53" stop-color="#FF9E18"/>
<stop offset="0.99" stop-color="#F7BE00"/>
<stop offset="1" stop-color="#F7BE00"/>
</linearGradient>
<linearGradient id="paint7_linear_189_100" x1="-912.647" y1="1731.89" x2="-14.6881" y2="1082.35" gradientUnits="userSpaceOnUse">
<stop stop-color="#CE0E2D"/>
<stop offset="0.53" stop-color="#FF9E18"/>
<stop offset="0.99" stop-color="#F7BE00"/>
<stop offset="1" stop-color="#F7BE00"/>
</linearGradient>
<linearGradient id="paint8_linear_189_100" x1="-952.713" y1="1786.32" x2="-54.6968" y2="1132.08" gradientUnits="userSpaceOnUse">
<stop stop-color="#CE0E2D"/>
<stop offset="0.53" stop-color="#FF9E18"/>
<stop offset="0.99" stop-color="#F7BE00"/>
<stop offset="1" stop-color="#F7BE00"/>
</linearGradient>
<linearGradient id="paint9_linear_189_100" x1="-831.279" y1="1746.27" x2="66.6751" y2="1090.63" gradientUnits="userSpaceOnUse">
<stop stop-color="#CE0E2D"/>
<stop offset="0.53" stop-color="#FF9E18"/>
<stop offset="0.99" stop-color="#F7BE00"/>
<stop offset="1" stop-color="#F7BE00"/>
</linearGradient>
<linearGradient id="paint10_linear_189_100" x1="-750.958" y1="1606.67" x2="146.868" y2="950.046" gradientUnits="userSpaceOnUse">
<stop stop-color="#CE0E2D"/>
<stop offset="0.53" stop-color="#FF9E18"/>
<stop offset="0.99" stop-color="#F7BE00"/>
<stop offset="1" stop-color="#F7BE00"/>
</linearGradient>
<linearGradient id="paint11_linear_189_100" x1="-356.182" y1="1699.72" x2="103.053" y2="1000.81" gradientUnits="userSpaceOnUse">
<stop stop-color="#CE0E2D"/>
<stop offset="0.53" stop-color="#FF9E18"/>
<stop offset="0.99" stop-color="#F7BE00"/>
<stop offset="1" stop-color="#F7BE00"/>
</linearGradient>
<linearGradient id="paint12_linear_189_100" x1="-410.194" y1="1670.85" x2="16.1512" y2="1023.35" gradientUnits="userSpaceOnUse">
<stop stop-color="#CE0E2D"/>
<stop offset="0.53" stop-color="#FF9E18"/>
<stop offset="0.99" stop-color="#F7BE00"/>
<stop offset="1" stop-color="#F7BE00"/>
</linearGradient>
<linearGradient id="paint13_linear_189_100" x1="-410.093" y1="1718.37" x2="16.2466" y2="1070.93" gradientUnits="userSpaceOnUse">
<stop stop-color="#CE0E2D"/>
<stop offset="0.53" stop-color="#FF9E18"/>
<stop offset="0.99" stop-color="#F7BE00"/>
<stop offset="1" stop-color="#F7BE00"/>
</linearGradient>
<linearGradient id="paint14_linear_189_100" x1="-387.622" y1="1718.26" x2="40.8427" y2="1070.82" gradientUnits="userSpaceOnUse">
<stop stop-color="#CE0E2D"/>
<stop offset="0.53" stop-color="#FF9E18"/>
<stop offset="0.99" stop-color="#F7BE00"/>
<stop offset="1" stop-color="#F7BE00"/>
</linearGradient>
<linearGradient id="paint15_linear_189_100" x1="-412.308" y1="1763.38" x2="16.1512" y2="1115.87" gradientUnits="userSpaceOnUse">
<stop stop-color="#CE0E2D"/>
<stop offset="0.53" stop-color="#FF9E18"/>
<stop offset="0.99" stop-color="#F7BE00"/>
<stop offset="1" stop-color="#F7BE00"/>
</linearGradient>
<linearGradient id="paint16_linear_189_100" x1="-409.915" y1="1806.07" x2="16.4309" y2="1158.57" gradientUnits="userSpaceOnUse">
<stop stop-color="#CE0E2D"/>
<stop offset="0.53" stop-color="#FF9E18"/>
<stop offset="0.99" stop-color="#F7BE00"/>
<stop offset="1" stop-color="#F7BE00"/>
</linearGradient>
<linearGradient id="paint17_linear_189_100" x1="-429.643" y1="1806.2" x2="-5.42523" y2="1158.69" gradientUnits="userSpaceOnUse">
<stop stop-color="#CE0E2D"/>
<stop offset="0.53" stop-color="#FF9E18"/>
<stop offset="0.99" stop-color="#F7BE00"/>
<stop offset="1" stop-color="#F7BE00"/>
</linearGradient>
</svg>