<svg viewBox="0 0 256 256" xmlns="http://www.w3.org/2000/svg" xml:space="preserve" style="fill-rule:evenodd;clip-rule:evenodd;stroke-miterlimit:10"><path d="M256 40v176c0 22.077-17.923 40-40 40H40c-22.077 0-40-17.923-40-40V40C0 17.923 17.923 0 40 0h176c22.077 0 40 17.923 40 40" style="fill:#231f20"/><g transform="translate(28 28)"><clipPath id="a"><path d="M0 0h200v200H0z"/></clipPath><g clip-path="url(#a)"><g transform="scale(1.33333)"><clipPath id="b"><circle cx="230.54" cy="84.58" r="22.98"/></clipPath><g clip-path="url(#b)"><path d="M193.43 89.51C186.8 75.38 183.77 69.7 174.18 68c-17.36-3-25 12.36-25.23 19.76a23.26 23.26 0 0 0 1.8 11 30 30 0 0 1-1-8.25c.28-7.4 7.67-22.87 25-19.83 9.52 1.67 14.25 11 20.81 25-.01-.26-1.75-5.37-2.13-6.17" style="fill:#f2b131;fill-rule:nonzero"/></g></g><path d="M102.13 62.33s.83-7.2-.61-12.29-2-4.93-2-4.93 2.28 2.81 3.7 8.67c1.06 4.35.15 6.22.15 6.22z" style="fill:#fff;fill-rule:nonzero" transform="scale(1.33333)"/><g transform="scale(1.33333)"><clipPath id="c"><circle cx="74.92" cy="74.22" r="71.75"/></clipPath><g clip-path="url(#c)"><path d="M94.69 228.31c19.26-.21 38.56-5.67 54.5-16.57 8.15-5.11 15.91-11 22.27-18.14a63.7 63.7 0 0 0 8.31-11.69c1.26-2 2.33-4.21 3.49-6.31s2.15-4.31 3.19-6.47a123.2 123.2 0 0 0 9-27.3 88.9 88.9 0 0 0 1-28.55l-.22-1.77c-.08-.59-.22-1.18-.33-1.76l-.7-3.51c-.19-1.18-.59-2.31-.89-3.47l-1-3.44c-.83-2.23-1.59-4.49-2.5-6.69s-2-4.37-3.07-6.5A72.5 72.5 0 0 0 180.25 74a47 47 0 0 0-4.75-5.23 43 43 0 0 0-5.5-4.34l-1.33-.88 1.19-1a6.14 6.14 0 0 1 3.48-1.59 7.3 7.3 0 0 1 3.61.76c1 .47 1.94 1 2.82 1.45a8.4 8.4 0 0 0 2.52.9l-1.11 2.08a37.6 37.6 0 0 0-12.69-9.23A49.3 49.3 0 0 0 153.13 53l-3.22-.32 2.45-2.11a11.7 11.7 0 0 1 5.14-2.45 19.5 19.5 0 0 1 5.42-.36c1.777.115 3.539.403 5.26.86a28 28 0 0 1 5 1.79l-1.77 2.19a7.7 7.7 0 0 0-.88-1 3 3 0 0 0-.41-.31h-.06a.6.6 0 0 0 .22 0h.17a1 1 0 0 0 .22-.05 1 1 0 0 0 .31-.15q.205-.14.35-.34c.235-.315.302-.726.18-1.1a.5.5 0 0 0-.09-.19q.189.156.4.28.565.32 1.18.53l-1.52 2.43a51.5 51.5 0 0 0-19.91-11.87 72.6 72.6 0 0 0-23.17-3.5h-3.44l2.18-2.64c.26-.3.51-.61.83-.92l.28-.25.14-.13.21-.14.22-.14q.208-.106.43-.18c.311-.085.639-.085.95 0q.172.03.33.1.257.122.47.31c.23.209.397.48.48.78q.086.294.08.6a.6.6 0 0 1 0 .2v.14a2 2 0 0 1-.15.45q-.134.289-.33.54-.318.4-.74.69a3.7 3.7 0 0 1-1.76.63l-5.72.58 4.61-3.5a17.5 17.5 0 0 1 6.19-2.93 24.3 24.3 0 0 1 6.66-.7 42.4 42.4 0 0 1 12.72 2.59l-1.58 3-3.76-2.68-1.89-1.29-.94-.61-.44-.26-.17-.09h.6q.135.015.27 0c.37-.07.705-.264.95-.55.341-.388.488-.911.4-1.42v-.33l-.18-.18-.07-.11-.06-.07.15.14.39.33.87.67c.59.45 1.2.88 1.82 1.3a22.3 22.3 0 0 0 3.69 2.1l-1.74 3a53.15 53.15 0 0 0-26.86-11.05 48.47 48.47 0 0 0-28.39 5.06l-5 2.66 2.27-5.15a15.1 15.1 0 0 1 3.8-5.06 24 24 0 0 1 5-3.4 30.4 30.4 0 0 1 5.5-2.21 24.7 24.7 0 0 1 6-1l-.67 3.91a34.9 34.9 0 0 0-14-2.31 40 40 0 0 0-13.91 3.11 44.27 44.27 0 0 0-21.28 18.54L63 40.79l-1.51-.27c-1.87-.33-3.5-.79-5.08-1.07a11.5 11.5 0 0 0-4.29-.15 4.4 4.4 0 0 0-1.6.64c-.5.329-.937.746-1.29 1.23A9.75 9.75 0 0 0 47.64 45c0 .28-.18.84-.28 1.29L47 47.65a24 24 0 0 1-1 2.71l-.62 1.31c-.22.44-.5.84-.75 1.25A22 22 0 0 1 43 55.27 28.2 28.2 0 0 1 34.05 62a52.5 52.5 0 0 1-10.16 3.68l-1.25.3-.61.15-.44.15q-1.035.371-2 .9a12.4 12.4 0 0 0-3.35 2.68 10 10 0 0 0-1.16 1.69q-.234.42-.41.87c-.13.33-.25.71-.37 1.08a22 22 0 0 0-.94 4.53 11.5 11.5 0 0 0 2.09 8.08L11 87.23A21.4 21.4 0 0 1 13.27 80 11.6 11.6 0 0 1 16 76.73a8.4 8.4 0 0 1 4.34-1.85l3.87-.43-1.16 3.75a5.1 5.1 0 0 0-.25 1.88c.033.483.214.944.52 1.32a6.34 6.34 0 0 0 3.6 1.74l-2.6 4.11a9.5 9.5 0 0 1-1.63-3.43 10.7 10.7 0 0 1-.25-3.68 12.1 12.1 0 0 1 2.79-6.48l3-3.54 1.53 4.4a5.85 5.85 0 0 0 2 2.77 3.87 3.87 0 0 0 2.83.73l-1.19 4.87a6.46 6.46 0 0 1-2.46-3.07 7 7 0 0 1-.18-3.7q.276-1.282.68-2.53.306-.946.5-1.92l.75-4.31L36.18 70a11.9 11.9 0 0 0 3.38 1.87A2.68 2.68 0 0 0 42 71.6a2.3 2.3 0 0 0 .8-.79 7.8 7.8 0 0 0 .67-1.63c.269-.923.62-1.82 1.05-2.68a8.1 8.1 0 0 1 2.42-2.75l.16-.11.17-.09a16.25 16.25 0 0 1 7.06-1.61c2.25-.06 4.3.14 6.17.16l.15 5.56H57.7a2.4 2.4 0 0 1-.47-.16l-.24-.12a2.86 2.86 0 0 1-1.06-1 2.9 2.9 0 0 1-.34-1.78c.044-.316.146-.621.3-.9a2.4 2.4 0 0 1 .45-.63 2.7 2.7 0 0 1 .6-.48q.217-.127.45-.22l.28-.09q.153-.042.31-.06h2.68v5.58a10 10 0 0 0-2.71.57 3.76 3.76 0 0 0-1.69 1.16c-.66.9-.74 2.3 0 4.17s2.06 3.84 3.21 6.37q.453 1.023.76 2.1.289 1.09.4 2.21a24.4 24.4 0 0 1 .08 4.07c-.13 2.59-.5 5-.67 7.27-.08 1.1-.09 2.34-.23 3.71a11.8 11.8 0 0 1-1.29 4.56 6.8 6.8 0 0 1-2 2.23 7 7 0 0 1-1.31.77l-.67.24q-.305.112-.62.19c-1.356.335-2.744.53-4.14.58a51 51 0 0 1-7.65-.39l2.41-4.55a30 30 0 0 0 6.07 5.55 17.6 17.6 0 0 0 7.11 3l.88.29q.137.044.26.12a.1.1 0 0 1 .08 0c.025.011-.24 0-.3.07.267-.298.486-.635.65-1 .34-.68.66-1.53 1.1-2.53l1.25-2.61c1.56-3.37 3.06-6.84 4.53-10.31s2.88-7 4.28-10.49l4.18-10.63.99-2.52L78 73a5.1 5.1 0 0 0 3.12.27 8.3 8.3 0 0 0 3.24-1.61 16.3 16.3 0 0 0 4.85-6.44 27.4 27.4 0 0 0 1.89-8.44c.15-2.82-.31-5.63-1.69-7.55l3.77-2.82a16.4 16.4 0 0 1 1.9 3.36 21.4 21.4 0 0 1 1.15 3.5c.291 1.195.482 2.413.57 3.64a16 16 0 0 1-.18 3.86l-2.56-2.67a35.5 35.5 0 0 1 15.24 1.11 47.6 47.6 0 0 1 13.55 6.57 72.4 72.4 0 0 1 11.27 9.65l2.51 2.7 2.4 2.78c.76 1 1.54 1.87 2.3 2.85s1.51 2 2.23 3a52.3 52.3 0 0 1 9 28.06 66.1 66.1 0 0 1-5.8 28.72l.09-.3-.77 4.15v.18l-.06.13a69 69 0 0 1-9.49 14.81 56.4 56.4 0 0 1-6.18 6.28 51.7 51.7 0 0 1-7.07 5.23 56.1 56.1 0 0 1-16.14 6.69 52 52 0 0 1-8.55 1.78 24.9 24.9 0 0 1-8.73-.57l.13-.53c2.795.589 5.673.68 8.5.27a51.5 51.5 0 0 0 8.33-2l4.13-1.31c1.33-.51 2.68-1 4-1.57a47.7 47.7 0 0 0 7.5-4.07 51 51 0 0 0 6.71-5.25 54 54 0 0 0 5.8-6.23 66.5 66.5 0 0 0 8.78-14.55l-.1.31.69-4.16v-.14l.06-.16a63.26 63.26 0 0 0 5-27.53 48.86 48.86 0 0 0-8.87-26c-5.65-7.45-12.34-14.44-20-19.61a43.6 43.6 0 0 0-12.38-5.86 31.2 31.2 0 0 0-13.34-.83l-3.11.51.48-3.21a16 16 0 0 0-2.7-10.69l3.77-2.81a13.8 13.8 0 0 1 2.27 5.21c.363 1.738.504 3.516.42 5.29a32 32 0 0 1-2.12 10 21.3 21.3 0 0 1-2.61 4.7 20.3 20.3 0 0 1-3.74 3.91 13.3 13.3 0 0 1-5.18 2.59c-2.067.478-4.231.31-6.2-.48l3.35-1.4-4 10.6C74 90.49 72.63 94 71.18 97.57s-2.91 7.06-4.55 10.57l-1.2 2.54c-.33.73-.66 1.66-1.16 2.68a10 10 0 0 1-1 1.65 6.1 6.1 0 0 1-1.85 1.73 5.1 5.1 0 0 1-3 .65 7.6 7.6 0 0 1-1.31-.3c-.35-.14-.7-.29-1-.45l.88.29a23.15 23.15 0 0 1-9.39-3.87 36 36 0 0 1-7.22-6.55l-4.45-5.24 6.86.69a46 46 0 0 0 6.81.34 15 15 0 0 0 3-.42q.124-.029.24-.08.093-.037.19-.06c.07-.07.19-.08.24-.15.169-.126.306-.291.4-.48a6.4 6.4 0 0 0 .58-2.39c.11-1 .12-2.2.21-3.52.19-2.58.54-4.91.64-7.16.053-1.054.02-2.111-.1-3.16a8.2 8.2 0 0 0-.73-2.65c-.84-1.88-2.22-4-3.28-6.59a12.1 12.1 0 0 1-.94-4.58c0-.44 0-.88.11-1.31s.18-.88.31-1.3.32-.83.5-1.23q.335-.645.78-1.22a9.35 9.35 0 0 1 4.14-3 15.1 15.1 0 0 1 4.36-.93v5.58h-1.61.36l.25-.08q.221-.091.43-.21a3 3 0 0 0 .6-.48q.265-.281.45-.62l.14-.32q.104-.283.15-.58a2.8 2.8 0 0 0-1.61-2.93 2.3 2.3 0 0 0-.44-.15h-.28 1.53l.15 5.56c-2.18 0-4.16-.23-6-.18a10.6 10.6 0 0 0-4.7 1l.33-.2a2.3 2.3 0 0 0-.73.84 11.5 11.5 0 0 0-.69 1.8 12.7 12.7 0 0 1-1.22 2.79 8.08 8.08 0 0 1-6 3.72A8.7 8.7 0 0 1 38 77a17 17 0 0 1-5-2.72l4.28-1.71a22 22 0 0 1-.66 2.57q-.365.978-.62 1.99a2.1 2.1 0 0 0 0 .87c.108.192.263.354.45.47l5.39 4-6.59.82a9 9 0 0 1-3.53-.24 9.1 9.1 0 0 1-3.15-1.53 11.1 11.1 0 0 1-3.8-5.34l4.52.87a6.73 6.73 0 0 0-1.59 3.6 4.77 4.77 0 0 0 .83 3.43l4.06 5.5-6.69-1.33a14.4 14.4 0 0 1-3.42-1.13 9.4 9.4 0 0 1-3.19-2.49 7.55 7.55 0 0 1-1.62-4.08 10.1 10.1 0 0 1 .5-3.91L20.9 80a3.24 3.24 0 0 0-1.73.73 6.4 6.4 0 0 0-1.49 1.84A16.7 16.7 0 0 0 15.91 88l-1 6-3.55-5a16.2 16.2 0 0 1-2.54-5.51 17.2 17.2 0 0 1-.39-6c.191-1.888.59-3.75 1.19-5.55.14-.44.29-.88.47-1.36q.303-.745.69-1.45a14.8 14.8 0 0 1 1.78-2.54A17.1 17.1 0 0 1 17.29 63 18.4 18.4 0 0 1 20 61.78l.79-.25.64-.15 1.26-.3A47.6 47.6 0 0 0 32 57.83a23.3 23.3 0 0 0 7.48-5.55 17 17 0 0 0 1.33-1.82c.19-.33.42-.63.59-1l.49-1a19 19 0 0 0 .81-2.11l.26-1.11c.09-.39.17-.67.28-1.23a14.1 14.1 0 0 1 2.5-5.59 9.9 9.9 0 0 1 2.44-2.28 9.1 9.1 0 0 1 3.17-1.24 16 16 0 0 1 6 .17c1.81.35 3.49.84 5 1.11L60 37.27A48.6 48.6 0 0 1 83.49 17a44.2 44.2 0 0 1 15.37-3.3 39.25 39.25 0 0 1 15.56 2.68L123.6 20l-9.87.25a20.5 20.5 0 0 0-4.94.81 26 26 0 0 0-4.79 1.88 20.5 20.5 0 0 0-4.17 2.82A11.3 11.3 0 0 0 97 29.45L94.3 27a49.4 49.4 0 0 1 15-5 55 55 0 0 1 15.7-.31 56.66 56.66 0 0 1 28.62 12l9.56 7.72-11.3-4.71a25 25 0 0 1-4.37-2.5c-.66-.46-1.31-.93-2-1.41l-1-.76-.49-.43-.28-.25-.18-.2a.8.8 0 0 1-.15-.18l-.11-.16a3 3 0 0 1-.13-.26v-.21a1 1 0 0 1 0-.15 1.8 1.8 0 0 1 .4-1.46 1.85 1.85 0 0 1 1-.56h.43a.6.6 0 0 1 .2 0l.24.06h.12l.27.12.34.19.55.34 1 .66 1.94 1.35 3.79 2.73 9.84 7.1-11.42-4.12a38.6 38.6 0 0 0-11.66-2.46c-3.9-.14-7.82.65-10.8 2.9l-1.11-2.92a.5.5 0 0 0 .19-.06c.059-.033 0 0-.05.1a1 1 0 0 0-.07.21v.21c-.011.159.009.319.06.47a1.7 1.7 0 0 0 .42.68q.189.165.42.26l.27.1c.231.046.469.046.7 0l.18-.08h-.05l-.12.1c-.17.17-.36.39-.56.62l-1.26-2.62a75.6 75.6 0 0 1 24.17 3.8 54.5 54.5 0 0 1 21 12.7l4.72 4.68-6.24-2.26a9.4 9.4 0 0 1-1.69-.78 6 6 0 0 1-.87-.64 4 4 0 0 1-.49-.55q-.165-.254-.27-.54a1.65 1.65 0 0 1 .2-1.48q.173-.243.42-.41a2 2 0 0 1 .4-.19.9.9 0 0 1 .32-.07h.26q.313.012.61.11.341.115.65.3.457.284.86.64.68.63 1.24 1.37l3.66 4.74-5.44-2.53a26.5 26.5 0 0 0-9.21-2.44 17.4 17.4 0 0 0-4.63.27 9 9 0 0 0-3.93 1.82l-.77-2.43a51.6 51.6 0 0 1 16.17 4.26 40 40 0 0 1 13.48 10L185.3 67l-3.37-.5a10.4 10.4 0 0 1-3.31-1.17c-1-.5-1.85-1-2.71-1.42a4.94 4.94 0 0 0-2.4-.57 3.7 3.7 0 0 0-2.07 1l-.14-1.92a46 46 0 0 1 5.83 4.65 52 52 0 0 1 4.94 5.54 75 75 0 0 1 7.6 12.58c1.08 2.19 2.08 4.39 3.06 6.63s1.69 4.6 2.52 6.9l1 3.54c.3 1.19.7 2.35.89 3.56l.68 3.61c.11.6.25 1.19.33 1.8l.2 1.82a90.4 90.4 0 0 1-1.22 29.13 124.6 124.6 0 0 1-9.31 27.59c-1.07 2.18-2.13 4.37-3.27 6.51s-2.29 4.28-3.57 6.34a64 64 0 0 1-8.56 11.83c-6.54 7.25-14.43 13.1-22.67 18.17-2.05 1.28-4.14 2.51-6.24 3.71a72 72 0 0 1-6.44 3.41c-4.42 2.009-8.979 3.7-13.64 5.06a105 105 0 0 1-14.21 3c-4.803.652-9.643.986-14.49 1z" style="fill:#672f25;fill-rule:nonzero"/><path d="M191.21 90.71c-9-18.94-20.27-27.39-20.27-27.39s-1.29-1.06 3.4-.64a17.34 17.34 0 0 1 7.76 2.59A42.8 42.8 0 0 0 167.88 55c-6.22-2.61-14.62-3.38-14.62-3.38s.21-2.2 6.55-2.14c4.343.079 8.648.831 12.76 2.23s-4.74-6.65-19.95-12c-14.32-5-24.16-4-24.16-4s1.62-2.53 8.39-3.07A38.1 38.1 0 0 1 152.47 35c4.984 1.869-14.6-10.86-30-11.83-14.63-.92-27.27 5.5-27.27 5.5s.89-2.73 6.91-6.6a23.1 23.1 0 0 1 11.57-3.83c4.13-.218-11.94-5-28.18.09-13.07 4.12-20.87 15.6-23.4 19.89-4.49-.5-7.38-.91-7.38-.91-1.81-.37-5.9-1.53-8.29 5.31S44.2 53 38.58 57.78s-20.4 5.39-23.36 9.56S10.39 78.08 10.89 81a26.4 26.4 0 0 0 2.54 6.61 20.2 20.2 0 0 1 2.39-6.83 6.46 6.46 0 0 1 4.79-3.36c2.04-.29-1.13 3.24.24 5.38s5.56 2.9 5.56 2.9a7.6 7.6 0 0 1-1.35-4.86 7.3 7.3 0 0 1 2.18-5.46c2.15 6.26 7.64 5.31 7.64 5.31a6.38 6.38 0 0 1-1.75-4.32c-.15-2.14.66-2.76 1.61-4.06 0 0 5.09 3.29 8.19 2.25S45.68 66 51 65.3a45 45 0 0 0 6.9-1.36c-1.84.72-5.73 2.86-4.81 8 1.2 6.67 4.9 9.2 4.61 12.8s-.2 15.72-1.87 18.49-13.4 1.49-13.4 1.49 4.27 5.2 8.85 7.24 8.24 3.67 9.91.9 15.84-37.5 15.84-37.5S80.27 77 86 73.62s7-12.88 7-12.88l.18-.07a29 29 0 0 0-.31-8.33 27 27 0 0 0-1-3.69 8 8 0 0 0-.5-.82c-.183-.263.16 0 .5.82a23.8 23.8 0 0 1 2.42 7.13c.335 1.501.386 3.051.15 4.57 3.45-.7 13.2-1.28 28.42 8.93l-.14-.28C148.36 87.26 158 111.83 145 145.51c-5.9 15.35-25.48 39.36-56.74 36 1.5 15.69 2.73 31.39 4.21 47.08a100.37 100.37 0 0 0 55.57-15.94c29.44-18.84 37.54-40.69 37.54-40.69s22.95-44.61 5.63-81.25" style="fill:#e1251b;fill-rule:nonzero"/><path d="m17.26 69.88 6.48-2.79-.15 2.17zm75.1-23.38s4.76 3.68 7 7.11a25.1 25.1 0 0 1 2.92 7.66l-10.09 3.29a24 24 0 0 0 .86-10.8c-.55-3.51-5.89-10.48-5.89-10.48zM103 21.74s-9.22 5.88-11.44 8a29.3 29.3 0 0 0-4 5.06c-1.143 1.829 4.38-3.27 7-5s11.24-4.95 11.24-4.95l-5.78.72z" style="fill:#672f25;fill-rule:nonzero"/><path d="M147.83 100.25c4.25 12.79 4 27.63-2.61 44.77-5.92 15.4-25.58 39.49-57 36 .22 2.4.45 4.8.67 7.2 32.87 5.15 53.42-19.82 59.49-35.62 7.96-20.6 6.95-37.91-.55-52.35" style="fill:#f2b131;fill-rule:nonzero"/><path d="M87.54 49.74S92 56.19 91.1 61.63s-3 9.54-6.53 10.65a30.8 30.8 0 0 1-7.36 1.2 18.9 18.9 0 0 0 9.32-10.1 23.37 23.37 0 0 0 1.01-13.64" style="fill:#ff7f40;fill-rule:nonzero"/><path d="M53.84 74.9C53 70.72 52.16 65 56.6 64.63c2.752-.217 5.52-.12 8.25.29a13 13 0 0 0-7.57-1.55 26.7 26.7 0 0 0-7.6 2.63L52 69.51s2.1 6.64 1.84 5.39m-19.1-2.59s6.34 1.74 7.46 1.25 4.73-5.28 4.73-5.28L45 75.89l-5 .39zm18.2 32.06s-6.16.3-6.64 1.72 5.63 7.32 5.63 7.32L40 103.94z" style="fill:#672f25;fill-rule:nonzero"/><path d="M49.41 107s.56 1.21 4.47 3.43 5.32 1.89 6.47.56S74 75.82 74 75.82s-12.25 31.36-16.64 31.82a25.3 25.3 0 0 1-7.95-.64" style="fill:#ff7f40;fill-rule:nonzero"/><path d="M87.47 34.92s2.41-8.49 12-14.18c5-3 14.2-2.49 14.2-2.49s-8.08 2.64-11.64 5.39zm40.99.83s4.2-6.13 10.92-5.87 16.07 6.5 16.07 6.5-8.68-3.06-14.37-2.21-12.62 1.58-12.62 1.58" style="fill:#672f25;fill-rule:nonzero"/><path d="M68.35 30s12.5-13.45 24.25-13.85 17.72.64 17.72.64S96.53 16.53 86.4 20a66.3 66.3 0 0 0-18.05 10m19.12 4.92s16.53-13.4 33.1-11.72a69.8 69.8 0 0 1 28 8.89c8.597 4.915-18.9-7.92-36.29-5.13s-24.86 8.56-24.86 8.56m41.04.23s11.73-1.73 26.26 4.81 17 10 17 10a102.2 102.2 0 0 0-20.53-9.13c-11.58-3.55-22.73-5.68-22.73-5.68" style="fill:#ff7f40;fill-rule:nonzero"/><path d="M22.86 87.19s4.35 1.34 6.14 1.71c1.222.212 2.469.242 3.7.09s-4.51-3.08-5-4.25-2 1.26-2 1.26zm11-4.18 5.58-1.56-3.19-2.87zm12.68-29.13a35.6 35.6 0 0 0 4.16-6.14 67 67 0 0 0 2.8-6.89l.42 10z" style="fill:#672f25;fill-rule:nonzero"/><path d="M44.85 89.64a1.8 1.8 0 0 1-.9-.19 2.2 2.2 0 0 1-.7-.54 2.4 2.4 0 0 1-.45-.82 3.3 3.3 0 0 1-.17-1 3.1 3.1 0 0 1 .15-1c.092-.3.238-.582.43-.83.187-.234.423-.425.69-.56.277-.146.586-.222.9-.22a2 2 0 0 1 .9.19c.269.128.505.316.69.55.199.241.355.515.46.81.093.315.143.641.15.97 0 .339-.05.676-.15 1-.092.3-.238.582-.43.83a2.1 2.1 0 0 1-.69.57c-.269.15-.572.233-.88.24m0-.79a1 1 0 0 0 .53-.14c.156-.101.289-.234.39-.39a2 2 0 0 0 .25-.58q.096-.344.08-.7c.004-.24-.03-.48-.1-.71a1.9 1.9 0 0 0-.27-.57 1.2 1.2 0 0 0-.4-.38 1 1 0 0 0-.54-.14 1 1 0 0 0-.52.15 1.15 1.15 0 0 0-.4.39 1.9 1.9 0 0 0-.25.57 3 3 0 0 0-.08.7q.009.355.1.7.088.307.27.57.165.237.41.39c.16.095.344.144.53.14" style="fill:url(#d);fill-rule:nonzero"/><path d="M26.56 97.28a1.9 1.9 0 0 1-.87-.19 1.9 1.9 0 0 1-.67-.52 2.4 2.4 0 0 1-.44-.79 3.1 3.1 0 0 1-.16-1 2.9 2.9 0 0 1 .14-1A2.4 2.4 0 0 1 25 93c.178-.229.403-.417.66-.55.268-.142.567-.214.87-.21.3-.004.597.057.87.18.256.131.483.311.67.53.19.237.339.504.44.79.108.322.162.66.16 1 .007.339-.041.676-.14 1a2.7 2.7 0 0 1-.42.8c-.364.477-.93.758-1.53.76zm0-.77a1 1 0 0 0 .51-.14 1.15 1.15 0 0 0 .38-.38 1.6 1.6 0 0 0 .24-.55q.087-.335.08-.68a2.5 2.5 0 0 0-.1-.68 1.9 1.9 0 0 0-.26-.55 1.16 1.16 0 0 0-.39-.37 1 1 0 0 0-.52-.16c-.177.005-.35.057-.5.15-.155.09-.285.218-.38.37a1.6 1.6 0 0 0-.24.55 2.5 2.5 0 0 0-.08.68q-.002.347.09.68.086.296.26.55c.106.15.242.276.4.37a1 1 0 0 0 .51.16" style="fill:url(#e);fill-rule:nonzero"/><path d="M20.23 103.86a1.9 1.9 0 0 1-.87-.19 2 2 0 0 1-.67-.52 2.6 2.6 0 0 1-.44-.79 3.4 3.4 0 0 1-.16-1 3.1 3.1 0 0 1 .14-1c.09-.29.233-.561.42-.8.185-.226.412-.413.67-.55.268-.13.562-.202.86-.21.301-.006.599.059.87.19.26.121.489.298.67.52.192.236.341.503.44.79.111.322.169.66.17 1 .002.338-.045.675-.14 1a2.5 2.5 0 0 1-.43.8c-.364.477-.93.758-1.53.76m0-.77a1 1 0 0 0 .51-.14q.231-.149.38-.38.16-.258.24-.55.081-.335.07-.68a2.5 2.5 0 0 0-.09-.68 2.2 2.2 0 0 0-.26-.55 1.24 1.24 0 0 0-.39-.37 1 1 0 0 0-1 0c-.155.094-.288.22-.39.37a2 2 0 0 0-.24.56 3 3 0 0 0-.08.68q.011.346.1.68c.051.198.139.385.26.55.101.15.235.277.39.37.153.095.33.143.51.14z" style="fill:url(#f);fill-rule:nonzero"/><path d="M26.64 103.78a1.9 1.9 0 0 1-.87-.19 1.9 1.9 0 0 1-.67-.52 2.4 2.4 0 0 1-.44-.79 3.1 3.1 0 0 1-.16-1 2.9 2.9 0 0 1 .14-1c.09-.29.233-.561.42-.8.364-.477.93-.758 1.53-.76.301-.006.599.059.87.19a2 2 0 0 1 .67.52c.192.236.341.503.44.79.108.322.162.66.16 1a2.9 2.9 0 0 1-.14 1 2.7 2.7 0 0 1-.42.8c-.364.477-.93.758-1.53.76m0-.77a1 1 0 0 0 .51-.14 1.15 1.15 0 0 0 .38-.38 1.6 1.6 0 0 0 .24-.55q.087-.335.08-.68a2.5 2.5 0 0 0-.1-.68 2.1 2.1 0 0 0-.25-.55 1.2 1.2 0 0 0-.4-.37.9.9 0 0 0-.51-.13 1 1 0 0 0-.51.14c-.153.093-.283.22-.38.37-.115.17-.197.36-.24.56a2.4 2.4 0 0 0-.08.68q-.003.348.1.68a1.9 1.9 0 0 0 .25.55q.161.227.4.37a.9.9 0 0 0 .51.12z" style="fill:url(#g);fill-rule:nonzero"/><path d="M26.72 110.27c-.3.014-.6-.048-.87-.18a2.1 2.1 0 0 1-.67-.52 2.4 2.4 0 0 1-.44-.79 3.1 3.1 0 0 1-.16-1 3.1 3.1 0 0 1 .14-1c.091-.293.233-.567.42-.81.179-.225.404-.41.66-.54.268-.142.567-.214.87-.21a1.9 1.9 0 0 1 1.54.71c.193.234.343.502.44.79.11.322.164.66.16 1a2.9 2.9 0 0 1-.14 1 2.7 2.7 0 0 1-.42.8c-.18.227-.404.414-.66.55-.27.135-.568.203-.87.2m0-.76a.94.94 0 0 0 .5-.14 1.15 1.15 0 0 0 .38-.38 1.6 1.6 0 0 0 .24-.55 2.2 2.2 0 0 0 .08-.68 2.2 2.2 0 0 0-.1-.68 2 2 0 0 0-.25-.55 1.2 1.2 0 0 0-.4-.37 1 1 0 0 0-1 0c-.155.09-.285.218-.38.37a1.6 1.6 0 0 0-.24.55 2.5 2.5 0 0 0-.08.68q.004.347.1.68a1.9 1.9 0 0 0 .25.55q.164.224.4.37a1 1 0 0 0 .51.15z" style="fill:url(#h);fill-rule:nonzero"/><path d="M32.85 103.7a1.9 1.9 0 0 1-1.54-.71 2.3 2.3 0 0 1-.44-.79 3.1 3.1 0 0 1-.16-1 2.9 2.9 0 0 1 .14-1 2.7 2.7 0 0 1 .42-.8c.364-.477.93-.758 1.53-.76.301-.006.599.059.87.19a2 2 0 0 1 .67.52q.282.36.44.79c.108.322.162.66.16 1a2.9 2.9 0 0 1-.14 1 2.4 2.4 0 0 1-.42.8c-.364.477-.93.758-1.53.76m0-.76a1 1 0 0 0 .51-.15c.153-.093.283-.22.38-.37q.17-.258.24-.56.087-.329.08-.67a2.5 2.5 0 0 0-.1-.68 1.9 1.9 0 0 0-.26-.55 1.3 1.3 0 0 0-.39-.37 1 1 0 0 0-1 0c-.153.093-.283.22-.38.37q-.17.258-.24.56a2.5 2.5 0 0 0-.08.68q-.002.347.09.68c.057.196.144.382.26.55.103.152.24.279.4.37.148.088.317.136.49.14" style="fill:url(#i);fill-rule:nonzero"/><path d="M7.56 110.51c-.3.012-.599-.05-.87-.18a2.1 2.1 0 0 1-.67-.52 2.4 2.4 0 0 1-.43-.79 3.2 3.2 0 0 1-.17-1 3.4 3.4 0 0 1 .14-1c.091-.293.233-.567.42-.81.186-.222.413-.406.67-.54.268-.142.567-.214.87-.21a2.1 2.1 0 0 1 .87.18c.255.128.48.308.66.53.197.232.347.5.44.79.113.321.171.659.17 1 .002.338-.045.675-.14 1a2.7 2.7 0 0 1-.42.8 2.2 2.2 0 0 1-.67.55c-.27.135-.568.203-.87.2m0-.76a1 1 0 0 0 .51-.14q.231-.149.38-.38.16-.258.24-.55.079-.335.08-.68a3 3 0 0 0-.1-.68 2 2 0 0 0-.26-.55 1.24 1.24 0 0 0-.39-.37 1 1 0 0 0-.52-.14c-.177.005-.35.057-.5.15a1.16 1.16 0 0 0-.39.37 2 2 0 0 0-.24.55 3 3 0 0 0-.08.68q.011.346.1.68.086.296.26.55.159.222.39.37c.16.095.344.144.53.14z" style="fill:url(#j);fill-rule:nonzero"/><path d="M7.64 116.66c-.3.01-.598-.052-.87-.18a2 2 0 0 1-.67-.48 2.4 2.4 0 0 1-.44-.79 3.3 3.3 0 0 1-.16-1 3.1 3.1 0 0 1 .14-1c.091-.293.233-.567.42-.81.176-.228.402-.412.66-.54.268-.142.567-.214.87-.21.3-.014.6.048.87.18.261.124.49.305.67.53a2.4 2.4 0 0 1 .44.79c.11.322.164.66.16 1 .014.339-.033.678-.14 1a2.2 2.2 0 0 1-.42.81 1.9 1.9 0 0 1-.66.54c-.272.125-.571.18-.87.16m0-.76a.9.9 0 0 0 .5-.14q.231-.149.38-.38a1.6 1.6 0 0 0 .24-.55 2.2 2.2 0 0 0 .08-.68 2.1 2.1 0 0 0-.1-.67 1.7 1.7 0 0 0-.25-.55 1.2 1.2 0 0 0-.4-.38 1 1 0 0 0-.51-.13 1 1 0 0 0-.51.14 1.25 1.25 0 0 0-.38.38q-.161.257-.24.55a2.5 2.5 0 0 0-.08.68q.012.34.1.67c.05.197.134.383.25.55q.163.23.4.38a1 1 0 0 0 .53.13z" style="fill:url(#k);fill-rule:nonzero"/><path d="M1.44 122.57c-.3.014-.6-.048-.87-.18a1.9 1.9 0 0 1-.67-.52 2.4 2.4 0 0 1-.44-.79 3.1 3.1 0 0 1-.16-1 2.9 2.9 0 0 1 .14-1c.091-.293.233-.567.42-.81.179-.225.404-.41.66-.54.268-.142.567-.214.87-.21.3-.004.597.057.87.18.256.131.483.311.67.53.19.237.339.504.44.79.108.322.162.66.16 1a2.9 2.9 0 0 1-.14 1 2.7 2.7 0 0 1-.42.8c-.18.227-.404.414-.66.55-.27.135-.568.203-.87.2m0-.76a1 1 0 0 0 .51-.14 1.15 1.15 0 0 0 .38-.38 1.6 1.6 0 0 0 .24-.55q.087-.335.08-.68a2.5 2.5 0 0 0-.1-.68 1.8 1.8 0 0 0-.26-.55 1.16 1.16 0 0 0-.39-.37 1 1 0 0 0-1 0c-.155.09-.285.218-.38.37a1.6 1.6 0 0 0-.24.55 2.5 2.5 0 0 0-.08.68q-.002.347.09.68c.057.196.144.382.26.55.106.15.242.276.4.37.148.092.316.143.49.15" style="fill:url(#l);fill-rule:nonzero"/><path d="M20.39 116.5c-.3.014-.6-.048-.87-.18a2 2 0 0 1-.67-.53 2.4 2.4 0 0 1-.44-.79 3.3 3.3 0 0 1-.16-1 3.1 3.1 0 0 1 .14-1c.091-.293.233-.567.42-.81.176-.228.402-.412.66-.54.268-.142.567-.214.87-.21a1.9 1.9 0 0 1 1.54.71 2.4 2.4 0 0 1 .44.79c.11.322.164.66.16 1 .014.339-.033.678-.14 1a2.2 2.2 0 0 1-.42.81 1.9 1.9 0 0 1-.66.54 1.8 1.8 0 0 1-.87.21m0-.76a.9.9 0 0 0 .5-.14q.231-.149.38-.38a1.6 1.6 0 0 0 .24-.55 2.2 2.2 0 0 0 .08-.68 2.1 2.1 0 0 0-.1-.67 1.7 1.7 0 0 0-.25-.55 1.3 1.3 0 0 0-.4-.38 1 1 0 0 0-.51-.13 1 1 0 0 0-.51.14 1.25 1.25 0 0 0-.38.38q-.161.257-.24.55a2.5 2.5 0 0 0-.08.68q.012.34.1.67.076.297.25.55.16.233.4.38a1 1 0 0 0 .53.13z" style="fill:url(#m);fill-rule:nonzero"/><path d="M32.77 97.2c-.302.003-.6-.065-.87-.2a2 2 0 0 1-.68-.52 2.6 2.6 0 0 1-.43-.79 2.8 2.8 0 0 1-.16-1 2.9 2.9 0 0 1 .14-1c.083-.293.226-.565.42-.8.364-.477.93-.758 1.53-.76.301-.006.599.059.87.19a2 2 0 0 1 .67.52c.188.236.334.504.43.79.111.322.169.66.17 1 .008.339-.039.677-.14 1-.09.29-.233.561-.42.8-.364.477-.93.758-1.53.76zm0-.77a1 1 0 0 0 .51-.14 1.15 1.15 0 0 0 .38-.38q.161-.257.24-.55.089-.335.08-.68a3 3 0 0 0-.1-.68 1.9 1.9 0 0 0-.26-.55 1.24 1.24 0 0 0-.39-.37.9.9 0 0 0-.52-.13 1 1 0 0 0-.5.14c-.153.093-.283.22-.38.37-.115.17-.197.36-.24.56a2.2 2.2 0 0 0-.08.68q-.002.347.09.68c.057.196.144.382.26.55.103.152.24.279.4.37a.9.9 0 0 0 .51.13" style="fill:url(#n);fill-rule:nonzero"/><path d="m37.9 91-.93.27-.2-.74 1.38-.46h.64l.07 5.21H38z" style="fill:url(#o);fill-rule:nonzero"/><path d="m13.56 99.81-.89.26-.19-.71 1.33-.45h.62l.06 5h-.87z" style="fill:url(#p);fill-rule:nonzero"/><path d="m13.65 106.3-.9.26-.19-.71 1.33-.44h.62l.06 5h-.87z" style="fill:url(#q);fill-rule:nonzero"/><path d="m20.37 106.22-.89.26-.2-.71 1.34-.44h.62l.06 5h-.87z" style="fill:url(#r);fill-rule:nonzero"/><path d="m13.72 112.45-.89.26-.2-.71 1.34-.44h.62l.06 5h-.88z" style="fill:url(#s);fill-rule:nonzero"/><path d="m13.8 118.29-.9.26-.19-.71 1.33-.45h.62l.06 5h-.87z" style="fill:url(#t);fill-rule:nonzero"/><path d="m7.77 118.36-.89.26-.2-.71 1.32-.44h.62l.06 5h-.85z" style="fill:url(#u);fill-rule:nonzero"/></g></g><path d="M105 57.33s18.15 9.12 18.15 31.24c0 18.57-9.71 38.4-42.21 44.74C41.57 141 14.71 112.2 14.71 112.2s20.59 34.66 51.87 34.21 50.69-13.95 50.69-13.95 21.53-17.73 24.06-26.17 6.33-20.68 6.33-20.68L140.06 62l-30-13.09z" style="fill:#e1251b;fill-rule:nonzero" transform="scale(1.33333)"/><path d="M98.27 61.68A32.6 32.6 0 0 1 109 63a17.1 17.1 0 0 1 9 6.06 27.1 27.1 0 0 1 4 10.22 50.2 50.2 0 0 1 1 10.87 49.2 49.2 0 0 1-5.08 21.28 35.5 35.5 0 0 1-6.58 9.1c-.66.69-1.39 1.3-2.11 1.92s-1.45 1.13-2.18 1.7-1.45 1.11-2.21 1.62-1.5 1.06-2.28 1.55a62.6 62.6 0 0 1-20.4 8.68 53.1 53.1 0 0 1-22.28.11 75.5 75.5 0 0 1-10.57-3.19c-3.4-1.29-6.72-2.68-10-4.21a159 159 0 0 1-18.85-10.32l.26-.53c6.77 2.28 13.46 4.66 20.17 6.88l5 1.63c1.68.5 3.36 1 5 1.49a83 83 0 0 0 10 2.37 64 64 0 0 0 20.12.18 54.8 54.8 0 0 0 19-7c.74-.43 1.46-.91 2.19-1.36s1.45-.93 2.15-1.44a33 33 0 0 0 4-3.08 31.5 31.5 0 0 0 6.19-7.86 47.1 47.1 0 0 0 5.7-19.67 48 48 0 0 0-.34-10.37 25.6 25.6 0 0 0-3.19-9.63 15.9 15.9 0 0 0-8.11-5.92 31.6 31.6 0 0 0-10.31-1.78z" style="fill:#672f25;fill-rule:nonzero" transform="scale(1.33333)"/><path d="M85.19 139.21c30.39-5.9 39.94-24.35 41.37-41.78 1.69-20.68-8.44-30-14.07-34.47 3.66 3 10.27 12.94 10.27 25.61 0 18.57-9.71 38.4-42.21 44.74-21.22 4.13-48.22-8.37-59.93-15.2 9.25 8.99 37.58 26.35 64.57 21.1" style="fill:#ff9e18;fill-rule:nonzero" transform="scale(1.33333)"/><circle cx="75.35" cy="74.64" r="71.75" style="fill:none;stroke:#231f20;stroke-width:4.22px" transform="scale(1.33333)"/></g></g><defs><linearGradient id="d" x1="0" y1="0" x2="1" y2="0" gradientUnits="userSpaceOnUse" gradientTransform="rotate(-32.124 297.045 394.551)scale(211.104)"><stop offset="0" style="stop-color:#ce0e2d;stop-opacity:1"/><stop offset=".53" style="stop-color:#ff9e18;stop-opacity:1"/><stop offset=".99" style="stop-color:#f7be00;stop-opacity:1"/><stop offset="1" style="stop-color:#f7be00;stop-opacity:1"/></linearGradient><linearGradient id="e" x1="0" y1="0" x2="1" y2="0" gradientUnits="userSpaceOnUse" gradientTransform="rotate(-36 1634.92 1691.435)scale(914.183)"><stop offset="0" style="stop-color:#ce0e2d;stop-opacity:1"/><stop offset=".53" style="stop-color:#ff9e18;stop-opacity:1"/><stop offset=".99" style="stop-color:#f7be00;stop-opacity:1"/><stop offset="1" style="stop-color:#f7be00;stop-opacity:1"/></linearGradient><linearGradient id="f" x1="0" y1="0" x2="1" y2="0" gradientUnits="userSpaceOnUse" gradientTransform="rotate(-36.073 1675.657 1757.499)scale(912.615)"><stop offset="0" style="stop-color:#ce0e2d;stop-opacity:1"/><stop offset=".53" style="stop-color:#ff9e18;stop-opacity:1"/><stop offset=".99" style="stop-color:#f7be00;stop-opacity:1"/><stop offset="1" style="stop-color:#f7be00;stop-opacity:1"/></linearGradient><linearGradient id="g" x1="0" y1="0" x2="1" y2="0" gradientUnits="userSpaceOnUse" gradientTransform="rotate(-36.121 1690.03 1702.537)scale(911.561)"><stop offset="0" style="stop-color:#ce0e2d;stop-opacity:1"/><stop offset=".53" style="stop-color:#ff9e18;stop-opacity:1"/><stop offset=".99" style="stop-color:#f7be00;stop-opacity:1"/><stop offset="1" style="stop-color:#f7be00;stop-opacity:1"/></linearGradient><linearGradient id="h" x1="0" y1="0" x2="1" y2="0" gradientUnits="userSpaceOnUse" gradientTransform="rotate(-36.084 1749.8 1722.021)scale(910.93)"><stop offset="0" style="stop-color:#ce0e2d;stop-opacity:1"/><stop offset=".53" style="stop-color:#ff9e18;stop-opacity:1"/><stop offset=".99" style="stop-color:#f7be00;stop-opacity:1"/><stop offset="1" style="stop-color:#f7be00;stop-opacity:1"/></linearGradient><linearGradient id="i" x1="0" y1="0" x2="1" y2="0" gradientUnits="userSpaceOnUse" gradientTransform="rotate(-36.123 1706.267 1652.752)scale(911.633)"><stop offset="0" style="stop-color:#ce0e2d;stop-opacity:1"/><stop offset=".53" style="stop-color:#ff9e18;stop-opacity:1"/><stop offset=".99" style="stop-color:#f7be00;stop-opacity:1"/><stop offset="1" style="stop-color:#f7be00;stop-opacity:1"/></linearGradient><linearGradient id="j" x1="0" y1="0" x2="1" y2="0" gradientUnits="userSpaceOnUse" gradientTransform="rotate(-36.028 1702.35 1879.99)scale(911.93)"><stop offset="0" style="stop-color:#ce0e2d;stop-opacity:1"/><stop offset=".53" style="stop-color:#ff9e18;stop-opacity:1"/><stop offset=".99" style="stop-color:#f7be00;stop-opacity:1"/><stop offset="1" style="stop-color:#f7be00;stop-opacity:1"/></linearGradient><linearGradient id="k" x1="0" y1="0" x2="1" y2="0" gradientUnits="userSpaceOnUse" gradientTransform="rotate(-35.88 1755.677 1897.264)scale(908.768)"><stop offset="0" style="stop-color:#ce0e2d;stop-opacity:1"/><stop offset=".53" style="stop-color:#ff9e18;stop-opacity:1"/><stop offset=".99" style="stop-color:#f7be00;stop-opacity:1"/><stop offset="1" style="stop-color:#f7be00;stop-opacity:1"/></linearGradient><linearGradient id="l" x1="0" y1="0" x2="1" y2="0" gradientUnits="userSpaceOnUse" gradientTransform="rotate(-36.075 1795.397 1963.08)scale(911.074)"><stop offset="0" style="stop-color:#ce0e2d;stop-opacity:1"/><stop offset=".53" style="stop-color:#ff9e18;stop-opacity:1"/><stop offset=".99" style="stop-color:#f7be00;stop-opacity:1"/><stop offset="1" style="stop-color:#f7be00;stop-opacity:1"/></linearGradient><linearGradient id="m" x1="0" y1="0" x2="1" y2="0" gradientUnits="userSpaceOnUse" gradientTransform="rotate(-36.135 1790.943 1791.828)scale(911.708)"><stop offset="0" style="stop-color:#ce0e2d;stop-opacity:1"/><stop offset=".53" style="stop-color:#ff9e18;stop-opacity:1"/><stop offset=".99" style="stop-color:#f7be00;stop-opacity:1"/><stop offset="1" style="stop-color:#f7be00;stop-opacity:1"/></linearGradient><linearGradient id="n" x1="0" y1="0" x2="1" y2="0" gradientUnits="userSpaceOnUse" gradientTransform="rotate(-36.18 1645.801 1632.325)scale(912.1)"><stop offset="0" style="stop-color:#ce0e2d;stop-opacity:1"/><stop offset=".53" style="stop-color:#ff9e18;stop-opacity:1"/><stop offset=".99" style="stop-color:#f7be00;stop-opacity:1"/><stop offset="1" style="stop-color:#f7be00;stop-opacity:1"/></linearGradient><linearGradient id="o" x1="0" y1="0" x2="1" y2="0" gradientUnits="userSpaceOnUse" gradientTransform="rotate(-56.692 1101.64 980.226)scale(685.75)"><stop offset="0" style="stop-color:#ce0e2d;stop-opacity:1"/><stop offset=".53" style="stop-color:#ff9e18;stop-opacity:1"/><stop offset=".99" style="stop-color:#f7be00;stop-opacity:1"/><stop offset="1" style="stop-color:#f7be00;stop-opacity:1"/></linearGradient><linearGradient id="p" x1="0" y1="0" x2="1" y2="0" gradientUnits="userSpaceOnUse" gradientTransform="rotate(-56.637 1058.982 1009.83)scale(635.71)"><stop offset="0" style="stop-color:#ce0e2d;stop-opacity:1"/><stop offset=".53" style="stop-color:#ff9e18;stop-opacity:1"/><stop offset=".99" style="stop-color:#f7be00;stop-opacity:1"/><stop offset="1" style="stop-color:#f7be00;stop-opacity:1"/></linearGradient><linearGradient id="q" x1="0" y1="0" x2="1" y2="0" gradientUnits="userSpaceOnUse" gradientTransform="rotate(-56.635 1095.23 1029.249)scale(635.668)"><stop offset="0" style="stop-color:#ce0e2d;stop-opacity:1"/><stop offset=".53" style="stop-color:#ff9e18;stop-opacity:1"/><stop offset=".99" style="stop-color:#f7be00;stop-opacity:1"/><stop offset="1" style="stop-color:#f7be00;stop-opacity:1"/></linearGradient><linearGradient id="r" x1="0" y1="0" x2="1" y2="0" gradientUnits="userSpaceOnUse" gradientTransform="rotate(-56.504 1107.87 1012.994)scale(636.627)"><stop offset="0" style="stop-color:#ce0e2d;stop-opacity:1"/><stop offset=".53" style="stop-color:#ff9e18;stop-opacity:1"/><stop offset=".99" style="stop-color:#f7be00;stop-opacity:1"/><stop offset="1" style="stop-color:#f7be00;stop-opacity:1"/></linearGradient><linearGradient id="s" x1="0" y1="0" x2="1" y2="0" gradientUnits="userSpaceOnUse" gradientTransform="rotate(-56.507 1132.088 1050.304)scale(636.669)"><stop offset="0" style="stop-color:#ce0e2d;stop-opacity:1"/><stop offset=".53" style="stop-color:#ff9e18;stop-opacity:1"/><stop offset=".99" style="stop-color:#f7be00;stop-opacity:1"/><stop offset="1" style="stop-color:#f7be00;stop-opacity:1"/></linearGradient><linearGradient id="t" x1="0" y1="0" x2="1" y2="0" gradientUnits="userSpaceOnUse" gradientTransform="rotate(-56.637 1161.98 1065.057)scale(635.71)"><stop offset="0" style="stop-color:#ce0e2d;stop-opacity:1"/><stop offset=".53" style="stop-color:#ff9e18;stop-opacity:1"/><stop offset=".99" style="stop-color:#f7be00;stop-opacity:1"/><stop offset="1" style="stop-color:#f7be00;stop-opacity:1"/></linearGradient><linearGradient id="u" x1="0" y1="0" x2="1" y2="0" gradientUnits="userSpaceOnUse" gradientTransform="rotate(-56.769 1150.285 1079.142)scale(634.76)"><stop offset="0" style="stop-color:#ce0e2d;stop-opacity:1"/><stop offset=".53" style="stop-color:#ff9e18;stop-opacity:1"/><stop offset=".99" style="stop-color:#f7be00;stop-opacity:1"/><stop offset="1" style="stop-color:#f7be00;stop-opacity:1"/></linearGradient></defs></svg>