<svg width="256" height="256" title="GitHub" viewBox="0 0 256 256" fill="none" xmlns="http://www.w3.org/2000/svg" id="github">
<style>
#github {
    rect {fill: #15191C}
    path {fill: #F4F2ED}

    @media (prefers-color-scheme: light) {
        rect {fill: #F4F2ED}
        path {fill: #15191C}
    }
}
</style>
<rect width="256" height="256" rx="40" fill="#15191C"/>
<path d="M128.5 43C80.1562 43 41 82.1781 41 130.5C41 169.168 66.0687 201.958 100.828 213.516C105.203 214.34 106.807 211.634 106.807 209.308C106.807 207.23 106.734 201.725 106.698 194.433C82.3583 199.713 77.225 182.694 77.225 182.694C73.2437 172.595 67.4906 169.897 67.4906 169.897C59.5646 164.472 68.1031 164.581 68.1031 164.581C76.8896 165.194 81.5052 173.594 81.5052 173.594C89.3073 186.974 101.988 183.109 106.99 180.871C107.777 175.212 110.03 171.355 112.531 169.168C93.099 166.98 72.675 159.455 72.675 125.928C72.675 116.376 76.0656 108.574 81.6802 102.449C80.6958 100.24 77.7427 91.3438 82.4458 79.2906C82.4458 79.2906 89.774 76.9427 106.508 88.2594C113.508 86.3125 120.946 85.35 128.383 85.3063C135.821 85.35 143.258 86.3125 150.258 88.2594C166.883 76.9427 174.211 79.2906 174.211 79.2906C178.915 91.3438 175.961 100.24 175.086 102.449C180.665 108.574 184.055 116.376 184.055 125.928C184.055 159.543 163.602 166.944 144.133 169.095C147.196 171.72 150.04 177.086 150.04 185.282C150.04 196.993 149.93 206.399 149.93 209.243C149.93 211.54 151.461 214.274 155.946 213.399C190.953 201.922 216 169.109 216 130.5C216 82.1781 176.822 43 128.5 43Z" fill="#F4F2ED"/>
</svg>