<svg width="256" height="256" title="GitLab" viewBox="0 0 256 256" fill="none" xmlns="http://www.w3.org/2000/svg" id="gitlab">
<style>
#gitlab {
    rect {fill: #15191C}

    @media (prefers-color-scheme: light) {
        rect {fill: #F4F2ED}
    }
}
</style>
<rect width="256" height="256" rx="40" fill="#15191C"/>
<path d="M203.416 112.127L203.253 111.638L182.034 56.4692C181.545 55.3267 180.892 54.5106 179.913 53.8577C178.933 53.2048 177.791 52.8784 176.648 53.0416C175.506 53.0416 174.363 53.5313 173.384 54.1841C172.404 54.837 171.752 55.9796 171.588 56.9589L157.388 100.539H99.6082L85.408 56.9589C85.0816 55.9796 84.4287 54.837 83.6126 54.1841C82.6333 53.5313 81.654 53.0416 80.3482 53.0416C79.2057 53.0416 78.0631 53.2048 77.0838 53.8577C76.1045 54.5106 75.2884 55.3267 74.9619 56.4692L53.7433 111.474L53.5801 111.964C47.3777 128.286 52.6007 146.73 66.6377 157.176L66.8009 157.339L98.9553 181.333L114.788 193.411L124.418 200.756C126.703 202.551 129.967 202.551 132.252 200.756L141.882 193.411L157.715 181.333L190.032 157.176C190.032 157.176 190.032 157.176 190.195 157.176C204.396 146.893 209.619 128.449 203.416 112.127Z" fill="#E24329"/>
<path d="M203.416 112.127L203.253 111.638C192.807 113.76 183.177 118.167 174.853 124.369C174.69 124.369 149.717 143.302 128.498 159.298C144.331 171.213 158.041 181.659 158.041 181.659L190.359 157.503C190.359 157.503 190.359 157.503 190.522 157.503C204.396 146.893 209.619 128.449 203.416 112.127Z" fill="#FC6D26"/>
<path d="M98.9553 181.659L114.788 193.738L124.418 201.082C126.703 202.878 129.967 202.878 132.252 201.082L141.882 193.738L157.715 181.659C157.715 181.659 144.004 171.213 128.172 159.298C112.666 171.213 98.9553 181.659 98.9553 181.659Z" fill="#FCA326"/>
<path d="M82.1436 124.206C73.8194 118.003 64.1894 113.596 53.7433 111.474L53.5801 111.964C47.3777 128.286 52.6007 146.73 66.6377 157.176L66.8009 157.339L98.9553 181.333C98.9553 181.333 112.666 170.887 128.498 158.972C107.28 143.302 82.3068 124.369 82.1436 124.206Z" fill="#FC6D26"/>
</svg>