<svg width="256" height="256" title="Gmail" viewBox="0 0 256 256" fill="none" xmlns="http://www.w3.org/2000/svg" id="gmail">
<style>
#gmail {
    rect {fill: #15191C}

    @media (prefers-color-scheme: light) {
        rect {fill: #F4F2ED}
    }
}
</style>
<rect width="256" height="256" rx="40" fill="#15191C"/>
<path d="M57.25 189.782H83.5V126.032L46 97.9069V178.532C46 184.757 51.0438 189.782 57.25 189.782Z" fill="#4285F4"/>
<path d="M173.5 189.782H199.75C205.975 189.782 211 184.738 211 178.532V97.9069L173.5 126.032" fill="#34A853"/>
<path d="M173.5 77.2819V126.032L211 97.9069V82.9069C211 68.9944 195.119 61.0632 184 69.4069" fill="#FBBC04"/>
<path d="M83.5 126.032V77.2819L128.5 111.032L173.5 77.2819V126.032L128.5 159.782" fill="#EA4335"/>
<path d="M46 82.9069V97.9069L83.5 126.032V77.2819L73 69.4069C61.8625 61.0632 46 68.9944 46 82.9069Z" fill="#C5221F"/>
</svg>