<svg width="256" height="256" title="Godot" viewBox="0 0 256 256" fill="none" xmlns="http://www.w3.org/2000/svg" id="godot">
<style>
#godot {
    rect {fill: #15191C}

    @media (prefers-color-scheme: light) {
        rect {fill: #F4F2ED}
    }
}
</style>
<rect width="256" height="256" rx="40" fill="#15191C"/>
<path d="M200.908 156.019C200.908 156.019 200.668 154.543 200.527 154.557L173.748 157.14C171.617 157.346 169.962 159.046 169.813 161.181L169.077 171.725L148.36 173.203L146.95 163.647C146.637 161.521 144.78 159.919 142.632 159.919H114.368C112.22 159.919 110.364 161.521 110.05 163.647L108.64 173.203L87.9229 171.725L87.1873 161.181C87.0378 159.045 85.3828 157.345 83.252 157.14L56.4597 154.557C56.3213 154.543 56.2199 156.021 56.0815 156.021L56.0452 161.816L78.7358 165.475L79.4789 176.113C79.6292 178.267 81.3669 180.009 83.5222 180.163L112.055 182.199C112.163 182.206 112.269 182.211 112.376 182.211C114.52 182.211 116.373 180.607 116.687 178.482L118.137 168.649H138.864L140.314 178.482C140.627 180.607 142.482 182.21 144.629 182.21C144.734 182.21 144.84 182.206 144.942 182.199L173.479 180.163C175.633 180.009 177.372 178.267 177.522 176.113L178.264 165.475L200.945 161.8L200.908 156.019Z" fill="white"/>
<path d="M56.0812 112.322V156.019C56.1611 156.02 56.241 156.023 56.3202 156.03L83.1096 158.613C84.5129 158.749 85.6127 159.878 85.7104 161.284L86.5363 173.11L109.905 174.777L111.515 163.863C111.723 162.448 112.937 161.399 114.369 161.399H142.632C144.063 161.399 145.277 162.448 145.485 163.863L147.095 174.777L170.464 173.11L171.29 161.284C171.388 159.878 172.487 158.749 173.89 158.613L200.669 156.03C200.749 156.023 200.828 156.02 200.908 156.019V152.532L200.919 152.529V112.322C204.691 107.573 208.263 102.334 211 97.9272C206.818 90.8072 201.693 84.4444 196.215 78.5494C191.135 81.1065 186.201 84.0033 181.54 87.0859C179.208 84.7678 176.582 82.8717 174.001 80.8896C171.467 78.8536 168.61 77.3607 165.9 75.6215C166.707 69.6139 167.106 63.6996 167.266 57.527C160.275 54.0085 152.82 51.6756 145.279 50C142.268 55.0602 139.515 60.54 137.117 65.897C134.273 65.4219 131.416 65.2457 128.556 65.2117V65.2072C128.536 65.2072 128.517 65.2117 128.5 65.2117C128.483 65.2117 128.464 65.2072 128.446 65.2072V65.2117C125.581 65.2457 122.726 65.4219 119.882 65.897C117.485 60.54 114.733 55.0602 111.718 50C104.181 51.6756 96.7248 54.0085 89.7344 57.527C89.8943 63.6996 90.2932 69.6139 91.1021 75.6215C88.3874 77.3607 85.5342 78.8536 82.9986 80.8896C80.4222 82.8717 77.7911 84.7678 75.4582 87.0859C70.7977 84.0033 65.8648 81.1065 60.7831 78.5494C55.3055 84.4444 50.1839 90.8072 46 97.9272C49.2881 103.089 52.815 108.276 56.0812 112.322Z" fill="#478CBF"/>
<path d="M176.875 164.122L176.045 176.01C175.945 177.443 174.805 178.584 173.373 178.687L144.837 180.723C144.768 180.728 144.698 180.73 144.629 180.73C143.211 180.73 141.988 179.689 141.778 178.265L140.142 167.168H116.858L115.222 178.265C115.002 179.759 113.667 180.833 112.163 180.723L83.6279 178.687C82.195 178.584 81.0552 177.443 80.9553 176.01L80.1256 164.122L56.037 161.799C56.0481 164.388 56.0814 167.224 56.0814 167.789C56.0814 193.23 88.3543 205.458 128.451 205.599H128.549C168.646 205.458 200.908 193.23 200.908 167.789C200.908 167.214 200.943 164.39 200.955 161.799L176.875 164.122Z" fill="#478CBF"/>
<path d="M106.669 130.06C106.669 138.98 99.4413 146.206 90.5244 146.206C81.6118 146.206 74.3824 138.98 74.3824 130.06C74.3824 121.146 81.6118 113.924 90.5244 113.924C99.4413 113.924 106.669 121.146 106.669 130.06Z" fill="white"/>
<path d="M102.784 131.018C102.784 136.934 97.9887 141.729 92.0678 141.729C86.1498 141.729 81.3516 136.934 81.3516 131.018C81.3516 125.101 86.1498 120.301 92.0678 120.301C97.9887 120.301 102.784 125.101 102.784 131.018Z" fill="#414042"/>
<path d="M128.499 147.675C125.629 147.675 123.302 145.559 123.302 142.952V128.089C123.302 125.484 125.629 123.367 128.499 123.367C131.369 123.367 133.7 125.484 133.7 128.089V142.952C133.7 145.559 131.369 147.675 128.499 147.675Z" fill="white"/>
<path d="M150.332 130.06C150.332 138.98 157.559 146.206 166.477 146.206C175.389 146.206 182.618 138.98 182.618 130.06C182.618 121.146 175.389 113.924 166.477 113.924C157.559 113.924 150.332 121.146 150.332 130.06Z" fill="white"/>
<path d="M154.217 131.018C154.217 136.934 159.011 141.729 164.928 141.729C170.85 141.729 175.644 136.934 175.644 131.018C175.644 125.101 170.85 120.301 164.928 120.301C159.011 120.301 154.217 125.101 154.217 131.018Z" fill="#414042"/>
</svg>