<svg width="256" height="256" title="Google BigQuery" viewBox="0 0 256 256" fill="none" xmlns="http://www.w3.org/2000/svg" id="googlebigquery">
<style>
#googlebigquery {
    rect {fill: #15191C}

    @media (prefers-color-scheme: light) {
        rect {fill: #F4F2ED}
    }
}
</style>
<rect width="256" height="256" rx="40" fill="#15191C"/>
<path d="M78.9948 197.907L43.1062 135.744C41.7264 133.354 41 130.643 41 127.884C41 125.124 41.7264 122.413 43.1062 120.023L78.9948 57.8613C80.3748 55.471 82.3598 53.4861 84.7501 52.1062C87.1404 50.7262 89.8519 49.9998 92.6119 50H164.389C167.149 50.0001 169.86 50.7266 172.25 52.1065C174.64 53.4865 176.625 55.4712 178.005 57.8613L213.893 120.023C215.273 122.413 216 125.124 216 127.884C216 130.644 215.273 133.355 213.893 135.746L178.005 197.907C176.625 200.297 174.64 202.282 172.25 203.661C169.86 205.041 167.149 205.767 164.389 205.767H92.6119C89.8518 205.768 87.1403 205.041 84.75 203.661C82.3596 202.281 80.3747 200.298 78.9948 197.907Z" fill="url(#linearGradient)"/>
<path opacity="0.07" d="M204.009 158.619L151.23 105.837L128.501 99.7545L108.084 107.342L100.2 127.884L106.539 150.756L162.509 206.726L174.386 206.198L204.009 158.619Z" fill="black"/>
<path d="M128.5 96.1711C110.987 96.1711 96.7887 110.369 96.7887 127.884C96.7887 145.398 110.987 159.596 128.5 159.596C146.014 159.596 160.211 145.398 160.211 127.884C160.211 110.369 146.013 96.1711 128.5 96.1711ZM128.5 151.945C115.211 151.945 104.438 141.172 104.438 127.883C104.438 114.594 115.211 103.822 128.5 103.822C141.79 103.822 152.563 114.595 152.563 127.884C152.563 141.173 141.79 151.945 128.5 151.945Z" fill="white"/>
<path d="M113.448 126.659V136.517C114.906 139.021 116.964 141.123 119.436 142.635V126.659H113.448ZM125.322 118.35V144.888C126.34 145.075 127.382 145.189 128.453 145.189C129.429 145.189 130.38 145.086 131.314 144.93V118.35H125.322ZM137.751 130.755V142.461C140.262 140.864 142.324 138.652 143.742 136.035V130.757L137.751 130.755ZM151.32 147.417L148.035 150.705C147.757 150.984 147.6 151.362 147.6 151.756C147.6 152.15 147.757 152.528 148.035 152.807L160.497 165.264C160.776 165.543 161.153 165.699 161.547 165.699C161.941 165.699 162.319 165.543 162.598 165.264L165.883 161.98C166.16 161.701 166.315 161.324 166.315 160.93C166.315 160.537 166.16 160.16 165.883 159.88L153.42 147.417C153.141 147.14 152.764 146.985 152.37 146.985C151.977 146.985 151.599 147.14 151.32 147.417Z" fill="white"/>
<linearGradient id="linearGradient" x1="128.5" y1="50.0014" x2="128.5" y2="205.525" gradientUnits="userSpaceOnUse">
<stop stop-color="#4387FD"/>
<stop offset="1" stop-color="#4683EA"/>
</linearGradient>
</svg>