<svg width="256" height="256" title="Google Colaboratory" viewBox="0 0 256 256" fill="none" xmlns="http://www.w3.org/2000/svg" id="googlecolaboratory">
<style>
#googlecolaboratory {
    rect {fill: #15191C}

    @media (prefers-color-scheme: light) {
        rect {fill: #F4F2ED}
    }
}
</style>
<rect width="256" height="256" rx="40" fill="#15191C"/>
<path d="M71.2624 109.273L53.3937 91.4044C43.5362 101.241 38 114.57 38 128.467C38 142.364 43.5362 155.693 53.3937 165.53L71.3385 147.661C66.2254 142.576 63.3462 135.679 63.3319 128.483C63.3177 121.287 66.1696 114.379 71.2624 109.273Z" fill="#E8710A"/>
<path d="M53.3937 91.4044L71.2624 109.273C73.7976 106.746 76.8083 104.741 80.1222 103.373C83.4362 102.005 86.9884 101.301 90.5758 101.301C94.1632 101.301 97.7155 102.005 101.029 103.373C104.343 104.741 107.354 106.746 109.889 109.273L122.892 87.0886L122.131 86.4829C111.989 78.9484 99.4633 75.2995 86.8425 76.2032C74.2217 77.1068 62.3488 82.5026 53.3937 91.4044Z" fill="#F9AB00"/>
<path d="M122.968 169.846L109.889 147.737C107.354 150.264 104.343 152.269 101.029 153.637C97.7155 155.005 94.1632 155.709 90.5758 155.709C86.9884 155.709 83.4362 155.005 80.1222 153.637C76.8083 152.269 73.7976 150.264 71.2624 147.737L53.3937 165.606C62.3309 174.428 74.1439 179.774 86.6958 180.677C99.2476 181.58 111.709 177.979 121.827 170.527L122.663 169.846" fill="#F9AB00"/>
<path d="M127.986 91.4044C118.128 101.241 112.592 114.57 112.592 128.467C112.592 142.364 118.128 155.693 127.986 165.53L145.931 147.661C140.809 142.56 137.931 135.643 137.931 128.429C137.931 121.216 140.809 114.298 145.931 109.198C151.053 104.097 158 101.231 165.244 101.231C172.488 101.231 179.435 104.097 184.558 109.198L202.578 91.4044C197.684 86.5212 191.87 82.6471 185.471 80.0039C179.071 77.3606 172.211 76 165.282 76C158.354 76 151.493 77.3606 145.094 80.0039C138.694 82.6471 132.88 86.5212 127.986 91.4044Z" fill="#F9AB00"/>
<path d="M202.578 91.4044L184.71 109.273C189.832 114.374 192.709 121.292 192.709 128.505C192.709 135.718 189.832 142.636 184.71 147.737C179.587 152.837 172.64 155.703 165.396 155.703C158.152 155.703 151.205 152.837 146.083 147.737L127.986 165.606C137.867 175.455 151.274 180.993 165.255 181C172.178 181.004 179.034 179.649 185.432 177.014C191.829 174.379 197.642 170.516 202.54 165.644C207.438 160.771 211.324 154.986 213.977 148.619C216.629 142.251 217.996 135.426 218 128.532C218.004 121.638 216.643 114.811 213.997 108.441C211.351 102.07 207.471 96.2815 202.578 91.4044Z" fill="#E8710A"/>
</svg>