<svg width="256" height="256" title="Google Workspace" viewBox="0 0 256 256" fill="none" xmlns="http://www.w3.org/2000/svg" id="googleworkspace">
<style>
#googleworkspace {
    rect {fill: #15191C}
    path.workspace {fill: #C0C0C0}

    @media (prefers-color-scheme: light) {
        rect {fill: #F4F2ED}
        path.workspace {fill: #5F6368}
    }
}
</style>
<rect width="256" height="256" rx="40" fill="#15191C"/>
<path d="M68.4821 130.642H72.1676L64.835 157.805H61.2263L55.3141 139.898H55.1606L49.2484 157.805H45.6397L38 130.642H41.6855L47.4825 152.001H47.636L53.5866 134.284H56.8882L62.8387 152.001H62.9923L68.4821 130.642Z" class="workspace" fill="#C0C0C0"/>
<path d="M71.8338 148.51C71.8338 145.653 72.7424 143.288 74.5596 141.416C76.4023 139.544 78.7185 138.609 81.5082 138.609C84.298 138.609 86.6014 139.544 88.4186 141.416C90.2613 143.288 91.1827 145.653 91.1827 148.51C91.1827 151.394 90.2613 153.759 88.4186 155.605C86.6009 157.477 84.2974 158.413 81.5082 158.412C78.719 158.412 76.4028 157.475 74.5596 155.603C72.7419 153.732 71.8333 151.367 71.8338 148.508M75.3658 148.508C75.3658 150.507 75.9544 152.125 77.1317 153.364C78.309 154.603 79.7679 155.222 81.5082 155.222C83.2486 155.222 84.7075 154.603 85.8848 153.364C87.0621 152.125 87.6507 150.507 87.6507 148.508C87.6507 146.535 87.0621 144.929 85.8848 143.69C84.6834 142.426 83.2246 141.794 81.5082 141.793C79.7919 141.793 78.3325 142.426 77.1302 143.692C75.9523 144.931 75.3637 146.537 75.3642 148.51" class="workspace" fill="#C0C0C0"/>
<path d="M97.2209 157.805H93.689V139.216H97.0674V142.251H97.2241C97.5824 141.264 98.3183 140.423 99.4319 139.727C100.546 139.032 101.64 138.684 102.714 138.684C103.737 138.684 104.607 138.836 105.325 139.14L104.246 142.518C103.811 142.341 103.12 142.253 102.173 142.252C100.842 142.252 99.6845 142.783 98.6994 143.846C97.7143 144.908 97.2215 146.147 97.2209 147.562V157.805Z" class="workspace" fill="#C0C0C0"/>
<path d="M123.503 157.805H119.241L113.368 149.042L110.488 151.849V157.805H106.956V130.642H110.488V147.372L118.627 139.216H123.157V139.367L115.825 146.576L123.503 157.654V157.805Z" class="workspace" fill="#C0C0C0"/>
<path d="M138.785 152.646C138.785 154.265 138.069 155.631 136.636 156.743C135.202 157.855 133.398 158.412 131.222 158.412C129.329 158.412 127.665 157.925 126.232 156.951C124.828 156.015 123.754 154.669 123.16 153.101L126.308 151.773C126.769 152.887 127.441 153.753 128.324 154.372C129.166 154.978 130.182 155.304 131.223 155.301C132.35 155.301 133.29 155.06 134.044 154.58C134.797 154.099 135.175 153.53 135.176 152.873C135.176 151.685 134.255 150.813 132.412 150.255L129.187 149.458C125.528 148.548 123.698 146.802 123.698 144.221C123.698 142.527 124.395 141.167 125.791 140.142C127.186 139.117 128.971 138.605 131.146 138.606C132.81 138.606 134.314 138.998 135.657 139.782C137 140.566 137.941 141.616 138.477 142.931L135.33 144.221C134.969 143.434 134.355 142.787 133.584 142.381C132.754 141.933 131.822 141.704 130.877 141.717C130.002 141.704 129.143 141.941 128.401 142.4C127.67 142.855 127.304 143.412 127.304 144.069C127.304 145.132 128.315 145.89 130.337 146.346L133.178 147.067C136.915 147.977 138.783 149.835 138.783 152.641" class="workspace" fill="#C0C0C0"/>
<path d="M151.051 158.412C149.669 158.412 148.408 158.121 147.27 157.54C146.131 156.958 145.254 156.187 144.64 155.226H144.483L144.64 157.805V166H141.108V139.216H144.486V141.795H144.643C145.257 140.835 146.134 140.063 147.273 139.481C148.412 138.899 149.672 138.608 151.054 138.609C153.536 138.609 155.635 139.57 157.35 141.492C159.116 143.44 159.999 145.779 159.999 148.51C159.999 151.268 159.116 153.607 157.35 155.529C155.635 157.451 153.537 158.412 151.054 158.412M150.478 155.226C152.167 155.226 153.588 154.593 154.739 153.329C155.889 152.09 156.463 150.484 156.463 148.51C156.463 146.563 155.889 144.957 154.739 143.692C153.59 142.427 152.17 141.795 150.478 141.795C148.763 141.795 147.33 142.428 146.178 143.692C145.052 144.957 144.489 146.563 144.489 148.51C144.489 150.483 145.052 152.102 146.178 153.367C147.327 154.605 148.761 155.226 150.478 155.226Z" class="workspace" fill="#C0C0C0"/>
<path d="M169.67 138.609C172.282 138.609 174.342 139.298 175.851 140.676C177.36 142.054 178.115 143.945 178.116 146.348V157.807H174.738V155.226H174.581C173.122 157.35 171.177 158.412 168.746 158.412C166.673 158.412 164.938 157.805 163.543 156.591C162.148 155.377 161.451 153.86 161.451 152.039C161.451 150.117 162.187 148.587 163.659 147.448C165.13 146.31 167.094 145.74 169.552 145.741C171.65 145.741 173.378 146.12 174.735 146.879V146.079C174.735 144.865 174.248 143.835 173.276 142.987C172.339 142.153 171.119 141.7 169.859 141.716C167.888 141.716 166.327 142.538 165.175 144.182L162.066 142.247C163.78 139.821 166.313 138.608 169.666 138.608M165.102 152.118C165.102 153.029 165.492 153.788 166.272 154.395C167.053 155.002 167.967 155.305 169.014 155.305C170.498 155.305 171.823 154.762 172.987 153.674C174.152 152.586 174.735 151.309 174.735 149.842C173.634 148.983 172.098 148.553 170.128 148.552C168.694 148.552 167.497 148.894 166.538 149.577C165.578 150.26 165.1 151.107 165.102 152.118Z" class="workspace" fill="#C0C0C0"/>
<path d="M190.09 158.412C187.3 158.412 184.984 157.477 183.141 155.605C181.324 153.683 180.415 151.318 180.416 148.51C180.416 145.653 181.324 143.288 183.141 141.416C184.984 139.544 187.3 138.609 190.09 138.609C192.01 138.609 193.686 139.083 195.119 140.031C196.552 140.979 197.627 142.288 198.344 143.958L195.122 145.286C194.124 142.959 192.371 141.795 189.863 141.795C188.25 141.795 186.856 142.441 185.678 143.731C184.527 145.021 183.951 146.615 183.951 148.511C183.951 150.408 184.527 152.001 185.678 153.291C186.855 154.582 188.25 155.227 189.863 155.227C192.448 155.227 194.265 154.064 195.314 151.737L198.462 153.065C197.771 154.734 196.69 156.043 195.218 156.991C193.746 157.939 192.038 158.413 190.093 158.414" class="workspace" fill="#C0C0C0"/>
<path d="M209.097 158.412C206.332 158.412 204.055 157.477 202.263 155.605C200.471 153.733 199.576 151.368 199.576 148.51C199.576 145.678 200.446 143.32 202.186 141.435C203.927 139.55 206.153 138.608 208.866 138.609C211.655 138.609 213.875 139.5 215.526 141.283C217.176 143.066 218.001 145.563 218 148.776L217.962 149.155H203.184C203.237 150.976 203.851 152.443 205.027 153.556C206.203 154.669 207.611 155.226 209.25 155.226C211.502 155.226 213.268 154.113 214.548 151.887L217.696 153.405C216.893 154.929 215.677 156.204 214.183 157.085C212.685 157.969 210.99 158.412 209.097 158.412ZM203.455 146.272H214.239C214.135 144.982 213.604 143.913 212.646 143.066C211.688 142.219 210.402 141.795 208.788 141.795C207.456 141.795 206.311 142.2 205.351 143.009C204.392 143.819 203.759 144.906 203.452 146.272" class="workspace" fill="#C0C0C0"/>
<path d="M83.0713 109.24V105.039H97.2993C97.4573 105.888 97.5342 106.751 97.5289 107.615C97.5289 110.764 96.6569 114.665 93.8465 117.44C91.1145 120.253 87.6241 121.753 82.9953 121.753C74.4217 121.753 67.2137 114.852 67.2137 106.377C67.2137 97.9009 74.4217 91 82.9969 91C87.7409 91 91.1161 92.8381 93.6585 95.2382L90.6609 98.2005C88.8377 96.5134 86.3737 95.2003 82.9969 95.2003C76.7369 95.2003 71.8425 100.188 71.8425 106.377C71.8425 112.565 76.7369 117.557 82.9969 117.557C87.0569 117.557 89.3713 115.944 90.8505 114.481C92.0563 113.29 92.8507 111.58 93.1586 109.244L83.0713 109.24Z" fill="#4285F4"/>
<path d="M119.209 111.852C119.209 117.557 114.693 121.753 109.155 121.753C103.617 121.753 99.1013 117.557 99.1013 111.852C99.1013 106.114 103.617 101.951 109.157 101.951C114.697 101.951 119.209 106.114 119.209 111.852ZM114.809 111.852C114.809 108.291 112.192 105.852 109.157 105.852C106.121 105.852 103.503 108.289 103.503 111.852C103.503 115.377 106.121 117.853 109.157 117.853C112.193 117.853 114.809 115.375 114.809 111.852Z" fill="#EA4335"/>
<path d="M141.142 111.852C141.142 117.557 136.63 121.753 131.089 121.753C125.547 121.753 121.034 117.557 121.034 111.852C121.034 106.114 125.549 101.951 131.089 101.951C136.628 101.951 141.142 106.114 141.142 111.852ZM136.741 111.852C136.741 108.291 134.124 105.852 131.089 105.852C128.053 105.852 125.435 108.289 125.435 111.852C125.435 115.377 128.053 117.853 131.089 117.853C134.124 117.853 136.741 115.375 136.741 111.852Z" fill="#FBBC04"/>
<path d="M162.166 102.551V120.328C162.166 127.641 157.803 130.642 152.643 130.642C147.785 130.642 144.864 127.416 143.764 124.791L147.599 123.216C148.281 124.829 149.949 126.741 152.645 126.741C155.946 126.741 157.995 124.715 157.995 120.928V119.503H157.843C156.856 120.703 154.96 121.753 152.569 121.753C147.56 121.753 142.97 117.44 142.97 111.89C142.97 106.301 147.56 101.951 152.569 101.951C154.96 101.951 156.856 103.001 157.843 104.164H157.995V102.551H162.166ZM158.296 111.89C158.296 108.402 155.945 105.851 152.946 105.851C149.911 105.851 147.368 108.401 147.368 111.89C147.368 115.34 149.911 117.852 152.946 117.852C155.944 117.852 158.296 115.339 158.296 111.89Z" fill="#4285F4"/>
<path d="M169.62 92.1474H165.219V121.153H169.62V92.1474Z" fill="#34A853"/>
<path d="M186.616 115.115L190.031 117.365C188.934 118.978 186.275 121.753 181.683 121.753C175.992 121.753 171.743 117.403 171.743 111.852C171.743 105.968 176.031 101.951 181.19 101.951C186.388 101.951 188.93 106.039 189.765 108.252L190.22 109.377L176.823 114.852C177.847 116.84 179.441 117.853 181.68 117.853C183.919 117.853 185.475 116.769 186.616 115.115ZM176.106 111.553L185.06 107.879C184.567 106.64 183.087 105.779 181.342 105.779C179.103 105.779 175.992 107.728 176.106 111.553Z" fill="#EA4335"/>
</svg>