<svg width="256" height="256" title="Google Sheets" viewBox="0 0 256 256" fill="none" xmlns="http://www.w3.org/2000/svg" id="googlesheets">
<style>
#googlesheets {
    rect {fill: #15191C}

    @media (prefers-color-scheme: light) {
        rect {fill: #F4F2ED}
    }
}
</style>
<rect width="256" height="256" rx="40" fill="#15191C"/>
<path d="M144.124 42H77.7297C74.6241 42.0089 71.6482 43.2474 69.4522 45.445C67.2562 47.6427 66.0185 50.6207 66.0096 53.7286V202.271C66.0185 205.378 67.2548 208.354 69.4488 210.552C71.6427 212.749 74.6161 213.989 77.7201 214H179.285C182.39 213.99 185.364 212.751 187.559 210.553C189.754 208.356 190.991 205.378 191 202.271V88.9095L163.658 69.3619L144.124 42Z" fill="#0F9D58"/>
<path d="M97.2488 126.045V182.705H159.727V126.045H97.2488ZM124.605 174.91H105.072V165.136H124.605V174.91ZM124.605 159.271H105.072V149.483H124.605V159.271ZM124.605 143.633H105.072V133.859H124.605V143.633ZM151.947 174.929H132.414V165.155H151.947V174.929ZM151.947 159.291H132.414V149.483H151.947V159.291ZM151.947 143.653H132.414V133.879H151.947V143.653Z" fill="#F1F1F1"/>
<path d="M147.555 85.4767L191 128.948L191 88.9095L147.555 85.4767Z" fill="url(#linearGradient1)"/>
<path d="M144.124 42L144.124 77.1809C144.124 78.7213 144.426 80.2468 145.015 81.67C145.604 83.0933 146.467 84.3865 147.556 85.4757C148.644 86.5649 149.936 87.4288 151.359 88.018C152.781 88.6072 154.305 88.9102 155.844 88.9095H191L144.124 42Z" fill="#87CEAC"/>
<path d="M77.7201 42C74.6145 42.0089 71.6386 43.2474 69.4426 45.445C67.2465 47.6427 66.0089 50.6207 66 53.7286V54.6915C66.0089 51.5836 67.2465 48.6056 69.4426 46.408C71.6386 44.2104 74.6145 42.9718 77.7201 42.9629H144.115V42H77.7201Z" fill="white" fill-opacity="0.2"/>
<path d="M179.28 213.037H77.7201C74.6145 213.028 71.6386 211.79 69.4426 209.592C67.2465 207.394 66.0089 204.416 66 201.308V202.271C66.0089 205.379 67.2465 208.357 69.4426 210.555C71.6386 212.753 74.6145 213.991 77.7201 214H179.285C182.39 213.99 185.364 212.751 187.559 210.553C189.754 208.356 190.991 205.378 191 202.271L191 201.308C190.991 204.416 189.753 207.394 187.557 209.592C185.361 211.79 182.386 213.028 179.28 213.037Z" fill="#263238" fill-opacity="0.2"/>
<path d="M155.844 88.9095C154.305 88.9102 152.781 88.6072 151.359 88.018C149.936 87.4288 148.644 86.5649 147.556 85.4757C146.467 84.3865 145.604 83.0933 145.015 81.67C144.426 80.2468 144.124 78.7213 144.124 77.1809V78.1439C144.124 79.6843 144.426 81.2097 145.015 82.633C145.604 84.0562 146.467 85.3494 147.556 86.4386C148.644 87.5279 149.936 88.3918 151.359 88.981C152.781 89.5702 154.305 89.8731 155.844 89.8725H191L191 88.9095H155.844Z" fill="#263238" fill-opacity="0.1"/>
<path d="M144.124 42H77.7297C74.6241 42.0089 71.6482 43.2474 69.4522 45.445C67.2562 47.6427 66.0185 50.6207 66.0096 53.7286V202.271C66.0185 205.378 67.2548 208.354 69.4488 210.552C71.6427 212.749 74.6161 213.989 77.7201 214H179.285C182.39 213.99 185.364 212.751 187.559 210.553C189.754 208.356 190.991 205.378 191 202.271V88.9095L144.124 42Z" fill="url(#linearGradient2)"/>
<linearGradient id="linearGradient1" x1="128.401" y1="53.506" x2="128.401" y2="210.817" gradientUnits="userSpaceOnUse">
<stop stop-color="#263238" stop-opacity="0.2"/>
<stop offset="1" stop-color="#263238" stop-opacity="0.02"/>
</linearGradient>
<radialGradient id="linearGradient2" cx="0" cy="0" r="1" gradientUnits="userSpaceOnUse" gradientTransform="translate(69.9049 48.2704) scale(201.527 201.673)">
<stop stop-color="white" stop-opacity="0.1"/>
<stop offset="1" stop-color="white" stop-opacity="0"/>
</radialGradient>
</svg>