<svg width="256" height="256" title="Gradle" viewBox="0 0 256 256" fill="none" xmlns="http://www.w3.org/2000/svg">
<rect width="256" height="256" rx="40" fill="#02303A"/>
<path d="M199.292 76.4311C194.639 71.7787 188.36 69.1156 181.78 69.0037C175.201 68.8917 168.835 71.3397 164.026 75.8311C163.785 76.0602 163.593 76.3359 163.462 76.6413C163.331 76.9467 163.264 77.2755 163.264 77.6078C163.264 77.94 163.331 78.2689 163.462 78.5743C163.593 78.8797 163.785 79.1553 164.026 79.3844L167.092 82.5178C167.505 82.9272 168.052 83.174 168.632 83.2132C169.213 83.2524 169.788 83.0812 170.252 82.7311C173.185 80.3927 176.909 79.2778 180.644 79.6193C184.38 79.9608 187.839 81.7322 190.3 84.5637C192.761 87.3951 194.032 91.0678 193.85 94.8146C193.667 98.5614 192.044 102.093 189.319 104.671C169.166 124.805 142.279 68.3577 81.2452 97.4512C80.2141 97.9453 79.2967 98.648 78.5511 99.5148C77.8054 100.382 77.2477 101.394 76.9131 102.487C76.5786 103.58 76.4744 104.731 76.6073 105.867C76.7402 107.002 77.1072 108.098 77.6851 109.085L88.1585 127.171C89.2439 129.058 91.0305 130.439 93.1293 131.015C95.2282 131.59 97.4694 131.313 99.3652 130.245L99.6119 130.111L99.4186 130.245L104.005 127.685C109.179 124.473 114.07 120.827 118.625 116.785C119.076 116.373 119.659 116.136 120.269 116.117C120.879 116.097 121.476 116.296 121.952 116.678C122.21 116.894 122.42 117.162 122.567 117.464C122.715 117.767 122.796 118.098 122.806 118.434C122.816 118.77 122.755 119.105 122.626 119.416C122.497 119.727 122.304 120.007 122.059 120.238C117.264 124.554 112.097 128.438 106.619 131.845H106.459L101.819 134.445C99.8578 135.544 97.6464 136.118 95.3985 136.111C93.0703 136.12 90.7808 135.516 88.7607 134.358C86.7406 133.201 85.0612 131.531 83.8918 129.518L73.9918 112.425C55.0584 125.918 43.4183 151.805 49.725 184.598C49.8286 185.15 50.1206 185.648 50.5511 186.008C50.9816 186.368 51.5239 186.567 52.085 186.572H63.2518C63.8663 186.586 64.4632 186.366 64.9213 185.956C65.3794 185.546 65.6644 184.977 65.7184 184.365C66.2337 180.384 68.1808 176.727 71.1959 174.077C74.2109 171.427 78.0877 169.965 82.1018 169.965C86.1159 169.965 89.9927 171.427 93.0078 174.077C96.0229 176.727 97.97 180.384 98.4852 184.365C98.5553 184.947 98.836 185.483 99.2745 185.873C99.713 186.262 100.279 186.478 100.865 186.478H111.785C112.37 186.473 112.934 186.256 113.372 185.868C113.809 185.479 114.091 184.945 114.165 184.365C114.686 180.389 116.635 176.739 119.649 174.094C122.663 171.449 126.536 169.991 130.545 169.991C134.555 169.991 138.428 171.449 141.442 174.094C144.455 176.739 146.405 180.389 146.925 184.365C147 184.946 147.283 185.481 147.722 185.87C148.161 186.259 148.726 186.475 149.312 186.478H160.159C160.794 186.478 161.403 186.229 161.856 185.784C162.309 185.338 162.568 184.733 162.579 184.098C162.825 168.805 166.952 151.231 178.712 142.431C219.432 111.965 208.719 85.8578 199.292 76.4311ZM157.765 122.438L149.999 118.545C150 117.714 150.213 116.898 150.618 116.173C151.024 115.449 151.608 114.84 152.315 114.405C153.023 113.969 153.83 113.723 154.659 113.687C155.489 113.652 156.314 113.83 157.055 114.204C157.797 114.577 158.431 115.134 158.896 115.822C159.361 116.51 159.643 117.305 159.714 118.133C159.785 118.96 159.644 119.792 159.303 120.549C158.961 121.306 158.432 121.963 157.765 122.458V122.438Z" fill="white"/>
</svg>