<svg width="256" height="256" title="Grafana" viewBox="0 0 256 256" fill="none" xmlns="http://www.w3.org/2000/svg" id="grafana">
<style>
#grafana {
    rect {fill: #15191C}

    @media (prefers-color-scheme: light) {
        rect {fill: #F4F2ED}
    }
}
</style>
<rect width="256" height="256" rx="40" fill="#15191C"/>
<path d="M200.701 118.585C200.402 115.745 199.954 112.457 199.057 108.87C198.16 105.283 196.665 101.396 194.722 97.2112C192.63 93.1755 190.089 88.8409 186.651 84.8052C185.306 83.161 183.811 81.6663 182.316 80.0222C184.708 70.6056 179.476 62.3848 179.476 62.3848C170.359 61.7869 164.679 65.2247 162.586 66.7194C162.287 66.5699 161.839 66.4204 161.54 66.271C160.045 65.6731 158.401 65.0752 156.757 64.4773C155.113 64.0289 153.469 63.4311 151.824 63.1321C150.18 62.6837 148.387 62.3848 146.593 62.0858C146.294 62.0858 145.995 61.9364 145.696 61.9364C141.81 49.3809 130.45 44 130.45 44C117.446 52.3703 114.905 63.5805 114.905 63.5805C114.905 63.5805 114.905 63.8795 114.756 64.1784C114.009 64.3279 113.411 64.6268 112.663 64.7763C111.767 65.0752 110.72 65.3742 109.824 65.8226C108.927 66.271 107.88 66.5699 106.984 67.0183C105.041 67.9151 103.247 68.812 101.304 69.8582C99.5101 70.9045 97.7165 71.9508 96.0723 73.1466C95.7734 72.9971 95.6239 72.8476 95.6239 72.8476C78.136 66.1215 62.5911 74.1929 62.5911 74.1929C61.2459 92.8766 69.6162 104.535 71.2604 106.628C70.812 107.824 70.513 108.87 70.0646 110.066C68.7194 114.251 67.8226 118.585 67.2247 123.069C67.0752 123.667 67.0752 124.415 66.9258 125.013C50.783 132.934 46 149.376 46 149.376C59.4523 164.921 75.296 165.818 75.296 165.818C77.2392 169.405 79.6307 172.843 82.1716 175.982C83.2179 177.327 84.4137 178.523 85.6095 179.868C80.677 193.918 86.3568 205.726 86.3568 205.726C101.453 206.324 111.318 199.149 113.411 197.505C114.905 197.954 116.4 198.402 117.895 198.851C122.528 200.046 127.311 200.794 131.945 200.943C133.141 200.943 134.337 200.943 135.532 200.943H136.13H136.579H137.326H138.073C145.098 211.107 157.654 212.452 157.654 212.452C166.473 203.036 167.07 193.918 167.07 191.825C167.07 191.825 167.07 191.825 167.07 191.676C167.07 191.527 167.07 191.377 167.07 191.377C167.07 191.228 167.07 191.078 167.07 190.929C168.864 189.583 170.658 188.238 172.451 186.743C176.039 183.605 179.028 179.868 181.718 175.982C182.017 175.683 182.167 175.234 182.466 174.935C192.48 175.533 199.505 168.658 199.505 168.658C197.861 158.195 191.882 153.113 190.687 152.216C190.687 152.216 190.687 152.216 190.537 152.067L190.388 151.917L190.238 151.768C190.238 151.17 190.388 150.572 190.388 149.824C190.537 148.629 190.537 147.582 190.537 146.387V145.49V145.041V144.892C190.537 144.593 190.537 144.743 190.537 144.593V143.846V142.949C190.537 142.65 190.537 142.351 190.537 142.052C190.537 141.753 190.537 141.454 190.388 141.155L190.238 140.258L190.089 139.362C189.939 138.166 189.64 137.12 189.491 135.924C188.445 131.44 186.651 127.105 184.409 123.368C182.017 119.482 179.177 116.194 175.889 113.204C172.601 110.365 169.013 107.973 165.127 106.329C161.241 104.535 157.355 103.489 153.319 103.041C151.376 102.742 149.284 102.742 147.34 102.742H146.593H146.444H146.145H145.846H145.098C144.799 102.742 144.5 102.742 144.351 102.742C143.305 102.891 142.258 103.04 141.362 103.19C137.326 103.937 133.589 105.432 130.301 107.375C127.013 109.318 124.173 111.859 121.781 114.699C119.39 117.539 117.596 120.528 116.4 123.817C115.204 126.956 114.457 130.393 114.308 133.532C114.308 134.28 114.308 135.176 114.308 135.924C114.308 136.073 114.308 136.372 114.308 136.522V137.12C114.308 137.568 114.308 137.867 114.457 138.315C114.607 139.959 114.905 141.454 115.354 142.949C116.251 145.938 117.596 148.629 119.39 151.02C121.183 153.412 123.126 155.205 125.368 156.7C127.61 158.195 129.852 159.241 132.244 159.988C134.635 160.736 136.878 161.035 138.97 160.885C139.269 160.885 139.568 160.885 139.717 160.885C139.867 160.885 140.016 160.885 140.166 160.885C140.315 160.885 140.465 160.885 140.614 160.885C140.913 160.885 141.063 160.885 141.362 160.885H141.511H141.661C141.81 160.885 141.959 160.885 142.109 160.885C142.408 160.885 142.707 160.736 142.856 160.736C143.155 160.736 143.305 160.586 143.604 160.586C144.052 160.437 144.65 160.287 145.098 160.138C145.995 159.839 146.892 159.391 147.789 159.092C148.686 158.643 149.433 158.195 150.031 157.746C150.18 157.597 150.479 157.447 150.629 157.298C151.376 156.7 151.526 155.654 150.928 154.906C150.33 154.309 149.433 154.159 148.686 154.458C148.536 154.608 148.387 154.608 148.088 154.757C147.49 155.056 146.743 155.355 146.145 155.504C145.397 155.654 144.65 155.953 143.903 156.102C143.454 156.102 143.155 156.252 142.707 156.252C142.557 156.252 142.258 156.252 142.109 156.252C141.959 156.252 141.661 156.252 141.511 156.252C141.362 156.252 141.063 156.252 140.913 156.252C140.614 156.252 140.465 156.252 140.166 156.252H140.016H139.867C139.717 156.252 139.717 156.252 139.568 156.252C139.419 156.252 139.12 156.252 138.97 156.102C137.326 155.803 135.532 155.355 133.888 154.608C132.244 153.86 130.6 152.814 129.255 151.469C127.76 150.123 126.564 148.629 125.518 146.835C124.472 145.041 123.874 143.098 123.575 141.155C123.425 140.109 123.276 139.063 123.425 138.016C123.425 137.717 123.425 137.419 123.425 137.12V136.97V136.821C123.425 136.671 123.425 136.522 123.425 136.372C123.425 135.774 123.575 135.326 123.724 134.728C124.472 130.244 126.714 125.909 130.151 122.621C131.048 121.724 131.945 120.977 132.991 120.379C134.038 119.632 135.084 119.034 136.13 118.585C137.176 118.137 138.372 117.689 139.568 117.39C140.764 117.091 141.959 116.792 143.155 116.792C143.753 116.792 144.351 116.642 144.949 116.642C145.098 116.642 145.248 116.642 145.397 116.642H145.846H146.145H146.294H146.743C148.088 116.792 149.433 116.941 150.629 117.24C153.17 117.838 155.711 118.735 158.102 120.08C162.885 122.77 166.921 126.806 169.312 131.739C170.508 134.13 171.405 136.821 171.853 139.661C172.003 140.408 172.003 141.006 172.152 141.753V142.202V142.65C172.152 142.799 172.152 142.949 172.152 143.098C172.152 143.248 172.152 143.397 172.152 143.547V143.995V144.444C172.152 144.743 172.152 145.34 172.152 145.639C172.152 146.387 172.003 147.134 172.003 147.881C171.853 148.629 171.853 149.376 171.704 150.123C171.554 150.871 171.405 151.618 171.256 152.365C170.957 153.86 170.359 155.205 169.91 156.7C168.864 159.54 167.369 162.23 165.576 164.622C161.988 169.554 157.056 173.59 151.526 176.131C148.686 177.327 145.846 178.373 142.856 178.822C141.362 179.121 139.867 179.27 138.372 179.27H138.073H137.774H137.326H136.579H136.13H135.981C135.233 179.27 134.337 179.27 133.589 179.121C130.301 178.822 127.162 178.224 124.023 177.327C120.884 176.43 117.895 175.234 115.055 173.74C109.375 170.75 104.293 166.416 100.257 161.483C98.3144 158.942 96.5207 156.252 95.026 153.412C93.5313 150.572 92.4851 147.582 91.5882 144.593C90.6914 141.604 90.243 138.465 90.0935 135.326V134.728V134.579V134.429V134.13V133.682V133.532V133.383V133.084V132.337V132.187V131.888C90.0935 131.44 90.0935 131.141 90.0935 130.692C90.0935 129.198 90.243 127.554 90.542 125.909C90.6914 124.265 90.9904 122.77 91.2893 121.126C91.5882 119.482 92.0366 117.987 92.4851 116.343C93.3819 113.204 94.4282 110.215 95.7734 107.375C98.4638 101.695 101.902 96.6133 105.937 92.5776C106.984 91.5313 108.03 90.6345 109.226 89.7377C109.674 89.2893 110.72 88.3925 111.916 87.6451C113.112 86.8978 114.308 86.1504 115.653 85.5526C116.251 85.2536 116.849 84.9547 117.596 84.6557C117.895 84.5063 118.194 84.3568 118.642 84.2073C118.941 84.0579 119.24 83.9084 119.689 83.7589C121.034 83.161 122.379 82.7126 123.724 82.2642C124.023 82.1148 124.472 82.1148 124.77 81.9653C125.069 81.8158 125.518 81.8158 125.817 81.6663C126.564 81.5169 127.162 81.3674 127.909 81.0685C128.208 80.919 128.657 80.919 128.956 80.7695C129.255 80.7695 129.703 80.6201 130.002 80.6201C130.301 80.6201 130.749 80.4706 131.048 80.4706L131.646 80.3211L132.244 80.1717C132.543 80.1717 132.991 80.0222 133.29 80.0222C133.739 80.0222 134.038 79.8727 134.486 79.8727C134.785 79.8727 135.383 79.7232 135.682 79.7232C135.981 79.7232 136.13 79.7232 136.429 79.5738H136.878H137.176H137.475C137.924 79.5738 138.223 79.5738 138.671 79.4243H139.269H139.419H139.717C140.016 79.4243 140.465 79.4243 140.764 79.4243C142.109 79.4243 143.454 79.4243 144.799 79.4243C147.49 79.5738 150.18 79.8727 152.721 80.3211C157.803 81.2179 162.736 82.8621 167.07 85.1041C171.405 87.1967 175.441 89.8872 178.729 92.7271C178.878 92.8766 179.177 93.026 179.327 93.325C179.476 93.4744 179.775 93.6239 179.925 93.9229C180.373 94.2218 180.672 94.6702 181.121 94.9691C181.569 95.2681 181.868 95.7165 182.316 96.0154C182.615 96.4638 183.064 96.7628 183.363 97.2112C184.857 98.7059 186.203 100.35 187.398 101.845C189.79 104.984 191.733 108.122 193.228 111.112C193.377 111.261 193.377 111.411 193.527 111.71C193.676 111.859 193.676 112.009 193.825 112.308C193.975 112.607 194.124 113.055 194.423 113.354C194.573 113.653 194.722 114.101 194.872 114.4C195.021 114.699 195.171 115.148 195.32 115.446C195.918 116.792 196.366 118.137 196.815 119.482C197.562 121.575 198.011 123.368 198.459 124.863C198.608 125.461 199.206 125.909 199.804 125.909C200.552 125.909 201 125.311 201 124.564C200.851 122.77 200.851 120.827 200.701 118.585Z" fill="url(#linearGradient)"/>
<linearGradient id="linearGradient" x1="123.5" y1="250.434" x2="123.5" y2="96.7007" gradientUnits="userSpaceOnUse">
<stop stop-color="#FCEE1F"/>
<stop offset="1" stop-color="#F15B2A"/>
</linearGradient>
</svg>