<svg width="256" height="256" title="GraphQL" viewBox="0 0 256 256" fill="none" xmlns="http://www.w3.org/2000/svg">
<rect width="256" height="256" rx="40" fill="#E10098"/>
<path d="M128.007 44C124.024 44 120.204 45.5823 117.388 48.3987C114.571 51.2152 112.989 55.0352 112.989 59.0183C112.989 63.0013 114.571 66.8213 117.388 69.6378C120.204 72.4542 124.024 74.0365 128.007 74.0365C131.99 74.0365 135.81 72.4542 138.627 69.6378C141.443 66.8213 143.025 63.0013 143.025 59.0183C143.025 55.0352 141.443 51.2152 138.627 48.3987C135.81 45.5823 131.99 44 128.007 44ZM187.982 78.6294C183.999 78.6294 180.179 80.2117 177.362 83.0282C174.546 85.8446 172.963 89.6646 172.963 93.6477C172.963 97.6308 174.546 101.451 177.362 104.267C180.179 107.084 183.999 108.666 187.982 108.666C191.965 108.666 195.785 107.084 198.601 104.267C201.418 101.451 203 97.6308 203 93.6477C203 89.6646 201.418 85.8446 198.601 83.0282C195.785 80.2117 191.965 78.6294 187.982 78.6294ZM187.982 147.888C183.999 147.888 180.179 149.471 177.362 152.287C174.546 155.104 172.963 158.923 172.963 162.907C172.963 166.89 174.546 170.71 177.362 173.526C180.179 176.343 183.999 177.925 187.982 177.925C191.965 177.925 195.785 176.343 198.601 173.526C201.418 170.71 203 166.89 203 162.907C203 158.923 201.418 155.104 198.601 152.287C195.785 149.471 191.965 147.888 187.982 147.888ZM128.007 182.518C124.025 182.518 120.206 184.1 117.39 186.915C114.574 189.731 112.992 193.55 112.992 197.532C112.992 201.515 114.574 205.334 117.39 208.15C120.206 210.965 124.025 212.547 128.007 212.547C131.989 212.547 135.808 210.965 138.624 208.15C141.44 205.334 143.022 201.515 143.022 197.532C143.022 193.55 141.44 189.731 138.624 186.915C135.808 184.1 131.989 182.518 128.007 182.518ZM68.0183 147.895C66.0465 147.895 64.094 148.284 62.2724 149.038C60.4507 149.793 58.7955 150.899 57.4012 152.293C56.007 153.687 54.901 155.342 54.1464 157.164C53.3919 158.986 53.0035 160.938 53.0035 162.91C53.0035 164.882 53.3919 166.834 54.1464 168.656C54.901 170.478 56.007 172.133 57.4012 173.527C58.7955 174.921 60.4507 176.027 62.2724 176.782C64.094 177.536 66.0465 177.925 68.0183 177.925C72.0014 177.925 75.8213 176.343 78.6378 173.526C81.4542 170.71 83.0365 166.89 83.0365 162.907C83.0365 158.923 81.4542 155.104 78.6378 152.287C75.8213 149.471 72.0014 147.895 68.0183 147.895ZM68.0183 78.6294C64.0352 78.6294 60.2152 80.2117 57.3987 83.0282C54.5823 85.8446 53 89.6646 53 93.6477C53 97.6308 54.5823 101.451 57.3987 104.267C60.2152 107.084 64.0352 108.666 68.0183 108.666C72.0014 108.666 75.8213 107.084 78.6378 104.267C81.4542 101.451 83.0365 97.6308 83.0365 93.6477C83.0365 89.6646 81.4542 85.8446 78.6378 83.0282C75.8213 80.2117 72.0014 78.6294 68.0183 78.6294ZM128.007 54.9064L64.4577 91.5935V164.968L128.007 201.655L191.542 164.968V91.5935L128.007 54.9064ZM128.007 66.1499L181.802 159.342H74.1983L128.007 66.1499ZM118.266 68.7554L71.5999 149.602V95.7089L118.266 68.7554ZM137.748 68.7554L184.421 95.7089V149.602L137.748 68.7554ZM81.3265 166.478H174.681L128.007 193.417L81.3265 166.478Z" fill="white"/>
</svg>