<svg width="256" height="256" title="Gsap" viewBox="0 0 256 256" fill="none" xmlns="http://www.w3.org/2000/svg" id="gsap">
<style>
#gsap {
    rect {fill: #15191C}

    @media (prefers-color-scheme: light) {
        rect {fill: #F4F2ED}
    }
}
</style>
<rect width="256" height="256" rx="40" fill="#15191C"/>
<path d="M113.399 95C119.607 95.0447 124.313 96.8179 127.384 100.271C130.293 103.542 131.692 108.268 131.538 114.318H131.533C131.523 114.636 131.389 114.938 131.162 115.158C130.933 115.379 130.629 115.503 130.311 115.502H117.716C116.89 115.502 116.201 114.833 116.201 114.018C116.201 110.34 114.93 108.547 112.329 108.547C109.728 108.547 108.049 110.146 108 112.94C107.945 116.056 109.705 118.888 114.716 123.752C121.312 129.947 123.955 135.435 123.828 142.689C123.621 154.418 115.654 162 103.532 162C97.3417 162 92.6126 160.343 89.4671 157.073C86.2749 153.753 84.811 148.879 85.1166 142.591C85.1271 142.272 85.2611 141.971 85.4895 141.751C85.718 141.53 86.0236 141.406 86.3412 141.407H99.3691C99.5506 141.409 99.7298 141.453 99.8926 141.534C100.055 141.614 100.198 141.729 100.311 141.871C100.409 141.989 100.481 142.126 100.522 142.275C100.563 142.423 100.572 142.577 100.548 142.729C100.403 144.998 100.797 146.694 101.689 147.632C102.26 148.239 103.057 148.547 104.049 148.547C106.456 148.547 107.867 146.845 107.92 143.879C107.965 141.315 107.155 139.069 102.742 134.523C97.0428 128.949 91.9319 123.189 92.0903 114.133C92.184 108.88 94.268 104.077 97.9599 100.606C101.864 96.939 107.202 95 113.399 95ZM66.732 95.0015C72.4093 94.9524 76.8665 96.7055 79.9673 100.205C83.2465 103.908 84.9108 109.482 84.9198 116.78C84.9116 117.1 84.7787 117.405 84.5501 117.629C84.3213 117.852 84.0147 117.977 83.6951 117.978H70.02C69.7805 117.971 69.5531 117.871 69.3842 117.701C69.2154 117.53 69.1177 117.302 69.1121 117.062C69.0005 112.015 67.5061 109.558 64.5347 109.558C59.2924 109.558 56.2002 116.682 54.5605 120.631C52.2695 126.147 51.1027 132.139 51.3324 138.107C51.4417 140.885 51.8883 144.792 54.5229 146.411C56.8585 147.844 60.1911 146.893 62.2099 145.305C64.2265 143.715 65.8509 140.966 66.5336 138.458C66.6295 138.109 66.6358 137.839 66.5444 137.718C66.4483 137.593 66.1829 137.565 65.9801 137.565H62.469C62.2832 137.565 62.0996 137.525 61.9309 137.447C61.7621 137.369 61.6121 137.255 61.4919 137.113C61.3996 137.003 61.3341 136.872 61.3004 136.732C61.2668 136.591 61.2655 136.445 61.2974 136.305L63.6983 125.867C63.8165 125.333 64.3004 124.928 64.896 124.857V124.829H87.9404C87.9939 124.829 88.0497 124.83 88.101 124.841C88.6988 124.919 89.12 125.476 89.1089 126.082H89.1159V126.112L86.718 136.532C86.5886 137.122 85.9993 137.553 85.3211 137.553H82.4236C82.3191 137.554 82.2173 137.588 82.1337 137.651C82.0503 137.714 81.9889 137.801 81.9592 137.901C79.2868 146.977 75.6686 153.215 70.8903 156.961C66.8258 160.149 61.8154 161.637 55.121 161.638C49.1068 161.638 45.0511 159.701 41.6112 155.878C37.0648 150.826 35.1866 142.554 36.3243 132.589C38.3766 113.88 48.069 95.0016 66.732 95.0015ZM169.475 96.2191C169.631 96.2179 169.786 96.2482 169.93 96.3076C170.074 96.3671 170.204 96.4554 170.315 96.5663C170.424 96.677 170.511 96.8087 170.569 96.9534C170.627 97.0982 170.657 97.2535 170.655 97.4098L170.571 159.794C170.595 159.94 170.586 160.09 170.546 160.231C170.506 160.374 170.436 160.506 170.34 160.618C170.229 160.748 170.09 160.851 169.935 160.921C169.779 160.991 169.611 161.027 169.441 161.024H155.675C155.519 161.025 155.364 160.995 155.219 160.935C155.075 160.875 154.945 160.788 154.835 160.678C154.726 160.566 154.639 160.435 154.581 160.291C154.523 160.146 154.494 159.989 154.496 159.833L154.789 153.782C154.802 152.896 154.784 152.877 153.879 152.877H140.86C139.914 152.877 139.851 152.958 139.519 153.826L136.812 160.336C136.574 160.801 136.086 161.024 135.35 161.024H121.723C120.896 161.024 120.303 160.205 120.615 159.439L120.626 159.423V159.412L148.85 97.1573C149.037 96.7844 149.325 96.2192 149.981 96.2191H169.475ZM198.351 96.2129C213.615 96.2129 221.235 103.139 220.994 116.807C220.713 132.822 210.964 144.592 196.286 147.305C194.2 147.689 192.079 147.839 189.959 147.828L182.872 147.796C182.756 147.796 182.644 147.841 182.561 147.922C182.477 148.003 182.429 148.113 182.426 148.23C182.425 148.308 182.445 148.386 182.486 148.453C182.526 148.52 182.585 148.574 182.655 148.609L183.518 149.059L185.749 150.224L187.991 151.393C188.223 151.514 188.456 151.634 188.688 151.753C189.183 152.013 189.374 152.442 189.263 152.996L187.693 160.091C187.564 160.683 187.088 161.024 186.392 161.024H173.458C173.273 161.024 173.089 160.985 172.921 160.907C172.753 160.829 172.603 160.715 172.484 160.573C172.391 160.462 172.325 160.332 172.291 160.191C172.257 160.05 172.255 159.904 172.287 159.763L186.689 97.1619C186.832 96.51 187.445 96.22 187.991 96.2199H198.341L198.351 96.2129ZM156.455 113.193C156.395 112.952 156.203 112.974 156.045 113.3C155.93 113.527 155.83 113.761 155.741 113.999L145.98 138.182C145.924 138.332 145.886 138.454 145.859 138.544C145.847 138.59 145.845 138.639 145.854 138.685C145.862 138.733 145.881 138.778 145.908 138.816C145.936 138.856 145.972 138.888 146.014 138.912C146.055 138.936 146.101 138.95 146.149 138.954C146.251 138.962 146.354 138.967 146.457 138.966L146.448 138.97H146.465L154.293 139.059C155.201 138.983 155.243 138.946 155.335 138.023C155.336 137.994 156.505 113.418 156.455 113.193ZM191.481 110.133C191.366 110.133 191.256 110.178 191.174 110.258C191.092 110.339 191.044 110.447 191.041 110.562C191.039 110.641 191.059 110.719 191.098 110.786C191.139 110.854 191.197 110.91 191.266 110.946C191.283 110.955 197.251 114.104 197.66 114.332C197.981 114.509 197.986 114.808 197.881 115.328C197.869 115.393 193.797 133.293 193.792 133.382C193.81 133.404 193.919 133.471 194.541 133.471H194.818C201.61 133.196 205.314 125.161 205.45 117.365C205.528 112.86 203.886 110.222 200.941 110.133H191.481Z" fill="url(#linearGradient)"/>
<linearGradient id="linearGradient" x1="221" y1="128.5" x2="36" y2="128.5" gradientUnits="userSpaceOnUse">
<stop stop-color="#ACFF85"/>
<stop offset="1" stop-color="#0AEE44"/>
</linearGradient>
</svg>