<svg width="256" height="256" title="GSAP" viewBox="0 0 256 256" fill="none" xmlns="http://www.w3.org/2000/svg" id="gsap">
<style>
#gsap {
    rect {fill: #15191C}

    @media (prefers-color-scheme: light) {
        rect {fill: #F4F2ED}
    }
}
</style>
<rect width="256" height="256" rx="40" fill="#15191C"/>
<path d="M59.8902 115.609C54.3068 118.235 39.5287 130.058 36.6825 133.561C33.7265 137.064 32.851 131.591 35.9161 122.505C38.3238 115.171 44.4549 105.209 54.7448 96.6702C60.7652 91.7441 74.0115 84.6289 82.1118 80.4685C83.7542 79.5925 104.991 70.6162 123.93 66.128C125.572 65.69 121.959 68.8646 121.412 70.6162C118.565 78.9358 61.7503 114.623 61.7503 114.623L59.8902 115.609ZM139.912 215.992C140.897 221.903 140.022 222.341 133.892 223.108C127.761 223.874 123.273 221.575 121.631 220.043C119.989 218.509 119.661 215.116 121.303 212.051C122.288 210.081 123.273 209.424 123.821 207.015C124.368 204.717 124.806 204.169 125.244 203.294C125.681 202.527 125.791 201.76 125.9 196.397C126.01 191.033 125.9 180.961 126.448 176.693C126.996 172.314 145.934 178.663 145.934 178.663C145.934 178.663 141.445 189.829 140.241 192.565C139.037 195.302 139.147 200.557 139.147 201.651C139.147 202.746 138.709 204.935 138.38 205.045C138.052 205.154 139.475 208 138.818 209.642C138.38 211.175 139.803 215.116 139.912 215.992ZM147.137 48.6128C146.48 44.453 147.137 36.242 148.013 34.929C150.75 31.2067 165.2 30.7692 168.265 35.1477C169.579 37.118 169.469 41.7158 169.25 44.6717C169.032 47.6271 168.265 53.9765 168.156 56.0569C168.047 57.5897 152.173 59.9974 148.67 55.8376C147.684 54.7434 147.137 48.6128 147.137 48.6128ZM179.321 205.373C185.999 210.19 191.144 211.066 194.538 212.817C197.931 214.569 197.055 217.963 191.363 218.948C186.765 219.823 179.54 218.072 174.724 218.072C169.907 218.072 159.179 218.619 156.332 216.649C153.049 214.35 154.471 210.081 154.471 210.081C155.347 207.673 157.536 202.308 156.88 197.93C156.223 193.551 155.347 191.143 153.705 187.092C152.063 183.042 150.859 173.08 152.392 172.533C153.925 171.985 153.486 172.533 155.457 172.97C157.427 173.408 159.617 174.065 163.886 174.065C168.156 174.065 172.863 173.408 174.505 173.08C176.147 172.751 177.46 172.423 176.913 175.816C176.366 179.21 174.724 185.559 174.614 190.485C174.505 195.412 174.505 201.104 174.833 202.089C175.161 203.074 177.57 204.169 179.321 205.373Z" fill="#010101"/>
<path d="M155.895 59.56C143.854 69.96 120.536 72.8058 85.9442 86.1612C77.077 89.5546 53.4317 99.7353 47.7392 110.354C66.8962 99.2979 74.012 114.514 75.5442 130.168C76.9668 144.837 84.3018 152.5 103.131 152.062C122.507 151.624 128.418 162.899 133.782 176.145C144.181 125.46 160.821 115.609 171.548 106.961C194.319 88.4598 166.294 55.8377 155.895 59.56Z" fill="#8AC640"/>
<path d="M155.895 59.56C126.995 69.6311 98.4231 72.149 64.8164 92.8389C56.8251 97.7651 39.9667 108.93 36.6824 130.278C48.9425 116.703 77.2952 99.6262 111.997 88.7887C129.512 83.3149 142.321 79.7027 157.865 73.6818C156.771 66.6752 156.771 63.9385 155.895 59.56Z" fill="#8AC640"/>
<path d="M192.786 119.549C192.786 119.549 190.706 126.665 186.546 128.964C186.546 128.964 183.481 130.059 177.351 126.665C175.6 125.68 174.286 122.287 174.395 121.192C174.505 118.564 176.147 117.36 176.147 117.36C176.147 117.36 177.899 114.404 179.978 114.514C182.059 114.623 185.562 114.951 186.656 113.966C187.641 112.871 193.005 115.936 192.786 119.549ZM148.122 50.6927C148.122 50.6927 147.685 56.2762 146.919 59.7787C146.809 60.436 143.525 60.7638 141.116 61.7495C145.714 74.8857 173.41 74.776 177.023 68.3176C175.271 67.1137 171.768 65.2526 170.126 64.5958C168.484 63.9385 168.594 64.0482 168.484 60.9831C168.375 57.9176 168.156 52.2255 167.936 50.6927C167.718 49.16 150.749 49.16 148.122 50.6927Z" fill="#010101"/>
<path d="M149.217 50.6927C149.217 50.6927 149.217 53.8674 148.889 56.9324C148.78 58.3556 148.67 59.2311 148.451 60.3258C148.342 60.9831 152.173 63.6096 153.268 69.4118C158.522 81.1248 170.674 75.3231 175.709 69.7402C173.958 68.5358 171.111 66.8939 167.828 65.5804C166.185 64.9231 166.952 63.5005 166.843 60.4355C166.733 57.3705 166.295 52.8817 166.076 51.2399C165.856 49.598 151.845 49.16 149.217 50.6927Z" fill="#F0EFEF"/>
<path d="M148.122 50.6927C148.122 50.6927 148.013 52.6635 147.685 54.9622C149.108 56.3848 150.969 58.3556 152.392 59.56C153.378 60.436 155.785 60.3264 157.975 60.3264C159.946 60.3264 161.697 60.5451 162.463 60.1076C164.216 59.2316 166.733 57.0426 168.156 55.4002C168.047 53.4299 167.937 51.5688 167.828 50.6927C167.718 49.16 150.749 49.16 148.122 50.6927Z" fill="#010101"/>
<path d="M158.084 59.0123C156.77 59.0123 155.238 58.9032 154.034 58.684C153.486 58.5749 152.939 58.2465 152.501 58.0272C151.735 57.4795 150.968 56.8233 150.093 56.166C148.341 54.8525 148.232 54.0861 148.232 53.7583C148.998 46.8613 148.013 41.0596 148.013 41.0596C148.013 41.0596 147.246 38.1037 151.406 37.3373C155.566 36.5709 158.084 36.4618 158.084 36.4618C158.084 36.4618 160.711 36.4618 164.762 37.3373C168.921 38.1037 168.155 41.0596 168.155 41.0596C168.155 41.0596 167.17 46.8613 167.936 53.7583C167.936 54.0861 167.827 54.8525 166.075 56.166C164.542 57.2608 163.338 58.4647 162.135 58.684C160.93 58.9032 159.397 59.0123 158.084 59.0123Z" fill="#010101"/>
<path d="M158.084 33.6155C150.86 33.6155 149.436 35.5858 147.356 37.7753C146.919 38.3224 147.246 41.6068 148.013 48.6128H148.998C148.998 48.6128 148.341 46.642 148.451 44.3434C148.56 42.0448 148.998 42.1544 148.67 41.6068C148.232 40.9495 147.356 39.8547 149.327 38.7605C151.297 37.6657 154.362 39.636 158.084 39.7456C161.806 39.636 164.981 37.6657 166.951 38.7605C168.921 39.8547 168.046 40.9495 167.608 41.6068C167.17 42.2635 167.718 42.0442 167.827 44.3434C167.936 46.642 167.279 48.6128 167.279 48.6128H168.265C168.921 41.6068 169.359 38.5417 169.031 37.9941C167.17 35.5858 165.309 33.7246 158.084 33.6155ZM192.786 119.878C192.786 119.878 190.706 126.555 186.656 128.854C185.78 128.416 185.889 127.76 185.123 126.774C184.904 126.446 184.137 126.226 183.81 125.898C183.481 125.57 183.591 125.022 183.043 124.585C182.605 124.147 182.277 124.475 181.839 124.147C181.401 123.709 181.291 123.162 180.963 122.834C180.744 122.615 179.869 122.506 179.65 122.286C179.102 121.739 174.286 120.754 174.505 119.659C174.942 118.016 175.818 116.813 175.818 116.813C175.818 116.813 177.898 113.747 179.978 113.857C182.058 113.966 184.028 114.404 185.123 113.419C186.327 112.324 193.115 116.374 192.786 119.878Z" fill="#010101"/>
<path d="M178.555 71.4923C178.555 71.4923 185.451 69.8498 190.159 74.3386C194.866 78.9364 194.537 84.6284 193.115 88.1314C194.319 89.5546 196.508 93.4951 194.866 98.2025C202.091 104.333 198.917 113.747 192.458 119.987C192.458 119.987 190.925 114.295 184.795 113.966C185.014 111.777 179.103 110.025 181.839 104.333C177.68 103.347 177.789 100.501 177.132 96.9987C176.585 93.4951 178.555 71.4923 178.555 71.4923Z" fill="#010101"/>
<path d="M176.037 74.5573C176.037 74.5573 184.028 70.5071 188.736 75.1049C193.443 79.7027 192.129 84.738 190.706 88.2411C191.91 89.6637 194.756 93.7149 193.005 98.5309C192.676 99.6257 190.268 99.6257 188.516 102.472C192.894 99.9535 195.632 100.611 196.617 103.785C198.15 108.711 194.756 114.622 191.8 117.907C191.8 117.797 191.691 117.687 191.691 117.578C191.253 119.221 190.705 122.395 187.422 125.898C185.779 127.649 184.466 127.431 182.605 126.993C180.416 126.445 179.649 125.459 176.584 123.818C174.833 122.833 175.818 121.629 175.818 120.643C175.818 120.425 176.037 120.096 176.365 119.658C176.584 119.111 177.241 118.236 178.226 117.25C178.226 117.25 179.649 115.28 181.73 115.389C183.81 115.498 185.999 115.061 186.546 114.513C186.546 110.682 182.168 110.572 183.7 104.004C183.81 103.676 184.357 103.128 186.108 102.909C183.481 102.362 182.277 102.252 180.416 100.501C179.102 99.2973 178.117 97.7645 177.788 95.7943C177.132 92.4009 176.037 74.5573 176.037 74.5573Z" fill="#F0EFEF"/>
<path d="M152.939 67.6608C152.282 66.7848 148.889 62.4063 142.43 60.6548C140.569 60.1071 139.365 61.6399 137.504 62.7347C136.957 62.4063 134.548 61.3115 133.235 62.0774C131.921 62.8432 131.046 63.6101 129.732 64.1573C129.074 63.8289 127.323 63.8289 125.9 64.376C124.477 64.814 122.288 65.7991 120.208 68.6454C118.894 73.3529 143.415 69.8493 143.415 69.8493L152.939 67.6608Z" fill="#010101"/>
<path d="M153.158 67.6608C149.655 66.4564 150.202 62.4063 142.43 61.7495C140.897 61.6399 139.912 62.8437 138.817 63.6101C139.365 64.1578 139.912 65.0333 140.24 65.9088C139.255 64.8145 137.504 63.3908 135.752 63.0625C134.11 62.7346 133.015 63.9385 131.263 64.8145C131.591 65.1424 131.92 65.69 132.358 66.3473C130.825 65.3622 129.731 65.0338 127.651 65.7997C126.228 66.2371 123.491 67.4415 121.411 70.3975C120.098 75.1049 143.524 69.8498 143.524 69.8498L153.158 67.6608Z" fill="#8AC640"/>
<path d="M173.738 69.4124C173.738 69.4124 173.738 68.208 173.629 67.1137C173.629 66.895 172.753 66.3473 172.753 66.1286L172.535 65.9093C172.535 65.9093 174.286 64.9242 175.6 65.4718C177.022 65.9093 177.789 67.7705 177.789 67.7705C180.307 66.895 180.525 67.8801 181.73 69.1936C184.357 68.646 184.685 69.6311 186.327 72.0399C186.327 72.0399 184.357 71.7115 180.526 72.3677C176.803 72.9149 173.738 69.3027 173.738 69.4124Z" fill="#010101"/>
<path d="M173.3 68.8647C173.3 68.8647 173.957 68.3171 173.738 68.2074C174.942 67.5507 176.584 66.7848 177.351 68.8647C179.869 67.9887 180.197 69.1931 181.401 70.5071C184.466 69.084 184.685 70.835 184.904 71.6014C183.919 71.6014 182.496 71.711 180.525 71.9297C176.804 72.4774 173.191 68.7551 173.3 68.8647Z" fill="#8AC640"/>
<path d="M136.081 66.1281C136.081 66.1281 142.321 68.317 147.575 67.9887C152.83 67.5512 161.806 67.1132 166.623 69.9595C166.623 69.9595 171.549 68.2074 176.147 69.4118C180.745 70.6157 189.174 78.4978 186.656 86.8174C186.437 87.365 185.014 88.2405 183.372 88.7882C183.372 88.7882 184.248 92.51 182.715 95.575C181.183 98.5309 177.789 104.223 177.68 112.105C177.57 113.419 177.352 116.155 177.132 117.469C168.594 117.141 155.457 113.966 142.54 114.185C142.649 112.762 142.759 111.886 142.868 110.463H143.196C142.539 106.85 142.321 104.989 141.663 102.253C137.504 99.6257 133.125 96.5607 129.403 90.7584C125.791 84.9562 136.081 66.1281 136.081 66.1281ZM178.336 125.242C178.336 125.242 185.124 149.544 177.132 159.725C177.132 159.725 178.336 164.432 175.6 169.468C175.162 171.657 174.614 173.628 174.286 175.817C172.863 184.903 170.454 188.734 169.797 203.293L163.229 203.184C163.229 203.184 162.462 192.675 160.164 187.092C158.851 183.918 153.705 179.648 153.925 175.379C154.143 172.095 154.8 169.358 160.384 164.979C160.821 158.63 154.472 152.609 155.457 128.964L178.336 125.242Z" fill="#010101"/>
<path d="M176.366 124.256C178.118 135.422 182.168 151.952 174.833 160.052C175.266 162.106 175.303 164.224 174.942 166.292C174.724 167.606 174.286 169.029 173.738 170.561C172.644 173.188 172.206 177.02 171.877 179.319C170.454 188.404 170.454 188.843 169.797 203.402L163.229 203.293C163.229 203.293 162.462 192.784 160.164 187.201C158.851 184.027 156.114 181.29 155.895 177.02C155.676 173.737 157.975 167.169 163.449 167.387C163.12 154.142 156.99 156.769 155.348 129.182L176.366 124.256ZM136.081 66.1281C136.081 66.1281 138.489 66.8944 141.116 67.1132C143.744 67.3319 146.59 67.1132 149.108 67.0035C154.362 66.5661 161.806 66.0184 166.732 68.8647C166.732 68.8647 169.469 67.9887 172.425 68.2074C173.738 68.3171 175.053 69.4118 176.585 69.8498C181.401 71.0537 185.999 79.0449 183.919 86.2703C183.7 86.8179 182.167 86.2703 180.416 86.8179C180.743 88.3507 180.963 91.8537 179.211 95.5755C177.351 99.2978 174.942 104.114 175.38 113.31C163.886 112.762 158.741 111.996 147.355 111.449C146.37 107.398 145.713 103.348 145.604 101.268C147.137 100.502 148.012 99.8455 149.217 98.5314C145.933 99.0791 144.619 98.8598 142.648 97.7651C140.678 96.6703 137.175 93.1673 135.423 90.8686C135.204 90.6493 134.001 94.2615 131.264 94.3717C130.278 92.9485 134.438 88.8978 133.672 87.3656C130.936 81.7821 136.081 66.1281 136.081 66.1281Z" fill="#F0EFEF"/>
<path d="M177.241 115.17C177.241 115.17 177.46 119.111 177.46 120.096C177.46 121.191 178.336 124.475 178.445 126.008C177.241 128.087 171.986 132.795 162.462 134.546C153.048 136.517 140.569 121.739 140.569 121.739C140.897 120.316 141.992 116.155 142.758 113.966C142.868 113.747 143.087 113.2 143.087 112.981C144.072 111.558 177.241 115.17 177.241 115.17Z" fill="#010101"/>
<path d="M174.833 115.499C174.833 118.236 175.271 120.206 175.6 121.958C176.147 125.133 177.022 127.213 177.022 129.292C177.022 135.641 168.703 134.546 161.696 134.766C152.282 136.737 144.29 121.958 144.29 121.958C144.947 119.44 145.385 116.594 146.37 114.185C146.479 112.872 146.699 111.23 146.808 110.464C160.163 110.464 169.578 111.23 175.051 111.777C175.271 112.981 175.052 115.061 174.833 115.499Z" fill="#F0EFEF"/>
<path d="M164.324 129.62C164.324 129.62 158.522 116.703 141.116 120.535C136.957 132.248 131.373 145.713 134.986 160.272C131.373 165.198 127.213 167.936 127.213 177.021C127.213 186.107 127.651 187.64 127.651 187.64L140.459 188.297C140.459 188.297 144.619 182.933 146.261 177.131C146.699 175.489 147.137 172.533 146.808 169.14C147.246 168.483 149.107 166.951 149.326 163.995C149.326 163.995 155.566 160.711 159.179 152.72C162.573 145.494 161.697 139.254 164.324 129.62Z" fill="#010101"/>
<path d="M164.324 129.62C163.996 128.416 159.617 116.594 143.415 120.096C133.891 145.494 137.395 156.003 138.817 160.6C132.358 168.81 129.403 170.561 130.717 187.201H139.256C143.196 180.962 144.072 178.662 144.291 170.452C144.291 170.124 143.087 171.109 142.211 172.204C142.868 168.81 144.729 168.154 146.152 166.074C146.809 165.198 147.356 163.884 147.356 162.133C155.019 156.988 157.865 150.529 159.507 143.851C160.821 139.254 162.353 131.7 164.324 129.62Z" fill="#F0EFEF"/>
<path d="M137.285 111.996C137.285 111.996 140.241 112.105 142.868 112.981C145.386 113.857 145.386 114.404 146.371 115.499C147.357 116.594 149.765 118.236 149.327 119.878C149.108 120.754 148.561 120.972 147.795 121.739C147.466 122.067 145.057 124.694 144.51 125.022C144.182 125.241 143.744 125.57 143.415 125.789L141.774 126.884C140.679 127.431 139.912 127.76 138.709 127.65C138.709 127.65 135.972 127.54 134.22 125.68C134.22 125.68 134.001 124.804 134.439 124.366C134.439 124.366 132.14 122.395 131.483 121.082C130.826 119.769 130.826 117.908 131.264 116.923C131.483 115.936 135.752 113.2 137.285 111.996ZM140.022 218.51L139.694 221.247C139.694 221.247 138.709 222.451 131.374 222.342C123.93 222.232 121.96 219.933 121.303 218.729L120.866 215.883C120.866 215.883 122.289 213.803 122.617 213.803C125.025 214.022 133.236 217.306 138.928 218.181C139.474 218.181 139.584 218.4 140.022 218.51ZM155.895 212.927C155.895 214.131 155.785 214.131 155.785 215.335C157.099 216.32 160.384 216.868 166.623 216.758C175.709 216.539 184.138 219.495 194.428 217.743L194.537 215.773L193.552 215.664L157.099 212.708L155.895 212.927Z" fill="#010101"/>
<path d="M163.886 216.758H166.623C172.535 216.54 178.118 217.853 184.138 218.181C187.313 218.072 191.254 217.305 190.925 215.007L159.836 212.379C157.975 214.459 159.397 216.211 163.886 216.758ZM128.199 170.672C129.184 171.328 135.862 175.269 146.699 174.722C146.48 176.802 146.59 180.852 141.773 187.968C139.365 191.471 137.284 197.601 136.847 205.374C136.957 207.125 137.942 208.657 136.628 210.957C137.066 212.379 138.817 215.226 139.693 216.977C140.569 218.729 141.007 220.699 135.204 220.809C129.293 220.918 119.769 220.261 121.083 215.664C121.741 213.256 123.601 210.738 123.82 209.752C124.039 208.767 124.039 205.812 125.9 203.841C127.542 198.368 126.995 193.113 126.667 188.187C126.119 183.041 126.009 174.831 128.199 170.672ZM138.38 81.4537C146.152 71.0537 139.584 62.7346 127.105 65.252C122.069 66.2371 117.034 69.7407 116.705 76.0895C115.063 76.3083 111.341 76.527 109.48 83.3143C108.057 88.5689 107.291 89.554 104.772 92.181C103.131 94.0422 104.882 97.8736 106.086 100.611C110.137 110.025 122.616 110.901 131.045 118.016C133.892 117.25 136.847 114.076 137.723 111.996C130.607 103.566 132.139 100.282 129.293 95.9039C132.359 94.8086 139.365 90.5397 138.38 81.4537Z" fill="#010101"/>
<path d="M136.847 80.797C137.284 80.1397 138.051 78.7171 138.38 78.1694C138.489 78.0598 139.693 80.1397 139.803 80.0306C142.758 75.2135 143.525 68.2074 140.131 67.5507C139.364 67.441 137.942 67.1132 136.737 66.6746C134.548 65.9082 132.578 65.9082 129.074 66.5655C124.258 67.441 119.441 70.9441 119.441 75.9799C119.441 76.3083 122.834 77.2934 123.82 81.3441C122.177 79.0449 119.331 76.527 115.938 78.7165C112.325 81.0152 114.186 86.2697 109.37 91.743C107.727 93.6042 107.947 95.7937 109.698 100.172C112.544 107.069 126.009 110.791 133.343 117.359C135.095 116.593 136.299 114.841 137.175 113.528C132.249 108.383 130.278 103.566 128.855 100.063C127.104 96.0125 125.133 93.7138 121.301 90.6477C123.272 91.4141 124.805 92.1805 125.68 92.8373C126.665 93.494 128.088 93.6037 129.402 93.1656C134.11 91.5248 136.628 84.9562 136.847 80.797Z" fill="#F0EFEF"/>
<path d="M184.466 82.5485C184.138 86.7083 181.073 84.6284 179.431 83.862C176.147 82.4389 172.862 81.4537 169.031 81.4537C165.2 81.4537 160.273 81.7821 156.005 82.8769C150.093 84.5188 148.341 84.4097 145.714 83.0956C143.087 81.6725 138.49 78.1694 138.49 78.1694C138.49 78.1694 138.38 79.2642 139.475 80.6873C140.898 82.4389 144.073 84.6284 148.342 86.051C150.422 86.7083 152.064 86.2697 153.925 85.8323C163.668 83.424 173.958 82.986 182.606 88.2405C183.044 88.4593 184.576 87.8025 185.233 86.8174C186.108 85.3948 184.466 82.5485 184.466 82.5485Z" fill="#010101"/>
<path d="M134.658 124.256C135.533 124.804 136.628 125.132 137.832 126.117C137.832 126.117 136.847 126.117 136.409 125.68C135.862 125.351 134.767 124.366 134.658 124.256Z" fill="#0A1825"/>
<path d="M166.294 37.447C165.966 36.4618 163.557 34.7098 157.975 34.7098C151.954 34.7098 150.202 36.5709 150.093 37.5561C150.093 37.8844 149.655 41.388 149.546 42.8106C149.546 42.8106 149.546 44.5621 149.655 47.1892C149.764 48.9407 150.202 49.9258 150.421 52.225C150.64 54.6327 151.297 56.1655 152.501 58.1363C153.049 58.4641 153.486 58.793 154.034 58.9027C156.223 59.3402 160.055 59.4498 162.135 58.9027C163.338 58.5743 164.871 56.4944 165.2 54.6333C165.637 52.3346 166.075 50.6922 166.185 49.2696C166.403 47.847 166.513 44.6718 166.622 43.7958C166.951 41.388 166.403 37.6657 166.294 37.447Z" fill="#F0EFEF"/>
<path d="M154.8 172.752C154.8 172.752 160.602 175.269 174.943 173.08C174.943 173.08 170.893 193.441 172.754 203.622C172.754 203.622 174.615 206.249 188.408 211.284C188.408 211.284 194.538 212.817 194.319 215.883C194.319 215.883 194.538 216.54 187.094 216.32C179.651 216.101 172.644 214.787 167.718 214.787C162.792 214.787 157.537 215.006 156.662 213.584C155.677 212.27 156.881 208.876 158.304 206.905C159.837 204.826 159.398 203.293 159.289 199.571C158.96 189.829 151.516 179.758 154.8 172.752Z" fill="#010101"/>
<path d="M153.596 174.613C152.829 175.707 153.705 179.867 154.8 183.917C155.894 187.968 158.303 190.376 158.85 197.054C159.397 203.622 159.507 204.498 157.646 208.329C155.785 212.159 155.238 215.663 161.696 215.773C168.154 215.882 171.658 215.663 178.226 216.649C184.795 217.634 187.093 217.962 190.706 217.415C194.319 216.868 195.085 215.663 193.552 214.569C192.02 213.474 185.67 212.27 182.934 210.08C180.306 208.11 172.862 204.825 172.753 203.95C172.425 200.994 172.315 190.266 172.862 186.763C173.41 183.26 174.176 178.224 174.395 176.911C174.614 175.597 175.709 174.283 173.848 174.721C171.987 175.159 164.981 176.144 159.726 175.816C154.472 175.488 153.925 174.284 153.596 174.613Z" fill="#8AC640"/>
<path opacity="0.3" d="M157.318 208.439C159.179 209.314 161.916 209.971 163.996 209.971C163.996 209.971 163.229 213.584 164.433 215.773C165.637 217.963 155.676 216.649 155.676 216.649L155.238 208.877L157.318 208.439ZM186.327 217.853C188.079 217.305 189.283 215.335 187.86 213.475C186.327 211.613 185.014 211.285 186.984 211.176C188.955 211.066 196.18 215.445 196.18 215.445L192.458 218.838L186.327 217.853ZM153.267 178.882C155.785 179.758 159.617 179.976 162.901 179.867C166.185 179.758 171.111 179.319 174.286 178.225C177.46 177.13 176.147 179.429 176.147 179.429L174.395 181.071C174.395 181.071 170.235 182.713 163.449 182.604C155.457 182.494 153.049 181.619 153.049 181.619L153.267 178.882ZM153.486 184.355C156.005 185.231 159.835 185.45 163.12 185.341C166.403 185.231 170.783 185.231 173.957 184.027C175.271 183.59 174.505 185.45 174.505 185.45L173.957 186.435C173.957 186.435 169.688 187.968 163.01 187.858C155.019 187.749 153.596 187.092 153.596 187.092L153.486 184.355Z" fill="#010101"/>
<path d="M146.261 107.617C146.261 108.384 154.8 112.653 159.507 113.529C164.214 114.404 174.067 113.529 175.599 113.2L175.38 114.733C175.38 114.733 163.667 116.485 154.69 114.076C145.714 111.668 146.699 111.12 146.699 111.12L146.261 107.617Z" fill="#010101"/>
<path d="M127.98 200.995C129.293 201.652 134.001 202.856 137.066 202.199C137.503 202.089 137.066 194.645 138.27 191.252C140.022 186.544 142.868 182.713 144.181 174.394C139.583 173.956 134.329 172.752 131.592 171.875C128.089 182.604 129.294 191.799 127.98 200.995ZM135.315 207.892C136.081 208.11 136.628 208.986 136.847 208.439C137.285 207.454 136.081 205.593 135.971 204.279V204.17C134.986 203.294 128.309 203.185 128.747 203.622C127.98 205.045 126.776 204.827 126.339 207.673C126.12 209.095 127.872 207.892 129.513 207.782C126.558 209.752 123.164 212.271 122.617 214.46C121.96 217.525 123.055 218.401 126.339 220.043C129.185 220.7 132.579 220.81 135.206 220.7C138.161 220.152 138.709 218.73 137.833 216.759C136.519 213.803 135.643 209.971 135.315 207.892Z" fill="#F0EFEF"/>
<path d="M136.519 65.69C140.131 67.7699 145.167 67.2228 147.028 67.1132C147.466 67.1132 151.845 66.3468 152.063 66.4559C152.501 66.5655 152.501 66.8939 152.501 66.8939C152.501 66.8939 150.859 67.7694 147.137 67.9881C143.634 68.2069 139.474 67.9881 137.176 66.8939C134.439 65.69 136.519 65.69 136.519 65.69ZM173.738 67.7699C174.395 68.2074 178.665 69.8498 180.526 71.8201C182.168 73.5721 181.292 73.4625 180.963 73.0245C180.526 72.4768 177.132 70.1782 175.818 69.6311C174.505 69.084 172.862 68.0983 172.862 67.8796C172.862 67.6608 173.738 67.7699 173.738 67.7699Z" fill="#010101"/>
<path d="M135.971 113.2C139.146 112.981 142.43 113.747 144.51 115.936C145.604 117.031 147.356 118.235 147.137 119.33C147.137 119.658 146.48 120.534 145.933 121.191C145.605 121.629 144.62 122.614 144.291 122.943C143.854 123.271 142.321 124.475 141.992 124.694C141.664 124.913 141.226 125.461 140.898 125.57C139.803 126.118 138.599 125.68 137.504 125.133C136.41 124.585 137.723 124.475 136.519 123.6C133.564 121.52 131.921 120.096 133.126 116.046C133.235 115.28 134.439 114.404 135.971 113.2Z" fill="#F0EFEF"/>
<path opacity="0.4" d="M108.057 88.1314C98.2043 92.0725 73.1354 104.552 66.0202 108.384C71.9315 112.106 74.6682 121.082 75.5442 130.168C75.6533 131.044 75.763 131.81 75.8726 132.686C75.9817 133.452 76.0913 133.999 76.2004 134.328C76.2004 134.438 76.2004 134.657 76.3101 134.766C82.769 117.141 105.867 98.5314 106.743 97.1083C107.18 96.4515 106.195 93.6053 107.728 90.8691C109.699 87.365 113.531 85.8322 108.057 88.1314ZM131.483 170.781C136.519 160.71 136.628 151.077 136.519 139.801C136.519 135.094 139.912 128.416 138.161 130.277C131.592 137.611 115.063 151.405 103.131 152.171C119.879 151.624 126.447 160.053 131.483 170.781Z" fill="#010101"/>
<path d="M56.3866 117.688C62.6263 113.2 94.92 96.0135 102.692 93.6047C110.464 91.0868 108.056 88.1309 108.056 88.1309C108.056 88.1309 76.5288 101.705 57.7001 113.419" fill="#010101"/>
<path opacity="0.4" d="M148.341 86.0515C145.823 85.0664 143.853 88.0223 144.51 90.8686C145.167 93.7149 151.078 96.889 150.749 107.289C150.531 115.828 148.67 119.33 148.67 119.33L144.51 114.076C144.51 114.076 143.853 102.253 142.43 100.502C141.007 98.7502 136.519 95.5755 134.767 93.9337C133.015 92.2912 136.737 90.1022 136.519 87.0367C136.3 84.0813 138.38 78.17 138.38 78.17L148.341 86.0515ZM163.558 132.685C163.339 140.895 165.2 153.047 165.966 158.849C166.732 164.651 167.718 165.089 165.966 167.716C164.214 170.234 161.916 174.394 161.916 174.394L154.362 173.737C154.362 173.737 160.383 166.074 160.711 164.651C161.039 163.228 157.646 152.391 157.646 152.391L163.558 132.685ZM148.998 56.057C150.531 59.4498 152.392 60.9826 155.347 61.9683C157.099 62.625 163.995 63.501 166.732 60.4355C167.936 59.0123 167.17 55.1809 167.17 55.1809L160.93 60.2162L152.501 58.684L151.516 56.1661L148.998 56.057Z" fill="#010101"/>
<path d="M149.655 63.6101C152.501 65.4713 159.617 67.2228 161.587 67.5512C163.557 67.9887 166.732 65.4713 168.265 64.8145C169.907 64.0482 172.753 63.6101 176.037 66.5661C176.365 66.8944 175.271 68.3176 175.271 68.3176C175.161 68.2079 174.504 68.2079 173.628 67.7699C172.753 67.3325 171.986 67.0035 170.673 67.1132C165.199 67.7699 164.324 69.6311 159.507 68.5358C154.69 67.4405 153.486 66.5655 148.779 66.7843" fill="#8AC640"/>
<path d="M149.655 63.6101C152.501 65.4713 159.617 67.2228 161.587 67.5512C163.557 67.9887 166.732 65.4713 168.265 64.8145C169.907 64.0482 172.753 63.6101 176.037 66.5661C176.365 66.8944 175.271 68.3176 175.271 68.3176C175.161 68.2079 174.504 68.2079 173.628 67.7699C172.753 67.3325 171.986 67.0035 170.673 67.1132C165.199 67.7699 164.324 69.6311 159.507 68.5358C154.69 67.4405 153.486 66.5655 148.779 66.7843" stroke="#010101" stroke-width="2" stroke-miterlimit="10" stroke-linejoin="round"/>
<path d="M148.67 63.9385C152.282 65.4713 159.288 67.1132 161.259 67.5512C163.229 67.9892 166.403 66.0184 167.936 65.0333C170.673 63.2818 174.176 64.7049 175.818 66.5661C176.913 67.7699 177.351 68.5363 177.351 68.8647C177.351 69.3022 176.038 68.8647 176.038 68.8647C175.271 68.5363 174.395 68.4272 173.739 67.9887C172.863 67.5512 171.987 66.8944 170.674 67.0035C165.2 67.6608 164.105 69.5214 159.398 68.4267C154.692 67.3319 153.487 66.3468 148.452 66.6746" fill="#8AC640"/>
<path d="M131.702 166.183C131.483 165.964 131.921 165.745 131.702 165.745C130.279 165.745 128.309 164.651 127.213 163.118C122.506 156.331 115.609 151.843 103.13 152.171C84.4104 152.609 76.9663 144.946 75.5437 130.278C74.7773 122.286 72.5877 114.514 68.0996 110.135L65.472 111.777C70.5073 116.156 72.1497 123.271 73.2445 133.014C74.996 147.683 86.8186 154.47 100.612 154.689C114.953 154.908 120.098 157.864 125.461 165.089C127.213 167.388 129.184 168.154 130.716 168.483L131.702 166.183Z" fill="#010101"/>
<path opacity="0.4" d="M182.496 95.7943C182.824 97.4361 183.7 100.611 185.451 102.143C186.218 102.909 186.328 103.128 185.671 103.128C185.013 103.128 180.197 102.909 180.197 102.909L178.883 100.611L182.496 95.7943Z" fill="#010101"/>
</svg>