<svg viewBox="0 0 256 256" xmlns="http://www.w3.org/2000/svg" xml:space="preserve" style="fill-rule:evenodd;clip-rule:evenodd;stroke-linejoin:round;stroke-miterlimit:2"><path d="M256 40v176c0 22.077-17.923 40-40 40H40c-22.077 0-40-17.923-40-40V40C0 17.923 17.923 0 40 0h176c22.077 0 40 17.923 40 40" style="fill:#18bcf2"/><path d="m196.369 119.423-61.738-61.692c-3.643-3.641-9.612-3.641-13.256 0l-61.744 61.692C55.987 123.064 53 130.264 53 135.417v56.209c0 5.152 4.219 9.368 9.375 9.368h57.669L94.65 175.619a12.7 12.7 0 0 1-4.15.705c-7.062 0-12.812-5.745-12.812-12.803 0-7.057 5.75-12.803 12.812-12.803 7.063 0 12.812 5.746 12.812 12.803 0 1.455-.256 2.848-.706 4.153l19.769 19.755v-72.372c-4.25-2.086-7.187-6.445-7.187-11.485 0-7.058 5.749-12.804 12.812-12.804s12.812 5.746 12.812 12.804c0 5.04-2.937 9.399-7.187 11.485v50.756l19.663-19.648a12.8 12.8 0 0 1-.6-3.872c0-7.057 5.749-12.803 12.812-12.803s12.812 5.746 12.812 12.803-5.749 12.803-12.812 12.803c-1.562 0-3.05-.293-4.431-.805l-27.444 27.423V201h60c5.156 0 9.375-4.216 9.375-9.368v-56.209c0-5.152-2.981-12.347-6.631-15.994z" style="fill:#f2f4f9;fill-rule:nonzero"/></svg>