<svg width="256" height="256" title="HubSpot" viewBox="0 0 256 256" fill="none" xmlns="http://www.w3.org/2000/svg">
<rect width="256" height="256" rx="40" fill="#FF4800"/>
<path d="M172.792 98.9405V78.3419C178.167 75.8035 181.93 70.3618 181.93 64.0526V63.5745C181.93 54.8649 174.807 47.7374 166.102 47.7374H165.629C156.924 47.7374 149.801 54.8649 149.801 63.5745V64.0526C149.801 70.3667 153.565 75.8035 158.939 78.3419V98.9405C150.939 100.178 143.629 103.48 137.599 108.335L81.0799 64.3434C81.4494 62.9091 81.7104 61.4353 81.7154 59.8876C81.7203 50.0196 73.7397 42.0148 63.8774 42C54.015 41.9852 46.0148 49.9752 46 59.8432C45.9902 69.7112 53.9707 77.716 63.8331 77.7307C67.045 77.7307 70.0204 76.8238 72.6264 75.3401L128.224 118.612C123.495 125.755 120.726 134.306 120.726 143.514C120.726 152.721 123.771 162.072 128.914 169.406L112.007 186.323C110.672 185.923 109.283 185.643 107.815 185.643C99.711 185.643 93.1443 192.213 93.1443 200.321C93.1443 208.43 99.7159 215 107.815 215C115.913 215 122.485 208.43 122.485 200.321C122.485 198.852 122.204 197.462 121.805 196.127L138.53 179.392C146.121 185.189 155.575 188.674 165.866 188.674C190.792 188.674 211 168.455 211 143.514C211 120.934 194.423 102.282 172.792 98.9405ZM165.861 166.666C153.082 166.666 142.717 156.3 142.717 143.514C142.717 130.728 153.077 120.362 165.861 120.362C178.644 120.362 188.999 130.728 188.999 143.514C188.999 156.3 178.639 166.666 165.861 166.666Z" fill="white"/>
</svg>