<svg viewBox="0 0 256 256" xmlns="http://www.w3.org/2000/svg" xml:space="preserve" style="fill-rule:evenodd;clip-rule:evenodd;stroke-linejoin:round;stroke-miterlimit:2"><path d="M256 40v176c0 22.077-17.923 40-40 40H40c-22.077 0-40-17.923-40-40V40C0 17.923 17.923 0 40 0h176c22.077 0 40 17.923 40 40" style="fill:url(#a)"/><path d="M34.436 23.864 18.684 33.26V14.479z" style="fill:url(#b);fill-rule:nonzero" transform="translate(0 -5.877)scale(6.08536)"/><path d="m7.632 20.568 14.273-9.828v18.78z" style="fill:url(#c);fill-rule:nonzero" transform="translate(0 -5.877)scale(6.08536)"/><path d="m21.899 29.504-3.214 3.756v-5.753z" style="fill:url(#d);fill-rule:nonzero" transform="translate(0 -5.877)scale(6.08536)"/><defs><radialGradient id="a" cx="0" cy="0" r="1" gradientUnits="userSpaceOnUse" gradientTransform="rotate(47.49 -13.181 52.955)scale(272.885)"><stop offset="0" style="stop-color:#3c3c3c;stop-opacity:1"/><stop offset="1" style="stop-color:#191919;stop-opacity:1"/></radialGradient><radialGradient id="c" cx="0" cy="0" r="1" gradientUnits="userSpaceOnUse" gradientTransform="rotate(218.59 14.981 7.673)scale(10.6786 32.36765)"><stop offset="0" style="stop-color:#fff;stop-opacity:1"/><stop offset="1" style="stop-color:#e0e4e8;stop-opacity:1"/></radialGradient><linearGradient id="b" x1="0" y1="0" x2="1" y2="0" gradientUnits="userSpaceOnUse" gradientTransform="rotate(182.536 14.057 11.373)scale(4.6982)"><stop offset="0" style="stop-color:#fff;stop-opacity:1"/><stop offset="1" style="stop-color:#b8b9ba;stop-opacity:1"/></linearGradient><linearGradient id="d" x1="0" y1="0" x2="1" y2="0" gradientUnits="userSpaceOnUse" gradientTransform="rotate(-89.596 25.255 5.166)scale(1.6011)"><stop offset="0" style="stop-color:#fff;stop-opacity:1"/><stop offset="1" style="stop-color:#bcbec1;stop-opacity:1"/></linearGradient></defs></svg>