<svg width="256" height="256" title="Inkscape" viewBox="0 0 256 256" fill="none" xmlns="http://www.w3.org/2000/svg" id="inkscape">
<style>
#inkscape {
    rect {fill: #15191C}

    @media (prefers-color-scheme: light) {
        rect {fill: #F4F2ED}
    }
}
</style>
<rect width="256" height="256" rx="40" fill="#15191C"/>
<g filter="url(#filter0_f_6_2)">
<path d="M114.746 59.3288L59.5809 115.833C38.693 136.721 73.1045 134.98 85.5569 142.88C91.3144 146.629 67.0791 151.45 72.0333 156.404C76.8536 161.358 101.089 165.911 105.909 170.731C110.729 175.685 96.1347 180.907 100.955 185.861C105.641 190.815 116.889 186.129 118.897 197.376C120.37 205.678 139.517 201.527 148.087 194.431C153.442 189.878 138.848 189.878 143.668 184.924C155.719 172.739 166.43 179.434 170.849 168.187C173.259 162.161 152.639 157.877 158.129 153.994C171.251 144.755 219.454 140.068 197.227 117.842L140.053 59.3288C132.956 52.634 121.307 52.634 114.746 59.3288ZM178.079 168.187C178.079 170.999 199.905 172.605 198.7 167.517C196.959 158.948 180.49 159.617 178.079 168.187ZM85.0213 183.049C89.9754 187.334 97.4737 182.112 99.8838 176.087C95.0635 169.794 77.2553 176.488 85.0213 183.049ZM175.402 174.078C169.242 179.702 176.473 185.593 182.498 181.71C184.105 180.639 182.364 175.417 175.402 174.078Z" fill="black"/>
</g>
<g opacity="0.576355" filter="url(#filter1_f_6_2)">
<path d="M114.746 60.6365L59.5809 117.141C38.693 138.029 73.1045 136.288 85.5569 144.188C91.3144 147.937 67.0791 152.757 72.0333 157.712C76.8536 162.666 101.089 167.218 105.909 172.038C110.729 176.993 96.1347 182.215 100.955 187.169C105.641 192.123 116.889 187.437 118.897 198.684C120.37 206.986 139.517 202.835 148.087 195.738C153.442 191.186 138.848 191.186 143.668 186.232C155.719 174.047 166.43 180.742 170.849 169.494C173.259 163.469 152.639 159.184 158.129 155.301C171.251 146.063 219.454 141.376 197.227 119.149L140.053 60.6365C132.956 53.9416 121.307 53.9416 114.746 60.6365ZM178.079 169.494C178.079 172.306 199.905 173.913 198.7 168.825C196.959 160.256 180.49 160.925 178.079 169.494ZM85.0213 184.357C89.9754 188.642 97.4737 183.42 99.8838 177.394C95.0635 171.101 77.2553 177.796 85.0213 184.357ZM175.402 175.386C169.242 181.01 176.473 186.901 182.498 183.018C184.105 181.947 182.364 176.725 175.402 175.386Z" fill="black"/>
</g>
<path d="M114.746 58.0211L59.5809 114.526C38.693 135.413 73.1045 133.673 85.5569 141.573C91.3144 145.322 67.0791 150.142 72.0333 155.096C76.8536 160.05 101.089 164.603 105.909 169.423C110.729 174.377 96.1347 179.599 100.955 184.553C105.641 189.508 116.889 184.821 118.897 196.069C120.37 204.37 139.517 200.219 148.087 193.123C153.442 188.57 138.848 188.57 143.668 183.616C155.719 171.432 166.43 178.126 170.849 166.879C173.259 160.854 152.639 156.569 158.129 152.686C171.251 143.447 219.454 138.761 197.227 116.534L140.053 58.0211C132.956 51.3263 121.307 51.3263 114.746 58.0211ZM178.079 166.879C178.079 169.691 199.905 171.298 198.7 166.21C196.959 157.64 180.49 158.31 178.079 166.879ZM85.0213 181.742C89.9754 186.026 97.4737 180.804 99.8838 174.779C95.0635 168.486 77.2553 175.181 85.0213 181.742ZM175.402 172.771C169.242 178.394 176.473 184.286 182.498 180.403C184.105 179.332 182.364 174.11 175.402 172.771Z" fill="black"/>
<path d="M114.871 58.6717L60.2278 114.642C39.5375 135.332 73.6234 133.608 85.958 141.433C91.6611 145.146 67.655 149.921 72.5623 154.828C77.337 159.736 101.343 164.245 106.118 169.02C110.892 173.927 96.4357 179.1 101.21 184.007C105.852 188.914 116.993 184.272 118.983 195.413C120.442 203.636 139.408 199.525 147.896 192.495C153.201 187.986 138.745 187.986 143.519 183.079C155.456 171.009 166.067 177.641 170.443 166.5C172.831 160.532 152.406 156.287 157.843 152.441C170.841 143.29 218.588 138.648 196.571 116.631L139.938 58.6717C132.909 52.0402 121.37 52.0402 114.871 58.6717ZM101.741 144.483C102.935 144.483 142.591 149.789 127.339 153.9C121.503 155.492 94.7116 144.483 101.741 144.483ZM177.605 166.5C177.605 169.285 199.224 170.877 198.03 165.837C196.306 157.348 179.993 158.012 177.605 166.5ZM85.4275 181.222C90.3348 185.466 97.762 180.293 100.149 174.325C95.3747 168.091 77.7349 174.723 85.4275 181.222ZM174.953 172.336C168.852 177.906 176.014 183.742 181.982 179.896C183.574 178.835 181.849 173.662 174.953 172.336Z" fill="black"/>
<path opacity="0.669951" d="M114.871 58.6717L60.2278 114.642C39.5375 135.332 73.6234 133.608 85.958 141.433C91.6611 145.146 67.655 149.921 72.5623 154.828C77.337 159.736 101.343 164.245 106.118 169.02C110.892 173.927 96.4357 179.1 101.21 184.007C105.852 188.914 116.993 184.272 118.983 195.413C120.442 203.636 139.408 199.525 147.896 192.495C153.201 187.986 138.745 187.986 143.519 183.079C155.456 171.009 166.067 177.641 170.443 166.5C172.831 160.532 152.406 156.287 157.843 152.441C170.841 143.29 218.588 138.648 196.571 116.631L139.938 58.6717C132.909 52.0402 121.37 52.0402 114.871 58.6717ZM101.741 144.483C102.935 144.483 142.591 149.789 127.339 153.9C121.503 155.492 94.7116 144.483 101.741 144.483ZM177.605 166.5C177.605 169.285 199.224 170.877 198.03 165.837C196.306 157.348 179.993 158.012 177.605 166.5ZM85.4275 181.222C90.3348 185.466 97.762 180.293 100.149 174.325C95.3747 168.091 77.7349 174.723 85.4275 181.222ZM174.953 172.336C168.852 177.906 176.014 183.742 181.982 179.896C183.574 178.835 181.849 173.662 174.953 172.336Z" fill="url(#paint0_linear_6_2)"/>
<path opacity="0.505263" d="M64.4885 117.658C49.4895 132.522 75.8391 128.333 96.1081 136.305L137.997 62.6614C131.646 56.1754 123.539 56.7159 117.728 62.6614L64.4885 117.658Z" fill="url(#paint1_linear_6_2)"/>
<path d="M136.705 62.038L158.531 84.2649C160.539 86.2733 160.539 90.4241 159.334 91.6292L148.488 82.792L146.346 95.78L137.375 90.9597L122.78 100.199L117.96 80.7836L110.194 97.6545L90.7788 97.5206C87.0297 97.5206 87.5653 93.6376 91.4483 89.7546C99.0804 81.3192 113.943 66.9922 118.629 62.038C123.45 57.0839 131.885 57.2177 136.705 62.038Z" fill="url(#paint2_linear_6_2)"/>
<path opacity="0.216749" fill-rule="evenodd" clip-rule="evenodd" d="M106.75 167.039C106.75 167.039 109.119 170.657 108.878 172.358C108.404 175.697 101.212 177.364 102.805 180.336C104.38 183.273 110.054 181.609 114.817 184.68C119.56 187.739 118.285 193.972 121.732 195.54C128.454 198.598 146.11 190.265 145.223 190.442C144.337 190.62 127.799 194.056 124.076 191.042C119.83 187.605 118.613 185.205 115.482 183.173C112.548 181.269 108.426 180.492 107.467 178.933C106.507 177.374 109.388 175.363 109.587 172.358C109.707 170.554 106.75 167.039 106.75 167.039Z" fill="url(#paint3_radial_6_2)"/>
<path opacity="0.275862" fill-rule="evenodd" clip-rule="evenodd" d="M106.75 167.039C106.75 167.039 109.119 170.657 108.878 172.358C108.404 175.697 101.212 177.364 102.805 180.336C104.38 183.273 110.054 181.609 114.817 184.68C119.56 187.739 118.285 193.972 121.732 195.54C128.454 198.598 146.11 190.265 145.223 190.442C115.906 190.554 121.377 183 110.075 178.032C108.441 177.314 109.388 175.363 109.587 172.358C109.707 170.554 106.75 167.039 106.75 167.039Z" fill="url(#paint4_radial_6_2)"/>
<path opacity="0.453202" fill-rule="evenodd" clip-rule="evenodd" d="M156.57 151.615C182.884 141.931 191.337 140.601 200.008 131.935C189.965 140.412 168.734 144.959 151.429 152.501L156.57 151.615Z" fill="url(#paint5_radial_6_2)"/>
<path opacity="0.512315" fill-rule="evenodd" clip-rule="evenodd" d="M156.57 150.373C199.904 135.016 192.578 135.104 200.008 130.694C186.23 135.968 160.482 136.53 151.429 151.26L156.57 150.373Z" fill="url(#paint6_radial_6_2)"/>
<path opacity="0.285714" d="M194.423 162.651C194.423 163.11 193.83 163.549 192.774 163.874C191.719 164.198 190.287 164.38 188.794 164.38C187.301 164.38 185.869 164.198 184.814 163.874C183.758 163.549 183.165 163.11 183.165 162.651C183.165 162.193 183.758 161.753 184.814 161.429C185.869 161.105 187.301 160.923 188.794 160.923C190.287 160.923 191.719 161.105 192.774 161.429C193.83 161.753 194.423 162.193 194.423 162.651Z" fill="url(#paint7_linear_6_2)"/>
<path opacity="0.620689" d="M196.373 164.645C196.373 165.632 195.575 166.58 194.153 167.278C192.732 167.976 190.804 168.368 188.794 168.368C186.784 168.368 184.856 167.976 183.434 167.278C182.013 166.58 181.215 165.632 181.215 164.645C181.215 163.658 182.013 162.711 183.434 162.012C184.856 161.314 186.784 160.922 188.794 160.922C190.804 160.922 192.732 161.314 194.153 162.012C195.575 162.711 196.373 163.658 196.373 164.645Z" fill="url(#paint8_linear_6_2)"/>
<path fill-rule="evenodd" clip-rule="evenodd" d="M178.467 166.715C181.14 169.186 196.023 170.454 198.457 166.006C193.679 169.399 183.055 168.206 178.467 166.715Z" fill="url(#paint9_radial_6_2)"/>
<path opacity="0.285714" d="M178.519 174.963C178.649 175.219 178.732 175.496 178.763 175.778C178.793 176.06 178.771 176.342 178.698 176.607C178.625 176.872 178.501 177.115 178.335 177.323C178.169 177.53 177.963 177.698 177.729 177.817C177.495 177.935 177.238 178.002 176.972 178.014C176.706 178.025 176.437 177.981 176.18 177.884C175.922 177.786 175.682 177.638 175.473 177.446C175.263 177.255 175.089 177.024 174.959 176.768C174.829 176.512 174.746 176.235 174.716 175.953C174.685 175.671 174.707 175.389 174.78 175.124C174.854 174.859 174.977 174.616 175.144 174.408C175.31 174.2 175.516 174.032 175.75 173.914C175.984 173.795 176.241 173.728 176.507 173.717C176.772 173.705 177.042 173.75 177.299 173.847C177.556 173.945 177.796 174.093 178.006 174.285C178.215 174.476 178.39 174.707 178.519 174.963Z" fill="url(#paint10_linear_6_2)"/>
<path opacity="0.620689" d="M179.575 175.439C179.769 175.822 179.894 176.236 179.943 176.656C179.992 177.076 179.964 177.494 179.86 177.888C179.756 178.281 179.579 178.641 179.338 178.948C179.097 179.254 178.797 179.501 178.456 179.674C178.114 179.847 177.738 179.943 177.349 179.956C176.959 179.97 176.563 179.9 176.185 179.751C175.806 179.603 175.452 179.378 175.142 179.09C174.832 178.802 174.572 178.457 174.378 178.074C174.184 177.691 174.059 177.278 174.01 176.858C173.961 176.438 173.989 176.019 174.093 175.626C174.197 175.232 174.374 174.872 174.615 174.566C174.856 174.259 175.156 174.012 175.497 173.839C175.839 173.666 176.215 173.57 176.605 173.557C176.994 173.544 177.39 173.614 177.768 173.762C178.147 173.911 178.502 174.135 178.811 174.423C179.121 174.711 179.381 175.056 179.575 175.439Z" fill="url(#paint11_linear_6_2)"/>
<path fill-rule="evenodd" clip-rule="evenodd" d="M174.816 179.958C176.964 181.639 185.05 181.855 181.983 176.968C182.783 180.795 177.26 180.391 174.816 179.958Z" fill="url(#paint12_radial_6_2)"/>
<path fill-rule="evenodd" clip-rule="evenodd" d="M75.0143 154.629C75.0143 154.188 102.563 163.024 107.282 167.748C103.402 163.962 83.7659 155.255 80.7765 155.16C77.787 155.065 75.3689 154.806 75.0143 154.629Z" fill="url(#paint13_radial_6_2)"/>
<path opacity="0.285714" d="M95.7101 173.556C95.8173 173.875 95.3988 174.295 94.5467 174.724C93.6946 175.154 92.4786 175.557 91.1663 175.845C89.8539 176.133 88.5528 176.283 87.549 176.261C86.5453 176.239 85.9211 176.047 85.8139 175.728C85.7067 175.409 86.1252 174.989 86.9774 174.56C87.8295 174.13 89.0455 173.727 90.3578 173.439C91.6701 173.151 92.9713 173.001 93.9751 173.023C94.9788 173.045 95.6029 173.237 95.7101 173.556Z" fill="url(#paint14_linear_6_2)"/>
<path opacity="0.620689" d="M97.8901 174.567C98.121 175.255 97.6405 176.068 96.5543 176.828C95.4682 177.588 93.8653 178.233 92.0983 178.621C90.3313 179.009 88.545 179.108 87.1323 178.897C85.7196 178.685 84.7962 178.18 84.5653 177.493C84.3344 176.806 84.8149 175.993 85.9011 175.232C86.9872 174.472 88.5901 173.827 90.3571 173.439C92.1241 173.051 93.9104 172.952 95.3231 173.164C96.7358 173.375 97.6592 173.88 97.8901 174.567Z" fill="url(#paint15_linear_6_2)"/>
<path opacity="0.615764" fill-rule="evenodd" clip-rule="evenodd" d="M83.8348 178.032C83.8348 178.032 85.3265 182.039 89.4197 182.242C93.5605 182.448 98.2868 177.273 98.6834 175.417C97.9742 177.012 94.0096 181.823 88.8878 181.755C85.9802 181.716 83.8348 178.032 83.8348 178.032Z" fill="url(#paint16_radial_6_2)"/>
<path d="M127.207 54.9666C123.059 54.9666 118.993 56.469 116.119 59.4019L60.9702 115.89C55.9281 120.932 54.7169 124.232 55.0285 126.099C55.1843 127.033 55.6426 127.844 56.6185 128.693C57.5945 129.543 59.0708 130.376 60.8447 131.12C64.3923 132.61 69.1703 133.809 73.8577 135.095C78.5452 136.382 83.1365 137.739 86.6198 139.949C87.1508 140.295 87.6495 140.721 88.0006 141.33C88.3516 141.939 88.4749 142.744 88.3353 143.422C88.0562 144.778 87.2213 145.493 86.3687 146.142C84.6636 147.439 82.3207 148.516 79.9668 149.657C77.6129 150.797 75.247 151.964 74.0669 152.92C73.4769 153.399 73.2634 153.828 73.2719 153.799C73.2805 153.77 73.1155 153.433 73.3975 153.715C74.1363 154.475 76.4424 155.775 79.381 156.937C82.3196 158.1 85.916 159.275 89.5488 160.452C93.1815 161.63 96.8562 162.795 99.9676 164.009C103.079 165.222 105.615 166.351 107.29 168.026C108.124 168.883 108.713 169.948 108.838 171.038C108.964 172.128 108.668 173.151 108.252 174.009C107.42 175.725 106.083 177.045 104.863 178.319C103.643 179.593 102.538 180.81 102.143 181.625C101.946 182.032 101.915 182.297 101.934 182.461C101.953 182.626 101.981 182.791 102.353 183.173C102.367 183.186 102.381 183.2 102.394 183.215C103.993 184.904 107.465 185.142 111.391 186.06C113.353 186.519 115.406 187.214 117.165 188.738C118.924 190.262 120.244 192.581 120.805 195.726C121.042 197.057 121.746 197.706 123.441 198.236C125.137 198.767 127.718 198.859 130.555 198.445C136.227 197.617 142.953 194.836 146.831 191.625C147.072 191.42 147.005 191.474 147.082 191.374C146.822 191.187 146.21 190.789 145.2 190.286C144.006 189.691 142.596 189.135 141.517 187.775C140.978 187.096 140.607 186.022 140.764 184.972C140.921 183.922 141.496 183.048 142.271 182.252C148.625 175.827 154.886 174.293 159.593 173.047C161.947 172.424 163.917 171.853 165.41 170.913C166.902 169.972 168.068 168.685 169.05 166.185C169.158 165.914 169.155 165.835 169.008 165.515C168.861 165.195 168.466 164.683 167.836 164.134C166.576 163.038 164.475 161.859 162.397 160.703C160.319 159.547 158.299 158.469 156.832 157.105C156.098 156.422 155.329 155.563 155.242 154.259C155.154 152.956 156.008 151.78 156.999 151.079C160.676 148.491 166.233 146.52 172.272 144.426C178.31 142.332 184.806 140.166 190.097 137.69C195.388 135.214 199.278 132.362 200.516 129.488C201.134 128.052 201.248 126.598 200.599 124.718C199.951 122.839 198.471 120.54 195.829 117.898L138.714 59.4438C138.7 59.4303 138.686 59.4154 138.672 59.4019C135.515 56.4459 131.337 54.9666 127.207 54.9666ZM188.716 162.084C185.187 162.211 181.941 163.826 180.557 166.352C180.95 166.5 181.304 166.667 181.937 166.812C183.779 167.236 186.35 167.509 188.883 167.565C191.417 167.621 193.95 167.408 195.494 166.98C196.17 166.792 196.529 166.602 196.708 166.477C196.365 165.017 195.55 163.984 194.156 163.214C192.711 162.416 190.732 162.011 188.716 162.084ZM94.3188 174.218C91.5206 174.024 88.0035 175.138 86.285 176.52C85.4258 177.211 85.0622 177.851 85.0297 178.277C84.9973 178.703 85.1332 179.271 86.285 180.244C86.2852 180.258 86.2852 180.272 86.285 180.285C88.0964 181.852 90.1443 181.689 92.4777 180.411C94.4339 179.34 96.1695 177.33 97.3315 175.222C96.5482 174.717 95.6115 174.308 94.3188 174.218ZM175.996 175.055C175.397 175.817 175.071 176.525 175.033 177.022C174.982 177.707 175.176 178.237 175.703 178.737C176.69 179.676 178.835 180.08 181.017 178.905C180.974 178.652 180.892 178.268 180.557 177.775C179.887 176.792 178.322 175.733 175.996 175.055Z" stroke="url(#paint17_radial_6_2)" stroke-width="0.485348"/>
<path opacity="0.325123" fill-rule="evenodd" clip-rule="evenodd" d="M96.9678 143.425C93.6395 144.407 82.8506 148.484 84.3818 151.598C85.8487 154.581 110.934 155.783 114.784 164.674C116.463 168.551 110.932 171.476 112.333 175.462C113.411 178.531 121.755 186.244 127.034 189.89C131.175 192.75 136.613 187.587 134.399 183.308C130.871 176.49 146.457 168.14 153.523 164.347C157.646 162.134 145.023 151.271 145.023 151.271L96.9678 143.425Z" fill="url(#paint18_linear_6_2)"/>
<path opacity="0.477832" fill-rule="evenodd" clip-rule="evenodd" d="M154.013 153.396C152.863 157.631 168.154 163.386 167.008 166.309C164.485 172.743 150.678 168.36 140.12 181.837C138.607 183.767 142.245 190.663 141.754 189.846C141.264 189.029 137.528 183.332 138.485 180.529C141.489 171.738 170.531 168.461 165.21 164.265C162.15 161.852 151.149 155.186 154.013 153.396Z" fill="url(#paint19_radial_6_2)"/>
<path opacity="0.586207" d="M188.421 162.1C188.421 162.284 188.244 162.46 187.93 162.591C187.616 162.721 187.19 162.794 186.745 162.794C186.301 162.794 185.875 162.721 185.56 162.591C185.246 162.46 185.07 162.284 185.07 162.1C185.07 161.915 185.246 161.739 185.56 161.608C185.875 161.478 186.301 161.405 186.745 161.405C187.19 161.405 187.616 161.478 187.93 161.608C188.244 161.739 188.421 161.915 188.421 162.1Z" fill="white"/>
<path opacity="0.586207" d="M177.227 174.931C177.227 175.115 177.115 175.292 176.915 175.422C176.716 175.552 176.446 175.626 176.164 175.626C175.882 175.626 175.612 175.552 175.413 175.422C175.214 175.292 175.102 175.115 175.102 174.931C175.102 174.747 175.214 174.57 175.413 174.44C175.612 174.309 175.882 174.236 176.164 174.236C176.446 174.236 176.716 174.309 176.915 174.44C177.115 174.57 177.227 174.747 177.227 174.931Z" fill="white"/>
<path opacity="0.586207" d="M92.4748 174.318C92.4748 174.502 92.2768 174.679 91.9242 174.809C91.5717 174.939 91.0936 175.013 90.595 175.013C90.0965 175.013 89.6184 174.939 89.2658 174.809C88.9133 174.679 88.7153 174.502 88.7153 174.318C88.7153 174.134 88.9133 173.957 89.2658 173.827C89.6184 173.696 90.0965 173.623 90.595 173.623C91.0936 173.623 91.5717 173.696 91.9242 173.827C92.2768 173.957 92.4748 174.134 92.4748 174.318Z" fill="white"/>
<path opacity="0.251232" d="M91.4112 143.753C81.8336 149.677 66.9429 151.833 83.2384 155.767C81.2973 151.445 87.4408 151.922 91.4112 143.753Z" fill="url(#paint20_linear_6_2)"/>
<path opacity="0.363158" d="M125.41 197.693C125.41 197.693 140.181 196.301 143.598 192.039C145.597 189.546 135.653 186.636 137.8 184.194C145.875 175.005 152.662 175.388 162.024 171.54C171.386 167.691 167.931 165.806 164.903 164.117C159.717 161.223 148.174 158.139 151.992 151.271C155.835 144.361 189.484 134.763 189.484 134.763C199.681 131.279 198.402 124.979 193.407 119.725L163.332 89.8126C163.332 89.8126 164.824 118.181 158.755 130.349C151.255 145.387 111.324 162.165 128.025 164.021C133.91 164.675 136.735 166.682 139.14 171.213C144.094 180.542 125.41 197.693 125.41 197.693Z" fill="url(#paint21_linear_6_2)"/>
<filter id="filter0_f_6_2" x="51.3988" y="52.7065" width="153.202" height="150.866" filterUnits="userSpaceOnUse" color-interpolation-filters="sRGB">
<feFlood flood-opacity="0" result="BackgroundImageFix"/>
<feBlend mode="normal" in="SourceGraphic" in2="BackgroundImageFix" result="shape"/>
<feGaussianBlur stdDeviation="0.800584" result="effect1_foregroundBlur_6_2"/>
</filter>
<filter id="filter1_f_6_2" x="46.0616" y="48.6769" width="163.877" height="161.54" filterUnits="userSpaceOnUse" color-interpolation-filters="sRGB">
<feFlood flood-opacity="0" result="BackgroundImageFix"/>
<feBlend mode="normal" in="SourceGraphic" in2="BackgroundImageFix" result="shape"/>
<feGaussianBlur stdDeviation="3.4692" result="effect1_foregroundBlur_6_2"/>
</filter>
<linearGradient id="paint0_linear_6_2" x1="152.032" y1="68.619" x2="122.696" y2="95.145" gradientUnits="userSpaceOnUse">
<stop stop-color="#C0CDF9"/>
<stop offset="1" stop-color="#07092D" stop-opacity="0.288043"/>
</linearGradient>
<linearGradient id="paint1_linear_6_2" x1="86.3788" y1="88.065" x2="120.16" y2="121.846" gradientUnits="userSpaceOnUse">
<stop stop-color="white"/>
<stop offset="1" stop-color="white" stop-opacity="0"/>
</linearGradient>
<linearGradient id="paint2_linear_6_2" x1="122.646" y1="68.0634" x2="162.815" y2="108.232" gradientUnits="userSpaceOnUse">
<stop stop-color="white"/>
<stop offset="1" stop-color="white" stop-opacity="0"/>
</linearGradient>
<radialGradient id="paint3_radial_6_2" cx="0" cy="0" r="1" gradientUnits="userSpaceOnUse" gradientTransform="translate(102.575 194.045) scale(34.0712 22.8059)">
<stop stop-color="white"/>
<stop offset="1" stop-color="white" stop-opacity="0"/>
</radialGradient>
<radialGradient id="paint4_radial_6_2" cx="0" cy="0" r="1" gradientUnits="userSpaceOnUse" gradientTransform="translate(120.54 194.862) scale(43.472 29.0985)">
<stop stop-color="white"/>
<stop offset="1" stop-color="white" stop-opacity="0"/>
</radialGradient>
<radialGradient id="paint5_radial_6_2" cx="0" cy="0" r="1" gradientUnits="userSpaceOnUse" gradientTransform="translate(175.718 142.218) scale(24.2895 10.2832)">
<stop stop-color="white"/>
<stop offset="1" stop-color="white" stop-opacity="0"/>
</radialGradient>
<radialGradient id="paint6_radial_6_2" cx="0" cy="0" r="1" gradientUnits="userSpaceOnUse" gradientTransform="translate(180.86 145.055) scale(24.2895 10.2832)">
<stop stop-color="white"/>
<stop offset="1" stop-color="white" stop-opacity="0"/>
</radialGradient>
<linearGradient id="paint7_linear_6_2" x1="189.991" y1="159.903" x2="190.079" y2="164.38" gradientUnits="userSpaceOnUse">
<stop stop-color="white"/>
<stop offset="1" stop-color="white" stop-opacity="0"/>
</linearGradient>
<linearGradient id="paint8_linear_6_2" x1="190.168" y1="159.389" x2="190.168" y2="166.186" gradientUnits="userSpaceOnUse">
<stop stop-color="white"/>
<stop offset="1" stop-color="white" stop-opacity="0"/>
</linearGradient>
<radialGradient id="paint9_radial_6_2" cx="0" cy="0" r="1" gradientUnits="userSpaceOnUse" gradientTransform="translate(188.462 167.483) scale(9.99506 1.47677)">
<stop stop-color="white"/>
<stop offset="1" stop-color="white" stop-opacity="0"/>
</radialGradient>
<linearGradient id="paint10_linear_6_2" x1="175.958" y1="173.18" x2="178.162" y2="177.074" gradientUnits="userSpaceOnUse">
<stop stop-color="white"/>
<stop offset="1" stop-color="white" stop-opacity="0"/>
</linearGradient>
<linearGradient id="paint11_linear_6_2" x1="175.129" y1="171.8" x2="178.203" y2="177.863" gradientUnits="userSpaceOnUse">
<stop stop-color="white"/>
<stop offset="1" stop-color="white" stop-opacity="0"/>
</linearGradient>
<radialGradient id="paint12_radial_6_2" cx="0" cy="0" r="1" gradientUnits="userSpaceOnUse" gradientTransform="translate(178.796 180.24) rotate(-26.8862) scale(4.32155 1.47678)">
<stop stop-color="white"/>
<stop offset="1" stop-color="white" stop-opacity="0"/>
</radialGradient>
<radialGradient id="paint13_radial_6_2" cx="0" cy="0" r="1" gradientUnits="userSpaceOnUse" gradientTransform="translate(90.3504 159.052) scale(16.1339 6.5678)">
<stop stop-color="white" stop-opacity="0.330049"/>
<stop offset="1" stop-color="white" stop-opacity="0"/>
</radialGradient>
<linearGradient id="paint14_linear_6_2" x1="91.1714" y1="172.499" x2="91.9249" y2="175.685" gradientUnits="userSpaceOnUse">
<stop stop-color="white"/>
<stop offset="1" stop-color="white" stop-opacity="0"/>
</linearGradient>
<linearGradient id="paint15_linear_6_2" x1="91.2064" y1="172.107" x2="92.2703" y2="176.953" gradientUnits="userSpaceOnUse">
<stop stop-color="white"/>
<stop offset="1" stop-color="white" stop-opacity="0"/>
</linearGradient>
<radialGradient id="paint16_radial_6_2" cx="0" cy="0" r="1" gradientUnits="userSpaceOnUse" gradientTransform="translate(90.772 181.98) rotate(-15.487) scale(9.12977 3.41596)">
<stop stop-color="white"/>
<stop offset="1" stop-color="white" stop-opacity="0"/>
</radialGradient>
<radialGradient id="paint17_radial_6_2" cx="0" cy="0" r="1" gradientUnits="userSpaceOnUse" gradientTransform="translate(133.893 70.6063) scale(126.325 124.332)">
<stop stop-color="white"/>
<stop offset="1" stop-color="white" stop-opacity="0"/>
</radialGradient>
<linearGradient id="paint18_linear_6_2" x1="96.9678" y1="167.07" x2="134.889" y2="177.096" gradientUnits="userSpaceOnUse">
<stop stop-color="white"/>
<stop offset="1" stop-color="white" stop-opacity="0"/>
</linearGradient>
<radialGradient id="paint19_radial_6_2" cx="0" cy="0" r="1" gradientUnits="userSpaceOnUse" gradientTransform="translate(153.017 171.246) scale(19.8524 25.2293)">
<stop stop-color="white"/>
<stop offset="1" stop-color="white" stop-opacity="0"/>
</radialGradient>
<linearGradient id="paint20_linear_6_2" x1="82.9123" y1="147.352" x2="88.8786" y2="152.092" gradientUnits="userSpaceOnUse">
<stop stop-color="white"/>
<stop offset="1" stop-color="white" stop-opacity="0"/>
</linearGradient>
<linearGradient id="paint21_linear_6_2" x1="152.748" y1="173.174" x2="135.022" y2="125.446" gradientUnits="userSpaceOnUse">
<stop stop-color="#729FCF"/>
<stop offset="1" stop-color="#729FCF" stop-opacity="0"/>
</linearGradient>
</svg>