<svg viewBox="0 0 256 256" xmlns="http://www.w3.org/2000/svg" xml:space="preserve" style="fill-rule:evenodd;clip-rule:evenodd"><path d="M256 40v176c0 22.077-17.923 40-40 40H40c-22.077 0-40-17.923-40-40V40C0 17.923 17.923 0 40 0h176c22.077 0 40 17.923 40 40" style="fill:#eaeaeb"/><path d="m114.746 59.329-55.165 56.504c-20.888 20.888 13.524 19.147 25.976 27.047 5.757 3.749-18.478 8.57-13.524 13.524 4.821 4.954 29.056 9.507 33.876 14.327 4.82 4.954-9.774 10.176-4.954 15.13 4.686 4.954 15.934.268 17.942 11.515 1.473 8.302 20.62 4.151 29.19-2.945 5.355-4.553-9.239-4.553-4.419-9.507 12.051-12.185 22.762-5.49 27.181-16.737 2.41-6.026-18.21-10.31-12.72-14.193 13.122-9.239 61.325-13.926 39.098-36.152l-57.174-58.513c-7.097-6.695-18.746-6.695-25.307 0m63.333 108.858c0 2.812 21.826 4.418 20.621-.67-1.741-8.569-18.21-7.9-20.621.67m-93.058 14.862c4.954 4.285 12.453-.937 14.863-6.962-4.82-6.293-22.629.401-14.863 6.962m90.381-8.971c-6.16 5.624 1.071 11.515 7.096 7.632 1.607-1.071-.134-6.293-7.096-7.632" style="fill-rule:nonzero"/><path d="m114.746 60.637-55.165 56.504c-20.888 20.888 13.524 19.147 25.976 27.047 5.757 3.749-18.478 8.569-13.524 13.524 4.821 4.954 29.056 9.506 33.876 14.326 4.82 4.955-9.774 10.177-4.954 15.131 4.686 4.954 15.934.268 17.942 11.515 1.473 8.302 20.62 4.151 29.19-2.946 5.355-4.552-9.239-4.552-4.419-9.506 12.051-12.185 22.762-5.49 27.181-16.738 2.41-6.025-18.21-10.31-12.72-14.193 13.122-9.238 61.325-13.925 39.098-36.152l-57.174-58.512c-7.097-6.695-18.746-6.695-25.307 0m63.333 108.857c0 2.812 21.826 4.419 20.621-.669-1.741-8.569-18.21-7.9-20.621.669m-93.058 14.863c4.954 4.285 12.453-.937 14.863-6.963-4.82-6.293-22.629.402-14.863 6.963m90.381-8.971c-6.16 5.624 1.071 11.515 7.096 7.632 1.607-1.071-.134-6.293-7.096-7.632" style="fill-rule:nonzero" opacity=".58"/><path d="m114.746 58.021-55.165 56.505c-20.888 20.887 13.524 19.147 25.976 27.047 5.757 3.749-18.478 8.569-13.524 13.523 4.821 4.954 29.056 9.507 33.876 14.327 4.82 4.954-9.774 10.176-4.954 15.13 4.686 4.955 15.934.268 17.942 11.516 1.473 8.301 20.62 4.15 29.19-2.946 5.355-4.553-9.239-4.553-4.419-9.507 12.051-12.184 22.762-5.49 27.181-16.737 2.41-6.025-18.21-10.31-12.72-14.193 13.122-9.239 61.325-13.925 39.098-36.152l-57.174-58.513c-7.097-6.695-18.746-6.695-25.307 0m63.333 108.858c0 2.812 21.826 4.419 20.621-.669-1.741-8.57-18.21-7.9-20.621.669m-93.058 14.863c4.954 4.284 12.453-.938 14.863-6.963-4.82-6.293-22.629.402-14.863 6.963m90.381-8.971c-6.16 5.623 1.071 11.515 7.096 7.632 1.607-1.071-.134-6.293-7.096-7.632" style="fill-rule:nonzero"/><path d="m114.871 58.672-54.643 55.97c-20.69 20.69 13.395 18.966 25.73 26.791 5.703 3.713-18.303 8.488-13.396 13.395 4.775 4.908 28.781 9.417 33.556 14.192 4.774 4.907-9.682 10.08-4.908 14.987 4.642 4.907 15.783.265 17.773 11.406 1.459 8.223 20.425 4.112 28.913-2.918 5.305-4.509-9.151-4.509-4.377-9.416 11.937-12.07 22.548-5.438 26.924-16.579 2.388-5.968-18.037-10.213-12.6-14.059 12.998-9.151 60.745-13.793 38.728-35.81l-56.633-57.959c-7.029-6.632-18.568-6.632-25.067 0m-13.13 85.811c1.194 0 40.85 5.306 25.598 9.417-5.836 1.592-32.627-9.417-25.598-9.417m75.864 22.017c0 2.785 21.619 4.377 20.425-.663-1.724-8.489-18.037-7.825-20.425.663m-92.177 14.722c4.907 4.244 12.334-.929 14.721-6.897-4.774-6.234-22.414.398-14.721 6.897m89.525-8.886c-6.101 5.57 1.061 11.406 7.029 7.56 1.592-1.061-.133-6.234-7.029-7.56" style="fill-rule:nonzero"/><path d="m114.871 58.672-54.643 55.97c-20.69 20.69 13.395 18.966 25.73 26.791 5.703 3.713-18.303 8.488-13.396 13.395 4.775 4.908 28.781 9.417 33.556 14.192 4.774 4.907-9.682 10.08-4.908 14.987 4.642 4.907 15.783.265 17.773 11.406 1.459 8.223 20.425 4.112 28.913-2.918 5.305-4.509-9.151-4.509-4.377-9.416 11.937-12.07 22.548-5.438 26.924-16.579 2.388-5.968-18.037-10.213-12.6-14.059 12.998-9.151 60.745-13.793 38.728-35.81l-56.633-57.959c-7.029-6.632-18.568-6.632-25.067 0m-13.13 85.811c1.194 0 40.85 5.306 25.598 9.417-5.836 1.592-32.627-9.417-25.598-9.417m75.864 22.017c0 2.785 21.619 4.377 20.425-.663-1.724-8.489-18.037-7.825-20.425.663m-92.177 14.722c4.907 4.244 12.334-.929 14.721-6.897-4.774-6.234-22.414.398-14.721 6.897m89.525-8.886c-6.101 5.57 1.061 11.406 7.029 7.56 1.592-1.061-.133-6.234-7.029-7.56" style="fill:url(#a);fill-rule:nonzero"/><path d="M64.489 117.658c-14.999 14.864 11.35 10.675 31.619 18.647l41.889-73.644c-6.351-6.486-14.458-5.945-20.269 0z" style="fill:url(#b);fill-rule:nonzero"/><path d="m136.705 62.038 21.826 22.227c2.008 2.008 2.008 6.159.803 7.364l-10.846-8.837-2.142 12.988-8.971-4.82-14.595 9.239-4.82-19.415-7.766 16.871-19.415-.134c-3.749 0-3.214-3.883.669-7.766 7.632-8.436 22.495-22.763 27.181-27.717 4.821-4.954 13.256-4.82 18.076 0" style="fill:url(#c);fill-rule:nonzero"/><path d="M106.75 167.039s2.369 3.618 2.128 5.319c-.474 3.339-7.666 5.006-6.073 7.978 1.575 2.937 7.249 1.273 12.012 4.344 4.743 3.059 3.468 9.292 6.915 10.86 6.722 3.058 24.378-5.275 23.491-5.098-.886.178-17.424 3.614-21.147.6-4.246-3.437-5.463-5.837-8.594-7.869-2.934-1.904-7.056-2.681-8.015-4.24s1.921-3.57 2.12-6.575c.12-1.804-2.837-5.319-2.837-5.319" style="fill:url(#d)"/><path d="M106.75 167.039s2.369 3.618 2.128 5.319c-.474 3.339-7.666 5.006-6.073 7.978 1.575 2.937 7.249 1.273 12.012 4.344 4.743 3.059 3.468 9.292 6.915 10.86 6.722 3.058 24.378-5.275 23.491-5.098-29.317.112-23.846-7.442-35.148-12.41-1.634-.718-.687-2.669-.488-5.674.12-1.804-2.837-5.319-2.837-5.319" style="fill:url(#e)"/><path d="M156.57 151.615c26.314-9.684 34.767-11.014 43.438-19.68-10.043 8.477-31.274 13.024-48.579 20.566z" style="fill:url(#f)"/><path d="M156.57 150.373c43.334-15.357 36.008-15.269 43.438-19.679-13.778 5.274-39.526 5.836-48.579 20.566z" style="fill:url(#g)"/><path d="M194.423 162.651c0 .459-.593.898-1.649 1.223-1.055.324-2.487.506-3.98.506s-2.925-.182-3.98-.506c-1.056-.325-1.649-.764-1.649-1.223 0-.458.593-.898 1.649-1.222 1.055-.324 2.487-.506 3.98-.506s2.925.182 3.98.506 1.649.764 1.649 1.222" style="fill:url(#h);fill-rule:nonzero"/><path d="M196.373 164.645c0 .987-.798 1.935-2.22 2.633-1.421.698-3.349 1.09-5.359 1.09s-3.938-.392-5.36-1.09c-1.421-.698-2.219-1.646-2.219-2.633s.798-1.934 2.219-2.633c1.422-.698 3.35-1.09 5.36-1.09s3.938.392 5.359 1.09c1.422.699 2.22 1.646 2.22 2.633" style="fill:url(#i);fill-rule:nonzero"/><path d="M178.467 166.715c2.673 2.471 17.556 3.739 19.99-.709-4.778 3.393-15.402 2.2-19.99.709" style="fill:url(#j)"/><path d="M178.519 174.963c.13.256.213.533.244.815.03.282.008.564-.065.829a2 2 0 0 1-.363.716 1.85 1.85 0 0 1-.606.494 1.9 1.9 0 0 1-.757.197 2 2 0 0 1-.792-.13 2.2 2.2 0 0 1-.707-.438 2.4 2.4 0 0 1-.514-.678 2.4 2.4 0 0 1-.243-.815 2.2 2.2 0 0 1 .064-.829c.074-.265.197-.508.364-.716a1.83 1.83 0 0 1 1.363-.691c.265-.012.535.033.792.13.257.098.497.246.707.438.209.191.384.422.513.678" style="fill:url(#k);fill-rule:nonzero"/><path d="M179.575 175.439c.194.383.319.797.368 1.217s.021.838-.083 1.232a2.9 2.9 0 0 1-.522 1.06 2.65 2.65 0 0 1-.882.726 2.6 2.6 0 0 1-1.107.282 2.9 2.9 0 0 1-1.164-.205 3.3 3.3 0 0 1-1.043-.661 3.62 3.62 0 0 1-1.132-2.232 3.3 3.3 0 0 1 .083-1.232c.104-.394.281-.754.522-1.06s.541-.554.882-.727a2.6 2.6 0 0 1 1.108-.282c.389-.013.785.057 1.163.205a3.3 3.3 0 0 1 1.043.661c.31.288.57.633.764 1.016" style="fill:url(#l);fill-rule:nonzero"/><path d="M174.816 179.958c2.148 1.681 10.234 1.897 7.167-2.99.8 3.827-4.723 3.423-7.167 2.99" style="fill:url(#m)"/><path d="M75.014 154.629c0-.441 27.549 8.395 32.268 13.119-3.88-3.786-23.516-12.493-26.505-12.588s-5.408-.354-5.763-.531" style="fill:url(#n)"/><path d="M95.71 173.556c.107.319-.311.739-1.163 1.168-.852.43-2.068.833-3.381 1.121s-2.613.438-3.617.416-1.628-.214-1.735-.533.311-.739 1.163-1.168c.853-.43 2.069-.833 3.381-1.121s2.613-.438 3.617-.416 1.628.214 1.735.533" style="fill:url(#o);fill-rule:nonzero"/><path d="M97.89 174.567c.231.688-.249 1.501-1.336 2.261-1.086.76-2.689 1.405-4.456 1.793s-3.553.487-4.966.276c-1.412-.212-2.336-.717-2.567-1.404s.25-1.5 1.336-2.261c1.086-.76 2.689-1.405 4.456-1.793s3.553-.487 4.966-.275 2.336.716 2.567 1.403" style="fill:url(#p);fill-rule:nonzero"/><path d="M83.835 178.032s1.492 4.007 5.585 4.21c4.141.206 8.867-4.969 9.263-6.825-.709 1.595-4.673 6.406-9.795 6.338-2.908-.039-5.053-3.723-5.053-3.723" style="fill:url(#q)"/><path d="M127.207 54.967c-4.148 0-8.214 1.502-11.088 4.435L60.97 115.89c-5.042 5.042-6.253 8.342-5.941 10.209.155.934.614 1.745 1.589 2.594.976.85 2.453 1.683 4.227 2.427 3.547 1.49 8.325 2.689 13.013 3.975 4.687 1.287 9.279 2.644 12.762 4.854.531.346 1.03.772 1.381 1.381a3.1 3.1 0 0 1 .334 2.092c-.279 1.356-1.114 2.071-1.966 2.72-1.705 1.297-4.048 2.374-6.402 3.515-2.354 1.14-4.72 2.307-5.9 3.263-.59.479-.804.908-.795.879s-.156-.366.125-.084c.739.76 3.045 2.06 5.984 3.222 2.939 1.163 6.535 2.338 10.168 3.515s7.307 2.343 10.419 3.557 5.647 2.342 7.322 4.017c.834.857 1.423 1.922 1.548 3.012.126 1.09-.17 2.113-.586 2.971-.832 1.716-2.169 3.036-3.389 4.31s-2.325 2.491-2.72 3.306c-.197.407-.228.672-.209.836.019.165.047.33.419.712l.041.042c1.599 1.689 5.071 1.927 8.997 2.845 1.962.459 4.015 1.154 5.774 2.678s3.079 3.843 3.64 6.988c.237 1.331.941 1.98 2.636 2.51 1.696.531 4.277.623 7.114.209 5.672-.828 12.398-3.609 16.276-6.82.241-.205.174-.151.251-.251-.26-.187-.872-.585-1.882-1.088-1.194-.595-2.604-1.151-3.683-2.511-.539-.679-.91-1.753-.753-2.803s.732-1.924 1.507-2.72c6.354-6.425 12.615-7.959 17.322-9.205 2.354-.623 4.324-1.194 5.817-2.134 1.492-.941 2.658-2.228 3.64-4.728.108-.271.105-.35-.042-.67s-.542-.832-1.172-1.381c-1.26-1.096-3.361-2.275-5.439-3.431s-4.098-2.234-5.565-3.598c-.734-.683-1.503-1.542-1.59-2.846-.088-1.303.766-2.479 1.757-3.18 3.677-2.588 9.234-4.559 15.273-6.653s12.534-4.26 17.825-6.736 9.181-5.328 10.419-8.202c.618-1.436.732-2.89.083-4.77-.648-1.879-2.128-4.178-4.77-6.82l-57.115-58.454-.042-.042c-3.157-2.956-7.335-4.435-11.465-4.435Zm61.509 107.117c-3.529.127-6.775 1.742-8.159 4.268.393.148.747.315 1.38.46 1.842.424 4.413.697 6.946.753 2.534.056 5.067-.157 6.611-.585.676-.188 1.035-.378 1.214-.503-.343-1.46-1.158-2.493-2.552-3.263-1.445-.798-3.424-1.203-5.44-1.13Zm-94.397 12.134c-2.798-.194-6.315.92-8.034 2.302-.859.691-1.223 1.331-1.255 1.757-.033.426.103.994 1.255 1.967v.041c1.811 1.567 3.859 1.404 6.193.126 1.956-1.071 3.692-3.081 4.854-5.189a6.1 6.1 0 0 0-3.013-1.004Zm81.677.837c-.599.762-.925 1.47-.963 1.967-.051.685.143 1.215.67 1.715.987.939 3.132 1.343 5.314.168a2.7 2.7 0 0 0-.46-1.13c-.67-.983-2.235-2.042-4.561-2.72Z" style="fill:none;fill-rule:nonzero;stroke:url(#r);stroke-width:.49px"/><path d="M96.968 143.425c-3.328.982-14.117 5.059-12.586 8.173 1.467 2.983 26.552 4.185 30.402 13.076 1.679 3.877-3.852 6.802-2.451 10.788 1.078 3.069 9.422 10.782 14.701 14.428 4.141 2.86 9.579-2.303 7.365-6.582-3.528-6.818 12.058-15.168 19.124-18.961 4.123-2.213-8.5-13.076-8.5-13.076z" style="fill:url(#s)"/><path d="M154.013 153.396c-1.15 4.235 14.141 9.99 12.995 12.913-2.523 6.434-16.33 2.051-26.888 15.528-1.513 1.93 2.125 8.826 1.634 8.009-.49-.817-4.226-6.514-3.269-9.317 3.004-8.791 32.046-12.068 26.725-16.264-3.06-2.413-14.061-9.079-11.197-10.869" style="fill:url(#t)"/><path d="M188.421 162.1c0 .184-.177.36-.491.491-.314.13-.74.203-1.185.203-.444 0-.87-.073-1.185-.203-.314-.131-.49-.307-.49-.491 0-.185.176-.361.49-.492.315-.13.741-.203 1.185-.203s.871.073 1.185.203c.314.131.491.307.491.492m-11.194 12.831c0 .184-.112.361-.312.491-.199.13-.469.204-.751.204s-.552-.074-.751-.204-.311-.307-.311-.491.112-.361.311-.491c.199-.131.469-.204.751-.204s.552.073.751.204c.2.13.312.307.312.491m-84.752-.613c0 .184-.198.361-.551.491-.352.13-.83.204-1.329.204-.498 0-.977-.074-1.329-.204-.353-.13-.551-.307-.551-.491s.198-.361.551-.491c.352-.131.831-.204 1.329-.204.499 0 .977.073 1.329.204.353.13.551.307.551.491" style="fill:#fff;fill-opacity:.59;fill-rule:nonzero"/><path d="M91.411 143.753c-9.577 5.924-24.468 8.08-8.173 12.014-1.941-4.322 4.203-3.845 8.173-12.014" style="fill:url(#u);fill-rule:nonzero"/><path d="M125.41 197.693s14.771-1.392 18.188-5.654c1.999-2.493-7.945-5.403-5.798-7.845 8.075-9.189 14.862-8.806 24.224-12.654s5.907-5.734 2.879-7.423c-5.186-2.894-16.729-5.978-12.911-12.846 3.843-6.91 37.492-16.508 37.492-16.508 10.197-3.484 8.918-9.784 3.923-15.038l-30.075-29.912s1.492 28.368-4.577 40.536c-7.5 15.038-47.431 31.816-30.73 33.672 5.885.654 8.71 2.661 11.115 7.192 4.954 9.329-13.73 26.48-13.73 26.48" style="fill:url(#v);fill-rule:nonzero"/><defs><linearGradient id="a" x1="0" y1="0" x2="1" y2="0" gradientUnits="userSpaceOnUse" gradientTransform="rotate(137.88 62.804 63.58)scale(39.55)"><stop offset="0" style="stop-color:#c0cdf9;stop-opacity:.67"/><stop offset="1" style="stop-color:#07092d;stop-opacity:.19"/></linearGradient><linearGradient id="b" x1="0" y1="0" x2="1" y2="0" gradientUnits="userSpaceOnUse" gradientTransform="rotate(45 -63.115 148.301)scale(47.7737)"><stop offset="0" style="stop-color:#fff;stop-opacity:.51"/><stop offset="1" style="stop-color:#fff;stop-opacity:0"/></linearGradient><linearGradient id="c" x1="0" y1="0" x2="1" y2="0" gradientUnits="userSpaceOnUse" gradientTransform="rotate(45 -20.837 182.08)scale(56.8073)"><stop offset="0" style="stop-color:#fff;stop-opacity:1"/><stop offset="1" style="stop-color:#fff;stop-opacity:0"/></linearGradient><linearGradient id="h" x1="0" y1="0" x2="1" y2="0" gradientUnits="userSpaceOnUse" gradientTransform="rotate(88.87 13.457 176.833)scale(4.478)"><stop offset="0" style="stop-color:#fff;stop-opacity:.29"/><stop offset="1" style="stop-color:#fff;stop-opacity:0"/></linearGradient><linearGradient id="i" x1="0" y1="0" x2="1" y2="0" gradientUnits="userSpaceOnUse" gradientTransform="rotate(90 15.39 174.779)scale(6.797)"><stop offset="0" style="stop-color:#fff;stop-opacity:.62"/><stop offset="1" style="stop-color:#fff;stop-opacity:0"/></linearGradient><linearGradient id="k" x1="0" y1="0" x2="1" y2="0" gradientUnits="userSpaceOnUse" gradientTransform="rotate(60.49 -60.529 237.48)scale(4.474)"><stop offset="0" style="stop-color:#fff;stop-opacity:.29"/><stop offset="1" style="stop-color:#fff;stop-opacity:0"/></linearGradient><linearGradient id="l" x1="0" y1="0" x2="1" y2="0" gradientUnits="userSpaceOnUse" gradientTransform="rotate(63.11 -52.298 228.472)scale(6.798)"><stop offset="0" style="stop-color:#fff;stop-opacity:.62"/><stop offset="1" style="stop-color:#fff;stop-opacity:0"/></linearGradient><linearGradient id="o" x1="0" y1="0" x2="1" y2="0" gradientUnits="userSpaceOnUse" gradientTransform="rotate(76.694 -63.441 143.874)scale(3.2739)"><stop offset="0" style="stop-color:#fff;stop-opacity:.29"/><stop offset="1" style="stop-color:#fff;stop-opacity:0"/></linearGradient><linearGradient id="p" x1="0" y1="0" x2="1" y2="0" gradientUnits="userSpaceOnUse" gradientTransform="rotate(77.618 -61.392 142.755)scale(4.9614)"><stop offset="0" style="stop-color:#fff;stop-opacity:.62"/><stop offset="1" style="stop-color:#fff;stop-opacity:0"/></linearGradient><linearGradient id="s" x1="0" y1="0" x2="1" y2="0" gradientUnits="userSpaceOnUse" gradientTransform="rotate(14.81 -594.279 456.596)scale(39.2242)"><stop offset="0" style="stop-color:#fff;stop-opacity:.33"/><stop offset="1" style="stop-color:#fff;stop-opacity:0"/></linearGradient><linearGradient id="u" x1="0" y1="0" x2="1" y2="0" gradientUnits="userSpaceOnUse" gradientTransform="rotate(38.466 -169.722 192.502)scale(7.62)"><stop offset="0" style="stop-color:#fff;stop-opacity:.25"/><stop offset="1" style="stop-color:#fff;stop-opacity:0"/></linearGradient><linearGradient id="v" x1="0" y1="0" x2="1" y2="0" gradientUnits="userSpaceOnUse" gradientTransform="rotate(249.625 136.582 33.48)scale(50.913)"><stop offset="0" style="stop-color:#729fcf;stop-opacity:.36"/><stop offset="1" style="stop-color:#729fcf;stop-opacity:0"/></linearGradient><radialGradient id="d" cx="0" cy="0" r="1" gradientUnits="userSpaceOnUse" gradientTransform="matrix(34.0712 0 0 22.8059 102.575 194.045)"><stop offset="0" style="stop-color:#fff;stop-opacity:.22"/><stop offset="1" style="stop-color:#fff;stop-opacity:0"/></radialGradient><radialGradient id="e" cx="0" cy="0" r="1" gradientUnits="userSpaceOnUse" gradientTransform="matrix(43.472 0 0 29.0985 120.54 194.862)"><stop offset="0" style="stop-color:#fff;stop-opacity:.28"/><stop offset="1" style="stop-color:#fff;stop-opacity:0"/></radialGradient><radialGradient id="f" cx="0" cy="0" r="1" gradientUnits="userSpaceOnUse" gradientTransform="matrix(24.2895 0 0 10.2832 175.718 142.218)"><stop offset="0" style="stop-color:#fff;stop-opacity:.45"/><stop offset="1" style="stop-color:#fff;stop-opacity:0"/></radialGradient><radialGradient id="g" cx="0" cy="0" r="1" gradientUnits="userSpaceOnUse" gradientTransform="matrix(24.2895 0 0 10.2832 180.86 145.055)"><stop offset="0" style="stop-color:#fff;stop-opacity:.51"/><stop offset="1" style="stop-color:#fff;stop-opacity:0"/></radialGradient><radialGradient id="j" cx="0" cy="0" r="1" gradientUnits="userSpaceOnUse" gradientTransform="matrix(9.99506 0 0 1.47677 188.462 167.483)"><stop offset="0" style="stop-color:#fff;stop-opacity:1"/><stop offset="1" style="stop-color:#fff;stop-opacity:0"/></radialGradient><radialGradient id="m" cx="0" cy="0" r="1" gradientUnits="userSpaceOnUse" gradientTransform="rotate(-26.886 466.424 -283.886)scale(4.32155 1.47678)"><stop offset="0" style="stop-color:#fff;stop-opacity:1"/><stop offset="1" style="stop-color:#fff;stop-opacity:0"/></radialGradient><radialGradient id="n" cx="0" cy="0" r="1" gradientUnits="userSpaceOnUse" gradientTransform="matrix(16.1339 0 0 6.5678 90.35 159.052)"><stop offset="0" style="stop-color:#fff;stop-opacity:.33"/><stop offset="1" style="stop-color:#fff;stop-opacity:0"/></radialGradient><radialGradient id="q" cx="0" cy="0" r="1" gradientUnits="userSpaceOnUse" gradientTransform="matrix(8.79828 -2.43783 .91213 3.29193 90.772 181.98)"><stop offset="0" style="stop-color:#fff;stop-opacity:.62"/><stop offset="1" style="stop-color:#fff;stop-opacity:0"/></radialGradient><radialGradient id="r" cx="0" cy="0" r="1" gradientUnits="userSpaceOnUse" gradientTransform="matrix(126.325 0 0 124.332 133.893 70.606)"><stop offset="0" style="stop-color:#fff;stop-opacity:1"/><stop offset="1" style="stop-color:#fff;stop-opacity:0"/></radialGradient><radialGradient id="t" cx="0" cy="0" r="1" gradientUnits="userSpaceOnUse" gradientTransform="matrix(19.8524 0 0 25.2293 153.017 171.246)"><stop offset="0" style="stop-color:#fff;stop-opacity:.48"/><stop offset="1" style="stop-color:#fff;stop-opacity:0"/></radialGradient></defs></svg>