<svg width="256" height="256" title="Instagram" viewBox="0 0 256 256" fill="none" xmlns="http://www.w3.org/2000/svg">
<rect width="256" height="256" rx="40" fill="url(#radialGradient)"/>
<path d="M128.509 35C103.387 35 100.234 35.1098 90.3674 35.5589C80.5199 36.0098 73.7982 37.5688 67.9167 39.8563C61.8328 42.2189 56.672 45.3794 51.5305 50.5228C46.3852 55.6643 43.2247 60.8251 40.8544 66.907C38.5611 72.7905 37.0002 79.5142 36.5569 89.3578C36.1156 99.2246 36 102.379 36 127.501C36 152.623 36.1118 155.766 36.5589 165.633C37.0117 175.48 38.5708 182.202 40.8563 188.083C43.2209 194.167 46.3813 199.328 51.5247 204.469C56.6643 209.615 61.8251 212.783 67.9051 215.146C73.7905 217.433 80.5142 218.992 90.3597 219.443C100.227 219.892 103.377 220.002 128.497 220.002C153.621 220.002 156.764 219.892 166.631 219.443C176.478 218.992 183.208 217.433 189.093 215.146C195.175 212.783 200.328 209.615 205.468 204.469C210.613 199.328 213.773 194.167 216.144 188.085C218.418 182.202 219.979 175.478 220.441 165.634C220.884 155.768 221 152.623 221 127.501C221 102.379 220.884 99.2265 220.441 89.3597C219.979 79.5122 218.418 72.7905 216.144 66.909C213.773 60.8251 210.613 55.6643 205.468 50.5228C200.322 45.3775 195.177 42.217 189.087 39.8563C183.19 37.5688 176.465 36.0098 166.617 35.5589C156.75 35.1098 153.609 35 128.48 35H128.509ZM120.211 51.6694C122.673 51.6656 125.421 51.6694 128.509 51.6694C153.206 51.6694 156.134 51.7581 165.887 52.2013C174.906 52.6137 179.8 54.1207 183.061 55.3868C187.378 57.0634 190.455 59.0676 193.691 62.3051C196.929 65.5427 198.933 68.626 200.613 72.9427C201.879 76.1995 203.388 81.0944 203.799 90.1132C204.242 99.8644 204.338 102.794 204.338 127.48C204.338 152.166 204.242 155.095 203.799 164.846C203.386 173.865 201.879 178.76 200.613 182.017C198.937 186.334 196.929 189.407 193.691 192.643C190.453 195.88 187.38 197.885 183.061 199.561C179.804 200.833 174.906 202.336 165.887 202.749C156.136 203.192 153.206 203.288 128.509 203.288C103.809 203.288 100.882 203.192 91.1306 202.749C82.1117 202.332 77.2169 200.825 73.9543 199.559C69.6376 197.883 66.5542 195.878 63.3167 192.641C60.0792 189.403 58.075 186.328 56.3945 182.009C55.1284 178.752 53.6195 173.857 53.209 164.839C52.7658 155.087 52.6772 152.158 52.6772 127.457C52.6772 102.755 52.7658 99.8413 53.209 90.0901C53.6214 81.0713 55.1284 76.1764 56.3945 72.9158C58.0711 68.599 60.0792 65.5157 63.3167 62.2781C66.5542 59.0406 69.6376 57.0364 73.9543 55.356C77.215 54.0841 82.1117 52.581 91.1306 52.1666C99.6638 51.7812 102.971 51.6656 120.211 51.6463V51.6694ZM177.885 67.0285C171.757 67.0285 166.785 71.9946 166.785 78.1247C166.785 84.2529 171.757 89.2248 177.885 89.2248C184.013 89.2248 188.985 84.2529 188.985 78.1247C188.985 71.9965 184.013 67.0246 177.885 67.0246V67.0285ZM128.509 79.9979C102.275 79.9979 81.0056 101.267 81.0056 127.501C81.0056 153.735 102.275 174.994 128.509 174.994C154.742 174.994 176.004 153.735 176.004 127.501C176.004 101.267 154.742 79.9979 128.509 79.9979ZM128.509 96.6673C145.537 96.6673 159.342 110.471 159.342 127.501C159.342 144.529 145.537 158.335 128.509 158.335C111.479 158.335 97.675 144.529 97.675 127.501C97.675 110.471 111.479 96.6673 128.509 96.6673Z" fill="white"/>
<radialGradient id="radialGradient" cx="0" cy="0" r="1" gradientUnits="userSpaceOnUse" gradientTransform="translate(68.0003 275.717) rotate(-90) scale(253.715 235.975)">
<stop stop-color="#FFDD55"/>
<stop offset="0.1" stop-color="#FFDD55"/>
<stop offset="0.5" stop-color="#FF543E"/>
<stop offset="1" stop-color="#C837AB"/>
</radialGradient>
</svg>