<svg width="256" height="256" title="Ionic" viewBox="0 0 256 256" fill="none" xmlns="http://www.w3.org/2000/svg">
<rect width="256" height="256" rx="40" fill="#3880FF"/>
<path d="M200.807 94.8402L200.12 93.3069L198.993 94.5602C196.273 97.6536 192.807 100.027 188.96 101.467L187.9 101.874L188.34 102.907C191.649 110.847 193.349 119.365 193.34 127.967C193.34 164 164.027 193.34 127.967 193.34C91.9067 193.34 62.62 164.027 62.62 127.994C62.62 91.9602 91.9667 62.6202 127.993 62.6202C137.773 62.6202 147.213 64.7469 155.993 68.9336L157.027 69.4336L157.467 68.4002C159.093 64.6155 161.625 61.2889 164.84 58.7136L166.153 57.6536L164.653 56.8736C153.326 51.0139 140.753 47.9702 128 48.0002C83.8733 48.0002 48 83.8736 48 128C48 172.127 83.8733 208 128 208C172.127 208 208 172.127 208 128C208 116.467 205.593 105.314 200.813 94.8469L200.807 94.8402ZM127.993 91.5269C118.325 91.5375 109.056 95.3829 102.219 102.219C95.3827 109.056 91.5373 118.325 91.5267 127.994C91.5373 137.662 95.3827 146.931 102.219 153.768C109.056 160.604 118.325 164.45 127.993 164.46C137.662 164.45 146.931 160.604 153.767 153.768C160.604 146.931 164.449 137.662 164.46 127.994C164.444 118.327 160.597 109.061 153.762 102.225C146.926 95.3899 137.66 91.5428 127.993 91.5269ZM196.96 78.1469C196.96 80.3303 196.53 82.4924 195.694 84.5096C194.859 86.5269 193.634 88.3598 192.09 89.9037C190.546 91.4476 188.713 92.6724 186.696 93.5079C184.679 94.3435 182.517 94.7736 180.333 94.7736C178.15 94.7736 175.988 94.3435 173.971 93.5079C171.953 92.6724 170.12 91.4476 168.576 89.9037C167.033 88.3598 165.808 86.5269 164.972 84.5096C164.137 82.4924 163.707 80.3303 163.707 78.1469C163.707 73.7372 165.458 69.5082 168.576 66.3901C171.695 63.272 175.924 61.5202 180.333 61.5202C184.743 61.5202 188.972 63.272 192.09 66.3901C195.208 69.5082 196.96 73.7372 196.96 78.1469Z" fill="white"/>
</svg>