<svg width="256" height="256" title="Java" viewBox="0 0 256 256" fill="none" xmlns="http://www.w3.org/2000/svg" id="java">
<style>
#java {
    rect {fill: #15191C}

    @media (prefers-color-scheme: light) {
        rect {fill: #F4F2ED}
    }
}
</style>
<rect width="256" height="256" rx="40" fill="#15191C"/>
<path fill-rule="evenodd" clip-rule="evenodd" d="M104.865 176.313C104.865 176.313 98.1326 180.231 109.661 181.554C123.63 183.149 130.766 182.92 146.156 180.008C146.156 180.008 150.207 182.545 155.863 184.74C121.354 199.527 77.7627 183.885 104.865 176.313ZM100.646 157.017C100.646 157.017 93.0939 162.607 104.632 163.8C119.555 165.341 131.335 165.467 151.731 161.542C151.731 161.542 154.547 164.401 158.979 165.963C117.261 178.165 70.7983 166.923 100.646 157.017Z" fill="#3174B9"/>
<path fill-rule="evenodd" clip-rule="evenodd" d="M136.192 124.28C144.699 134.072 133.962 142.879 133.962 142.879C133.962 142.879 155.553 131.735 145.637 117.776C136.378 104.764 129.276 98.2993 167.719 76.0066C167.719 76.0066 107.374 91.0716 136.192 124.28Z" fill="#CA3132"/>
<path fill-rule="evenodd" clip-rule="evenodd" d="M181.832 190.587C181.832 190.587 186.815 194.696 176.343 197.874C156.429 203.905 93.4448 205.724 75.9496 198.113C69.6651 195.376 81.4562 191.582 85.1658 190.78C89.0348 189.944 91.2427 190.096 91.2427 190.096C84.249 185.171 46.0374 199.769 71.8364 203.956C142.186 215.363 200.077 198.821 181.832 190.587ZM108.103 137.021C108.103 137.021 76.0695 144.632 96.7611 147.398C105.501 148.567 122.91 148.298 139.138 146.936C152.398 145.824 165.707 143.443 165.707 143.443C165.707 143.443 161.035 145.448 157.65 147.755C125.115 156.313 62.2722 152.328 80.3654 143.579C95.6629 136.179 108.103 137.021 108.103 137.021ZM165.574 169.141C198.644 151.961 183.354 135.446 172.678 137.672C170.068 138.217 168.897 138.688 168.897 138.688C168.897 138.688 169.871 137.165 171.722 136.509C192.838 129.089 209.074 158.402 164.914 170.01C164.913 170.01 165.421 169.551 165.574 169.141Z" fill="#3174B9"/>
<path fill-rule="evenodd" clip-rule="evenodd" d="M145.636 40C145.636 40 163.948 58.3228 128.264 86.4891C99.6474 109.092 121.74 121.975 128.255 136.701C111.548 121.63 99.2936 108.361 107.514 96.0139C119.583 77.8899 153.025 69.1007 145.636 40Z" fill="#CA3132"/>
<path fill-rule="evenodd" clip-rule="evenodd" d="M111.357 215.712C143.095 217.742 191.843 214.585 193 199.564C193 199.564 190.78 205.258 166.767 209.774C139.674 214.875 106.252 214.281 86.4365 211.01C86.4365 211.01 90.497 214.37 111.357 215.712Z" fill="#3174B9"/>
</svg>