<svg width="256" height="256" title="JDBC" viewBox="0 0 256 256" fill="none" xmlns="http://www.w3.org/2000/svg" id="jdbc">
<style>
#jdbc {
    rect {fill: #15191C}

    @media (prefers-color-scheme: light) {
        rect {fill: #F4F2ED}
    }
}
</style>
<rect width="256" height="256" rx="40" fill="#15191C"/>
<path d="M111.202 137.65C111.202 137.65 106.153 140.724 114.715 141.602C125.033 142.919 130.522 142.7 141.938 140.504C141.938 140.504 145.012 142.48 149.184 144.017C123.496 154.994 91.0037 143.358 111.202 137.65ZM107.909 123.38C107.909 123.38 102.42 127.551 110.983 128.429C122.179 129.527 130.961 129.746 146.11 126.673C146.11 126.673 148.086 128.868 151.379 129.966C120.423 139.187 85.7341 130.844 107.909 123.38ZM168.503 148.408C168.503 148.408 172.236 151.482 164.332 153.897C149.623 158.287 102.639 159.605 89.4667 153.897C84.8561 151.921 93.6382 149.067 96.4919 148.628C99.3464 147.969 100.883 147.969 100.883 147.969C95.8338 144.456 67.2922 155.214 86.3927 158.287C138.864 166.85 182.116 154.555 168.503 148.408ZM113.617 108.45C113.617 108.45 89.6862 114.159 105.055 116.134C111.641 117.012 124.594 116.793 136.67 115.915C146.549 115.037 156.429 113.28 156.429 113.28C156.429 113.28 152.916 114.817 150.501 116.354C126.131 122.721 79.3679 119.867 92.7602 113.28C104.176 107.792 113.617 108.45 113.617 108.45ZM156.429 132.381C181.018 119.647 169.601 107.353 161.698 108.89C159.722 109.329 158.844 109.768 158.844 109.768C158.844 109.768 159.502 108.45 161.039 108.011C176.627 102.523 188.922 124.477 155.99 133.04C155.99 133.04 156.209 132.82 156.429 132.381ZM116.032 167.069C139.743 168.606 175.969 166.191 176.847 154.994C176.847 154.994 175.09 159.385 157.307 162.678C137.109 166.411 112.081 165.972 97.3708 163.556C97.3708 163.556 100.444 166.191 116.032 167.069Z" fill="#4E7896"/>
<path d="M141.5 36C141.5 36 155.112 49.8313 128.546 70.6883C107.25 87.5932 123.716 97.2534 128.546 108.231C116.032 97.0339 107.031 87.1542 113.178 77.9335C122.179 64.3212 146.988 57.735 141.5 36ZM134.474 99.0099C140.841 106.255 132.718 112.841 132.718 112.841C132.718 112.841 148.964 104.499 141.5 94.1798C134.694 84.3006 129.424 79.4705 157.966 63.0041C157.966 63.0041 112.959 74.2013 134.474 99.0099Z" fill="#F58219"/>
<path d="M94.6138 182.569V201.534C94.6137 203.235 94.3013 204.696 93.6646 205.907C93.0288 207.117 92.129 208.04 90.9673 208.67C89.8078 209.299 88.4484 209.608 86.8979 209.608C85.4356 209.608 84.1237 209.343 82.9692 208.805L82.9683 208.804C81.8131 208.257 80.8989 207.477 80.2329 206.465C79.5631 205.447 79.2329 204.243 79.2329 202.864V202.614H82.8521V202.864C82.8521 203.561 83.0237 204.158 83.3589 204.666C83.7068 205.172 84.1827 205.57 84.7935 205.86C85.4029 206.148 86.1028 206.295 86.8979 206.295C87.7746 206.295 88.5037 206.112 89.0962 205.756C89.6875 205.401 90.1402 204.879 90.4536 204.18L90.4546 204.179C90.7767 203.47 90.9428 202.591 90.9429 201.534V182.569H94.6138ZM160.541 182.21C161.886 182.21 163.153 182.406 164.339 182.798H164.338C165.533 183.191 166.613 183.766 167.574 184.527H167.573C168.535 185.279 169.338 186.197 169.984 187.279C170.632 188.356 171.077 189.583 171.321 190.956L171.373 191.25H167.701L167.66 191.05C167.478 190.167 167.161 189.397 166.712 188.737L166.711 188.736C166.268 188.07 165.727 187.512 165.088 187.062L165.085 187.06C164.453 186.6 163.75 186.254 162.975 186.024C162.198 185.792 161.387 185.676 160.541 185.676C159.096 185.676 157.784 186.018 156.599 186.699L156.365 186.84C155.132 187.613 154.143 188.755 153.402 190.279C152.673 191.795 152.302 193.669 152.302 195.909C152.302 198.149 152.672 200.023 153.401 201.539C154.142 203.063 155.131 204.205 156.364 204.978C157.609 205.753 159 206.142 160.541 206.142C161.387 206.142 162.198 206.026 162.975 205.794C163.75 205.563 164.454 205.222 165.086 204.77L165.322 204.593C165.86 204.169 166.323 203.666 166.711 203.083L166.712 203.082C167.161 202.413 167.478 201.642 167.66 200.768L167.701 200.569H171.374L171.321 200.862C171.077 202.226 170.633 203.453 169.985 204.538C169.339 205.62 168.536 206.543 167.574 207.304L167.572 207.305C166.611 208.056 165.532 208.627 164.338 209.019L164.339 209.02C163.153 209.412 161.886 209.608 160.541 209.608C158.265 209.608 156.232 209.051 154.45 207.933C152.669 206.815 151.271 205.227 150.255 203.179C149.238 201.126 148.734 198.7 148.734 195.909C148.734 193.118 149.238 190.692 150.255 188.639C151.271 186.59 152.669 185.003 154.45 183.885C156.232 182.767 158.265 182.21 160.541 182.21ZM109.155 182.569C111.729 182.569 113.948 183.099 115.8 184.174H115.799C117.651 185.24 119.069 186.773 120.053 188.767L120.232 189.144C121.096 191.049 121.524 193.29 121.524 195.858C121.524 198.442 121.093 200.702 120.221 202.631L120.041 203.013C119.047 205.017 117.598 206.563 115.696 207.645L115.695 207.646C113.791 208.72 111.488 209.25 108.796 209.25H100.467V182.569H109.155ZM135.746 182.569C137.596 182.569 139.144 182.888 140.375 183.543H140.375C141.597 184.185 142.517 185.057 143.123 186.161H143.124C143.725 187.249 144.024 188.455 144.024 189.773C144.024 190.925 143.819 191.897 143.393 192.677C142.983 193.444 142.436 194.056 141.751 194.507L141.75 194.506C141.237 194.848 140.69 195.121 140.108 195.324C140.769 195.45 141.427 195.72 142.08 196.132C142.929 196.668 143.633 197.434 144.196 198.418C144.768 199.419 145.046 200.632 145.046 202.045C145.046 203.397 144.739 204.621 144.12 205.71C143.493 206.811 142.509 207.673 141.184 208.305C139.852 208.94 138.137 209.25 136.052 209.25H126.342V182.569H135.746ZM104.138 205.938H108.592C110.726 205.938 112.473 205.526 113.848 204.719C115.226 203.911 116.252 202.762 116.93 201.265C117.611 199.762 117.956 197.962 117.956 195.858C117.956 193.771 117.615 191.988 116.943 190.502C116.272 189.012 115.274 187.876 113.949 187.085H113.948C112.624 186.288 110.963 185.881 108.951 185.881H104.138V205.938ZM130.013 205.938H136.052C138.104 205.938 139.494 205.538 140.293 204.802L140.444 204.656C141.171 203.922 141.53 203.056 141.53 202.045C141.53 201.204 141.316 200.43 140.888 199.72L140.887 199.719C140.46 199.002 139.852 198.427 139.053 197.995L139.051 197.994C138.26 197.558 137.314 197.335 136.206 197.335H130.013V205.938ZM130.013 194.073H135.643C136.564 194.073 137.387 193.893 138.116 193.536H138.117C138.854 193.18 139.432 192.681 139.858 192.038L139.86 192.036C140.289 191.401 140.507 190.649 140.507 189.773C140.507 188.687 140.132 187.775 139.378 187.022L139.377 187.021C138.643 186.279 137.452 185.881 135.746 185.881H130.013V194.073Z" fill="#F58219" stroke="#F58219" stroke-width="0.5"/>
</svg>