<svg width="256" height="256" title="Jekyll" viewBox="0 0 256 256" fill="none" xmlns="http://www.w3.org/2000/svg" id="jekyll">
<style>
#jekyll {
    rect {fill: #15191C}

    @media (prefers-color-scheme: light) {
        rect {fill: #F4F2ED}
    }
}
</style>
<rect width="256" height="256" rx="40" fill="#15191C"/>
<path opacity="0.3" d="M133.676 42.5532C133.596 42.8745 133.594 43.2197 133.661 43.5841C133.661 43.5841 134.754 50.8385 133.514 54.0668L80.7666 191.218L80.7705 191.219C77.006 201.293 82.0508 212.54 92.1102 216.409C102.17 220.278 113.45 215.309 117.406 205.309L117.411 205.311L170.158 68.1601C171.189 65.4771 177.071 60.2793 177.071 60.2793C177.366 60.0544 177.595 59.7964 177.751 59.5043L177.777 59.4511C177.805 59.3936 177.838 59.3387 177.861 59.2789C179.221 55.7424 170.448 49.0765 158.266 44.3918C146.083 39.7067 135.105 38.7756 133.745 42.3121C133.722 42.3719 133.709 42.4346 133.692 42.4961L133.676 42.5532Z" fill="black"/>
<path d="M132.151 41.3876C132.071 41.7088 132.069 42.0541 132.137 42.4185C132.137 42.4185 133.23 49.6729 131.989 52.9012L79.2414 190.051L79.2462 190.053C75.4821 200.127 80.5264 211.374 90.5859 215.243C100.644 219.112 111.926 214.143 115.882 204.143L115.886 204.145L168.633 66.9941C169.664 64.3111 175.547 59.1133 175.547 59.1133C175.842 58.8884 176.071 58.6308 176.227 58.3383L176.252 58.2851C176.28 58.228 176.314 58.1726 176.336 58.1129C177.696 54.5764 168.924 47.9109 156.742 43.2258C144.559 38.5407 133.581 37.6096 132.221 41.1461C132.198 41.2058 132.185 41.2686 132.168 41.33L132.151 41.3876Z" fill="url(#linearGradient1)"/>
<path d="M148.697 103.433L110.659 202.339L110.684 202.348C107.878 209.437 99.7138 213.125 92.4712 210.339C85.2286 207.554 81.3084 199.219 83.9762 192.076L108.282 128.878C108.282 128.878 111.317 123.981 117.277 120.497C123.237 117.014 128.153 117.749 134.771 114.807C141.389 111.866 148.697 103.433 148.697 103.433Z" fill="url(#linearGradient2)"/>
<path d="M152.762 53.5925C160.323 56.5006 167.073 57.246 167.838 55.2573C168.603 53.2686 163.093 49.2989 155.532 46.3908C147.971 43.4827 141.222 42.7374 140.457 44.7261C139.692 46.7148 145.201 50.6844 152.762 53.5925Z" fill="#333333"/>
<path opacity="0.3" d="M132.137 42.4181C132.137 42.4181 133.214 49.7138 131.988 52.9008L79.2414 190.051L79.2462 190.053C75.4821 200.127 80.5264 211.374 90.5859 215.243C92.3317 215.914 94.1132 216.313 95.8882 216.473C89.1073 211.372 86.198 202.249 89.3091 193.924L89.3043 193.922L141.005 59.4917C141.005 59.4917 133.967 52.8838 132.137 42.4181Z" fill="white"/>
<path opacity="0.5" d="M115.155 132.42C115.999 132.42 116.683 131.736 116.683 130.892C116.683 130.048 115.999 129.364 115.155 129.364C114.31 129.364 113.626 130.048 113.626 130.892C113.626 131.736 114.31 132.42 115.155 132.42Z" fill="white"/>
<path opacity="0.5" d="M125.173 144.277C126.445 144.277 127.477 143.245 127.477 141.973C127.477 140.701 126.445 139.669 125.173 139.669C123.901 139.669 122.869 140.701 122.869 141.973C122.869 143.245 123.901 144.277 125.173 144.277Z" fill="white"/>
<path opacity="0.5" d="M109.879 159.473C112.266 159.473 114.201 157.538 114.201 155.151C114.201 152.764 112.266 150.829 109.879 150.829C107.492 150.829 105.557 152.764 105.557 155.151C105.557 157.538 107.492 159.473 109.879 159.473Z" fill="white"/>
<path opacity="0.5" d="M102.881 165.448C104.154 165.448 105.185 164.417 105.185 163.144C105.185 161.872 104.154 160.84 102.881 160.84C101.609 160.84 100.577 161.872 100.577 163.144C100.577 164.417 101.609 165.448 102.881 165.448Z" fill="white"/>
<path opacity="0.5" d="M112.059 181.766C112.903 181.766 113.587 181.082 113.587 180.237C113.587 179.393 112.903 178.709 112.059 178.709C111.215 178.709 110.531 179.393 110.531 180.237C110.531 181.082 111.215 181.766 112.059 181.766Z" fill="white"/>
<linearGradient id="linearGradient1" x1="101.609" y1="120.753" x2="145.725" y2="137.718" gradientUnits="userSpaceOnUse">
<stop stop-color="#919191"/>
<stop offset="1" stop-color="white"/>
</linearGradient>
<linearGradient id="linearGradient2" x1="100.481" y1="149.156" x2="127.189" y2="159.426" gradientUnits="userSpaceOnUse">
<stop stop-color="#990000"/>
<stop offset="1" stop-color="#E80000"/>
</linearGradient>
</svg>