<svg width="256" height="256" title="Jenkins" viewBox="0 0 256 256" fill="none" xmlns="http://www.w3.org/2000/svg" id="jenkins">
<style>
#jenkins {
    rect {fill: #15191C}

    @media (prefers-color-scheme: light) {
        rect {fill: #F4F2ED}
    }
}
</style>
<rect width="256" height="256" rx="40" fill="#15191C"/>
<path fill-rule="evenodd" clip-rule="evenodd" d="M193.968 124.948C193.968 161.931 164.657 191.911 128.501 191.911C92.3448 191.911 63.0342 161.931 63.0342 124.948C63.0342 87.9649 92.3448 57.9839 128.501 57.9839C164.657 57.9839 193.968 87.9649 193.968 124.948Z" fill="#D33833"/>
<path d="M65.7019 141.533C65.7019 141.533 60.9626 71.7013 125.308 69.7059L120.819 62.224L85.9033 73.9459L75.9271 85.418L67.1983 102.128L62.21 121.581L63.7064 134.55" fill="#EF3D3A"/>
<path d="M83.6616 79.2671C72.1753 91.0198 65.0674 107.247 65.0674 125.198C65.0674 143.146 72.1753 159.375 83.6616 171.125C95.1534 182.876 110.991 190.127 128.5 190.127C146.009 190.127 161.848 182.876 173.339 171.125C184.824 159.375 191.934 143.146 191.934 125.198C191.934 107.247 184.824 91.0198 173.339 79.2671C161.848 67.5189 146.009 60.2682 128.5 60.2667C110.991 60.2682 95.1534 67.5189 83.6616 79.2671ZM80.7541 173.968C68.5468 161.484 61 144.23 61 125.198C61 106.163 68.5468 88.9114 80.7541 76.4262C92.9585 63.9388 109.853 56.1987 128.5 56.201C147.147 56.1987 164.043 63.9388 176.245 76.4262C188.454 88.9114 196.001 106.165 196 125.198C196.001 144.23 188.454 161.484 176.245 173.968C164.043 186.455 147.147 194.194 128.5 194.194C109.853 194.194 92.9585 186.455 80.7541 173.968Z" fill="#231F20"/>
<path fill-rule="evenodd" clip-rule="evenodd" d="M156.059 125.319L146.083 126.816L132.615 128.312L123.886 128.561L115.406 128.312L108.922 126.317L103.185 120.082L98.6962 107.363L97.6987 104.619L91.7131 102.624L88.2215 96.8879L85.7276 88.6577L88.4714 81.4249L94.9552 79.1803L100.193 81.6748L102.687 87.1613L105.68 86.6623L106.677 85.4158L105.68 79.6794L105.43 72.4466L106.926 62.4709L106.868 56.7726L111.416 49.5024L119.396 43.766L133.363 37.7804L148.825 40.025L162.293 49.7515L168.528 59.7272L172.519 66.96L173.516 84.9167L170.523 100.38L165.037 114.096L159.799 121.329" fill="#F0D6B7"/>
<path fill-rule="evenodd" clip-rule="evenodd" d="M147.579 168.465L111.914 169.961V175.947L114.907 196.896L113.411 198.643L88.4714 190.162L86.7251 187.17L84.2312 158.988L78.4958 142.029L77.2484 138.039L97.1998 124.322L103.435 121.827L108.922 128.561L113.66 132.801L119.147 134.547L121.641 135.295L124.634 148.263L126.878 151.007L132.615 149.012L128.624 156.744L150.322 166.968L147.579 168.465Z" fill="#335061"/>
<path fill-rule="evenodd" clip-rule="evenodd" d="M88.4714 81.4249L94.9552 79.1803L100.193 81.6748L102.687 87.1613L105.68 86.6623L106.428 83.6695L104.932 77.9338L106.428 64.2164L105.181 56.7344L109.67 51.4971L119.396 43.766L116.653 40.025L102.936 46.7587L97.1998 51.2479L93.9577 58.2308L88.9697 64.9646L87.4733 72.9456L88.4714 81.4249Z" fill="#6D6B6D"/>
<path fill-rule="evenodd" clip-rule="evenodd" d="M98.6962 57.9817C98.6962 57.9817 102.437 48.7542 117.401 44.265C132.365 39.7758 118.149 41.0223 118.149 41.0223L101.939 47.2578L95.7034 53.4925L92.9605 58.4807L98.6962 57.9817Z" fill="#DCD9D8"/>
<path fill-rule="evenodd" clip-rule="evenodd" d="M91.2142 79.6794C91.2142 79.6794 85.9769 62.221 105.929 59.7272L105.181 56.7344L91.4641 59.9771L87.4733 72.9456L88.4714 81.4249L91.2142 79.6794Z" fill="#DCD9D8"/>
<path fill-rule="evenodd" clip-rule="evenodd" d="M99.1951 102.873L102.461 99.7093C102.461 99.7093 103.934 99.8807 104.183 101.626C104.432 103.372 105.181 119.085 115.905 127.565C116.883 128.338 107.924 126.317 107.924 126.317L99.9433 113.847" fill="#F7E4CD"/>
<path fill-rule="evenodd" clip-rule="evenodd" d="M145.086 98.1351C145.086 98.1351 145.667 90.5753 147.703 91.1567C149.739 91.738 149.739 93.7739 149.739 93.7739C149.739 93.7739 144.795 96.9724 145.086 98.1351Z" fill="#F7E4CD"/>
<path d="M165.785 70.4519C165.785 70.4519 161.674 71.3198 161.296 74.941C160.917 78.5631 165.785 75.6892 166.533 75.4401" fill="#F7E4CD"/>
<path d="M135.608 70.7018C135.608 70.7018 130.12 71.45 130.12 74.941C130.12 78.4329 136.356 78.1837 138.102 76.6873" fill="#F7E4CD"/>
<path fill-rule="evenodd" clip-rule="evenodd" d="M101.689 86.9122C101.689 86.9122 92.2114 81.1758 91.2142 86.663C90.2168 92.1495 87.9716 96.1404 92.7106 101.876L89.4686 100.879L86.4758 93.1476L85.4786 85.6657L91.2142 79.6794L97.6987 80.1784L101.44 83.1712L101.689 86.9122Z" fill="#F7E4CD"/>
<path fill-rule="evenodd" clip-rule="evenodd" d="M106.178 71.2001C106.178 71.2001 110.418 49.2532 131.867 45.0132C149.525 41.5229 158.801 45.7614 162.293 49.7515C162.293 49.7515 146.581 31.0474 131.617 36.783C116.653 42.5195 105.68 52.9942 105.929 59.7272C106.354 71.1956 106.178 71.2001 106.178 71.2001Z" fill="#F7E4CD"/>
<path fill-rule="evenodd" clip-rule="evenodd" d="M164.039 52.2453C164.039 52.2453 156.807 51.9961 156.557 58.4807C156.557 58.4807 156.557 59.4781 157.056 60.4754C157.056 60.4754 162.793 53.9908 166.284 57.4826" fill="#F7E4CD"/>
<path fill-rule="evenodd" clip-rule="evenodd" d="M132.369 61.151C132.369 61.151 131.124 51.1978 122.638 56.9843C117.152 60.7253 117.651 65.9627 118.648 66.96C119.646 67.9581 119.374 69.967 120.134 68.5881C120.893 67.2092 120.643 62.72 123.387 61.4735C126.13 60.2263 130.627 58.8331 132.369 61.151Z" fill="#F7E4CD"/>
<path fill-rule="evenodd" clip-rule="evenodd" d="M108.922 128.561L85.4786 139.036C85.4786 139.036 95.2051 177.693 90.2168 189.664L86.7251 188.418L86.4758 173.703L79.9922 145.771L77.2484 138.039L101.689 121.579L108.922 128.561Z" fill="#49728B"/>
<path fill-rule="evenodd" clip-rule="evenodd" d="M111.332 149.943L114.658 154.001V168.965H110.667C110.667 168.965 110.169 158.49 110.169 157.242C110.169 155.995 110.667 151.506 110.667 151.506" fill="#49728B"/>
<path fill-rule="evenodd" clip-rule="evenodd" d="M111.416 171.209L100.193 171.707L103.435 173.952L111.416 175.199" fill="#49728B"/>
<path fill-rule="evenodd" clip-rule="evenodd" d="M149.824 168.715L159.051 168.465L161.296 191.41L151.818 192.657L149.824 168.715Z" fill="#335061"/>
<path fill-rule="evenodd" clip-rule="evenodd" d="M152.317 168.715L166.284 167.966C166.284 167.966 172.02 153.501 172.02 152.753C172.02 152.005 177.008 131.804 177.008 131.804L165.785 120.083L163.54 118.087L157.555 124.073V147.267L152.317 168.715Z" fill="#335061"/>
<path fill-rule="evenodd" clip-rule="evenodd" d="M158.552 166.969L149.824 168.715L151.07 175.698C154.312 177.195 159.799 173.204 159.799 173.204" fill="#49728B"/>
<path fill-rule="evenodd" clip-rule="evenodd" d="M158.802 123.325L176.26 136.293L176.759 130.308L163.54 118.087L158.802 123.325Z" fill="#49728B"/>
<path fill-rule="evenodd" clip-rule="evenodd" d="M120.071 217.849L114.907 196.896L112.339 181.436L111.914 169.961L135.284 168.717L149.824 168.715L148.502 194.904L150.746 215.105L150.497 218.846L131.543 220.343L120.071 217.849Z" fill="white"/>
<path fill-rule="evenodd" clip-rule="evenodd" d="M146.581 168.465C146.581 168.465 145.334 194.403 149.075 212.858C149.075 212.858 141.593 217.597 130.619 218.844L151.569 218.096L154.063 216.599L151.07 175.698L150.322 166.968" fill="#DCD9D8"/>
<path fill-rule="evenodd" clip-rule="evenodd" d="M161.721 189.417L171.447 186.674L189.902 185.676L192.646 177.197L187.658 162.482L181.922 161.734L173.941 164.228L166.284 167.966L162.219 167.221L159.051 168.465" fill="white"/>
<path fill-rule="evenodd" clip-rule="evenodd" d="M161.545 184.427C161.545 184.427 168.029 181.435 169.027 181.684L166.284 167.966L169.526 166.72C169.526 166.72 171.77 179.688 171.77 181.185C171.77 181.185 185.736 181.933 186.983 181.933C186.983 181.933 189.976 176.197 189.228 170.211L191.972 178.192L192.221 182.681L188.231 188.667L183.742 189.664L176.26 189.415L173.766 186.173L165.037 187.42L162.293 188.418" fill="#DCD9D8"/>
<path d="M151.744 166.722L146.258 152.756L140.521 144.526C140.521 144.526 141.768 141.034 143.514 141.034C145.26 141.034 149.25 141.034 149.25 141.034L154.737 143.029L154.239 152.257L151.744 166.722Z" fill="white"/>
<path fill-rule="evenodd" clip-rule="evenodd" d="M152.816 161.981C152.816 161.981 145.833 148.514 145.833 146.519C145.833 146.519 147.079 143.526 148.825 144.274C150.572 145.022 154.313 147.017 154.313 147.017V142.279L145.833 140.532L140.097 141.281L149.824 164.226L151.818 164.475" fill="#DCD9D8"/>
<path d="M122.316 129.063L115.406 128.312L108.922 126.317V128.561L112.09 132.055L122.066 136.545" fill="white"/>
<path fill-rule="evenodd" clip-rule="evenodd" d="M111.167 129.811C111.167 129.811 118.899 133.053 121.393 132.305L121.641 135.295L114.659 133.802L110.419 130.809L111.167 129.811Z" fill="#DCD9D8"/>
<path fill-rule="evenodd" clip-rule="evenodd" d="M161.694 141.883C157.462 141.759 153.639 141.256 150.291 140.312C150.519 138.939 150.093 137.593 150.435 136.604C151.368 135.932 152.932 135.943 154.342 135.785C153.122 135.186 151.409 134.949 150.002 135.295C149.969 134.343 149.542 133.752 149.283 133.007C151.662 132.158 157.279 126.591 160.438 128.434C161.944 129.311 162.583 134.319 162.7 136.755C162.797 138.775 162.517 140.813 161.694 141.883Z" fill="#D33833"/>
<path fill-rule="evenodd" clip-rule="evenodd" d="M141.457 134.965C141.446 135.285 141.433 135.608 141.42 135.931C140.099 136.799 137.965 136.788 136.515 137.518C138.653 137.611 140.336 138.126 141.792 138.852C141.76 139.658 141.729 140.464 141.697 141.271C139.276 142.929 137.063 145.398 134.212 146.953C132.863 147.688 128.132 149.58 126.697 149.246C125.886 149.057 125.812 148.05 125.488 147.101C124.797 145.068 123.205 141.832 123.067 138.772C122.89 134.907 122.5 128.429 126.665 129.225C130.025 129.866 133.934 131.414 136.536 132.836C138.126 133.705 139.045 134.78 141.457 134.965Z" fill="#D33833"/>
<path fill-rule="evenodd" clip-rule="evenodd" d="M143.863 139.577C143.493 137.472 143.066 136.871 143.231 135.034C148.846 131.29 149.901 141.465 143.863 139.577Z" fill="#D33833"/>
<path fill-rule="evenodd" clip-rule="evenodd" d="M151.993 141.284C151.993 141.284 150.247 138.789 151.494 138.041C152.742 137.293 153.989 138.042 154.737 136.794C155.485 135.547 154.737 134.799 154.986 133.303C155.235 131.806 156.483 131.556 157.73 131.307C158.976 131.058 162.469 130.559 162.967 131.806L161.471 127.317L158.478 126.32L149.001 131.806L148.502 134.55V140.036" fill="#EF3D3A"/>
<path fill-rule="evenodd" clip-rule="evenodd" d="M125.807 149.514C125.507 145.622 125.19 141.735 124.837 137.846C124.309 132.04 126.232 133.053 131.265 133.053C132.033 133.053 135.998 133.97 136.281 134.55C137.641 137.328 134.007 136.711 137.848 138.806C141.091 140.574 146.819 137.732 145.509 133.802C144.776 132.928 141.688 133.529 140.582 132.955C138.634 131.945 136.685 130.935 134.737 129.925C132.258 128.639 126.528 126.764 123.886 128.561C117.189 133.116 124.308 144.495 126.697 149.246" fill="#EF3D3A"/>
<path fill-rule="evenodd" clip-rule="evenodd" d="M132.369 61.151C125.572 59.5679 122.194 63.9957 120.134 68.5881C118.294 68.1422 119.026 65.6402 119.491 64.3653C120.708 61.0194 125.611 56.5653 129.617 57.1691C131.341 57.4288 133.674 59.0052 132.369 61.151Z" fill="#231F20"/>
<path fill-rule="evenodd" clip-rule="evenodd" d="M165.489 68.8919C165.596 68.8964 165.705 68.9001 165.812 68.9046C167.348 72.0956 168.677 75.476 170.615 78.293C169.317 81.3164 160.785 83.992 160.917 78.5631C162.762 77.7565 165.947 78.3985 167.583 77.3682C166.637 74.7727 165.272 72.5633 165.489 68.8919Z" fill="#231F20"/>
<path fill-rule="evenodd" clip-rule="evenodd" d="M135.85 68.9749C137.307 71.6467 137.781 74.454 139.853 76.4734C140.786 77.3824 142.6 78.4905 141.701 81.0186C141.491 81.615 139.955 82.9445 139.068 83.2056C135.829 84.1618 128.282 83.4031 130.838 79.3651C133.517 79.4901 137.117 81.1047 139.119 79.1601C137.582 76.7023 134.841 71.8398 135.85 68.9749Z" fill="#231F20"/>
<path fill-rule="evenodd" clip-rule="evenodd" d="M164.273 96.1299C159.397 99.2626 153.959 102.669 145.968 101.879C144.261 100.395 143.61 97.0914 145.269 94.9096C146.132 96.3941 145.59 99.1242 147.996 99.535C152.53 100.311 157.807 96.7614 161.068 95.5209C163.091 92.1114 160.894 90.8574 159.072 88.663C155.342 84.167 150.339 78.5945 150.521 71.8637C152.029 70.7706 152.159 73.5322 152.375 74.035C154.322 78.593 159.224 84.4222 162.801 88.3233C163.679 89.284 165.126 90.2057 165.287 90.8409C165.75 92.6882 164.08 94.9014 164.273 96.1299Z" fill="#231F20"/>
<path fill-rule="evenodd" clip-rule="evenodd" d="M99.9822 92.8319C98.4536 91.9595 98.0898 88.1168 96.2952 88.0075C93.7307 87.8519 94.1983 92.9928 94.2085 95.999C92.4432 94.3964 92.1328 89.462 93.4297 86.9279C91.9517 86.2021 91.2917 87.7285 90.4719 88.2664C91.5255 80.6124 101.669 84.7162 99.9822 92.8319Z" fill="#231F20"/>
<path fill-rule="evenodd" clip-rule="evenodd" d="M167.379 99.3173C165.108 103.638 161.897 108.397 155.236 108.535C155.101 107.14 154.997 105.016 155.244 104.176C160.336 103.687 163.48 101.095 167.379 99.3173Z" fill="#231F20"/>
<path fill-rule="evenodd" clip-rule="evenodd" d="M135.465 102.119C139.714 104.353 147.522 104.593 153.297 104.424C153.606 105.689 153.599 107.252 153.611 108.795C146.188 109.165 137.412 107.328 135.465 102.119Z" fill="#231F20"/>
<path fill-rule="evenodd" clip-rule="evenodd" d="M134.658 106.284C137.596 113.661 147.693 112.812 156.209 112.608C155.834 113.566 155.021 114.697 154.011 115.106C151.283 116.217 143.756 117.059 139.968 115.047C137.566 113.77 136.022 110.884 134.706 109.193C134.07 108.376 130.905 106.289 134.658 106.284Z" fill="#231F20"/>
<path fill-rule="evenodd" clip-rule="evenodd" d="M163.919 146.973C160.471 152.878 157.172 158.943 153.082 164.152C154.797 159.109 155.531 150.67 155.79 144.237C159.377 142.558 162.449 144.615 163.919 146.973Z" fill="#81B0C4"/>
<path fill-rule="evenodd" clip-rule="evenodd" d="M182.471 168.196C178.611 168.969 175.899 172.72 172.133 172.48C174.203 169.562 177.829 168.332 182.471 168.196Z" fill="#231F20"/>
<path fill-rule="evenodd" clip-rule="evenodd" d="M184.174 174.237C181.028 174.569 177.332 175.079 174.141 174.816C175.652 172.509 181.472 173.305 184.174 174.237Z" fill="#231F20"/>
<path fill-rule="evenodd" clip-rule="evenodd" d="M185.264 179.445C181.728 179.522 177.333 179.451 173.972 179.169C175.96 177.034 182.971 178.377 185.264 179.445Z" fill="#231F20"/>
<path fill-rule="evenodd" clip-rule="evenodd" d="M157.266 193.698C157.773 198.138 159.534 202.638 159.313 207.501C157.358 208.16 156.235 208.737 153.615 208.734C153.431 204.6 152.878 198.282 153.043 194.342C154.331 194.427 156.231 193.422 157.266 193.698Z" fill="#DCD9D8"/>
<path fill-rule="evenodd" clip-rule="evenodd" d="M151.565 128.252C149.79 129.41 148.278 130.857 146.573 132.095C142.791 132.282 140.728 131.833 137.95 129.662C137.995 129.488 138.274 129.565 138.285 129.351C142.333 131.155 147.478 128.617 151.565 128.252Z" fill="#F0D6B7"/>
<path fill-rule="evenodd" clip-rule="evenodd" d="M130.316 155.843C131.428 151.024 135.786 148.528 139.743 145.875C143.828 151.058 146.312 157.724 149.047 164.157C142.584 162.209 135.98 159.048 130.316 155.843Z" fill="#81B0C4"/>
<path fill-rule="evenodd" clip-rule="evenodd" d="M153.043 194.342C152.878 198.282 153.431 204.6 153.615 208.734C156.235 208.737 157.358 208.16 159.313 207.501C159.534 202.638 157.773 198.138 157.266 193.698C156.231 193.422 154.331 194.427 153.043 194.342ZM112.256 171.934C113.983 187.813 116.485 201.162 121.073 215.223C131.257 218.315 143.534 218.584 152.536 215.794C150.883 207.858 151.605 198.196 150.639 189.727C149.911 183.362 150.282 176.957 149.284 170.462C138.377 168.193 122.96 169.932 112.256 171.934ZM151.863 170.562C151.771 177.382 152.168 184.109 152.689 190.937C155.308 190.544 157.085 190.281 159.518 189.748C158.728 183.174 158.825 175.778 157.216 169.963C155.356 169.98 153.718 169.941 151.863 170.562ZM165.147 169.463C163.905 169.178 162.458 169.452 161.27 169.475C161.828 175.034 163.183 181.168 163.659 187.004C165.527 187.062 166.526 186.181 168.062 185.884C168.145 180.762 167.615 173.705 165.147 169.463ZM185.262 187.841C189.156 186.895 191.605 182.125 190.516 177.227C189.785 173.935 188.483 167.736 187.09 165.63C186.06 164.072 183.269 162.033 181.04 163.46C177.414 165.782 171.027 166.456 168.383 169.266C169.708 173.681 170.12 179.744 170.667 185.337C175.196 185.62 180.77 184.091 184.537 185.713C181.907 186.565 178.494 186.572 176.222 187.813C178.079 188.71 182.427 188.529 185.262 187.841ZM149.047 164.157C146.312 157.724 143.828 151.058 139.743 145.875C135.786 148.528 131.428 151.024 130.316 155.843C135.98 159.048 142.584 162.209 149.047 164.157ZM155.79 144.237C155.531 150.67 154.797 159.109 153.082 164.152C157.172 158.943 160.471 152.878 163.919 146.973C162.449 144.615 159.377 142.558 155.79 144.237ZM148.146 141.521C146.597 141.354 145.281 143.302 143.266 142.46C142.805 142.97 142.385 143.523 141.914 144.021C146.365 149.384 148.387 156.993 151.824 163.296C153.669 157.242 153.456 150.609 153.862 144.001C151.328 144.162 149.922 141.709 148.146 141.521ZM143.863 139.577C143.493 137.472 143.066 136.871 143.231 135.034C148.846 131.29 149.901 141.465 143.863 139.577ZM136.536 132.836C133.934 131.414 130.025 129.866 126.665 129.225C122.5 128.428 122.89 134.907 123.067 138.772C123.205 141.832 124.797 145.068 125.488 147.101C125.812 148.05 125.886 149.057 126.697 149.246C128.132 149.58 132.863 147.688 134.212 146.953C137.063 145.398 139.276 142.929 141.697 141.271C141.729 140.464 141.76 139.658 141.792 138.852C140.336 138.126 138.653 137.611 136.515 137.518C137.965 136.788 140.099 136.799 141.42 135.931C141.433 135.608 141.446 135.285 141.457 134.965C139.045 134.78 138.126 133.705 136.536 132.836ZM111.685 128.322C109.526 130.514 117.742 133.502 120.357 133.663C120.343 132.276 121.148 130.968 120.986 129.973C117.879 129.428 113.796 129.788 111.685 128.322ZM138.285 129.351C138.274 129.565 137.995 129.488 137.95 129.662C140.728 131.833 142.791 132.282 146.573 132.095C148.278 130.857 149.79 129.41 151.565 128.252C147.478 128.617 142.333 131.155 138.285 129.351ZM162.7 136.755C162.583 134.319 161.944 129.311 160.438 128.434C157.279 126.59 151.662 132.158 149.283 133.007C149.542 133.752 149.969 134.343 150.002 135.295C151.409 134.949 153.122 135.186 154.342 135.785C152.932 135.943 151.368 135.932 150.435 136.604C150.093 137.593 150.519 138.939 150.291 140.312C153.639 141.256 157.462 141.759 161.694 141.883C162.517 140.813 162.797 138.775 162.7 136.755ZM108.05 130.442C107.372 129.959 102.785 123.991 102.157 124.238C93.8564 127.512 86.0952 133.172 79.1598 138.525C85.7723 152.714 88.4416 170.097 88.9132 186.852C96.4881 190.395 103.142 195.502 113.42 196.036C112.231 187.62 111.145 180.112 110.47 172.189C107.887 171.1 104.182 172.238 101.765 171.851C101.745 168.938 105.456 170.576 105.765 168.617C105.998 167.135 103.723 167.023 104.464 164.69C106.354 165.377 107.346 166.894 109.361 167.464C111.202 163.436 109.335 156.308 109.601 152.941C109.651 152.309 109.916 149.439 111.332 149.943C112.585 150.388 111.261 157.576 111.398 160.762C111.523 163.698 111.043 166.539 112.232 168.382C122.165 167.03 132.258 166.156 143.005 165.861C140.641 164.847 137.832 163.886 134.753 162.151C133.083 161.21 127.821 159.251 127.34 157.666C126.571 155.139 129.356 153.793 129.833 151.627C124.819 154.362 123.841 149.006 122.655 145.212C121.58 141.776 120.968 139.209 120.705 137.227C116.385 135.168 111.768 133.083 108.05 130.442ZM158.313 124.96C165.229 121.607 166.475 137.493 163.765 142.611C164.184 144.137 165.625 144.722 166.213 146.094C162.354 153.007 158.067 159.46 154.129 166.292C157.059 164.469 161.243 165.966 164.689 164.601C165.949 164.103 166.862 161.218 167.815 158.911C170.439 152.563 173.194 144.559 174.42 138.501C174.697 137.121 175.451 134.113 175.282 132.884C174.98 130.685 171.996 129.054 170.478 127.693C167.681 125.181 165.92 122.97 163.002 120.621C161.819 122.367 159.281 123.54 158.313 124.96ZM92.2343 63.6321C88.939 67.2578 89.6287 74.0514 90.0277 78.8848C95.984 75.1378 103.89 79.1811 103.815 85.5542C106.659 85.4786 104.878 82.0025 104.363 79.7632C102.682 72.4488 107.195 64.5022 104.568 57.8133C99.4663 58.2002 95.2752 60.2839 92.2343 63.6321ZM115.813 42.5883C108.353 44.7027 98.7918 50.1234 95.7262 56.825C98.1 56.4801 99.7478 55.2829 102.089 55.1348C102.974 55.0772 104.134 55.5059 105.151 55.253C107.178 54.7502 108.888 50.2057 110.417 48.5148C111.908 46.8635 113.7 46.1579 114.926 44.6526C115.713 44.2725 116.878 44.2987 116.923 43.1158C116.581 42.7507 116.222 42.4723 115.813 42.5883ZM154.646 44.577C146.903 40.2083 133.797 36.9222 125.561 41.0283C118.914 44.3421 109.931 49.8249 106.868 56.7726C109.729 63.4772 106.02 69.6206 105.784 76.4277C105.658 80.0497 107.489 83.2116 107.629 87.1546C106.65 88.77 103.659 88.969 101.588 88.8582C100.891 85.3701 99.6709 81.4496 96.079 81.0561C90.9965 80.5001 87.2804 84.7065 87.0495 89.1022C86.7762 94.2714 91.0199 102.839 97.0347 102.244C99.3582 102.015 99.929 99.6854 102.461 99.7093C103.833 102.447 100.344 103.307 99.9851 105.265C99.8916 105.77 100.274 107.747 100.497 108.674C101.59 113.188 104.025 119.03 106.422 122.466C109.465 126.825 115.442 127.482 121.873 127.91C123.021 125.435 127.252 125.639 130.009 126.286C126.705 124.977 123.634 121.805 121.088 118.997C118.164 115.775 115.202 112.319 115.052 108.109C120.578 115.775 125.143 122.469 135.191 125.842C142.794 128.391 151.674 124.673 157.516 120.571C159.94 118.865 161.387 116.16 163.11 113.683C169.557 104.409 172.566 91.1724 171.904 78.3423C171.632 73.0511 171.644 67.7778 169.868 64.2179C168.013 60.4956 161.737 57.1654 158.063 60.5323C157.383 56.9125 161.118 54.6739 165.507 55.9765C162.378 51.9385 159.094 47.0865 154.646 44.577ZM169.072 163.965C175.123 160.957 186.428 155.868 190.222 163.976C191.622 166.964 193.264 172.016 193.989 175.101C195.013 179.453 192.879 188.6 188.405 190.061C184.454 191.351 179.843 191.272 175.084 190.316C174.524 189.85 173.9 189.037 173.464 188.19C170.065 188.058 166.883 188.373 164.199 189.77C164.453 192.283 162.753 192.686 161.159 193.204C159.978 197.888 163.523 204.006 162.675 208.277C162.069 211.32 158.325 211.791 155.573 212.36C155.484 214.051 155.694 215.463 155.882 216.893C155.252 219.212 152.43 220.532 149.756 220.855C140.958 221.913 127.6 222.388 119.137 219.345C116.776 213.553 114.915 206.508 112.948 199.893C104.695 200.775 98.0196 196.332 91.7266 193.422C89.5478 192.411 86.5337 191.855 85.7197 190.121C84.9306 188.442 85.2535 185.224 85.0577 182.184C84.5594 174.42 84.1327 166.931 82.0824 158.981C81.1619 155.414 79.5573 152.266 78.4379 148.829C77.4033 145.643 75.5957 141.706 75.1242 138.529C74.4252 133.821 78.8588 133.559 81.6938 131.519C86.0762 128.364 89.5162 126.619 94.2625 123.771C95.6683 122.928 99.9077 120.793 100.39 119.81C101.348 117.861 98.7445 115.113 98.0483 113.585C96.947 111.169 96.3727 109.117 96.2149 106.733C92.2334 106.104 89.2151 103.735 87.392 101.063C84.3762 96.641 82.2847 88.4602 84.894 82.2374C85.0986 81.7474 86.1192 80.7837 86.2697 80.031C86.5667 78.5488 85.7109 76.5781 85.6577 75.0016C85.3836 66.9136 87.0261 59.9449 92.471 57.5058C94.6814 48.7003 102.593 45.7726 110.046 41.3964C112.832 39.7609 115.904 38.7156 119.076 37.5485C130.455 33.3608 147.913 34.1494 157.356 41.2917C161.361 44.3204 167.762 50.7152 170.051 55.345C176.098 67.5683 175.668 87.9963 171.439 102.865C170.87 104.861 170.046 107.796 168.894 110.194C168.092 111.868 165.596 115.219 165.899 116.697C166.211 118.226 171.589 122.309 172.742 123.42C174.818 125.423 178.762 128.082 179.082 130.609C179.425 133.299 177.897 136.978 177.122 139.574C174.533 148.236 172.008 156.242 169.072 163.965Z" fill="#231F20"/>
<path fill-rule="evenodd" clip-rule="evenodd" d="M128.705 104.005C129.033 103.569 130.838 102.905 133.363 104.121C133.363 104.121 130.37 104.62 130.619 109.609L129.372 109.36C129.372 109.36 128.083 104.835 128.705 104.005Z" fill="#F7E4CD"/>
<path fill-rule="evenodd" clip-rule="evenodd" d="M150.572 146.893C150.572 147.65 149.958 148.264 149.2 148.264C148.442 148.264 147.828 147.65 147.828 146.893C147.828 146.136 148.442 145.521 149.2 145.521C149.958 145.521 150.572 146.136 150.572 146.893Z" fill="#1D1919"/>
<path fill-rule="evenodd" clip-rule="evenodd" d="M151.943 153.252C151.943 154.01 151.329 154.624 150.571 154.624C149.814 154.624 149.2 154.01 149.2 153.252C149.2 152.495 149.814 151.88 150.571 151.88C151.329 151.88 151.943 152.495 151.943 153.252Z" fill="#1D1919"/>
</svg>