<svg width="256" height="256" title="Jest" viewBox="0 0 256 256" fill="none" xmlns="http://www.w3.org/2000/svg">
<rect width="256" height="256" rx="40" fill="#C21325"/>
<path d="M193.766 126.833C193.758 122.417 192.288 118.128 189.587 114.634C186.885 111.141 183.102 108.64 178.83 107.522L198 51H103.003L122.224 107.702C118.075 108.911 114.429 111.433 111.833 114.889C109.238 118.346 107.832 122.55 107.827 126.872C107.827 133.564 111.164 139.492 116.251 143.142C114.205 146.028 111.875 148.701 109.297 151.123C104.554 155.64 99.0043 159.225 92.9366 161.69C87.5859 158.078 85.2699 151.707 87.3614 145.997C91.9131 144.583 95.8083 141.587 98.3422 137.55C100.876 133.513 101.881 128.703 101.176 123.989C100.47 119.275 98.1007 114.97 94.4959 111.852C90.8912 108.734 86.2893 107.009 81.5231 106.99C76.2283 106.997 71.1523 109.103 67.4082 112.847C63.6642 116.591 61.5579 121.667 61.5511 126.962C61.5511 132.402 63.7773 137.394 67.3444 140.961C67.0365 141.583 66.7221 142.212 66.4077 142.879C63.4244 149.032 60.037 155.986 58.741 163.788C56.1555 179.391 60.3898 191.914 70.6036 199.004C76.1316 202.902 82.7333 204.989 89.4978 204.977C101.219 204.977 113.12 199.093 124.624 193.383C132.829 189.329 141.298 185.094 149.632 183.041C152.712 182.284 155.919 181.842 159.307 181.348C166.172 180.366 173.261 179.346 179.632 175.638C183.27 173.553 186.408 170.697 188.827 167.272C191.245 163.846 192.885 159.933 193.631 155.807C194.747 149.43 193.631 143.014 190.782 137.394C192.694 134.314 193.766 130.715 193.766 126.833ZM185.072 126.833C185.072 133.025 180.036 138.061 173.845 138.061C171.513 138.054 169.242 137.324 167.344 135.969C165.446 134.615 164.016 132.705 163.251 130.502C162.487 128.3 162.426 125.914 163.077 123.675C163.727 121.436 165.058 119.455 166.884 118.005L166.929 117.961C167.288 117.691 167.686 117.422 168.084 117.159C168.084 117.159 168.135 117.159 168.135 117.114C168.315 117.024 168.488 116.889 168.667 116.793C168.712 116.793 168.757 116.754 168.802 116.754C168.982 116.665 169.206 116.575 169.425 116.485C169.649 116.395 169.874 116.312 170.053 116.222C170.098 116.222 170.137 116.177 170.182 116.177C170.361 116.132 170.541 116.042 170.72 115.997C170.765 115.997 170.849 115.952 170.9 115.952C171.118 115.908 171.298 115.863 171.522 115.824H171.567L172.235 115.683C172.279 115.683 172.363 115.683 172.414 115.638C172.594 115.638 172.767 115.593 172.947 115.593H173.171C173.396 115.593 173.62 115.548 173.883 115.548H174.461C174.64 115.548 174.782 115.548 174.955 115.593H175.045C175.398 115.638 175.757 115.683 176.116 115.773C178.647 116.315 180.916 117.708 182.546 119.719C184.175 121.73 185.067 124.245 185.072 126.833ZM115.443 59.9178H185.566L169.469 107.394C168.802 107.522 168.135 107.747 167.468 107.971L150.53 73.4228L133.542 107.747C132.874 107.529 132.156 107.394 131.444 107.259L115.443 59.9178ZM147.316 122.952C146.496 118.837 144.388 115.089 141.298 112.251L150.524 93.6194L159.839 112.655C157.081 115.414 155.073 118.942 154.271 122.952H147.316ZM124.983 115.908C125.201 115.863 125.381 115.818 125.605 115.779H125.734C125.92 115.728 126.093 115.728 126.273 115.683H126.452C126.632 115.683 126.767 115.638 126.94 115.638H128.678C128.858 115.638 128.993 115.683 129.128 115.683C129.217 115.683 129.256 115.683 129.352 115.728C129.525 115.773 129.66 115.773 129.84 115.818C129.885 115.818 129.93 115.818 130.019 115.863L130.642 115.991H130.687C130.866 116.042 131.046 116.087 131.219 116.177C131.264 116.177 131.309 116.222 131.399 116.222C131.533 116.267 131.713 116.312 131.848 116.395C131.893 116.395 131.938 116.44 131.976 116.44C132.156 116.53 132.335 116.575 132.515 116.665H132.56C132.766 116.742 132.96 116.848 133.137 116.979H133.182C133.362 117.069 133.542 117.197 133.721 117.287C133.766 117.287 133.766 117.332 133.805 117.332C133.984 117.422 134.125 117.556 134.299 117.646L134.344 117.691C134.876 118.089 135.37 118.538 135.858 118.981L135.903 119.026C137.889 121.118 138.992 123.897 138.982 126.782C138.884 129.696 137.657 132.457 135.561 134.484C133.465 136.51 130.664 137.643 127.748 137.643C124.833 137.643 122.031 136.51 119.935 134.484C117.839 132.457 116.613 129.696 116.514 126.782C116.507 124.284 117.338 121.855 118.873 119.884C120.408 117.913 122.559 116.513 124.983 115.908ZM81.1125 115.593C87.3101 115.593 92.3464 120.636 92.3464 126.827C92.3464 133.018 87.3101 138.061 81.1189 138.061C74.9278 138.061 69.8786 133.025 69.8786 126.833C69.8786 120.642 74.9214 115.593 81.1125 115.593ZM184.809 154.248C184.302 157.1 183.172 159.805 181.5 162.17C179.828 164.536 177.654 166.503 175.134 167.932C170.271 170.742 164.298 171.634 158.011 172.526C154.476 172.979 150.964 173.602 147.489 174.393C138.219 176.671 129.307 181.13 120.659 185.409C109.598 190.888 99.1663 196.059 89.4978 196.059C84.5399 196.09 79.7005 194.544 75.6784 191.645C65.8688 184.87 66.3564 172.167 67.5177 165.212C68.5891 158.7 71.5724 152.599 74.4274 146.754C74.607 146.401 74.7417 146.087 74.9214 145.728C75.8965 146.087 76.9231 146.356 77.9945 146.536C76.3007 155.986 81.1125 165.745 90.4794 170.563L92.1732 171.455L93.9952 170.787C101.797 168.022 109.021 163.518 115.398 157.501C118.92 154.217 122.032 150.52 124.669 146.491C125.695 146.664 126.722 146.709 127.748 146.709C132.161 146.699 136.447 145.229 139.938 142.529C143.429 139.828 145.928 136.049 147.047 131.78H154.534C155.645 136.056 158.144 139.841 161.639 142.543C165.134 145.245 169.427 146.711 173.845 146.709C177.54 146.709 180.966 145.683 183.918 143.951C185.072 147.287 185.432 150.77 184.809 154.248Z" fill="white"/>
</svg>