<svg width="256" height="256" viewBox="0 0 256 256" fill="none" xmlns="http://www.w3.org/2000/svg">
<rect width="256" height="256" rx="25" fill="white"/>
<path d="M60.8308 98.5144H73.6162V141.457C73.7103 145.079 72.8003 148.655 70.9881 151.784C69.2261 154.696 66.6787 157.043 63.6428 158.552C60.2484 160.206 56.5128 161.024 52.7431 160.94C49.3024 160.989 45.8895 160.313 42.7237 158.956C39.8196 157.702 37.3502 155.609 35.628 152.942C33.876 150.256 33 146.869 33 142.78H45.8708C45.9102 145.221 46.6132 147.127 47.9798 148.476C49.4359 149.869 51.3938 150.603 53.4001 150.507C58.3145 150.507 60.7914 147.491 60.8308 141.457V98.5144ZM101.986 161C97.3472 161 93.3417 160.003 89.9691 158.01C86.6169 156.041 83.9034 153.137 82.1572 149.647C80.2583 145.776 79.3162 141.5 79.411 137.183C79.3126 132.847 80.2547 128.551 82.1572 124.66C83.9053 121.172 86.6183 118.267 89.9691 116.297C93.6343 114.23 97.7859 113.197 101.986 113.307C106.188 113.197 110.341 114.23 114.009 116.297C117.358 118.268 120.069 121.172 121.814 124.66C123.719 128.551 124.663 132.847 124.567 137.183C124.66 141.501 123.715 145.777 121.814 149.647C120.071 153.137 117.359 156.041 114.009 158.01C110.632 160.008 106.624 161.004 101.986 161ZM116.532 98.5144V105.461H87.4462V98.5144H116.532ZM102.078 151.076C104.939 151.195 107.633 149.742 109.123 147.292L109.232 147.107C110.853 144.461 111.663 141.124 111.663 137.097C111.663 133.205 110.9 129.951 109.373 127.336L109.213 127.068C107.748 124.507 104.991 122.977 102.058 123.098C99.1752 122.975 96.4569 124.428 94.9398 126.886L94.8309 127.068C93.1971 129.714 92.3803 133.057 92.3803 137.097C92.3803 141.003 93.1436 144.251 94.6703 146.841L94.8309 147.107C96.2868 149.607 98.9622 151.121 101.829 151.082L102.078 151.076ZM155.4 113.909V123.535H146.767V145.936C146.767 147.7 147.166 148.891 147.963 149.508C148.808 150.123 149.824 150.45 150.863 150.446L151.071 150.441C151.67 150.442 152.268 150.387 152.858 150.276L154.231 150.024L156.202 159.558L155.712 159.701C155.127 159.868 154.404 160.055 153.515 160.259C152.284 160.525 151.033 160.686 149.775 160.74L149.303 160.755C144.682 160.962 140.975 159.957 138.18 157.738C135.449 155.57 134.072 152.29 134.047 147.898L134.048 123.535H127.773V113.909H134.048V102.841H146.767V113.909H155.4ZM174.913 160.973C170.533 160.973 166.9 159.82 164.014 157.513C161.127 155.207 159.684 151.769 159.684 147.2C159.684 143.755 160.49 141.049 162.102 139.082C163.775 137.073 165.973 135.576 168.449 134.762C171.179 133.828 174.012 133.229 176.884 132.976C179.756 132.746 182.61 132.324 185.426 131.712C187.143 131.271 187.999 130.31 187.994 128.828V128.642C188.091 126.976 187.44 125.354 186.221 124.223C185.029 123.187 183.352 122.666 181.188 122.662C179.253 122.56 177.337 123.087 175.722 124.164C174.422 125.092 173.475 126.438 173.034 127.981L161.267 127.022C162.052 122.95 164.395 119.352 167.792 117.005C171.269 114.544 175.754 113.312 181.247 113.307C184.501 113.281 187.735 113.832 190.8 114.935C193.621 115.911 196.111 117.667 197.988 120.002C199.81 122.3 200.721 125.282 200.721 128.947V160.1H188.658V153.696H188.303C187.149 155.878 185.416 157.694 183.297 158.942C181.076 160.296 178.282 160.973 174.913 160.973ZM178.553 152.128C181.071 152.227 183.53 151.351 185.426 149.68C187.11 148.201 188.085 146.07 188.113 143.826L188.113 138.692C187.397 139.119 186.615 139.423 185.8 139.591C184.749 139.849 183.639 140.074 182.449 140.253L181.305 140.43C180.572 140.546 179.896 140.657 179.269 140.749C177.353 140.959 175.51 141.609 173.882 142.648C172.531 143.563 171.755 145.125 171.839 146.763C171.757 148.324 172.47 149.82 173.731 150.732C175.077 151.644 176.66 152.13 178.278 152.132L178.553 152.128ZM216.327 107.955L216.101 107.955C214.3 107.985 212.56 107.298 211.259 106.043C209.955 104.883 209.214 103.211 209.229 101.458C209.214 99.71 209.955 98.0416 211.259 96.8869C214.014 94.371 218.215 94.371 220.97 96.8869C222.273 98.0416 223.014 99.71 223 101.458C223.014 103.141 222.332 104.749 221.123 105.901L220.97 106.043C219.715 107.249 218.056 107.931 216.327 107.955ZM209.735 160.1V113.909H222.454V160.1H209.735Z" fill="black"/>
</svg>