<svg width="256" height="256" title="jQuery" viewBox="0 0 256 256" fill="none" xmlns="http://www.w3.org/2000/svg">
<rect width="256" height="256" rx="40" fill="url(#linearGradient)"/>
<path d="M83.0727 73.8131C73.9232 87.2055 75.0628 104.628 82.0336 118.842L82.5462 119.854L82.8925 120.496C82.9567 120.62 83.0311 120.743 83.0969 120.864C83.2182 121.089 83.3394 121.305 83.4433 121.527L84.11 122.693L84.4911 123.334L85.2652 124.567L85.6116 125.087C85.958 125.641 86.3493 126.192 86.7339 126.735C86.7425 126.749 86.7546 126.764 86.765 126.778C86.8256 126.865 86.8932 126.951 86.9382 127.038C87.2707 127.506 87.6309 127.966 87.9773 128.424L88.3617 128.922L89.3056 130.104L89.6659 130.544C90.0952 131.062 90.5339 131.573 90.9821 132.075L91.0097 132.102C91.0271 132.124 91.0444 132.137 91.0617 132.159C91.4959 132.649 91.9417 133.129 92.3988 133.597L92.8282 134.037L93.8968 135.104L94.3332 135.526C94.8134 135.986 95.3013 136.438 95.7966 136.882L96.0737 137.124L97.4021 138.268L97.9528 138.715L99.0612 139.581L99.6535 140.04L101.347 141.278C101.391 141.307 101.429 141.338 101.472 141.367C101.87 141.645 102.274 141.913 102.679 142.182L103.202 142.536L105.093 143.715L105.616 144.014L107.037 144.824C107.296 144.966 107.562 145.102 107.821 145.237L108.836 145.756L109.486 146.075L111.095 146.834L111.437 147.007C112.058 147.283 112.684 147.547 113.315 147.801L113.772 147.985L115.543 148.653L115.765 148.733C116.419 148.964 117.078 149.184 117.739 149.392L118.216 149.537C118.908 149.745 119.558 149.993 120.254 150.126C164.499 158.363 177.355 123.064 177.355 123.064C166.561 137.386 147.4 141.161 129.248 136.958C128.56 136.785 127.893 136.583 127.221 136.38L126.715 136.207C126.061 136.003 125.41 135.786 124.766 135.561L124.497 135.462C123.921 135.254 123.347 135.038 122.777 134.813L122.293 134.618C121.669 134.368 121.049 134.106 120.436 133.832L120.065 133.666L118.5 132.922L118.05 132.7C117.643 132.495 117.239 132.286 116.837 132.071L116.029 131.638C115.539 131.37 115.055 131.094 114.577 130.809L114.087 130.531C113.449 130.151 112.819 129.752 112.196 129.354C112.023 129.241 111.856 129.122 111.685 129.007L110.339 128.097L109.906 127.785L108.634 126.85L108.068 126.416L106.92 125.502L106.408 125.087L104.979 123.875C104.93 123.831 104.875 123.788 104.806 123.741C104.297 123.285 103.796 122.818 103.303 122.348L102.88 121.933L101.799 120.856L101.377 120.422C100.927 119.955 100.485 119.479 100.052 118.996C100.031 118.971 100.007 118.949 99.986 118.926C99.5283 118.416 99.0802 117.895 98.6421 117.367L98.2905 116.941L97.3207 115.724L96.9656 115.274L95.8486 113.758C85.7691 99.7563 82.1669 80.4461 90.2027 64.5857L83.0727 73.8131ZM111.475 62.5283C104.86 72.2267 105.218 85.2053 110.379 95.4614C111.242 97.1834 112.22 98.8458 113.305 100.437C114.297 101.883 115.396 103.607 116.712 104.766C117.188 105.286 117.687 105.805 118.196 106.336C118.325 106.469 118.457 106.595 118.588 106.729C119.082 107.219 119.588 107.698 120.105 108.165C120.126 108.182 120.145 108.202 120.167 108.22C120.75 108.737 121.345 109.24 121.953 109.727L122.355 110.045C122.96 110.521 123.578 110.98 124.208 111.424C124.224 111.438 124.242 111.451 124.26 111.464C124.537 111.659 124.823 111.844 125.105 112.031C125.24 112.122 125.368 112.217 125.503 112.302C125.955 112.598 126.413 112.883 126.877 113.159L127.071 113.274L128.283 113.966C128.425 114.048 128.57 114.119 128.716 114.195L129.581 114.642C129.625 114.665 129.669 114.681 129.71 114.702C130.293 114.996 130.881 115.274 131.482 115.542C131.61 115.599 131.741 115.651 131.873 115.706C132.353 115.914 132.838 116.116 133.328 116.307L133.951 116.54C134.394 116.704 134.838 116.862 135.285 117.013L135.887 117.208C136.523 117.411 137.151 117.663 137.815 117.776C171.976 123.54 179.865 96.7516 179.865 96.7516C172.755 107.177 158.989 112.155 144.295 108.272C143.646 108.099 143.001 107.908 142.361 107.7C142.165 107.64 141.974 107.576 141.779 107.527C141.326 107.378 140.875 107.219 140.427 107.052L139.815 106.821C139.325 106.648 138.84 106.431 138.361 106.223C138.229 106.166 138.097 106.114 137.968 106.054C137.365 105.79 136.77 105.509 136.184 105.21C135.882 105.06 135.586 104.902 135.29 104.745L134.774 104.476C134.393 104.266 134.016 104.05 133.643 103.826L133.373 103.653C132.912 103.377 132.456 103.093 132.005 102.801C131.866 102.71 131.731 102.628 131.593 102.521L130.706 101.923C130.079 101.479 129.464 101.021 128.859 100.548L128.444 100.215C122.013 95.0439 116.915 87.978 114.492 79.9647C111.951 71.6518 112.5 62.3257 116.916 54.7557L111.475 62.5283ZM135.357 54.0976C131.457 59.9444 131.075 67.2044 133.799 73.6607C136.653 80.5137 142.501 85.8911 149.326 88.4387C149.608 88.546 149.89 88.6413 150.192 88.7383L150.567 88.8595C150.968 88.9876 151.369 89.1366 151.783 89.2162C170.646 92.9276 175.762 79.3585 177.123 77.3617C172.641 83.9341 165.109 85.5118 155.868 83.2275C155.141 83.0456 154.335 82.7772 153.616 82.5244C152.712 82.1971 151.826 81.822 150.962 81.4003C149.317 80.5939 147.758 79.6244 146.306 78.5064C138.019 72.1158 132.881 59.9271 138.277 50" fill="white"/>
<path d="M131.253 167.836H125.399C125.074 167.836 124.751 168.096 124.682 168.414L120.525 187.65C120.457 187.967 120.134 188.226 119.811 188.226H115.667C111.566 188.226 112.04 185.392 112.895 181.507L112.922 181.389L113.418 178.74L113.633 177.649L115.525 168.414C115.59 168.096 115.377 167.834 115.052 167.834H109.042C108.876 167.839 108.717 167.899 108.588 168.003C108.459 168.108 108.368 168.252 108.328 168.412L105.621 181.252C104.132 188.048 104.527 194.529 112.618 194.732L112.852 194.736H125.55C125.875 194.736 126.196 194.477 126.266 194.158L131.738 168.416C131.808 168.098 131.597 167.834 131.274 167.834L131.253 167.836ZM154.61 188.294C154.936 188.294 155.13 188.554 155.083 188.872L154.515 191.652L154.61 188.294Z" fill="white"/>
<path d="M138.949 184.716C138.944 184.411 139.291 183.888 139.616 183.888L138.885 183.876C138.539 187.191 138.949 184.716 138.949 184.716ZM154.61 188.294C154.936 188.294 155.13 188.554 155.083 188.872L154.422 192.104L154.61 188.294Z" fill="white"/>
<path d="M57.6489 184.785L58.5582 180.754L57.5191 185.36L57.3979 185.939L57.6489 184.785ZM68.5355 167.77H62.1051C61.9389 167.776 61.7791 167.836 61.6492 167.94C61.5193 168.044 61.4259 168.186 61.3829 168.347L60.1636 173.715C60.1431 173.785 60.1397 173.858 60.1537 173.93C60.1676 174 60.1985 174.067 60.2437 174.124C60.2889 174.181 60.3472 174.225 60.4134 174.255C60.4797 174.284 60.552 174.297 60.6243 174.292H67.105C67.4305 174.292 67.7526 174.032 67.8219 173.715L68.9996 168.334C69.0688 168.018 68.861 167.758 68.532 167.758L68.5355 167.77ZM48.4562 205.633L53.7592 205.675C52.1936 205.675 49.6097 205.647 48.4562 205.633Z" fill="white"/>
<path d="M66.6719 176.143H60.1896C60.0235 176.15 59.8638 176.209 59.7337 176.314C59.6038 176.417 59.5105 176.559 59.4674 176.72L57.6489 184.785L57.3979 185.939L55.6643 194.172C55.5784 194.556 55.4744 194.936 55.3525 195.31C55.3525 195.31 54.1402 198.913 52.107 198.872L50.0893 198.835C49.9239 198.839 49.7642 198.896 49.6334 198.998C49.5026 199.099 49.4076 199.24 49.362 199.399L48.0198 205.049C47.9986 205.119 47.9944 205.192 48.0074 205.263C48.0204 205.334 48.0504 205.401 48.0947 205.458C48.139 205.515 48.1964 205.561 48.2621 205.591C48.3277 205.621 48.3996 205.635 48.4718 205.632L53.7765 205.675C58.8612 205.675 61.5405 202.857 63.2601 194.752L67.1568 176.741C67.2261 176.424 67.0148 176.164 66.6893 176.164L66.6719 176.143ZM158.741 194.74C158.415 194.74 158.221 194.481 158.273 194.162L163.149 171.326L158.741 194.74Z" fill="white"/>
<path d="M158.344 194.451C158.305 194.292 158.327 193.902 158.396 193.585L160.71 182.744L158.273 194.162C158.204 194.481 158.415 194.74 158.741 194.74L159.332 194.74C159.006 194.74 158.382 194.61 158.344 194.451ZM165.133 194.61C164.956 194.68 164.544 194.74 164.219 194.74H164.811C164.977 194.734 165.135 194.673 165.263 194.569C165.392 194.464 165.477 194.32 165.516 194.16L165.639 193.582C165.575 193.9 165.293 194.539 165.12 194.61H165.133ZM185.739 172.855L186.007 173.963C186.082 174.28 185.876 174.538 185.552 174.54" fill="white"/>
<path d="M167.373 184.985L167.612 183.835L168.542 179.479L167.491 184.413L167.373 184.985ZM163.228 170.95L160.71 182.744L163.149 171.326L163.228 170.95Z" fill="white"/>
<path d="M186.007 173.963L185.739 172.855L185.343 171.123C184.816 169.079 183.271 167.896 179.915 167.896L164.466 167.886C164.3 167.892 164.142 167.951 164.013 168.056C163.884 168.16 163.793 168.304 163.753 168.464L163.514 169.596L163.168 171.304L158.415 193.564C158.346 193.883 158.324 194.257 158.363 194.43C158.404 194.603 159.027 194.72 159.351 194.72H164.234C164.56 194.72 164.97 194.66 165.149 194.59C165.328 194.518 165.589 193.897 165.668 193.561L167.522 184.392L169.505 175.102C169.573 174.785 169.894 174.528 170.218 174.526L185.585 174.519C185.909 174.519 186.115 174.259 186.04 173.942L186.007 173.963ZM205.792 163.931L204.609 163.935H199.691C199.51 163.946 199.335 163.996 199.175 164.08C199.016 164.164 198.876 164.282 198.766 164.424L187.89 180.357C187.707 180.625 187.497 180.586 187.423 180.271L186.622 176.76C186.579 176.599 186.486 176.456 186.356 176.353C186.226 176.249 186.067 176.19 185.9 176.183H178.909C178.583 176.183 178.389 176.438 178.479 176.752L181.596 187.728C181.686 188.04 181.692 188.554 181.614 188.871L180.228 194.183C180.204 194.251 180.198 194.323 180.21 194.395C180.222 194.466 180.251 194.533 180.295 194.59C180.339 194.647 180.397 194.691 180.463 194.721C180.529 194.75 180.601 194.762 180.674 194.756H187.6C187.927 194.756 188.259 194.496 188.339 194.184L189.724 188.872C189.832 188.499 190.003 188.145 190.226 187.827L207.901 164.39C208.097 164.129 207.992 163.919 207.666 163.921L205.813 163.934L205.792 163.931ZM150.241 177.676C150.2 178.022 149.874 178.283 149.548 178.283H140.681C140.375 178.283 140.219 178.075 140.266 177.814L140.272 177.768L140.312 177.617C141.178 175.366 142.884 173.888 146.124 173.888C149.773 173.888 150.488 175.672 150.241 177.676ZM147.64 167.444C136.262 167.444 133.565 174.351 132.053 181.322C130.54 188.427 130.671 195.071 142.445 195.071L144.311 195.073L145.748 195.067L153.241 195.022C153.405 195.015 153.562 194.954 153.689 194.85C153.817 194.745 153.907 194.603 153.945 194.442L155.083 188.88C155.149 188.561 154.936 188.301 154.61 188.301H144.025C139.817 188.301 138.565 187.182 139.025 183.894H155.946C156.223 183.888 156.474 183.72 156.573 183.457C156.59 183.411 156.608 183.36 156.614 183.31C159.126 173.837 158.405 167.452 147.643 167.452L147.64 167.444ZM93.8586 177.638L93.6993 178.209C93.6993 178.211 92.4212 182.735 92.4212 182.735L91.1431 187.262C91.09 187.422 90.9897 187.561 90.8555 187.663C90.7213 187.764 90.5595 187.822 90.3915 187.83H83.6268C78.4971 187.83 77.2483 183.818 78.4971 177.9C79.744 171.847 82.1945 168.083 87.2429 167.703C94.1426 167.183 95.5212 172.037 93.8586 177.638ZM98.4966 187.483C98.4966 187.483 101.683 179.742 102.41 175.269C103.397 169.281 100.402 160.6 88.8242 160.6C77.3125 160.6 72.3143 168.888 70.4075 177.919C68.5025 186.993 70.9998 194.953 82.4439 194.891L99.9114 194.827C100.079 194.819 100.24 194.759 100.372 194.657C100.505 194.553 100.602 194.412 100.651 194.252L102.123 188.644C102.147 188.576 102.153 188.503 102.142 188.433C102.131 188.361 102.102 188.294 102.058 188.237C102.014 188.18 101.957 188.135 101.891 188.106C101.825 188.076 101.753 188.063 101.681 188.069L98.8637 188.051C98.5866 188.05 98.4307 187.872 98.462 187.636C98.4688 187.592 98.4793 187.549 98.4966 187.504V187.483Z" fill="white"/>
<path d="M155.482 182.304C155.482 182.518 155.308 182.691 155.094 182.691C154.879 182.691 154.706 182.518 154.706 182.304C154.706 182.089 154.879 181.915 155.094 181.915C155.308 181.915 155.482 182.089 155.482 182.304Z" fill="white"/>
<linearGradient id="linearGradient" x1="0" y1="0" x2="256" y2="256" gradientUnits="userSpaceOnUse">
<stop stop-color="#FF5C00"/>
<stop offset="1" stop-color="#FF0F00"/>
</linearGradient>
</svg>