<svg width="256" height="256" title="Jujutsu" viewBox="0 0 256 256" fill="none" xmlns="http://www.w3.org/2000/svg">
<rect width="256" height="256" rx="40" fill="#A7BCD9"/>
<path d="M151.043 144.036C151.043 144.036 153.553 153.889 159.871 153.801C161.994 153.766 164.96 151.883 168.137 149.086C174.139 163.636 185.424 191.136 187.179 196.344C188.741 201.006 184.897 205.493 180.475 206.196C174.086 207.199 171.875 203.012 171.875 203.012C171.875 203.012 169.488 210.173 165.276 209.997C160.029 209.786 159.204 204.191 159.204 204.191C159.204 204.191 157.203 208.378 154.501 208.273C147.761 208.026 147.182 190.168 146.814 184.415C146.147 174.298 145.708 160.592 145.445 150.968C147.024 152.147 148.341 152.851 149.183 152.71C152.008 152.235 151.043 144.036 151.043 144.036Z" fill="#42ACDE"/>
<path d="M147.007 46.0013C162.749 45.9486 182.37 51.737 182.212 63.5252C181.984 78.9025 173.051 74.5039 174.981 83.0899C175.841 86.8902 185.494 91.8518 186.477 110.15C185.985 110.273 185.547 110.326 185.213 110.361C182.721 110.484 179.966 105.734 179.966 105.734C179.966 105.734 178.298 112.419 173.823 112.419C169.348 112.419 164.925 107.792 164.925 107.792C164.925 107.792 162.293 113.123 157.975 113.422C154.465 113.704 152.008 112.015 152.008 112.015C152.008 112.015 151.868 114.654 149.446 114.478C147.007 114.267 142.847 109.587 142.847 109.587C139.952 114.918 137.249 113.282 133.247 110.484C133.247 110.484 132.159 115.164 126.789 114.654C125.736 114.548 124.63 114.478 123.542 114.39L123.384 112.349C123.033 102.004 126.965 89.5118 132.23 80.1517C136.038 73.3427 141.443 65.4781 140.934 61.2731C140.32 56.2939 132.739 56.2764 132.739 56.2764L141.25 53.4613L137.038 46.9514C140.32 46.2949 143.66 45.9766 147.007 46.0013Z" fill="#2F9FDF"/>
<path d="M179.966 105.734C179.966 105.734 182.721 110.484 185.231 110.361C185.547 110.343 185.985 110.273 186.459 110.15L186.512 110.678C186.915 119.827 185.16 128.325 181.299 133.902C175.139 142.822 165.048 153.713 159.888 153.783C153.553 153.889 151.043 144.036 151.043 144.036C151.043 144.036 152.008 152.235 149.183 152.71C146.375 153.168 138.232 144.494 133.756 138.723C130.984 135.116 124.63 124.243 123.542 114.39C124.63 114.46 125.718 114.566 126.789 114.654C132.159 115.182 133.247 110.484 133.247 110.484C137.249 113.299 139.952 114.918 142.847 109.604C142.847 109.604 147.007 114.267 149.446 114.46C151.868 114.654 152.008 112.032 152.008 112.032C152.008 112.032 154.465 113.704 157.975 113.44C162.275 113.123 164.925 107.792 164.925 107.792C164.925 107.792 169.348 112.419 173.823 112.419C178.298 112.419 179.966 105.734 179.966 105.734Z" fill="#0E254F"/>
<path d="M163.539 106.42C163.579 106.41 163.621 106.41 163.662 106.42C163.767 106.455 163.855 106.561 163.925 106.736C163.937 107.753 163.696 108.757 163.223 109.657C162.258 111.522 161.047 113.528 159.134 114.513C158.432 114.865 157.642 115.129 156.94 115.094C156.191 115.09 155.448 114.953 154.746 114.689C154.044 114.337 153.412 114.02 152.851 113.598C151.798 112.824 151.517 112.455 151.517 111.874C151.517 111.293 151.991 111.258 152.851 111.786C153.728 112.314 155.413 112.859 156.15 112.859C158.116 112.859 159.871 111.452 161.959 108.214C162.714 107.053 163.205 106.473 163.539 106.42ZM133.002 107.3C133.212 107.264 133.423 107.37 133.669 107.599C134.072 108.003 134.143 108.302 134.125 109.481C134.037 111.065 133.283 112.859 132.054 113.809C131.282 114.39 129.737 114.865 128.474 114.83C127.28 114.636 125.174 113.669 125.789 113.018C126.14 112.736 126.666 113.141 127.526 113.141C129.386 113.141 130.211 112.543 130.966 111.557C131.633 110.678 131.914 110.027 132.23 108.601C132.423 107.792 132.686 107.352 133.002 107.3ZM144.848 107.687C144.871 107.682 144.895 107.682 144.918 107.687C144.988 107.704 145.041 107.757 145.129 107.845C145.55 108.197 145.568 108.742 145.164 110.062C144.734 110.982 144.117 111.801 143.352 112.468C142.588 113.135 141.692 113.633 140.724 113.933C139.39 114.232 138.179 114.038 137.161 113.457C136.494 113.035 136.231 112.578 136.389 112.173C137.231 111.663 137.74 111.997 138.723 111.997C139.649 111.892 140.544 111.601 141.355 111.142C142.166 110.682 142.877 110.064 143.444 109.323C144.286 108.285 144.673 107.687 144.848 107.669V107.687ZM179.773 107.827C179.948 107.88 180.018 108.302 179.948 109.094C179.895 110.027 179.72 110.537 179.246 111.205C178.72 111.997 177.228 113.141 176.666 113.264C176.228 113.44 175.455 113.669 174.788 113.669C174.122 113.669 173.384 113.563 172.823 113.44C172.261 113.317 171.629 113.088 171.015 112.736L170.787 112.613C170.085 112.243 169.383 111.716 168.874 111.223L168.628 111.012C167.523 110.062 166.891 109.129 166.891 108.443C166.891 108.021 167.821 108.355 169.348 109.323C172.156 111.047 174.806 111.645 176.526 110.906L176.912 110.678L178.456 109.323C178.692 109.061 178.904 108.779 179.088 108.478C179.334 108.091 179.527 107.88 179.667 107.827C179.696 107.82 179.726 107.82 179.755 107.827H179.773Z" fill="#71BEEA"/>
<path d="M178.965 115.27C179.053 115.27 179.106 115.287 179.158 115.34C179.211 115.375 179.246 115.446 179.264 115.551C179.307 115.854 179.271 116.164 179.158 116.448C178.207 118.714 176.431 120.532 174.192 121.533C173.265 121.839 172.287 121.958 171.313 121.885C170.243 121.85 169.155 121.639 168.4 121.287C167.493 120.816 166.679 120.184 165.996 119.422C165.838 119.246 165.768 119.07 165.768 119.017C165.768 118.912 165.768 118.859 165.82 118.841C165.873 118.789 165.943 118.771 166.101 118.771C166.417 118.771 166.961 118.912 167.804 119.176C168.892 119.51 170.032 119.703 171.05 119.721C172.419 119.756 172.84 119.651 174.034 119.07C174.824 118.683 176.14 117.715 177.14 116.818C177.554 116.44 177.975 116.07 178.404 115.71C178.541 115.589 178.682 115.471 178.825 115.358C178.865 115.333 178.906 115.309 178.948 115.287H178.965V115.27ZM141.268 117.662C141.303 117.662 141.356 117.786 141.391 117.979V118.683C141.327 119.285 141.167 119.873 140.917 120.425C140.182 121.984 138.881 123.204 137.28 123.835C135.678 124.466 133.897 124.461 132.3 123.82C131.387 123.416 130.545 122.694 130.018 121.973C129.773 121.604 129.579 121.217 129.492 120.882C129.404 120.548 129.422 120.249 129.544 120.02C129.615 119.879 129.702 119.774 129.773 119.721C129.825 119.668 129.878 119.668 129.948 119.686C130.106 119.721 130.352 119.932 130.703 120.354C131.58 121.445 132.949 122.026 134.669 122.008C135.757 122.008 136.6 121.815 137.477 121.234C138.355 120.671 139.302 119.721 140.636 118.19C140.776 118.014 140.934 117.838 141.075 117.768L141.25 117.662C141.268 117.662 141.285 117.662 141.25 117.662H141.268ZM147.165 118.401L147.27 118.437L147.516 118.56C147.756 118.696 147.99 118.843 148.218 119C149.622 119.967 150.955 120.46 152.412 120.478C153.869 120.478 155.431 120.003 157.326 119.035C157.736 118.819 158.165 118.642 158.607 118.507C158.958 118.419 159.151 118.419 159.239 118.472C159.274 118.489 159.292 118.525 159.309 118.577C159.309 118.63 159.309 118.718 159.274 118.841C159.204 119.07 159.028 119.387 158.73 119.809C158.028 120.759 156.887 121.586 155.273 122.272C153.641 122.958 151.096 122.888 149.587 122.096C149.006 121.788 148.469 121.403 147.989 120.953C147.533 120.495 147.2 119.809 147.059 119.264C146.972 119 146.954 118.736 146.989 118.595C146.989 118.525 147.024 118.472 147.059 118.437C147.077 118.401 147.112 118.401 147.165 118.401ZM170.418 123.82C170.471 123.82 170.489 123.82 170.506 123.856L170.524 123.944C170.524 124.032 170.454 124.243 170.313 124.489C169.641 125.532 168.846 126.489 167.944 127.339C164.96 130.084 161.872 130.981 159.344 129.873C158.513 129.505 157.779 128.947 157.2 128.245C156.621 127.542 156.214 126.714 156.01 125.826C155.94 125.474 155.992 125.281 156.045 125.21C156.08 125.175 156.133 125.158 156.22 125.158L156.519 125.246C156.892 125.462 157.229 125.735 157.519 126.055C158.871 127.462 160.081 128.166 161.556 128.061C163.012 127.99 164.715 127.146 167.119 125.545C168.032 124.946 168.769 124.489 169.313 124.208C169.649 124 170.026 123.867 170.418 123.82ZM151.219 123.82C151.254 123.82 151.271 123.82 151.306 123.856C151.324 123.856 151.359 123.908 151.377 123.979C151.412 124.171 151.412 124.368 151.377 124.559C151.306 125.07 151.096 125.738 150.762 126.372C148.832 129.978 145.603 131.738 142.549 130.893C141.503 130.547 140.562 129.942 139.811 129.134C139.039 128.325 138.512 127.392 138.512 126.706C138.512 126.477 138.53 126.301 138.583 126.231C138.583 126.178 138.618 126.16 138.635 126.16H138.723C138.828 126.16 138.986 126.231 139.197 126.372C139.483 126.574 139.758 126.791 140.022 127.023C141.601 128.377 142.988 128.993 144.427 128.782C145.866 128.553 147.358 127.533 149.165 125.668C149.759 125.065 150.38 124.49 151.026 123.944C151.076 123.906 151.129 123.87 151.184 123.838L151.219 123.82ZM175.824 131.474C175.999 131.474 176.105 131.509 176.14 131.562C176.175 131.632 176.192 131.738 176.14 131.931C175.999 132.318 175.596 132.917 174.894 133.62C173.53 134.998 171.892 136.072 170.085 136.77C168.383 137.438 167.154 137.491 165.978 136.963C165.013 136.523 164.504 135.89 164.504 135.134C164.497 135.012 164.521 134.891 164.574 134.782C164.627 134.711 164.68 134.676 164.75 134.658C164.908 134.641 165.189 134.729 165.557 134.975C166.031 135.327 166.68 135.38 167.54 135.186C168.418 134.975 169.523 134.518 170.962 133.779C172.367 133.075 174.034 132.195 174.701 131.843C175.21 131.597 175.578 131.492 175.824 131.474ZM147.726 131.967C147.832 131.949 148.025 132.002 148.27 132.143C148.516 132.318 148.832 132.547 149.183 132.864C149.855 133.471 150.604 133.986 151.412 134.395C152.447 134.87 152.921 134.958 154.623 134.958C156.835 134.958 157.642 134.676 159.871 132.987C160.203 132.699 160.583 132.472 160.994 132.318C161.082 132.318 161.082 132.318 161.117 132.354C161.152 132.406 161.17 132.53 161.17 132.706C161.17 133.093 160.906 133.708 160.503 134.324C160.081 134.922 159.502 135.556 158.888 135.996C157.467 137.051 156.378 137.368 154.29 137.298C153.173 137.364 152.06 137.114 151.078 136.576C150.224 136.129 149.448 135.547 148.779 134.852C148.112 134.183 147.638 133.444 147.551 132.969C147.481 132.618 147.481 132.354 147.516 132.178C147.528 132.112 147.558 132.051 147.603 132.002C147.638 131.975 147.682 131.962 147.726 131.967ZM148.077 135.732C148.165 135.732 148.183 135.732 148.218 135.802C148.253 135.872 148.27 136.013 148.27 136.224C148.27 136.787 147.972 137.509 147.498 138.16C147.024 138.863 146.392 139.462 145.743 139.831C144.619 140.505 143.309 140.801 142.005 140.676C140.074 140.517 138.881 140.077 137.828 138.459C137.565 138.019 137.477 137.614 137.582 137.28C137.617 137.157 137.653 137.086 137.723 137.034C137.775 136.999 137.828 136.981 137.933 136.981C138.109 136.981 138.39 137.104 138.758 137.35C139.811 138.107 140.864 138.424 142.251 138.441C143.795 138.441 145.111 137.913 146.849 136.506C147.481 136.013 147.902 135.749 148.077 135.732ZM166.961 139.321C167.066 139.374 167.119 139.409 167.137 139.497C167.167 139.69 167.161 139.887 167.119 140.077C166.803 142.013 164.838 144.476 162.837 145.391C161.345 146.095 159.327 146.095 157.835 145.391C156.484 144.775 155.027 143.438 154.501 142.347C154.323 141.997 154.193 141.624 154.114 141.239C154.097 141.116 154.097 141.01 154.114 140.957C154.114 140.887 154.15 140.852 154.185 140.834C154.237 140.799 154.413 140.799 154.676 140.922C154.957 141.045 155.308 141.274 155.729 141.626C157.484 143.068 158.993 143.755 160.468 143.632C161.977 143.508 163.434 142.576 165.101 140.834C165.519 140.39 165.964 139.973 166.435 139.585C166.541 139.489 166.659 139.406 166.786 139.339C166.873 139.303 166.926 139.303 166.961 139.321Z" fill="#309FDF"/>
<path d="M166.961 54.904C168.087 54.8633 169.212 54.9999 170.296 55.3087C173.788 56.3115 176.175 58.0886 176.701 64.4928C177.228 70.9323 179.86 72.4982 180.264 72.7093C177.684 77.407 173.595 77.0199 174.981 83.0899C175.403 85.0253 178.07 87.2245 180.738 91.2712C174.771 86.5208 170.84 82.826 163.258 73.589C163.258 73.589 156.414 65.2142 158.853 60.0415C159.594 58.5178 160.743 57.2305 162.172 56.3233C163.601 55.4162 165.253 54.9248 166.944 54.904H166.961Z" fill="#E9F2F1"/>
<path d="M167.224 54.0419C168.646 54.0419 170.155 54.2882 171.717 54.9744C175.666 56.7162 176.105 58.546 176.824 61.4842C177.09 62.9106 177.172 64.3651 177.07 65.8124C177.847 63.8667 178.817 62.0041 179.966 60.2526C179.966 60.2526 183.3 63.7363 186.371 63.5252C190.39 63.2261 192.338 63.877 194.234 65.2494C198.692 68.5043 197.954 72.9556 197.954 72.9556C197.954 72.9556 194.866 72.639 190.847 73.1316C187.284 73.6066 184.283 73.8881 180.089 73.589C178.597 73.4835 177.316 71.8296 176.701 70.2461C175.912 69.5424 176.192 66.3754 175.859 65.9356C175.332 65.3374 174.455 65.1086 173.999 65.0207C173.349 64.8975 173.244 65.2846 173.174 65.5133C172.846 66.7145 172.118 67.767 171.111 68.4962C170.105 69.2253 168.879 69.587 167.639 69.5212C166.398 69.4554 165.218 68.9661 164.293 68.1346C163.368 67.3031 162.755 66.1794 162.556 64.9503C162.381 64.1761 160.977 64.0706 159.766 64.1586C158.537 64.1586 159.608 66.956 160.064 68.0821C161.012 70.4045 164.434 74.9438 164.434 74.9438L142.619 59.9887C142.619 59.9887 150.657 63.8594 153.412 63.5076C156.87 63.1029 157.923 57.3848 160.994 55.7661C162.732 54.8688 164.855 54.0771 167.224 54.0419ZM166.979 55.6957C165.538 55.7195 164.127 56.1118 162.88 56.8354C161.633 57.559 160.591 58.5899 159.853 59.8304C159.204 61.0796 158.765 62.8214 159.906 63.3844C161.24 64.0354 162.486 63.5076 162.626 62.8918C162.9 61.6879 163.574 60.6129 164.537 59.8426C165.5 59.0724 166.695 58.6525 167.926 58.6516C169.271 58.6106 170.581 59.0873 171.586 59.9838C172.591 60.8803 173.216 62.1286 173.332 63.4724C173.402 64.3873 174.929 64.8271 175.561 64.1234C176.034 63.5955 175.262 61.1675 174.911 60.2526C173.823 57.4024 170.032 55.7309 166.979 55.6782V55.6957ZM165.996 60.5869C165.74 60.5869 165.494 60.6889 165.313 60.8704C165.132 61.0518 165.031 61.298 165.031 61.5546C165.031 61.8113 165.132 62.0574 165.313 62.2389C165.494 62.4203 165.74 62.5223 165.996 62.5223C166.252 62.5223 166.497 62.4203 166.678 62.2389C166.859 62.0574 166.961 61.8113 166.961 61.5546C166.961 61.298 166.859 61.0518 166.678 60.8704C166.497 60.6889 166.252 60.5869 165.996 60.5869ZM169.857 65.6892C169.601 65.6892 169.355 65.7912 169.174 65.9727C168.993 66.1541 168.892 66.4003 168.892 66.6569C168.892 66.9136 168.993 67.1597 169.174 67.3412C169.355 67.5227 169.601 67.6246 169.857 67.6246C170.113 67.6246 170.358 67.5227 170.539 67.3412C170.72 67.1597 170.822 66.9136 170.822 66.6569C170.822 66.4003 170.72 66.1541 170.539 65.9727C170.358 65.7912 170.113 65.6892 169.857 65.6892ZM162.837 157.777C163.293 157.461 165.487 161.912 166.347 168.158C167.54 176.779 167.804 179.277 168.839 185.048C169.892 190.802 171.05 196.713 171.191 198.015C171.296 198.86 171.489 201.358 171.296 201.552C170.734 202.132 168.716 195.974 168.348 194.162C167.997 192.35 166.996 187.001 165.855 178.873C164.732 170.762 164.364 166.627 163.556 162.774C162.732 158.903 162.381 158.094 162.819 157.777H162.837ZM151.201 153.027C151.921 152.798 153.044 157.355 153.5 159.677C154.483 164.709 154.588 170.938 154.974 174.984C155.471 180.136 156.173 185.266 157.08 190.362C157.554 193.001 158.484 195.534 158.8 198.209C158.976 199.792 159.713 202.783 158.835 203.012C157.923 203.276 156.133 196.59 155.325 193.212C153.904 187.423 153.448 181.67 152.833 175.741C152.254 170.339 152.026 164.692 151.693 159.273C151.57 156.018 150.798 153.203 151.201 153.009V153.027Z" fill="#0E254F"/>
<path d="M104.957 144.036C104.957 144.036 102.447 153.889 96.1291 153.801C94.0056 153.766 91.0396 151.883 87.8631 149.086C81.8609 163.636 70.5763 191.136 68.8213 196.344C67.2593 201.006 71.1028 205.493 75.5254 206.196C81.9136 207.199 84.1249 203.012 84.1249 203.012C84.1249 203.012 86.5117 210.173 90.7237 209.997C95.9712 209.786 96.796 204.191 96.796 204.191C96.796 204.191 98.7967 208.378 101.499 208.273C108.239 208.026 108.818 190.168 109.186 184.415C109.853 174.298 110.292 160.592 110.555 150.968C108.976 152.147 107.66 152.851 106.817 152.71C103.992 152.235 104.957 144.036 104.957 144.036Z" fill="#42ACDE"/>
<path d="M108.993 46.0013C93.2509 45.9486 73.63 51.737 73.7879 63.5252C74.0161 78.9025 82.949 74.5039 81.0185 83.0899C80.1586 86.8902 70.5061 91.8518 69.5233 110.15C70.0147 110.273 70.4534 110.326 70.7869 110.361C73.279 110.484 76.0343 105.734 76.0343 105.734C76.0343 105.734 77.7016 112.419 82.1768 112.419C86.6521 112.419 91.0747 107.792 91.0747 107.792C91.0747 107.792 93.7072 113.123 98.0245 113.422C101.535 113.704 103.992 112.015 103.992 112.015C103.992 112.015 104.132 114.654 106.554 114.478C108.993 114.267 113.153 109.587 113.153 109.587C116.048 114.918 118.751 113.282 122.753 110.484C122.753 110.484 123.841 115.164 129.211 114.654C130.264 114.548 131.37 114.478 132.458 114.39L132.616 112.349C132.967 102.004 129.035 89.5118 123.77 80.1517C119.962 73.3427 114.557 65.4781 115.066 61.2731C115.68 56.2939 123.261 56.2764 123.261 56.2764L114.75 53.4613L118.962 46.9514C115.68 46.2949 112.34 45.9766 108.993 46.0013Z" fill="#2F9FDF"/>
<path d="M76.0343 105.734C76.0343 105.734 73.279 110.484 70.7693 110.361C70.4534 110.343 70.0147 110.273 69.5408 110.15L69.4882 110.678C69.0845 119.827 70.8395 128.325 74.7005 133.902C80.8606 142.822 90.9519 153.713 96.1116 153.783C102.447 153.889 104.957 144.036 104.957 144.036C104.957 144.036 103.992 152.235 106.817 152.71C109.625 153.168 117.768 144.494 122.244 138.723C125.017 135.116 131.37 124.243 132.458 114.39C131.37 114.46 130.282 114.566 129.211 114.654C123.841 115.182 122.753 110.484 122.753 110.484C118.751 113.299 116.048 114.918 113.153 109.604C113.153 109.604 108.993 114.267 106.554 114.46C104.132 114.654 103.992 112.032 103.992 112.032C103.992 112.032 101.535 113.704 98.0245 113.44C93.7248 113.123 91.0747 107.792 91.0747 107.792C91.0747 107.792 86.6521 112.419 82.1768 112.419C77.7016 112.419 76.0343 105.734 76.0343 105.734Z" fill="#0E254F"/>
<path d="M92.4612 106.42C92.4208 106.41 92.3787 106.41 92.3383 106.42C92.233 106.455 92.1453 106.561 92.0751 106.736C92.0628 107.753 92.3041 108.757 92.7771 109.657C93.7423 111.522 94.9533 113.528 96.8662 114.513C97.5682 114.865 98.358 115.129 99.06 115.094C99.8094 115.09 100.552 114.953 101.254 114.689C101.956 114.337 102.588 114.02 103.149 113.598C104.202 112.824 104.483 112.455 104.483 111.874C104.483 111.293 104.009 111.258 103.149 111.786C102.272 112.314 100.587 112.859 99.8497 112.859C97.8841 112.859 96.1291 111.452 94.0407 108.214C93.286 107.053 92.7946 106.473 92.4612 106.42ZM122.998 107.3C122.788 107.264 122.577 107.37 122.331 107.599C121.928 108.003 121.858 108.302 121.875 109.481C121.963 111.065 122.717 112.859 123.946 113.809C124.718 114.39 126.263 114.865 127.526 114.83C128.72 114.636 130.826 113.669 130.211 113.018C129.86 112.736 129.334 113.141 128.474 113.141C126.614 113.141 125.789 112.543 125.034 111.557C124.367 110.678 124.086 110.027 123.77 108.601C123.577 107.792 123.314 107.352 122.998 107.3ZM111.152 107.687C111.129 107.682 111.105 107.682 111.082 107.687C111.012 107.704 110.959 107.757 110.871 107.845C110.45 108.197 110.432 108.742 110.836 110.062C111.266 110.982 111.883 111.801 112.648 112.468C113.412 113.135 114.308 113.633 115.276 113.933C116.61 114.232 117.821 114.038 118.839 113.457C119.506 113.035 119.769 112.578 119.611 112.173C118.769 111.663 118.26 111.997 117.277 111.997C116.351 111.892 115.456 111.601 114.645 111.142C113.834 110.682 113.123 110.064 112.556 109.323C111.714 108.285 111.327 107.687 111.152 107.669V107.687ZM76.2274 107.827C76.0519 107.88 75.9817 108.302 76.0519 109.094C76.1045 110.027 76.28 110.537 76.7539 111.205C77.2804 111.997 78.7721 113.141 79.3337 113.264C79.7725 113.44 80.5447 113.669 81.2116 113.669C81.8785 113.669 82.6156 113.563 83.1772 113.44C83.7388 113.317 84.3706 113.088 84.9849 112.736L85.213 112.613C85.915 112.243 86.617 111.716 87.126 111.223L87.3717 111.012C88.4773 110.062 89.1091 109.129 89.1091 108.443C89.1091 108.021 88.179 108.355 86.6521 109.323C83.8441 111.047 81.194 111.645 79.4741 110.906L79.088 110.678L77.5436 109.323C77.3078 109.061 77.0963 108.779 76.9118 108.478C76.6661 108.091 76.4731 107.88 76.3327 107.827C76.3039 107.82 76.2737 107.82 76.2449 107.827H76.2274Z" fill="#71BEEA"/>
<path d="M77.0347 115.27C76.9469 115.27 76.8943 115.287 76.8416 115.34C76.789 115.375 76.7539 115.446 76.7363 115.551C76.6929 115.854 76.7292 116.164 76.8416 116.448C77.7928 118.714 79.5686 120.532 81.8083 121.533C82.7354 121.839 83.7134 121.958 84.6865 121.885C85.757 121.85 86.8451 121.639 87.5998 121.287C88.5068 120.816 89.3214 120.184 90.0042 119.422C90.1621 119.246 90.2323 119.07 90.2323 119.017C90.2323 118.912 90.2323 118.859 90.1797 118.841C90.127 118.789 90.0568 118.771 89.8989 118.771C89.583 118.771 89.0389 118.912 88.1965 119.176C87.1084 119.51 85.9676 119.703 84.9497 119.721C83.5808 119.756 83.1596 119.651 81.9662 119.07C81.1765 118.683 79.8602 117.715 78.8599 116.818C78.4463 116.44 78.025 116.07 77.5963 115.71C77.4588 115.589 77.3184 115.471 77.1751 115.358C77.1349 115.333 77.0939 115.309 77.0522 115.287H77.0347V115.27ZM114.732 117.662C114.697 117.662 114.644 117.786 114.609 117.979V118.683C114.673 119.285 114.833 119.873 115.083 120.425C115.818 121.984 117.119 123.204 118.72 123.835C120.322 124.466 122.103 124.461 123.7 123.82C124.613 123.416 125.455 122.694 125.982 121.973C126.227 121.604 126.421 121.217 126.508 120.882C126.596 120.548 126.578 120.249 126.456 120.02C126.385 119.879 126.298 119.774 126.227 119.721C126.175 119.668 126.122 119.668 126.052 119.686C125.894 119.721 125.648 119.932 125.297 120.354C124.42 121.445 123.051 122.026 121.331 122.008C120.243 122.008 119.4 121.815 118.523 121.234C117.645 120.671 116.698 119.721 115.364 118.19C115.224 118.014 115.066 117.838 114.925 117.768L114.75 117.662C114.732 117.662 114.715 117.662 114.75 117.662H114.732ZM108.835 118.401L108.73 118.437L108.484 118.56C108.244 118.696 108.01 118.843 107.782 119C106.378 119.967 105.045 120.46 103.588 120.478C102.131 120.478 100.569 120.003 98.6739 119.035C98.2643 118.819 97.8354 118.642 97.3927 118.507C97.0417 118.419 96.8487 118.419 96.7609 118.472C96.7258 118.489 96.7083 118.525 96.6907 118.577C96.6907 118.63 96.6907 118.718 96.7258 118.841C96.796 119.07 96.9715 119.387 97.2699 119.809C97.9719 120.759 99.1126 121.586 100.727 122.272C102.359 122.958 104.904 122.888 106.413 122.096C106.994 121.788 107.531 121.403 108.011 120.953C108.467 120.495 108.8 119.809 108.941 119.264C109.028 119 109.046 118.736 109.011 118.595C109.011 118.525 108.976 118.472 108.941 118.437C108.923 118.401 108.888 118.401 108.835 118.401ZM85.5815 123.82C85.5289 123.82 85.5113 123.82 85.4938 123.856L85.4762 123.944C85.4762 124.032 85.5464 124.243 85.6868 124.489C86.3588 125.532 87.1544 126.489 88.0561 127.339C91.0396 130.084 94.1284 130.981 96.6556 129.873C97.487 129.505 98.2213 128.947 98.8002 128.245C99.379 127.542 99.7865 126.714 99.9901 125.826C100.06 125.474 100.008 125.281 99.955 125.21C99.9199 125.175 99.8673 125.158 99.7795 125.158L99.4812 125.246C99.1084 125.462 98.771 125.735 98.4808 126.055C97.1295 127.462 95.9185 128.166 94.4443 128.061C92.9877 127.99 91.2853 127.146 88.881 125.545C87.9684 124.946 87.2313 124.489 86.6872 124.208C86.3511 124 85.9738 123.867 85.5815 123.82ZM104.781 123.82C104.746 123.82 104.729 123.82 104.694 123.856C104.676 123.856 104.641 123.908 104.623 123.979C104.588 124.171 104.588 124.368 104.623 124.559C104.694 125.07 104.904 125.738 105.238 126.372C107.168 129.978 110.397 131.738 113.451 130.893C114.497 130.547 115.438 129.942 116.189 129.134C116.961 128.325 117.488 127.392 117.488 126.706C117.488 126.477 117.47 126.301 117.417 126.231C117.417 126.178 117.382 126.16 117.365 126.16H117.277C117.172 126.16 117.014 126.231 116.803 126.372C116.517 126.574 116.242 126.791 115.978 127.023C114.399 128.377 113.012 128.993 111.573 128.782C110.134 128.553 108.642 127.533 106.835 125.668C106.241 125.065 105.62 124.49 104.974 123.944C104.924 123.906 104.871 123.87 104.816 123.838L104.781 123.82ZM80.1761 131.474C80.0006 131.474 79.8953 131.509 79.8602 131.562C79.8251 131.632 79.8076 131.738 79.8602 131.931C80.0006 132.318 80.4043 132.917 81.1063 133.62C82.4697 134.998 84.1085 136.072 85.915 136.77C87.6174 137.438 88.8459 137.491 90.0217 136.963C90.987 136.523 91.4959 135.89 91.4959 135.134C91.5032 135.012 91.4791 134.891 91.4257 134.782C91.3731 134.711 91.3204 134.676 91.2502 134.658C91.0923 134.641 90.8115 134.729 90.4429 134.975C89.9691 135.327 89.3197 135.38 88.4598 135.186C87.5823 134.975 86.4766 134.518 85.0375 133.779C83.6335 133.075 81.9662 132.195 81.2993 131.843C80.7904 131.597 80.4218 131.492 80.1761 131.474ZM108.274 131.967C108.168 131.949 107.975 132.002 107.73 132.143C107.484 132.318 107.168 132.547 106.817 132.864C106.145 133.471 105.396 133.986 104.588 134.395C103.553 134.87 103.079 134.958 101.377 134.958C99.1653 134.958 98.358 134.676 96.1291 132.987C95.7974 132.699 95.417 132.472 95.0059 132.318C94.9182 132.318 94.9182 132.318 94.8831 132.354C94.848 132.406 94.8304 132.53 94.8304 132.706C94.8304 133.093 95.0937 133.708 95.4973 134.324C95.9185 134.922 96.4977 135.556 97.1119 135.996C98.5335 137.051 99.6216 137.368 101.71 137.298C102.827 137.364 103.94 137.114 104.922 136.576C105.776 136.129 106.552 135.547 107.221 134.852C107.888 134.183 108.362 133.444 108.449 132.969C108.519 132.618 108.519 132.354 108.484 132.178C108.472 132.112 108.442 132.051 108.397 132.002C108.362 131.975 108.318 131.962 108.274 131.967ZM107.923 135.732C107.835 135.732 107.817 135.732 107.782 135.802C107.747 135.872 107.73 136.013 107.73 136.224C107.73 136.787 108.028 137.509 108.502 138.16C108.976 138.863 109.608 139.462 110.257 139.831C111.381 140.505 112.691 140.801 113.995 140.676C115.926 140.517 117.119 140.077 118.172 138.459C118.435 138.019 118.523 137.614 118.418 137.28C118.383 137.157 118.347 137.086 118.277 137.034C118.225 136.999 118.172 136.981 118.067 136.981C117.891 136.981 117.61 137.104 117.242 137.35C116.189 138.107 115.136 138.424 113.749 138.441C112.205 138.441 110.889 137.913 109.151 136.506C108.519 136.013 108.098 135.749 107.923 135.732ZM89.0389 139.321C88.9336 139.374 88.881 139.409 88.8634 139.497C88.8335 139.69 88.8394 139.887 88.881 140.077C89.1969 142.013 91.1625 144.476 93.1632 145.391C94.6549 146.095 96.6732 146.095 98.1649 145.391C99.5163 144.775 100.973 143.438 101.499 142.347C101.677 141.997 101.807 141.624 101.886 141.239C101.903 141.116 101.903 141.01 101.886 140.957C101.886 140.887 101.85 140.852 101.815 140.834C101.763 140.799 101.587 140.799 101.324 140.922C101.043 141.045 100.692 141.274 100.271 141.626C98.5159 143.068 97.0066 143.755 95.5324 143.632C94.0231 143.508 92.5665 142.576 90.8992 140.834C90.4812 140.39 90.0357 139.973 89.5654 139.585C89.4589 139.489 89.341 139.406 89.2144 139.339C89.1267 139.303 89.074 139.303 89.0389 139.321Z" fill="#309FDF"/>
<path d="M89.0389 54.904C87.9131 54.8633 86.788 54.9999 85.7044 55.3087C82.2119 56.3115 79.8251 58.0886 79.2986 64.4928C78.7721 70.9323 76.1396 72.4982 75.736 72.7093C78.3158 77.407 82.405 77.0199 81.0185 83.0899C80.5973 85.0253 77.9297 87.2245 75.2621 91.2712C81.2291 86.5208 85.1603 82.826 92.742 73.589C92.742 73.589 99.5865 65.2142 97.147 60.0415C96.4057 58.5178 95.2566 57.2305 93.828 56.3233C92.3994 55.4162 90.7474 54.9248 89.0565 54.904H89.0389Z" fill="#E9F2F1"/>
<path d="M88.7757 54.0419C87.3541 54.0419 85.8448 54.2882 84.2828 54.9744C80.3341 56.7162 79.8953 58.546 79.1758 61.4842C78.9103 62.9106 78.8277 64.3651 78.9301 65.8124C78.1528 63.8667 77.1827 62.0041 76.0343 60.2526C76.0343 60.2526 72.6998 63.7363 69.6286 63.5252C65.6096 63.2261 63.6615 63.877 61.7661 65.2494C57.3084 68.5043 58.0455 72.9556 58.0455 72.9556C58.0455 72.9556 61.1343 72.639 65.1533 73.1316C68.716 73.6066 71.717 73.8881 75.9115 73.589C77.4032 73.4835 78.6844 71.8296 79.2986 70.2461C80.0884 69.5424 79.8076 66.3754 80.141 65.9356C80.6675 65.3374 81.545 65.1086 82.0013 65.0207C82.6507 64.8975 82.756 65.2846 82.8262 65.5133C83.1538 66.7145 83.8816 67.767 84.8885 68.4962C85.8955 69.2253 87.121 69.587 88.3614 69.5212C89.6018 69.4554 90.7824 68.9661 91.707 68.1346C92.6316 67.3031 93.2445 66.1794 93.444 64.9503C93.6195 64.1761 95.0235 64.0706 96.2344 64.1586C97.4629 64.1586 96.3924 66.956 95.9361 68.0821C94.9884 70.4045 91.5661 74.9438 91.5661 74.9438L113.381 59.9887C113.381 59.9887 105.343 63.8594 102.588 63.5076C99.1302 63.1029 98.0772 57.3848 95.0059 55.7661C93.2685 54.8688 91.1449 54.0771 88.7757 54.0419ZM89.0214 55.6957C90.462 55.7195 91.8726 56.1118 93.1196 56.8354C94.3666 57.559 95.4085 58.5899 96.1467 59.8304C96.796 61.0796 97.2348 62.8214 96.094 63.3844C94.7602 64.0354 93.5142 63.5076 93.3738 62.8918C93.0996 61.6879 92.426 60.6129 91.4632 59.8426C90.5005 59.0724 89.3054 58.6525 88.0737 58.6516C86.7288 58.6106 85.4194 59.0873 84.4142 59.9838C83.409 60.8803 82.7842 62.1286 82.6682 63.4724C82.598 64.3873 81.0712 64.8271 80.4394 64.1234C79.9655 63.5955 80.7377 61.1675 81.0887 60.2526C82.1768 57.4024 85.9676 55.7309 89.0214 55.6782V55.6957ZM90.0042 60.5869C90.2602 60.5869 90.5057 60.6889 90.6867 60.8704C90.8677 61.0518 90.9694 61.298 90.9694 61.5546C90.9694 61.8113 90.8677 62.0574 90.6867 62.2389C90.5057 62.4203 90.2602 62.5223 90.0042 62.5223C89.7482 62.5223 89.5026 62.4203 89.3216 62.2389C89.1406 62.0574 89.0389 61.8113 89.0389 61.5546C89.0389 61.298 89.1406 61.0518 89.3216 60.8704C89.5026 60.6889 89.7482 60.5869 90.0042 60.5869ZM86.1431 65.6892C86.3991 65.6892 86.6447 65.7912 86.8257 65.9727C87.0067 66.1541 87.1084 66.4003 87.1084 66.6569C87.1084 66.9136 87.0067 67.1597 86.8257 67.3412C86.6447 67.5227 86.3991 67.6246 86.1431 67.6246C85.8871 67.6246 85.6416 67.5227 85.4606 67.3412C85.2796 67.1597 85.1779 66.9136 85.1779 66.6569C85.1779 66.4003 85.2796 66.1541 85.4606 65.9727C85.6416 65.7912 85.8871 65.6892 86.1431 65.6892ZM93.1632 157.777C92.7069 157.461 90.5131 161.912 89.6532 168.158C88.4598 176.779 88.1965 179.277 87.161 185.048C86.108 190.802 84.9497 196.713 84.8093 198.015C84.704 198.86 84.511 201.358 84.704 201.552C85.2656 202.132 87.2839 195.974 87.6525 194.162C88.0035 192.35 89.0038 187.001 90.1446 178.873C91.2678 170.762 91.6363 166.627 92.4436 162.774C93.2685 158.903 93.6195 158.094 93.1807 157.777H93.1632ZM104.799 153.027C104.079 152.798 102.956 157.355 102.5 159.677C101.517 164.709 101.412 170.938 101.026 174.984C100.529 180.136 99.8266 185.266 98.9196 190.362C98.4457 193.001 97.5156 195.534 97.1997 198.209C97.0242 199.792 96.2871 202.783 97.1646 203.012C98.0772 203.276 99.8673 196.59 100.675 193.212C102.096 187.423 102.552 181.67 103.167 175.741C103.746 170.339 103.974 164.692 104.307 159.273C104.43 156.018 105.202 153.203 104.799 153.009V153.027Z" fill="#0E254F"/>
</svg>