<svg width="256" height="256" title="Jupyter" viewBox="0 0 256 256" fill="none" xmlns="http://www.w3.org/2000/svg" id="jupyter">
<style>
#jupyter {
    rect {fill: #15191C}
    path.switch {fill: #F4F2ED}

    @media (prefers-color-scheme: light) {
        rect {fill: #F4F2ED}
        path.switch {fill: #15191C}
    }
}
</style>
<rect width="256" height="256" rx="40" fill="#15191C"/>
<path d="M59.1327 131.888C59.1327 137.363 58.6946 139.147 57.5682 140.461C56.3146 141.59 54.687 142.214 53 142.213L53.4381 145.342C56.0535 145.377 58.5914 144.454 60.572 142.745C61.6377 141.445 62.4307 139.945 62.9038 138.332C63.3769 136.719 63.5203 135.028 63.3255 133.358V112.645H59.1327V131.888Z" class="switch" fill="#F4F2ED"/>
<path d="M90.4012 129.42C90.4012 131.766 90.4012 133.863 90.589 135.678H86.8655L86.6152 131.954C85.8364 133.272 84.7227 134.359 83.3872 135.107C82.0517 135.854 80.5421 136.235 79.0119 136.209C75.3824 136.209 71.0645 134.238 71.0645 126.197V112.836H75.2572V125.352C75.2572 129.701 76.6027 132.611 80.3887 132.611C81.1676 132.62 81.9403 132.472 82.6616 132.178C83.3829 131.884 84.0381 131.449 84.5889 130.898C85.1397 130.347 85.575 129.692 85.8693 128.971C86.1635 128.249 86.3107 127.476 86.3023 126.698V112.68H90.4951V129.295L90.4012 129.42Z" class="switch" fill="#F4F2ED"/>
<path d="M98.3487 120.28C98.3487 117.37 98.3487 114.992 98.1609 112.833H101.916L102.103 116.744C102.94 115.331 104.144 114.172 105.588 113.389C107.032 112.607 108.661 112.231 110.301 112.301C115.871 112.301 120.063 116.963 120.063 123.91C120.063 132.107 115.026 136.175 109.581 136.175C108.188 136.237 106.802 135.939 105.558 135.308C104.314 134.678 103.253 133.737 102.479 132.577V145.093H98.3487V120.28ZM102.479 126.382C102.49 126.949 102.553 127.515 102.667 128.071C103.022 129.46 103.83 130.692 104.963 131.57C106.097 132.449 107.49 132.924 108.924 132.921C113.336 132.921 115.933 129.323 115.933 124.097C115.933 119.529 113.493 115.618 109.081 115.618C107.335 115.761 105.701 116.536 104.486 117.797C103.27 119.059 102.557 120.72 102.479 122.47V126.382Z" class="switch" fill="#F4F2ED"/>
<path d="M127.534 112.812L132.571 126.298C133.103 127.8 133.666 129.614 134.042 130.96C134.48 129.583 134.949 127.831 135.513 126.204L140.081 112.812H144.493L138.235 129.082C135.106 136.905 133.197 140.941 130.319 143.382C128.869 144.706 127.101 145.633 125.187 146.073L124.155 142.568C125.493 142.128 126.735 141.438 127.815 140.534C129.342 139.29 130.553 137.704 131.351 135.904C131.522 135.592 131.638 135.253 131.695 134.902C131.66 134.525 131.565 134.155 131.414 133.807L122.903 112.749H127.471L127.534 112.812Z" class="switch" fill="#F4F2ED"/>
<path d="M155.623 106.248V112.819H161.631V115.948H155.623V128.276C155.623 131.092 156.437 132.719 158.752 132.719C159.574 132.732 160.395 132.638 161.193 132.437L161.38 135.566C160.184 135.981 158.922 136.172 157.657 136.129C156.819 136.182 155.98 136.052 155.197 135.75C154.414 135.448 153.705 134.979 153.12 134.377C151.846 132.673 151.264 130.548 151.493 128.432V115.917H147.926V112.788H151.556V107.218L155.623 106.248Z" class="switch" fill="#F4F2ED"/>
<path d="M169.354 124.977C169.269 126.038 169.416 127.105 169.783 128.104C170.151 129.103 170.732 130.01 171.484 130.763C172.237 131.516 173.144 132.096 174.143 132.464C175.142 132.831 176.209 132.978 177.27 132.893C179.417 132.941 181.549 132.536 183.528 131.704L184.248 134.833C181.819 135.833 179.208 136.313 176.582 136.241C175.051 136.346 173.516 136.118 172.082 135.574C170.647 135.03 169.347 134.182 168.271 133.088C167.195 131.994 166.369 130.68 165.848 129.237C165.328 127.794 165.125 126.255 165.255 124.727C165.255 117.843 169.354 112.399 176.05 112.399C183.559 112.399 185.437 118.969 185.437 123.162C185.477 123.808 185.477 124.456 185.437 125.102H169.26L169.354 124.977ZM181.619 121.848C181.74 121.011 181.68 120.159 181.444 119.347C181.207 118.536 180.799 117.785 180.248 117.144C179.696 116.504 179.014 115.989 178.246 115.634C177.479 115.28 176.645 115.094 175.8 115.089C174.081 115.214 172.47 115.976 171.283 117.226C170.097 118.476 169.42 120.125 169.385 121.848H181.619Z" class="switch" fill="#F4F2ED"/>
<path d="M191.798 119.927C191.798 117.236 191.798 114.921 191.611 112.793H195.365V117.268H195.553C195.947 115.887 196.762 114.663 197.883 113.766C199.004 112.869 200.377 112.343 201.811 112.261C202.206 112.21 202.605 112.21 203 112.261V116.173C202.522 116.117 202.039 116.117 201.561 116.173C200.14 116.228 198.789 116.798 197.758 117.777C196.727 118.756 196.088 120.076 195.96 121.492C195.843 122.132 195.78 122.781 195.772 123.432V135.603H191.642V119.959L191.798 119.927Z" class="switch" fill="#F4F2ED"/>
<path d="M189.961 49.9658C190.089 52.0679 189.589 54.1606 188.524 55.9773C187.459 57.7941 185.878 59.2528 183.981 60.1674C182.084 61.0821 179.957 61.4113 177.873 61.1133C175.788 60.8153 173.839 59.9034 172.274 58.4938C170.71 57.0843 169.6 55.2409 169.087 53.1985C168.573 51.156 168.68 49.007 169.392 47.0252C170.104 45.0434 171.39 43.3184 173.086 42.0702C174.783 40.8219 176.812 40.1067 178.916 40.0158C180.295 39.9399 181.676 40.1375 182.979 40.5971C184.282 41.0567 185.481 41.7694 186.507 42.6941C187.534 43.6187 188.367 44.7372 188.96 45.9852C189.553 47.2331 189.893 48.586 189.961 49.9658Z" class="switch" fill="#F4F2ED"/>
<path d="M128.091 172.504C99.9306 172.504 75.1807 162.398 62.3834 147.473C67.3488 160.9 76.3083 172.483 88.0559 180.664C99.8034 188.845 113.776 193.23 128.091 193.23C142.406 193.23 156.378 188.845 168.126 180.664C179.873 172.483 188.833 160.9 193.798 147.473C181.032 162.398 156.376 172.504 128.091 172.504Z" fill="#F37726"/>
<path d="M128.091 75.4512C156.251 75.4512 181.001 85.5576 193.798 100.483C188.833 87.0559 179.873 75.4726 168.126 67.2918C156.378 59.111 142.406 54.7254 128.091 54.7254C113.776 54.7254 99.8034 59.111 88.0559 67.2918C76.3083 75.4726 67.3488 87.0559 62.3834 100.483C75.1807 85.5263 99.8055 75.4512 128.091 75.4512Z" fill="#F37726"/>
<path d="M89.3247 201.549C89.4899 204.197 88.8631 206.833 87.5243 209.124C86.1854 211.414 84.1951 213.254 81.8069 214.408C79.4187 215.563 76.7408 215.981 74.1143 215.609C71.4877 215.236 69.0315 214.09 67.0586 212.317C65.0857 210.544 63.6854 208.223 63.036 205.651C62.3867 203.079 62.5178 200.372 63.4126 197.874C64.3074 195.377 65.9253 193.202 68.0603 191.628C70.1954 190.053 72.7508 189.15 75.401 189.033C77.1371 188.94 78.8746 189.19 80.514 189.769C82.1535 190.348 83.6628 191.244 84.9558 192.406C86.2488 193.569 87.3002 194.974 88.0498 196.543C88.7995 198.112 89.2327 199.813 89.3247 201.549Z" class="switch" fill="#F4F2ED"/>
<path d="M65.5838 72.05C64.0664 72.0919 62.5705 71.6842 61.2842 70.8782C59.998 70.0722 58.9787 68.9039 58.3546 67.5201C57.7306 66.1364 57.5296 64.599 57.777 63.1014C58.0244 61.6037 58.7091 60.2126 59.7449 59.103C60.7808 57.9935 62.1217 57.215 63.5988 56.8654C65.076 56.5159 66.6235 56.6109 68.0468 57.1386C69.4701 57.6662 70.7056 58.6029 71.598 59.8309C72.4903 61.0588 72.9997 62.5233 73.0619 64.0399C73.1212 66.0907 72.3692 68.0822 70.9691 69.5818C69.569 71.0815 67.6338 71.9684 65.5838 72.05Z" class="switch" fill="#F4F2ED"/>
</svg>