<svg width="256" height="256" title="K6" viewBox="0 0 256 256" fill="none" xmlns="http://www.w3.org/2000/svg" id="k6">
<style>
#k6 {
    rect {fill: #15191C}

    @media (prefers-color-scheme: light) {
        rect {fill: #F4F2ED}
    }
}
</style>
<rect width="256" height="256" rx="40" fill="#15191C"/>
<path d="M211 208H46L100.93 90.9286L134.018 115.233L177.176 48L211 208ZM150.503 182.714H150.856C154.94 182.721 158.867 181.144 161.809 178.315C163.317 176.948 164.516 175.276 165.328 173.411C166.139 171.545 166.545 169.528 166.517 167.494C166.584 165.535 166.212 163.585 165.427 161.788C164.642 159.991 163.464 158.392 161.98 157.109C159.478 154.601 156.106 153.15 152.563 153.058H152.292C151.828 153.055 151.367 153.119 150.921 153.245L159.631 140.308L152.692 135.468L149.408 140.308L141.016 153.116C139.574 155.239 138.367 157.109 137.62 158.409C136.844 159.784 136.177 161.217 135.624 162.696C134.996 164.267 134.672 165.943 134.671 167.635C134.651 169.646 135.055 171.637 135.856 173.481C136.657 175.325 137.838 176.98 139.321 178.338C142.224 181.165 146.12 182.744 150.173 182.737L150.503 182.714ZM113.613 168.788L123.23 182.378H133.511L122.199 166.612L132.246 152.675L125.578 148.065L122.635 151.946L113.601 164.672V139.085L104.596 131.752V182.372H113.601V168.776L113.613 168.788ZM150.515 174.228C148.759 174.228 147.075 173.531 145.833 172.29C144.591 171.049 143.894 169.367 143.894 167.612C143.894 165.857 144.591 164.175 145.833 162.934C147.075 161.693 148.759 160.996 150.515 160.996H150.574C151.446 160.997 152.309 161.174 153.111 161.517C153.913 161.859 154.637 162.361 155.241 162.99C155.876 163.573 156.381 164.282 156.725 165.072C157.068 165.862 157.243 166.715 157.236 167.577C157.214 169.343 156.498 171.03 155.241 172.272C153.984 173.515 152.288 174.213 150.521 174.216L150.515 174.228Z" fill="#7D64FF"/>
</svg>