<svg width="256" height="256" title="Kafka" viewBox="0 0 256 256" fill="none" xmlns="http://www.w3.org/2000/svg">
<rect width="256" height="256" rx="40" fill="#A9CBD4"/>
<path d="M161.66 138.417C154.388 138.417 147.87 141.639 143.406 146.71L131.968 138.613C133.182 135.27 133.879 131.68 133.879 127.923C133.879 124.231 133.206 120.701 132.032 117.407L143.445 109.396C147.908 114.442 154.41 117.645 161.66 117.645C175.08 117.645 186 106.727 186 93.305C186 79.8828 175.08 68.9645 161.66 68.9645C148.239 68.9645 137.319 79.8828 137.319 93.305C137.319 95.7074 137.682 98.024 138.333 100.218L126.913 108.234C122.142 102.315 115.273 98.1831 107.447 96.9217V83.1576C118.473 80.8419 126.78 71.0458 126.78 59.3405C126.78 45.9183 115.86 35 102.439 35C89.0191 35 78.099 45.9183 78.099 59.3405C78.099 70.889 86.1912 80.5643 96.9963 83.0453V96.9881C82.2502 99.5765 71 112.446 71 127.923C71 143.475 82.3616 156.391 97.2142 158.892V173.615C86.2986 176.014 78.099 185.748 78.099 197.376C78.099 210.798 89.0191 221.716 102.439 221.716C115.86 221.716 126.78 210.798 126.78 197.376C126.78 185.748 118.58 176.014 107.665 173.615V158.891C115.182 157.625 121.984 153.67 126.802 147.762L138.316 155.912C137.677 158.086 137.319 160.38 137.319 162.758C137.319 176.18 148.239 187.098 161.66 187.098C175.08 187.098 186 176.18 186 162.758C186 149.336 175.08 138.417 161.66 138.417ZM161.66 81.5036C168.167 81.5036 173.461 86.799 173.461 93.305C173.461 99.811 168.167 105.106 161.66 105.106C155.152 105.106 149.859 99.811 149.859 93.305C149.859 86.799 155.152 81.5036 161.66 81.5036ZM90.638 59.3405C90.638 52.8344 95.9316 47.5395 102.439 47.5395C108.947 47.5395 114.24 52.8344 114.24 59.3405C114.24 65.8465 108.947 71.1414 102.439 71.1414C95.9316 71.1414 90.638 65.8465 90.638 59.3405ZM114.24 197.376C114.24 203.882 108.947 209.176 102.439 209.176C95.9316 209.176 90.638 203.882 90.638 197.376C90.638 190.869 95.9316 185.575 102.439 185.575C108.947 185.575 114.24 190.869 114.24 197.376ZM102.439 144.381C93.3621 144.381 85.9783 136.999 85.9783 127.923C85.9783 118.846 93.3621 111.462 102.439 111.462C111.515 111.462 118.898 118.846 118.898 127.923C118.898 136.999 111.515 144.381 102.439 144.381ZM161.66 174.559C155.152 174.559 149.859 169.264 149.859 162.758C149.859 156.252 155.152 150.957 161.66 150.957C168.167 150.957 173.461 156.252 173.461 162.758C173.461 169.264 168.167 174.559 161.66 174.559Z" fill="#231F20"/>
</svg>