<svg width="256" height="256" title="Kali Linux" viewBox="0 0 256 256" fill="none" xmlns="http://www.w3.org/2000/svg" id="kalilinux">
<style>
#kalilinux {
    rect {fill: #15191C}

    @media (prefers-color-scheme: light) {
        rect {fill: #F4F2ED}
    }
}
</style>
<rect width="256" height="256" rx="40" fill="#15191C"/>
<path d="M127.954 208.907C172.663 208.907 208.908 172.664 208.908 127.954C208.908 83.2442 172.663 47 127.954 47C83.2441 47 47 83.2442 47 127.954C47 172.664 83.2441 208.907 127.954 208.907Z" fill="url(#linearGradient)"/>
<path opacity="0.3" d="M208.828 125.717C208.414 146.899 199.713 167.073 184.593 181.913C169.473 196.752 149.139 205.073 127.953 205.09C106.879 205.076 86.6391 196.846 71.5371 182.145C56.4351 167.445 47.6612 147.435 47.0802 126.367C47.0487 126.895 47.0223 127.423 47.0011 127.951C47.0011 149.421 55.5302 170.012 70.712 185.195C85.8937 200.376 106.484 208.905 127.955 208.905C138.586 208.905 149.113 206.811 158.934 202.743C168.756 198.675 177.681 192.711 185.198 185.195C192.716 177.677 198.678 168.753 202.747 158.932C206.815 149.109 208.909 138.583 208.909 127.951C208.893 127.206 208.867 126.461 208.83 125.716L208.828 125.717Z" fill="black"/>
<path opacity="0.1" d="M127.954 47.0006C106.483 47.0006 85.8926 55.5296 70.7107 70.7114C55.529 85.8931 47 106.484 47 127.955C47.016 128.698 47.0423 129.443 47.0789 130.187C47.4939 109.006 56.1948 88.8323 71.3146 73.9941C86.4344 59.1559 106.768 50.8355 127.953 50.8187C149.027 50.8314 169.266 59.0621 184.367 73.7613C199.469 88.4606 208.244 108.469 208.827 129.537C208.857 129.01 208.884 128.483 208.905 127.956C208.905 117.325 206.811 106.798 202.742 96.9769C198.674 87.1546 192.712 78.2304 185.194 70.7131C177.676 63.1959 168.752 57.2329 158.931 53.1646C149.109 49.0962 138.582 47.0023 127.951 47.0023L127.954 47.0006Z" fill="white"/>
<path opacity="0.3" d="M46.0493 72.8114C32.9423 72.8264 24.2842 73.8816 24.2125 73.8904C24.2122 73.8904 24.1629 73.8948 24.1629 73.8948C23.3072 73.9933 23.416 75.2679 24.276 75.2199C24.276 75.2199 71.9341 72.9683 110.135 88.3217C111.498 94.1527 115.097 103.091 117.223 107.841C114.328 109.827 111.223 111.845 108.668 115.045C105.987 118.404 103.96 123.039 103.42 130.128C102.325 144.507 114.658 157.095 129.91 157.483C144.054 158.236 153.67 158.34 165.377 164.407C170.844 167.434 175.935 173.655 179.738 181.255C183.543 188.858 186.068 197.829 186.521 206.288C186.563 207.12 187.785 207.135 187.848 206.306C187.85 206.279 187.847 206.244 187.849 206.218C188.341 199.74 187.384 189.713 183.501 180.175C180.248 172.185 174.874 164.578 166.612 159.807C178.486 163.05 185.284 169.077 189.193 174.583C193.676 180.902 194.338 186.525 194.334 186.494C194.428 187.289 195.588 187.27 195.658 186.473C195.658 186.473 196.247 179.58 191.491 171.985C186.735 164.391 176.638 156.09 155.587 153C150.256 152.218 143.526 151.617 136.707 151.6C136.704 151.6 136.7 151.6 136.697 151.6C120.195 151.817 111.876 142.412 110.581 132.764C109.934 127.941 111.067 123.054 113.869 119.268C116.671 115.483 121.13 112.772 127.275 112.291H127.278C137.366 111.458 149.672 116.915 161.772 122.546C161.76 123.944 161.885 125.355 162.907 126.632C163.59 127.487 164.825 128.081 166.082 128.674C167.337 129.267 168.63 129.806 169.143 130.1C170.309 130.769 174.198 133.264 176.492 136.248C176.786 136.632 177.379 136.583 177.606 136.157C177.618 136.135 177.966 135.733 178.427 135.348C178.886 134.963 179.47 134.525 180.039 134.115C181.177 133.297 182.252 132.595 182.252 132.595C182.813 132.23 182.544 131.359 181.876 131.373C181.876 131.373 181.713 131.382 181.19 131.283C180.668 131.182 179.838 130.972 178.656 130.531C177.569 130.125 176.27 129.246 175.269 128.45C174.768 128.053 174.337 127.676 174.033 127.395C173.996 127.361 173.981 127.345 173.948 127.314C174.267 127.028 174.31 126.569 174.246 126.282C174.18 125.987 174.052 125.749 173.908 125.516C173.621 125.052 173.256 124.639 173.003 124.386C173.039 124.423 172.928 124.293 172.816 124.129C172.703 123.963 172.558 123.741 172.394 123.484C172.068 122.971 171.667 122.318 171.279 121.674C170.5 120.388 169.796 119.192 169.729 119.079C169.728 119.076 169.559 118.722 169.233 118.504C169.181 118.47 169.125 118.442 169.066 118.424C168.698 118.305 168.405 118.333 168.026 118.352C167.649 118.372 167.228 118.416 166.83 118.467C166.165 118.553 165.751 118.627 165.571 118.659C165.121 118.422 161.603 116.473 160.31 112.502C160.071 111.774 158.994 111.96 159.013 112.726C159.02 112.986 158.625 113.764 158.711 114.94C157.148 113.998 155.804 112.502 154.633 109.419C154.417 108.851 153.615 108.844 153.392 109.41C152.943 110.538 152.916 111.481 153.006 112.213C151.523 111.515 149.091 109.979 148.562 106.926C148.448 106.273 147.553 106.169 147.294 106.78C146.857 107.809 146.818 108.661 146.891 109.347C144.125 108.16 136.505 105.385 125.133 105.324C122.937 105.122 121.194 104.024 119.76 102.377C118.328 100.73 117.24 98.5336 116.469 96.2607C115.698 93.9866 115.243 91.6363 115.036 89.6975C114.83 87.7585 114.917 86.1556 115.062 85.696C115.157 85.3896 115.02 85.0583 114.737 84.9086C114.737 84.9086 100.83 77.5927 73.6431 74.3768C63.4495 73.171 53.9478 72.8025 46.0506 72.8115L46.0493 72.8114ZM77.7982 87.2991C73.6558 87.3303 69.2092 87.4847 64.537 87.8168C39.5782 89.5908 14.451 98.3112 14.451 98.3112C13.6472 98.5883 14.0069 99.7938 14.8312 99.5851C14.8312 99.5851 66.0799 86.7223 108.891 94.2618C108.929 94.2686 108.967 94.2721 109.006 94.2722H109.008C109.456 94.2721 109.776 93.8379 109.643 93.4099L108.525 89.799C108.45 89.561 108.25 89.384 108.004 89.3404C108.004 89.3404 95.746 87.1643 77.7982 87.2991C77.7965 87.2991 77.7957 87.2993 77.7941 87.2993L77.7982 87.2991ZM108.23 94.99C103.825 94.9713 90.27 95.5263 69.9109 101.897C44.3605 109.891 29.818 121.257 29.818 121.257C29.1772 121.764 29.8373 122.757 30.5524 122.361C30.5524 122.361 68.3844 101.262 110.989 100.064C111.435 100.052 111.742 99.6136 111.601 99.1905L110.378 95.4849C110.292 95.2279 110.061 95.0479 109.79 95.0299C109.79 95.0299 109.248 94.9942 108.231 94.9899L108.23 94.99ZM136.087 94.9282C135.434 94.9378 135.184 95.7834 135.726 96.1466H135.728C135.766 96.1729 135.807 96.1945 135.852 96.2116C147.536 100.962 157.67 107.241 165.525 115.872C165.532 115.879 165.539 115.887 165.547 115.893L165.548 115.895C165.682 116.03 165.869 116.101 166.061 116.088L167.967 115.963C168.508 115.928 168.782 115.295 168.437 114.877C168.437 114.877 157.399 101.5 136.353 94.9805C136.35 94.9796 136.348 94.9779 136.346 94.977C136.335 94.973 136.324 94.9692 136.314 94.9657C136.308 94.9634 136.301 94.9617 136.295 94.9595C136.228 94.9381 136.157 94.9274 136.087 94.9282ZM169.356 123.094C169.738 123.171 170.459 124.589 171.121 125.602C171.179 125.685 171.238 125.772 171.293 125.842C171.293 125.848 171.295 125.852 171.299 125.859C171.374 125.965 171.449 126.075 171.52 126.164C171.556 126.376 171.616 126.506 171.121 126.404C171.079 126.186 171.007 126.123 171.007 126.123C171.007 126.123 169.811 125.412 169.444 124.906C169.078 124.401 169.013 123.518 169.192 123.183C169.235 123.109 169.291 123.082 169.356 123.094Z" fill="black"/>
<path d="M46.0502 70.8022C32.9244 70.8173 24.2441 71.8805 24.2441 71.8805C24.2441 71.8805 72.2363 69.5772 110.682 85.1423C111.989 90.9879 115.92 100.723 118.038 105.404C111.979 109.593 105.145 113.533 104.081 127.504C103.018 141.476 115.03 153.765 129.926 154.144C144.07 154.898 153.844 155.005 165.688 161.146C176.995 167.398 186.266 186.447 187.183 203.58C188.174 190.869 183.404 163.532 161.144 155.231C192.25 160.674 194.992 183.731 194.993 183.74C194.993 183.74 197.312 157.119 155.489 150.983C150.188 150.205 143.484 149.606 136.704 149.589C103.183 150.032 101.96 110.927 127.22 108.953C137.688 108.088 150.187 113.736 162.407 119.427C162.362 120.944 162.425 122.292 163.422 123.539C164.419 124.786 168.247 126.144 169.471 126.846C170.695 127.549 174.614 130.041 177.016 133.167C177.537 132.193 181.887 129.361 181.887 129.361C181.887 129.361 180.845 129.384 178.421 128.478C175.997 127.572 173.119 124.83 173.051 124.671C172.984 124.513 172.938 124.264 173.505 124.15C173.935 123.789 172.961 122.611 172.53 122.18C172.1 121.75 169.222 116.856 169.155 116.743C169.087 116.63 169.064 116.516 168.86 116.38C168.226 116.176 165.438 116.675 165.438 116.675C165.438 116.675 161.153 114.569 159.676 110.032C159.697 110.826 158.94 111.694 159.676 113.521C157.441 112.576 155.521 110.963 154.008 106.979C153.107 109.245 154.008 110.686 154.008 110.686C154.008 110.686 148.746 109.215 147.904 104.362C146.98 106.541 147.904 107.851 147.904 107.851C147.904 107.851 139.325 103.375 125.071 103.31C115.528 102.435 113.54 85.6466 114.425 82.8205C114.425 82.8205 100.66 75.5656 73.5636 72.3609C63.4025 71.1589 53.9261 70.7911 46.0503 70.8001L46.0502 70.8022ZM77.8027 85.2899C73.6732 85.321 69.2404 85.4751 64.5834 85.8061C39.747 87.5714 14.671 96.2653 14.671 96.2653C14.671 96.2653 65.9821 83.3546 109.012 90.9319H109.013L107.894 87.3209C107.894 87.3209 95.6987 85.155 77.8044 85.2898L77.8027 85.2899ZM108.226 92.9803C103.883 92.962 90.3979 93.5081 70.1087 99.8565C44.6607 107.819 30.2278 119.106 30.2278 119.106C30.2278 119.106 68.157 97.928 110.967 96.7249L109.743 93.0197C109.743 93.0197 109.228 92.9847 108.226 92.9803ZM136.096 92.9182C147.847 97.6954 158.076 104.025 166.017 112.748L166.018 112.749L167.923 112.625C167.923 112.625 157.001 99.373 136.096 92.9182ZM168.488 118.392L170.826 120.115C171.119 119.607 172.301 122.817 173.019 123.709C173.05 123.887 171.825 125.318 171.409 125.233C171.373 125.049 169.471 124.499 169.471 124.499C169.471 124.499 167.309 123.193 167.001 122.769C166.692 122.345 168.337 118.674 168.488 118.392Z" fill="white" stroke="white" stroke-width="0.55995" stroke-linejoin="round"/>
<path d="M46.0502 70.8022C32.9244 70.8173 24.2441 71.8805 24.2441 71.8805C24.2441 71.8805 72.2363 69.5772 110.682 85.1423C111.989 90.9879 115.92 100.723 118.038 105.404C111.979 109.593 105.145 113.533 104.081 127.504C103.018 141.476 115.03 153.765 129.926 154.144C144.07 154.898 153.844 155.005 165.688 161.146C176.995 167.398 186.266 186.447 187.183 203.58C188.174 190.869 183.404 163.532 161.144 155.231C192.25 160.674 194.992 183.731 194.993 183.74C194.993 183.74 197.312 157.119 155.489 150.983C150.188 150.205 143.484 149.606 136.704 149.589C103.183 150.032 101.96 110.927 127.22 108.953C137.688 108.088 150.187 113.736 162.407 119.427C162.362 120.944 162.425 122.292 163.422 123.539C164.419 124.786 168.247 126.144 169.471 126.846C170.695 127.549 174.614 130.041 177.016 133.167C177.537 132.193 181.887 129.361 181.887 129.361C181.887 129.361 180.845 129.384 178.421 128.478C175.997 127.572 173.119 124.83 173.051 124.671C172.984 124.513 172.938 124.264 173.505 124.15C173.935 123.789 172.961 122.611 172.53 122.18C172.1 121.75 169.222 116.856 169.155 116.743C169.087 116.63 169.064 116.516 168.86 116.38C168.226 116.176 165.438 116.675 165.438 116.675C165.438 116.675 161.153 114.569 159.676 110.032C159.697 110.826 158.94 111.694 159.676 113.521C157.441 112.576 155.521 110.963 154.008 106.979C153.107 109.245 154.008 110.686 154.008 110.686C154.008 110.686 148.746 109.215 147.904 104.362C146.98 106.541 147.904 107.851 147.904 107.851C147.904 107.851 139.325 103.375 125.071 103.31C115.528 102.435 113.54 85.6466 114.425 82.8205C114.425 82.8205 100.66 75.5656 73.5636 72.3609C63.4025 71.1589 53.9261 70.7911 46.0503 70.8001L46.0502 70.8022ZM77.8027 85.2899C73.6732 85.321 69.2404 85.4751 64.5834 85.8061C39.747 87.5714 14.671 96.2653 14.671 96.2653C14.671 96.2653 65.9821 83.3546 109.012 90.9319H109.013L107.894 87.3209C107.894 87.3209 95.6991 85.2898 77.8044 85.2898L77.8027 85.2899ZM108.226 92.9803C103.883 92.962 90.3979 93.5081 70.1087 99.8565C44.6607 107.819 30.2278 119.106 30.2278 119.106C30.2278 119.106 68.157 97.928 110.967 96.7249L109.743 93.0197C109.743 93.0197 109.228 92.9847 108.226 92.9803ZM136.096 92.9182C147.847 97.6954 158.076 104.025 166.017 112.748L166.018 112.749L167.923 112.625C167.923 112.625 157.001 99.373 136.096 92.9182ZM169.356 120.419C169.738 120.495 170.46 121.914 171.122 122.927C171.181 123.009 171.24 123.097 171.296 123.166C171.297 123.172 171.297 123.176 171.298 123.182C171.373 123.289 171.449 123.4 171.52 123.489C171.556 123.701 171.616 123.83 171.121 123.728C171.079 123.51 171.007 123.448 171.007 123.448C171.007 123.448 169.811 122.735 169.444 122.231C169.076 121.726 169.011 120.843 169.191 120.508C169.235 120.432 169.291 120.405 169.356 120.419Z" fill="white"/>
<linearGradient id="linearGradient" x1="94.121" y1="171.767" x2="146.989" y2="118.898" gradientUnits="userSpaceOnUse">
<stop stop-color="#249EFF"/>
<stop offset="1" stop-color="#2777FF"/>
</linearGradient>
</svg>