<svg width="256" height="256" title="Kitty" viewBox="0 0 256 256" xmlns="http://www.w3.org/2000/svg" id="kitty">
<style>
#kitty {
    rect {fill: #15191C}

    @media (prefers-color-scheme: light) {
        rect {fill: #F4F2ED}
    }
}
</style>
<rect width="256" height="256" rx="40" fill="#15191C"/>
<path d="M87.387848 57.208759 L173.858193 57.208759 L173.858193 196.282659 L87.387848 196.282659 Z" fill="#ffffff"/>
<path d="m 83.145117,211.80572 h 89.709893 c 3.3364,0 6.08203,-2.75209 6.08203,-6.08526 0,0 0,0 0,0 v -89.70909 c 0,-3.33639 -2.74563,-6.08202 -6.08203,-6.08202 H 83.145117 c -3.336399,0 -6.082027,2.74563 -6.082027,6.08202 v 89.70909 c 0,3.33317 2.745628,6.08526 6.082027,6.08526 m 48.047693,-33.01695 h 32.2349 c 2.00151,0 3.64954,1.64641 3.64954,3.64792 0,2.00152 -1.64803,3.64793 -3.64954,3.64793 h -32.2341 c -2.00151,0 -3.64873,-1.64641 -3.64873,-3.64793 0,-2.00151 1.64722,-3.64792 3.64873,-3.64792 M 92.427148,139.43638 c -0.624667,-0.66986 -0.971704,-1.55763 -0.971704,-2.47769 0,-2.00151 1.647216,-3.64792 3.648732,-3.64792 0.920052,0 1.806207,0.34704 2.480912,0.96847 l 22.795492,22.78339 c 1.41317,1.42043 1.41317,3.74478 0,5.15714 L 97.585088,185.0193 c -0.676319,0.6295 -1.567317,0.98461 -2.493018,0.98461 -2.001516,0 -3.648732,-1.64641 -3.648732,-3.64792 0,-0.92812 0.35188,-1.81589 0.98381,-2.49383 l 20.216932,-20.21693 z"/>
<path d="m 107.41269,98.541688 c 1.61897,0 2.91431,-3.076524 2.91431,-7.032747 0,-3.956223 -1.29534,-7.032747 -2.91431,-7.032747 -1.61896,0 -2.9143,3.076524 -2.9143,7.033554 0,3.955416 1.29453,7.032747 2.9143,7.032747" fill="#c0c81f"/>
<path d="m 190.9534,45.807385 c -3.95622,-4.174937 -21.97794,0.880505 -32.96691,7.692924 -8.57182,-4.395265 -18.90142,-7.033554 -29.89039,-7.033554 -11.20849,0 -21.53889,2.638289 -30.109902,7.033554 C 86.997228,46.68789 68.755183,41.41212 65.019289,45.807385 c -3.956223,4.396072 2.85781,22.63731 10.988969,32.747388 -0.65937,2.638289 -1.098412,5.275771 -1.098412,8.131967 0,8.791337 3.735894,16.92411 10.110078,23.51701 h 36.262956 c -1.09841,-2.19763 0.43985,-3.51637 7.03275,-3.51637 6.5937,0.21952 7.91163,1.31874 7.03355,3.51637 h 36.26295 c 6.37419,-6.59371 10.11008,-14.944387 10.11008,-23.51701 0,-2.856196 -0.43904,-5.493678 -1.09841,-8.131967 7.69212,-10.110078 14.28582,-28.570837 10.3296,-32.747388 m -83.51649,58.022985 c -7.692122,0 -14.066305,-6.374182 -14.066305,-14.067106 0,-7.692118 6.374183,-14.065494 14.067105,-14.065494 7.69212,0 14.0655,6.374184 14.0655,14.066301 0,7.692925 -6.37419,14.066299 -14.0663,14.066299 m 41.31839,0 c -7.69211,0 -14.0663,-6.374182 -14.0663,-14.067106 0,-7.692118 6.37419,-14.065494 14.0663,-14.065494 7.69293,0 14.06711,6.374184 14.06711,14.066301 0,7.692925 -6.15547,14.066299 -14.06711,14.066299" fill="#784421"/>
<path d="m 169.75831,102.95148 c 13.1866,-16.484261 40.21918,-24.396707 58.2417,-12.967888 -21.09905,-3.296852 -40.21998,2.19844 -58.2417,12.967888" fill="#2b1100"/>
<path d="m 168.87942,98.995258 c 7.47179,-17.582675 29.67006,-29.010687 47.47225,-22.857639 -18.68109,2.417154 -33.8458,9.670229 -47.47225,22.856832 m -0.22033,8.571819 c 13.62726,-12.967085 43.73717,-17.363157 52.96755,-3.7359 -18.68109,-5.934332 -34.94583,-3.29766 -52.96674,3.7359" fill="#2b1100"/>
<path d="M 86.241817,102.95148 C 73.055215,86.467219 46.02264,78.554773 28.000116,89.983592 49.099164,86.68674 68.220101,92.182032 86.241817,102.95148" style="fill:#2b1100;"/>
<path d="M 87.120709,98.995258 C 79.64892,81.412583 57.450652,69.984571 39.648456,76.137619 c 18.681087,2.417154 33.845801,9.670229 47.472253,22.856832 m 0.220328,8.571819 C 73.713778,94.599185 43.603872,90.203113 34.373492,103.83037 53.05458,97.896038 69.31932,100.53271 87.34023,107.56627" fill="#2b1100"/>
<path d="m 69.977884,94.599185 c -5.494485,0 -10.109271,2.857811 -12.306904,7.253075 h -0.65937 c -5.934335,0 -10.98897,4.39527 -10.98897,9.88975 0,7.69212 7.910831,11.86867 15.163906,9.23038 4.395266,6.37418 13.845973,6.81403 17.363961,0 5.27335,-0.21952 13.845166,-1.09841 15.163907,-9.23038 0.878891,-5.49448 -4.835922,-9.88975 -10.98897,-9.88975 H 82.066073 C 80.30829,97.456188 75.472369,94.599185 69.978691,94.599185 m 116.044359,0 c 5.49449,0 10.10927,2.857811 12.30691,7.253075 h 0.66017 c 3.07653,0 10.98897,4.39527 10.98897,9.88975 0,7.69212 -7.91164,11.86867 -15.16471,9.23038 -4.39607,6.37418 -13.84597,6.81403 -17.36315,0 -5.27416,-0.21952 -13.84598,-1.09841 -15.16472,-9.23038 -0.87889,-5.49448 7.91164,-9.88975 10.98897,-9.88975 h 0.65937 c 1.75778,-4.396072 6.59371,-7.253075 12.08738,-7.253075" fill="#483737"/>
<path d="m 148.26622,98.541688 c 1.61978,0 2.91511,-3.076524 2.91511,-7.032747 0,-3.956223 -1.29533,-7.032747 -2.91511,-7.032747 -1.61816,0 -2.9143,3.076524 -2.9143,7.033554 0,3.955416 1.29533,7.032747 2.9143,7.032747" fill="#c0c81f"/>
</svg>