<svg viewBox="0 0 256 256" xmlns="http://www.w3.org/2000/svg" xml:space="preserve" style="fill-rule:evenodd;clip-rule:evenodd;stroke-linejoin:round;stroke-miterlimit:2"><path d="M256 40v176c0 22.077-17.923 40-40 40H40c-22.077 0-40-17.923-40-40V40C0 17.923 17.923 0 40 0h176c22.077 0 40 17.923 40 40" style="fill:#15191c"/><path d="M96.134 193.911c-35.003 0-63.474-15.655-80.162-44.082C1.198 124.912-.006 97.923-.006 67.766c0-17.878 5.379-33.444 15.547-45.019C24.886 12.116 38.127 5.229 52.832 3.354 70.286 1.143 91.985.959 114.545.959c36.714 0 47.085.45 61.53 1.894 19.215 1.907 35.383 9.079 46.749 20.743 11.544 11.847 17.645 27.666 17.645 45.767v3.636c0 30.886-20.648 56.734-49.423 63.76-2.148 5.068-4.809 10.112-7.957 15.078l-.083.127c-10.137 15.668-33.964 41.954-79.605 41.954h-7.273z" style="fill:#fff;fill-rule:nonzero" transform="translate(44.69 60.483)scale(.69292)"/><path d="M174.568 17.977c-13.641-1.362-23.188-1.818-60.016-1.818-23.644 0-43.651.228-59.788 2.274-21.369 2.731-39.558 19.096-39.558 49.334 0 30.24 1.59 53.655 13.868 74.34 13.869 23.644 37.056 36.6 67.067 36.6h7.273c36.828 0 56.836-19.551 66.839-35.009 4.321-6.824 7.501-13.64 9.548-20.464 26.146-2.274 45.469-23.872 45.469-50.24v-3.636c0-28.415-18.639-48.194-50.696-51.381z" style="fill:#fff;fill-rule:nonzero" transform="translate(44.69 60.483)scale(.69292)"/><path d="M15.198 67.767c0-30.238 18.189-46.603 39.558-49.334 16.143-2.046 36.15-2.274 59.788-2.274 36.828 0 46.375.456 60.015 1.818 32.058 3.181 50.696 22.96 50.696 51.381v3.636c0 26.375-19.323 47.972-45.469 50.24-2.046 6.824-5.227 13.64-9.548 20.464-10.003 15.458-30.01 35.009-66.838 35.009h-7.274c-30.01 0-53.198-12.956-67.066-36.6-12.279-20.685-13.869-43.651-13.869-74.34" style="fill:#202020;fill-rule:nonzero" transform="translate(44.69 60.483)scale(.69292)"/><path d="M32.247 67.99c0 29.327 1.818 48.194 11.366 65.699 10.91 20.235 30.689 27.964 53.199 27.964h7.045c29.554 0 43.879-14.324 51.836-26.824 3.865-6.367 7.273-13.412 9.091-22.282l1.363-5.683h8.185c18.189 0 33.876-14.774 33.876-33.647v-3.409c0-21.141-13.184-32.285-36.15-35.009-12.956-1.134-20.686-1.591-57.52-1.591-24.778 0-42.511.228-55.923 2.275-18.867 2.73-26.374 13.412-26.374 32.507" style="fill:#fff;fill-rule:nonzero" transform="translate(44.69 60.483)scale(.69292)"/><path d="M166.158 83.68c0 2.731 2.046 4.777 5.683 4.777 11.594 0 17.961-6.595 17.961-17.505s-6.367-17.733-17.961-17.733c-3.637 0-5.683 2.047-5.683 4.777v25.691z" style="fill:#202020;fill-rule:nonzero" transform="translate(44.69 60.483)scale(.69292)"/><path d="M54.532 82.32c0 13.412 7.501 25.006 17.049 34.104 6.367 6.138 16.371 12.506 23.188 16.598 2.046 1.135 4.092 1.819 6.367 1.819 2.73 0 4.998-.684 6.823-1.819 6.823-4.092 16.82-10.46 22.96-16.598 9.775-9.092 17.276-20.686 17.276-34.104 0-14.553-10.909-27.508-26.596-27.508-9.319 0-15.687 4.776-20.463 11.365-4.321-6.595-10.91-11.365-20.236-11.365-15.914 0-26.374 12.955-26.374 27.508" style="fill:#ff5a16;fill-rule:nonzero" transform="translate(44.69 60.483)scale(.69292)"/></svg>