<svg width="256" height="256" title="Lando" viewBox="0 0 256 256" fill="none" xmlns="http://www.w3.org/2000/svg" id="lando">
<style>
#lando {
    rect {fill: #15191C}

    @media (prefers-color-scheme: light) {
        rect {fill: #F4F2ED}
    }
}
</style>
<rect width="256" height="256" rx="40" fill="#15191C"/>
<path d="M123.269 46.0467C123.245 46.0703 122.301 46.1883 121.215 46.2591C118.288 46.4951 117.343 46.6367 112.928 47.4389C110.803 47.8166 108.206 48.4301 105.845 49.1144C102.752 50.0112 97.1092 51.9933 96.7551 52.3238C96.637 52.4417 96.4245 52.5362 96.2593 52.5362C95.7634 52.5362 90.0499 55.3679 87.0751 57.0906C84.6433 58.5065 80.8185 60.9842 79.638 61.9045C79.4492 62.0461 78.4339 62.8485 77.3951 63.6508C75.2465 65.3262 72.5079 67.7569 70.0761 70.1639C58.6017 81.5145 50.3147 97.1128 47.4107 112.829C47.1746 113.985 46.9857 115.118 46.9385 115.307C46.8913 115.52 46.7968 116.322 46.7024 117.077C46.608 117.856 46.4899 118.705 46.4427 118.964C45.8524 122.15 45.8524 134.846 46.4427 138.126C46.4899 138.362 46.608 139.188 46.7024 139.967C46.7968 140.722 46.9149 141.571 46.9621 141.855C47.0093 142.114 47.1274 142.704 47.1982 143.153C47.5523 145.371 48.6384 149.76 49.5828 152.828C53.62 165.901 60.6558 177.512 70.3121 187.092C78.8116 195.54 88.893 201.935 100.179 206.088C105.113 207.882 112.149 209.676 116.824 210.288C117.343 210.336 118.145 210.454 118.594 210.525C123.127 211.162 133.445 211.162 138.615 210.501C145.603 209.628 153.914 207.41 160.384 204.696C163.169 203.539 168.788 200.732 169.992 199.93C170.488 199.575 170.96 199.316 171.078 199.316C171.173 199.316 171.386 199.198 171.551 199.079C171.716 198.938 173.062 198.041 174.549 197.051C180.688 192.991 185.929 188.343 191.43 182.066C191.831 181.617 192.516 180.791 192.965 180.201C193.414 179.611 193.862 179.022 193.98 178.903C197.711 174.349 202.597 165.759 205.194 159.199C206.871 154.998 208.665 149.1 209.373 145.513C209.846 143.058 210.224 140.911 210.318 139.849C210.412 139.141 210.507 138.409 210.578 138.221C211.145 136.451 211.145 119.578 210.554 118.611C210.507 118.54 210.412 117.856 210.318 117.101C210.247 116.322 210.129 115.637 210.106 115.567C210.059 115.496 209.94 114.882 209.869 114.245C209.61 112.263 208.595 108.039 207.579 104.688C203.14 89.939 194.287 76.2521 182.718 66.2938C181.419 65.1374 180.286 64.17 180.216 64.0992C179.484 63.344 171.645 57.9636 171.244 57.9636C171.125 57.9636 171.008 57.8457 171.008 57.7277C171.008 57.5861 170.89 57.4917 170.772 57.4917C170.63 57.4917 170.087 57.2085 169.52 56.8546C166.805 55.1319 159.935 52.017 155.662 50.5539C148.956 48.2413 145.486 47.4862 136.301 46.2591C135.192 46.1175 123.41 45.9051 123.269 46.0467ZM134.176 56.6422C135.381 56.7366 136.561 56.8546 136.844 56.9017C137.128 56.949 137.836 57.0433 138.426 57.1141C141.26 57.4681 146.501 58.5773 148.602 59.2851C149.192 59.474 149.877 59.6627 150.137 59.7099C151.459 59.9695 158.235 62.7304 160.974 64.1463C163.902 65.633 169.284 68.8423 170.347 69.7391C170.512 69.8807 171.456 70.6122 172.424 71.3438C178.445 75.8982 185.198 83.1428 188.833 88.9715C191.666 93.5022 193.437 96.8532 195.066 100.77C196.152 103.343 196.176 103.437 195.727 103.06C195.09 102.54 191.123 101.195 189.022 100.794C185.245 100.086 182.553 99.8737 176.91 99.8737C169.496 99.8502 165.625 100.157 165.105 100.818C164.704 101.266 165.412 101.549 167.324 101.738C173.227 102.257 177.524 104.405 178.303 107.212C179.318 110.847 176.697 113.655 168.718 117.454C166.852 118.351 165.294 119.082 165.223 119.082C165.176 119.082 164.917 118.304 164.633 117.36C161.328 105.773 153.348 96.7588 142.416 92.2279C140.622 91.4965 137.057 90.3874 135.735 90.175C135.333 90.1042 134.366 89.939 133.586 89.7974C131.792 89.4671 126.432 89.3726 124.19 89.6322C111.417 91.0717 100.415 98.5995 94.6538 109.879C92.5053 114.08 91.5373 117.053 90.8527 121.513C90.0027 127.035 90.4276 132.864 92.0567 138.268C92.4109 139.401 92.6469 140.368 92.5997 140.415C92.5525 140.486 91.6553 140.627 90.6165 140.769C89.5777 140.911 88.2084 141.1 87.5473 141.194C86.9098 141.288 84.9974 141.359 83.2975 141.382C78.8116 141.382 76.5923 140.509 75.6007 138.338C74.1369 135.106 76.3563 131.07 82.1878 126.421C83.2739 125.548 83.4628 124.982 82.6837 124.982C82.0934 124.982 78.2686 126.964 74.9633 128.97C73.7592 129.702 72.437 130.504 72.012 130.764C70.9732 131.401 65.7554 135.2 64.8819 135.955C62.0251 138.48 59.9239 140.769 58.6726 142.798C58.2475 143.436 57.917 143.861 57.917 143.742C57.917 143.601 57.7518 142.61 57.5629 141.5C57.374 140.392 57.1379 138.952 57.0671 138.315C56.9962 137.654 56.9018 136.993 56.831 136.805C56.3116 135.247 56.3116 122.977 56.831 120.38C56.8782 120.121 56.9962 119.272 57.0671 118.493C57.3032 116.416 58.46 110.917 59.0975 108.818C61.1988 102.021 63.5125 96.688 66.6999 91.3784C76.3798 75.2847 92.0567 63.5328 110.213 58.7896C114.533 57.6569 119.539 56.8309 123.434 56.6186C124.733 56.5478 125.819 56.477 125.842 56.4534C125.96 56.359 132.264 56.5006 134.176 56.6422ZM199.174 113.773C200.355 120.758 200.59 123.212 200.59 128.049C200.614 131.07 200.355 136.262 200.19 136.828C200.118 136.993 200.024 137.654 199.953 138.315C198.985 146.952 195.326 157.359 190.344 165.618C189.069 167.742 185.811 172.556 185.433 172.886C185.339 172.956 184.82 173.594 184.229 174.302C181.962 177.086 178.563 180.579 175.848 182.915C174.951 183.694 174.006 184.52 173.747 184.732C173.51 184.945 172.093 186.006 170.63 187.044C152.167 200.212 129.242 204.012 107.521 197.498C100.627 195.446 92.4109 191.41 86.6029 187.21C80.9602 183.151 75.8368 178.196 71.044 172.178C70.3121 171.258 67.5498 167.152 66.5582 165.476C64.693 162.408 62.6154 158.114 61.3404 154.81L60.7974 153.347L62.332 154.031C64.1264 154.857 67.4554 155.753 69.958 156.108C70.926 156.249 72.1537 156.438 72.6731 156.509C74.2077 156.722 85.2335 156.792 87.6653 156.58C88.893 156.485 90.711 156.32 91.679 156.249C93.7567 156.084 99.1633 155.423 101.359 155.093C101.548 155.045 102.539 155.753 103.578 156.651C108.347 160.78 113.612 163.518 119.539 164.934C123.057 165.807 123.457 165.854 127.92 165.924C135.948 166.066 142.794 164.108 149.405 159.718C156.889 154.786 162.508 147.046 164.869 138.409L165.436 136.379L169.804 134.28C183.828 127.554 194.028 120.38 197.946 114.481C198.489 113.655 198.985 112.971 199.009 113.018C199.032 113.041 199.103 113.372 199.174 113.773Z" fill="#DD3F8F"/>
</svg>