<svg width="256" height="256" title="LangChain" viewBox="0 0 256 256" fill="none" xmlns="http://www.w3.org/2000/svg">
<rect width="256" height="256" rx="40" fill="#000000"/>
<path d="M77.053 53C77.4134 53.3242 77.6849 53.6644 77.9909 53.9704C87.991 63.9748 97.9869 73.9837 108 83.975C114.454 90.415 118.459 98.1488 120.186 107.065C120.871 110.596 121.109 114.195 120.855 117.78C120.281 125.885 117.831 133.393 113.178 140.092C111.802 142.07 110.11 143.83 108.575 145.7C108.087 146.294 107.697 146.249 107.157 145.708C97.0895 135.618 86.9787 125.568 76.9417 115.446C73.6772 112.155 70.8934 108.461 68.7858 104.302C66.605 99.9968 65.0727 95.4818 64.4333 90.6833C64.3381 89.9685 64.2441 89.2539 64.0744 88.4885C63.9995 85.5892 63.9995 82.7409 64.0744 79.7391C64.6835 76.8437 65.0556 74.0578 65.7886 71.3702C66.9589 67.0792 68.8101 63.0504 71.4627 59.4577C73.1057 57.2323 74.94 55.1478 76.6884 53C76.7856 53 76.8828 53 77.053 53Z" fill="#7FC8FF"/>
<path d="M168.897 193C167.571 192.784 166.353 192.545 165.126 192.356C161.616 191.813 158.276 190.735 155.034 189.296C150.403 187.239 146.238 184.506 142.62 180.944C139.795 178.162 136.921 175.429 134.111 172.63C126.573 165.12 119.068 157.575 111.515 150.079C110.754 149.323 110.774 148.888 111.536 148.179C115.841 144.178 120.686 141.055 126.193 138.975C130.056 137.517 134.042 136.698 138.16 136.306C143.714 135.776 149.112 136.426 154.44 137.92C160.075 139.5 165.065 142.329 169.663 145.889C170.493 146.529 171.268 147.25 172.01 147.991C182.639 158.596 193.258 169.212 203.948 179.851C204.017 179.972 204.017 180.07 203.948 180.265C200.094 184.222 195.696 187.178 190.751 189.35C187.543 190.758 184.231 191.791 180.771 192.354C179.547 192.553 178.329 192.784 177.108 193C174.405 193 171.702 193 168.897 193Z" fill="#7FC8FF"/>
<path d="M64 148.915C78.6744 148.813 93.3488 148.813 108.192 148.813C108.192 163.541 108.192 178.168 108.192 192.897C107.093 193 105.995 193 104.741 192.924C102.944 192.644 101.283 192.537 99.6628 192.218C94.9765 191.296 90.5349 189.705 86.3543 187.344C81.5814 184.649 77.4406 181.217 73.9754 176.999C71.3607 173.818 69.1947 170.333 67.5953 166.514C66.245 163.291 65.1902 159.983 64.6508 156.522C64.4433 155.191 64.2175 153.862 64 152.532C64 151.359 64 150.188 64 148.915Z" fill="#7FC8FF"/>
<path d="M171.145 117.04C165.346 122.839 159.601 128.584 153.9 134.285C143.507 123.893 133.152 113.54 122.796 103.183C138.97 85.8378 168.623 85.9018 185.017 103.171C180.413 107.774 175.807 112.379 171.145 117.04Z" fill="#7FC8FF"/>
</svg>