<svg width="256" height="256" title="LangChain" viewBox="0 0 256 256" fill="none" xmlns="http://www.w3.org/2000/svg">
<rect width="256" height="256" rx="40" fill="#1C3C3C"/>
<path d="M83.0116 81C57.0892 81 36 102.034 36 127.886C36 153.738 57.09 174.772 83.0116 174.772H173.988C199.911 174.772 221 153.738 221 127.886C221 102.034 199.91 81 173.988 81H83.0116ZM82.0758 95.9041C85.876 95.9996 89.9383 97.8281 91.8885 100.705C94.7198 104.244 95.5715 108.928 98.7828 112.215C103.103 116.931 108.025 121.083 112.011 126.105C115.782 130.695 118.475 136.078 120.826 141.503C121.785 143.303 121.795 145.513 123.216 147.05C123.916 147.978 127.337 150.506 126.595 151.402C127.022 152.33 130.219 153.606 129.11 154.506C127.611 154.814 125.927 154.873 124.781 153.678C124.358 154.649 123.37 154.137 122.608 154.011C122.542 154.2 122.477 154.389 122.415 154.578C119.881 154.747 117.98 152.169 116.773 150.223C114.374 148.928 111.653 148.14 109.203 146.785C109.063 149.017 109.551 151.784 107.422 153.224C107.314 157.514 113.925 153.73 114.531 156.927C114.061 156.979 113.54 156.854 113.164 157.215C111.438 158.889 109.46 155.947 107.471 157.161C104.801 158.502 104.536 159.597 101.23 159.874C101.048 159.597 101.12 159.418 101.276 159.249C102.206 158.17 102.274 156.901 103.863 156.441C102.227 156.183 100.857 157.083 99.4797 157.795C97.689 158.527 97.7037 156.145 94.9487 157.921C94.6435 157.673 94.7884 157.447 94.9626 157.255C95.6625 156.402 96.5829 156.276 97.622 156.324C92.5113 153.483 90.1056 159.798 87.7453 156.657C87.0361 156.845 86.7702 157.481 86.3231 157.931C85.9377 157.508 86.2283 156.996 86.2468 156.499C85.7858 156.283 85.2015 156.183 85.338 155.446C84.4353 155.142 83.8055 155.674 83.1334 156.18C82.5267 155.711 83.5435 155.03 83.7315 154.542C84.2727 153.605 85.5045 154.349 86.1296 153.674C87.9071 152.666 90.3846 154.302 92.4158 154.025C93.9805 154.221 95.9184 152.618 95.1337 151.019C93.4602 148.886 93.7539 146.096 93.7161 143.545C93.5096 142.058 89.9314 140.168 88.8969 138.564C87.6181 137.121 86.6229 135.445 85.6263 133.799C82.0295 126.855 83.1611 117.932 78.6294 111.486C76.579 112.616 73.908 112.082 72.1405 110.568C71.1862 111.436 71.1446 112.571 71.0691 113.776C68.7797 111.493 69.0703 107.178 70.8995 104.638C71.6464 103.634 72.539 102.808 73.5357 102.082C73.7608 101.917 73.8371 101.759 73.8325 101.506C74.7375 97.4457 78.2756 95.8085 82.0758 95.9041ZM177.714 99.4499C182.011 99.4499 186.043 101.114 189.076 104.138C192.108 107.162 193.778 111.187 193.778 115.472C193.778 119.758 192.108 123.782 189.076 126.802L182.123 133.74C180.272 135.588 177.997 136.956 175.496 137.723L175.37 137.759L175.325 137.885C174.525 140.003 173.279 141.924 171.671 143.518L164.72 150.452C161.687 153.477 157.651 155.141 153.354 155.141C149.057 155.141 145.024 153.476 141.992 150.452C135.725 144.203 135.725 134.038 141.992 127.788L148.944 120.854C150.789 119.009 153.06 117.647 155.558 116.89L155.689 116.849L155.734 116.727C156.538 114.603 157.787 112.675 159.397 111.072L166.348 104.138C169.38 101.113 173.417 99.4499 177.714 99.4499ZM177.714 106.36C176.513 106.357 175.324 106.59 174.214 107.048C173.104 107.506 172.096 108.18 171.248 109.029L164.297 115.963C163.368 116.891 162.651 118.009 162.195 119.239C161.74 120.47 161.555 121.786 161.655 123.094L161.696 123.535C161.945 125.58 162.844 127.423 164.297 128.867C165.299 129.866 166.403 130.497 167.743 130.938C167.815 131.34 167.851 131.748 167.851 132.157C167.854 133.06 167.678 133.954 167.333 134.789C166.988 135.623 166.48 136.38 165.84 137.016L165.413 137.444C163.09 136.651 161.154 135.493 159.405 133.75C157.092 131.454 155.542 128.502 154.964 125.295L154.888 124.85L154.533 125.133C154.297 125.325 154.071 125.529 153.857 125.745L146.901 132.679C143.338 136.233 143.338 142.021 146.901 145.575C148.683 147.352 151.025 148.242 153.372 148.243C155.717 148.243 158.056 147.352 159.837 145.574L166.79 138.641C170.353 135.087 170.353 129.304 166.79 125.745C165.839 124.797 164.689 124.073 163.423 123.626C163.354 123.215 163.318 122.8 163.315 122.384C163.315 120.386 164.104 118.491 165.552 117.047C167.879 117.84 169.945 119.124 171.689 120.863C174.007 123.175 175.539 126.097 176.126 129.317L176.207 129.763L176.558 129.475C176.796 129.284 177.025 129.08 177.241 128.863L184.194 121.929C187.757 118.375 187.762 112.583 184.194 109.029C183.345 108.179 182.336 107.505 181.226 107.047C180.115 106.589 178.925 106.356 177.723 106.36H177.714ZM100.839 146.11C100.227 148.483 100.026 152.526 96.9336 152.644C96.6792 154.013 97.8802 154.528 98.9802 154.088C100.067 153.591 100.584 154.48 100.951 155.365C102.629 155.61 105.109 154.807 105.203 152.823C102.698 151.384 101.925 148.647 100.839 146.11Z" fill="white"/>
</svg>