<svg width="256" height="256" viewBox="0 0 256 256" fill="none" xmlns="http://www.w3.org/2000/svg">
<g clip-path="url(#clip0_10_30)">
<path d="M216 0H40C17.9086 0 0 17.9086 0 40V216C0 238.091 17.9086 256 40 256H216C238.091 256 256 238.091 256 216V40C256 17.9086 238.091 0 216 0Z" fill="black"/>
<path d="M79.1871 68C79.496 68.2779 79.7287 68.5695 79.9909 68.8318C88.5615 77.407 97.1285 85.986 105.71 94.55C111.242 100.07 114.674 106.699 116.154 114.341C116.741 117.368 116.945 120.453 116.728 123.526C116.236 130.473 114.136 136.908 110.148 142.65C108.969 144.346 107.519 145.854 106.203 147.457C105.785 147.966 105.451 147.928 104.988 147.464C96.3594 138.815 87.6939 130.201 79.0917 121.525C76.2939 118.704 73.908 115.538 72.1017 111.973C70.2326 108.283 68.9194 104.413 68.3714 100.3C68.2898 99.6873 68.2092 99.0748 68.0638 98.4187C67.9996 95.9336 67.9996 93.4922 68.0638 90.9192C68.5858 88.4375 68.9047 86.0495 69.5329 83.7459C70.5359 80.0679 72.1225 76.6146 74.3959 73.5352C75.8041 71.6277 77.3761 69.841 78.8746 68C78.9579 68 79.0412 68 79.1871 68Z" fill="#7FC8FF"/>
<path d="M157.902 188C156.766 187.815 155.722 187.61 154.67 187.448C151.662 186.983 148.799 186.059 146.021 184.825C142.052 183.062 138.482 180.719 135.381 177.666C132.96 175.282 130.497 172.939 128.089 170.54C121.628 164.103 115.196 157.636 108.723 151.211C108.071 150.563 108.088 150.19 108.741 149.582C112.43 146.153 116.583 143.476 121.303 141.693C124.613 140.443 128.03 139.741 131.559 139.405C136.319 138.951 140.945 139.508 145.512 140.789C150.341 142.143 154.618 144.568 158.559 147.619C159.27 148.168 159.934 148.786 160.57 149.421C169.68 158.511 178.781 167.61 187.943 176.729C188.002 176.833 188.002 176.917 187.943 177.084C184.64 180.476 180.87 183.01 176.632 184.871C173.883 186.078 171.044 186.964 168.079 187.446C167.03 187.617 165.986 187.815 164.939 188C162.623 188 160.306 188 157.902 188Z" fill="#7FC8FF"/>
<path d="M68 150.213C80.5767 150.125 93.1534 150.125 105.875 150.125C105.875 162.749 105.875 175.287 105.875 187.912C104.933 188 103.992 188 102.917 187.935C101.377 187.695 99.9531 187.603 98.5649 187.33C94.5485 186.539 90.7418 185.176 87.1588 183.152C83.0682 180.842 79.5193 177.9 76.5494 174.285C74.3085 171.558 72.4521 168.571 71.0814 165.298C69.9241 162.535 69.0201 159.7 68.5578 156.733C68.3799 155.592 68.1864 154.453 68 153.313C68 152.308 68 151.304 68 150.213Z" fill="#7FC8FF"/>
<path d="M159.829 122.891C154.859 127.862 149.935 132.786 145.049 137.673C136.142 128.765 127.267 119.891 118.391 111.014C132.253 96.1467 157.667 96.2015 171.718 111.004C167.772 114.949 163.824 118.896 159.829 122.891Z" fill="#7FC8FF"/>
</g>
<defs>
<clipPath id="clip0_10_30">
<rect width="256" height="256" fill="white"/>
</clipPath>
</defs>
</svg>
