<svg width="256" height="256" title="Laravel" viewBox="0 0 256 256" fill="none" xmlns="http://www.w3.org/2000/svg">
<rect width="256" height="256" rx="40" fill="#FF2D20"/>
<path d="M207.904 83.27C207.968 83.4932 208 83.7242 208 83.9564V119.296C208 120.223 207.499 121.081 206.703 121.534L177.032 138.623V172.488C177.031 172.941 176.912 173.386 176.685 173.778C176.459 174.171 176.134 174.497 175.742 174.725L113.793 210.374C113.649 210.452 113.497 210.514 113.34 210.559C113.285 210.573 113.23 210.614 113.175 210.628C112.744 210.751 112.288 210.751 111.857 210.628C111.782 210.614 111.72 210.573 111.651 210.545C111.514 210.49 111.363 210.449 111.226 210.374L49.2972 174.725C48.9032 174.499 48.5758 174.173 48.3481 173.781C48.1203 173.388 48.0002 172.942 48 172.488V66.4135C48 66.187 48.0343 65.9605 48.0961 65.7408C48.1167 65.6585 48.1647 65.6036 48.1922 65.5212C48.2335 65.3843 48.2863 65.2511 48.35 65.1231C48.3775 65.0339 48.453 64.9721 48.5079 64.8966L48.7344 64.5878C48.8167 64.5192 48.906 64.4642 48.9883 64.4025C49.0844 64.3201 49.1736 64.2378 49.2697 64.1691L80.2512 46.3448C80.6425 46.1189 81.0863 46 81.5381 46C81.9899 46 82.4337 46.1189 82.825 46.3448L113.793 64.1691H113.806C113.909 64.2378 113.992 64.3133 114.081 64.3956L114.342 64.5809C114.431 64.677 114.479 64.7868 114.568 64.8898C114.623 64.9653 114.706 65.0339 114.74 65.1163C114.809 65.2535 114.857 65.3771 114.905 65.5143C114.925 65.5898 114.973 65.6585 114.994 65.734C115.062 65.9467 115.09 66.1732 115.09 66.4066V132.652L140.896 117.8V83.9358C140.896 83.7093 140.924 83.4828 140.986 83.2631C141.006 83.1945 141.054 83.1259 141.075 83.0435C141.121 82.9051 141.176 82.7698 141.24 82.6386C141.288 82.5562 141.363 82.5013 141.411 82.4121C141.493 82.3091 141.555 82.2062 141.638 82.117C141.72 82.0346 141.809 81.9797 141.892 81.9248C141.988 81.8561 142.07 81.7669 142.173 81.7052H142.18L173.154 63.874C173.546 63.6481 173.99 63.5292 174.441 63.5292C174.893 63.5292 175.337 63.6481 175.728 63.874L206.703 81.7052C206.813 81.7738 206.888 81.8493 206.991 81.9179C207.073 81.9865 207.163 82.0415 207.238 82.1101C207.327 82.2062 207.389 82.316 207.472 82.4121C207.526 82.4944 207.602 82.5562 207.636 82.6386C207.712 82.7758 207.76 82.9131 207.801 83.0504C207.842 83.119 207.883 83.1945 207.904 83.27ZM202.825 117.807V88.4107L191.995 94.6427L177.019 103.263V132.659L202.825 117.807ZM171.871 170.998V141.575L157.135 149.982L115.09 173.991V203.675L171.871 170.998ZM53.1407 70.8747V170.998L109.922 203.675V173.991L80.2581 157.21L80.2443 157.189H80.2306C80.1345 157.12 80.059 157.045 79.9561 156.976C79.8806 156.908 79.7914 156.853 79.7159 156.791L79.709 156.777C79.6198 156.695 79.5649 156.606 79.4962 156.503C79.4276 156.427 79.3521 156.352 79.3041 156.256H79.2903C79.2354 156.16 79.2011 156.043 79.1531 155.933C79.1119 155.823 79.057 155.748 79.0295 155.638C79.0036 155.509 78.9852 155.378 78.9746 155.247C78.9609 155.151 78.9334 155.061 78.9334 154.965V85.734L63.9712 77.1067L53.1407 70.8747ZM81.5347 51.561L55.7282 66.4135L81.5347 81.2659L107.327 66.4135L81.5347 51.561ZM94.9595 144.251L109.935 135.631V70.8747L99.0913 77.1204L84.1153 85.734V150.49L94.9595 144.251ZM174.445 69.0971L148.638 83.9426L174.445 98.7882L200.244 83.9358L174.445 69.0971ZM171.864 103.263L156.895 94.6427L146.051 88.4176V117.814L161.027 126.434L171.871 132.666L171.864 103.263ZM112.496 169.523L150.34 147.917L169.256 137.127L143.47 122.282L113.8 139.365L86.7509 154.945L112.496 169.523Z" fill="white"/>
</svg>