<svg width="256" height="256" title="LaTeX" viewBox="0 0 256 256" fill="none" xmlns="http://www.w3.org/2000/svg">
<rect width="256" height="256" rx="40" fill="#008080"/>
<path d="M56.8667 61C58.5656 64.0625 60.3375 66.6875 62.1896 68.9479C63.9906 68.8531 70.4437 72.2729 71.7562 72.7615C75.4604 74.8177 79.5073 77.3552 83.1823 79.8052C86.8646 82.2625 90.1823 84.6323 92.4573 86.3677C93.5948 87.2427 94.4844 87.9573 95.024 88.4531C95.2363 88.6295 95.4272 88.8301 95.5927 89.051C95.6243 89.0983 95.6489 89.1498 95.6656 89.2042C95.6842 89.2603 95.6911 89.3196 95.6861 89.3785C95.6811 89.4374 95.6642 89.4947 95.6365 89.5469C95.6077 89.6031 95.5664 89.652 95.5159 89.6899C95.4654 89.7278 95.4068 89.7537 95.3448 89.7656C95.2773 89.7781 95.2081 89.7781 95.1406 89.7656C94.725 89.7656 93.6604 88.5771 91.5167 86.7396C85.1325 81.8312 78.4099 77.3796 71.399 73.4177C67.724 71.376 64.4354 69.4656 62.1896 68.9479C61.3206 68.8191 60.4357 68.7582 59.5573 68.7656C57.6046 68.8027 55.6682 69.1296 53.8115 69.7354C57.4135 72.7542 60.4469 74.9563 63.1448 76.6552C58.9885 75.3281 54.526 75.124 49.276 77.625C53.1115 80.024 56.3271 81.7594 59.149 83.0573C67.1917 84.1948 75.6135 88.1323 82.6573 92.6021C86.1792 94.8406 89.249 97.0865 91.5458 98.924C92.6906 99.8354 93.6604 100.652 94.3896 101.316C95.1042 101.979 95.6583 102.439 95.826 102.847C96.0448 103.379 95.6875 103.605 95.2135 103.27C94.9802 103.109 94.5719 102.526 93.8719 101.877C92.9661 101.05 92.0322 100.255 91.0719 99.4927C88.7969 97.6698 85.7562 95.4677 82.2562 93.2437C75.7448 89.1458 65.9812 85.8573 59.1198 83.0573C54.7302 82.2552 50.1875 82.6198 45.2219 85.901C48.4958 87.3594 51.325 88.4458 53.8406 89.2771C59.7615 89.2771 67.6365 91.9385 75.2417 96C82.8396 100.054 90.1167 104.852 93.6385 108.935C94.1198 109.497 93.5219 109.854 93.099 109.446C89.3073 105.836 82.4312 100.667 74.8844 96.6417C70.225 94.1844 59.1854 89.2771 53.8406 89.2771L53.8698 89.2917C49.7354 89.4375 45.6302 90.7135 41.6271 94.5125C45.1052 95.3729 48.0802 95.9417 50.6979 96.3281C47.4896 96.9698 44.3542 98.5156 41.299 101.593C43.6615 102.103 45.7906 102.482 47.7302 102.774C45.3385 103.933 43.0708 105.72 41 108.461C43.7198 108.68 46.126 108.768 48.2917 108.782C45.6667 109.993 43.2167 111.918 41.0292 114.98C44.9156 115.177 48.175 115.162 50.975 115.002C47.8979 116.256 45.0542 118.385 42.626 122.06C47.4531 122.133 51.2885 121.9 54.4969 121.506L54.4531 121.521C61.6719 120.989 71.2021 122.447 76.051 127.697C76.4302 128.113 75.876 128.557 75.526 128.236C70.801 124.007 64.6396 122.206 54.4531 121.521H54.4385C50.4792 122.607 46.8115 124.773 43.7927 129.352C47.701 129.41 50.9531 129.257 53.7531 128.987C50.3333 130.861 47.3875 133.683 45.4479 138.51C48.9698 137.84 51.9229 137.125 54.4677 136.381C51.8208 138.314 49.5969 141.019 48.1021 145.087C50.4646 144.562 52.5646 144.023 54.4531 143.476C52.5765 145.794 51.2926 148.535 50.7125 151.46C53.2792 150.512 55.4885 149.608 57.4646 148.711C55.5906 150.899 54.1615 153.677 53.4542 157.389C57.0635 155.938 60.0094 154.559 62.4813 153.247C60.2208 155.675 58.5219 158.789 57.851 163.134C61.4761 161.569 64.9892 159.757 68.3656 157.709C65.2083 160.349 62.7948 163.856 61.9563 169.281C67.7021 166.744 71.7198 164.447 74.8406 162.318C73.499 165.03 72.7844 168.195 73.1271 172.147C78.6833 167.889 82.1906 164.447 84.8083 161.406C84.6333 163.368 84.7865 165.49 85.3698 167.852C89.351 161.005 93.3104 159.015 97.401 156.725C90.875 160.014 91.8448 162.485 91.8448 165.358C96.825 160.108 103.767 154.552 105.896 151.067C103.052 155.332 101.907 159.379 101.156 162.952C86.624 170.637 77.7719 172.643 67.8479 175.712C71.6979 177.127 75.8177 178.505 74.1115 180.467L69.5615 185.002C72.4708 184.098 75.4312 182.815 78.0052 184.572C77.75 186.956 74.7458 188.159 72.1719 189.552C76.7 187.919 77.6844 188.298 78.8802 188.677C79.4708 191.543 77.4 193.074 76.051 194.963C87.4625 186.285 102.345 179.431 112.83 176.573C127.574 171.607 146.591 166.445 151.76 153.859L156.952 133.1L156.923 133.129C156.114 132.881 155.129 132.67 154.371 132.159C153.598 131.623 153.001 130.869 152.657 129.994C150.82 130.468 149.449 130.212 148.574 129.352C147.721 128.499 147.356 127.194 147.094 125.772C145.614 126.071 144.454 125.889 143.689 125.21C142.843 124.474 142.449 123.315 142.245 121.973L142.186 121.689L142.456 121.579C143.283 121.271 144.035 120.789 144.658 120.165C144.868 119.952 145.024 119.692 145.113 119.406C145.201 119.121 145.221 118.818 145.169 118.524L145.125 118.254L145.344 118.137C146.532 117.459 147.859 116.905 148.465 116.096C148.63 115.88 148.749 115.633 148.816 115.37C148.882 115.107 148.894 114.833 148.851 114.565C148.673 113.623 148.287 112.734 147.721 111.961L147.524 111.67L147.816 111.473C148.676 110.817 149.595 110.168 150.061 109.577C150.295 109.285 150.411 109.023 150.404 108.775C150.404 108.534 150.295 108.265 149.937 107.922L149.223 107.236L150.207 107.28C151.76 107.353 153.088 107.229 154.13 106.894C154.941 106.659 155.647 106.151 156.128 105.457C156.077 105.217 155.982 104.998 155.982 104.743C156.024 103.835 156.413 102.979 157.07 102.352C157.726 101.724 158.6 101.374 159.508 101.374C160.416 101.374 161.289 101.724 161.946 102.352C162.603 102.979 162.992 103.835 163.033 104.743C163.033 105.064 162.924 105.355 162.844 105.654C164.134 105.756 165.374 105.727 166.541 105.217L166.555 105.224L166.81 105.129C168.531 104.509 169.246 105.457 172.06 101.804C159.738 85.8354 141.749 97.174 135.77 113.631C134.239 117.831 125.525 117.846 123.002 113.631C113.013 92.1208 82.6792 69.3854 56.8667 61ZM63.1375 76.6406C69.7437 78.7771 77.0865 82.3427 83.3354 86.324C86.4708 88.3146 89.2635 90.2833 91.4583 92.0042C93.6531 93.725 95.5854 95.4531 95.9792 96.1969C96.3729 96.9406 95.9792 97.2177 95.3813 96.6344C94.7906 96.0656 93.1719 94.301 91.0062 92.6021C88.8333 90.8958 86.0479 88.9198 82.9417 86.9365C77.2906 83.3635 68.4896 79.951 63.1375 76.6406ZM50.7417 96.3281C58.8792 96.4302 67.8771 99.5875 75.7812 103.598C79.726 105.603 83.2406 107.732 85.9531 109.65C88.6656 111.568 90.8531 113.471 91.3052 114.441C91.75 115.418 91.1594 115.389 90.6708 114.842C89.128 113.141 87.407 111.611 85.5375 110.277C82.3167 108.035 78.942 106.022 75.4385 104.254C68.4167 100.74 58.7844 97.4948 50.7417 96.3281ZM159.504 101.957C159.139 101.957 158.778 102.029 158.441 102.169C158.104 102.308 157.798 102.513 157.54 102.771C157.282 103.029 157.077 103.335 156.938 103.672C156.798 104.009 156.726 104.371 156.726 104.735C156.726 105.1 156.798 105.462 156.938 105.799C157.077 106.136 157.282 106.442 157.54 106.7C157.798 106.958 158.104 107.162 158.441 107.302C158.778 107.442 159.139 107.514 159.504 107.514C160.241 107.514 160.948 107.221 161.469 106.7C161.99 106.179 162.282 105.472 162.282 104.735C162.282 103.999 161.99 103.292 161.469 102.771C160.948 102.25 160.241 101.957 159.504 101.957ZM53.3958 102.3C59.3896 102.825 65.9375 104.983 71.8729 107.769C79.7917 111.48 86.7115 116.213 89.6208 119.924C89.876 120.252 89.5187 120.879 89.0375 120.376C85.9167 117.168 79.3979 112.129 71.5594 108.454C64.9021 105.384 54.9198 102.11 47.774 102.767C49.6042 102.548 51.3979 102.125 53.3958 102.3ZM172.534 102.373C169.866 105.836 168.67 105.457 167.408 105.756C168.094 108.892 169.96 110.029 171.674 111.371L171.236 111.458C188.117 108.199 201.759 109.373 216 109.737L172.534 102.373ZM171.236 111.458H171.222L171.193 111.575L171.236 111.458ZM166.679 105.939C165.345 106.478 163.959 106.493 162.574 106.369C162.285 106.934 161.847 107.41 161.307 107.744C160.767 108.078 160.146 108.258 159.511 108.265C158.845 108.261 158.193 108.069 157.632 107.71C157.071 107.352 156.622 106.841 156.34 106.237C155.814 106.871 155.122 107.345 154.342 107.608C153.328 107.936 152.096 108.024 150.747 108.009C150.893 108.265 151.141 108.505 151.148 108.768C151.135 109.237 150.957 109.686 150.645 110.036C150.112 110.707 149.267 111.276 148.494 111.845C149.128 112.873 149.493 113.741 149.58 114.484C149.685 115.215 149.502 115.957 149.07 116.555C148.297 117.576 146.97 118.086 145.869 118.692C145.914 119.404 145.678 120.105 145.212 120.646C144.596 121.268 143.859 121.76 143.047 122.09C143.244 123.227 143.586 124.153 144.17 124.671C144.797 125.225 145.708 125.422 147.269 125.014L147.67 124.911L147.743 125.312C147.983 126.822 148.384 128.12 149.106 128.834C149.835 129.556 150.885 129.819 152.774 129.235L153.131 129.126L153.248 129.476C153.612 130.511 154.123 131.102 154.772 131.532C155.406 131.97 156.573 132.349 157.382 132.604C163.201 126.268 168.502 119.683 171.12 111.75C169.479 110.459 167.43 109.285 166.679 105.939ZM48.3354 108.753C56.8302 108.17 64.9823 110.182 71.6833 113.318C78.3917 116.453 83.7729 120.165 86.0771 122.848C86.624 123.482 85.9385 123.723 85.5521 123.373C81.2936 119.575 76.5127 116.407 71.3552 113.967C64.7635 110.948 55.3646 109.271 48.3354 108.753ZM54.6354 114.601C59.0833 114.747 63.6771 115.731 67.8042 117.168C73.3167 119.078 78.1656 121.645 80.5427 124.314C80.8708 124.678 80.4917 125.24 80.0031 124.817C77.4583 122.6 72.9958 119.764 67.5635 117.882C63.3781 116.46 55.8021 115.192 51.026 114.988C52.4625 114.827 53.1552 114.55 54.6354 114.601ZM62.2917 127.639C65.376 127.886 68.7521 128.608 72.0698 130.606C72.3833 130.796 72.4271 131.598 71.7125 131.262C65.4708 128.331 62.0437 127.69 53.7969 129.002C56.6115 128.069 59.1927 127.391 62.2844 127.639H62.2917ZM62 133.384C64.9167 133.129 67.7167 133.37 71.4573 134.872C71.7781 135.003 72.0406 135.791 71.2167 135.557C64.9677 133.785 62.7073 133.166 54.5406 136.316C56.5823 134.646 59.076 133.647 62 133.384ZM71.3698 138.394C73.6812 138.226 76 138.204 78.1802 138.437C78.5594 138.481 78.5812 139.203 78.1365 139.181C73.6541 138.936 69.1584 139.217 64.7417 140.02C62.9698 140.355 61.6573 140.333 54.4969 143.359C56.5896 141.66 60.2865 140.064 64.5958 139.276C66.8393 138.866 69.1029 138.573 71.3771 138.401L71.3698 138.394ZM80.7031 141.967C81.425 141.989 81.1552 142.725 80.7469 142.718C75.4385 142.645 71.2385 143.68 67.075 144.869C63.7831 145.91 60.5712 147.19 57.4646 148.697C59.5281 147.02 62.6635 145.365 66.8781 144.161C71.1 142.951 75.9781 141.784 80.7031 141.959V141.967ZM84.5531 144.869C84.8156 144.832 85.3188 145.481 84.6844 145.598C79.3615 146.597 75.6135 147.545 71.6031 148.908C70.0281 149.448 67.374 150.418 62.5396 153.189C64.4354 151.227 67.3229 149.601 71.3844 148.23C75.4531 146.845 80.1052 145.532 84.5531 144.876V144.869ZM86.8208 148.566C87.3677 148.478 87.5281 149.2 86.9667 149.309C78.0927 151.067 74.1333 153.364 68.4458 157.651C72.1208 153.837 77.9031 149.987 86.8208 148.566ZM91.1594 151.832C91.7938 151.737 91.9615 152.467 91.3125 152.561C84.9542 153.509 80.5427 156.594 74.8698 162.259C77.0208 158.665 82.1906 153.218 91.1594 151.832ZM93.8719 154.676C94.2073 154.632 94.7031 155.208 94.0396 155.405C92.3195 155.903 90.6776 156.64 89.1615 157.593C87.8344 158.453 86.974 159.051 84.8083 161.29C85.6177 159.503 86.9667 158.125 88.7604 156.987C90.5615 155.843 92.4792 154.851 93.8719 154.676Z" fill="white"/>
</svg>