<svg width="256" height="256" title="Less" viewBox="0 0 256 256" fill="none" xmlns="http://www.w3.org/2000/svg" id="less">
<style>
#less {
    rect {fill: #15191C}

    @media (prefers-color-scheme: light) {
        rect {fill: #F4F2ED}
    }
}
</style>
<rect width="256" height="256" rx="40" fill="#15191C"/>
<path d="M213.222 154.037C213.222 162.973 205.91 170.284 196.974 170.284H60.4152C51.4793 170.284 44.168 162.973 44.168 154.037V102.294C44.168 93.3584 51.4793 86.0471 60.4152 86.0471H196.974C205.91 86.0471 213.222 93.3584 213.222 102.294V154.037Z" fill="url(#linearGradient)"/>
<path d="M184.655 127.06C191.792 129.557 195.359 133.836 195.359 139.889C195.359 143.873 193.88 147.036 190.928 149.375C187.978 151.715 183.771 153.168 178.295 153.168C172.819 153.168 167.753 151.581 163.088 148.976C163.138 147.595 163.503 146.079 164.174 144.434C164.844 142.789 165.637 141.482 166.546 140.527C170.834 142.756 174.565 143.872 177.732 143.872C179.229 143.872 180.387 143.621 181.194 143.115C182.001 142.611 182.403 141.934 182.403 141.084C182.403 139.486 181.165 138.291 178.698 137.495L174.267 135.821C167.562 133.378 164.21 129.396 164.21 123.866C164.21 119.828 165.618 116.628 168.435 114.26C171.251 111.896 175.047 109.86 179.82 109.86C182.182 109.86 184.782 110.192 187.626 110.856C190.468 111.521 192.802 113.16 194.626 114.061C194.734 115.55 194.435 117.184 193.741 118.963C193.043 120.745 192.186 122.006 191.164 122.75C186.655 120.73 182.903 119.721 179.897 119.721C178.82 119.721 178.01 119.959 177.44 120.44C176.878 120.919 176.601 121.528 176.601 122.273C176.601 123.548 177.619 124.557 179.659 125.301L184.655 127.06Z" fill="#F6F6F6"/>
<path d="M149.006 127.06C156.143 129.557 159.709 133.836 159.709 139.889C159.709 143.873 158.229 147.036 155.282 149.375C152.33 151.715 148.121 153.168 142.646 153.168C137.175 153.168 132.103 151.581 127.439 148.976C127.489 147.595 127.855 146.079 128.526 144.434C129.196 142.789 129.987 141.482 130.899 140.527C135.191 142.756 138.921 143.872 142.087 143.872C143.585 143.872 144.743 143.621 145.546 143.115C146.351 142.611 146.755 141.934 146.755 141.084C146.755 139.486 145.518 138.291 143.051 137.495L138.622 135.821C131.917 133.378 128.563 129.396 128.563 123.866C128.563 119.828 129.971 116.628 132.79 114.26C135.605 111.896 139.4 109.86 144.173 109.86C146.533 109.86 149.139 110.192 151.977 110.856C154.822 111.521 157.153 113.16 158.979 114.061C159.086 115.55 158.787 117.184 158.094 118.963C157.397 120.745 156.539 122.006 155.518 122.75C151.007 120.73 147.255 119.721 144.247 119.721C143.173 119.721 142.359 119.959 141.793 120.44C141.232 120.919 140.952 121.528 140.952 122.273C140.952 123.548 141.971 124.557 144.012 125.301L149.006 127.06Z" fill="#F6F6F6"/>
<path d="M123.009 127.623C123.009 125.179 122.62 122.921 121.842 120.847C121.067 118.774 119.952 116.995 118.504 115.507C117.055 114.018 115.299 112.85 113.235 112C111.168 111.151 108.848 109.871 106.273 109.871C103.215 109.871 100.546 111.255 98.2666 112.319C95.9876 113.381 94.1099 114.841 92.6353 116.702C91.1575 118.563 90.0575 120.754 89.3336 123.278C88.6097 125.802 88.2478 128.552 88.2478 131.526C88.2478 134.605 88.5418 137.453 89.1329 140.056C89.7224 142.656 90.7289 144.913 92.1501 146.828C93.5724 148.74 95.4231 150.228 97.7037 151.288C99.9843 152.35 102.815 153.166 106.194 153.166C112.416 153.166 117.673 151.364 121.965 148.338C121.54 145.259 120.443 142.811 118.681 141.004C116.489 141.827 114.55 142.417 112.868 142.779C111.185 143.136 109.701 143.316 108.419 143.316C105.854 143.316 104.008 142.664 102.888 141.346C101.769 140.032 101.155 138.479 101.046 136.119H121.968C122.66 133.884 123.009 130.864 123.009 127.623ZM100.966 128.174C101.126 125.462 101.62 122.561 102.444 121.366C103.269 120.17 104.532 119.572 106.237 119.572C107.993 119.572 109.311 120.207 110.188 121.483C111.067 122.758 111.506 125.328 111.506 127.294L111.508 128.174H100.966Z" fill="#F6F6F6"/>
<path d="M217.434 133.477C215.159 135.463 213.84 138.322 213.84 142.06V155.981C213.84 160.609 212.417 164.128 209.204 166.548C205.994 168.964 202.252 170.161 197.98 170.276L195.448 170.257V163.32C197.68 162.669 198.596 161.912 199.484 161.053C201.093 159.599 202.326 157.233 202.326 153.947V142.708C202.386 138.888 202.68 135.895 204.071 133.733C205.466 131.571 208.183 129.68 212.221 128.048C207.761 126.006 204.766 123.34 203.239 120.051C202.342 118.097 202.324 115.461 202.324 112.145V101.839C202.324 98.4345 201.21 96.0498 199.84 94.6889C198.948 93.8006 197.912 93.091 195.444 92.5554V86.0437C198.462 86.0753 199.985 86.0407 201.743 86.0437C204.448 86.0217 206.715 87.501 208.687 89.0418C210.835 90.7313 212.362 93.0153 213.256 95.89C213.765 97.551 213.838 99.1379 213.838 100.649V112.569C213.838 116.779 215.082 119.908 217.208 121.952C218.406 123.137 220.097 124.221 223 125.2V130.584C220.427 131.296 218.812 132.26 217.434 133.477Z" fill="#F6F6F6"/>
<path d="M57.391 86.0473V86.0566C56.5266 86.0519 55.7441 86.0487 55.1184 86.0503C52.4111 86.0266 50.1448 87.506 48.1741 89.0484C46.0231 90.7379 44.1819 92.9427 43.6051 95.8965C43.2764 97.6287 43.3459 99.1427 43.3459 100.655V112.575C43.3459 116.784 41.7797 119.912 39.6555 121.959C38.459 123.144 35.9049 124.226 33 125.205V130.589C35.5746 131.299 38.0529 132.26 39.4278 133.48C41.7036 135.468 43.344 138.329 43.344 142.066V155.987C43.344 160.612 44.4473 164.134 47.6571 166.551C50.8671 168.966 54.608 170.167 58.88 170.284L61.7389 170.265V163.323C59.5088 162.671 58.27 161.913 57.3769 161.057C55.7695 159.601 54.8592 157.237 54.8592 153.953V142.712C54.7976 138.889 54.1812 135.899 52.7889 133.735C51.3966 131.576 48.6797 129.683 44.6369 128.052C49.0987 126.009 52.0921 123.344 53.6187 120.056C54.5181 118.101 54.8594 115.465 54.8594 112.149V101.843C54.8594 98.4389 55.6495 96.0542 57.0184 94.6918C57.7611 93.9523 59.0823 93.3436 60.9175 92.8507L63.8192 92.871C63.8192 90.3734 63.8192 88.8099 63.8192 86.0467H57.3914L57.391 86.0473Z" fill="#F6F6F6"/>
<path d="M84.1438 142.523H81.9707C79.608 142.523 78.7182 141.281 78.7182 138.786V92.9223C78.7182 90.1645 77.9217 88.2283 76.9021 87.1127C75.8826 86 74.1127 86.0111 71.5918 86.0111H66.6843L66.1059 86L66.1012 141.005C66.1012 144.832 66.961 147.633 68.4907 149.416C70.0221 151.195 72.6094 152.084 76.2571 152.084C78.7796 152.084 81.6497 151.818 84.8674 151.285C85.0286 150.748 85.1093 149.598 85.1093 147.832C85.1093 146.062 84.7871 144.297 84.1438 142.523Z" fill="#F6F6F6"/>
<linearGradient id="linearGradient" x1="128" y1="86" x2="128" y2="170.284" gradientUnits="userSpaceOnUse">
<stop offset="0.1497" stop-color="#2A4F84"/>
<stop offset="0.3884" stop-color="#294E82"/>
<stop offset="1" stop-color="#172E4E"/>
</linearGradient>
</svg>