<svg width="256" height="256" title="Letterboxd" viewBox="0 0 256 256" fill="none" xmlns="http://www.w3.org/2000/svg" id="letterboxd">
<style>
#letterboxd {
    rect {fill: #15191C}

    @media (prefers-color-scheme: light) {
        rect {fill: #F4F2ED}
    }
}
</style>
<rect width="256" height="256" rx="40" fill="#15191C"/>
<path d="M183.556 161C201.474 161 216 146.449 216 128.5C216 110.551 201.474 96 183.556 96C165.638 96 151.112 110.551 151.112 128.5C151.112 146.449 165.638 161 183.556 161Z" fill="#40BCF4"/>
<path d="M128.5 161C146.418 161 160.944 146.449 160.944 128.5C160.944 110.551 146.418 96 128.5 96C110.582 96 96.0562 110.551 96.0562 128.5C96.0562 146.449 110.582 161 128.5 161Z" fill="#00E054"/>
<path d="M73.4438 161C91.3621 161 105.888 146.449 105.888 128.5C105.888 110.551 91.3621 96 73.4438 96C55.5256 96 41 110.551 41 128.5C41 146.449 55.5256 161 73.4438 161Z" fill="#FF8000"/>
<path fill-rule="evenodd" clip-rule="evenodd" d="M100.972 145.707C97.8567 140.717 96.0562 134.819 96.0562 128.5C96.0562 122.181 97.8567 116.282 100.972 111.292C104.087 116.282 105.888 122.181 105.888 128.5C105.888 134.819 104.087 140.717 100.972 145.707Z" fill="#556677"/>
<path fill-rule="evenodd" clip-rule="evenodd" d="M156.028 111.292C159.143 116.282 160.944 122.181 160.944 128.5C160.944 134.819 159.143 140.717 156.028 145.707C152.913 140.717 151.112 134.819 151.112 128.5C151.112 122.181 152.913 116.282 156.028 111.292Z" fill="#556677"/>
</svg>