<svg width="256" height="256" title="LinkedIn" viewBox="0 0 256 256" fill="none" xmlns="http://www.w3.org/2000/svg">
<rect width="256" height="256" rx="40" fill="#007EBB"/>
<path fill-rule="evenodd" clip-rule="evenodd" d="M208 227H173.07V167.507C173.07 151.196 166.872 142.08 153.962 142.08C139.917 142.08 132.579 151.566 132.579 167.507V227H98.9167V113.667H132.579V128.933C132.579 128.933 142.701 110.204 166.751 110.204C190.79 110.204 208 124.884 208 155.244V227ZM58.7575 98.8266C47.2913 98.8266 38 89.4623 38 77.9133C38 66.3642 47.2913 57 58.7575 57C70.2236 57 79.5094 66.3642 79.5094 77.9133C79.5094 89.4623 70.2236 98.8266 58.7575 98.8266ZM41.3757 227H76.4769V113.667H41.3757V227Z" fill="white"/>
</svg>