<svg width="256" height="256" title="LM Studio" viewBox="0 0 256 256" fill="none" xmlns="http://www.w3.org/2000/svg">
<rect width="256" height="256" rx="25" fill="url(#linearGradient)"/>
<path opacity="0.5" d="M 63.4546 135.455 C 57.1073 135.455 51.7273 140.835 51.7273 146.182 C 51.7273 151.53 57.1073 156.91 63.4546 156.91 H 164.819 C 171.167 156.91 176.547 151.53 176.547 146.182 C 176.547 140.835 171.167 135.455 164.819 135.455 Z" fill="white"/>
<path d="M 33 135.455 C 26.6527 135.455 21.2727 140.835 21.2727 146.182 C 21.2727 151.53 26.6527 156.91 33 156.91 H 134.364 C 140.711 156.91 146.091 151.53 146.091 146.182 C 146.091 140.835 140.711 135.455 134.364 135.455 Z" fill="white"/>
<path opacity="0.5" d="M 92.5455 161.818 C 86.1982 161.818 80.8182 167.198 80.8182 172.545 C 80.8182 177.893 86.1982 183.273 92.5455 183.273 H 193.91 C 200.257 183.273 205.637 177.893 205.637 172.545 C 205.637 167.198 200.257 161.818 193.91 161.818 Z" fill="white"/>
<path d="M 61.6364 161.818 C 55.2891 161.818 49.9091 167.198 49.9091 172.545 C 49.9091 177.893 55.2891 183.273 61.6364 183.273 H 162.000 C 168.347 183.273 173.727 177.893 173.727 172.545 C 173.727 167.198 168.347 161.818 162.000 161.818 Z" fill="white"/>
<path opacity="0.5" d="M 156.636 188.182 C 150.288 188.182 144.908 193.562 144.908 198.91 C 144.908 204.257 150.288 209.637 156.636 209.637 H 222.999 C 229.347 209.637 234.727 204.257 234.727 198.91 C 234.727 193.562 229.347 188.182 222.999 188.182 Z" fill="white"/>
<path d="M 125.727 188.182 C 119.379 188.182 114.000 193.562 114.000 198.91 C 114.000 204.257 119.379 209.637 125.727 209.637 H 192.090 C 198.437 209.637 203.818 204.257 203.818 198.91 C 203.818 193.562 198.437 188.182 192.090 188.182 Z" fill="white"/>
<path opacity="0.5" d="M 75.7273 55 C 69.3801 55 64.0001 60.3801 64.0001 65.7273 C 64.0001 71.0746 69.3801 76.4546 75.7273 76.4546 H 177.091 C 183.438 76.4546 188.818 71.0746 188.818 65.7273 C 188.818 60.3801 183.438 55 177.091 55 Z" fill="white"/>
<path d="M 45.2727 55 C 38.9254 55 33.5454 60.3801 33.5454 65.7273 C 33.5454 71.0746 38.9254 76.4546 45.2727 76.4546 H 146.636 C 152.983 76.4546 158.363 71.0746 158.363 65.7273 C 158.363 60.3801 152.983 55 146.636 55 Z" fill="white"/>
<path opacity="0.5" d="M 92.5455 107.727 C 86.1982 107.727 80.8182 113.107 80.8182 118.454 C 80.8182 123.802 86.1982 129.182 92.5455 129.182 H 193.91 C 200.257 129.182 205.637 123.802 205.637 118.454 C 205.637 113.107 200.257 107.727 193.91 107.727 Z" fill="white"/>
<path d="M 61.6364 107.727 C 55.2891 107.727 49.9091 113.107 49.9091 118.454 C 49.9091 123.802 55.2891 129.182 61.6364 129.182 H 162.000 C 168.347 129.182 173.727 123.802 173.727 118.454 C 173.727 113.107 168.347 107.727 162.000 107.727 Z" fill="white"/>
<path opacity="0.5" d="M 115.727 81.3636 C 109.380 81.3636 104.000 86.7436 104.000 92.0909 C 104.000 97.4382 109.380 102.818 115.727 102.818 H 217.091 C 223.438 102.818 228.818 97.4382 228.818 92.0909 C 228.818 86.7436 223.438 81.3636 217.091 81.3636 Z" fill="white"/>
<path d="M 85.7273 81.3636 C 79.3801 81.3636 74.0001 86.7436 74.0001 92.0909 C 74.0001 97.4382 79.3801 102.818 85.7273 102.818 H 187.091 C 193.438 102.818 198.818 97.4382 198.818 92.0909 C 198.818 86.7436 193.438 81.3636 187.091 81.3636 Z" fill="white"/>
<linearGradient id="linearGradient" x1="21.801" y1="1.34365e-06" x2="234.199" y2="256" gradientUnits="userSpaceOnUse">
<stop stop-color="#6B74ED"/>
<stop offset="1" stop-color="#4F16BF"/>
</linearGradient>
</svg>