<svg width="256" height="256" title="Lua" viewBox="0 0 256 256" fill="none" xmlns="http://www.w3.org/2000/svg" id="lua">
<style>
#lua {
    rect {fill: #15191C}

    @media (prefers-color-scheme: light) {
        rect {fill: #F4F2ED}
    }
}
</style>
<rect width="256" height="256" rx="40" fill="#15191C"/>
<path fill-rule="evenodd" clip-rule="evenodd" d="M191.603 128.511C191.603 93.6702 163.326 65.3936 128.485 65.3936C93.6441 65.3936 65.3672 93.6702 65.3672 128.511C65.3672 163.352 93.6441 191.629 128.485 191.629C163.326 191.629 191.603 163.352 191.603 128.511Z" fill="#00007D"/>
<path fill-rule="evenodd" clip-rule="evenodd" d="M173.123 102.36C173.123 92.1557 164.841 83.8736 154.636 83.8736C144.431 83.8736 136.149 92.1557 136.149 102.36C136.149 112.565 144.431 120.847 154.636 120.847C164.841 120.847 173.123 112.565 173.123 102.36Z" fill="white"/>
<path fill-rule="evenodd" clip-rule="evenodd" d="M210.09 65.3934C210.09 55.1887 201.808 46.9066 191.603 46.9066C181.398 46.9066 173.116 55.1887 173.116 65.3934C173.116 75.598 181.398 83.8802 191.603 83.8802C201.808 83.8802 210.09 75.598 210.09 65.3934Z" fill="#00007D"/>
<path fill-rule="evenodd" clip-rule="evenodd" d="M85.4489 119.31H90.9687V155.202H111.411V160.056H85.4489V119.31Z" fill="white"/>
<path fill-rule="evenodd" clip-rule="evenodd" d="M121.369 130.349V150.071C121.369 151.587 121.603 152.826 122.071 153.787C122.935 155.562 124.547 156.45 126.907 156.45C130.292 156.45 132.597 154.897 133.822 151.79C134.488 150.126 134.821 147.842 134.821 144.939V130.349H139.814V160.056H135.099L135.154 155.673C134.518 156.801 133.729 157.754 132.785 158.53C130.916 160.084 128.648 160.86 125.981 160.86C121.826 160.86 118.996 159.446 117.49 156.616C116.673 155.101 116.265 153.076 116.265 150.542V130.349H121.369Z" fill="white"/>
<path d="M163.89 142.078C165.037 141.931 165.804 141.45 166.193 140.638C166.414 140.193 166.525 139.552 166.525 138.717C166.525 137.009 165.92 135.77 164.712 135C163.503 134.23 161.773 133.844 159.522 133.844C156.92 133.844 155.074 134.55 153.985 135.963C153.376 136.744 152.98 137.905 152.795 139.447H148.135C148.228 135.775 149.414 133.221 151.695 131.784C153.976 130.347 156.622 129.628 159.632 129.628C163.123 129.628 165.958 130.294 168.138 131.625C170.299 132.957 171.379 135.028 171.379 137.839V154.954C171.379 155.471 171.485 155.888 171.698 156.201C171.91 156.515 172.359 156.672 173.043 156.672C173.265 156.672 173.515 156.658 173.792 156.63C174.07 156.603 174.365 156.561 174.68 156.506V160.195C173.903 160.417 173.311 160.555 172.905 160.611C172.498 160.666 171.943 160.694 171.24 160.694C169.521 160.694 168.272 160.084 167.496 158.864C167.089 158.217 166.802 157.301 166.636 156.118C165.619 157.449 164.158 158.605 162.254 159.585C160.349 160.564 158.25 161.054 155.957 161.054C153.202 161.054 150.951 160.219 149.203 158.547C147.456 156.876 146.582 154.785 146.582 152.273C146.582 149.521 147.442 147.388 149.162 145.873C150.881 144.359 153.137 143.426 155.929 143.075L163.89 142.078ZM153.378 155.566C154.432 156.396 155.68 156.811 157.122 156.811C158.879 156.811 160.58 156.404 162.226 155.592C164.999 154.244 166.386 152.038 166.386 148.974V144.958C165.777 145.348 164.993 145.672 164.033 145.932C163.074 146.192 162.133 146.377 161.21 146.488L158.193 146.876C156.384 147.116 155.024 147.494 154.113 148.011C152.568 148.878 151.797 150.262 151.797 152.162C151.797 153.601 152.324 154.735 153.378 155.566Z" fill="white"/>
<path d="M131.42 210.998L131.354 209.105C133.695 209.024 136.054 208.839 138.367 208.557L138.596 210.436C136.23 210.725 133.815 210.914 131.42 210.998ZM124.222 210.939C121.831 210.817 119.42 210.589 117.056 210.26L117.316 208.385C119.626 208.706 121.982 208.929 124.319 209.048L124.222 210.939ZM145.697 209.252L145.304 207.399C147.591 206.914 149.881 206.322 152.114 205.639L152.668 207.449C150.383 208.149 148.038 208.755 145.697 209.252ZM109.975 208.959C107.646 208.424 105.311 207.779 103.035 207.041L103.619 205.24C105.842 205.961 108.123 206.591 110.399 207.113L109.975 208.959ZM159.453 205.042L158.742 203.287C160.905 202.411 163.056 201.427 165.138 200.363L165.999 202.05C163.869 203.138 161.667 204.145 159.453 205.042ZM96.2871 204.52C94.0867 203.586 91.8998 202.542 89.7868 201.417L90.6767 199.745C92.7408 200.844 94.8775 201.864 97.0271 202.777L96.2871 204.52ZM172.26 198.496L171.254 196.892C173.233 195.651 175.181 194.308 177.046 192.9L178.188 194.411C176.279 195.852 174.285 197.226 172.26 198.496ZM83.5833 197.759C81.5801 196.456 79.6082 195.049 77.7222 193.575L78.8881 192.083C80.7311 193.523 82.6579 194.899 84.6154 196.171L83.5833 197.759ZM183.739 189.827L182.471 188.421C184.207 186.856 185.896 185.196 187.489 183.488L188.874 184.779C187.243 186.527 185.516 188.225 183.739 189.827ZM72.2465 188.899C70.4972 187.269 68.7979 185.543 67.1962 183.767L68.6021 182.499C70.1673 184.234 71.8277 185.921 73.5373 187.514L72.2465 188.899ZM193.552 179.306L192.06 178.139C193.501 176.297 194.878 174.371 196.151 172.414L197.738 173.447C196.435 175.45 195.026 177.421 193.552 179.306ZM62.6095 178.218C61.1665 176.309 59.7911 174.315 58.5218 172.292L60.1257 171.286C61.3661 173.263 62.7101 175.211 64.12 177.076L62.6095 178.218ZM201.4 167.245L199.729 166.355C200.829 164.291 201.85 162.155 202.763 160.005L204.506 160.746C203.571 162.946 202.526 165.133 201.4 167.245ZM54.9656 166.034C53.876 163.905 52.8681 161.703 51.9697 159.489L53.7245 158.777C54.6019 160.94 55.5866 163.091 56.6511 165.171L54.9656 166.034ZM207.03 153.999L205.23 153.414C205.951 151.194 206.582 148.913 207.106 146.636L208.952 147.06C208.415 149.392 207.769 151.726 207.03 153.999ZM49.5588 152.704C48.858 150.419 48.2504 148.074 47.753 145.735L49.605 145.341C50.0911 147.626 50.6845 149.917 51.3691 152.15L49.5588 152.704ZM210.257 139.98L208.381 139.719C208.703 137.41 208.927 135.054 209.048 132.717L210.939 132.815C210.816 135.206 210.586 137.617 210.257 139.98ZM46.565 138.635C46.2748 136.267 46.0846 133.853 46 131.459L47.8925 131.392C47.9749 133.731 48.1608 136.09 48.4444 138.404L46.565 138.635ZM209.108 125.682C209.026 123.347 208.84 120.987 208.556 118.667L210.435 118.436C210.726 120.811 210.917 123.226 211 125.616L209.108 125.682ZM47.9458 124.356L46.0547 124.261C46.1759 121.869 46.4031 119.458 46.7301 117.094L48.6059 117.354C48.2863 119.664 48.0642 122.02 47.9458 124.356ZM207.394 111.727C206.908 109.442 206.315 107.15 205.632 104.915L207.443 104.362C208.142 106.648 208.749 108.994 209.246 111.334L207.394 111.727ZM49.874 110.436L48.0283 110.013C48.5621 107.682 49.2061 105.347 49.9425 103.072L51.744 103.655C51.0246 105.877 50.3955 108.159 49.874 110.436ZM203.284 98.2824C202.408 96.1152 201.426 93.9609 200.365 91.8796L202.053 91.0199C203.138 93.15 204.143 95.3549 205.039 97.573L203.284 98.2824ZM54.2039 97.0618L52.4605 96.3226C53.3937 94.1216 54.4366 91.9342 55.5603 89.821L57.2322 90.7098C56.1345 92.7745 55.1155 94.9115 54.2039 97.0618ZM60.8035 84.6468L59.2155 83.6155C60.5173 81.611 61.924 79.6383 63.3965 77.7523L64.889 78.9176C63.4502 80.7606 62.0757 82.6882 60.8035 84.6468ZM69.4557 73.5645L68.0697 72.2744C69.6987 70.5244 71.4245 68.8242 73.1989 67.2217L74.4681 68.6269C72.7341 70.1931 71.0476 71.8542 69.4557 73.5645ZM79.8887 64.1423L78.7461 62.6324C80.6537 61.1888 82.6467 59.8126 84.6698 58.5418L85.6771 60.1452C83.7001 61.3869 81.7527 62.7317 79.8887 64.1423ZM172.431 60.8537L172.327 60.7868L173.357 59.1977L173.457 59.2625L172.431 60.8537ZM166.26 57.2247C164.195 56.1307 162.057 55.1148 159.905 54.2051L160.643 52.4612C162.845 53.392 165.033 54.4318 167.146 55.5515L166.26 57.2247ZM91.7903 56.6673L90.9268 54.9822C93.0557 53.8911 95.2573 52.8822 97.4698 51.9833L98.1825 53.7377C96.021 54.6159 93.8702 55.6016 91.7903 56.6673ZM153.311 51.7509C151.087 51.032 148.805 50.4026 146.528 49.8805L146.951 48.0349C149.282 48.5692 151.618 49.2134 153.894 49.9491L153.311 51.7509ZM104.809 51.3791L104.253 49.5689C106.538 48.8672 108.882 48.2586 111.222 47.7596L111.617 49.6114C109.331 50.0989 107.041 50.6936 104.809 51.3791ZM139.608 48.6081C137.293 48.2865 134.936 48.063 132.602 47.9441L132.699 46.053C135.087 46.1747 137.499 46.4034 139.869 46.7327L139.608 48.6081ZM118.553 48.4479L118.322 46.5683C120.689 46.277 123.103 46.0858 125.497 46L125.565 47.8923C123.225 47.9761 120.866 48.163 118.553 48.4479Z" fill="#929292"/>
</svg>