<svg width="256" height="256" title="macOS" viewBox="0 0 256 256" fill="none" xmlns="http://www.w3.org/2000/svg" id="macos">
<style>
#macos {
    rect {fill: #15191C}
    path {fill: white}

    @media (prefers-color-scheme: light) {
        rect {fill: #F4F2ED}
        path {fill: #212121}
    }
}
</style>
<rect width="256" height="256" rx="40" fill="#15191C"/>
<path d="M157.666,77.854C157.666,67.689 163.388,61.365 172.725,61.44C180.781,61.44 185.6,66.108 186.428,72.282L180.254,72.282C179.576,69.195 176.941,66.786 172.725,66.786C167.454,66.786 164.216,70.927 164.216,77.854C164.216,84.856 167.454,89.148 172.725,89.148C176.715,89.148 179.426,87.266 180.254,83.802L186.428,83.802C185.6,90.127 180.631,94.569 172.725,94.569C163.388,94.569 157.666,88.245 157.666,77.854ZM71.605,62.042L77.704,61.967L77.704,67.087L78.155,67.087C79.511,63.473 82.748,61.365 87.04,61.365C91.407,61.365 94.419,63.624 95.849,67.087L96.376,67.087C97.958,63.624 101.647,61.365 106.089,61.365C112.565,61.365 116.329,65.28 116.329,71.906L116.329,93.967L110.005,93.967L110.005,73.487C110.005,69.045 107.972,66.936 103.831,66.936C99.689,66.936 97.054,69.948 97.054,73.788L97.054,93.967L90.88,93.967L90.88,72.809C90.88,69.195 88.471,66.936 84.706,66.936C80.866,66.936 77.929,70.249 77.929,74.391L77.929,93.967L71.605,93.967L71.605,62.042ZM130.184,155.407C130.184,183.115 114.673,200.584 89.826,200.584C64.979,200.584 49.468,183.191 49.468,155.407C49.468,127.624 64.979,110.155 89.826,110.155C114.673,110.155 130.184,127.624 130.184,155.407ZM118.965,155.407C118.965,133.798 107.746,120.245 89.826,120.245C71.906,120.245 60.687,133.798 60.687,155.407C60.687,176.866 71.906,190.494 89.826,190.494C107.746,190.494 118.965,176.941 118.965,155.407ZM134.099,94.494C127.925,94.494 123.407,90.805 123.482,85.082C123.482,79.285 127.774,75.972 135.379,75.52L144.038,74.993L144.038,72.207C144.038,68.668 141.779,66.711 137.487,66.711C133.948,66.711 131.464,67.991 130.786,70.325L124.687,70.325C125.365,64.979 130.485,61.44 137.788,61.44C145.845,61.44 150.362,65.431 150.362,72.132L150.362,93.967L144.264,93.967L144.264,89.449L143.736,89.449C141.779,92.687 138.315,94.494 134.099,94.494ZM143.962,79.435L136.132,79.962C131.689,80.264 129.732,81.845 129.732,84.706C129.732,87.718 132.216,89.374 135.68,89.374C140.424,89.374 143.962,86.287 143.962,82.146L143.962,79.435ZM203.144,174.231C203.144,190.419 190.419,200.584 170.918,200.584C151.793,200.584 139.068,190.795 138.014,175.661L148.932,175.661C150.212,185.073 158.946,190.795 171.52,190.795C183.341,190.795 192,184.546 192,175.962C192,168.659 187.106,163.765 174.984,161.129L165.271,159.021C147.727,155.181 140.122,147.2 140.122,134.776C140.122,120.395 152.847,110.231 170.993,110.231C188.461,110.231 201.035,120.696 201.562,135.529L190.645,135.529C189.666,125.892 182.136,120.019 170.692,120.019C159.774,120.019 151.341,125.365 151.341,134.249C151.341,141.101 156.009,145.845 167.981,148.48L177.694,150.588C195.915,154.579 203.144,161.807 203.144,174.231Z" fill="white"/>
</svg>