<?xml version="1.0" encoding="UTF-8" standalone="no"?>
<!DOCTYPE svg PUBLIC "-//W3C//DTD SVG 1.1//EN" "http://www.w3.org/Graphics/SVG/1.1/DTD/svg11.dtd">
<svg width="100%" height="100%" viewBox="0 0 256 256" version="1.1" xmlns="http://www.w3.org/2000/svg" xmlns:xlink="http://www.w3.org/1999/xlink" xml:space="preserve" xmlns:serif="http://www.serif.com/" style="fill-rule:evenodd;clip-rule:evenodd;stroke-linejoin:round;stroke-miterlimit:2;">
    <path d="M256,40L256,216C256,238.077 238.077,256 216,256L40,256C17.923,256 0,238.077 0,216L0,40C0,17.923 17.923,0 40,0L216,0C238.077,0 256,17.923 256,40Z" style="fill:#aa278f;"/>
    <g id="path13" transform="matrix(5.91531,0,0,5.91531,33.3521,33.358)">
        <path d="M27.366,16.522L28.185,16.004L27.364,15.488C26.982,15.248 26.671,14.998 26.437,14.744C26.216,14.503 26.029,14.201 25.883,13.848C25.73,13.48 25.619,13.029 25.555,12.509C25.487,11.958 25.452,11.299 25.452,10.548C25.452,9.767 25.436,9.183 25.402,8.762C25.363,8.273 25.279,7.91 25.144,7.65C24.98,7.335 24.738,7.112 24.426,6.989C24.203,6.9 23.899,6.835 23.502,6.79C23.361,6.771 23.251,6.705 23.146,6.577C23.036,6.444 22.981,6.233 22.981,5.95C22.981,5.54 23.067,5.139 24.102,5.139C24.738,5.139 25.298,5.266 25.768,5.515C26.232,5.762 26.586,6.104 26.853,6.561C27.12,7.019 27.259,7.556 27.266,8.158C27.33,11.712 27.395,12.423 27.45,12.65C27.603,13.28 27.832,13.759 28.151,14.114C28.438,14.433 28.786,14.716 29.186,14.957C29.476,15.132 29.687,15.298 29.813,15.45C29.848,15.493 29.929,15.631 29.929,16.004C29.929,16.387 29.809,16.632 29.539,16.798C28.933,17.171 28.498,17.497 28.208,17.795C27.884,18.129 27.656,18.547 27.53,19.035C27.418,19.472 27.353,20.085 27.332,20.91C27.312,21.683 27.29,22.651 27.266,23.814C27.245,24.755 26.96,25.482 26.393,26.036C25.825,26.59 25.076,26.859 24.102,26.859C23.693,26.859 23.392,26.782 23.207,26.629C23.052,26.501 22.981,26.309 22.981,26.025C22.981,25.846 23.011,25.689 23.074,25.546C23.127,25.424 23.191,25.334 23.262,25.278C23.33,25.225 23.405,25.196 23.502,25.184C23.916,25.129 24.227,25.057 24.453,24.965C24.77,24.834 25.02,24.587 25.176,24.249C25.3,23.98 25.376,23.624 25.409,23.16C25.438,22.758 25.453,22.192 25.453,21.435C25.469,20.374 25.53,19.539 25.635,18.954C25.73,18.424 25.909,17.967 26.168,17.595C26.429,17.22 26.833,16.859 27.366,16.522ZM10.748,23.041L21.206,23.041C21.621,23.041 21.957,22.705 21.957,22.29L21.956,18.581C21.822,18.132 21.438,18.089 21.078,18.431C21.045,18.431 20.685,18.874 19.858,18.874C18.87,18.843 18.064,18.111 17.914,17.159L17.903,17.159C17.896,17.089 17.896,16.703 17.903,16.633L17.914,16.633C18.064,15.68 18.87,14.948 19.858,14.918C20.685,14.918 21.045,15.361 21.078,15.361C21.428,15.693 21.816,15.613 21.957,15.214L21.958,11.782C21.958,11.433 21.719,11.125 21.396,11.041C21.335,11.057 18.137,11.041 18.137,11.041C17.351,11.106 17.074,10.575 17.513,10.113C17.513,10.08 17.956,9.72 17.956,8.893C17.925,7.905 17.193,7.099 16.241,6.949L16.241,6.938C16.171,6.931 15.785,6.931 15.715,6.938L15.715,6.949C14.762,7.099 14.03,7.905 14,8.893C14,9.72 14.443,10.08 14.443,10.113C14.882,10.575 14.697,11.083 13.819,11.041C13.819,11.041 10.621,11.057 10.56,11.041C10.237,11.125 9.998,11.434 9.998,11.782L9.998,22.29C9.997,22.705 10.333,23.041 10.748,23.041ZM4.551,19.349C4.606,19.576 4.671,20.287 4.735,23.841C4.742,24.443 4.881,24.979 5.148,25.438C5.415,25.896 5.77,26.238 6.233,26.484C6.703,26.734 7.263,26.86 7.899,26.86C8.934,26.86 9.02,26.46 9.02,26.049C9.02,25.766 8.964,25.556 8.855,25.422C8.749,25.294 8.639,25.228 8.499,25.209C8.102,25.164 7.798,25.099 7.574,25.01C7.262,24.886 7.021,24.664 6.856,24.349C6.721,24.09 6.637,23.726 6.598,23.237C6.565,22.816 6.548,22.232 6.548,21.451C6.548,20.7 6.513,20.041 6.445,19.49C6.38,18.97 6.27,18.52 6.116,18.151C5.969,17.797 5.783,17.495 5.562,17.255C5.329,17.001 5.017,16.751 4.635,16.511L3.814,15.995L4.633,15.477C5.166,15.14 5.569,14.779 5.832,14.402C6.091,14.03 6.27,13.573 6.365,13.043C6.47,12.458 6.531,11.624 6.547,10.562C6.547,9.805 6.561,9.239 6.591,8.837C6.624,8.373 6.7,8.017 6.824,7.748C6.98,7.411 7.23,7.164 7.547,7.033C7.773,6.941 8.084,6.87 8.498,6.814C8.595,6.802 8.67,6.773 8.738,6.72C8.81,6.665 8.874,6.575 8.927,6.453C8.989,6.31 9.02,6.154 9.02,5.974C9.02,5.69 8.948,5.498 8.794,5.37C8.608,5.217 8.307,5.14 7.899,5.14C6.925,5.14 6.176,5.409 5.608,5.963C5.041,6.517 4.756,7.244 4.735,8.185C4.711,9.348 4.69,10.316 4.67,11.089C4.649,11.914 4.584,12.527 4.472,12.964C4.346,13.452 4.118,13.869 3.793,14.204C3.504,14.502 3.068,14.828 2.462,15.201C2.192,15.367 2.072,15.611 2.072,15.995C2.072,16.368 2.153,16.506 2.188,16.549C2.315,16.702 2.526,16.868 2.815,17.042C3.215,17.282 3.563,17.566 3.85,17.885C4.169,18.24 4.398,18.719 4.551,19.349Z" style="fill:#fff;fill-rule:nonzero;"/>
    </g>
</svg>
