<svg width="256" height="256" title="MakeCode" viewBox="0 0 256 256" fill="none" xmlns="http://www.w3.org/2000/svg">
<rect width="256" height="256" rx="40" fill="#AA278F"/>
<path d="M195.622 131.334L200.466 128.27L195.61 125.218C193.35 123.798 191.511 122.319 190.127 120.817C188.819 119.391 187.713 117.605 186.849 115.516C185.944 113.34 185.288 110.672 184.909 107.596C184.507 104.336 184.3 100.438 184.3 95.9959C184.3 91.3761 184.205 87.9215 184.004 85.4312C183.773 82.5386 183.277 80.3913 182.478 78.8533C181.508 76.99 180.076 75.6709 178.231 74.9433C176.912 74.4169 175.113 74.0324 172.765 73.7662C171.931 73.6538 171.28 73.2634 170.659 72.5062C170.009 71.7195 169.683 70.4713 169.683 68.7973C169.683 66.372 170.192 64 176.314 64C180.076 64 183.389 64.7512 186.169 66.2242C188.914 67.6852 191.008 69.7083 192.587 72.4116C194.167 75.1208 194.989 78.2973 195.03 81.8583C195.409 102.881 195.793 107.087 196.119 108.43C197.024 112.157 198.378 114.99 200.265 117.09C201.963 118.977 204.022 120.651 206.388 122.077C208.103 123.112 209.351 124.094 210.097 124.993C210.304 125.247 210.783 126.063 210.783 128.27C210.783 130.535 210.073 131.985 208.476 132.967C204.891 135.173 202.318 137.101 200.603 138.864C198.686 140.84 197.337 143.312 196.592 146.199C195.929 148.784 195.545 152.41 195.421 157.29C195.302 161.863 195.172 167.589 195.03 174.468C194.906 180.035 193.22 184.335 189.866 187.612C186.506 190.889 182.076 192.481 176.314 192.481C173.895 192.481 172.114 192.025 171.02 191.12C170.103 190.363 169.683 189.227 169.683 187.547C169.683 186.488 169.861 185.56 170.233 184.714C170.547 183.992 170.925 183.46 171.345 183.128C171.748 182.815 172.191 182.643 172.765 182.572C175.214 182.247 177.054 181.821 178.391 181.277C180.266 180.502 181.745 179.041 182.667 177.042C183.401 175.45 183.85 173.345 184.046 170.6C184.217 168.222 184.306 164.874 184.306 160.396C184.4 154.12 184.761 149.18 185.382 145.72C185.944 142.585 187.003 139.882 188.535 137.681C190.079 135.463 192.469 133.327 195.622 131.334ZM97.3212 169.896H159.184C161.638 169.896 163.626 167.908 163.626 165.453L163.62 143.514C162.827 140.858 160.556 140.603 158.426 142.626C158.231 142.626 156.102 145.247 151.21 145.247C145.365 145.063 140.598 140.733 139.71 135.102H139.645C139.604 134.688 139.604 132.405 139.645 131.991H139.71C140.598 126.353 145.365 122.023 151.21 121.846C156.102 121.846 158.231 124.466 158.426 124.466C160.497 126.43 162.792 125.957 163.626 123.597L163.632 103.295C163.632 101.231 162.218 99.409 160.307 98.9122C159.947 99.0068 141.029 98.9122 141.029 98.9122C136.38 99.2967 134.741 96.1556 137.338 93.4228C137.338 93.2275 139.959 91.098 139.959 86.2061C139.775 80.3617 135.445 75.594 129.814 74.7067V74.6416C129.4 74.6002 127.117 74.6002 126.703 74.6416V74.7067C121.065 75.594 116.735 80.3617 116.558 86.2061C116.558 91.098 119.178 93.2275 119.178 93.4228C121.775 96.1556 120.681 99.1606 115.487 98.9122C115.487 98.9122 96.57 99.0068 96.2092 98.9122C94.2985 99.409 92.8847 101.237 92.8847 103.295V165.453C92.8788 167.908 94.8664 169.896 97.3212 169.896ZM60.6641 148.057C60.9894 149.399 61.3739 153.605 61.7525 174.628C61.7939 178.189 62.6161 181.36 64.1955 184.075C65.7749 186.784 67.8748 188.807 70.6136 190.262C73.3938 191.741 76.7064 192.486 80.4685 192.486C86.5909 192.486 87.0996 190.12 87.0996 187.689C87.0996 186.015 86.7683 184.773 86.1235 183.98C85.4965 183.223 84.8458 182.833 84.0177 182.72C81.6693 182.454 79.8711 182.07 78.546 181.543C76.7005 180.81 75.2749 179.496 74.2988 177.633C73.5003 176.101 73.0034 173.948 72.7727 171.055C72.5775 168.565 72.4769 165.11 72.4769 160.491C72.4769 156.048 72.2699 152.15 71.8677 148.891C71.4832 145.815 70.8325 143.153 69.9215 140.97C69.052 138.876 67.9517 137.09 66.6444 135.67C65.2662 134.167 63.4206 132.689 61.1609 131.269L56.3045 128.217L61.1491 125.152C64.302 123.159 66.6858 121.024 68.2416 118.794C69.7736 116.593 70.8325 113.89 71.3944 110.755C72.0155 107.294 72.3764 102.361 72.471 96.0787C72.471 91.6008 72.5538 88.2528 72.7313 85.8748C72.9265 83.1301 73.3761 81.0243 74.1096 79.433C75.0323 77.4396 76.5112 75.9785 78.3863 75.2036C79.7232 74.6594 81.5628 74.2394 84.0118 73.9081C84.5856 73.8372 85.0292 73.6656 85.4315 73.3521C85.8574 73.0268 86.2359 72.4944 86.5494 71.7727C86.9162 70.9268 87.0996 70.004 87.0996 68.9393C87.0996 67.2593 86.6737 66.1236 85.7627 65.3664C84.6625 64.4614 82.882 64.0059 80.4685 64.0059C74.707 64.0059 70.2764 65.5971 66.9165 68.8742C63.5626 72.1513 61.8767 76.4517 61.7525 82.018C61.6105 88.8975 61.4863 94.6236 61.368 99.1961C61.2438 104.076 60.8593 107.702 60.1967 110.287C59.4514 113.174 58.1027 115.641 56.1802 117.622C54.4707 119.385 51.8916 121.313 48.307 123.52C46.7098 124.502 46 125.945 46 128.217C46 130.423 46.4791 131.239 46.6862 131.494C47.4374 132.399 48.6856 133.381 50.3951 134.41C52.7612 135.83 54.8197 137.51 56.5174 139.397C58.4044 141.496 59.759 144.33 60.6641 148.057Z" fill="white"/>
</svg>