<svg width="256" height="256" title="MariaDB" viewBox="0 0 256 256" fill="none" xmlns="http://www.w3.org/2000/svg">
<rect width="256" height="256" rx="40" fill="#003545"/>
<path d="M212.17 70.0026C209.479 70.0974 210.259 71.3078 204.441 72.7443C198.571 74.188 191.462 73.3057 185.147 75.9599C168.617 82.8869 165.941 109.676 146.247 120.037C133.34 127.329 120.172 128.999 108.403 132.688C98.9607 136.48 93.0837 138.988 86.1567 144.96C80.7828 149.59 79.4703 154.089 73.8558 159.908C68.1538 167.651 46.5562 160.768 41 170.481C43.9312 172.376 45.6229 172.901 50.7707 172.23C49.7061 174.243 42.9396 176.897 44.1645 179.872C44.1645 179.872 60.5341 182.854 74.3298 174.527C80.7609 171.91 86.7984 166.368 96.7878 165.041C109.745 163.32 124.335 167.761 139.99 169.008C136.753 175.402 133.413 179.179 129.848 184.458C128.739 185.647 130.796 186.697 134.587 185.982C141.42 184.291 146.363 182.461 151.278 179.063C157.68 174.644 160.436 170.604 165.839 164.195C170.535 171.72 187.087 173.383 190.485 166.871C184.163 164.195 182.814 150.268 184.979 144.26C187.531 138.529 189.376 130.435 191.44 122.91C193.306 116.129 194.451 105.782 196.675 100.489C199.336 93.9044 204.499 91.8482 208.378 88.3555C212.257 84.8629 216.107 81.9535 215.998 73.962C215.954 71.3662 214.612 69.9297 212.17 70.0026ZM207.992 73.2474C208.648 75.4859 209.676 76.514 214.124 76.9223C213.475 82.566 209.705 85.6431 205.498 88.6034C201.786 91.1992 197.725 93.7075 195.115 97.7762C192.439 101.932 188.18 114.036 184.031 128.102C180.444 140.264 176.266 148.569 167.436 155.861C166.342 153.236 168.675 151.719 167.655 149.32C166.379 152.937 163.586 158.202 161.902 161.424C156.36 172.026 147.18 180.601 133.457 183.022C139.969 174.199 146.487 164.48 147.282 149.284C144.365 149.918 144.132 157.771 139.422 160.659C136.396 160.987 132.167 160.294 127.952 159.784C115.367 158.304 102.687 157.728 90.8598 161.534C82.8026 164.108 73.6808 172.085 66.8559 175.045C58.8352 178.53 56.0863 178.8 45.9364 178.494C44.6677 176.788 53.2425 174.586 52.7613 170.86C48.853 170.437 46.5781 171.377 43.1802 169.839C43.5777 169.136 44.1347 168.537 44.8062 168.089C51.0332 163.787 68.708 167.068 73.4402 162.423C76.3641 159.565 78.2745 156.561 80.2578 153.644C82.1901 150.815 84.1807 148.066 87.2067 145.587C88.3296 144.676 90.0796 143.101 91.3702 142.211C96.5399 138.682 102.38 136.152 108.673 133.95C117.233 130.938 125.888 129.925 135.018 126.439C140.661 124.281 146.013 122.239 151.008 118.506C152.189 117.624 153.976 116.129 155.018 115.116C171.206 99.1325 172.234 77.3671 194.502 75.0849C197.2 74.8078 199.402 74.8953 201.415 74.837C203.726 74.764 205.768 74.4943 207.992 73.2474ZM206.898 74.6838C206.774 74.6838 206.541 74.7932 206.22 75.0922C204.287 77.0755 200.459 81.5379 199.074 85.6941C198.709 86.8243 199.424 86.4962 199.672 85.767C201.05 81.5087 205.418 76.8276 206.752 75.413C207.08 75.0338 207.124 74.6911 206.898 74.6838ZM207.481 75.6536C207.357 75.6682 207.146 75.814 206.869 76.1567C205.235 78.388 202.078 81.7712 201.283 86.0733C201.086 87.2399 201.75 86.8243 201.881 86.066C202.654 81.6546 206.315 77.9723 207.445 76.3901C207.714 75.9672 207.7 75.6244 207.481 75.6536ZM208.196 76.5286C208.072 76.5578 207.875 76.7182 207.634 77.0828C206.183 79.4525 204.28 82.1796 203.85 86.5253C203.755 87.7066 204.382 87.2326 204.455 86.467C204.834 82.0046 207.219 78.9421 208.21 77.2651C208.444 76.8276 208.414 76.4776 208.196 76.5286ZM208.976 77.1921C208.845 77.2286 208.67 77.4109 208.458 77.79C207.226 80.2692 206.067 82.165 206.023 86.5399C206.037 87.7285 206.606 87.1962 206.613 86.4306C206.613 81.9535 208.218 79.6859 209.056 77.9286C209.246 77.4692 209.187 77.1192 208.976 77.1921ZM193.926 79.3359C190.091 79.4306 187.823 81.1004 187.087 84.2941C190.237 87.0285 196.843 84.8337 195.669 79.3942C195.087 79.3432 194.51 79.3237 193.926 79.3359Z" fill="white"/>
</svg>