<svg width="256" height="256" title="Markdown" viewBox="0 0 256 256" fill="none" xmlns="http://www.w3.org/2000/svg" id="markdown">
<style>
#markdown {
    rect {fill: #15191C}
    path {fill: #F4F2ED}

    @media (prefers-color-scheme: light) {
        rect {fill: #F4F2ED}
        path {fill: #15191C}
    }
}
</style>
<rect width="256" height="256" rx="40" fill="#15191C"/>
<path d="M200.744 180.615H55.2588C48.4985 180.615 43 175.117 43 168.357V88.2588C43 81.4985 48.4985 76 55.2588 76H200.741C207.501 76 213 81.4985 213 88.2588V168.357C213.003 175.117 207.504 180.615 200.744 180.615ZM83.867 156.098V124.222L100.214 144.655L116.561 124.222V156.098H132.907V100.518H116.561L100.214 120.95L83.867 100.518H67.5202V156.095H83.867V156.098ZM193.386 128.308H177.039V100.518H160.692V128.308H144.345L168.866 156.913L193.386 128.308Z" fill="#F4F2ED"/>
</svg>