<svg width="256" height="256" title="Mastodon" viewBox="0 0 256 256" fill="none" xmlns="http://www.w3.org/2000/svg" id="mastodon">
<style>
#mastodon {
    rect {fill: #15191C}

    @media (prefers-color-scheme: light) {
        rect {fill: #F4F2ED}
    }
}
</style>
<rect width="256" height="256" rx="40" fill="#15191C"/>
<path d="M197.913 143.19C195.782 154.156 178.823 166.156 159.346 168.482C149.189 169.694 139.189 170.808 128.526 170.319C111.087 169.52 97.327 166.156 97.327 166.156C97.327 167.854 97.4317 169.47 97.6411 170.982C99.9082 188.192 114.706 189.223 128.724 189.704C142.872 190.188 155.47 186.216 155.47 186.216L156.051 199.006C156.051 199.006 146.155 204.32 128.526 205.298C118.805 205.832 106.735 205.053 92.6763 201.332C62.1858 193.262 56.9421 160.76 56.1398 127.782C55.8952 117.991 56.046 108.758 56.046 101.036C56.046 67.3148 78.1404 57.4304 78.1404 57.4304C89.281 52.314 108.397 50.1625 128.271 50H128.759C148.632 50.1625 167.761 52.314 178.901 57.4304C178.901 57.4304 200.994 67.3148 200.994 101.036C200.994 101.036 201.272 125.916 197.913 143.19Z" fill="url(#linearGradient)"/>
<path d="M174.934 103.652V144.484H158.757V104.853C158.757 96.4984 155.242 92.2581 148.211 92.2581C140.437 92.2581 136.541 97.2882 136.541 107.235V128.927H120.46V107.235C120.46 97.2882 116.563 92.2581 108.789 92.2581C101.758 92.2581 98.2432 96.4984 98.2432 104.853V144.484H82.0667V103.652C82.0667 95.3075 84.1914 88.676 88.4594 83.7699C92.8605 78.8637 98.6243 76.3487 105.779 76.3487C114.057 76.3487 120.326 79.5304 124.471 85.8947L128.5 92.6492L132.53 85.8947C136.674 79.5304 142.943 76.3487 151.222 76.3487C158.376 76.3487 164.14 78.8637 168.542 83.7699C172.809 88.676 174.934 95.3075 174.934 103.652Z" fill="white"/>
<linearGradient id="linearGradient" x1="128.483" y1="50" x2="128.483" y2="205.428" gradientUnits="userSpaceOnUse">
<stop stop-color="#6364FF"/>
<stop offset="1" stop-color="#563ACC"/>
</linearGradient>
</svg>