<svg width="256" height="256" title="Matplotlib" viewBox="0 0 256 256" fill="none" xmlns="http://www.w3.org/2000/svg" id="matplotlib">
<style>
#matplotlib {
    rect {fill: #15191C}

    @media (prefers-color-scheme: light) {
        rect {fill: #F4F2ED}
    }
}
</style>
<rect width="256" height="256" rx="40" fill="#15191C"/>
<path d="M128 213C174.944 213 213 174.944 213 128C213 81.0558 174.944 43 128 43C81.0558 43 43 81.0558 43 128C43 174.944 81.0558 213 128 213Z" fill="white"/>
<path d="M128 191.75C163.208 191.75 191.75 163.208 191.75 128C191.75 92.7918 163.208 64.25 128 64.25C92.7918 64.25 64.25 92.7918 64.25 128C64.25 163.208 92.7918 191.75 128 191.75Z" fill="white"/>
<path d="M128 170.5C151.472 170.5 170.5 151.472 170.5 128C170.5 104.528 151.472 85.5 128 85.5C104.528 85.5 85.5 104.528 85.5 128C85.5 151.472 104.528 170.5 128 170.5Z" fill="white"/>
<path d="M128 149.25C139.736 149.25 149.25 139.736 149.25 128C149.25 116.264 139.736 106.75 128 106.75C116.264 106.75 106.75 116.264 106.75 128C106.75 139.736 116.264 149.25 128 149.25Z" fill="white"/>
<path d="M128 43V213ZM187.886 187.886L68.1136 68.1136ZM187.886 68.1136L68.1136 187.886ZM213 128H43Z" fill="white"/>
<path d="M128 128H145.386C145.611 126.398 145.611 124.772 145.386 123.17L128 128Z" fill="#4444CC"/>
<path d="M128 128L160.841 86.4659C156.441 83.1548 151.553 80.5479 146.352 78.7386L128 128Z" fill="#BBCC33"/>
<path d="M128 128L112.545 58.4545C101.564 60.8621 91.305 65.826 82.6023 72.9432L128 128Z" fill="#DD9933"/>
<path d="M128 128L71.9773 100.955C66.5171 112.712 64.8301 125.871 67.1478 138.625L128 128Z" fill="#DDBB33"/>
<path d="M128 128L96.125 143.455C96.6508 145.109 97.2964 146.723 98.0568 148.284L128 128Z" fill="#33BBBB"/>
<path d="M128 128L118.341 171.466C124.08 172.611 129.988 172.611 135.727 171.466L128 128Z" fill="#33CC99"/>
<path d="M128 128L172.432 184.023C176.727 180.616 180.616 176.727 184.023 172.432L128 128Z" fill="#DD7733"/>
<path d="M213 128C213 174.944 174.944 213 128 213M213 128C213 81.0558 174.944 43 128 43M213 128H43M128 213C81.0558 213 43 174.944 43 128M128 213V43M43 128C43 81.0558 81.0558 43 128 43M187.886 187.886L68.1136 68.1136M187.886 68.1136L68.1136 187.886M128 128H145.386C145.611 126.398 145.611 124.772 145.386 123.17L128 128ZM128 128L160.841 86.4659C156.441 83.1548 151.553 80.5479 146.352 78.7386L128 128ZM128 128L112.545 58.4545C101.564 60.8621 91.305 65.826 82.6023 72.9432L128 128ZM128 128L71.9773 100.955C66.5171 112.712 64.8301 125.871 67.1478 138.625L128 128ZM128 128L96.125 143.455C96.6508 145.109 97.2964 146.723 98.0568 148.284L128 128ZM128 128L118.341 171.466C124.08 172.611 129.988 172.611 135.727 171.466L128 128ZM128 128L172.432 184.023C176.727 180.616 180.616 176.727 184.023 172.432L128 128ZM191.75 128C191.75 163.208 163.208 191.75 128 191.75C92.7918 191.75 64.25 163.208 64.25 128C64.25 92.7918 92.7918 64.25 128 64.25C163.208 64.25 191.75 92.7918 191.75 128ZM170.5 128C170.5 151.472 151.472 170.5 128 170.5C104.528 170.5 85.5 151.472 85.5 128C85.5 104.528 104.528 85.5 128 85.5C151.472 85.5 170.5 104.528 170.5 128ZM149.25 128C149.25 139.736 139.736 149.25 128 149.25C116.264 149.25 106.75 139.736 106.75 128C106.75 116.264 116.264 106.75 128 106.75C139.736 106.75 149.25 116.264 149.25 128Z" stroke="#808080"/>
</svg>