<svg width="256" height="256" title="Metabase" viewBox="0 0 256 256" fill="none" xmlns="http://www.w3.org/2000/svg" id="metabase">
<style>
#metabase {
    rect {fill: #15191C}

    @media (prefers-color-scheme: light) {
        rect {fill: #F4F2ED}
    }
}
</style>
<rect width="256" height="256" rx="40" fill="#15191C"/>
<path d="M75.4697 99.0297C80.6997 99.0297 84.9394 94.7222 84.9394 89.4086C84.9394 84.095 80.6997 79.7875 75.4697 79.7875C70.2397 79.7875 66 84.095 66 89.4086C66 94.7222 70.2397 99.0297 75.4697 99.0297Z" fill="#509EE3"/>
<path d="M75.4697 125.969C80.6997 125.969 84.9394 121.661 84.9394 116.348C84.9394 111.034 80.6997 106.727 75.4697 106.727C70.2397 106.727 66 111.034 66 116.348C66 121.661 70.2397 125.969 75.4697 125.969Z" fill="#509EE3"/>
<path opacity="0.2" d="M101.985 99.0297C107.215 99.0297 111.455 94.7222 111.455 89.4086C111.455 84.095 107.215 79.7875 101.985 79.7875C96.7549 79.7875 92.5151 84.095 92.5151 89.4086C92.5151 94.7222 96.7549 99.0297 101.985 99.0297Z" fill="#509EE3"/>
<path d="M101.985 126.23C107.215 126.23 111.455 121.923 111.455 116.609C111.455 111.296 107.215 106.988 101.985 106.988C96.7549 106.988 92.5151 111.296 92.5151 116.609C92.5151 121.923 96.7549 126.23 101.985 126.23Z" fill="#509EE3"/>
<path opacity="0.2" d="M128.5 99.0297C133.73 99.0297 137.97 94.7222 137.97 89.4086C137.97 84.095 133.73 79.7875 128.5 79.7875C123.27 79.7875 119.03 84.095 119.03 89.4086C119.03 94.7222 123.27 99.0297 128.5 99.0297Z" fill="#509EE3"/>
<path opacity="0.2" d="M128.5 68.2422C133.73 68.2422 137.97 63.9347 137.97 58.6211C137.97 53.3075 133.73 49 128.5 49C123.27 49 119.03 53.3075 119.03 58.6211C119.03 63.9347 123.27 68.2422 128.5 68.2422Z" fill="#509EE3"/>
<path opacity="0.2" d="M128.5 126.23C133.73 126.23 137.97 121.923 137.97 116.609C137.97 111.296 133.73 106.988 128.5 106.988C123.27 106.988 119.03 111.296 119.03 116.609C119.03 121.923 123.27 126.23 128.5 126.23Z" fill="#509EE3"/>
<path opacity="0.2" d="M155.015 99.0297C160.245 99.0297 164.485 94.7222 164.485 89.4086C164.485 84.095 160.245 79.7875 155.015 79.7875C149.785 79.7875 145.545 84.095 145.545 89.4086C145.545 94.7222 149.785 99.0297 155.015 99.0297Z" fill="#509EE3"/>
<path d="M181.53 99.0297C186.76 99.0297 191 94.7222 191 89.4086C191 84.095 186.76 79.7875 181.53 79.7875C176.3 79.7875 172.061 84.095 172.061 89.4086C172.061 94.7222 176.3 99.0297 181.53 99.0297Z" fill="#509EE3"/>
<path d="M155.015 126.23C160.245 126.23 164.485 121.923 164.485 116.609C164.485 111.296 160.245 106.988 155.015 106.988C149.785 106.988 145.545 111.296 145.545 116.609C145.545 121.923 149.785 126.23 155.015 126.23Z" fill="#509EE3"/>
<path d="M181.53 126.23C186.76 126.23 191 121.923 191 116.609C191 111.296 186.76 106.988 181.53 106.988C176.3 106.988 172.061 111.296 172.061 116.609C172.061 121.923 176.3 126.23 181.53 126.23Z" fill="#509EE3"/>
<path d="M75.4697 152.908C80.6997 152.908 84.9394 148.6 84.9394 143.287C84.9394 137.973 80.6997 133.665 75.4697 133.665C70.2397 133.665 66 137.973 66 143.287C66 148.6 70.2397 152.908 75.4697 152.908Z" fill="#509EE3"/>
<path opacity="0.2" d="M101.985 153.169C107.215 153.169 111.455 148.862 111.455 143.548C111.455 138.235 107.215 133.927 101.985 133.927C96.7549 133.927 92.5151 138.235 92.5151 143.548C92.5151 148.862 96.7549 153.169 101.985 153.169Z" fill="#509EE3"/>
<path d="M128.5 153.169C133.73 153.169 137.97 148.862 137.97 143.548C137.97 138.235 133.73 133.927 128.5 133.927C123.27 133.927 119.03 138.235 119.03 143.548C119.03 148.862 123.27 153.169 128.5 153.169Z" fill="#509EE3"/>
<path opacity="0.2" d="M155.015 153.169C160.245 153.169 164.485 148.862 164.485 143.548C164.485 138.235 160.245 133.927 155.015 133.927C149.785 133.927 145.545 138.235 145.545 143.548C145.545 148.862 149.785 153.169 155.015 153.169Z" fill="#509EE3"/>
<path d="M181.53 153.169C186.76 153.169 191 148.862 191 143.548C191 138.235 186.76 133.927 181.53 133.927C176.3 133.927 172.061 138.235 172.061 143.548C172.061 148.862 176.3 153.169 181.53 153.169Z" fill="#509EE3"/>
<path d="M75.4697 179.847C80.6997 179.847 84.9394 175.539 84.9394 170.226C84.9394 164.912 80.6997 160.604 75.4697 160.604C70.2397 160.604 66 164.912 66 170.226C66 175.539 70.2397 179.847 75.4697 179.847Z" fill="#509EE3"/>
<path opacity="0.2" d="M101.985 180.108C107.215 180.108 111.455 175.801 111.455 170.487C111.455 165.174 107.215 160.866 101.985 160.866C96.7549 160.866 92.5151 165.174 92.5151 170.487C92.5151 175.801 96.7549 180.108 101.985 180.108Z" fill="#509EE3"/>
<path opacity="0.2" d="M128.5 180.108C133.73 180.108 137.97 175.801 137.97 170.487C137.97 165.174 133.73 160.866 128.5 160.866C123.27 160.866 119.03 165.174 119.03 170.487C119.03 175.801 123.27 180.108 128.5 180.108Z" fill="#509EE3"/>
<path opacity="0.2" d="M128.5 207.047C133.73 207.047 137.97 202.74 137.97 197.426C137.97 192.113 133.73 187.805 128.5 187.805C123.27 187.805 119.03 192.113 119.03 197.426C119.03 202.74 123.27 207.047 128.5 207.047Z" fill="#509EE3"/>
<path opacity="0.2" d="M155.015 180.108C160.245 180.108 164.485 175.801 164.485 170.487C164.485 165.174 160.245 160.866 155.015 160.866C149.785 160.866 145.545 165.174 145.545 170.487C145.545 175.801 149.785 180.108 155.015 180.108Z" fill="#509EE3"/>
<path d="M181.53 180.108C186.76 180.108 191 175.801 191 170.487C191 165.174 186.76 160.866 181.53 160.866C176.3 160.866 172.061 165.174 172.061 170.487C172.061 175.801 176.3 180.108 181.53 180.108Z" fill="#509EE3"/>
</svg>