<svg viewBox="0 0 256 256" xmlns="http://www.w3.org/2000/svg" xml:space="preserve" style="fill-rule:evenodd;clip-rule:evenodd;stroke-linejoin:round;stroke-miterlimit:2"><path d="M256 40v176c0 22.077-17.923 40-40 40H40c-22.077 0-40-17.923-40-40V40C0 17.923 17.923 0 40 0h176c22.077 0 40 17.923 40 40" style="fill:#15191c"/><path d="M9 17.5a4.5 4.5 0 0 1 4.5-4.5H39v26a3 3 0 0 1-3 3H15a6 6 0 0 1-6-6z" style="fill:url(#a);fill-rule:nonzero" transform="matrix(4.4 0 0 4.4 33.4 22.4)"/><path d="M9 17.5a4.5 4.5 0 0 1 4.5-4.5H39v26a3 3 0 0 1-3 3H15a6 6 0 0 1-6-6z" style="fill:url(#b);fill-rule:nonzero" transform="matrix(4.4 0 0 4.4 33.4 22.4)"/><path d="M9 22.5a4.5 4.5 0 0 1 4.5-4.5H27a3 3 0 0 0-3 3v6a3 3 0 0 1-3 3h-6a6 6 0 0 0-6 6z" style="fill:url(#c);fill-rule:nonzero" transform="matrix(4.4 0 0 4.4 33.4 22.4)"/><path d="M9 22.5a4.5 4.5 0 0 1 4.5-4.5H27a3 3 0 0 0-3 3v6a3 3 0 0 1-3 3h-6a6 6 0 0 0-6 6z" style="fill:url(#d);fill-rule:nonzero" transform="matrix(4.4 0 0 4.4 33.4 22.4)"/><path d="M9 12a6 6 0 0 1 6-6h12v12H15a6 6 0 0 0-6 6z" style="fill:url(#e);fill-rule:nonzero" transform="matrix(4.4 0 0 4.4 33.4 22.4)"/><path d="M9 12a6 6 0 0 1 6-6h12v12H15a6 6 0 0 0-6 6z" style="fill:url(#f);fill-rule:nonzero" transform="matrix(4.4 0 0 4.4 33.4 22.4)"/><path d="M9 12a6 6 0 0 1 6-6h12v12H15a6 6 0 0 0-6 6z" style="fill:url(#g);fill-rule:nonzero" transform="matrix(4.4 0 0 4.4 33.4 22.4)"/><path d="M15 .682v10.636a.683.683 0 0 1-.682.682H.682A.683.683 0 0 1 0 11.318V.682C0 .306.306 0 .682 0h13.636c.376 0 .682.306.682.682" style="fill:url(#h)" transform="matrix(-4.4 0 0 4.4 205 48.8)"/><path d="M20 23.739v14.522a.74.74 0 0 1-.739.739H4.739A.74.74 0 0 1 4 38.261V23.739A.74.74 0 0 1 4.739 23h14.522a.74.74 0 0 1 .739.739" style="fill:url(#i)" transform="matrix(4.4 0 0 4.4 33.4 22.4)"/><path d="M20 23.739v14.522a.74.74 0 0 1-.739.739H4.739A.74.74 0 0 1 4 38.261V23.739A.74.74 0 0 1 4.739 23h14.522a.74.74 0 0 1 .739.739" style="fill:url(#j)" transform="matrix(4.4 0 0 4.4 33.4 22.4)"/><path d="M16.206 35.571h-2.467l-1.548-2.913-.128-.243-.083-.216h-.025a2 2 0 0 1-.108.248l-.121.236-1.606 2.888H7.794l2.791-4.577-2.6-4.565h2.434l1.377 2.601q.083.16.14.28.063.115.127.275h.026l.14-.294.153-.287 1.427-2.575h2.32l-2.638 4.495z" style="fill:#fff;fill-rule:nonzero" transform="matrix(4.4 0 0 4.4 33.4 22.4)"/><defs><radialGradient id="a" cx="0" cy="0" r="1" gradientUnits="userSpaceOnUse" gradientTransform="matrix(-28.3333 -29.8056 23.8737 -21.198 39 44.417)"><stop offset="0" style="stop-color:#379539;stop-opacity:1"/><stop offset=".06" style="stop-color:#379539;stop-opacity:1"/><stop offset=".42" style="stop-color:#297c2d;stop-opacity:1"/><stop offset=".7" style="stop-color:#15561c;stop-opacity:1"/><stop offset="1" style="stop-color:#15561c;stop-opacity:1"/></radialGradient><radialGradient id="b" cx="0" cy="0" r="1" gradientUnits="userSpaceOnUse" gradientTransform="matrix(-11.9792 -11.5799 9.27541 -8.96254 18.167 23.472)"><stop offset="0" style="stop-color:#073b10;stop-opacity:.7"/><stop offset=".99" style="stop-color:#084a13;stop-opacity:0"/><stop offset="1" style="stop-color:#084a13;stop-opacity:0"/></radialGradient><radialGradient id="f" cx="0" cy="0" r="1" gradientUnits="userSpaceOnUse" gradientTransform="matrix(-9.01883 0 0 -19.094 26.352 13.663)"><stop offset="0" style="stop-color:#4eb43b;stop-opacity:1"/><stop offset=".29" style="stop-color:#4eb43b;stop-opacity:1"/><stop offset="1" style="stop-color:#72cc61;stop-opacity:0"/></radialGradient><radialGradient id="h" cx="0" cy="0" r="1" gradientUnits="userSpaceOnUse" gradientTransform="matrix(16.9109 -13.6794 -13.8694 -16.6793 -1.91 13.68)"><stop offset="0" style="stop-color:#79e96d;stop-opacity:1"/><stop offset=".44" style="stop-color:#79e96d;stop-opacity:1"/><stop offset="1" style="stop-color:#d0eb76;stop-opacity:1"/></radialGradient><radialGradient id="i" cx="0" cy="0" r="1" gradientUnits="userSpaceOnUse" gradientTransform="matrix(16 16 -45.5476 45.5476 4 23)"><stop offset="0" style="stop-color:#20a85e;stop-opacity:1"/><stop offset=".94" style="stop-color:#09442a;stop-opacity:1"/><stop offset="1" style="stop-color:#09442a;stop-opacity:1"/></radialGradient><radialGradient id="j" cx="0" cy="0" r="1" gradientUnits="userSpaceOnUse" gradientTransform="matrix(0 11.2 -12.9 0 12 32.6)"><stop offset="0" style="stop-color:#33a662;stop-opacity:0"/><stop offset=".58" style="stop-color:#33a662;stop-opacity:0"/><stop offset=".97" style="stop-color:#98f0b0;stop-opacity:.3"/><stop offset="1" style="stop-color:#98f0b0;stop-opacity:.3"/></radialGradient><linearGradient id="c" x1="0" y1="0" x2="1" y2="0" gradientUnits="userSpaceOnUse" gradientTransform="translate(9 27)scale(13.7848)"><stop offset="0" style="stop-color:#52d17c;stop-opacity:1"/><stop offset=".33" style="stop-color:#4aa647;stop-opacity:1"/><stop offset="1" style="stop-color:#4aa647;stop-opacity:1"/></linearGradient><linearGradient id="d" x1="0" y1="0" x2="1" y2="0" gradientUnits="userSpaceOnUse" gradientTransform="rotate(90 2.25 20.25)scale(12.5027)"><stop offset="0" style="stop-color:#29852f;stop-opacity:.3"/><stop offset=".5" style="stop-color:#4aa647;stop-opacity:0"/><stop offset="1" style="stop-color:#4aa647;stop-opacity:0"/></linearGradient><linearGradient id="e" x1="0" y1="0" x2="1" y2="0" gradientUnits="userSpaceOnUse" gradientTransform="rotate(-40.936 32.413 -2.65)scale(22.0153)"><stop offset="0" style="stop-color:#66d052;stop-opacity:1"/><stop offset="1" style="stop-color:#85e972;stop-opacity:1"/></linearGradient><linearGradient id="g" x1="0" y1="0" x2="1" y2="0" gradientUnits="userSpaceOnUse" gradientTransform="translate(17.115 14.392)scale(-8.1147)"><stop offset="0" style="stop-color:#c0e075;stop-opacity:0"/><stop offset=".18" style="stop-color:#c0e075;stop-opacity:0"/><stop offset="1" style="stop-color:#d1eb95;stop-opacity:1"/></linearGradient></defs></svg>