<svg viewBox="0 0 256 256" xmlns="http://www.w3.org/2000/svg" xml:space="preserve" style="fill-rule:evenodd;clip-rule:evenodd;stroke-linejoin:round;stroke-miterlimit:2"><path d="M256 40v176c0 22.077-17.923 40-40 40H40c-22.077 0-40-17.923-40-40V40C0 17.923 17.923 0 40 0h176c22.077 0 40 17.923 40 40" style="fill:#15191c"/><path d="M9 33.545A6.545 6.545 0 0 1 15.546 27H39v11.727a3.27 3.27 0 0 1-3.273 3.272l-20.592-.005A6.135 6.135 0 0 1 9 35.858z" style="fill:url(#a);fill-rule:nonzero" transform="translate(33.637 22.666)scale(4.38899)"/><path d="m25 14.5 14-.5v12.727A3.273 3.273 0 0 1 35.727 30H25z" style="fill:url(#b);fill-rule:nonzero" transform="translate(33.637 22.666)scale(4.38899)"/><path d="M9.005 11.999a6 6 0 0 1 6-5.999H35.5A3.5 3.5 0 0 1 39 9.5v5a3.5 3.5 0 0 1-3.5 3.5h-3a3.5 3.5 0 0 0-3.5 3.5v5a3.5 3.5 0 0 1-3.5 3.5H15a6 6 0 0 0-6 6z" style="fill:url(#c);fill-rule:nonzero" transform="translate(33.637 22.666)scale(4.38899)"/><path d="M9.005 11.999a6 6 0 0 1 6-5.999H35.5A3.5 3.5 0 0 1 39 9.5v5a3.5 3.5 0 0 1-3.5 3.5h-3a3.5 3.5 0 0 0-3.5 3.5v5a3.5 3.5 0 0 1-3.5 3.5H15a6 6 0 0 0-6 6z" style="fill:url(#d);fill-rule:nonzero" transform="translate(33.637 22.666)scale(4.38899)"/><path d="M20 23.74v14.52a.74.74 0 0 1-.74.74H4.74a.74.74 0 0 1-.74-.74V23.74a.74.74 0 0 1 .74-.74h14.52a.74.74 0 0 1 .74.74" style="fill:url(#e)" transform="translate(33.637 22.666)scale(4.38899)"/><path d="M20 23.74v14.52a.74.74 0 0 1-.74.74H4.74a.74.74 0 0 1-.74-.74V23.74a.74.74 0 0 1 .74-.74h14.52a.74.74 0 0 1 .74.74" style="fill:url(#f)" transform="translate(33.637 22.666)scale(4.38899)"/><path d="M16.11 35.571h-2.077l-3.766-5.642a16 16 0 0 1-.268-.44 4 4 0 0 1-.166-.319h-.025q.012.243.019.612.006.37.006.867v4.922H7.89v-9.142h2.217l3.626 5.463q.115.186.223.377.115.184.211.37h.025a9 9 0 0 1-.019-.472 43 43 0 0 1-.006-.785v-4.953h1.943z" style="fill:#fff;fill-rule:nonzero" transform="translate(33.637 22.666)scale(4.38899)"/><defs><radialGradient id="a" cx="0" cy="0" r="1" gradientUnits="userSpaceOnUse" gradientTransform="matrix(47.5733 0 0 20.0481 38.125 42)"><stop offset="0" style="stop-color:#a931d8;stop-opacity:1"/><stop offset=".16" style="stop-color:#a931d8;stop-opacity:1"/><stop offset=".57" style="stop-color:#6e1996;stop-opacity:1"/><stop offset="1" style="stop-color:#6e1996;stop-opacity:1"/></radialGradient><radialGradient id="d" cx="0" cy="0" r="1" gradientUnits="userSpaceOnUse" gradientTransform="matrix(-15.0807 24.6262 -44.248 -24.9716 41.158 4.198)"><stop offset="0" style="stop-color:#ffc7a3;stop-opacity:1"/><stop offset=".83" style="stop-color:#de67fd;stop-opacity:0"/><stop offset="1" style="stop-color:#de67fd;stop-opacity:0"/></radialGradient><radialGradient id="e" cx="0" cy="0" r="1" gradientUnits="userSpaceOnUse" gradientTransform="matrix(16 16 -16 16 4 23)"><stop offset="0" style="stop-color:#ac13eb;stop-opacity:1"/><stop offset=".07" style="stop-color:#ac13eb;stop-opacity:1"/><stop offset=".88" style="stop-color:#580087;stop-opacity:1"/><stop offset="1" style="stop-color:#580087;stop-opacity:1"/></radialGradient><radialGradient id="f" cx="0" cy="0" r="1" gradientUnits="userSpaceOnUse" gradientTransform="matrix(0 11.2 -12.9 0 12 32.6)"><stop offset="0" style="stop-color:#841fb0;stop-opacity:0"/><stop offset=".58" style="stop-color:#841fb0;stop-opacity:0"/><stop offset=".97" style="stop-color:#d373fc;stop-opacity:.8"/><stop offset="1" style="stop-color:#d373fc;stop-opacity:.8"/></radialGradient><linearGradient id="b" x1="0" y1="0" x2="1" y2="0" gradientUnits="userSpaceOnUse" gradientTransform="rotate(206.814 25.354 5.979)scale(19.3524)"><stop offset="0" style="stop-color:#ca59f7;stop-opacity:1"/><stop offset=".22" style="stop-color:#ca59f7;stop-opacity:1"/><stop offset=".89" style="stop-color:#691a90;stop-opacity:1"/><stop offset="1" style="stop-color:#691a90;stop-opacity:1"/></linearGradient><linearGradient id="c" x1="0" y1="0" x2="1" y2="0" gradientUnits="userSpaceOnUse" gradientTransform="translate(40.327 13.764)scale(-31.3199)"><stop offset="0" style="stop-color:#de66ff;stop-opacity:1"/><stop offset=".81" style="stop-color:#de66ff;stop-opacity:1"/><stop offset="1" style="stop-color:#fcb1ff;stop-opacity:1"/></linearGradient></defs></svg>