<svg width="256" height="256" title="Microsoft Clipchamp" viewBox="0 0 256 256" fill="none" xmlns="http://www.w3.org/2000/svg" id="microsoftclipchamp">
<style>
#microsoftclipchamp {
    rect {fill: #15191C}

    @media (prefers-color-scheme: light) {
        rect {fill: #F4F2ED}
    }
}
</style>
<rect width="256" height="256" rx="40" fill="#15191C"/>
<path d="M175.219 51.3188C179.848 50.4369 184.638 51.4014 188.565 54.0061C192.492 56.6108 195.243 60.6488 196.231 65.2563L196.669 67.3188C197.154 69.5783 197.183 71.9121 196.754 74.183C196.325 76.4539 195.446 78.616 194.169 80.5423C192.892 82.4685 191.243 84.12 189.318 85.3997C187.394 86.6794 185.233 87.5613 182.962 87.9938L68.7062 110.206C65.713 110.777 62.6153 110.155 60.0751 108.472C57.5349 106.789 55.7537 104.179 55.1124 101.2L53.3874 93.0188C52.9026 90.759 52.8741 88.425 53.3037 86.1541C53.7333 83.8831 54.6123 81.7208 55.8891 79.7943C57.1659 77.8677 58.8148 76.2157 60.7389 74.9352C62.663 73.6547 64.8235 72.7715 67.0937 72.3375L175.219 51.3188Z" fill="#7611F0"/>
<path d="M175.219 51.3188C179.848 50.4369 184.638 51.4014 188.565 54.0061C192.492 56.6108 195.243 60.6488 196.231 65.2563L196.669 67.3188C197.154 69.5783 197.183 71.9121 196.754 74.183C196.325 76.4539 195.446 78.616 194.169 80.5423C192.892 82.4685 191.243 84.12 189.318 85.3997C187.394 86.6794 185.233 87.5613 182.962 87.9938L68.7062 110.206C65.713 110.777 62.6153 110.155 60.0751 108.472C57.5349 106.789 55.7537 104.179 55.1124 101.2L53.3874 93.0188C52.9026 90.759 52.8741 88.425 53.3037 86.1541C53.7333 83.8831 54.6123 81.7208 55.8891 79.7943C57.1659 77.8677 58.8148 76.2157 60.7389 74.9352C62.663 73.6547 64.8235 72.7715 67.0937 72.3375L175.219 51.3188Z" fill="url(#paint0_radial_189_100)"/>
<path d="M175.219 51.3188C179.848 50.4369 184.638 51.4014 188.565 54.0061C192.492 56.6108 195.243 60.6488 196.231 65.2563L196.669 67.3188C197.154 69.5783 197.183 71.9121 196.754 74.183C196.325 76.4539 195.446 78.616 194.169 80.5423C192.892 82.4685 191.243 84.12 189.318 85.3997C187.394 86.6794 185.233 87.5613 182.962 87.9938L68.7062 110.206C65.713 110.777 62.6153 110.155 60.0751 108.472C57.5349 106.789 55.7537 104.179 55.1124 101.2L53.3874 93.0188C52.9026 90.759 52.8741 88.425 53.3037 86.1541C53.7333 83.8831 54.6123 81.7208 55.8891 79.7943C57.1659 77.8677 58.8148 76.2157 60.7389 74.9352C62.663 73.6547 64.8235 72.7715 67.0937 72.3375L175.219 51.3188Z" fill="url(#paint1_radial_189_100)"/>
<path d="M175.219 51.3188C179.848 50.4369 184.638 51.4014 188.565 54.0061C192.492 56.6108 195.243 60.6488 196.231 65.2563L196.669 67.3188C197.154 69.5783 197.183 71.9121 196.754 74.183C196.325 76.4539 195.446 78.616 194.169 80.5423C192.892 82.4685 191.243 84.12 189.318 85.3997C187.394 86.6794 185.233 87.5613 182.962 87.9938L68.7062 110.206C65.713 110.777 62.6153 110.155 60.0751 108.472C57.5349 106.789 55.7537 104.179 55.1124 101.2L53.3874 93.0188C52.9026 90.759 52.8741 88.425 53.3037 86.1541C53.7333 83.8831 54.6123 81.7208 55.8891 79.7943C57.1659 77.8677 58.8148 76.2157 60.7389 74.9352C62.663 73.6547 64.8235 72.7715 67.0937 72.3375L175.219 51.3188Z" fill="url(#paint2_radial_189_100)"/>
<path d="M53 182.856C53 188.658 55.3047 194.222 59.407 198.324C63.5094 202.427 69.0734 204.731 74.875 204.731H185.313C187.635 204.731 189.935 204.274 192.081 203.385C194.227 202.496 196.177 201.193 197.819 199.551C199.462 197.908 200.765 195.958 201.654 193.812C202.542 191.667 203 189.367 203 187.044V180.3C203 177.735 202.495 175.195 201.513 172.826C200.532 170.456 199.093 168.303 197.279 166.489C195.466 164.676 193.313 163.237 190.943 162.255C188.573 161.274 186.034 160.769 183.469 160.769H77.7938C71.2191 160.769 64.9137 158.157 60.2641 153.509C55.6146 148.861 53.0017 142.556 53 135.981V182.856Z" fill="#7611F0"/>
<path d="M53 182.856C53 188.658 55.3047 194.222 59.407 198.324C63.5094 202.427 69.0734 204.731 74.875 204.731H185.313C187.635 204.731 189.935 204.274 192.081 203.385C194.227 202.496 196.177 201.193 197.819 199.551C199.462 197.908 200.765 195.958 201.654 193.812C202.542 191.667 203 189.367 203 187.044V180.3C203 177.735 202.495 175.195 201.513 172.826C200.532 170.456 199.093 168.303 197.279 166.489C195.466 164.676 193.313 163.237 190.943 162.255C188.573 161.274 186.034 160.769 183.469 160.769H77.7938C71.2191 160.769 64.9137 158.157 60.2641 153.509C55.6146 148.861 53.0017 142.556 53 135.981V182.856Z" fill="#A966FF" fill-opacity="0.2"/>
<path d="M53 182.856C53 188.658 55.3047 194.222 59.407 198.324C63.5094 202.427 69.0734 204.731 74.875 204.731H185.313C187.635 204.731 189.935 204.274 192.081 203.385C194.227 202.496 196.177 201.193 197.819 199.551C199.462 197.908 200.765 195.958 201.654 193.812C202.542 191.667 203 189.367 203 187.044V180.3C203 177.735 202.495 175.195 201.513 172.826C200.532 170.456 199.093 168.303 197.279 166.489C195.466 164.676 193.313 163.237 190.943 162.255C188.573 161.274 186.034 160.769 183.469 160.769H77.7938C71.2191 160.769 64.9137 158.157 60.2641 153.509C55.6146 148.861 53.0017 142.556 53 135.981V182.856Z" fill="url(#paint3_linear_189_100)"/>
<path d="M53 182.856C53 188.658 55.3047 194.222 59.407 198.324C63.5094 202.427 69.0734 204.731 74.875 204.731H185.313C187.635 204.731 189.935 204.274 192.081 203.385C194.227 202.496 196.177 201.193 197.819 199.551C199.462 197.908 200.765 195.958 201.654 193.812C202.542 191.667 203 189.367 203 187.044V180.3C203 177.735 202.495 175.195 201.513 172.826C200.532 170.456 199.093 168.303 197.279 166.489C195.466 164.676 193.313 163.237 190.943 162.255C188.573 161.274 186.034 160.769 183.469 160.769H77.7938C71.2191 160.769 64.9137 158.157 60.2641 153.509C55.6146 148.861 53.0017 142.556 53 135.981V182.856Z" fill="url(#paint4_linear_189_100)"/>
<path d="M53 182.856C53 188.658 55.3047 194.222 59.407 198.324C63.5094 202.427 69.0734 204.731 74.875 204.731H185.313C187.635 204.731 189.935 204.274 192.081 203.385C194.227 202.496 196.177 201.193 197.819 199.551C199.462 197.908 200.765 195.958 201.654 193.812C202.542 191.667 203 189.367 203 187.044V180.3C203 177.735 202.495 175.195 201.513 172.826C200.532 170.456 199.093 168.303 197.279 166.489C195.466 164.676 193.313 163.237 190.943 162.255C188.573 161.274 186.034 160.769 183.469 160.769H77.7938C71.2191 160.769 64.9137 158.157 60.2641 153.509C55.6146 148.861 53.0017 142.556 53 135.981V182.856Z" fill="url(#paint5_linear_189_100)"/>
<path d="M53 182.856C53 188.658 55.3047 194.222 59.407 198.324C63.5094 202.427 69.0734 204.731 74.875 204.731H185.313C187.635 204.731 189.935 204.274 192.081 203.385C194.227 202.496 196.177 201.193 197.819 199.551C199.462 197.908 200.765 195.958 201.654 193.812C202.542 191.667 203 189.367 203 187.044V180.3C203 177.735 202.495 175.195 201.513 172.826C200.532 170.456 199.093 168.303 197.279 166.489C195.466 164.676 193.313 163.237 190.943 162.255C188.573 161.274 186.034 160.769 183.469 160.769H77.7938C71.2191 160.769 64.9137 158.157 60.2641 153.509C55.6146 148.861 53.0017 142.556 53 135.981V182.856Z" fill="url(#paint6_linear_189_100)"/>
<path d="M53 121.337C53 126.31 54.9754 131.079 58.4917 134.596C62.0081 138.112 66.7772 140.087 71.75 140.087H185.313C190.004 140.087 194.502 141.951 197.819 145.268C201.136 148.585 203 153.084 203 157.775V165.606V124.312C203 119.621 201.136 115.123 197.819 111.806C194.502 108.488 190.004 106.625 185.313 106.625H71.75C66.7772 106.625 62.0081 104.65 58.4917 101.133C54.9754 97.6169 53 92.8478 53 87.875V83.1437V121.337Z" fill="#BC7FFF"/>
<path d="M53 121.337C53 126.31 54.9754 131.079 58.4917 134.596C62.0081 138.112 66.7772 140.087 71.75 140.087H185.313C190.004 140.087 194.502 141.951 197.819 145.268C201.136 148.585 203 153.084 203 157.775V165.606V124.312C203 119.621 201.136 115.123 197.819 111.806C194.502 108.488 190.004 106.625 185.313 106.625H71.75C66.7772 106.625 62.0081 104.65 58.4917 101.133C54.9754 97.6169 53 92.8478 53 87.875V83.1437V121.337Z" fill="url(#paint7_linear_189_100)"/>
<path d="M53 121.337C53 126.31 54.9754 131.079 58.4917 134.596C62.0081 138.112 66.7772 140.087 71.75 140.087H185.313C190.004 140.087 194.502 141.951 197.819 145.268C201.136 148.585 203 153.084 203 157.775V165.606V124.312C203 119.621 201.136 115.123 197.819 111.806C194.502 108.488 190.004 106.625 185.313 106.625H71.75C66.7772 106.625 62.0081 104.65 58.4917 101.133C54.9754 97.6169 53 92.8478 53 87.875V83.1437V121.337Z" fill="url(#paint8_linear_189_100)"/>
<path d="M53 121.337C53 126.31 54.9754 131.079 58.4917 134.596C62.0081 138.112 66.7772 140.087 71.75 140.087H185.313C190.004 140.087 194.502 141.951 197.819 145.268C201.136 148.585 203 153.084 203 157.775V165.606V124.312C203 119.621 201.136 115.123 197.819 111.806C194.502 108.488 190.004 106.625 185.313 106.625H71.75C66.7772 106.625 62.0081 104.65 58.4917 101.133C54.9754 97.6169 53 92.8478 53 87.875V83.1437V121.337Z" fill="url(#paint9_radial_189_100)"/>
<path d="M53 150.15C53 155.952 55.3047 161.516 59.407 165.618C63.5094 169.72 69.0734 172.025 74.875 172.025H185.313C187.636 172.025 189.936 172.483 192.083 173.372C194.229 174.261 196.179 175.565 197.822 177.208C199.464 178.851 200.767 180.801 201.655 182.948C202.544 185.095 203.001 187.395 203 189.719V190.881V156.95C202.998 152.26 201.134 147.763 197.817 144.447C194.5 141.131 190.002 139.269 185.313 139.269H74.875C69.0734 139.269 63.5094 136.964 59.407 132.862C55.3047 128.759 53 123.195 53 117.394V114.525V150.15Z" fill="#974CFF"/>
<path d="M53 150.15C53 155.952 55.3047 161.516 59.407 165.618C63.5094 169.72 69.0734 172.025 74.875 172.025H185.313C187.636 172.025 189.936 172.483 192.083 173.372C194.229 174.261 196.179 175.565 197.822 177.208C199.464 178.851 200.767 180.801 201.655 182.948C202.544 185.095 203.001 187.395 203 189.719V190.881V156.95C202.998 152.26 201.134 147.763 197.817 144.447C194.5 141.131 190.002 139.269 185.313 139.269H74.875C69.0734 139.269 63.5094 136.964 59.407 132.862C55.3047 128.759 53 123.195 53 117.394V114.525V150.15Z" fill="#A966FF" fill-opacity="0.35"/>
<path d="M53 150.15C53 155.952 55.3047 161.516 59.407 165.618C63.5094 169.72 69.0734 172.025 74.875 172.025H185.313C187.636 172.025 189.936 172.483 192.083 173.372C194.229 174.261 196.179 175.565 197.822 177.208C199.464 178.851 200.767 180.801 201.655 182.948C202.544 185.095 203.001 187.395 203 189.719V190.881V156.95C202.998 152.26 201.134 147.763 197.817 144.447C194.5 141.131 190.002 139.269 185.313 139.269H74.875C69.0734 139.269 63.5094 136.964 59.407 132.862C55.3047 128.759 53 123.195 53 117.394V114.525V150.15Z" fill="url(#paint10_linear_189_100)"/>
<path d="M53 150.15C53 155.952 55.3047 161.516 59.407 165.618C63.5094 169.72 69.0734 172.025 74.875 172.025H185.313C187.636 172.025 189.936 172.483 192.083 173.372C194.229 174.261 196.179 175.565 197.822 177.208C199.464 178.851 200.767 180.801 201.655 182.948C202.544 185.095 203.001 187.395 203 189.719V190.881V156.95C202.998 152.26 201.134 147.763 197.817 144.447C194.5 141.131 190.002 139.269 185.313 139.269H74.875C69.0734 139.269 63.5094 136.964 59.407 132.862C55.3047 128.759 53 123.195 53 117.394V114.525V150.15Z" fill="url(#paint11_linear_189_100)"/>
<path d="M53 150.15C53 155.952 55.3047 161.516 59.407 165.618C63.5094 169.72 69.0734 172.025 74.875 172.025H185.313C187.636 172.025 189.936 172.483 192.083 173.372C194.229 174.261 196.179 175.565 197.822 177.208C199.464 178.851 200.767 180.801 201.655 182.948C202.544 185.095 203.001 187.395 203 189.719V190.881V156.95C202.998 152.26 201.134 147.763 197.817 144.447C194.5 141.131 190.002 139.269 185.313 139.269H74.875C69.0734 139.269 63.5094 136.964 59.407 132.862C55.3047 128.759 53 123.195 53 117.394V114.525V150.15Z" fill="url(#paint12_linear_189_100)"/>
<radialGradient id="paint0_radial_189_100" cx="0" cy="0" r="1" gradientTransform="matrix(-118.457 65.2956 81.4219 140.412 125.594 -16.1312)" gradientUnits="userSpaceOnUse">
<stop stop-color="#974CFF" stop-opacity="0.9"/>
<stop offset="0.63" stop-color="#974CFF" stop-opacity="0.9"/>
<stop offset="1" stop-color="#5000B0" stop-opacity="0.9"/>
</radialGradient>
<radialGradient id="paint1_radial_189_100" cx="0" cy="0" r="1" gradientTransform="matrix(-108.094 50.2707 121.272 243.372 200.625 39.075)" gradientUnits="userSpaceOnUse">
<stop stop-color="#DE91FF" stop-opacity="0.6"/>
<stop offset="0.15" stop-color="#DE91FF" stop-opacity="0.6"/>
<stop offset="0.68" stop-color="#D373FC" stop-opacity="0"/>
<stop offset="1" stop-color="#D373FC" stop-opacity="0"/>
</radialGradient>
<radialGradient id="paint2_radial_189_100" cx="0" cy="0" r="1" gradientTransform="matrix(-44.035 62.4576 183.063 77.3287 138.594 17.0375)" gradientUnits="userSpaceOnUse">
<stop stop-color="#FFC7A3" stop-opacity="0.4"/>
<stop offset="0.83" stop-color="#DE67FD" stop-opacity="0"/>
<stop offset="1" stop-color="#DE67FD" stop-opacity="0"/>
</radialGradient>
<linearGradient id="paint3_linear_189_100" x1="149.256" y1="170.357" x2="144.787" y2="196.386" gradientUnits="userSpaceOnUse">
<stop stop-color="#330072" stop-opacity="0.4"/>
<stop offset="1" stop-color="#7611F0" stop-opacity="0"/>
</linearGradient>
<linearGradient id="paint4_linear_189_100" x1="86.6625" y1="170.406" x2="86.6625" y2="208.919" gradientUnits="userSpaceOnUse">
<stop stop-color="#9136F2" stop-opacity="0"/>
<stop offset="0.84" stop-color="#B76AFF" stop-opacity="0.15"/>
<stop offset="1" stop-color="#B76AFF" stop-opacity="0.15"/>
</linearGradient>
<linearGradient id="paint5_linear_189_100" x1="93.9023" y1="167.888" x2="52.9883" y2="168.252" gradientUnits="userSpaceOnUse">
<stop stop-color="#9136F2" stop-opacity="0"/>
<stop offset="0.84" stop-color="#B76AFF" stop-opacity="0.3"/>
<stop offset="1" stop-color="#B76AFF" stop-opacity="0.3"/>
</linearGradient>
<linearGradient id="paint6_linear_189_100" x1="157.835" y1="168.242" x2="220.027" y2="218.793" gradientUnits="userSpaceOnUse">
<stop stop-color="#9136F2" stop-opacity="0"/>
<stop offset="0.84" stop-color="#B76AFF" stop-opacity="0.2"/>
<stop offset="1" stop-color="#B76AFF" stop-opacity="0.2"/>
</linearGradient>
<linearGradient id="paint7_linear_189_100" x1="93.9062" y1="121.844" x2="52.9921" y2="121.844" gradientUnits="userSpaceOnUse">
<stop stop-color="#BC80FF" stop-opacity="0"/>
<stop offset="0.84" stop-color="#ECB4FF"/>
<stop offset="1" stop-color="#ECB4FF"/>
</linearGradient>
<linearGradient id="paint8_linear_189_100" x1="153.306" y1="121.844" x2="203.002" y2="121.844" gradientUnits="userSpaceOnUse">
<stop stop-color="#BC7FFF" stop-opacity="0"/>
<stop offset="0.84" stop-color="#ECB4FF" stop-opacity="0.8"/>
<stop offset="1" stop-color="#ECB4FF" stop-opacity="0.8"/>
</linearGradient>
<radialGradient id="paint9_radial_189_100" cx="0" cy="0" r="1" gradientTransform="matrix(-48.9494 77.1788 98.8275 182.288 176.95 23.2812)" gradientUnits="userSpaceOnUse">
<stop stop-color="#FFC7A3"/>
<stop offset="0.83" stop-color="#DE67FD" stop-opacity="0"/>
<stop offset="1" stop-color="#DE67FD" stop-opacity="0"/>
</radialGradient>
<linearGradient id="paint10_linear_189_100" x1="142.184" y1="113.148" x2="140.208" y2="160.132" gradientUnits="userSpaceOnUse">
<stop stop-color="#6200D5" stop-opacity="0.4"/>
<stop offset="1" stop-color="#3E008D" stop-opacity="0"/>
</linearGradient>
<linearGradient id="paint11_linear_189_100" x1="162.1" y1="150.869" x2="203.014" y2="150.869" gradientUnits="userSpaceOnUse">
<stop stop-color="#9B54FD" stop-opacity="0"/>
<stop offset="0.84" stop-color="#ECB4FF" stop-opacity="0.4"/>
<stop offset="1" stop-color="#ECB4FF" stop-opacity="0.4"/>
</linearGradient>
<linearGradient id="paint12_linear_189_100" x1="93.9062" y1="150.869" x2="52.9921" y2="150.869" gradientUnits="userSpaceOnUse">
<stop stop-color="#944EF6" stop-opacity="0"/>
<stop offset="0.84" stop-color="#ECB4FF" stop-opacity="0.6"/>
<stop offset="1" stop-color="#ECB4FF" stop-opacity="0.6"/>
</linearGradient>
</svg>