<svg width="256" height="256" title="Microsoft OneNote" viewBox="0 0 256 256" fill="none" xmlns="http://www.w3.org/2000/svg" id="microsoftonenote">
<style>
#microsoftonenote {
    rect {fill: #15191C}

    @media (prefers-color-scheme: light) {
        rect {fill: #F4F2ED}
    }
}
</style>
<rect width="256" height="256" rx="40" fill="#15191C"/>
<path d="M165.465 207.14H81.7738C77.7759 207.14 74.5349 203.899 74.5349 199.901V56.2388C74.5349 52.2409 77.7759 49 81.7738 49H197.761C201.759 49 205 52.2409 205 56.2388V88.5349L165.465 207.14Z" fill="#CA64EA"/>
<path d="M205 128.07L185.233 139.93L165.465 128.07V88.5349H205L205 128.07Z" fill="#AE4BD5"/>
<path d="M205 167.605L185.232 179.465L165.465 167.605V128.07H205V167.605Z" fill="#9332BF"/>
<path d="M165.465 167.605H205V199.727C205 203.821 201.681 207.14 197.587 207.14H165.465V167.605Z" fill="#7719AA"/>
<path opacity="0.2" d="M122.637 80.6279H74.5349V179.465H122.637C126.634 179.452 129.871 176.215 129.884 172.218V87.8746C129.871 83.8778 126.634 80.6409 122.637 80.6279Z" fill="black"/>
<path opacity="0.2" d="M118.684 84.5814H74.5349V183.419H118.684C122.68 183.406 125.917 180.169 125.93 176.172V91.8282C125.917 87.8313 122.68 84.5944 118.684 84.5814Z" fill="black"/>
<path opacity="0.5" d="M118.684 84.5814H74.5349V175.512H118.684C122.68 175.499 125.917 172.262 125.93 168.265V91.8282C125.917 87.8313 122.68 84.5944 118.684 84.5814Z" fill="black"/>
<path opacity="0.5" d="M114.73 84.5814H74.5349V175.512H114.73C118.727 175.499 121.964 172.262 121.977 168.265V91.8282C121.964 87.8313 118.727 84.5944 114.73 84.5814Z" fill="black"/>
<path d="M42.2468 84.5814H114.73C118.732 84.5814 121.977 87.8259 121.977 91.8282V164.311C121.977 168.314 118.732 171.558 114.73 171.558H42.2468C38.2445 171.558 35 168.314 35 164.311V91.8282C35 87.8259 38.2445 84.5814 42.2468 84.5814Z" fill="url(#linearGradient)"/>
<path d="M58.8237 104.515H68.6482L87.953 135.747C88.8307 137.147 89.4896 138.274 89.9298 139.128H90.0563C89.8175 137.002 89.7224 134.862 89.7717 132.723V104.515H98.1531V151.625H88.9572L68.9288 119.526C68.2504 118.467 67.6531 117.358 67.1418 116.209H66.9837C67.1856 118.547 67.2687 120.893 67.2327 123.239V151.625H58.8237V104.515Z" fill="white"/>
<linearGradient id="linearGradient" x1="50.1096" y1="78.9189" x2="106.867" y2="177.221" gradientUnits="userSpaceOnUse">
<stop stop-color="#8324B3"/>
<stop offset="0.5" stop-color="#7A1BAC"/>
<stop offset="1" stop-color="#621197"/>
</linearGradient>
</svg>