<svg width="256" height="256" title="Microsoft Word" viewBox="0 0 256 256" fill="none" xmlns="http://www.w3.org/2000/svg" id="microsoftword">
<style>
#microsoftword {
    rect {fill: #15191C}

    @media (prefers-color-scheme: light) {
        rect {fill: #F4F2ED}
    }
}
</style>
<rect width="256" height="256" rx="40" fill="#15191C"/>
<path d="M197.753 49H81.7817C77.7794 49 74.5349 52.2445 74.5349 56.2468V88.5349L141.744 108.302L205 88.5349V56.2468C205 52.2445 201.755 49 197.753 49Z" fill="#41A5EE"/>
<path d="M205 88.5349H74.5349V128.07L141.744 139.93L205 128.07V88.5349Z" fill="#2B7CD3"/>
<path d="M74.5349 128.07V167.605L137.791 175.512L205 167.605V128.07H74.5349Z" fill="#185ABD"/>
<path d="M81.7817 207.139H197.753C201.756 207.139 205 203.895 205 199.893V167.605H74.5349V199.893C74.5349 203.895 77.7794 207.139 81.7817 207.139Z" fill="#103F91"/>
<path opacity="0.1" d="M122.637 80.6279H74.5349V179.465H122.637C126.634 179.452 129.871 176.215 129.884 172.218V87.8747C129.871 83.8778 126.634 80.6409 122.637 80.6279Z" fill="black"/>
<path opacity="0.2" d="M118.683 84.5814H74.5349V183.419H118.683C122.68 183.406 125.917 180.169 125.93 176.172V91.8281C125.917 87.8313 122.68 84.5944 118.683 84.5814Z" fill="black"/>
<path opacity="0.2" d="M118.683 84.5814H74.5349V175.512H118.683C122.68 175.499 125.917 172.262 125.93 168.265V91.8281C125.917 87.8313 122.68 84.5944 118.683 84.5814Z" fill="black"/>
<path opacity="0.2" d="M114.73 84.5814H74.5349V175.512H114.73C118.727 175.499 121.964 172.262 121.977 168.265V91.8281C121.964 87.8313 118.727 84.5944 114.73 84.5814Z" fill="black"/>
<path d="M42.2468 84.5814H114.73C118.732 84.5814 121.977 87.8258 121.977 91.8281V164.311C121.977 168.314 118.732 171.558 114.73 171.558H42.2468C38.2445 171.558 35 168.314 35 164.311V91.8281C35 87.8258 38.2445 84.5814 42.2468 84.5814Z" fill="url(#linearGradient)"/>
<path d="M64.7382 140.16C64.8805 141.278 64.9754 142.251 65.0188 143.085H65.1848C65.2481 142.294 65.3798 141.342 65.5802 140.227C65.7805 139.112 65.9611 138.17 66.1218 137.4L73.7441 104.515H83.6002L91.5072 136.906C91.9666 138.92 92.2954 140.962 92.4916 143.018H92.6221C92.7695 141.026 93.0442 139.045 93.4444 137.088L99.7502 104.499H108.721L97.643 151.625H87.1623L79.6507 120.416C79.4333 119.518 79.1842 118.344 78.9114 116.901C78.6386 115.458 78.4686 114.402 78.4014 113.738H78.2709C78.184 114.505 78.0139 115.644 77.7609 117.154C77.5079 118.664 77.3049 119.782 77.152 120.507L70.091 151.617H59.4324L48.2955 104.515H57.428L64.2953 137.467C64.4495 138.143 64.5958 139.045 64.7382 140.16Z" fill="white"/>
<linearGradient id="linearGradient" x1="50.1096" y1="78.9189" x2="106.867" y2="177.221" gradientUnits="userSpaceOnUse">
<stop stop-color="#2368C4"/>
<stop offset="0.5" stop-color="#1A5DBE"/>
<stop offset="1" stop-color="#1146AC"/>
</linearGradient>
</svg>