<svg viewBox="0 0 256 256" xmlns="http://www.w3.org/2000/svg" xml:space="preserve" style="fill-rule:evenodd;clip-rule:evenodd;stroke-linejoin:round;stroke-miterlimit:2"><path d="M256 40v176c0 22.077-17.923 40-40 40H40c-22.077 0-40-17.923-40-40V40C0 17.923 17.923 0 40 0h176c22.077 0 40 17.923 40 40" style="fill:#15191c"/><path d="M44 40h30c7.732 0 14 6.268 14 14v22c0 8.837-7.163 16-16 16s-16-7.163-16-16V52c0-6.627-5.373-12-12-12" style="fill:url(#a);fill-rule:nonzero" transform="translate(52.815 49.398)scale(1.70875)"/><path d="M8 46c0-7.732 6.268-14 14-14h20c7.732 0 14 6.268 14 14v30c0 8.836 7.163 16 16 16H32C18.745 92 8 81.254 8 68z" style="fill:url(#b);fill-rule:nonzero" transform="translate(52.815 49.398)scale(1.70875)"/><path d="M8 46c0-7.732 6.268-14 14-14h20c7.732 0 14 6.268 14 14v30c0 8.836 7.163 16 16 16H32C18.745 92 8 81.254 8 68z" style="fill:url(#c);fill-rule:nonzero" transform="translate(52.815 49.398)scale(1.70875)"/><path d="M8 46c0-7.732 6.268-14 14-14h20c7.732 0 14 6.268 14 14v30c0 8.836 7.163 16 16 16H32C18.745 92 8 81.254 8 68z" style="fill:url(#d);fill-rule:nonzero" transform="translate(52.815 49.398)scale(1.70875)"/><path d="M70 36c6.627 0 12-5.373 12-12 0-6.628-5.373-12-12-12s-12 5.372-12 12c0 6.627 5.373 12 12 12" style="fill:url(#e);fill-rule:nonzero" transform="translate(52.815 49.398)scale(1.70875)"/><path d="M70 36c6.627 0 12-5.373 12-12 0-6.628-5.373-12-12-12s-12 5.372-12 12c0 6.627 5.373 12 12 12" style="fill:url(#f);fill-rule:nonzero" transform="translate(52.815 49.398)scale(1.70875)"/><path d="M70 36c6.627 0 12-5.373 12-12 0-6.628-5.373-12-12-12s-12 5.372-12 12c0 6.627 5.373 12 12 12" style="fill:url(#g);fill-rule:nonzero" transform="translate(52.815 49.398)scale(1.70875)"/><path d="M34 28c7.732 0 14-6.268 14-14S41.732 0 34 0 20 6.268 20 14s6.268 14 14 14" style="fill:url(#h);fill-rule:nonzero" transform="translate(52.815 49.398)scale(1.70875)"/><path d="M34 28c7.732 0 14-6.268 14-14S41.732 0 34 0 20 6.268 20 14s6.268 14 14 14" style="fill:url(#i);fill-rule:nonzero" transform="translate(52.815 49.398)scale(1.70875)"/><path d="M34 28c7.732 0 14-6.268 14-14S41.732 0 34 0 20 6.268 20 14s6.268 14 14 14" style="fill:url(#j);fill-rule:nonzero" transform="translate(52.815 49.398)scale(1.70875)"/><path d="M40 48.682v30.636A4.684 4.684 0 0 1 35.318 84H4.682A4.684 4.684 0 0 1 0 79.318V48.682A4.684 4.684 0 0 1 4.682 44h30.636A4.684 4.684 0 0 1 40 48.682" style="fill:url(#k)" transform="translate(52.815 49.398)scale(1.70875)"/><path d="M40 48.682v30.636A4.684 4.684 0 0 1 35.318 84H4.682A4.684 4.684 0 0 1 0 79.318V48.682A4.684 4.684 0 0 1 4.682 44h30.636A4.684 4.684 0 0 1 40 48.682" style="fill:url(#l)" transform="translate(52.815 49.398)scale(1.70875)"/><path d="M29.118 56.402h-6.412V76h-5.411V56.402h-6.412V52h18.235z" style="fill:#fff;fill-rule:nonzero" transform="translate(52.815 49.398)scale(1.70875)"/><defs><radialGradient id="a" cx="0" cy="0" r="1" gradientUnits="userSpaceOnUse" gradientTransform="matrix(32.6318 0 0 80.5469 84.983 44)"><stop offset="0" style="stop-color:#a98aff;stop-opacity:1"/><stop offset=".14" style="stop-color:#8c75ff;stop-opacity:1"/><stop offset=".56" style="stop-color:#5f50e2;stop-opacity:1"/><stop offset=".9" style="stop-color:#3c2cb8;stop-opacity:1"/><stop offset="1" style="stop-color:#3c2cb8;stop-opacity:1"/></radialGradient><radialGradient id="b" cx="0" cy="0" r="1" gradientUnits="userSpaceOnUse" gradientTransform="matrix(30 76 -76 30 10 28)"><stop offset="0" style="stop-color:#85c2ff;stop-opacity:1"/><stop offset=".69" style="stop-color:#7588ff;stop-opacity:1"/><stop offset="1" style="stop-color:#6459fe;stop-opacity:1"/></radialGradient><radialGradient id="d" cx="0" cy="0" r="1" gradientUnits="userSpaceOnUse" gradientTransform="matrix(-18.7321 44.1194 -35.0387 -14.8767 56 30)"><stop offset="0" style="stop-color:#bd96ff;stop-opacity:.7"/><stop offset=".69" style="stop-color:#bd96ff;stop-opacity:0"/><stop offset="1" style="stop-color:#bd96ff;stop-opacity:0"/></radialGradient><radialGradient id="e" cx="0" cy="0" r="1" gradientUnits="userSpaceOnUse" gradientTransform="matrix(0 -24 30.2919 0 70 20.57)"><stop offset="0" style="stop-color:#6868f7;stop-opacity:1"/><stop offset=".27" style="stop-color:#6868f7;stop-opacity:1"/><stop offset="1" style="stop-color:#3923b1;stop-opacity:1"/></radialGradient><radialGradient id="f" cx="0" cy="0" r="1" gradientUnits="userSpaceOnUse" gradientTransform="rotate(40.051 5.204 91.475)scale(17.151 24.807)"><stop offset="0" style="stop-color:#a1d3ff;stop-opacity:.46"/><stop offset=".27" style="stop-color:#a1d3ff;stop-opacity:.46"/><stop offset=".81" style="stop-color:#a1d3ff;stop-opacity:0"/><stop offset="1" style="stop-color:#a1d3ff;stop-opacity:0"/></radialGradient><radialGradient id="g" cx="0" cy="0" r="1" gradientUnits="userSpaceOnUse" gradientTransform="rotate(-41.658 63.02 -95.716)scale(20.4306 50.1178)"><stop offset="0" style="stop-color:#e3acfd;stop-opacity:.4"/><stop offset=".82" style="stop-color:#9fa2ff;stop-opacity:0"/><stop offset="1" style="stop-color:#9fa2ff;stop-opacity:0"/></radialGradient><radialGradient id="h" cx="0" cy="0" r="1" gradientUnits="userSpaceOnUse" gradientTransform="matrix(0 -28 35.3406 0 34 10)"><stop offset="0" style="stop-color:#8282ff;stop-opacity:1"/><stop offset=".27" style="stop-color:#8282ff;stop-opacity:1"/><stop offset="1" style="stop-color:#3923b1;stop-opacity:1"/></radialGradient><radialGradient id="i" cx="0" cy="0" r="1" gradientUnits="userSpaceOnUse" gradientTransform="rotate(40.051 1.443 34.33)scale(20.0096 28.9415)"><stop offset="0" style="stop-color:#a1d3ff;stop-opacity:.6"/><stop offset=".27" style="stop-color:#a1d3ff;stop-opacity:.6"/><stop offset=".81" style="stop-color:#a1d3ff;stop-opacity:0"/><stop offset="1" style="stop-color:#a1d3ff;stop-opacity:0"/></radialGradient><radialGradient id="j" cx="0" cy="0" r="1" gradientUnits="userSpaceOnUse" gradientTransform="matrix(17.8082 -15.8432 38.8646 43.685 45.15 6.632)"><stop offset="0" style="stop-color:#e3acfd;stop-opacity:.5"/><stop offset=".82" style="stop-color:#9fa2ff;stop-opacity:0"/><stop offset="1" style="stop-color:#9fa2ff;stop-opacity:0"/></radialGradient><radialGradient id="k" cx="0" cy="0" r="1" gradientUnits="userSpaceOnUse" gradientTransform="matrix(40 40 -40 40 0 44)"><stop offset="0" style="stop-color:#688eff;stop-opacity:1"/><stop offset=".05" style="stop-color:#688eff;stop-opacity:1"/><stop offset=".95" style="stop-color:#230f94;stop-opacity:1"/><stop offset="1" style="stop-color:#230f94;stop-opacity:1"/></radialGradient><radialGradient id="l" cx="0" cy="0" r="1" gradientUnits="userSpaceOnUse" gradientTransform="matrix(0 28 -32.6755 0 20 68)"><stop offset="0" style="stop-color:#6965f6;stop-opacity:0"/><stop offset=".57" style="stop-color:#6965f6;stop-opacity:0"/><stop offset="1" style="stop-color:#8f8fff;stop-opacity:.7"/></radialGradient><linearGradient id="c" x1="0" y1="0" x2="1" y2="0" gradientUnits="userSpaceOnUse" gradientTransform="matrix(0 60 -60 0 39 32)"><stop offset="0" style="stop-color:#6864f6;stop-opacity:0"/><stop offset=".8" style="stop-color:#6864f6;stop-opacity:0"/><stop offset="1" style="stop-color:#5149de;stop-opacity:.7"/></linearGradient></defs></svg>