<svg viewBox="0 0 256 256" xmlns="http://www.w3.org/2000/svg" xml:space="preserve" style="fill-rule:evenodd;clip-rule:evenodd;stroke-linejoin:round;stroke-miterlimit:2"><path d="M256 40v176c0 22.077-17.923 40-40 40H40c-22.077 0-40-17.923-40-40V40C0 17.923 17.923 0 40 0h176c22.077 0 40 17.923 40 40" style="fill:#15191c"/><ellipse cx="23.998" cy="24" rx="18.748" ry="18.75" style="fill:url(#a)" transform="translate(29.515 26.88)scale(4.21333)"/><ellipse cx="23.998" cy="24" rx="18.748" ry="18.75" style="fill:url(#b)" transform="translate(29.515 26.88)scale(4.21333)"/><ellipse cx="23.998" cy="24" rx="18.748" ry="18.75" style="fill:url(#c)" transform="translate(29.515 26.88)scale(4.21333)"/><path d="M24.001 5.25c10.354 0 18.748 8.395 18.748 18.75a18.66 18.66 0 0 1-2.552 9.445l.305-.674c1.856-4.12-1.16-8.782-5.679-8.779l-7.462.006a3.36 3.36 0 0 1-3.36-3.357v-7.476c0-4.52-4.667-7.533-8.786-5.671l-.6.272a18.66 18.66 0 0 1 9.386-2.516" style="fill:url(#d);fill-rule:nonzero" transform="translate(29.515 26.88)scale(4.21333)"/><path d="M24.001 5.25c10.354 0 18.748 8.395 18.748 18.75a18.66 18.66 0 0 1-2.552 9.445l.305-.674c1.856-4.12-1.16-8.782-5.679-8.779l-7.462.006a3.36 3.36 0 0 1-3.36-3.357v-7.476c0-4.52-4.667-7.533-8.786-5.671l-.6.272a18.66 18.66 0 0 1 9.386-2.516" style="fill:url(#e);fill-rule:nonzero" transform="translate(29.515 26.88)scale(4.21333)"/><path d="M24.001 5.25c10.354 0 18.748 8.395 18.748 18.75a18.66 18.66 0 0 1-2.552 9.445l.305-.674c1.856-4.12-1.16-8.782-5.679-8.779l-7.462.006a3.36 3.36 0 0 1-3.36-3.357v-7.476c0-4.52-4.667-7.533-8.786-5.671l-.6.272a18.66 18.66 0 0 1 9.386-2.516" style="fill:url(#f);fill-rule:nonzero" transform="translate(29.515 26.88)scale(4.21333)"/><path d="M24.001 5.25c10.354 0 18.748 8.395 18.748 18.75a18.66 18.66 0 0 1-2.552 9.445l.305-.674c1.856-4.12-1.16-8.782-5.679-8.779l-7.462.006a3.36 3.36 0 0 1-3.36-3.357v-7.476c0-4.52-4.667-7.533-8.786-5.671l-.6.272a18.66 18.66 0 0 1 9.386-2.516" style="fill:url(#g);fill-rule:nonzero" transform="translate(29.515 26.88)scale(4.21333)"/><path d="M24.001 5.25c10.354 0 18.748 8.395 18.748 18.75a18.66 18.66 0 0 1-2.552 9.445l.305-.674c1.856-4.12-1.16-8.782-5.679-8.779l-7.462.006a3.36 3.36 0 0 1-3.36-3.357v-7.476c0-4.52-4.667-7.533-8.786-5.671l-.6.272a18.66 18.66 0 0 1 9.386-2.516" style="fill:url(#h);fill-rule:nonzero" transform="translate(29.515 26.88)scale(4.21333)"/><path d="M20 23.771v14.458a.77.77 0 0 1-.771.771H4.771A.77.77 0 0 1 4 38.229V23.771c0-.425.346-.771.771-.771h14.458c.425 0 .771.346.771.771" style="fill:url(#i)" transform="translate(29.515 26.88)scale(4.21333)"/><path d="M20 23.771v14.458a.77.77 0 0 1-.771.771H4.771A.77.77 0 0 1 4 38.229V23.771c0-.425.346-.771.771-.771h14.458c.425 0 .771.346.771.771" style="fill:url(#j)" transform="translate(29.515 26.88)scale(4.21333)"/><path d="M11.22 32.594v2.977H9.161v-9.142h3.18q1.708 0 2.6.745.899.747.899 2.213 0 1.51-1.007 2.359-1.001.848-2.689.848zm0-4.584v3.003h.86q.765 0 1.179-.402t.414-1.154q0-.694-.408-1.071-.401-.376-1.153-.376z" style="fill:#fff;fill-rule:nonzero" transform="translate(29.515 26.88)scale(4.21333)"/><defs><radialGradient id="b" cx="0" cy="0" r="1" gradientUnits="userSpaceOnUse" gradientTransform="rotate(135 12.364 14.57)scale(37.6452 63.3621)"><stop offset="0" style="stop-color:#aa1d2d;stop-opacity:1"/><stop offset=".15" style="stop-color:#aa1d2d;stop-opacity:1"/><stop offset=".38" style="stop-color:#d12b18;stop-opacity:.44"/><stop offset=".6" style="stop-color:#ff3c00;stop-opacity:0"/><stop offset="1" style="stop-color:#ff3c00;stop-opacity:0"/></radialGradient><radialGradient id="c" cx="0" cy="0" r="1" gradientUnits="userSpaceOnUse" gradientTransform="rotate(-25.283 86.832 22.506)scale(35.686 64.6502)"><stop offset="0" style="stop-color:#ff66fb;stop-opacity:.5"/><stop offset=".41" style="stop-color:#ff66fb;stop-opacity:.5"/><stop offset="1" style="stop-color:#ea3d01;stop-opacity:0"/></radialGradient><radialGradient id="e" cx="0" cy="0" r="1" gradientUnits="userSpaceOnUse" gradientTransform="matrix(23.7238 4.97125 -6.3971 22.2696 20.85 26.242)"><stop offset="0" style="stop-color:#ffa05c;stop-opacity:0"/><stop offset=".79" style="stop-color:#ffa05c;stop-opacity:0"/><stop offset=".9" style="stop-color:#ffce84;stop-opacity:1"/><stop offset="1" style="stop-color:#ffce84;stop-opacity:1"/></radialGradient><radialGradient id="f" cx="0" cy="0" r="1" gradientUnits="userSpaceOnUse" gradientTransform="matrix(20.4808 -13.4011 12.8246 19.58 24.653 23.719)"><stop offset="0" style="stop-color:#ff99e9;stop-opacity:.8"/><stop offset=".3" style="stop-color:#ff99e9;stop-opacity:.8"/><stop offset=".73" style="stop-color:#ff99e9;stop-opacity:0"/><stop offset="1" style="stop-color:#ff99e9;stop-opacity:0"/></radialGradient><radialGradient id="g" cx="0" cy="0" r="1" gradientUnits="userSpaceOnUse" gradientTransform="matrix(17.1428 -19.6263 18.2964 15.2302 21.904 26.581)"><stop offset="0" style="stop-color:#fd6ef9;stop-opacity:1"/><stop offset=".64" style="stop-color:#f94;stop-opacity:1"/><stop offset=".85" style="stop-color:#fcc479;stop-opacity:1"/><stop offset="1" style="stop-color:#fcc479;stop-opacity:1"/></radialGradient><radialGradient id="h" cx="0" cy="0" r="1" gradientUnits="userSpaceOnUse" gradientTransform="matrix(-1.9364 13.1213 -29.684 -4.17481 20.199 7.728)"><stop offset="0" style="stop-color:#ff8d13;stop-opacity:1"/><stop offset=".14" style="stop-color:#ff8d13;stop-opacity:1"/><stop offset=".54" style="stop-color:#ff7f29;stop-opacity:0"/><stop offset="1" style="stop-color:#ff7f29;stop-opacity:0"/></radialGradient><radialGradient id="i" cx="0" cy="0" r="1" gradientUnits="userSpaceOnUse" gradientTransform="matrix(16 16 -16 16 3.998 23)"><stop offset="0" style="stop-color:#f8193e;stop-opacity:1"/><stop offset=".94" style="stop-color:#920616;stop-opacity:1"/><stop offset="1" style="stop-color:#920616;stop-opacity:1"/></radialGradient><radialGradient id="j" cx="0" cy="0" r="1" gradientUnits="userSpaceOnUse" gradientTransform="matrix(0 11.2 -12.75 0 11.998 32.6)"><stop offset="0" style="stop-color:#ffb055;stop-opacity:0"/><stop offset=".58" style="stop-color:#ffb055;stop-opacity:0"/><stop offset=".97" style="stop-color:#fff2be;stop-opacity:.3"/><stop offset="1" style="stop-color:#fff2be;stop-opacity:.3"/></radialGradient><linearGradient id="a" x1="0" y1="0" x2="1" y2="0" gradientUnits="userSpaceOnUse" gradientTransform="rotate(136.27 10.234 6.462)scale(31.7916)"><stop offset="0" style="stop-color:#ff7f48;stop-opacity:1"/><stop offset=".06" style="stop-color:#ff7f48;stop-opacity:1"/><stop offset="1" style="stop-color:#e5495b;stop-opacity:1"/></linearGradient><linearGradient id="d" x1="0" y1="0" x2="1" y2="0" gradientUnits="userSpaceOnUse" gradientTransform="rotate(-36.545 56.436 -27.632)scale(25.1181)"><stop offset="0" style="stop-color:#ff6e30;stop-opacity:1"/><stop offset=".31" style="stop-color:#ff6e30;stop-opacity:1"/><stop offset=".63" style="stop-color:#ffa05c;stop-opacity:1"/><stop offset="1" style="stop-color:#ffa05c;stop-opacity:1"/></linearGradient></defs></svg>