<svg width="256" height="256" title="Microsoft OneNote" viewBox="0 0 256 256" fill="none" xmlns="http://www.w3.org/2000/svg" id="microsoftonenote">
<style>
#microsoftonenote {
    rect {fill: #15191C}

    @media (prefers-color-scheme: light) {
        rect {fill: #F4F2ED}
    }
}
</style>
<rect width="256" height="256" rx="40" fill="#15191C"/>
<path d="M66.4286 169.05C66.4286 165.366 67.1543 161.718 68.5642 158.315C69.9741 154.911 72.0406 151.819 74.6458 149.214C77.2509 146.609 80.3436 144.543 83.7473 143.134C87.151 141.725 90.7989 140.999 94.4829 141H195V191.259C195.001 193.101 194.639 194.925 193.934 196.627C193.23 198.329 192.197 199.876 190.894 201.178C189.591 202.481 188.044 203.513 186.342 204.218C184.639 204.922 182.815 205.283 180.973 205.281L92.7214 205.26C89.2683 205.26 85.8489 204.58 82.6586 203.258C79.4683 201.937 76.5696 199.999 74.1281 197.557C71.6865 195.116 69.7499 192.216 68.4288 189.026C67.1077 185.836 66.428 182.416 66.4286 178.963V169.05Z" fill="url(#paint0_radial_189_100)"/>
<path d="M135 87.4286L195 85.2857V139.83C195 143.55 193.522 147.118 190.892 149.749C188.261 152.379 184.693 153.857 180.973 153.857H135V87.4286Z" fill="url(#paint1_linear_189_100)"/>
<path d="M66.45 76.71C66.4512 69.8909 69.1608 63.3515 73.9831 58.53C78.8053 53.7086 85.3452 51 92.1643 51H180C183.978 51 187.794 52.5804 190.607 55.3934C193.42 58.2064 195 62.0217 195 66V87.4286C195 91.4068 193.42 95.2221 190.607 98.0352C187.794 100.848 183.978 102.429 180 102.429H167.143C163.165 102.429 159.349 104.009 156.536 106.822C153.723 109.635 152.143 113.45 152.143 117.429V138.857C152.143 142.835 150.563 146.651 147.749 149.464C144.936 152.277 141.121 153.857 137.143 153.857H92.1429C85.323 153.857 78.7825 156.566 73.9601 161.389C69.1378 166.211 66.4286 172.752 66.4286 179.571L66.45 76.71Z" fill="url(#paint2_linear_189_100)"/>
<path d="M66.45 76.71C66.4512 69.8909 69.1608 63.3515 73.9831 58.53C78.8053 53.7086 85.3452 51 92.1643 51H180C183.978 51 187.794 52.5804 190.607 55.3934C193.42 58.2064 195 62.0217 195 66V87.4286C195 91.4068 193.42 95.2221 190.607 98.0352C187.794 100.848 183.978 102.429 180 102.429H167.143C163.165 102.429 159.349 104.009 156.536 106.822C153.723 109.635 152.143 113.45 152.143 117.429V138.857C152.143 142.835 150.563 146.651 147.749 149.464C144.936 152.277 141.121 153.857 137.143 153.857H92.1429C85.323 153.857 78.7825 156.566 73.9601 161.389C69.1378 166.211 66.4286 172.752 66.4286 179.571L66.45 76.71Z" fill="url(#paint3_radial_189_100)"/>
<path fill-rule="evenodd" clip-rule="evenodd" d="M113.571 127.029V189.257C113.571 190.098 113.237 190.905 112.643 191.5C112.048 192.094 111.241 192.429 110.4 192.429H48.1714C47.3303 192.429 46.5236 192.094 45.9289 191.5C45.3341 190.905 45 190.098 45 189.257V127.029C45 126.187 45.3341 125.381 45.9289 124.786C46.5236 124.191 47.3303 123.857 48.1714 123.857H110.4C111.241 123.857 112.048 124.191 112.643 124.786C113.237 125.381 113.571 126.187 113.571 127.029Z" fill="url(#paint4_radial_189_100)"/>
<path fill-rule="evenodd" clip-rule="evenodd" d="M113.571 127.029V189.257C113.571 190.098 113.237 190.905 112.643 191.5C112.048 192.094 111.241 192.429 110.4 192.429H48.1714C47.3303 192.429 46.5236 192.094 45.9289 191.5C45.3341 190.905 45 190.098 45 189.257V127.029C45 126.187 45.3341 125.381 45.9289 124.786C46.5236 124.191 47.3303 123.857 48.1714 123.857H110.4C111.241 123.857 112.048 124.191 112.643 124.786C113.237 125.381 113.571 126.187 113.571 127.029Z" fill="url(#paint5_radial_189_100)"/>
<path d="M96.9 177.733H87.9985L71.8585 153.553C71.4656 152.93 71.0827 152.302 70.71 151.667C70.4524 151.222 70.2151 150.766 69.9985 150.3H69.8914C69.9257 150.994 69.9528 151.869 69.9728 152.923C69.99 153.98 69.9985 155.219 69.9985 156.639V177.733H61.6714V138.553H71.1728L86.7128 161.966C87.0414 162.497 87.36 163.036 87.6685 163.581C87.9971 164.107 88.2985 164.636 88.5728 165.167H88.68C88.6351 164.494 88.608 163.819 88.5985 163.144C88.5797 162.023 88.5711 160.901 88.5728 159.78V138.553H96.9V177.733Z" fill="white"/>
<radialGradient id="paint0_radial_189_100" cx="0" cy="0" r="1" gradientUnits="userSpaceOnUse" gradientTransform="translate(191.25 205.286) scale(203.886 85.9204)">
<stop stop-color="#A931D8"/>
<stop offset="0.16" stop-color="#A931D8"/>
<stop offset="0.57" stop-color="#6E1996"/>
<stop offset="1" stop-color="#6E1996"/>
</radialGradient>
<linearGradient id="paint1_linear_189_100" x1="221.935" y1="122.795" x2="147.914" y2="85.3817" gradientUnits="userSpaceOnUse">
<stop stop-color="#CA59F7"/>
<stop offset="0.22" stop-color="#CA59F7"/>
<stop offset="0.89" stop-color="#691A90"/>
<stop offset="1" stop-color="#691A90"/>
</linearGradient>
<linearGradient id="paint2_linear_189_100" x1="200.687" y1="84.2743" x2="66.459" y2="84.2743" gradientUnits="userSpaceOnUse">
<stop stop-color="#DE66FF"/>
<stop offset="0.81" stop-color="#DE66FF"/>
<stop offset="1" stop-color="#FCB1FF"/>
</linearGradient>
<radialGradient id="paint3_radial_189_100" cx="0" cy="0" r="1" gradientTransform="matrix(-64.6316 105.541 -189.634 -107.021 204.249 43.2771)" gradientUnits="userSpaceOnUse">
<stop stop-color="#FFC7A3"/>
<stop offset="0.83" stop-color="#DE67FD" stop-opacity="0"/>
<stop offset="1" stop-color="#DE67FD" stop-opacity="0"/>
</radialGradient>
<radialGradient id="paint4_radial_189_100" cx="0" cy="0" r="1" gradientUnits="userSpaceOnUse" gradientTransform="translate(45 123.857) rotate(45) scale(96.9746)">
<stop stop-color="#AC13EB"/>
<stop offset="0.07" stop-color="#AC13EB"/>
<stop offset="0.88" stop-color="#580087"/>
<stop offset="1" stop-color="#580087"/>
</radialGradient>
<radialGradient id="paint5_radial_189_100" cx="0" cy="0" r="1" gradientUnits="userSpaceOnUse" gradientTransform="translate(79.2857 165) rotate(90) scale(48 55.2857)">
<stop stop-color="#841FB0" stop-opacity="0"/>
<stop offset="0.58" stop-color="#841FB0" stop-opacity="0"/>
<stop offset="0.97" stop-color="#D373FC" stop-opacity="0.8"/>
<stop offset="1" stop-color="#D373FC" stop-opacity="0.8"/>
</radialGradient>
</svg>