<svg width="256" height="256" title="Microsoft PowerPoint" viewBox="0 0 256 256" fill="none" xmlns="http://www.w3.org/2000/svg" id="microsoftpowerpoint">
<style>
#microsoftpowerpoint {
    rect {fill: #15191C}

    @media (prefers-color-scheme: light) {
        rect {fill: #F4F2ED}
    }
}
</style>
<rect width="256" height="256" rx="40" fill="#15191C"/>
<path d="M145.791 135.977L133.93 49H133.045C89.917 49.1259 54.9864 84.0565 54.8605 127.184V128.07L145.791 135.977Z" fill="#ED6C47"/>
<path d="M134.816 49H133.93V128.07L173.465 143.884L213 128.07V127.184C212.874 84.0565 177.943 49.1259 134.816 49Z" fill="#FF8F6B"/>
<path d="M213 128.07V128.94C212.876 172.077 177.937 207.016 134.8 207.14H133.06C89.9232 207.016 54.9843 172.077 54.8605 128.94V128.07H213Z" fill="#D35230"/>
<path opacity="0.1" d="M137.884 87.8627V172.23C137.864 175.162 136.087 177.795 133.377 178.912C132.514 179.277 131.586 179.465 130.649 179.465H73.5209C72.4139 178.2 71.3465 176.856 70.3581 175.512C60.2858 162.075 54.8473 145.732 54.8604 128.939V127.2C54.8373 112.053 59.264 97.2337 67.5907 84.5813C68.4604 83.2371 69.3697 81.8929 70.3581 80.6278H130.649C134.632 80.658 137.854 83.8796 137.884 87.8627Z" fill="black"/>
<path opacity="0.2" d="M133.93 91.8163V176.184C133.93 177.121 133.742 178.049 133.377 178.912C132.261 181.622 129.627 183.399 126.695 183.419H77.1186C75.8678 182.149 74.6676 180.83 73.5209 179.465C72.4139 178.2 71.3465 176.856 70.3581 175.512C60.2858 162.075 54.8473 145.732 54.8604 128.94V127.2C54.8373 112.053 59.264 97.2338 67.5907 84.5814H126.695C130.679 84.6115 133.9 87.8331 133.93 91.8163Z" fill="black"/>
<path opacity="0.2" d="M133.93 91.8163V168.277C133.9 172.26 130.679 175.482 126.695 175.512H70.3581C60.2858 162.075 54.8473 145.732 54.8604 128.94V127.2C54.8373 112.054 59.264 97.2339 67.5907 84.5815H126.695C130.679 84.6115 133.9 87.8331 133.93 91.8163Z" fill="black"/>
<path opacity="0.2" d="M129.977 91.8163V168.277C129.947 172.26 126.725 175.482 122.742 175.512H70.3581C60.2858 162.075 54.8473 145.732 54.8604 128.94V127.2C54.8373 112.054 59.264 97.2339 67.5907 84.5815H122.742C126.725 84.6115 129.947 87.8331 129.977 91.8163Z" fill="black"/>
<path d="M50.2467 84.5814H122.73C126.732 84.5814 129.977 87.8259 129.977 91.8281V164.311C129.977 168.314 126.732 171.558 122.73 171.558H50.2467C46.2445 171.558 43 168.314 43 164.311V91.8281C43 87.8259 46.2445 84.5814 50.2467 84.5814Z" fill="url(#linearGradient)"/>
<path d="M87.279 103.91C91.9974 103.592 96.6752 104.962 100.476 107.777C103.646 110.606 105.339 114.736 105.07 118.977C105.122 121.925 104.336 124.827 102.804 127.346C101.254 129.822 99.0199 131.797 96.372 133.031C93.345 134.439 90.0355 135.134 86.6978 135.063H77.5297V152.103H68.1401V103.91H87.279ZM77.5218 127.702H85.6028C88.1646 127.89 90.7065 127.132 92.7468 125.571C94.4342 123.952 95.3187 121.67 95.1623 119.337C95.1623 114.026 92.076 111.37 85.9033 111.37H77.5219V127.702H77.5218Z" fill="white"/>
<linearGradient id="linearGradient" x1="58.1096" y1="78.9189" x2="114.867" y2="177.221" gradientUnits="userSpaceOnUse">
<stop stop-color="#CA4C28"/>
<stop offset="0.5" stop-color="#C5401E"/>
<stop offset="1" stop-color="#B62F14"/>
</linearGradient>
</svg>