<svg viewBox="0 0 256 256" xmlns="http://www.w3.org/2000/svg" xml:space="preserve" style="fill-rule:evenodd;clip-rule:evenodd;stroke-linejoin:round;stroke-miterlimit:2"><path d="M256 40v176c0 22.077-17.923 40-40 40H40c-22.077 0-40-17.923-40-40V40C0 17.923 17.923 0 40 0h176c22.077 0 40 17.923 40 40" style="fill:#15191c"/><path d="M50.454 12.448c-18.527 0-33.554 18.363-33.554 31.975v41.923c0 3.745 3.905 6.773 8.714 6.773h49.672c4.818 0 8.714-3.035 8.714-6.773V37.089c0-13.611-15.019-24.641-33.546-24.641" style="fill:url(#a);fill-rule:nonzero" transform="translate(41.174 40.959)scale(1.80887)"/><path d="M50.454 12.448c-18.527 0-33.554 18.363-33.554 31.975v41.923c0 3.745 3.905 6.773 8.714 6.773h49.672c4.818 0 8.714-3.035 8.714-6.773V37.089c0-13.611-15.019-24.641-33.546-24.641" style="fill:url(#b);fill-rule:nonzero" transform="translate(41.174 40.959)scale(1.80887)"/><path d="M50.454 12.448c-18.527 0-33.554 18.363-33.554 31.975v41.923c0 3.745 3.905 6.773 8.714 6.773h49.672c4.818 0 8.714-3.035 8.714-6.773V37.089c0-13.611-15.019-24.641-33.546-24.641" style="fill:url(#c);fill-rule:nonzero" transform="translate(41.174 40.959)scale(1.80887)"/><path d="M42.065 7.614c-13.894 8.015-25.16 22.631-25.16 39.726L16.9 86.731c0 6.388 7.911 7.453 11.569 5.323L60.69 72.872c3.608-2.082 6.535-6.63 6.535-10.16V32.435c0-19.163-11.267-32.833-25.16-24.821" style="fill:url(#d);fill-rule:nonzero" transform="translate(41.174 40.959)scale(1.80887)"/><path d="M42.065 7.614c-13.894 8.015-25.16 22.631-25.16 39.726L16.9 86.731c0 6.388 7.911 7.453 11.569 5.323L60.69 72.872c3.608-2.082 6.535-6.63 6.535-10.16V32.435c0-19.163-11.267-32.833-25.16-24.821" style="fill:url(#e);fill-rule:nonzero" transform="translate(41.174 40.959)scale(1.80887)"/><path d="M42.065 7.614c-13.894 8.015-25.16 22.631-25.16 39.726L16.9 86.731c0 6.388 7.911 7.453 11.569 5.323L60.69 72.872c3.608-2.082 6.535-6.63 6.535-10.16V32.435c0-19.163-11.267-32.833-25.16-24.821" style="fill:url(#f);fill-rule:nonzero" transform="translate(41.174 40.959)scale(1.80887)"/><path d="M42.065 7.614c-13.894 8.015-25.16 22.631-25.16 39.726L16.9 86.731c0 6.388 7.911 7.453 11.569 5.323L60.69 72.872c3.608-2.082 6.535-6.63 6.535-10.16V32.435c0-19.163-11.267-32.833-25.16-24.821" style="fill:url(#g);fill-rule:nonzero" transform="translate(41.174 40.959)scale(1.80887)"/><path d="M42.065 7.614c-13.894 8.015-25.16 22.631-25.16 39.726L16.9 86.731c0 6.388 7.911 7.453 11.569 5.323L60.69 72.872c3.608-2.082 6.535-6.63 6.535-10.16V32.435c0-19.163-11.267-32.833-25.16-24.821" style="fill:url(#h);fill-rule:nonzero" transform="translate(41.174 40.959)scale(1.80887)"/><path d="M32.448 3.659C21.919 7.542 12.005 24.99 12.005 44.002L12 61.04c0 4.186 3.175 5.577 7.09 3.108l17.481-10.762c4.95-3.047 7.992-8.629 7.992-14.664V21.214c0-13.025-4.984-20.185-12.115-17.555" style="fill:url(#i);fill-rule:nonzero" transform="translate(41.174 40.959)scale(1.80887)"/><defs><radialGradient id="c" cx="0" cy="0" r="1" gradientUnits="userSpaceOnUse" gradientTransform="rotate(51.476 -34.287 63.114)scale(40.314 36.3696)"><stop offset="0" style="stop-color:#041642;stop-opacity:.5"/><stop offset="1" style="stop-color:#041642;stop-opacity:0"/></radialGradient><radialGradient id="d" cx="0" cy="0" r="1" gradientUnits="userSpaceOnUse" gradientTransform="rotate(101.468 23.173 23.347)scale(52.7905 58.7614)"><stop offset="0" style="stop-color:#66dfff;stop-opacity:1"/><stop offset="1" style="stop-color:#0296e6;stop-opacity:1"/></radialGradient><radialGradient id="e" cx="0" cy="0" r="1" gradientUnits="userSpaceOnUse" gradientTransform="matrix(25.9066 0 0 40.722 28.474 31.332)"><stop offset="0" style="stop-color:#000;stop-opacity:.25"/><stop offset="1" style="stop-color:#000;stop-opacity:0"/></radialGradient><radialGradient id="f" cx="0" cy="0" r="1" gradientUnits="userSpaceOnUse" gradientTransform="matrix(13.5529 -.71326 1.9769 37.5637 38.704 30.666)"><stop offset="0" style="stop-color:#000;stop-opacity:.25"/><stop offset="1" style="stop-color:#000;stop-opacity:0"/></radialGradient><radialGradient id="g" cx="0" cy="0" r="1" gradientUnits="userSpaceOnUse" gradientTransform="rotate(63.474 -39.913 47.156)scale(13.3863 29.83103)"><stop offset="0" style="stop-color:#000;stop-opacity:.25"/><stop offset="1" style="stop-color:#000;stop-opacity:0"/></radialGradient><linearGradient id="a" x1="0" y1="0" x2="1" y2="0" gradientUnits="userSpaceOnUse" gradientTransform="rotate(39.928 -64.06 109.861)scale(34.3507)"><stop offset="0" style="stop-color:#224f87;stop-opacity:1"/><stop offset="1" style="stop-color:#0055c6;stop-opacity:1"/></linearGradient><linearGradient id="b" x1="0" y1="0" x2="1" y2="0" gradientUnits="userSpaceOnUse" gradientTransform="rotate(172.852 39.824 28.982)scale(11.5156)"><stop offset="0" style="stop-color:#0059c5;stop-opacity:.6"/><stop offset="1" style="stop-color:#0059c5;stop-opacity:0"/></linearGradient><linearGradient id="h" x1="0" y1="0" x2="1" y2="0" gradientUnits="userSpaceOnUse" gradientTransform="rotate(233.027 42.338 30.769)scale(26.7856)"><stop offset="0" style="stop-color:#0086e2;stop-opacity:.6"/><stop offset="1" style="stop-color:#0086e2;stop-opacity:0"/></linearGradient><linearGradient id="i" x1="0" y1="0" x2="1" y2="0" gradientUnits="userSpaceOnUse" gradientTransform="rotate(59.76 -26.233 6.203)scale(36.1262)"><stop offset="0" style="stop-color:#cdfaff;stop-opacity:1"/><stop offset="1" style="stop-color:#45ddfb;stop-opacity:1"/></linearGradient></defs></svg>