<svg viewBox="0 0 256 256" xmlns="http://www.w3.org/2000/svg" xml:space="preserve" style="fill-rule:evenodd;clip-rule:evenodd;stroke-linejoin:round;stroke-miterlimit:2"><path d="M256 40v176c0 22.077-17.923 40-40 40H40c-22.077 0-40-17.923-40-40V40C0 17.923 17.923 0 40 0h176c22.077 0 40 17.923 40 40" style="fill:#15191c"/><path d="M23.555 3.45a2.886 2.886 0 0 1 3.362 2.23l.07.33a2.774 2.774 0 0 1-2.193 3.308L6.513 12.872a1.867 1.867 0 0 1-2.175-1.441l-.276-1.309a2.776 2.776 0 0 1 2.193-3.309z" style="fill:#7611f0;fill-rule:nonzero" transform="translate(30.433 32.282)scale(6.09793)"/><path d="M23.555 3.45a2.886 2.886 0 0 1 3.362 2.23l.07.33a2.774 2.774 0 0 1-2.193 3.308L6.513 12.872a1.867 1.867 0 0 1-2.175-1.441l-.276-1.309a2.776 2.776 0 0 1 2.193-3.309z" style="fill:url(#a);fill-rule:nonzero" transform="translate(30.433 32.282)scale(6.09793)"/><path d="M23.555 3.45a2.886 2.886 0 0 1 3.362 2.23l.07.33a2.774 2.774 0 0 1-2.193 3.308L6.513 12.872a1.867 1.867 0 0 1-2.175-1.441l-.276-1.309a2.776 2.776 0 0 1 2.193-3.309z" style="fill:url(#b);fill-rule:nonzero" transform="translate(30.433 32.282)scale(6.09793)"/><path d="M23.555 3.45a2.886 2.886 0 0 1 3.362 2.23l.07.33a2.774 2.774 0 0 1-2.193 3.308L6.513 12.872a1.867 1.867 0 0 1-2.175-1.441l-.276-1.309a2.776 2.776 0 0 1 2.193-3.309z" style="fill:url(#c);fill-rule:nonzero" transform="translate(30.433 32.282)scale(6.09793)"/><path d="M4 24.496a3.5 3.5 0 0 0 3.5 3.5h17.67a2.83 2.83 0 0 0 2.83-2.83v-1.079a3.125 3.125 0 0 0-3.125-3.125H7.967A3.967 3.967 0 0 1 4 16.996z" style="fill:#7611f0;fill-rule:nonzero" transform="translate(30.433 32.282)scale(6.09793)"/><path d="M4 24.496a3.5 3.5 0 0 0 3.5 3.5h17.67a2.83 2.83 0 0 0 2.83-2.83v-1.079a3.125 3.125 0 0 0-3.125-3.125H7.967A3.967 3.967 0 0 1 4 16.996z" style="fill:#a966ff;fill-opacity:.2;fill-rule:nonzero" transform="translate(30.433 32.282)scale(6.09793)"/><path d="M4 24.496a3.5 3.5 0 0 0 3.5 3.5h17.67a2.83 2.83 0 0 0 2.83-2.83v-1.079a3.125 3.125 0 0 0-3.125-3.125H7.967A3.967 3.967 0 0 1 4 16.996z" style="fill:url(#d);fill-rule:nonzero" transform="translate(30.433 32.282)scale(6.09793)"/><path d="M4 24.496a3.5 3.5 0 0 0 3.5 3.5h17.67a2.83 2.83 0 0 0 2.83-2.83v-1.079a3.125 3.125 0 0 0-3.125-3.125H7.967A3.967 3.967 0 0 1 4 16.996z" style="fill:url(#e);fill-rule:nonzero" transform="translate(30.433 32.282)scale(6.09793)"/><path d="M4 24.496a3.5 3.5 0 0 0 3.5 3.5h17.67a2.83 2.83 0 0 0 2.83-2.83v-1.079a3.125 3.125 0 0 0-3.125-3.125H7.967A3.967 3.967 0 0 1 4 16.996z" style="fill:url(#f);fill-rule:nonzero" transform="translate(30.433 32.282)scale(6.09793)"/><path d="M4 24.496a3.5 3.5 0 0 0 3.5 3.5h17.67a2.83 2.83 0 0 0 2.83-2.83v-1.079a3.125 3.125 0 0 0-3.125-3.125H7.967A3.967 3.967 0 0 1 4 16.996z" style="fill:url(#g);fill-rule:nonzero" transform="translate(30.433 32.282)scale(6.09793)"/><path d="M4 14.653a3 3 0 0 0 3 3h18.17a2.83 2.83 0 0 1 2.83 2.83v1.253-6.607a2.83 2.83 0 0 0-2.83-2.83H7a3 3 0 0 1-3-3v-.757z" style="fill:#bc7fff;fill-rule:nonzero" transform="translate(30.433 32.282)scale(6.09793)"/><path d="M4 14.653a3 3 0 0 0 3 3h18.17a2.83 2.83 0 0 1 2.83 2.83v1.253-6.607a2.83 2.83 0 0 0-2.83-2.83H7a3 3 0 0 1-3-3v-.757z" style="fill:url(#h);fill-rule:nonzero" transform="translate(30.433 32.282)scale(6.09793)"/><path d="M4 14.653a3 3 0 0 0 3 3h18.17a2.83 2.83 0 0 1 2.83 2.83v1.253-6.607a2.83 2.83 0 0 0-2.83-2.83H7a3 3 0 0 1-3-3v-.757z" style="fill:url(#i);fill-rule:nonzero" transform="translate(30.433 32.282)scale(6.09793)"/><path d="M4 14.653a3 3 0 0 0 3 3h18.17a2.83 2.83 0 0 1 2.83 2.83v1.253-6.607a2.83 2.83 0 0 0-2.83-2.83H7a3 3 0 0 1-3-3v-.757z" style="fill:url(#j);fill-rule:nonzero" transform="translate(30.433 32.282)scale(6.09793)"/><path d="M4 19.263a3.5 3.5 0 0 0 3.5 3.5h17.67A2.83 2.83 0 0 1 28 25.594v.186-5.429a2.83 2.83 0 0 0-2.83-2.829H7.5a3.5 3.5 0 0 1-3.5-3.5v-.459z" style="fill:#974cff;fill-rule:nonzero" transform="translate(30.433 32.282)scale(6.09793)"/><path d="M4 19.263a3.5 3.5 0 0 0 3.5 3.5h17.67A2.83 2.83 0 0 1 28 25.594v.186-5.429a2.83 2.83 0 0 0-2.83-2.829H7.5a3.5 3.5 0 0 1-3.5-3.5v-.459z" style="fill:#a966ff;fill-opacity:.35;fill-rule:nonzero" transform="translate(30.433 32.282)scale(6.09793)"/><path d="M4 19.263a3.5 3.5 0 0 0 3.5 3.5h17.67A2.83 2.83 0 0 1 28 25.594v.186-5.429a2.83 2.83 0 0 0-2.83-2.829H7.5a3.5 3.5 0 0 1-3.5-3.5v-.459z" style="fill:url(#k);fill-rule:nonzero" transform="translate(30.433 32.282)scale(6.09793)"/><path d="M4 19.263a3.5 3.5 0 0 0 3.5 3.5h17.67A2.83 2.83 0 0 1 28 25.594v.186-5.429a2.83 2.83 0 0 0-2.83-2.829H7.5a3.5 3.5 0 0 1-3.5-3.5v-.459z" style="fill:url(#l);fill-rule:nonzero" transform="translate(30.433 32.282)scale(6.09793)"/><path d="M4 19.263a3.5 3.5 0 0 0 3.5 3.5h17.67A2.83 2.83 0 0 1 28 25.594v.186-5.429a2.83 2.83 0 0 0-2.83-2.829H7.5a3.5 3.5 0 0 1-3.5-3.5v-.459z" style="fill:url(#m);fill-rule:nonzero" transform="translate(30.433 32.282)scale(6.09793)"/><defs><linearGradient id="d" x1="0" y1="0" x2="1" y2="0" gradientUnits="userSpaceOnUse" gradientTransform="rotate(99.742 .219 19.425)scale(4.2256)"><stop offset="0" style="stop-color:#330072;stop-opacity:.4"/><stop offset="1" style="stop-color:#7611f0;stop-opacity:0"/></linearGradient><linearGradient id="e" x1="0" y1="0" x2="1" y2="0" gradientUnits="userSpaceOnUse" gradientTransform="rotate(90 -6.559 15.945)scale(6.162)"><stop offset="0" style="stop-color:#9136f2;stop-opacity:0"/><stop offset=".84" style="stop-color:#b76aff;stop-opacity:.15"/><stop offset="1" style="stop-color:#b76aff;stop-opacity:.15"/></linearGradient><linearGradient id="f" x1="0" y1="0" x2="1" y2="0" gradientUnits="userSpaceOnUse" gradientTransform="rotate(179.49 5.223 11.074)scale(6.5465)"><stop offset="0" style="stop-color:#9136f2;stop-opacity:0"/><stop offset=".84" style="stop-color:#b76aff;stop-opacity:.3"/><stop offset="1" style="stop-color:#b76aff;stop-opacity:.3"/></linearGradient><linearGradient id="g" x1="0" y1="0" x2="1" y2="0" gradientUnits="userSpaceOnUse" gradientTransform="rotate(39.105 -20.808 40.325)scale(12.8233)"><stop offset="0" style="stop-color:#9136f2;stop-opacity:0"/><stop offset=".84" style="stop-color:#b76aff;stop-opacity:.2"/><stop offset="1" style="stop-color:#b76aff;stop-opacity:.2"/></linearGradient><linearGradient id="h" x1="0" y1="0" x2="1" y2="0" gradientUnits="userSpaceOnUse" gradientTransform="translate(10.545 14.734)scale(-6.54627)"><stop offset="0" style="stop-color:#bc80ff;stop-opacity:0"/><stop offset=".84" style="stop-color:#ecb4ff;stop-opacity:1"/><stop offset="1" style="stop-color:#ecb4ff;stop-opacity:1"/></linearGradient><linearGradient id="i" x1="0" y1="0" x2="1" y2="0" gradientUnits="userSpaceOnUse" gradientTransform="translate(20.049 14.734)scale(7.9513)"><stop offset="0" style="stop-color:#bc7fff;stop-opacity:0"/><stop offset=".84" style="stop-color:#ecb4ff;stop-opacity:.8"/><stop offset="1" style="stop-color:#ecb4ff;stop-opacity:.8"/></linearGradient><linearGradient id="k" x1="0" y1="0" x2="1" y2="0" gradientUnits="userSpaceOnUse" gradientTransform="rotate(92.408 2.738 15.43)scale(7.524)"><stop offset="0" style="stop-color:#6200d5;stop-opacity:.4"/><stop offset="1" style="stop-color:#3e008d;stop-opacity:0"/></linearGradient><linearGradient id="l" x1="0" y1="0" x2="1" y2="0" gradientUnits="userSpaceOnUse" gradientTransform="translate(21.456 19.378)scale(6.5463)"><stop offset="0" style="stop-color:#9b54fd;stop-opacity:0"/><stop offset=".84" style="stop-color:#ecb4ff;stop-opacity:.4"/><stop offset="1" style="stop-color:#ecb4ff;stop-opacity:.4"/></linearGradient><linearGradient id="m" x1="0" y1="0" x2="1" y2="0" gradientUnits="userSpaceOnUse" gradientTransform="translate(10.545 19.378)scale(-6.54627)"><stop offset="0" style="stop-color:#944ef6;stop-opacity:0"/><stop offset=".84" style="stop-color:#ecb4ff;stop-opacity:.6"/><stop offset="1" style="stop-color:#ecb4ff;stop-opacity:.6"/></linearGradient><radialGradient id="a" cx="0" cy="0" r="1" gradientUnits="userSpaceOnUse" gradientTransform="matrix(-18.9532 10.4473 13.0275 22.466 15.615 -7.342)"><stop offset="0" style="stop-color:#974cff;stop-opacity:.9"/><stop offset=".63" style="stop-color:#974cff;stop-opacity:.9"/><stop offset="1" style="stop-color:#5000b0;stop-opacity:.9"/></radialGradient><radialGradient id="b" cx="0" cy="0" r="1" gradientUnits="userSpaceOnUse" gradientTransform="matrix(-17.295 8.04331 19.4035 38.9396 27.62 1.491)"><stop offset="0" style="stop-color:#de91ff;stop-opacity:.6"/><stop offset=".15" style="stop-color:#de91ff;stop-opacity:.6"/><stop offset=".68" style="stop-color:#d373fc;stop-opacity:0"/><stop offset="1" style="stop-color:#d373fc;stop-opacity:0"/></radialGradient><radialGradient id="c" cx="0" cy="0" r="1" gradientUnits="userSpaceOnUse" gradientTransform="matrix(-7.0456 9.99321 29.2901 12.3726 17.695 -2.035)"><stop offset="0" style="stop-color:#ffc7a3;stop-opacity:.4"/><stop offset=".83" style="stop-color:#de67fd;stop-opacity:0"/><stop offset="1" style="stop-color:#de67fd;stop-opacity:0"/></radialGradient><radialGradient id="j" cx="0" cy="0" r="1" gradientUnits="userSpaceOnUse" gradientTransform="matrix(-7.8319 12.3486 15.8124 29.1661 23.832 -1.036)"><stop offset="0" style="stop-color:#ffc7a3;stop-opacity:1"/><stop offset=".83" style="stop-color:#de67fd;stop-opacity:0"/><stop offset="1" style="stop-color:#de67fd;stop-opacity:0"/></radialGradient></defs></svg>