<svg width="256" height="256" title="Microsoft Access" viewBox="0 0 256 256" fill="none" xmlns="http://www.w3.org/2000/svg" id="microsoftaccess">
<style>
#microsoftaccess {
    rect {fill: #15191C}

    @media (prefers-color-scheme: light) {
        rect {fill: #F4F2ED}
    }
}
</style>
<rect width="256" height="256" rx="40" fill="#15191C"/>
<path d="M74.5349 151.744V191.279C74.5349 202.195 103.739 211.046 139.767 211.046C175.796 211.046 205 202.195 205 191.279V151.744H74.5349Z" fill="#881421"/>
<path d="M74.5349 108.256V151.744C74.5349 162.66 103.739 171.512 139.767 171.512C175.796 171.512 205 162.66 205 151.744V108.256H74.5349Z" fill="#AF2031"/>
<path d="M74.5349 64.7675V108.256C74.5349 119.171 103.739 128.023 139.767 128.023C175.796 128.023 205 119.171 205 108.256V64.7675H74.5349Z" fill="#C94F60"/>
<path d="M139.767 84.5349C175.794 84.5349 205 75.6847 205 64.7674C205 53.8502 175.794 45 139.767 45C103.741 45 74.5349 53.8502 74.5349 64.7674C74.5349 75.6847 103.741 84.5349 139.767 84.5349Z" fill="#E08095"/>
<path opacity="0.1" d="M122.637 80.5814H74.5349V179.419H122.637C126.634 179.405 129.871 176.169 129.884 172.172V87.8281C129.871 83.8312 126.634 80.5944 122.637 80.5814Z" fill="black"/>
<path opacity="0.2" d="M118.683 84.5349H74.5349V183.372H118.683C122.68 183.359 125.917 180.122 125.93 176.125V91.7816C125.917 87.7847 122.68 84.5479 118.683 84.5349Z" fill="black"/>
<path opacity="0.2" d="M118.683 84.5349H74.5349V175.465H118.683C122.68 175.452 125.917 172.215 125.93 168.218V91.7816C125.917 87.7847 122.68 84.5479 118.683 84.5349Z" fill="black"/>
<path opacity="0.2" d="M114.73 84.5349H74.5349V175.465H114.73C118.727 175.452 121.964 172.215 121.977 168.218V91.7816C121.964 87.7847 118.727 84.5479 114.73 84.5349Z" fill="black"/>
<path d="M42.2468 84.5349H114.73C118.732 84.5349 121.977 87.7793 121.977 91.7816V164.265C121.977 168.267 118.732 171.512 114.73 171.512H42.2468C38.2445 171.512 35 168.267 35 164.265V91.7816C35 87.7793 38.2445 84.5349 42.2468 84.5349Z" fill="url(#linearGradient)"/>
<path d="M73.2816 104.464H83.956L101.106 151.578H91.0249L87.2454 140.342H69.6009L65.8886 151.578H55.8705L73.2816 104.464ZM84.976 133.084L79.4926 116.032C79.0443 114.782 78.7082 113.495 78.4884 112.186H78.2907C78.0869 113.531 77.7573 114.855 77.3063 116.139L71.7714 133.092L84.976 133.084Z" fill="white"/>
<linearGradient id="linearGradient" x1="50.1096" y1="78.8724" x2="106.867" y2="177.174" gradientUnits="userSpaceOnUse">
<stop stop-color="#B72C3F"/>
<stop offset="0.5" stop-color="#B12334"/>
<stop offset="1" stop-color="#9D1623"/>
</linearGradient>
</svg>