<svg viewBox="0 0 256 256" xmlns="http://www.w3.org/2000/svg" xml:space="preserve" style="fill-rule:evenodd;clip-rule:evenodd;stroke-linejoin:round;stroke-miterlimit:2"><path d="M256 40v176c0 22.077-17.923 40-40 40H40c-22.077 0-40-17.923-40-40V40C0 17.923 17.923 0 40 0h176c22.077 0 40 17.923 40 40" style="fill:#15191c"/><path d="M10 13a6 6 0 1 0 0-12 6 6 0 0 0 0 12" style="fill:url(#a);fill-rule:nonzero" transform="translate(32.882 37.412)scale(9.05882)"/><path d="M10 13a6 6 0 1 0 0-12 6 6 0 0 0 0 12" style="fill:url(#b);fill-rule:nonzero" transform="translate(32.882 37.412)scale(9.05882)"/><path d="M10 13a6 6 0 1 0 0-12 6 6 0 0 0 0 12" style="fill:url(#c);fill-rule:nonzero" transform="translate(32.882 37.412)scale(9.05882)"/><path d="M10 13a6 6 0 1 0 0-12 6 6 0 0 0 0 12" style="fill:url(#d);fill-rule:nonzero" transform="translate(32.882 37.412)scale(9.05882)"/><path d="M14.5 16a4.5 4.5 0 1 0 0-9 4.5 4.5 0 0 0 0 9" style="fill:url(#e);fill-rule:nonzero" transform="translate(32.882 37.412)scale(9.05882)"/><path d="M14.5 16a4.5 4.5 0 1 0 0-9 4.5 4.5 0 0 0 0 9" style="fill:url(#f);fill-rule:nonzero" transform="translate(32.882 37.412)scale(9.05882)"/><path d="M14.5 16a4.5 4.5 0 1 0 0-9 4.5 4.5 0 0 0 0 9" style="fill:url(#g);fill-rule:nonzero" transform="translate(32.882 37.412)scale(9.05882)"/><path d="M10 19a4 4 0 1 0 0-8 4 4 0 0 0 0 8" style="fill:url(#h);fill-rule:nonzero" transform="translate(32.882 37.412)scale(9.05882)"/><path d="M10 19a4 4 0 1 0 0-8 4 4 0 0 0 0 8" style="fill:url(#i);fill-rule:nonzero" transform="translate(32.882 37.412)scale(9.05882)"/><path d="M11 7.221v8.558a.22.22 0 0 1-.221.221H2.221A.22.22 0 0 1 2 15.779V7.221C2 7.099 2.099 7 2.221 7h8.558c.122 0 .221.099.221.221" style="fill:url(#j)" transform="translate(32.882 37.412)scale(9.05882)"/><path d="M11 7.221v8.558a.22.22 0 0 1-.221.221H2.221A.22.22 0 0 1 2 15.779V7.221C2 7.099 2.099 7 2.221 7h8.558c.122 0 .221.099.221.221" style="fill:url(#k)" transform="translate(32.882 37.412)scale(9.05882)"/><path d="m4.616 13.017.948-.495q.16.324.418.478.262.153.572.153.346 0 .526-.14.182-.143.182-.428a.48.48 0 0 0-.175-.377q-.173-.156-.617-.237-.843-.153-1.227-.537a1.3 1.3 0 0 1-.38-.955q0-.711.502-1.137.502-.425 1.325-.425.555 0 .976.227.421.226.67.648l-.928.478a1.05 1.05 0 0 0-.331-.342.85.85 0 0 0-.446-.108q-.321 0-.488.139a.45.45 0 0 0-.164.363q0 .192.157.338.16.143.641.234.808.153 1.206.558.401.4.401 1.014 0 .746-.477 1.182-.478.436-1.363.436-.642 0-1.158-.279a1.84 1.84 0 0 1-.77-.788" style="fill:#fff;fill-rule:nonzero" transform="translate(32.882 37.412)scale(9.05882)"/><defs><radialGradient id="b" cx="0" cy="0" r="1" gradientUnits="userSpaceOnUse" gradientTransform="rotate(247.552 10.82 3.372)scale(9.21304 16.56446)"><stop offset="0" style="stop-color:#003b5d;stop-opacity:.2"/><stop offset=".29" style="stop-color:#003b5d;stop-opacity:.2"/><stop offset=".61" style="stop-color:#004a6c;stop-opacity:.14"/><stop offset=".97" style="stop-color:#006f94;stop-opacity:0"/><stop offset="1" style="stop-color:#006f94;stop-opacity:0"/></radialGradient><radialGradient id="c" cx="0" cy="0" r="1" gradientUnits="userSpaceOnUse" gradientTransform="rotate(247.937 10.07 1.948)scale(7.77595 13.96363)"><stop offset="0" style="stop-color:#002a42;stop-opacity:.31"/><stop offset=".26" style="stop-color:#002a42;stop-opacity:.31"/><stop offset=".61" style="stop-color:#004261;stop-opacity:.21"/><stop offset=".97" style="stop-color:#006f94;stop-opacity:0"/><stop offset="1" style="stop-color:#006f94;stop-opacity:0"/></radialGradient><radialGradient id="d" cx="0" cy="0" r="1" gradientUnits="userSpaceOnUse" gradientTransform="rotate(124.447 6.281 4.353)scale(6.50536)"><stop offset="0" style="stop-color:#78edff;stop-opacity:.7"/><stop offset="1" style="stop-color:#2ccfca;stop-opacity:0"/></radialGradient><radialGradient id="f" cx="0" cy="0" r="1" gradientUnits="userSpaceOnUse" gradientTransform="rotate(-70.801 16.69 -.763)scale(5.5592 10.0164)"><stop offset="0" style="stop-color:#004a5d;stop-opacity:.5"/><stop offset=".49" style="stop-color:#00556c;stop-opacity:.34"/><stop offset=".97" style="stop-color:#007a86;stop-opacity:0"/><stop offset="1" style="stop-color:#007a86;stop-opacity:0"/></radialGradient><radialGradient id="g" cx="0" cy="0" r="1" gradientUnits="userSpaceOnUse" gradientTransform="rotate(124.447 6.565 8.233)scale(4.87902)"><stop offset="0" style="stop-color:#78edff;stop-opacity:.7"/><stop offset="1" style="stop-color:#2ccfca;stop-opacity:0"/></radialGradient><radialGradient id="j" cx="0" cy="0" r="1" gradientUnits="userSpaceOnUse" gradientTransform="rotate(45 -7.45 5.914)scale(12.7279)"><stop offset="0" style="stop-color:#00b6bd;stop-opacity:1"/><stop offset=".06" style="stop-color:#00b6bd;stop-opacity:1"/><stop offset=".89" style="stop-color:#00495c;stop-opacity:1"/><stop offset="1" style="stop-color:#00495c;stop-opacity:1"/></radialGradient><radialGradient id="k" cx="0" cy="0" r="1" gradientUnits="userSpaceOnUse" gradientTransform="matrix(0 6.3 -7.17187 0 6.5 12.4)"><stop offset="0" style="stop-color:#1e8581;stop-opacity:0"/><stop offset=".57" style="stop-color:#1e8581;stop-opacity:0"/><stop offset=".97" style="stop-color:#1ecbe6;stop-opacity:.6"/><stop offset="1" style="stop-color:#1ecbe6;stop-opacity:.6"/></radialGradient><linearGradient id="a" x1="0" y1="0" x2="1" y2="0" gradientUnits="userSpaceOnUse" gradientTransform="matrix(8 10.5 -10.5 8 5.5 2.5)"><stop offset="0" style="stop-color:#00e3df;stop-opacity:1"/><stop offset=".41" style="stop-color:#0097a8;stop-opacity:1"/><stop offset="1" style="stop-color:#007791;stop-opacity:1"/></linearGradient><linearGradient id="e" x1="0" y1="0" x2="1" y2="0" gradientUnits="userSpaceOnUse" gradientTransform="rotate(52.7 -2.64 15.294)scale(9.9)"><stop offset="0" style="stop-color:#00e0d9;stop-opacity:1"/><stop offset=".48" style="stop-color:#009fb8;stop-opacity:1"/><stop offset=".95" style="stop-color:#056475;stop-opacity:1"/><stop offset="1" style="stop-color:#056475;stop-opacity:1"/></linearGradient><linearGradient id="h" x1="0" y1="0" x2="1" y2="0" gradientUnits="userSpaceOnUse" gradientTransform="matrix(4 8 -8 4 7.2 11.4)"><stop offset="0" style="stop-color:#75fff6;stop-opacity:1"/><stop offset=".05" style="stop-color:#75fff6;stop-opacity:1"/><stop offset=".51" style="stop-color:#00c7d1;stop-opacity:1"/><stop offset=".96" style="stop-color:#0096ad;stop-opacity:1"/><stop offset="1" style="stop-color:#0096ad;stop-opacity:1"/></linearGradient><linearGradient id="i" x1="0" y1="0" x2="1" y2="0" gradientUnits="userSpaceOnUse" gradientTransform="matrix(-2.1375 -3 3 -2.1375 13.982 19)"><stop offset="0" style="stop-color:#0e5a5d;stop-opacity:.32"/><stop offset=".26" style="stop-color:#0e5a5d;stop-opacity:.32"/><stop offset=".54" style="stop-color:#126c6b;stop-opacity:.22"/><stop offset=".97" style="stop-color:#1c948a;stop-opacity:0"/><stop offset="1" style="stop-color:#1c948a;stop-opacity:0"/></linearGradient></defs></svg>