<svg viewBox="0 0 256 256" xmlns="http://www.w3.org/2000/svg" xml:space="preserve" style="fill-rule:evenodd;clip-rule:evenodd;stroke-linejoin:round;stroke-miterlimit:2"><path d="M256 40v176c0 22.077-17.923 40-40 40H40c-22.077 0-40-17.923-40-40V40C0 17.923 17.923 0 40 0h176c22.077 0 40 17.923 40 40" style="fill:#15191c"/><path d="M0 4.026C0 .985 4.008-.68 6.656 1.261l5.756 4.217 4.858-2.731c2.567-1.388 6.681-.392 6.73 3.404v13.991c0 3.041-3.89 4.626-6.538 2.685l-5.861-4.309-4.864 2.732c-2.591 1.401-6.733.326-6.733-3.369C.004 13.446 0 15.149 0 4.026" style="fill:url(#a);fill-rule:nonzero" transform="translate(48 47.648)scale(6.66667)"/><path d="M0 4.026C0 .985 4.008-.68 6.656 1.261l5.756 4.217 4.858-2.731c2.567-1.388 6.681-.392 6.73 3.404v13.991c0 3.041-3.89 4.626-6.538 2.685l-5.861-4.309-4.864 2.732c-2.591 1.401-6.733.326-6.733-3.369C.004 13.446 0 15.149 0 4.026" style="fill:url(#b);fill-rule:nonzero" transform="translate(48 47.648)scale(6.66667)"/><path d="M0 4.026C0 .985 4.008-.68 6.656 1.261l5.756 4.217 4.858-2.731c2.567-1.388 6.681-.392 6.73 3.404v13.991c0 3.041-3.89 4.626-6.538 2.685l-5.861-4.309-4.864 2.732c-2.591 1.401-6.733.326-6.733-3.369C.004 13.446 0 15.149 0 4.026" style="fill:url(#c);fill-rule:nonzero" transform="translate(48 47.648)scale(6.66667)"/><path d="M6.656 1.261C4.008-.68 0 .985 0 4.026v13.683c0-.333.171-.995.171-.995.79-2.561 4.147-3.521 6.469-1.833l10.822 7.946C20.11 24.768 24 23.183 24 20.142V6.151c0 2.598-3.423 5.205-6.656 2.946z" style="fill:url(#d);fill-rule:nonzero" transform="translate(48 47.648)scale(6.66667)"/><path d="M6.656 1.261C4.008-.68 0 .985 0 4.026v13.683c0-.333.171-.995.171-.995.79-2.561 4.147-3.521 6.469-1.833l10.822 7.946C20.11 24.768 24 23.183 24 20.142V6.151c0 2.598-3.423 5.205-6.656 2.946z" style="fill:url(#e);fill-rule:nonzero" transform="translate(48 47.648)scale(6.66667)"/><path d="M6.656 1.261C4.008-.68 0 .985 0 4.026v13.683c0-.333.171-.995.171-.995.79-2.561 4.147-3.521 6.469-1.833l10.822 7.946C20.11 24.768 24 23.183 24 20.142V6.151c0 2.598-3.423 5.205-6.656 2.946z" style="fill:url(#f);fill-rule:nonzero" transform="translate(48 47.648)scale(6.66667)"/><path d="M6.656 9.016C4.008 7.075 0 8.74 0 11.78V4.026C0 .985 4.008-.68 6.656 1.261l10.688 7.836C20.577 11.356 24 8.749 24 6.151v7.936c0 3.041-4.008 4.705-6.656 2.764z" style="fill:url(#g);fill-rule:nonzero" transform="translate(48 47.648)scale(6.66667)"/><path d="M6.656 9.016C4.008 7.075 0 8.74 0 11.78V4.026C0 .985 4.008-.68 6.656 1.261l10.688 7.836C20.577 11.356 24 8.749 24 6.151v7.936c0 3.041-4.008 4.705-6.656 2.764z" style="fill:url(#h);fill-rule:nonzero" transform="translate(48 47.648)scale(6.66667)"/><defs><radialGradient id="b" cx="0" cy="0" r="1" gradientUnits="userSpaceOnUse" gradientTransform="rotate(110.374 11.71 6.071)scale(17.41136 13.12233)"><stop offset="0" style="stop-color:#004aff;stop-opacity:.1"/><stop offset=".42" style="stop-color:#004aff;stop-opacity:.1"/><stop offset=".73" style="stop-color:#014db9;stop-opacity:1"/><stop offset=".84" style="stop-color:#014db9;stop-opacity:.9"/><stop offset=".96" style="stop-color:#014db9;stop-opacity:0"/><stop offset="1" style="stop-color:#014db9;stop-opacity:0"/></radialGradient><radialGradient id="c" cx="0" cy="0" r="1" gradientUnits="userSpaceOnUse" gradientTransform="rotate(-73.518 16.975 9.34)scale(13.85729 16.99418)"><stop offset="0" style="stop-color:#004aff;stop-opacity:.1"/><stop offset=".09" style="stop-color:#004aff;stop-opacity:.1"/><stop offset=".56" style="stop-color:#014db9;stop-opacity:1"/><stop offset=".75" style="stop-color:#014db9;stop-opacity:.99"/><stop offset="1" style="stop-color:#014db9;stop-opacity:0"/></radialGradient><radialGradient id="d" cx="0" cy="0" r="1" gradientUnits="userSpaceOnUse" gradientTransform="rotate(134.298 13.073 5.76)scale(33.698 25.961)"><stop offset="0" style="stop-color:#23c0fe;stop-opacity:1"/><stop offset=".72" style="stop-color:#23c0fe;stop-opacity:1"/><stop offset="1" style="stop-color:#1c91ff;stop-opacity:1"/><stop offset="1" style="stop-color:#1c91ff;stop-opacity:1"/></radialGradient><radialGradient id="e" cx="0" cy="0" r="1" gradientUnits="userSpaceOnUse" gradientTransform="rotate(45.68 .83 9.653)scale(24.10781 5.7363)"><stop offset="0" style="stop-color:#096dd6;stop-opacity:0"/><stop offset=".17" style="stop-color:#096dd6;stop-opacity:0"/><stop offset=".48" style="stop-color:#096dd6;stop-opacity:.25"/><stop offset="1" style="stop-color:#029aff;stop-opacity:0"/></radialGradient><radialGradient id="f" cx="0" cy="0" r="1" gradientUnits="userSpaceOnUse" gradientTransform="rotate(91.623 4.413 18.575)scale(3.85686 3.5013)"><stop offset="0" style="stop-color:#0068b3;stop-opacity:.55"/><stop offset=".93" style="stop-color:#006cb8;stop-opacity:0"/><stop offset="1" style="stop-color:#006cb8;stop-opacity:0"/></radialGradient><radialGradient id="h" cx="0" cy="0" r="1" gradientUnits="userSpaceOnUse" gradientTransform="rotate(69.31 1.703 3.126)scale(5.9379 4.82512)"><stop offset="0" style="stop-color:#ccf9ff;stop-opacity:.33"/><stop offset="1" style="stop-color:#35ddff;stop-opacity:.35"/></radialGradient><linearGradient id="a" x1="0" y1="0" x2="1" y2="0" gradientUnits="userSpaceOnUse" gradientTransform="rotate(-65.128 23.662 3.815)scale(20.0973)"><stop offset="0" style="stop-color:#1169da;stop-opacity:1"/><stop offset=".02" style="stop-color:#1169da;stop-opacity:1"/><stop offset=".43" style="stop-color:#0151bd;stop-opacity:1"/><stop offset=".61" style="stop-color:#014db7;stop-opacity:1"/><stop offset="1" style="stop-color:#126ad9;stop-opacity:1"/></linearGradient><linearGradient id="g" x1="0" y1="0" x2="1" y2="0" gradientUnits="userSpaceOnUse" gradientTransform="rotate(76.86 -.304 7.267)scale(17.50577)"><stop offset="0" style="stop-color:#92eefe;stop-opacity:1"/><stop offset=".56" style="stop-color:#35ddff;stop-opacity:1"/><stop offset="1" style="stop-color:#08b1f9;stop-opacity:1"/></linearGradient></defs></svg>