<svg viewBox="0 0 256 256" xmlns="http://www.w3.org/2000/svg" xml:space="preserve" style="fill-rule:evenodd;clip-rule:evenodd;stroke-linejoin:round;stroke-miterlimit:2"><path d="M256 40v176c0 22.077-17.923 40-40 40H40c-22.077 0-40-17.923-40-40V40C0 17.923 17.923 0 40 0h176c22.077 0 40 17.923 40 40" style="fill:#15191c"/><path d="M9 33.09 23 16l16 11.105V38.5a3.5 3.5 0 0 1-3.5 3.5H15a6 6 0 0 1-6-6z" style="fill:url(#a);fill-rule:nonzero" transform="matrix(4.4 0 0 4.4 33.4 22.4)"/><path d="M9 21.039a4.5 4.5 0 0 1 4.5-4.5h20.389L39 14v12.5a3.5 3.5 0 0 1-3.5 3.5H15a6 6 0 0 0-6 6z" style="fill:url(#b);fill-rule:nonzero" transform="matrix(4.4 0 0 4.4 33.4 22.4)"/><path d="M9 21.039a4.5 4.5 0 0 1 4.5-4.5h20.389L39 14v12.5a3.5 3.5 0 0 1-3.5 3.5H15a6 6 0 0 0-6 6z" style="fill:url(#c);fill-rule:nonzero" transform="matrix(4.4 0 0 4.4 33.4 22.4)"/><path d="M9 21.039a4.5 4.5 0 0 1 4.5-4.5h20.389L39 14v12.5a3.5 3.5 0 0 1-3.5 3.5H15a6 6 0 0 0-6 6z" style="fill:url(#d);fill-rule:nonzero" transform="matrix(4.4 0 0 4.4 33.4 22.4)"/><path d="M9 12a6 6 0 0 1 6-6h20.5A3.5 3.5 0 0 1 39 9.5v5a3.5 3.5 0 0 1-3.5 3.5H15a6 6 0 0 0-6 6z" style="fill:url(#e);fill-rule:nonzero" transform="matrix(4.4 0 0 4.4 33.4 22.4)"/><path d="M9 12a6 6 0 0 1 6-6h20.5A3.5 3.5 0 0 1 39 9.5v5a3.5 3.5 0 0 1-3.5 3.5H15a6 6 0 0 0-6 6z" style="fill:url(#f);fill-rule:nonzero" transform="matrix(4.4 0 0 4.4 33.4 22.4)"/><path d="M20 23.739v14.522a.74.74 0 0 1-.739.739H4.739A.74.74 0 0 1 4 38.261V23.739A.74.74 0 0 1 4.739 23h14.522a.74.74 0 0 1 .739.739" style="fill:url(#g)" transform="matrix(4.4 0 0 4.4 33.4 22.4)"/><path d="M20 23.739v14.522a.74.74 0 0 1-.739.739H4.739A.74.74 0 0 1 4 38.261V23.739A.74.74 0 0 1 4.739 23h14.522a.74.74 0 0 1 .739.739" style="fill:url(#h)" transform="matrix(4.4 0 0 4.4 33.4 22.4)"/><path d="m17.486 26.429-1.969 9.142-2.354.001L12 30.086l-1.217 5.486H8.407L6.515 26.43h1.941l1.167 6.033 1.16-6.033h2.38l1.215 6.033 1.139-6.033z" style="fill:#fff;fill-rule:nonzero" transform="matrix(4.4 0 0 4.4 33.4 22.4)"/><defs><radialGradient id="a" cx="0" cy="0" r="1" gradientUnits="userSpaceOnUse" gradientTransform="matrix(47.5733 0 0 20.1494 38.125 42)"><stop offset="0" style="stop-color:#1657f4;stop-opacity:1"/><stop offset=".18" style="stop-color:#1657f4;stop-opacity:1"/><stop offset=".57" style="stop-color:#0036c4;stop-opacity:1"/><stop offset="1" style="stop-color:#0036c4;stop-opacity:1"/></radialGradient><radialGradient id="c" cx="0" cy="0" r="1" gradientUnits="userSpaceOnUse" gradientTransform="matrix(-20.2305 21.2842 -44.4679 -58.1885 39 14.716)"><stop offset="0" style="stop-color:#d471ff;stop-opacity:.6"/><stop offset=".14" style="stop-color:#d471ff;stop-opacity:.6"/><stop offset=".83" style="stop-color:#509df5;stop-opacity:0"/><stop offset="1" style="stop-color:#509df5;stop-opacity:0"/></radialGradient><radialGradient id="d" cx="0" cy="0" r="1" gradientUnits="userSpaceOnUse" gradientTransform="matrix(0 18.6154 -101.647 0 34.611 29.23)"><stop offset="0" style="stop-color:#4f006f;stop-opacity:0"/><stop offset=".28" style="stop-color:#4f006f;stop-opacity:0"/><stop offset="1" style="stop-color:#4f006f;stop-opacity:.1"/></radialGradient><radialGradient id="f" cx="0" cy="0" r="1" gradientUnits="userSpaceOnUse" gradientTransform="matrix(-28.722 6.70755 -17.9979 -68.3411 39 6.586)"><stop offset="0" style="stop-color:#e4a7fe;stop-opacity:.8"/><stop offset=".06" style="stop-color:#e4a7fe;stop-opacity:.8"/><stop offset=".54" style="stop-color:#e4a7fe;stop-opacity:0"/><stop offset="1" style="stop-color:#e4a7fe;stop-opacity:0"/></radialGradient><radialGradient id="g" cx="0" cy="0" r="1" gradientUnits="userSpaceOnUse" gradientTransform="matrix(16 16 -16 16 4 23)"><stop offset="0" style="stop-color:#367af2;stop-opacity:1"/><stop offset=".08" style="stop-color:#367af2;stop-opacity:1"/><stop offset=".87" style="stop-color:#001a8f;stop-opacity:1"/><stop offset="1" style="stop-color:#001a8f;stop-opacity:1"/></radialGradient><radialGradient id="h" cx="0" cy="0" r="1" gradientUnits="userSpaceOnUse" gradientTransform="matrix(0 11.2 -12.765 0 12 32.6)"><stop offset="0" style="stop-color:#2763e5;stop-opacity:0"/><stop offset=".59" style="stop-color:#2763e5;stop-opacity:0"/><stop offset=".97" style="stop-color:#58aafe;stop-opacity:.65"/><stop offset="1" style="stop-color:#58aafe;stop-opacity:.65"/></radialGradient><linearGradient id="b" x1="0" y1="0" x2="1" y2="0" gradientUnits="userSpaceOnUse" gradientTransform="translate(9 25)scale(22.9747)"><stop offset="0" style="stop-color:#66c0ff;stop-opacity:1"/><stop offset=".26" style="stop-color:#0094f0;stop-opacity:1"/><stop offset="1" style="stop-color:#0094f0;stop-opacity:1"/></linearGradient><linearGradient id="e" x1="0" y1="0" x2="1" y2="0" gradientUnits="userSpaceOnUse" gradientTransform="matrix(29.9918 .4954 -.4954 29.9918 9 15)"><stop offset="0" style="stop-color:#9deaff;stop-opacity:1"/><stop offset=".2" style="stop-color:#3bd5ff;stop-opacity:1"/><stop offset="1" style="stop-color:#3bd5ff;stop-opacity:1"/></linearGradient></defs></svg>