<svg width="256" height="256" title="Microsoft Excel" viewBox="0 0 256 256" fill="none" xmlns="http://www.w3.org/2000/svg" id="microsoftexcel">
<style>
#microsoftexcel {
    rect {fill: #15191C}

    @media (prefers-color-scheme: light) {
        rect {fill: #F4F2ED}
    }
}
</style>
<rect width="256" height="256" rx="40" fill="#15191C"/>
<path d="M141.744 124.116L74.5349 112.256V199.893C74.5349 203.895 77.7794 207.14 81.7816 207.14H197.753C201.756 207.14 205 203.895 205 199.893V167.605L141.744 124.116Z" fill="#185C37"/>
<path d="M141.744 49H81.7816C77.7794 49 74.5349 52.2445 74.5349 56.2467V88.5349L141.744 128.07L177.326 139.93L205 128.07V88.5349L141.744 49Z" fill="#21A366"/>
<path d="M74.5349 88.5349H141.744V128.07H74.5349V88.5349Z" fill="#107C41"/>
<path opacity="0.1" d="M122.637 80.6279H74.5349V179.465H122.637C126.634 179.452 129.871 176.215 129.884 172.218V87.8746C129.871 83.8778 126.634 80.6409 122.637 80.6279Z" fill="black"/>
<path opacity="0.2" d="M118.684 84.5814H74.5349V183.419H118.684C122.68 183.406 125.917 180.169 125.93 176.172V91.8281C125.917 87.8313 122.68 84.5944 118.684 84.5814Z" fill="black"/>
<path opacity="0.2" d="M118.684 84.5814H74.5349V175.512H118.684C122.68 175.499 125.917 172.262 125.93 168.265V91.8281C125.917 87.8313 122.68 84.5944 118.684 84.5814Z" fill="black"/>
<path opacity="0.2" d="M114.73 84.5814H74.5349V175.512H114.73C118.727 175.499 121.964 172.262 121.977 168.265V91.8281C121.964 87.8313 118.727 84.5944 114.73 84.5814Z" fill="black"/>
<path d="M42.2467 84.5814H114.73C118.732 84.5814 121.977 87.8258 121.977 91.8281V164.311C121.977 168.314 118.732 171.558 114.73 171.558H42.2467C38.2445 171.558 35 168.314 35 164.311V91.8281C35 87.8258 38.2445 84.5814 42.2467 84.5814Z" fill="url(#linearGradient)"/>
<path d="M57.444 151.625L72.6886 128.003L58.721 104.511H69.9567L77.5791 119.534C78.2828 120.961 78.7651 122.021 79.0261 122.721H79.1249C79.6257 121.582 80.1528 120.476 80.7063 119.404L88.8544 104.519H99.169L84.8455 127.872L99.5328 151.625H88.558L79.7535 135.135C79.3388 134.433 78.9869 133.696 78.7019 132.933H78.5715C78.3136 133.681 77.9714 134.397 77.5514 135.067L68.4861 151.625H57.444Z" fill="white"/>
<path d="M197.753 49H141.744V88.5349H205V56.2467C205 52.2445 201.755 49 197.753 49Z" fill="#33C481"/>
<path d="M141.744 128.07H205V167.605H141.744V128.07Z" fill="#107C41"/>
<linearGradient id="linearGradient" x1="50.1096" y1="78.9189" x2="106.867" y2="177.221" gradientUnits="userSpaceOnUse">
<stop stop-color="#18884F"/>
<stop offset="0.5" stop-color="#117E43"/>
<stop offset="1" stop-color="#0B6631"/>
</linearGradient>
</svg>