<svg width="256" height="256" title="Microsoft OneDrive" viewBox="0 0 256 256" fill="none" xmlns="http://www.w3.org/2000/svg" id="microsoftonedrive">
<style>
#microsoftonedrive {
    rect {fill: #15191C}

    @media (prefers-color-scheme: light) {
        rect {fill: #F4F2ED}
    }
}
</style>
<rect width="256" height="256" rx="40" fill="#15191C"/>
<path d="M92.2181 91.2704C67.755 91.2704 49.4698 111.293 48.0957 133.6C48.9476 138.408 51.7476 147.897 56.1328 147.411C61.6143 146.8 75.4217 147.408 87.1996 126.089C95.8033 110.515 113.503 91.2667 92.2181 91.2704Z" fill="url(#paint0_radial_189_100)"/>
<path d="M86.5589 99.5964C78.3366 112.615 67.2699 131.267 63.5329 137.137C59.0921 144.115 47.3328 141.152 48.3069 131.152C48.213 131.964 48.1402 132.782 48.0884 133.604C46.4772 159.626 67.1106 181.237 92.7848 181.237C121.078 181.237 188.559 145.982 181.73 110.656C174.533 89.8926 154.304 75 131.374 75C108.444 75 93.7515 88.2112 86.5589 99.5964Z" fill="url(#paint1_radial_189_100)"/>
<path d="M86.5589 99.5964C78.3366 112.615 67.2699 131.267 63.5329 137.137C59.0921 144.115 47.3328 141.152 48.3069 131.152C48.213 131.964 48.1402 132.782 48.0884 133.604C46.4772 159.626 67.1106 181.237 92.7848 181.237C121.078 181.237 188.559 145.982 181.73 110.656C174.533 89.8926 154.304 75 131.374 75C108.444 75 93.7515 88.2112 86.5589 99.5964Z" fill="url(#paint2_radial_189_100)"/>
<path d="M86.5589 99.5964C78.3366 112.615 67.2699 131.267 63.5329 137.137C59.0921 144.115 47.3328 141.152 48.3069 131.152C48.213 131.964 48.1402 132.782 48.0884 133.604C46.4772 159.626 67.1106 181.237 92.7848 181.237C121.078 181.237 188.559 145.982 181.73 110.656C174.533 89.8926 154.304 75 131.374 75C108.444 75 93.7515 88.2112 86.5589 99.5964Z" fill="url(#paint3_radial_189_100)"/>
<path d="M86.5589 99.5964C78.3366 112.615 67.2699 131.267 63.5329 137.137C59.0921 144.115 47.3328 141.152 48.3069 131.152C48.213 131.964 48.1402 132.782 48.0884 133.604C46.4772 159.626 67.1106 181.237 92.7848 181.237C121.078 181.237 188.559 145.982 181.73 110.656C174.533 89.8926 154.304 75 131.374 75C108.444 75 93.7515 88.2112 86.5589 99.5964Z" fill="url(#paint4_radial_189_100)"/>
<path d="M86.5589 99.5964C78.3366 112.615 67.2699 131.267 63.5329 137.137C59.0921 144.115 47.3328 141.152 48.3069 131.152C48.213 131.964 48.1402 132.782 48.0884 133.604C46.4772 159.626 67.1106 181.237 92.7848 181.237C121.078 181.237 188.559 145.982 181.73 110.656C174.533 89.8926 154.304 75 131.374 75C108.444 75 93.7515 88.2112 86.5589 99.5964Z" fill="url(#paint5_radial_189_100)"/>
<path d="M92.3699 181.248C92.3699 181.248 159.929 181.378 171.392 181.378C192.189 181.378 208 164.4 208 144.589C208 124.778 191.87 107.9 171.392 107.9C150.911 107.9 139.118 123.222 130.259 139.945C119.881 159.541 106.64 181.011 92.3699 181.248Z" fill="url(#paint6_linear_189_100)"/>
<path d="M92.3699 181.248C92.3699 181.248 159.929 181.378 171.392 181.378C192.189 181.378 208 164.4 208 144.589C208 124.778 191.87 107.9 171.392 107.9C150.911 107.9 139.118 123.222 130.259 139.945C119.881 159.541 106.64 181.011 92.3699 181.248Z" fill="url(#paint7_radial_189_100)"/>
<path d="M92.3699 181.248C92.3699 181.248 159.929 181.378 171.392 181.378C192.189 181.378 208 164.4 208 144.589C208 124.778 191.87 107.9 171.392 107.9C150.911 107.9 139.118 123.222 130.259 139.945C119.881 159.541 106.64 181.011 92.3699 181.248Z" fill="url(#paint8_radial_189_100)"/>
<radialGradient id="paint0_radial_189_100" cx="0" cy="0" r="1" gradientTransform="matrix(32.3125 38.7175 -53.9695 65.8784 51.129 97.1149)" gradientUnits="userSpaceOnUse">
<stop stop-color="#4894FE"/>
<stop offset="0.7" stop-color="#0934B3"/>
<stop offset="1" stop-color="#0934B3"/>
</radialGradient>
<radialGradient id="paint1_radial_189_100" cx="0" cy="0" r="1" gradientTransform="matrix(-142.048 163.851 -125.196 -100.897 186.507 39.0554)" gradientUnits="userSpaceOnUse">
<stop stop-color="#23C0FE"/>
<stop offset="0.17" stop-color="#23C0FE"/>
<stop offset="0.53" stop-color="#1C91FF"/>
<stop offset="1" stop-color="#1C91FF"/>
</radialGradient>
<radialGradient id="paint2_radial_189_100" cx="0" cy="0" r="1" gradientTransform="matrix(-33.7666 -28.3473 -63.1628 78.7514 83.8515 99.9853)" gradientUnits="userSpaceOnUse">
<stop stop-color="white" stop-opacity="0.4"/>
<stop offset="0.66" stop-color="#ADC0FF" stop-opacity="0"/>
<stop offset="1" stop-color="#ADC0FF" stop-opacity="0"/>
</radialGradient>
<radialGradient id="paint3_radial_189_100" cx="0" cy="0" r="1" gradientUnits="userSpaceOnUse" gradientTransform="translate(131.791 152.098) rotate(-139.764) scale(49.6936 75.4702)">
<stop stop-color="#033ACC"/>
<stop offset="1" stop-color="#368EFF" stop-opacity="0"/>
</radialGradient>
<radialGradient id="paint4_radial_189_100" cx="0" cy="0" r="1" gradientTransform="matrix(43.3546 100.049 -108.013 46.795 80.9329 71.6407)" gradientUnits="userSpaceOnUse">
<stop stop-color="#3464E3" stop-opacity="0"/>
<stop offset="0.59" stop-color="#3464E3" stop-opacity="0"/>
<stop offset="1" stop-color="#033ACC" stop-opacity="0.6"/>
</radialGradient>
<radialGradient id="paint5_radial_189_100" cx="0" cy="0" r="1" gradientUnits="userSpaceOnUse" gradientTransform="translate(184.756 50.3757) rotate(135) scale(160.393 251.282)">
<stop stop-color="#4BFDE8" stop-opacity="0.9"/>
<stop offset="0.54" stop-color="#4BFDE8" stop-opacity="0"/>
<stop offset="1" stop-color="#4BFDE8" stop-opacity="0"/>
</radialGradient>
<linearGradient id="paint6_linear_189_100" x1="150.222" y1="181.304" x2="150.222" y2="108.77" gradientUnits="userSpaceOnUse">
<stop stop-color="#0086FF"/>
<stop offset="0.49" stop-color="#00BBFF"/>
<stop offset="1" stop-color="#00BBFF"/>
</linearGradient>
<radialGradient id="paint7_radial_189_100" cx="0" cy="0" r="1" gradientTransform="matrix(67.561 26.7935 -85.6066 114.11 112.318 116.541)" gradientUnits="userSpaceOnUse">
<stop stop-color="white" stop-opacity="0.4"/>
<stop offset="0.79" stop-color="white" stop-opacity="0"/>
<stop offset="1" stop-color="white" stop-opacity="0"/>
</radialGradient>
<radialGradient id="paint8_radial_189_100" cx="0" cy="0" r="1" gradientTransform="matrix(-75.4777 65.0517 -89.4718 -54.8772 205.741 102.204)" gradientUnits="userSpaceOnUse">
<stop stop-color="#4BFDE8" stop-opacity="0.9"/>
<stop offset="0.58" stop-color="#4BFDE8" stop-opacity="0"/>
<stop offset="1" stop-color="#4BFDE8" stop-opacity="0"/>
</radialGradient>
</svg>