<svg width="256" height="256" title="Microsoft SharePoint" viewBox="0 0 256 256" fill="none" xmlns="http://www.w3.org/2000/svg" id="microsoftsharepoint">
<style>
#microsoftsharepoint {
    rect {fill: #15191C}

    @media (prefers-color-scheme: light) {
        rect {fill: #F4F2ED}
    }
}
</style>
<rect width="256" height="256" rx="40" fill="#15191C"/>
<path d="M125.588 154.882C132.541 154.882 139.425 153.513 145.848 150.852C152.271 148.192 158.107 144.292 163.023 139.376C167.939 134.46 171.839 128.624 174.5 122.201C177.16 115.778 178.529 108.893 178.529 101.941C178.529 94.9888 177.16 88.1046 174.5 81.6815C171.839 75.2583 167.939 69.4221 163.023 64.5061C158.107 59.5901 152.271 55.6904 145.848 53.0299C139.425 50.3694 132.541 49 125.588 49C111.547 49 98.0816 54.5777 88.1532 64.5061C78.2248 74.4345 72.6471 87.9003 72.6471 101.941C72.6471 115.982 78.2248 129.448 88.1532 139.376C98.0816 149.305 111.547 154.882 125.588 154.882Z" fill="url(#paint0_linear_189_100)"/>
<path d="M125.588 154.882C132.541 154.882 139.425 153.513 145.848 150.852C152.271 148.192 158.107 144.292 163.023 139.376C167.939 134.46 171.839 128.624 174.5 122.201C177.16 115.778 178.529 108.893 178.529 101.941C178.529 94.9888 177.16 88.1046 174.5 81.6815C171.839 75.2583 167.939 69.4221 163.023 64.5061C158.107 59.5901 152.271 55.6904 145.848 53.0299C139.425 50.3694 132.541 49 125.588 49C111.547 49 98.0816 54.5777 88.1532 64.5061C78.2248 74.4345 72.6471 87.9003 72.6471 101.941C72.6471 115.982 78.2248 129.448 88.1532 139.376C98.0816 149.305 111.547 154.882 125.588 154.882Z" fill="url(#paint1_radial_189_100)"/>
<path d="M125.588 154.882C132.541 154.882 139.425 153.513 145.848 150.852C152.271 148.192 158.107 144.292 163.023 139.376C167.939 134.46 171.839 128.624 174.5 122.201C177.16 115.778 178.529 108.893 178.529 101.941C178.529 94.9888 177.16 88.1046 174.5 81.6815C171.839 75.2583 167.939 69.4221 163.023 64.5061C158.107 59.5901 152.271 55.6904 145.848 53.0299C139.425 50.3694 132.541 49 125.588 49C111.547 49 98.0816 54.5777 88.1532 64.5061C78.2248 74.4345 72.6471 87.9003 72.6471 101.941C72.6471 115.982 78.2248 129.448 88.1532 139.376C98.0816 149.305 111.547 154.882 125.588 154.882Z" fill="url(#paint2_radial_189_100)"/>
<path d="M125.588 154.882C132.541 154.882 139.425 153.513 145.848 150.852C152.271 148.192 158.107 144.292 163.023 139.376C167.939 134.46 171.839 128.624 174.5 122.201C177.16 115.778 178.529 108.893 178.529 101.941C178.529 94.9888 177.16 88.1046 174.5 81.6815C171.839 75.2583 167.939 69.4221 163.023 64.5061C158.107 59.5901 152.271 55.6904 145.848 53.0299C139.425 50.3694 132.541 49 125.588 49C111.547 49 98.0816 54.5777 88.1532 64.5061C78.2248 74.4345 72.6471 87.9003 72.6471 101.941C72.6471 115.982 78.2248 129.448 88.1532 139.376C98.0816 149.305 111.547 154.882 125.588 154.882Z" fill="url(#paint3_radial_189_100)"/>
<path d="M165.294 181.353C175.825 181.353 185.924 177.17 193.37 169.723C200.817 162.277 205 152.178 205 141.647C205 131.116 200.817 121.017 193.37 113.571C185.924 106.124 175.825 101.941 165.294 101.941C154.763 101.941 144.664 106.124 137.218 113.571C129.772 121.017 125.588 131.116 125.588 141.647C125.588 152.178 129.772 162.277 137.218 169.723C144.664 177.17 154.763 181.353 165.294 181.353Z" fill="url(#paint4_linear_189_100)"/>
<path d="M165.294 181.353C175.825 181.353 185.924 177.17 193.37 169.723C200.817 162.277 205 152.178 205 141.647C205 131.116 200.817 121.017 193.37 113.571C185.924 106.124 175.825 101.941 165.294 101.941C154.763 101.941 144.664 106.124 137.218 113.571C129.772 121.017 125.588 131.116 125.588 141.647C125.588 152.178 129.772 162.277 137.218 169.723C144.664 177.17 154.763 181.353 165.294 181.353Z" fill="url(#paint5_radial_189_100)"/>
<path d="M165.294 181.353C175.825 181.353 185.924 177.17 193.37 169.723C200.817 162.277 205 152.178 205 141.647C205 131.116 200.817 121.017 193.37 113.571C185.924 106.124 175.825 101.941 165.294 101.941C154.763 101.941 144.664 106.124 137.218 113.571C129.772 121.017 125.588 131.116 125.588 141.647C125.588 152.178 129.772 162.277 137.218 169.723C144.664 177.17 154.763 181.353 165.294 181.353Z" fill="url(#paint6_radial_189_100)"/>
<path d="M125.588 207.824C134.949 207.824 143.926 204.105 150.545 197.486C157.164 190.867 160.882 181.89 160.882 172.529C160.882 163.169 157.164 154.192 150.545 147.573C143.926 140.954 134.949 137.235 125.588 137.235C116.228 137.235 107.25 140.954 100.631 147.573C94.0125 154.192 90.2941 163.169 90.2941 172.529C90.2941 181.89 94.0125 190.867 100.631 197.486C107.25 204.105 116.228 207.824 125.588 207.824Z" fill="url(#paint7_linear_189_100)"/>
<path d="M125.588 207.824C134.949 207.824 143.926 204.105 150.545 197.486C157.164 190.867 160.882 181.89 160.882 172.529C160.882 163.169 157.164 154.192 150.545 147.573C143.926 140.954 134.949 137.235 125.588 137.235C116.228 137.235 107.25 140.954 100.631 147.573C94.0125 154.192 90.2941 163.169 90.2941 172.529C90.2941 181.89 94.0125 190.867 100.631 197.486C107.25 204.105 116.228 207.824 125.588 207.824Z" fill="url(#paint8_linear_189_100)"/>
<path fill-rule="evenodd" clip-rule="evenodd" d="M134.412 103.891V179.403C134.413 179.659 134.363 179.913 134.266 180.151C134.168 180.388 134.025 180.603 133.843 180.784C133.662 180.966 133.446 181.109 133.209 181.207C132.972 181.304 132.718 181.354 132.462 181.353H56.95C56.6936 181.354 56.4395 181.304 56.2024 181.207C55.9653 181.109 55.7499 180.966 55.5686 180.784C55.3873 180.603 55.2437 180.388 55.1461 180.151C55.0485 179.913 54.9989 179.659 55 179.403V103.891C55 102.815 55.8735 101.941 56.95 101.941H132.462C133.538 101.941 134.412 102.815 134.412 103.891Z" fill="url(#paint9_radial_189_100)"/>
<path fill-rule="evenodd" clip-rule="evenodd" d="M134.412 103.891V179.403C134.413 179.659 134.363 179.913 134.266 180.151C134.168 180.388 134.025 180.603 133.843 180.784C133.662 180.966 133.446 181.109 133.209 181.207C132.972 181.304 132.718 181.354 132.462 181.353H56.95C56.6936 181.354 56.4395 181.304 56.2024 181.207C55.9653 181.109 55.7499 180.966 55.5686 180.784C55.3873 180.603 55.2437 180.388 55.1461 180.151C55.0485 179.913 54.9989 179.659 55 179.403V103.891C55 102.815 55.8735 101.941 56.95 101.941H132.462C133.538 101.941 134.412 102.815 134.412 103.891Z" fill="url(#paint10_radial_189_100)"/>
<path d="M78.0824 155.032L86.4471 150.665C87.3883 152.571 88.6177 153.976 90.1353 154.882C91.6765 155.782 93.3589 156.232 95.1824 156.232C97.2177 156.232 98.7647 155.821 99.8236 154.997C100.894 154.156 101.429 152.897 101.429 151.221C101.438 150.586 101.303 149.957 101.036 149.382C100.769 148.806 100.376 148.297 99.8853 147.894C98.8677 146.976 97.053 146.279 94.4412 145.803C89.4824 144.903 85.8736 143.324 83.6147 141.065C82.5125 139.962 81.6466 138.646 81.0701 137.197C80.4936 135.748 80.2186 134.197 80.2618 132.638C80.2618 128.456 81.7383 125.112 84.6912 122.606C87.6442 120.106 91.5412 118.856 96.3824 118.856C99.6471 118.856 102.518 119.524 104.994 120.859C107.471 122.188 109.441 124.094 110.906 126.576L102.718 130.794C101.988 129.578 100.989 128.546 99.7971 127.776C98.5975 127.104 97.2361 126.774 95.8618 126.824C93.9736 126.824 92.5383 127.232 91.5559 128.05C91.0851 128.437 90.7096 128.927 90.4587 129.483C90.2078 130.038 90.0881 130.644 90.1089 131.253C90.1089 132.382 90.5706 133.376 91.4942 134.235C92.4353 135.076 94.3206 135.765 97.15 136.3C101.903 137.2 105.45 138.841 107.791 141.224C110.15 143.576 111.329 146.559 111.329 150.171C111.329 154.559 109.927 158.035 107.121 160.6C104.309 163.165 100.3 164.447 95.0942 164.447C91.3177 164.447 87.9118 163.626 84.8765 161.985C81.9548 160.416 79.5838 157.99 78.0824 155.032Z" fill="white"/>
<linearGradient id="paint0_linear_189_100" x1="85.8824" y1="62.2353" x2="156.471" y2="154.882" gradientUnits="userSpaceOnUse">
<stop stop-color="#00E3DF"/>
<stop offset="0.41" stop-color="#0097A8"/>
<stop offset="1" stop-color="#007791"/>
</linearGradient>
<radialGradient id="paint1_radial_189_100" cx="0" cy="0" r="1" gradientUnits="userSpaceOnUse" gradientTransform="translate(141.78 169.527) rotate(-112.448) scale(81.2915 146.157)">
<stop stop-color="#003B5D" stop-opacity="0.2"/>
<stop offset="0.29" stop-color="#003B5D" stop-opacity="0.2"/>
<stop offset="0.61" stop-color="#004A6C" stop-opacity="0.14"/>
<stop offset="0.97" stop-color="#006F94" stop-opacity="0"/>
<stop offset="1" stop-color="#006F94" stop-opacity="0"/>
</radialGradient>
<radialGradient id="paint2_radial_189_100" cx="0" cy="0" r="1" gradientUnits="userSpaceOnUse" gradientTransform="translate(143.652 146.167) rotate(-112.063) scale(68.6113 123.208)">
<stop stop-color="#002A42" stop-opacity="0.31"/>
<stop offset="0.26" stop-color="#002A42" stop-opacity="0.31"/>
<stop offset="0.61" stop-color="#004261" stop-opacity="0.21"/>
<stop offset="0.97" stop-color="#006F94" stop-opacity="0"/>
<stop offset="1" stop-color="#006F94" stop-opacity="0"/>
</radialGradient>
<radialGradient id="paint3_radial_189_100" cx="0" cy="0" r="1" gradientUnits="userSpaceOnUse" gradientTransform="translate(155.796 54.6084) rotate(124.447) scale(57.4002)">
<stop stop-color="#78EDFF" stop-opacity="0.7"/>
<stop offset="1" stop-color="#2CCFCA" stop-opacity="0"/>
</radialGradient>
<linearGradient id="paint4_linear_189_100" x1="135.522" y1="111.877" x2="188.456" y2="181.364" gradientUnits="userSpaceOnUse">
<stop stop-color="#00E0D9"/>
<stop offset="0.48" stop-color="#009FB8"/>
<stop offset="0.95" stop-color="#056475"/>
<stop offset="1" stop-color="#056475"/>
</linearGradient>
<radialGradient id="paint5_radial_189_100" cx="0" cy="0" r="1" gradientUnits="userSpaceOnUse" gradientTransform="translate(142.548 174.732) rotate(-70.801) scale(49.0518 88.38)">
<stop stop-color="#004A5D" stop-opacity="0.5"/>
<stop offset="0.49" stop-color="#00556C" stop-opacity="0.34"/>
<stop offset="0.97" stop-color="#007A86" stop-opacity="0"/>
<stop offset="1" stop-color="#007A86" stop-opacity="0"/>
</radialGradient>
<radialGradient id="paint6_radial_189_100" cx="0" cy="0" r="1" gradientUnits="userSpaceOnUse" gradientTransform="translate(187.951 106.142) rotate(124.447) scale(43.0502)">
<stop stop-color="#78EDFF" stop-opacity="0.7"/>
<stop offset="1" stop-color="#2CCFCA" stop-opacity="0"/>
</radialGradient>
<linearGradient id="paint7_linear_189_100" x1="100.882" y1="140.765" x2="136.176" y2="211.353" gradientUnits="userSpaceOnUse">
<stop stop-color="#75FFF6"/>
<stop offset="0.05" stop-color="#75FFF6"/>
<stop offset="0.51" stop-color="#00C7D1"/>
<stop offset="0.96" stop-color="#0096AD"/>
<stop offset="1" stop-color="#0096AD"/>
</linearGradient>
<linearGradient id="paint8_linear_189_100" x1="160.723" y1="207.824" x2="141.863" y2="181.353" gradientUnits="userSpaceOnUse">
<stop stop-color="#0E5A5D" stop-opacity="0.32"/>
<stop offset="0.26" stop-color="#0E5A5D" stop-opacity="0.32"/>
<stop offset="0.54" stop-color="#126C6B" stop-opacity="0.22"/>
<stop offset="0.97" stop-color="#1C948A" stop-opacity="0"/>
<stop offset="1" stop-color="#1C948A" stop-opacity="0"/>
</linearGradient>
<radialGradient id="paint9_radial_189_100" cx="0" cy="0" r="1" gradientUnits="userSpaceOnUse" gradientTransform="translate(54.998 101.942) rotate(45) scale(112.305)">
<stop stop-color="#00B6BD"/>
<stop offset="0.06" stop-color="#00B6BD"/>
<stop offset="0.89" stop-color="#00495C"/>
<stop offset="1" stop-color="#00495C"/>
</radialGradient>
<radialGradient id="paint10_radial_189_100" cx="0" cy="0" r="1" gradientUnits="userSpaceOnUse" gradientTransform="translate(94.7059 149.588) rotate(90) scale(55.5882 63.2812)">
<stop stop-color="#1E8581" stop-opacity="0"/>
<stop offset="0.57" stop-color="#1E8581" stop-opacity="0"/>
<stop offset="0.97" stop-color="#1ECBE6" stop-opacity="0.6"/>
<stop offset="1" stop-color="#1ECBE6" stop-opacity="0.6"/>
</radialGradient>
</svg>