<svg width="256" height="256" title="Microsoft Teams" viewBox="0 0 256 256" fill="none" xmlns="http://www.w3.org/2000/svg" id="microsoftteams">
<style>
#microsoftteams {
    rect {fill: #15191C}

    @media (prefers-color-scheme: light) {
        rect {fill: #F4F2ED}
    }
}
</style>
<rect width="256" height="256" rx="40" fill="#15191C"/>
<path d="M161.577 108.302H205.488C209.637 108.302 213 111.665 213 115.814V155.811C213 171.058 200.64 183.419 185.393 183.419H185.262C170.015 183.421 157.653 171.062 157.651 155.815C157.651 155.814 157.651 155.813 157.651 155.811V112.228C157.651 110.06 159.409 108.302 161.577 108.302Z" fill="#5059C9"/>
<path d="M191.256 100.395C201.081 100.395 209.046 92.4302 209.046 82.6046C209.046 72.7791 201.081 64.8139 191.256 64.8139C181.43 64.8139 173.465 72.7791 173.465 82.6046C173.465 92.4302 181.43 100.395 191.256 100.395Z" fill="#5059C9"/>
<path d="M135.907 100.395C150.099 100.395 161.605 88.8902 161.605 74.6977C161.605 60.5053 150.099 49 135.907 49C121.714 49 110.209 60.5053 110.209 74.6977C110.209 88.8902 121.714 100.395 135.907 100.395Z" fill="#7B83EB"/>
<path d="M170.172 108.302H97.6885C93.5893 108.404 90.3466 111.806 90.4418 115.905V161.524C89.8693 186.124 109.331 206.538 133.93 207.14C158.529 206.538 177.991 186.124 177.419 161.524V115.905C177.514 111.806 174.271 108.404 170.172 108.302Z" fill="#7B83EB"/>
<path opacity="0.1" d="M137.884 108.302V172.23C137.864 175.162 136.088 177.795 133.377 178.912C132.514 179.277 131.586 179.465 130.649 179.465H93.921C93.407 178.16 92.9326 176.856 92.5372 175.512C91.1533 170.975 90.4472 166.259 90.4419 161.516V115.893C90.3468 111.8 93.5842 108.404 97.6767 108.302H137.884Z" fill="black"/>
<path opacity="0.2" d="M133.93 108.302V176.184C133.93 177.121 133.742 178.048 133.377 178.912C132.261 181.622 129.627 183.399 126.695 183.419H95.7791C95.107 182.114 94.4745 180.809 93.921 179.465C93.3675 178.121 92.9326 176.856 92.5372 175.512C91.1533 170.975 90.4472 166.259 90.4419 161.516V115.893C90.3468 111.8 93.5842 108.404 97.6767 108.302H133.93Z" fill="black"/>
<path opacity="0.2" d="M133.93 108.302V168.277C133.9 172.26 130.679 175.482 126.695 175.512H92.5372C91.1533 170.975 90.4472 166.259 90.4419 161.516V115.893C90.3468 111.8 93.5842 108.404 97.6767 108.302H133.93Z" fill="black"/>
<path opacity="0.2" d="M129.977 108.302V168.277C129.947 172.26 126.725 175.482 122.742 175.512H92.5372C91.1533 170.975 90.4472 166.259 90.4419 161.516V115.893C90.3468 111.8 93.5842 108.404 97.6767 108.302H129.977Z" fill="black"/>
<path opacity="0.1" d="M137.884 87.8628V100.316C137.212 100.356 136.579 100.395 135.907 100.395C135.235 100.395 134.602 100.356 133.93 100.316C132.596 100.228 131.272 100.016 129.977 99.6838C121.971 97.7878 115.357 92.1732 112.186 84.5815C111.64 83.3065 111.217 81.9828 110.921 80.628H130.649C134.638 80.6431 137.869 83.8733 137.884 87.8628Z" fill="black"/>
<path opacity="0.2" d="M133.93 91.8163V100.316C132.596 100.228 131.272 100.016 129.977 99.6838C121.971 97.7879 115.357 92.1732 112.186 84.5815H126.695C130.685 84.5966 133.915 87.8269 133.93 91.8163Z" fill="black"/>
<path opacity="0.2" d="M133.93 91.8163V100.316C132.596 100.228 131.272 100.016 129.977 99.6838C121.971 97.7879 115.357 92.1732 112.186 84.5815H126.695C130.685 84.5966 133.915 87.8269 133.93 91.8163Z" fill="black"/>
<path opacity="0.2" d="M129.977 91.8163V99.6837C121.971 97.7878 115.357 92.1732 112.186 84.5814H122.742C126.731 84.5966 129.962 87.8269 129.977 91.8163Z" fill="black"/>
<path d="M50.2467 84.5814H122.73C126.732 84.5814 129.977 87.8259 129.977 91.8281V164.311C129.977 168.314 126.732 171.558 122.73 171.558H50.2467C46.2444 171.558 43 168.314 43 164.311V91.8281C43 87.8259 46.2445 84.5814 50.2467 84.5814Z" fill="url(#linearGradient)"/>
<path d="M105.56 112.169H91.0704V151.625H81.8391V112.169H67.4167V104.515H105.56V112.169Z" fill="white"/>
<linearGradient id="linearGradient" x1="58.1096" y1="78.919" x2="114.867" y2="177.221" gradientUnits="userSpaceOnUse">
<stop stop-color="#5A62C3"/>
<stop offset="0.5" stop-color="#4D55BD"/>
<stop offset="1" stop-color="#3940AB"/>
</linearGradient>
</svg>