<svg viewBox="0 0 256 256" xmlns="http://www.w3.org/2000/svg" xml:space="preserve" style="fill-rule:evenodd;clip-rule:evenodd;stroke-linejoin:round;stroke-miterlimit:2"><path d="M256 40v176c0 22.077-17.923 40-40 40H40c-22.077 0-40-17.923-40-40V40C0 17.923 17.923 0 40 0h176c22.077 0 40 17.923 40 40" style="fill:#15191c"/><path d="M30.932 9.343 7.976 23.894 6.002 20.78v-2.684c0-.977.494-1.888 1.314-2.42l13.345-8.659a6.14 6.14 0 0 1 6.685 0z" style="fill:url(#a);fill-rule:nonzero" transform="translate(33.381 29.203)scale(4.11386)"/><path d="M27.14 6.889q.104.062.206.128l10.414 6.755-25.822 16.369-3.963-6.252 18.951-12.036c1.795-1.14 1.874-3.704.214-4.964" style="fill:url(#b);fill-rule:nonzero" transform="translate(33.381 29.203)scale(4.11386)"/><path d="M27.14 6.889q.104.062.206.128l10.414 6.755-25.822 16.369-3.963-6.252 18.951-12.036c1.795-1.14 1.874-3.704.214-4.964" style="fill:url(#c);fill-rule:nonzero" transform="translate(33.381 29.203)scale(4.11386)"/><path d="m22.24 33.266-10.302-3.125 21.904-13.885c1.845-1.17 1.84-3.863-.009-5.026l-.099-.062.285.177 6.666 4.324A2.89 2.89 0 0 1 42 18.09v2.597z" style="fill:url(#d);fill-rule:nonzero" transform="translate(33.381 29.203)scale(4.11386)"/><path d="m22.24 33.266-10.302-3.125 21.904-13.885c1.845-1.17 1.84-3.863-.009-5.026l-.099-.062.285.177 6.666 4.324A2.89 2.89 0 0 1 42 18.09v2.597z" style="fill:url(#e);fill-rule:nonzero" transform="translate(33.381 29.203)scale(4.11386)"/><path d="M27.346 7.017a6.14 6.14 0 0 0-6.685 0L7.316 15.676a2.88 2.88 0 0 0-1.314 2.42v.131a2.97 2.97 0 0 0 1.382 2.411l16.593 10.461 16.634-10.445a2.97 2.97 0 0 0 1.388-2.511v2.544-2.597c0-.978-.494-1.889-1.314-2.42z" style="fill:url(#f);fill-rule:nonzero" transform="translate(33.381 29.203)scale(4.11386)"/><path d="M21.051 42.004h14.697a6.25 6.25 0 0 0 6.25-6.25V18.143c0 1.02-.524 1.968-1.388 2.511L18.75 34.38a4.04 4.04 0 0 0-1.895 3.427 4.197 4.197 0 0 0 4.196 4.197" style="fill:url(#g);fill-rule:nonzero" transform="translate(33.381 29.203)scale(4.11386)"/><path d="M21.051 42.004h14.697a6.25 6.25 0 0 0 6.25-6.25V18.143c0 1.02-.524 1.968-1.388 2.511L18.75 34.38a4.04 4.04 0 0 0-1.895 3.427 4.197 4.197 0 0 0 4.196 4.197" style="fill:url(#h);fill-rule:nonzero" transform="translate(33.381 29.203)scale(4.11386)"/><path d="M21.051 42.004h14.697a6.25 6.25 0 0 0 6.25-6.25V18.143c0 1.02-.524 1.968-1.388 2.511L18.75 34.38a4.04 4.04 0 0 0-1.895 3.427 4.197 4.197 0 0 0 4.196 4.197" style="fill:url(#i);fill-rule:nonzero" transform="translate(33.381 29.203)scale(4.11386)"/><path d="M27.027 42.002H12.249a6.25 6.25 0 0 1-6.25-6.25V18.13c0 1.018.523 1.965 1.384 2.508l21.839 13.768a4.116 4.116 0 0 1-2.195 7.596" style="fill:url(#j);fill-rule:nonzero" transform="translate(33.381 29.203)scale(4.11386)"/><path d="M27.027 42.002H12.249a6.25 6.25 0 0 1-6.25-6.25V18.13c0 1.018.523 1.965 1.384 2.508l21.839 13.768a4.116 4.116 0 0 1-2.195 7.596" style="fill:url(#k);fill-rule:nonzero" transform="translate(33.381 29.203)scale(4.11386)"/><path d="M20 23.79v14.42a.79.79 0 0 1-.79.79H4.79a.79.79 0 0 1-.79-.79V23.79a.79.79 0 0 1 .79-.79h14.42a.79.79 0 0 1 .79.79" style="fill:url(#l)" transform="translate(33.381 29.203)scale(4.11386)"/><path d="M20 23.79v14.42a.79.79 0 0 1-.79.79H4.79a.79.79 0 0 1-.79-.79V23.79a.79.79 0 0 1 .79-.79h14.42a.79.79 0 0 1 .79.79" style="fill:url(#m)" transform="translate(33.381 29.203)scale(4.11386)"/><path d="M11.955 35.723q-1.977 0-3.246-1.275T7.44 31.119q0-2.168 1.289-3.507 1.287-1.34 3.373-1.339 1.97 0 3.208 1.282 1.243 1.282 1.243 3.379 0 2.156-1.288 3.476-1.282 1.313-3.31 1.313m.039-1.804q1.077 0 1.734-.759.657-.76.657-2.111 0-1.409-.638-2.194-.637-.783-1.702-.784-1.097 0-1.767.81-.669.804-.669 2.13 0 1.346.669 2.13.67.778 1.716.778" style="fill:#fff;fill-rule:nonzero" transform="translate(33.381 29.203)scale(4.11386)"/><defs><linearGradient id="a" x1="0" y1="0" x2="1" y2="0" gradientUnits="userSpaceOnUse" gradientTransform="rotate(-31.809 44.24 -6.346)scale(24.6446)"><stop offset="0" style="stop-color:#20a7fa;stop-opacity:1"/><stop offset=".4" style="stop-color:#3bd5ff;stop-opacity:1"/><stop offset="1" style="stop-color:#c4b0ff;stop-opacity:1"/></linearGradient><linearGradient id="b" x1="0" y1="0" x2="1" y2="0" gradientUnits="userSpaceOnUse" gradientTransform="rotate(-58.014 32.76 -2.11)scale(22.0103)"><stop offset="0" style="stop-color:#165ad9;stop-opacity:1"/><stop offset=".5" style="stop-color:#1880e5;stop-opacity:1"/><stop offset="1" style="stop-color:#8587ff;stop-opacity:1"/></linearGradient><linearGradient id="c" x1="0" y1="0" x2="1" y2="0" gradientUnits="userSpaceOnUse" gradientTransform="rotate(219.174 17.662 8.952)scale(16.6971)"><stop offset="0" style="stop-color:#448aff;stop-opacity:0"/><stop offset=".24" style="stop-color:#448aff;stop-opacity:0"/><stop offset=".79" style="stop-color:#0032b1;stop-opacity:.2"/><stop offset="1" style="stop-color:#0032b1;stop-opacity:.2"/></linearGradient><linearGradient id="d" x1="0" y1="0" x2="1" y2="0" gradientUnits="userSpaceOnUse" gradientTransform="rotate(-32.62 65.187 -25.548)scale(24.2873)"><stop offset="0" style="stop-color:#1a43a6;stop-opacity:1"/><stop offset=".49" style="stop-color:#2052cb;stop-opacity:1"/><stop offset="1" style="stop-color:#5f20cb;stop-opacity:1"/></linearGradient><linearGradient id="e" x1="0" y1="0" x2="1" y2="0" gradientUnits="userSpaceOnUse" gradientTransform="rotate(220.87 20.564 9.607)scale(16.4384)"><stop offset="0" style="stop-color:#0045b9;stop-opacity:0"/><stop offset=".67" style="stop-color:#0d1f69;stop-opacity:.2"/><stop offset="1" style="stop-color:#0d1f69;stop-opacity:.2"/></linearGradient><linearGradient id="g" x1="0" y1="0" x2="1" y2="0" gradientUnits="userSpaceOnUse" gradientTransform="translate(41.998 29.943)scale(-18.1463)"><stop offset="0" style="stop-color:#4dc4ff;stop-opacity:1"/><stop offset=".2" style="stop-color:#0fafff;stop-opacity:1"/><stop offset="1" style="stop-color:#0fafff;stop-opacity:1"/></linearGradient><linearGradient id="k" x1="0" y1="0" x2="1" y2="0" gradientUnits="userSpaceOnUse" gradientTransform="rotate(-.041 52516.489 -4775.41)scale(17.4715)"><stop offset="0" style="stop-color:#6ce0ff;stop-opacity:1"/><stop offset=".21" style="stop-color:#6ce0ff;stop-opacity:1"/><stop offset=".54" style="stop-color:#50d5ff;stop-opacity:0"/><stop offset="1" style="stop-color:#50d5ff;stop-opacity:0"/></linearGradient><radialGradient id="f" cx="0" cy="0" r="1" gradientUnits="userSpaceOnUse" gradientTransform="matrix(0 -27.0027 29.2262 0 24.002 6.818)"><stop offset="0" style="stop-color:#275ff0;stop-opacity:0"/><stop offset=".57" style="stop-color:#275ff0;stop-opacity:0"/><stop offset=".99" style="stop-color:#002177;stop-opacity:1"/><stop offset="1" style="stop-color:#002177;stop-opacity:1"/></radialGradient><radialGradient id="h" cx="0" cy="0" r="1" gradientUnits="userSpaceOnUse" gradientTransform="rotate(-45 59.81 -14.955)scale(11.572)"><stop offset="0" style="stop-color:#0060d1;stop-opacity:.4"/><stop offset=".26" style="stop-color:#0060d1;stop-opacity:.4"/><stop offset=".91" style="stop-color:#0383f1;stop-opacity:0"/><stop offset="1" style="stop-color:#0383f1;stop-opacity:0"/></radialGradient><radialGradient id="i" cx="0" cy="0" r="1" gradientUnits="userSpaceOnUse" gradientTransform="matrix(23.8272 -31.2298 21.958 29.779 10.631 46.472)"><stop offset="0" style="stop-color:#f4a7f7;stop-opacity:0"/><stop offset=".73" style="stop-color:#f4a7f7;stop-opacity:0"/><stop offset="1" style="stop-color:#f4a7f7;stop-opacity:.5"/></radialGradient><radialGradient id="j" cx="0" cy="0" r="1" gradientUnits="userSpaceOnUse" gradientTransform="rotate(123.339 1.864 18.772)scale(20.7258 53.7859)"><stop offset="0" style="stop-color:#49deff;stop-opacity:1"/><stop offset=".72" style="stop-color:#29c3ff;stop-opacity:1"/><stop offset="1" style="stop-color:#29c3ff;stop-opacity:1"/></radialGradient><radialGradient id="l" cx="0" cy="0" r="1" gradientUnits="userSpaceOnUse" gradientTransform="rotate(46.924 -25.234 16.35)scale(21.0618)"><stop offset="0" style="stop-color:#0091ff;stop-opacity:1"/><stop offset=".04" style="stop-color:#0091ff;stop-opacity:1"/><stop offset=".92" style="stop-color:#183dad;stop-opacity:1"/><stop offset="1" style="stop-color:#183dad;stop-opacity:1"/></radialGradient><radialGradient id="m" cx="0" cy="0" r="1" gradientUnits="userSpaceOnUse" gradientTransform="matrix(0 11.2 -12.9188 0 12 32.744)"><stop offset="0" style="stop-color:#0fa5f7;stop-opacity:0"/><stop offset=".56" style="stop-color:#0fa5f7;stop-opacity:0"/><stop offset="1" style="stop-color:#74c6ff;stop-opacity:.5"/></radialGradient></defs></svg>