<svg viewBox="0 0 256 256" xmlns="http://www.w3.org/2000/svg" xml:space="preserve" style="fill-rule:evenodd;clip-rule:evenodd;stroke-linejoin:round;stroke-miterlimit:2"><path d="M256 40v176c0 22.077-17.923 40-40 40H40c-22.077 0-40-17.923-40-40V40C0 17.923 17.923 0 40 0h176c22.077 0 40 17.923 40 40" style="fill:#15191c"/><path d="M3 14.75C3 11.596 5.596 9 8.75 9H21v12.167C21 22.179 20.18 23 19.167 23H6.688A3.706 3.706 0 0 1 3 19.312z" style="fill:url(#a);fill-rule:nonzero" transform="translate(51 40)scale(7.33333)"/><path d="M3 14.75C3 11.596 5.596 9 8.75 9H21v12.167C21 22.179 20.18 23 19.167 23H6.688A3.706 3.706 0 0 1 3 19.312z" style="fill:url(#b);fill-rule:nonzero" transform="translate(51 40)scale(7.33333)"/><path d="M3 4.688A3.706 3.706 0 0 1 6.688 1H19c1.097 0 2 .903 2 2v7c0 1.097-.903 2-2 2H6.688A3.715 3.715 0 0 0 3 15.7z" style="fill:url(#c);fill-rule:nonzero" transform="translate(51 40)scale(7.33333)"/><path d="M3 4.688A3.706 3.706 0 0 1 6.688 1H19c1.097 0 2 .903 2 2v7c0 1.097-.903 2-2 2H6.688A3.715 3.715 0 0 0 3 15.7z" style="fill:url(#d);fill-rule:nonzero" transform="translate(51 40)scale(7.33333)"/><path d="M15.5 10c1.92 0 3.5-1.58 3.5-3.5S17.42 3 15.5 3 12 4.58 12 6.5s1.58 3.5 3.5 3.5" style="fill:url(#e);fill-rule:nonzero" transform="translate(51 40)scale(7.33333)"/><path d="M15.5 8.5c1.097 0 2-.903 2-2s-.903-2-2-2-2 .903-2 2 .903 2 2 2" style="fill:url(#f);fill-rule:nonzero" transform="translate(51 40)scale(7.33333)"/><path d="M17.5 15h-4c-.274 0-.5.226-.5.5v4c0 .274.226.5.5.5h4c.274 0 .5-.226.5-.5v-4c0-.274-.226-.5-.5-.5" style="fill:url(#g);fill-rule:nonzero" transform="translate(51 40)scale(7.33333)"/><path d="M10 11.307v9.386c0 .17-.137.307-.307.307H.307A.306.306 0 0 1 0 20.693v-9.386c0-.17.137-.307.307-.307h9.386c.17 0 .307.137.307.307" style="fill:url(#h)" transform="translate(51 40)scale(7.33333)"/><path d="M10 11.307v9.386c0 .17-.137.307-.307.307H.307A.306.306 0 0 1 0 20.693v-9.386c0-.17.137-.307.307-.307h9.386c.17 0 .307.137.307.307" style="fill:url(#i)" transform="translate(51 40)scale(7.33333)"/><path d="M6.73 14.121H4.618v1.444h1.941v1.113H4.618V19H3.27v-6h3.46z" style="fill:#fff;fill-rule:nonzero" transform="translate(51 40)scale(7.33333)"/><defs><linearGradient id="c" x1="0" y1="0" x2="1" y2="0" gradientUnits="userSpaceOnUse" gradientTransform="rotate(-29.549 20.502 -1.497)scale(19.762)"><stop offset="0" style="stop-color:#15b4d5;stop-opacity:1"/><stop offset=".23" style="stop-color:#15b4d5;stop-opacity:1"/><stop offset="1" style="stop-color:#43e5ca;stop-opacity:1"/></linearGradient><linearGradient id="d" x1="0" y1="0" x2="1" y2="0" gradientUnits="userSpaceOnUse" gradientTransform="translate(7.959 6.129)scale(-4.959)"><stop offset="0" style="stop-color:#29cbdc;stop-opacity:0"/><stop offset=".18" style="stop-color:#29cbdc;stop-opacity:0"/><stop offset="1" style="stop-color:#36dff1;stop-opacity:1"/></linearGradient><linearGradient id="e" x1="0" y1="0" x2="1" y2="0" gradientUnits="userSpaceOnUse" gradientTransform="rotate(55 3.16 14.156)scale(8)"><stop offset="0" style="stop-color:#119fc5;stop-opacity:1"/><stop offset="1" style="stop-color:#22918b;stop-opacity:1"/></linearGradient><linearGradient id="f" x1="0" y1="0" x2="1" y2="0" gradientUnits="userSpaceOnUse" gradientTransform="rotate(55.3 2.468 15.823)scale(4.518)"><stop offset="0" style="stop-color:#06517b;stop-opacity:1"/><stop offset="1" style="stop-color:#1a7f7c;stop-opacity:1"/></linearGradient><linearGradient id="g" x1="0" y1="0" x2="1" y2="0" gradientUnits="userSpaceOnUse" gradientTransform="rotate(55.3 -7.8 20.767)scale(5.647)"><stop offset="0" style="stop-color:#119fc5;stop-opacity:1"/><stop offset="1" style="stop-color:#20ac9d;stop-opacity:1"/></linearGradient><radialGradient id="a" cx="0" cy="0" r="1" gradientUnits="userSpaceOnUse" gradientTransform="matrix(-11.0001 -18.9999 16.6989 -9.66792 17 25.5)"><stop offset="0" style="stop-color:#1a7f7c;stop-opacity:1"/><stop offset=".01" style="stop-color:#1a7f7c;stop-opacity:1"/><stop offset=".45" style="stop-color:#14717c;stop-opacity:1"/><stop offset=".8" style="stop-color:#08567b;stop-opacity:1"/><stop offset="1" style="stop-color:#08567b;stop-opacity:1"/></radialGradient><radialGradient id="b" cx="0" cy="0" r="1" gradientUnits="userSpaceOnUse" gradientTransform="matrix(-7.1875 -7.1875 5.56524 -5.56296 8.5 11.5)"><stop offset="0" style="stop-color:#06517b;stop-opacity:.8"/><stop offset=".99" style="stop-color:#06517b;stop-opacity:0"/><stop offset="1" style="stop-color:#06517b;stop-opacity:0"/></radialGradient><radialGradient id="h" cx="0" cy="0" r="1" gradientUnits="userSpaceOnUse" gradientTransform="rotate(45 -13.278 5.5)scale(14.1421)"><stop offset="0" style="stop-color:#009bbc;stop-opacity:1"/><stop offset=".06" style="stop-color:#009bbc;stop-opacity:1"/><stop offset=".59" style="stop-color:#01657d;stop-opacity:1"/><stop offset=".94" style="stop-color:#014354;stop-opacity:1"/><stop offset="1" style="stop-color:#014354;stop-opacity:1"/></radialGradient><radialGradient id="i" cx="0" cy="0" r="1" gradientUnits="userSpaceOnUse" gradientTransform="matrix(0 7 -7.96875 0 5 17)"><stop offset="0" style="stop-color:#1e8581;stop-opacity:0"/><stop offset=".57" style="stop-color:#1e8581;stop-opacity:0"/><stop offset=".97" style="stop-color:#1ecbe6;stop-opacity:.6"/><stop offset="1" style="stop-color:#1ecbe6;stop-opacity:.6"/></radialGradient></defs></svg>