<svg viewBox="0 0 256 256" xmlns="http://www.w3.org/2000/svg" xml:space="preserve" style="fill-rule:evenodd;clip-rule:evenodd;stroke-linejoin:round;stroke-miterlimit:2"><path d="M256 40v176c0 22.077-17.923 40-40 40H40c-22.077 0-40-17.923-40-40V40C0 17.923 17.923 0 40 0h176c22.077 0 40 17.923 40 40" style="fill:#15191c"/><path d="M11.958 11.683c.037 0 .074-.099.074-.238V7.577c0-.853.66-1.759 1.585-2.034a669 669 0 0 0-.811-2.646C12.632 2.335 12.132 1 11.521 1l-.015.001q-.068.014-.134.129c-.32.583-.463 3.015-.463 4.837V8.23c.275.971.912 3.217.961 3.353 0 0 .05.1.088.1" style="fill:url(#a);fill-rule:nonzero" transform="translate(38.368 38.36)scale(9.95991)"/><path d="M11.958 11.683c.037 0 .074-.099.074-.238V7.577c0-.853.66-1.759 1.585-2.034a669 669 0 0 0-.811-2.646C12.632 2.335 12.132 1 11.521 1l-.015.001q-.068.014-.134.129c-.32.583-.463 3.015-.463 4.837V8.23c.275.971.912 3.217.961 3.353 0 0 .05.1.088.1" style="fill:url(#b);fill-rule:nonzero" transform="translate(38.368 38.36)scale(9.95991)"/><path d="M16.015 5.456h-1.807c-1.214 0-2.175 1.085-2.175 2.109v3.867c0 .139-.037.239-.074.239-.038 0-.088-.1-.088-.1s.075.212.175.212h1.979c.617 0 2.476-.611 2.476-2.521V6.007c0-.414-.237-.551-.486-.551" style="fill:url(#c);fill-rule:nonzero" transform="translate(38.368 38.36)scale(9.95991)"/><path d="M2.336 17h5.379c2.347 0 3.195-2.034 3.195-3.807V5.967c0-2.084.188-4.967.612-4.967H8.296c-.768 0-1.429.824-2.178 2.484S1.761 15.356 1.6 15.839c-.262.787-.025 1.161.736 1.161" style="fill:url(#d);fill-rule:nonzero" transform="translate(38.368 38.36)scale(9.95991)"/><defs><linearGradient id="a" x1="0" y1="0" x2="1" y2="0" gradientUnits="userSpaceOnUse" gradientTransform="translate(10.91 6.342)scale(2.7082)"><stop offset="0" style="stop-color:#302ec9;stop-opacity:1"/><stop offset=".12" style="stop-color:#151698;stop-opacity:1"/><stop offset=".25" style="stop-color:#0a0b7e;stop-opacity:1"/><stop offset=".43" style="stop-color:#090c7f;stop-opacity:1"/><stop offset=".51" style="stop-color:#141698;stop-opacity:1"/><stop offset=".61" style="stop-color:#282ac4;stop-opacity:1"/><stop offset=".77" style="stop-color:#8e8ff4;stop-opacity:1"/><stop offset=".85" style="stop-color:#a7a6f7;stop-opacity:1"/><stop offset=".91" style="stop-color:#cacafb;stop-opacity:1"/><stop offset="1" style="stop-color:#fff;stop-opacity:1"/></linearGradient><linearGradient id="b" x1="0" y1="0" x2="1" y2="0" gradientUnits="userSpaceOnUse" gradientTransform="rotate(-90 11.973 -.29)scale(9.91775)"><stop offset="0" style="stop-color:#201ba6;stop-opacity:1"/><stop offset=".02" style="stop-color:#201ba6;stop-opacity:1"/><stop offset=".64" style="stop-color:#2d29c7;stop-opacity:1"/><stop offset="1" style="stop-color:#201ba6;stop-opacity:1"/></linearGradient><linearGradient id="c" x1="0" y1="0" x2="1" y2="0" gradientUnits="userSpaceOnUse" gradientTransform="rotate(-90 12.958 -1.228)scale(6.20442)"><stop offset="0" style="stop-color:#3530c3;stop-opacity:1"/><stop offset=".5" style="stop-color:#6d71d1;stop-opacity:1"/><stop offset=".97" style="stop-color:#c0bff5;stop-opacity:1"/><stop offset="1" style="stop-color:#e3e4ff;stop-opacity:1"/></linearGradient><linearGradient id="d" x1="0" y1="0" x2="1" y2="0" gradientUnits="userSpaceOnUse" gradientTransform="rotate(-90 11.313 5.671)scale(16.1541)"><stop offset="0" style="stop-color:#302ec9;stop-opacity:1"/><stop offset=".45" style="stop-color:#302ec9;stop-opacity:1"/><stop offset=".95" style="stop-color:#cacafb;stop-opacity:1"/><stop offset="1" style="stop-color:#7f7eaf;stop-opacity:1"/></linearGradient></defs></svg>