<svg width="256" height="256" title="MongoDB" viewBox="0 0 256 256" fill="none" xmlns="http://www.w3.org/2000/svg">
<rect width="256" height="256" rx="40" fill="#023430"/>
<path d="M169.486 108.361C159.51 64.3498 138.717 52.6336 133.412 44.3514C131.225 40.7029 129.287 36.9104 127.613 33C127.333 36.9097 126.818 39.3729 123.494 42.3378C116.822 48.2872 88.4824 71.3809 86.0974 121.386C83.8753 168.011 120.373 196.76 125.195 199.732C128.903 201.557 133.418 199.771 135.621 198.096C153.215 186.022 177.253 153.831 169.505 108.361" fill="#10AA50"/>
<path d="M129.124 174.905C128.206 186.445 127.548 193.151 125.215 199.746C125.215 199.746 126.746 210.732 127.821 222.37H131.627C132.535 214.175 133.92 206.039 135.778 198.005C130.851 195.581 129.314 185.032 129.124 174.905Z" fill="#B8C4C2"/>
<path d="M135.771 198.012C130.792 195.712 129.352 184.94 129.131 174.905C130.361 158.351 130.72 141.744 130.206 125.153C129.945 116.448 130.329 44.5208 128.062 33.9905C129.613 37.5571 131.4 41.0162 133.412 44.3449C138.716 52.6336 159.516 64.3498 169.486 108.361C177.253 153.753 153.345 185.859 135.771 198.012Z" fill="#12924F"/>
</svg>