<svg width="256" height="256" title="Neo4j" viewBox="0 0 256 256" fill="none" xmlns="http://www.w3.org/2000/svg" id="neo4j">
<style>
#neo4j {
    rect {fill: #15191C}
    path.neo4j {fill: #F1F1F1}

    @media (prefers-color-scheme: light) {
        rect {fill: #F4F2ED}
        path.neo4j {fill: #212121}
    }
}
</style>
<rect width="256" height="256" rx="40" fill="#15191C"/>
<path d="M89.5815 129.142C89.5815 118.319 97.5743 110.365 108.872 110.365C120.17 110.365 128.043 118.319 128.043 129.142V131.684H96.8231C97.8447 138.053 102.622 141.581 108.872 141.581C113.53 141.581 116.775 140.146 118.878 137.036H126.51C123.746 143.674 117.226 147.95 108.872 147.95C97.5443 147.92 89.5815 139.996 89.5815 129.142ZM120.771 125.555C119.389 119.844 114.671 116.734 108.872 116.734C103.073 116.734 98.4156 119.903 97.0334 125.555H120.771Z" class="neo4j" fill="#F1F1F1"/>
<path d="M131.739 129.142C131.739 118.319 139.732 110.365 151.03 110.365C162.328 110.365 170.321 118.319 170.321 129.142C170.321 139.966 162.328 147.92 151.03 147.92C139.732 147.92 131.739 139.996 131.739 129.142ZM163.349 129.142C163.349 121.907 158.421 116.734 151 116.734C143.578 116.734 138.65 121.937 138.65 129.142C138.65 136.348 143.578 141.551 151 141.551C158.421 141.551 163.349 136.378 163.349 129.142Z" class="neo4j" fill="#F1F1F1"/>
<path d="M209.743 154.08H210.555C214.972 154.08 216.654 152.136 216.654 147.083V111.561H223.535V146.634C223.535 155.455 220.05 160 211.186 160H209.743V154.08Z" class="neo4j" fill="#F1F1F1"/>
<path d="M206.288 150.432H199.407V141.97H181.919C178.433 141.97 175.398 140.266 174.016 137.544C172.724 134.973 173.085 131.953 174.948 129.412L190.663 108.9C192.917 105.88 196.733 104.654 200.338 105.85C203.945 107.047 206.288 110.245 206.288 114.013V135.87H211.456V141.97H206.288V150.432ZM180.748 133.149C180.537 133.419 180.416 133.777 180.416 134.166C180.416 135.123 181.198 135.9 182.16 135.9H199.437V113.863C199.437 112.727 198.595 112.309 198.235 112.19C198.085 112.159 197.874 112.099 197.604 112.099C197.183 112.099 196.673 112.249 196.222 112.817L180.748 133.149Z" class="neo4j" fill="#F1F1F1"/>
<path d="M68.127 110.365C57.52 110.365 50.4287 116.494 50.4287 128.425V136.916C51.4804 136.408 52.6222 136.139 53.8542 136.139C55.0861 136.139 56.258 136.438 57.3097 136.946V128.425C57.3097 120.71 61.5765 116.734 68.127 116.734C74.6774 116.734 78.9442 120.71 78.9442 128.425V146.993H85.8252V128.425C85.8252 116.435 78.7038 110.365 68.127 110.365Z" class="neo4j" fill="#F1F1F1"/>
<path d="M34.1133 129.471C33.2119 129.92 32.3705 130.667 31.7696 131.655C31.1687 132.641 30.9282 133.687 31.0184 134.734C31.1086 136.618 32.1602 138.352 33.873 139.309C35.4655 140.205 37.2684 139.996 38.9811 139.607C41.0844 139.069 42.8873 138.86 44.7804 139.996C44.7804 139.996 44.7804 139.996 44.8705 139.996C48.1157 141.88 48.1157 146.604 44.8705 148.488C44.8705 148.488 44.8705 148.488 44.7804 148.488C42.8873 149.625 41.0844 149.385 38.9811 148.877C37.3285 148.428 35.5256 148.189 33.873 149.175C32.1302 150.163 31.1687 151.957 31.0184 153.75C30.9282 154.797 31.1687 155.843 31.7696 156.83C32.3705 157.817 33.1218 158.565 34.1133 159.013C35.766 159.85 37.8092 159.85 39.522 158.863C41.1145 157.966 41.8657 156.232 42.3164 154.588C42.9174 152.495 43.6085 150.82 45.5616 149.774C47.4546 148.638 49.2575 148.877 51.3609 149.385C53.0135 149.834 54.8164 150.073 56.469 149.086C58.2118 148.1 59.1733 146.305 59.3235 144.511C59.3235 144.362 59.3235 144.272 59.3235 144.123C59.3235 143.973 59.3235 143.884 59.3235 143.734C59.2334 141.85 58.1818 140.116 56.469 139.159C54.8765 138.262 53.0736 138.471 51.3609 138.86C49.2575 139.398 47.4546 139.607 45.5616 138.471C43.6686 137.335 42.9174 135.751 42.3164 133.657C41.8657 132.013 41.1145 130.339 39.522 129.382C37.7792 128.664 35.766 128.664 34.1133 129.471Z" fill="#8FE3E8"/>
<path d="M220.11 97C216.865 97 214.221 99.6312 214.221 102.86C214.221 106.09 216.865 108.72 220.11 108.72C223.355 108.72 226 106.09 226 102.86C226 99.6312 223.355 97 220.11 97Z" fill="#8FE3E8"/>
</svg>