<svg width="256" height="256" title="Neo4j" viewBox="0 0 256 256" fill="none" xmlns="http://www.w3.org/2000/svg" id="neo4j">
<style>
#neo4j {
    rect {fill: #15191C}
    path.n {fill: #F4F2ED}

    @media (prefers-color-scheme: light) {
        rect {fill: #F4F2ED}
        path.n {fill: #15191C}
    }
}
</style>
<rect width="256" height="256" rx="40" fill="#15191C"/>
<path d="M155.965 58C125.977 58 105.929 75.4147 105.929 109.31V133.435C108.903 131.991 112.131 131.227 115.614 131.227C119.097 131.227 122.41 132.076 125.383 133.52V109.31C125.383 87.3926 137.446 76.0943 155.965 76.0943C174.484 76.0943 186.547 87.3926 186.547 109.31V162.063H206V109.31C206 75.2448 185.867 58 155.965 58Z" class="n" fill="#F4F2ED"/>
<path d="M59.8017 112.283C57.2532 113.557 54.8746 115.681 53.1757 118.484C51.4767 121.287 50.7971 124.261 51.0519 127.234C51.3068 132.586 54.28 137.513 59.1221 140.231C63.6245 142.78 68.7214 142.185 73.5636 141.081C79.51 139.552 84.607 138.957 89.9588 142.185C89.9588 142.185 89.9588 142.185 90.2137 142.185C99.3882 147.537 99.3882 160.959 90.2137 166.311C90.2137 166.311 90.2137 166.311 89.9588 166.311C84.607 169.539 79.51 168.859 73.5636 167.415C68.8913 166.141 63.7944 165.461 59.1221 168.265C54.195 171.068 51.4767 176.165 51.0519 181.262C50.7971 184.235 51.4767 187.208 53.1757 190.012C54.8746 192.815 56.9984 194.939 59.8017 196.213C64.474 198.592 70.2505 198.592 75.0927 195.788C79.595 193.24 81.7187 188.313 82.993 183.64C84.692 177.694 86.6458 172.937 92.1675 169.964C97.5194 166.735 102.616 167.415 108.563 168.859C113.235 170.133 118.332 170.813 123.004 168.01C127.931 165.206 130.65 160.109 131.074 155.012C131.074 154.588 131.074 154.333 131.074 153.908C131.074 153.483 131.074 153.228 131.074 152.804C130.82 147.452 127.846 142.525 123.004 139.806C118.502 137.258 113.405 137.853 108.563 138.957C102.616 140.486 97.5194 141.081 92.1675 137.853C86.8157 134.625 84.692 130.122 82.993 124.176C81.7187 119.504 79.595 114.746 75.0927 112.028C70.1656 109.989 64.474 109.989 59.8017 112.283Z" fill="#014063"/>
</svg>