<svg width="256" height="256" title="Neocities" viewBox="0 0 256 256" fill="none" xmlns="http://www.w3.org/2000/svg" id="neocities">
<style>
#neocities {
    rect {fill: #15191C}

    @media (prefers-color-scheme: light) {
        rect {fill: #F4F2ED}
    }
}
</style>
<rect width="256" height="256" rx="40" fill="#15191C"/>
<path d="M219.929 77.4017C219.425 74.268 220.481 71.1821 220.335 68.0476C220.385 65.875 220.428 63.3039 218.742 61.6733C217.806 61.1864 216.651 61.4525 215.635 61.4892C213.707 61.8367 211.731 62.0838 209.933 62.8943C208.218 63.6602 206.376 64.2539 204.954 65.5235C201.963 67.8651 199.185 70.4927 196.808 73.4511C195.991 74.4625 195.508 75.6739 195.077 76.8805C194.655 78.0704 194.091 79.2069 193.72 80.4143C193.008 83.2938 192.443 86.2339 192.482 89.2162C192.369 91.4015 192.544 93.6243 193.281 95.7004C193.696 96.8903 194.06 98.2045 193.694 99.4542C193.018 101.667 192.119 103.804 191.091 105.878C190.271 107.505 189.898 109.291 189.411 111.034C188.876 109.558 188.621 107.996 188.152 106.5C186.821 102.097 188.287 97.3398 186.71 92.9851C185.793 90.634 185.045 87.9139 183.553 85.8107C182.61 84.4845 181.893 83.4317 180.735 82.3693C179.692 81.4137 178.762 80.3458 177.688 79.4301C177.205 79.0045 176.583 78.7263 176.188 78.2147C174.956 74.1524 173.701 70.0918 172.278 66.0886C171.749 64.54 170.872 63.1525 170.142 61.6964C168.826 59.4633 167.321 57.054 165.195 55.4696C164.192 54.8145 162.873 54.9388 161.78 55.2743C160.388 55.7733 158.748 56.4228 157.628 57.3967C155.119 59.3892 152.879 61.3816 150.526 63.5566C148.488 62.55 146.472 61.4629 144.297 60.7751C141.741 59.9439 139.252 58.8671 136.592 58.3993C132.769 57.3441 128.771 56.9257 124.826 56.905C122.631 56.8986 120.508 56.147 118.306 56.2331C115.827 56.3216 113.24 56.1757 110.931 57.2437C108.426 58.0478 106.645 60.0714 104.445 61.396C102.696 62.5197 100.643 63.3701 98.9607 64.6134C97.966 65.3753 96.8861 66.0081 95.8006 66.6313C93.722 68.0523 91.6521 69.5252 89.9093 71.363C87.3412 73.6966 85.043 76.3043 82.6922 78.8554C81.8797 79.764 81.3369 80.867 80.6812 81.8887C78.5874 81.491 76.4523 81.4719 74.3506 81.1388C71.2327 80.8543 67.938 79.9274 64.9252 81.2512C63.254 81.7851 61.8693 83.2046 61.6067 84.9619C61.3584 87.2389 61.5414 89.5374 61.7666 91.8096C62.2918 94.1551 62.7805 96.5325 63.7052 98.7616C64.1588 99.8949 64.501 101.07 64.8679 102.234C65.5101 104.47 66.9863 106.314 67.9349 108.415C69.3403 110.476 70.3875 112.741 71.3711 115.025C71.6107 115.639 71.3512 116.292 71.2979 116.914C68.6272 115.784 65.7798 114.74 62.8298 114.928C61.4594 114.953 60.1034 115.156 58.7386 115.257C57.2314 115.409 55.9111 114.394 54.4102 114.457C52.7128 114.499 50.9923 114.547 49.3362 114.946C45.4002 116.453 42.1167 119.322 39.6354 122.677C38.8293 123.993 38.2261 125.426 37.5313 126.807C35.658 130.854 35.8013 135.459 36.4005 139.778C36.7936 141.623 37.4764 143.385 38.0749 145.167C38.8985 147.335 40.4479 149.111 41.8159 150.951C43.3661 152.972 45.744 154.043 47.9587 155.16C49.4023 155.895 51.2175 155.797 52.4645 156.922C54.762 159.088 56.5931 161.681 58.7999 163.933C59.579 164.71 60.2379 165.597 60.8355 166.517C61.7117 167.851 62.8147 169.011 63.7609 170.292C63.1155 171.889 62.5043 173.503 62.1056 175.187C61.1292 178.55 61.0432 182.079 60.9637 185.555C61.1753 187.714 62.0077 189.747 62.7431 191.767C63.971 195.074 66.0711 197.958 68.2826 200.669C69.5201 201.934 71.1236 202.747 72.5712 203.741C74.3665 204.955 76.5399 205.301 78.5859 205.889C80.5952 206.47 82.7017 206.588 84.7756 206.82C87.4137 207.094 89.9356 206.126 92.4304 205.418C94.4278 207.856 96.2709 210.507 98.9146 212.307C101.362 214.712 104.788 215.977 108.2 216C110.595 215.814 112.981 215.282 115.191 214.327C116.674 213.421 118.336 212.573 119.232 211.012C120.061 209.651 120.517 208.106 121.079 206.627C121.767 203.452 121.304 199.997 119.558 197.218C117.539 194.132 114.97 191.451 112.59 188.652C112.228 188.322 112.452 187.857 112.578 187.478C114.046 183.752 114.557 179.716 114.064 175.74C113.535 172.802 112.997 169.8 111.567 167.146C110.779 165.51 109.683 164.055 108.789 162.485C111.796 162.989 114.765 163.958 117.855 163.81C121.855 163.898 125.436 163.558 129.439 163.618C131.644 163.589 133.827 163.247 135.999 162.911C140.648 162.418 145.447 160.896 149.956 159.768C152.959 158.998 154.319 158.436 157.779 157.109C159.987 156.263 162.466 155.19 164.409 154.091C166.768 152.826 169.392 151.771 171.614 150.546C170.421 152.138 169.656 153.618 169.131 155.566C167.681 158.618 167.899 162.05 167.772 165.333C167.602 167.625 168.803 169.667 169.448 171.792C170.155 174.042 171.499 176.016 172.817 177.947C174.418 179.698 175.963 181.555 177.964 182.879C179.711 184.154 181.936 184.342 183.911 185.111C186.757 186.127 189.749 186.918 192.799 186.652C195.35 186.78 197.756 185.867 200.178 185.228C202.335 184.41 204.517 183.364 206.031 181.57C206.965 180.506 208.067 179.609 209.002 178.546C210.229 177.131 210.88 175.35 211.87 173.782C212.534 172.75 212.933 171.579 213.441 170.47C214.226 168.804 214.191 166.931 214.513 165.156C215.52 159.959 214.395 154.445 211.637 149.945C210.876 148.741 209.817 147.774 208.86 146.732C208.208 146.011 207.343 145.479 206.816 144.657C207.147 142.859 207.709 141.096 207.93 139.271C208.201 136.819 208.823 134.419 208.954 131.949C209.406 129.372 209.423 126.712 210.24 124.209C210.797 122.316 210.865 120.334 211.063 118.383C211.337 114.746 211.876 111.121 211.849 107.464C211.765 106.228 213.166 105.746 213.858 104.945C215.206 103.421 216.192 101.614 217.237 99.8782C218.133 98.2811 219.147 96.7102 219.631 94.925C220.261 92.4432 221.043 89.959 220.969 87.368C221.158 84.0063 220.444 80.6996 219.929 77.4017ZM84.4111 154.283C82.3444 151.772 80.343 149.209 78.4593 146.558C78.3296 146.296 78.0177 146.013 78.1776 145.703C78.6981 144.434 79.0713 143.116 79.5512 141.834C80.6247 143.401 81.9401 144.851 83.6368 145.757C85.5547 146.667 86.6815 148.54 88.0463 150.071C89.0252 151.236 90.078 152.34 91.1547 153.42C88.8843 153.45 86.6489 153.903 84.4111 154.283Z" fill="white"/>
<path d="M160.567 60.3312C161.187 59.849 162.025 59.6075 162.782 59.908C163.486 60.2268 163.691 61.0254 164.033 61.651C165.209 63.8857 166.022 66.2918 167.226 68.5162C168.876 72.5625 169.573 76.9012 170.733 81.0957C170.825 81.6552 171.384 81.8816 171.796 82.1764C173.161 83.038 174.378 84.1171 175.436 85.3341C178.678 88.4328 181.04 92.5388 181.678 97.0043C182.357 99.8248 181.483 102.72 181.894 105.552C182.627 107.496 182.833 109.572 183.412 111.557C183.907 114.667 184.735 117.768 184.523 120.945C184.381 122.956 184.293 124.997 183.803 126.963C182.54 130.413 181.071 133.885 178.568 136.636C175.912 139.845 172.373 142.125 169.025 144.537C168.18 145.184 167.176 145.582 166.281 146.151C164.5 147.281 162.771 148.556 160.771 149.29C158.213 150.287 155.728 151.48 153.114 152.335C150.643 153.074 148.188 153.879 145.771 154.78C141.628 155.933 137.435 157.139 133.101 157.223C130.919 157.498 128.756 157.955 126.551 158.039C121.307 158.131 115.982 158.318 110.84 157.105C108.839 156.478 106.859 155.79 104.839 155.229C101.197 153.684 97.7233 151.629 94.903 148.83C93.0379 147.252 91.2751 145.556 89.6252 143.754C88.7825 142.893 88.4132 141.725 87.8514 140.688C87.1662 140.833 86.4389 141.175 85.764 140.794C84.934 140.417 83.9321 140.162 83.4252 139.338C81.7198 136.808 80.4282 134.042 79.2568 131.236C78.3567 129.436 77.498 127.6 76.9999 125.641C76.2789 122.633 75.4894 119.577 75.6884 116.459C75.8062 115.622 76.0672 114.81 76.1205 113.963C75.1974 111.742 73.11 109.843 72.1574 107.633C70.1218 103.188 68.1951 98.6827 66.7364 94.0156C66.0926 91.8151 65.5014 89.6226 65.4504 87.3082C65.6979 86.4379 65.9637 85.2879 66.8431 84.7746C67.7726 84.4694 68.7769 84.7188 69.7199 84.8535C71.9131 85.3325 74.1636 85.4592 76.3672 85.8752C78.4474 86.2506 80.4091 87.0715 82.4607 87.5585C83.2382 86.3415 83.796 84.9882 84.7183 83.8629C86.0386 82.0226 87.4853 80.2804 88.8931 78.5056C90.1306 76.918 91.6665 75.9329 93.091 74.5318C93.8414 73.8281 94.6929 72.9546 95.5372 72.3489C97.0222 71.2961 98.2987 69.9412 99.9762 69.1769C101.321 68.576 102.466 67.614 103.822 67.0362C105.745 66.2767 107.201 64.756 108.928 63.6682C110.455 62.2734 112.386 61.3426 114.41 60.9297C115.771 60.8516 117.157 60.7568 118.506 60.9465C120.28 61.1943 121.433 61.7315 122.907 62.0758C123.984 61.9937 125.037 61.7522 126.143 61.7602C128.19 61.7745 129.906 61.8726 131.745 62.291C133.975 62.6353 136.097 63.4267 138.283 63.9447C140.475 64.4085 142.591 65.3338 144.588 66.3803C145.844 67.0362 147.084 67.5726 148.266 68.3648C149.13 68.9211 149.893 69.6216 150.788 70.1396C151.659 68.9394 152.827 68.0061 153.74 66.8417C154.542 65.8288 155.644 65.1131 156.463 64.1169C157.665 62.6911 159.083 61.4605 160.567 60.3312Z" fill="black"/>
<path d="M159.979 66.3444C160.474 65.706 161.081 65.1689 161.7 64.6556C162.222 65.675 162.749 66.7063 163.07 67.8125C163.551 69.6463 164.206 71.4292 164.708 73.2574C165.538 75.5727 165.993 77.9939 166.515 80.3928C165.375 80.1402 164.191 80.1051 163.068 79.7839C161.85 78.7327 160.776 77.5261 159.742 76.2971C158.25 74.8761 156.701 73.4973 154.91 72.4557C156.496 70.3349 158.346 68.4277 159.979 66.3444Z" fill="#F59C32"/>
<path d="M112.987 66.4823C114.255 65.7961 115.716 65.5968 117.126 65.4143C118.17 65.2709 119.181 65.6702 120.213 65.7921C122.872 66.0981 125.446 67.0705 127.688 68.5154C130.163 70.4098 132.901 71.9591 135.19 74.0935C137.08 75.8954 139.028 77.6504 140.693 79.6715C138.315 79.6923 135.997 80.2398 133.668 80.6638C132.441 80.9061 131.234 81.3611 129.972 81.3532C128.759 79.9569 127.524 78.5837 126.468 77.0638C124.044 74.7518 121.642 72.3329 118.697 70.6633C117.126 69.7818 115.351 69.3299 113.572 69.1354C113.051 69.0597 112.617 69.3172 112.272 69.6782C114.224 70.5055 116.309 71.112 117.995 72.4509C119.728 73.8839 121.491 75.3423 122.784 77.2025C124.064 78.9989 125.563 80.6383 126.7 82.5367C121.051 85.0719 116.314 89.1628 111.871 93.3948C109.819 95.2605 107.946 97.355 106.483 99.7172C105.383 101.267 104.26 102.808 103.388 104.502C102.496 106.317 101.25 107.948 100.512 109.845C99.8122 111.634 98.5024 113.078 97.4543 114.669C96.8447 115.661 95.92 116.394 95.1496 117.255C92.9684 119.647 90.7823 122.099 89.2735 124.985C87.5505 127.897 86.3107 131.068 85.3764 134.317C84.2639 131.318 82.7996 128.475 81.5534 125.535C80.7878 123.418 80.7099 121.139 80.5642 118.916C81.5526 119.486 82.4741 120.2 83.5477 120.604C84.6395 120.826 85.9215 120.873 86.7937 120.055C88.1474 118.897 88.8222 117.183 89.8647 115.773C91.2327 113.992 92.2569 111.989 93.4347 110.088C94.7844 107.905 96.1969 105.767 97.5625 103.595C99.1501 101.557 101.027 99.7156 102.319 97.4633C102.287 97.3438 102.253 97.225 102.216 97.1071C101.08 96.1834 99.7263 95.5713 98.4713 94.8301C96.4004 93.6155 94.3118 92.4316 92.206 91.2788C90.6088 90.5432 88.9464 89.9566 87.2776 89.413C87.9856 88.2364 88.6799 87.0514 89.3602 85.8585C92.6262 80.6949 97.3262 76.5298 102.615 73.5045C104.57 72.262 106.543 71.0458 108.567 69.9221C110.068 68.8166 111.444 67.5367 112.987 66.4823ZM130.178 66.0822C132.473 65.9619 134.614 66.9127 136.727 67.669C139.513 68.5704 142.267 69.6248 144.859 70.9996C147.318 72.5441 149.876 73.9381 152.294 75.5432C153.619 76.6645 155.191 77.4631 156.433 78.6881C152.508 78.9032 148.565 78.7972 144.654 79.1989C143.576 77.7946 142.262 76.6119 141.006 75.3758C139.15 73.2367 137.094 71.2594 134.815 69.577C133.405 68.2364 131.652 67.3414 130.178 66.0822Z" fill="#FFCF38"/>
<path d="M210.841 67.0896C212.047 66.4879 213.41 66.4656 214.727 66.4974C214.91 66.8298 215.283 67.1079 215.264 67.5176C215.168 69.4232 214.855 71.3112 214.646 73.204C214.758 77.1212 215.754 80.965 215.762 84.8918C215.821 88.1889 215.819 91.9443 213.472 94.5464C212.825 95.231 212.798 96.2129 212.432 97.0362C211.549 98.8111 210.236 100.321 209.269 102.046C208.711 103.076 207.642 103.675 206.976 104.619C206.821 106.279 206.993 107.957 206.815 109.619C206.517 111.601 206.599 113.62 206.24 115.595C205.963 118.095 205.481 120.585 205.577 123.107C205.105 123.383 204.618 123.637 204.126 123.871C203.762 126.547 203.674 129.252 203.404 131.938C202.651 136.909 201.531 141.811 200.509 146.729C202.536 147.683 204.372 149.104 205.641 150.964C206.039 151.552 206.508 152.086 206.931 152.654C207.724 153.719 208.024 155.033 208.471 156.257C209.559 159.573 209.426 163.135 208.863 166.533C208.367 168.7 207.251 170.652 206.34 172.66C205.209 174.706 203.555 176.488 201.508 177.644C199.365 178.877 197.232 180.33 194.721 180.655C192.945 181.298 191.042 180.916 189.202 180.926C186.679 180.605 184.151 180.047 181.834 178.978C180.743 178.32 179.446 178.012 178.501 177.132C177.454 176.179 176.305 175.301 175.563 174.076C174.368 172.028 173.453 169.792 173.074 167.443C172.684 164.823 172.661 162.162 173.003 159.535C173.674 155.96 175.108 152.379 177.823 149.854C179.587 148.16 181.25 146.154 183.602 145.273C185.274 144.826 186.958 144.402 188.658 144.061C188.545 141.353 188.745 138.668 188.847 135.967C188.955 133.635 189.407 131.341 189.875 129.059C190.199 126.379 191.305 123.532 191.913 120.911C192.186 120.131 191.749 119.635 191.796 118.846C191.972 116.663 192.803 114.614 193.39 112.524C194.577 108.353 196.123 104.254 198.348 100.513C197.182 97.5271 197.176 94.2778 196.964 91.1274C197.006 90.0969 197.218 89.0225 196.687 88.0693C196.275 86.0689 196.91 84.0398 197.544 82.1494C197.975 80.969 198.421 79.7911 198.971 78.6634C199.477 77.5986 200.347 76.7809 201.109 75.8986C202.66 73.8424 204.413 71.9472 206.264 70.1604C207.587 68.8677 209.204 67.9272 210.841 67.0896Z" fill="black"/>
<path d="M203.318 79.2109C205.584 76.1585 208.243 73.4216 211.184 71.0084C211.013 73.0845 210.704 75.1718 211.028 77.2495C211.406 79.6684 211.361 82.1167 211.617 84.5443C211.834 86.5662 211.83 88.6392 211.224 90.599C210.047 89.6777 208.672 88.9731 207.723 87.7944C207.049 87.0038 206.114 86.143 204.991 86.3367C203.443 86.6969 202.1 87.6143 200.565 88.0096C200.402 86.7623 200.596 85.4887 201.087 84.3315C201.813 82.6204 202.238 80.757 203.318 79.2109Z" fill="#F31E3E"/>
<path d="M153.883 83.2827C156.983 82.9973 160.057 83.6421 163.144 83.8015C164.662 83.8685 166.011 84.3227 167.53 84.84C170.012 85.6856 172.143 87.2516 173.764 89.2321C176.029 92.4974 177.952 96.2065 178.087 100.256C177.049 99.5204 176.02 98.7417 174.834 98.2564C173.562 97.7224 172.403 96.9445 171.085 96.5165C167.739 95.4669 164.225 95.1067 160.731 94.9847C158.341 94.9393 155.934 94.6094 153.558 94.9943C151.758 95.2796 149.923 95.0788 148.136 95.4422C145.853 95.6207 143.623 96.134 141.353 96.3938C136.647 97.3271 132.103 98.8804 127.442 99.985C122.765 101.164 118.428 103.329 113.915 104.956C111.968 105.942 109.87 106.638 108.022 107.808C107.31 108.247 106.522 108.53 105.747 108.832C106.963 106.778 108.112 104.68 109.523 102.745C111.631 99.4853 114.609 96.9493 117.243 94.1336C118.288 92.9915 119.511 92.0168 120.797 91.1513C123.299 89.6003 125.849 88.0845 128.598 86.9974C131.015 86.0291 133.617 85.7135 136.16 85.2289C139.44 84.7475 142.686 83.9912 146.011 83.8541C148.629 83.5672 151.258 83.4939 153.883 83.2827Z" fill="#FFCF38"/>
<path d="M70.07 90.0092C71.6719 89.5262 73.0256 90.7233 74.5854 90.8102C76.8311 91.0508 78.9456 91.9052 81.173 92.2304C84.9594 92.7859 88.1394 95.0397 91.5494 96.5986C93.3217 97.2896 94.9937 98.2301 96.8399 98.7258C95.2037 100.67 93.6734 102.698 92.1845 104.757C91.1285 106.217 90.2356 107.862 89.3498 109.503C88.6655 110.767 88.145 111.91 87.3643 113.008C86.356 114.353 85.5443 115.826 84.5878 117.202C83.0614 116.019 82.0444 114.378 80.8714 112.886C77.5545 109.369 76.2987 104.586 74.0108 100.437C72.5776 97.9902 72.2035 95.1147 70.9907 92.5691C70.5976 91.7474 70.3525 90.8699 70.07 90.0092Z" fill="#F59C32"/>
<path d="M200.805 91.5713C202.23 91.3776 203.571 90.8436 204.87 90.2443C206.252 91.6135 207.922 92.6257 209.384 93.8953C208.193 96.6664 206.825 99.4359 204.836 101.733C204.034 101.468 203.231 101.208 202.427 100.952C201.428 97.922 200.881 94.761 200.805 91.5713Z" fill="#673927"/>
<path d="M138.002 101.12C142.729 100.075 147.534 99.365 152.343 98.823C154.862 98.8063 157.381 98.3528 159.895 98.6859C163.249 98.933 166.661 99.094 169.885 100.136C171.562 100.823 173.21 101.629 174.621 102.774C175.777 103.693 177.015 104.635 177.65 106.011C178.77 108.466 179.034 111.182 179.754 113.758C180.444 116.153 180.84 118.388 180.832 120.868C179.246 119.564 177.629 118.199 175.646 117.535C174.356 117.033 172.954 116.984 171.593 116.853C170.697 116.822 169.555 116.902 169.065 117.778C168.841 118.387 169.395 118.94 169.956 119.065C171.422 119.475 172.947 119.651 174.396 120.118C176.106 120.696 177.424 121.967 178.786 123.087C179.489 123.663 180.015 124.415 180.56 125.13C180.229 126.158 179.621 127.459 179.106 128.413C177.273 126.914 175.589 125.211 173.312 124.456C171.565 123.737 169.434 123.137 167.685 124.172C166.85 124.635 166.992 126.006 167.928 126.252C169.005 126.455 170.136 126.418 171.17 126.835C173.001 127.573 174.771 128.524 175.973 130.199C176.263 130.664 176.804 131.232 176.461 131.804C175.627 133.214 174.348 134.278 173.241 135.46C171.794 136.959 169.962 137.982 168.369 139.306C166.838 140.587 164.984 141.371 163.28 142.39C162.009 143.073 160.781 143.856 159.429 144.369C160.767 142.565 162.092 140.668 162.627 138.455C163.229 135.99 163.654 133.308 162.747 130.863C161.978 128.782 160.724 126.752 158.765 125.605C157.072 124.603 155.346 123.592 153.433 123.075C151.531 122.563 149.718 121.794 147.822 121.276C147.109 121.047 146.296 120.91 145.792 120.309C143.136 117.175 142.703 112.948 140.975 109.344C139.765 106.683 139.116 103.82 138.002 101.12Z" fill="#F59C32"/>
<path d="M133.073 102.571C134.659 101.907 136.321 101.458 138.002 101.12C139.115 103.82 139.765 106.683 140.976 109.346C142.704 112.949 143.136 117.177 145.793 120.311C146.296 120.912 147.109 121.049 147.823 121.278C149.719 121.796 151.532 122.565 153.434 123.078C155.347 123.594 157.073 124.605 158.766 125.607C160.724 126.754 161.979 128.784 162.747 130.866C163.654 133.311 163.229 135.993 162.628 138.457C162.093 140.67 160.767 142.568 159.43 144.371C158.47 145.256 157.201 145.706 156.072 146.326C154.111 147.405 152.089 147.561 150.086 148.535C148.246 149.186 146.146 149.949 144.194 150.191C142.434 150.431 140.712 150.944 138.939 151.063C137.161 150.648 135.361 150.102 133.924 148.932C130.832 146.394 128.184 143.127 127.021 139.252C126.63 137.253 126.658 135.196 126.627 133.169C126.97 130.559 128.564 128.171 130.763 126.736C132.173 125.822 133.637 124.974 135.206 124.361C136.25 123.846 137.465 123.439 138.19 122.479C137.933 120.374 137.977 118.219 137.412 116.156C137.115 114.959 137.001 113.724 136.63 112.546C135.525 109.194 134.737 105.713 133.073 102.571Z" fill="white"/>
<path d="M123.411 105.492C127.093 104.27 129.777 103.513 133.073 102.571C134.737 105.712 135.525 109.194 136.631 112.545C137.002 113.724 137.115 114.959 137.413 116.155C137.978 118.218 137.933 120.373 138.191 122.478C137.466 123.438 136.251 123.845 135.207 124.361C133.638 124.974 132.174 125.821 130.764 126.735C128.564 128.171 126.97 130.558 126.628 133.168C126.659 135.195 126.631 137.253 127.022 139.251C128.185 143.126 130.833 146.393 133.925 148.931C135.362 150.102 137.161 150.648 138.94 151.062C136.968 151.714 134.909 152.068 132.832 152.112C127.758 152.489 122.31 153.76 117.403 152.869C114.831 152.402 112.364 151.986 109.815 151.396C109.417 151.305 109.059 151.087 108.797 150.773C108.666 149.22 108.875 147.64 109.294 146.145C110.306 143.407 112.199 141.119 114.196 139.036C115.062 138.156 116.571 137.769 116.846 136.427C116.655 135.714 115.855 135.498 115.211 135.649C113.394 136.004 111.826 137.438 110.542 138.652C108.722 140.362 107.211 142.408 106.197 144.695C105.513 146.258 105.378 147.982 105.149 149.655C103.385 148.931 102.121 147.782 100.493 146.805C101.394 143.066 103.051 139.396 105.912 136.741C106.894 135.532 108.147 134.593 109.239 133.496C109.905 132.688 108.862 131.686 108.022 131.702C106.836 131.836 105.891 132.379 105.021 133.12C103.259 134.827 101.456 136.552 100.247 138.71C99.0523 140.564 98.4753 142.703 97.7304 144.756C95.6263 143.236 93.8183 141.619 92.3469 139.487C91.3171 138.08 90.2555 136.648 89.661 134.992C90.1189 133.131 90.6819 131.298 91.3473 129.501C92.7551 126.929 94.2385 124.342 96.2956 122.218C97.8013 120.724 99.108 119.023 100.809 117.738C102.286 116.382 104.026 115.355 105.487 113.98C106.731 112.882 108.294 112.266 109.657 111.341C112.704 109.277 115.961 108.323 119.175 106.967C120.537 106.487 122.046 105.978 123.411 105.492Z" fill="#F59C32"/>
<path d="M199.809 104.287C201.166 104.292 202.521 104.465 203.858 104.696C204.235 106.596 203.577 108.305 203.418 110.176C203.239 111.502 203.166 112.949 202.911 114.265C202.672 116.212 202.268 118.151 202.257 120.114C201.478 120.149 200.674 120.369 199.912 119.983C198.69 119.362 197.57 118.558 196.282 118.081C196.791 114.038 197.779 110.079 199.03 106.205C199.267 105.565 199.326 104.796 199.809 104.287Z" fill="#FFCF38"/>
<path d="M147.743 108.593C149.122 107.843 150.887 108.561 151.675 109.829C152.181 110.744 152.497 111.772 152.653 112.803C152.63 114.122 152.373 115.489 151.728 116.658C151.176 117.712 149.84 118.202 148.757 117.638C147.334 116.89 145.841 115.629 145.768 113.898C145.712 112.776 145.516 111.611 145.869 110.516C146.234 109.678 146.922 108.989 147.743 108.593ZM125.882 112.868C127.328 112.453 128.73 113.31 129.6 114.407C130.448 116.384 130.801 118.713 129.97 120.751C128.927 122.387 126.218 123.109 124.697 121.73C123.383 120.263 123.224 118.163 123.388 116.29C123.438 114.787 124.544 113.453 125.882 112.868ZM47.6571 120.402C49.1731 119.224 50.9764 118.16 52.9635 118.23C53.8023 118.744 54.501 119.606 54.5432 120.623C54.8122 123.124 54.9904 125.631 54.9864 128.146C55.2618 130.616 55.1432 133.104 55.366 135.579C56.8701 135.617 58.3765 135.67 59.8687 135.435C59.9339 131.917 59.8543 128.421 59.8002 124.895C59.774 123.354 59.3188 121.2 60.1369 119.556C62.2028 118.913 64.4382 119.382 66.3791 120.215C69.3657 121.927 71.5279 124.804 72.8585 127.931C73.3973 129.641 74.1517 131.288 74.5297 133.053C74.8393 134.765 75.4528 136.502 75.004 138.253C74.7987 140.267 73.8182 142.053 73.0638 143.892C72.7447 144.587 72.2537 145.179 71.8033 145.789C73.1935 148.081 74.5854 150.39 76.2653 152.489C78.297 154.716 79.9769 157.226 81.929 159.52C83.3495 159.142 84.7891 158.831 86.2081 158.441C88.0838 158.081 90.0096 158.227 91.9108 158.206C93.6949 158.168 95.2571 159.142 96.9132 159.65C99.4502 160.702 101.76 162.394 103.494 164.521C105.016 166.631 106.521 168.821 107.312 171.326C107.542 172.081 107.947 172.777 108.089 173.562C108.42 176.121 109.087 178.69 108.729 181.288C108.574 184.255 107.38 187.027 106.157 189.693C106.863 190.486 107.598 191.268 108.479 191.87C110.035 192.931 111.182 194.44 112.443 195.809C113.612 197.105 114.589 198.388 115.303 200.008C115.798 201.138 115.917 202.398 116.103 203.587C116.347 205.202 115.859 207.537 114.597 208.626C113.68 209.439 112.936 210.18 111.738 210.691C110.078 211.394 107.904 211.715 105.941 211.21C104.565 210.743 103.189 210.24 101.926 209.509C99.8011 208.145 98.0997 206.227 96.5933 204.221C95.9853 203.377 95.316 202.558 94.8767 201.605C94.5958 201.064 94.3356 200.421 93.7379 200.162C91.8216 200.488 89.9595 201.197 87.9994 201.214C86.45 201.188 84.9268 201.582 83.3742 201.453C81.6099 201.288 79.8043 201.258 78.1188 200.64C75.5244 199.729 73.2882 198.077 71.1133 196.436C69.6586 194.938 68.4108 193.207 67.5282 191.308C67.0754 189.905 66.4555 188.517 66.4054 187.021C66.2908 184.62 65.8523 182.23 66.0226 179.819C66.1849 176.294 67.3914 172.918 68.9893 169.801C67.6858 168.018 66.3115 166.286 64.9578 164.542C62.9333 161.54 60.2952 159.025 58.0781 156.168C57.1271 154.872 55.908 153.807 54.8273 152.625C53.963 151.767 52.646 152.105 51.5924 151.721C49.575 151.046 47.9086 149.669 46.2947 148.335C43.9288 146.228 42.5855 143.287 41.3711 140.433C40.4679 138.083 40.2992 135.53 40.5626 133.045C41.0416 130.099 41.625 127.034 43.3383 124.52C44.5296 122.917 46.0122 121.536 47.6571 120.402Z" fill="black"/>
<path d="M195.622 122.049C197.085 122.961 198.625 123.884 200.399 123.945C199.57 127.361 199.391 130.888 199.005 134.371C198.52 137.226 198.147 140.116 197.25 142.882C197.007 143.605 196.799 144.34 196.627 145.084C195.195 144.741 193.728 144.586 192.281 144.339C192.41 139.689 192.851 135.047 193.547 130.449C194.325 127.663 194.402 124.706 195.622 122.049Z" fill="#B57741"/>
<path d="M47.0451 126.057C48.0375 124.594 49.6243 123.717 51.1674 122.949C51.2438 125.862 51.4658 128.77 51.465 131.683C51.4905 133.775 51.1435 135.944 51.8573 137.96C52.0173 138.453 52.1876 139.075 52.7542 139.238C54.6275 139.864 56.6321 139.829 58.5747 140.036C59.7756 140.174 60.9884 140.31 62.2019 140.193C63.0105 140.087 63.7681 139.346 63.71 138.498C63.6018 136.231 63.4888 133.967 63.4888 131.7C63.48 128.915 63.1673 126.136 63.2906 123.349C65.2507 124.122 66.6393 125.798 67.9015 127.402C69.3848 131.174 71.1038 135.172 70.3716 139.315C70.1194 141.981 67.5513 143.394 65.9955 145.278C67.0667 147.241 68.4044 149.028 69.8552 150.718C72.3961 154.119 74.84 157.596 77.4829 160.922C75.2905 162.144 73.1991 163.692 71.6767 165.707C70.4624 164.375 69.5329 162.812 68.2731 161.522C67.1566 160.361 66.2605 159.007 65.0947 157.89C62.8768 155.647 61.0584 153.042 58.7593 150.879C57.9747 150.167 57.9572 148.83 56.9441 148.359C55.1225 147.789 52.9126 148.175 51.4029 146.801C50.1424 145.706 48.7513 144.725 47.7065 143.409C46.7984 142.011 45.8729 140.605 45.2458 139.053C44.6689 137.758 44.5615 136.323 44.4373 134.933C44.6363 131.838 45.3763 128.707 47.0451 126.057Z" fill="#B2B3B5"/>
<path d="M144.514 125.51C144.99 125.151 145.629 125.162 146.199 125.104C147.133 124.97 147.916 125.822 148.065 126.68C148.446 128.432 149.641 129.821 150.583 131.293C151.308 132.437 152.812 133.657 154.135 133.189C155.68 132.641 156.68 131.267 158.028 130.343C158.996 130.185 159.174 131.458 159.36 132.143C159.438 133.522 157.929 134.029 157.089 134.82C155.779 136.048 153.984 136.892 152.159 136.551C152.402 138.165 152.217 139.815 151.621 141.335C150.735 142.648 149.589 144.137 147.847 144.201C146.417 144.186 144.779 144.102 143.751 142.975C142.498 141.58 141.456 139.854 141.457 137.925C138.808 137.885 135.979 138.141 133.582 136.785C132.866 136.002 132.204 134.745 132.871 133.747C133.919 132.683 135.295 133.951 136.452 134.136C138.055 134.392 139.999 134.797 141.288 133.459C142.57 131.938 143.377 130.07 143.983 128.206C144.304 127.213 143.787 126.242 144.514 125.51Z" fill="black"/>
<path d="M146.547 131.679C147.278 132.798 148.033 133.905 148.702 135.063C149.021 135.558 149.014 136.162 149.048 136.731C149.091 137.738 149.137 138.82 148.624 139.73C148.042 140.592 146.604 140.87 145.859 140.059C145.189 139.33 144.639 138.44 144.414 137.47C144.184 136.754 144.73 136.157 145.03 135.559C145.739 134.353 146.178 133.017 146.547 131.679Z" fill="#F31E3E"/>
<path d="M186.049 149.077C187.381 148.419 188.888 148.602 190.322 148.649C192.76 148.858 195.063 149.749 197.427 150.319C198.84 153.82 199.163 157.835 197.817 161.407C196.617 164.208 195.157 166.946 193.053 169.182C191.355 170.923 189.219 172.126 187.137 173.35C186.052 173.982 184.844 174.547 183.551 174.41C182.684 173.895 181.916 173.237 181.143 172.6C179.884 171.638 179.08 170.233 178.304 168.886C177.544 167.6 177.496 166.082 177.158 164.67C176.842 162.44 177.228 160.135 178.216 158.113C178.939 156.683 179.327 155.052 180.49 153.887C181.851 151.825 183.607 149.835 186.049 149.077Z" fill="white"/>
<path d="M197.427 150.319C198.49 150.817 199.526 151.37 200.53 151.978C201.733 152.713 202.251 154.083 203.012 155.201C203.553 155.996 204.04 156.854 204.208 157.818C204.914 161.619 204.788 165.681 203.179 169.246C201.277 172.848 197.585 175.466 193.559 176.109C191.944 176.215 190.306 176.462 188.697 176.192C186.921 175.807 185.167 175.261 183.551 174.41C184.844 174.547 186.052 173.982 187.137 173.35C189.219 172.126 191.355 170.923 193.053 169.182C195.158 166.946 196.617 164.208 197.817 161.407C199.163 157.835 198.84 153.82 197.427 150.319Z" fill="#F59C32"/>
<path d="M85.9319 163.342C87.3691 163.176 88.8127 163.102 90.2523 162.95C92.9214 162.959 95.2086 164.497 97.5649 165.537C98.9663 166.363 99.8481 167.793 101.031 168.871C102.629 170.217 103.089 172.368 103.751 174.249C104.033 177.305 104.959 180.549 103.637 183.498C102.699 185.473 102.288 187.729 100.835 189.429C99.8536 190.225 98.7141 190.8 97.5594 191.299C96.0895 191.931 94.4629 191.585 92.923 191.587C90.0597 191.618 87.6325 189.826 85.5786 188.034C83.4522 186.189 81.7874 183.852 80.5738 181.33C79.739 179.572 78.987 177.728 78.792 175.778C78.6305 174.334 78.6464 172.876 78.6758 171.426C78.7132 169.317 79.4501 167.31 80.117 165.332C82.0365 164.623 83.9289 163.795 85.9319 163.342Z" fill="white"/>
<path d="M74.1421 170.337C75.7512 168.278 77.6078 166.276 80.1178 165.331C79.4509 167.309 78.714 169.316 78.6766 171.426C78.6471 172.875 78.6304 174.333 78.7928 175.777C78.9877 177.727 79.7398 179.571 80.5746 181.329C81.7882 183.851 83.453 186.188 85.5793 188.033C87.6325 189.826 90.0605 191.617 92.9238 191.586C94.4645 191.584 96.0903 191.93 97.5601 191.298C98.7148 190.799 99.8544 190.224 100.836 189.428C99.1501 191.81 96.5558 193.5 93.7689 194.324C91.777 195.19 89.6952 196.082 87.4726 195.962C85.2515 195.824 82.9723 196.472 80.8061 195.765C78.4729 195.145 76.0114 194.249 74.4071 192.359C72.8609 190.112 71.7698 187.559 70.9828 184.958C70.5093 181.645 70.9016 178.193 72.0348 175.042C72.7956 173.497 73.1108 171.741 74.1421 170.337Z" fill="#F59C32"/>
<path d="M103.307 194.013C105.123 195.158 106.638 196.688 108.295 198.038C109.542 199.149 110.746 200.409 111.447 201.945C111.779 203.353 111.92 205.077 110.829 206.215C109.702 207.229 107.959 207.873 106.52 207.127C105.014 206.357 103.58 205.376 102.516 204.049C101.123 202.218 99.5767 200.507 98.2875 198.598C99.3395 197.942 100.474 197.363 101.309 196.427C102.009 195.651 102.653 194.831 103.307 194.013Z" fill="#B2B3B5"/>
<path d="M105.509 200.519C106.694 200.365 107.641 201.222 108.505 201.897C109.049 202.29 109.102 203.081 108.821 203.646C108.325 204.35 107.301 204.138 106.72 203.671C105.816 202.908 105.039 201.737 105.509 200.519Z" fill="black"/>
</svg>