<svg width="256" height="256" title="Neon" viewBox="0 0 256 256" fill="none" xmlns="http://www.w3.org/2000/svg" id="neon">
<style>
#neon {
    rect {fill: #15191C}

    @media (prefers-color-scheme: light) {
        rect {fill: #F4F2ED}
    }
}
</style>
<rect width="256" height="256" rx="40" fill="#15191C"/>
<path fill-rule="evenodd" clip-rule="evenodd" d="M48 76.2263C48 61.1896 60.3508 49 75.5862 49H180.414C195.649 49 208 61.1896 208 76.2263V164.219C208 179.775 188.054 186.526 178.381 174.245L148.138 135.849V182.409C148.138 195.942 137.022 206.912 123.311 206.912H75.5862C60.3508 206.912 48 194.723 48 179.686V76.2263ZM75.5862 70.781C72.5391 70.781 70.069 73.2189 70.069 76.2263V179.686C70.069 182.693 72.5391 185.131 75.5862 185.131H124.138C125.662 185.131 126.069 183.912 126.069 182.409V119.972C126.069 104.415 146.015 97.6636 155.689 109.946L185.931 148.342V76.2263C185.931 73.2189 186.22 70.781 183.173 70.781H75.5862Z" fill="#12FFF7"/>
<path fill-rule="evenodd" clip-rule="evenodd" d="M48 76.2263C48 61.1896 60.3508 49 75.5862 49H180.414C195.649 49 208 61.1896 208 76.2263V164.219C208 179.775 188.054 186.526 178.381 174.245L148.138 135.849V182.409C148.138 195.942 137.022 206.912 123.311 206.912H75.5862C60.3508 206.912 48 194.723 48 179.686V76.2263ZM75.5862 70.781C72.5391 70.781 70.069 73.2189 70.069 76.2263V179.686C70.069 182.693 72.5391 185.131 75.5862 185.131H124.138C125.662 185.131 126.069 183.912 126.069 182.409V119.972C126.069 104.415 146.015 97.6636 155.689 109.946L185.931 148.342V76.2263C185.931 73.2189 186.22 70.781 183.173 70.781H75.5862Z" fill="url(#linearGradient1)"/>
<path fill-rule="evenodd" clip-rule="evenodd" d="M48 76.2263C48 61.1896 60.3508 49 75.5862 49H180.414C195.649 49 208 61.1896 208 76.2263V164.219C208 179.775 188.054 186.526 178.381 174.245L148.138 135.849V182.409C148.138 195.942 137.022 206.912 123.311 206.912H75.5862C60.3508 206.912 48 194.723 48 179.686V76.2263ZM75.5862 70.781C72.5391 70.781 70.069 73.2189 70.069 76.2263V179.686C70.069 182.693 72.5391 185.131 75.5862 185.131H124.138C125.662 185.131 126.069 183.912 126.069 182.409V119.972C126.069 104.415 146.015 97.6636 155.689 109.946L185.931 148.342V76.2263C185.931 73.2189 186.22 70.781 183.173 70.781H75.5862Z" fill="url(#linearGradient2)"/>
<path d="M180.414 49C195.649 49 208 61.1896 208 76.2263V164.219C208 179.775 188.054 186.526 178.381 174.245L148.138 135.849V182.409C148.138 195.942 137.022 206.912 123.311 206.912C124.834 206.912 126.07 205.694 126.07 204.19L126.069 119.972C126.069 104.415 146.015 97.6636 155.689 109.946L185.931 148.342L185.932 54.4452C185.932 51.4379 183.461 49 180.414 49Z" fill="#B9FFB3"/>
<linearGradient id="linearGradient1" x1="208" y1="206.912" x2="69.3911" y2="47.1944" gradientUnits="userSpaceOnUse">
<stop stop-color="#B9FFB3"/>
<stop offset="1" stop-color="#B9FFB3" stop-opacity="0"/>
</linearGradient>
<linearGradient id="linearGradient2" x1="208" y1="206.912" x2="113.297" y2="169.589" gradientUnits="userSpaceOnUse">
<stop stop-color="#1A1A1A" stop-opacity="0.9"/>
<stop offset="1" stop-color="#1A1A1A" stop-opacity="0"/>
</linearGradient>
</svg>