<svg width="256" height="256" title="NestJS" viewBox="0 0 256 256" fill="none" xmlns="http://www.w3.org/2000/svg">
<rect width="256" height="256" rx="40" fill="#E0234E"/>
<path d="M142.206 48C141.053 48 139.98 48.2467 138.986 48.58C141.093 49.98 142.253 51.8466 142.826 53.9533C142.873 54.24 142.953 54.4466 142.993 54.7333C143.042 54.9793 143.071 55.2291 143.08 55.4799C143.24 59.1133 142.126 59.5732 141.346 61.7199C140.146 64.4865 140.48 67.4599 141.92 69.8532C142.051 70.1741 142.217 70.4803 142.413 70.7665C140.846 60.3132 149.566 58.7466 151.173 55.4799C151.299 52.6266 148.946 50.7266 147.086 49.4067C145.625 48.4882 143.932 48.0028 142.206 48.0067V48ZM155.346 50.3533C155.186 51.3066 155.306 51.06 155.266 51.5533C155.226 51.8866 155.226 52.3 155.186 52.6266C155.099 52.96 155.019 53.2933 154.893 53.62C154.813 53.9533 154.693 54.2866 154.559 54.6133L154.113 55.5599C153.979 55.7266 153.906 55.8933 153.779 56.0599L153.533 56.4266C153.336 56.7095 153.129 56.9852 152.913 57.2533C152.666 57.5066 152.459 57.7933 152.166 57.9999V58.0399C151.919 58.2466 151.673 58.4933 151.379 58.7066C150.513 59.3666 149.526 59.8599 148.613 60.4799C148.326 60.6799 148.033 60.8532 147.786 61.0999C147.506 61.2972 147.243 61.518 147 61.7599C146.713 62.0066 146.506 62.2532 146.26 62.5466C146.053 62.7932 145.806 63.0799 145.64 63.3732C145.432 63.6524 145.238 63.9416 145.06 64.2399C144.893 64.5732 144.773 64.8599 144.606 65.1865C144.48 65.5199 144.36 65.8065 144.273 66.1399C144.164 66.4803 144.068 66.8251 143.986 67.1732C143.946 67.3399 143.946 67.5465 143.906 67.7065C143.86 67.8732 143.86 68.0399 143.82 68.2065C143.82 68.5398 143.78 68.9065 143.78 69.2398C143.78 69.4865 143.78 69.7332 143.82 69.9798C143.82 70.3132 143.86 70.6465 143.946 71.0132C143.986 71.3465 144.066 71.6798 144.146 72.0132C144.28 72.3398 144.36 72.6665 144.48 72.9998C144.566 73.1998 144.686 73.4131 144.773 73.5798L135.266 69.8998C133.66 69.4465 132.086 69.0332 130.473 68.6598L127.873 68.0399C125.393 67.5465 122.873 67.1732 120.353 66.9265C120.266 66.9265 120.226 66.8865 120.146 66.8865C115.888 66.46 111.601 66.4042 107.333 66.7199C104.813 66.8865 102.293 67.2132 99.7732 67.6265C97.9005 67.9492 96.0394 68.3361 94.1932 68.7865L92.3333 69.2798C91.7199 69.5265 91.1333 69.8132 90.5599 70.0665L89.1933 70.6865C89.1133 70.7265 89.0333 70.7265 88.9933 70.7665C88.5733 70.9732 88.2066 71.1398 87.8333 71.3465C87.2965 71.5833 86.7715 71.8458 86.26 72.1332C85.9733 72.2532 85.6866 72.4198 85.4333 72.5465C85.3149 72.62 85.1925 72.6867 85.0666 72.7465C84.6933 72.9598 84.32 73.1665 83.9866 73.3731C83.6464 73.5612 83.317 73.7682 83 73.9931C82.7067 74.1931 82.42 74.3598 82.1733 74.5665C82.1333 74.6131 82.0867 74.6131 82.0467 74.6531C81.8 74.8198 81.5133 75.0265 81.26 75.2331L81.18 75.3131L80.56 75.8065C80.48 75.8531 80.3933 75.9331 80.3133 75.9731C80.1067 76.1398 79.9 76.3465 79.6934 76.5065C79.6534 76.5931 79.5667 76.6398 79.5267 76.6731C79.28 76.9265 79.0334 77.1331 78.7867 77.3798C78.74 77.3798 78.74 77.4198 78.7 77.4598C78.4431 77.6844 78.1962 77.9201 77.96 78.1664C77.9134 78.2064 77.9134 78.2464 77.8734 78.2464C77.6564 78.4588 77.4495 78.6813 77.2534 78.9131C77.1734 78.9931 77.0534 79.0731 76.9667 79.1531C76.7453 79.415 76.5094 79.6643 76.26 79.8998C76.22 79.9798 76.14 80.0264 76.1 80.0998C75.7667 80.4331 75.48 80.7664 75.1467 81.0998L75.0267 81.2198C74.3601 81.9264 73.6601 82.6264 72.9134 83.2464C72.1734 83.9131 71.3867 84.5264 70.6001 85.0664C69.0206 86.1946 67.316 87.1364 65.5201 87.873C64.6535 88.2464 63.7401 88.5797 62.8335 88.8664C61.1002 89.2397 59.3202 89.9397 57.7935 90.0664C57.4602 90.0664 57.0935 90.1464 56.7602 90.1864L55.7269 90.433L54.7335 90.8064C54.4002 90.933 54.0735 91.0997 53.7469 91.2597C53.4535 91.4663 53.1269 91.633 52.8335 91.8397C52.5394 92.0526 52.263 92.2889 52.0069 92.5463C51.7202 92.7463 51.4269 93.0397 51.1802 93.2863C50.9336 93.573 50.6869 93.8197 50.4802 94.113C50.2736 94.4463 50.0269 94.733 49.8602 95.0663C49.6431 95.3666 49.4492 95.6831 49.2802 96.013C49.1136 96.3863 48.9469 96.7196 48.8269 97.0863C48.7002 97.4196 48.5802 97.793 48.4536 98.1596C48.3736 98.493 48.2869 98.8263 48.2536 99.1596C48.2536 99.193 48.2069 99.2396 48.2069 99.2796C48.1269 99.653 48.1269 100.146 48.0802 100.393C48.0402 100.686 48.0002 100.926 48.0002 101.22C47.9926 101.939 48.162 102.648 48.4936 103.286V103.326C48.6202 103.573 48.7869 103.826 48.9536 104.073C49.1136 104.32 49.2869 104.566 49.4869 104.813C49.6936 105.02 49.9402 105.273 50.1936 105.48C50.4345 105.721 50.6954 105.942 50.9736 106.14C51.9669 107.006 52.2136 107.293 53.4935 107.953C53.7002 108.08 53.9069 108.16 54.1602 108.286C54.2002 108.286 54.2402 108.326 54.2802 108.326C54.2802 108.413 54.2802 108.453 54.3202 108.533C54.4167 109.214 54.5958 109.881 54.8535 110.52C54.9869 110.766 55.0669 111.013 55.1869 111.26C55.2335 111.346 55.2735 111.426 55.3202 111.466C55.4802 111.8 55.6469 112.086 55.8069 112.38L56.4269 113.246C56.6335 113.493 56.8869 113.78 57.1335 114.033C57.3802 114.28 57.6268 114.486 57.9202 114.733C57.9202 114.733 57.9602 114.773 58.0002 114.773C58.2468 114.98 58.4935 115.186 58.7468 115.353C59.0343 115.555 59.3375 115.733 59.6535 115.886C59.9402 116.053 60.2735 116.219 60.6002 116.346C60.8665 116.466 61.1432 116.562 61.4268 116.633C61.4735 116.673 61.5135 116.673 61.5935 116.713C61.7601 116.759 61.9668 116.799 62.1268 116.839C62.0068 119.073 61.9668 121.173 62.3001 121.919C62.6668 122.746 64.4868 120.226 66.3001 117.333C66.0601 120.186 65.8935 123.533 66.3001 124.526C66.7601 125.559 69.2334 122.333 71.3867 118.779C100.687 112.006 127.42 132.246 130.226 160.846C129.693 156.379 124.193 153.906 121.673 154.526C120.433 157.579 118.326 161.506 114.94 163.946C115.226 161.212 115.106 158.413 114.526 155.679C113.601 159.484 111.851 163.039 109.4 166.092C105.48 166.379 101.553 164.479 99.4865 161.626C99.3199 161.506 99.2799 161.259 99.1532 161.092C99.0332 160.806 98.9065 160.512 98.8199 160.226C98.6999 159.949 98.617 159.658 98.5732 159.359C98.5332 159.066 98.5332 158.779 98.5332 158.446V157.826C98.5825 157.533 98.6516 157.243 98.7399 156.959C98.8265 156.673 98.9065 156.386 99.0332 156.093C99.1932 155.806 99.3199 155.513 99.5265 155.226C100.227 153.239 100.227 151.626 98.9465 150.679C98.6979 150.517 98.4346 150.379 98.1599 150.266C97.9999 150.226 97.7932 150.146 97.6265 150.099L97.2932 149.979C97.0102 149.888 96.7204 149.819 96.4266 149.773C96.145 149.69 95.8533 149.648 95.5599 149.646C95.2598 149.599 94.9569 149.572 94.6532 149.566C94.4466 149.566 94.2399 149.606 94.0332 149.606C93.7243 149.604 93.4167 149.647 93.1199 149.733C92.8333 149.773 92.5466 149.813 92.2533 149.893C91.9584 149.972 91.6689 150.07 91.3866 150.186C91.0999 150.306 90.8533 150.433 90.5599 150.559C90.3133 150.679 90.0666 150.846 89.7733 150.973C80.1467 157.253 85.8933 171.959 92.4599 176.219C89.9799 176.672 87.46 177.206 86.76 177.746L86.6733 177.826C88.4533 178.899 90.3133 179.812 92.2533 180.599C94.8999 181.466 97.7066 182.246 98.9465 182.579V182.619C102.37 183.322 105.871 183.573 109.36 183.366C127.666 182.086 142.666 168.159 145.393 149.813L145.64 150.886C145.766 151.633 145.926 152.419 146.013 153.199V153.239C146.093 153.613 146.133 153.986 146.18 154.319V154.479C146.22 154.853 146.26 155.226 146.26 155.559C146.3 156.013 146.34 156.466 146.34 156.919V157.586C146.34 157.786 146.386 158.033 146.386 158.239C146.386 158.493 146.34 158.739 146.34 158.986V159.566C146.34 159.852 146.3 160.099 146.3 160.392C146.3 160.559 146.3 160.726 146.26 160.926C146.26 161.219 146.22 161.506 146.22 161.839C146.18 161.959 146.18 162.086 146.18 162.206L146.046 163.159C146.046 163.286 146.046 163.406 146.013 163.532C145.966 163.946 145.886 164.319 145.846 164.732V164.812L145.6 165.972V166.092L145.353 167.206C145.353 167.252 145.306 167.339 145.306 167.372C145.23 167.751 145.135 168.124 145.02 168.492V168.612C144.893 169.026 144.773 169.399 144.686 169.772C144.646 169.812 144.646 169.852 144.646 169.852L144.273 171.092C144.113 171.506 143.986 171.879 143.82 172.292C143.653 172.706 143.533 173.119 143.366 173.492C143.2 173.906 143.033 174.272 142.873 174.692H142.826C142.666 175.059 142.493 175.472 142.293 175.846C142.258 175.944 142.216 176.04 142.166 176.132C142.126 176.172 142.126 176.219 142.086 176.259C139.353 181.73 135.376 186.484 130.473 190.139C130.14 190.346 129.813 190.599 129.48 190.846C129.4 190.926 129.28 190.966 129.193 191.046C128.897 191.264 128.595 191.473 128.286 191.672L128.406 191.919H128.453L130.186 191.672H130.226C131.3 191.506 132.373 191.299 133.446 191.092C133.74 191.052 134.066 190.966 134.36 190.886L134.94 190.759C135.226 190.719 135.513 190.639 135.806 190.599C136.053 190.512 136.3 190.466 136.546 190.392C140.68 189.392 144.686 188.032 148.533 186.426C141.892 195.471 133.06 202.679 122.866 207.372C127.626 207.039 132.373 206.259 136.96 204.932C153.561 200.051 167.582 188.848 176.006 173.732C174.305 183.301 170.51 192.375 164.893 200.306C168.897 197.664 172.598 194.588 175.926 191.132C185.175 181.476 191.247 169.221 193.326 156.013C194.726 162.546 195.139 169.279 194.526 175.926C224.352 134.319 196.999 91.1797 185.553 79.8198C185.513 79.7331 185.473 79.6931 185.473 79.6131C185.433 79.6531 185.433 79.6531 185.433 79.6931C185.433 79.6531 185.433 79.6531 185.386 79.6131C185.386 80.1064 185.346 80.5998 185.306 81.0998C185.191 82.0253 185.054 82.9478 184.893 83.8664C184.693 84.7731 184.439 85.6864 184.193 86.5997C183.899 87.4664 183.573 88.373 183.193 89.2397C182.815 90.0956 182.403 90.9363 181.959 91.7597C181.037 93.3794 179.973 94.9143 178.779 96.3463C178.159 97.0863 177.499 97.7463 176.833 98.413C176.443 98.7692 176.043 99.1138 175.633 99.4463L174.686 100.273C173.948 100.855 173.176 101.392 172.373 101.88C171.583 102.388 170.769 102.858 169.933 103.286C169.066 103.7 168.199 104.073 167.333 104.446C165.568 105.118 163.741 105.616 161.879 105.933C160.926 106.1 159.979 106.18 159.066 106.266C158.407 106.313 157.747 106.34 157.086 106.346C156.146 106.333 155.208 106.278 154.273 106.18C153.329 106.105 152.391 105.967 151.466 105.766C150.529 105.596 149.605 105.362 148.7 105.066H148.653C149.566 104.98 150.473 104.9 151.386 104.733C153.247 104.41 155.073 103.913 156.839 103.246C157.746 102.913 158.613 102.5 159.439 102.086C160.306 101.673 161.093 101.22 161.919 100.726C162.706 100.193 163.486 99.653 164.233 99.073C164.979 98.493 165.679 97.873 166.339 97.213C167.039 96.593 167.659 95.893 168.279 95.1863C168.899 94.4463 169.479 93.6997 170.013 92.9597C170.099 92.833 170.186 92.6663 170.266 92.5463C170.679 91.8797 171.093 91.2197 171.466 90.5597C172.377 88.9152 173.123 87.1845 173.693 85.3931C173.986 84.5264 174.193 83.6197 174.399 82.7064C174.566 81.7597 174.733 80.8531 174.813 79.9398C174.893 78.9931 174.979 78.0398 174.979 77.1331C174.979 76.4665 174.933 75.8065 174.893 75.1465C174.81 74.221 174.699 73.2984 174.559 72.3798C174.399 71.4484 174.194 70.5252 173.946 69.6132C173.653 68.7465 173.366 67.8332 173.033 66.9665C172.699 66.0999 172.293 65.2332 171.879 64.4065C171.419 63.5799 170.966 62.7532 170.473 61.9666C169.945 61.1942 169.394 60.4383 168.819 59.6999C168.199 58.9933 167.579 58.2866 166.919 57.5866C166.572 57.2319 166.214 56.8873 165.846 56.5533C163.979 55.1066 162.046 53.7466 160.099 52.5066C159.832 52.3524 159.556 52.2144 159.273 52.0933C158.047 51.3429 156.727 50.7532 155.346 50.3533Z" fill="white"/>
</svg>