<svg width="256" height="256" title="Netlify" viewBox="0 0 256 256" fill="none" xmlns="http://www.w3.org/2000/svg" id="netlify">
<style>
#netlify {
    rect {fill: #15191C}

    @media (prefers-color-scheme: light) {
        rect {fill: #F4F2ED}
    }
}
</style>
<rect width="256" height="256" rx="40" fill="#15191C"/>
<path d="M145.654 153.257L102.735 144.288C102.555 144.636 102.355 144.973 102.136 145.297L141.208 202.293L143.565 199.939L150.212 158.602C149.089 158.128 148.092 157.397 147.3 156.469C146.509 155.541 145.945 154.441 145.654 153.256V153.257ZM129.997 97.1519C128.389 99.6183 125.614 101.251 122.453 101.251C121.966 101.251 121.493 101.201 121.028 101.128L101.455 131.753L153.749 109.249C153.732 109.039 153.686 108.842 153.686 108.626C153.686 108.186 153.746 107.759 153.817 107.338L129.997 97.1519ZM131.419 91.571L156.756 102.405C157.564 101.773 158.487 101.307 159.474 101.032L163.639 75.1374L147.773 59.2719L129.915 87.2158C130.79 88.5105 131.309 90.0122 131.419 91.571ZM184.51 96.0089L168.61 80.1058L165.154 101.576C166.03 102.017 166.817 102.616 167.475 103.342L184.51 96.0089ZM146.414 147.602C147.036 146.472 147.93 145.515 149.015 144.818C150.1 144.12 151.341 143.704 152.627 143.607L157.194 115.205C156.836 114.967 156.516 114.683 156.201 114.39L103.607 137.025C103.741 137.575 103.834 138.135 103.878 138.718L146.414 147.602ZM188.842 100.343L170.445 108.259L215.836 127.665L216 127.501L188.842 100.343ZM155.966 158.688L150.437 193.061L182.541 160.957L159.417 156.128C158.53 157.289 157.334 158.176 155.966 158.688ZM93.5636 149.85C92.4015 149.85 91.2886 149.65 90.2468 149.297L79.5827 165.986L75.462 161.868L85.5628 146.063C85.313 145.753 85.0802 145.43 84.8655 145.094L66.5671 152.973L62.2297 148.635L82.259 140.014L46.0483 132.456L41.0957 127.501L42.6625 125.935L84.4198 134.652C84.9 133.741 85.5149 132.907 86.2437 132.18L65.9765 102.618L70.0698 98.5245L91.2441 129.413C92.0045 129.236 92.7823 129.145 93.5629 129.142C94.457 129.142 95.3238 129.268 96.1523 129.481L115.966 98.478C114.353 96.8047 113.452 94.5707 113.453 92.2464C113.453 91.5354 113.544 90.8464 113.7 90.1847L88.9808 79.6163L93.3168 75.2796L116.737 85.2956C117.924 84.3168 119.344 83.6601 120.859 83.3885C122.373 83.117 123.933 83.2398 125.386 83.7452L143.655 55.1539L128.501 40L41 127.501L128.501 215.003L137.112 206.392L97.7472 148.963C96.4297 149.547 95.0047 149.85 93.5636 149.85ZM162.764 116.429L158.118 145.302C158.93 145.955 159.602 146.764 160.095 147.681C160.588 148.599 160.891 149.606 160.986 150.643L187.354 156.147L211.499 132.003L167.918 113.37C166.671 115.03 164.818 116.129 162.764 116.429Z" fill="#25C7B7"/>
</svg>