<svg width="256" height="256" viewBox="0 0 256 256" fill="none" xmlns="http://www.w3.org/2000/svg" id="new-relic">
  <style>
    #new-relic {
        rect {fill: #15191C}
        @media (prefers-color-scheme: light) {
            rect {fill: #F4F2ED}
        }
    }
  </style>
  <rect width="256" height="256" rx="25" fill="#15191C"/>

  <path d="M231 0H25C11.1929 0 0 11.1929 0 25V231C0 244.807 11.1929 256 25 256H231C244.807 256 256 244.807 256 231V25C256 11.1929 244.807 0 231 0Z" fill="#15191C"/>
  <path d="M178.384 98.7664V157.234L127.963 186.467V223L209.915 175.5V80.5L178.384 98.7664Z" fill="#00AC69"/>
  <path d="M127.963 69.545L178.384 98.7664L209.915 80.5L127.963 33L46 80.5L77.531 98.7664L127.963 69.545Z" fill="#1CE783"/>
  <path d="M96.4324 146.279V204.734L127.963 223V128L46 80.5V117.045L96.4324 146.279Z" fill="#1D252C"/>
</svg>
