<svg width="256" height="256" title="Nim" viewBox="0 0 256 256" fill="none" xmlns="http://www.w3.org/2000/svg" id="nim">
<style>
#nim {
    rect {fill: #15191C}

    @media (prefers-color-scheme: light) {
        rect {fill: #F4F2ED}
    }
}
</style>
<rect width="256" height="256" rx="40" fill="#15191C"/>
<path d="M128.635 73C128.635 73 122.504 77.8597 116.254 82.6866C109.824 82.4819 97.2139 83.9258 90.381 86.4186C84.0864 82.4185 78.5555 78.0021 78.5555 78.0021C78.5555 78.0021 73.8293 86.1581 70.8571 90.9443C66.4491 93.2958 62.0236 95.9407 58.0793 99.4401C53.4917 97.6127 48.1736 95.3849 48 95.3113C54.0754 107.603 58.1596 119.911 69.2698 127.309C86.9578 99.2881 169.153 101.871 187.206 127.15C198.874 121.046 203.412 107.913 208 95.7876C207.497 95.9539 201.254 98.0505 197.206 99.5988C194.79 96.96 189.094 92.9028 185.857 90.9443C182.786 85.3041 178.317 77.6846 178.317 77.6846C178.317 77.6846 173.024 81.6335 166.889 85.9421C158.6 84.4073 148.575 82.5425 140.143 83.0043C134.403 78.2718 128.635 73 128.635 73Z" fill="#F3D400"/>
<path d="M54.2815 121.434C54.2815 121.434 62.8926 142.348 68.873 156.88C94.2146 190.417 158.927 192.748 187.138 157.53C193.814 142.438 202.82 121.23 202.82 121.23C195.583 131.985 183.804 139.409 176.55 143.408C171.395 146.241 159.501 147.953 159.501 147.953L128.275 131.722L96.869 147.628C96.869 147.628 85.1331 145.737 79.8202 143.246C69.0971 137.504 61.885 130.72 54.2815 121.434Z" fill="#FFE953"/>
</svg>