<svg width="256" height="256" title="Nmap" viewBox="0 0 256 256" fill="none" xmlns="http://www.w3.org/2000/svg" id="nmap">
<style>
#nmap {
    rect {fill: #15191C}

    @media (prefers-color-scheme: light) {
        rect {fill: #F4F2ED}
    }
}
</style>
<rect width="256" height="256" rx="40" fill="#15191C"/>
<path d="M203.39 118.716C192.635 113.745 165.5 87 128 87C90.5 87 63.365 113.745 52.61 118.716C40.115 124.491 38 131.824 38 135.559C38 139.294 41.75 146.765 56.75 146.765C71.75 146.765 101.904 166.816 113 168.661C123.957 170.484 128 169.916 128 169.916C128 169.916 132.043 170.484 143 168.661C154.096 166.816 184.25 146.765 199.25 146.765C214.25 146.765 218 139.294 218 135.559C218 131.824 215.885 124.491 203.39 118.716Z" fill="#B3E5FC"/>
<path d="M56.75 146.765C71.75 146.765 101.904 166.816 113 168.661C123.957 170.484 128 169.916 128 169.916C128 169.916 132.043 170.484 143 168.661C154.096 166.816 184.25 146.765 199.25 146.765C214.25 146.765 218 139.294 218 135.559H38C38 139.294 41.75 146.765 56.75 146.765Z" fill="#81D4FA"/>
<path d="M181.4 122.258C167.675 112.662 153.691 101.945 128 101.941H127.992C102.301 101.945 88.3175 112.662 74.5925 122.258C63.3125 130.139 52.9887 132.982 52.9887 135.559C52.9887 139.294 56.525 137.483 64.2725 138.652C71.75 139.78 105.492 156.813 127.992 156.82H127.996C150.496 156.817 184.242 139.784 191.72 138.656C199.467 137.483 203.004 139.294 203.004 135.559C203.004 132.982 192.68 130.139 181.4 122.258Z" fill="#E1F5FE"/>
<path d="M161.75 124.353C161.75 118.279 160.108 112.598 157.28 107.679C149.266 104.257 139.899 101.941 128 101.941H127.992C116.101 101.941 106.734 104.253 98.7238 107.675C95.8925 112.594 94.25 118.276 94.25 124.353C94.25 138.267 102.736 150.209 114.837 155.315C119.442 156.241 123.905 156.817 127.992 156.817H127.996C132.088 156.817 136.557 156.241 141.166 155.311C153.264 150.205 161.75 138.267 161.75 124.353Z" fill="#81D4FA"/>
<path d="M128 139.294C135.249 139.294 141.125 133.441 141.125 126.221C141.125 119 135.249 113.147 128 113.147C120.751 113.147 114.875 119 114.875 126.221C114.875 133.441 120.751 139.294 128 139.294Z" fill="#455A64"/>
<path d="M128 129.956C130.071 129.956 131.75 128.284 131.75 126.221C131.75 124.158 130.071 122.485 128 122.485C125.929 122.485 124.25 124.158 124.25 126.221C124.25 128.284 125.929 129.956 128 129.956Z" fill="#B3E5FC"/>
<path d="M143 116.882C145.071 116.882 146.75 115.21 146.75 113.147C146.75 111.084 145.071 109.412 143 109.412C140.929 109.412 139.25 111.084 139.25 113.147C139.25 115.21 140.929 116.882 143 116.882Z" fill="#E1F5FE"/>
<path d="M67.655 132.776C66.8675 131.002 65.0187 129.896 62.8962 129.202C57.0687 132.212 52.9887 133.938 52.9887 135.559C52.9887 139.294 56.525 137.483 64.2725 138.652C64.7375 138.723 65.3075 138.854 65.9675 139.04C67.5725 137.348 68.7162 135.167 67.655 132.776Z" fill="#4FC3F7"/>
<path d="M188.337 132.787C189.125 131.013 190.974 129.907 193.096 129.213C198.924 132.227 203.004 133.953 203.004 135.574C203.004 139.309 199.468 137.498 191.72 138.667C191.255 138.738 190.685 138.868 190.025 139.055C188.416 137.363 187.276 135.182 188.337 132.787Z" fill="#4FC3F7"/>
</svg>