<svg width="256" height="256" title="Noctalia" viewBox="0 0 256 256" fill="none" xmlns="http://www.w3.org/2000/svg" id="noctalia">
<style>
#noctalia {
    rect {fill: #15191C}

    @media (prefers-color-scheme: light) {
        rect {fill: #F4F2ED}
    }
}
</style>
<rect width="256" height="256" rx="40" fill="#15191C"/>
<path d="M128.8 52C86.9407 52.0093 53.0093 85.9406 53.0001 127.8C52.9981 169.667 86.9327 203.611 128.8 203.62C164.946 203.533 196.004 177.94 203 142.478C196.563 158.761 183.781 171.727 167.59 178.394C167.606 181.27 167.631 183.914 167.631 185.925C159.966 185.925 153.369 184.869 147.709 183.111C146.189 183.287 144.662 183.408 143.133 183.475C107.52 183.477 78.6489 154.606 78.6511 118.993C78.6489 83.3795 107.52 54.5085 143.133 54.5106C145.128 54.5129 147.121 54.6081 149.106 54.7946C142.495 52.9482 135.664 52.0081 128.8 52ZM96.2665 83.9871C97.7674 88.5852 100.79 93.1181 104.844 94.8371C103.713 98.2454 103.708 102.292 103.708 106.626C103.708 116.003 110.37 123.999 119.754 127.182C116.334 126.749 113.202 125.905 110.753 124.207C106.276 125.006 104.396 129.984 104.798 135.798C107.669 177.262 133.923 174.58 134.159 174.512C114.95 165.14 118.097 149.863 117.466 144.996C118.257 153.234 127.069 176.685 159.948 176.685C159.948 166.802 159.996 141.412 156.795 133.584C155.787 130.534 153.035 122.376 149.684 121.463C146.967 124.511 143.009 126.124 138.333 126.926C147.329 123.583 153.646 115.757 153.646 106.626C153.646 102.292 153.641 98.2454 152.51 94.8371C156.564 93.1181 159.587 88.5852 161.088 83.9871C156.188 83.9114 148.392 85.7143 141.739 85.9258C138.408 85.0586 134.132 84.5814 128.676 84.5756C123.221 84.5816 118.946 85.0586 115.615 85.9258C108.962 85.7143 101.166 83.9117 96.2665 83.9871Z" fill="white" stroke="#0E0E43" stroke-width="10" stroke-miterlimit="9.1" stroke-linecap="round" stroke-linejoin="round"/>
<path d="M128.8 52.0003C108.698 52.0048 89.4204 59.9923 75.2062 74.2065C60.9919 88.4207 53.0045 107.698 53 127.8C52.9991 147.905 60.9842 167.188 75.199 181.406C89.4138 195.625 108.694 203.615 128.8 203.62C146.329 203.578 163.302 197.462 176.831 186.315C190.359 175.167 199.607 159.676 203 142.478C199.814 150.537 195.036 157.871 188.952 164.042C182.868 170.213 175.603 175.094 167.59 178.394C167.606 181.269 167.631 183.914 167.631 185.925C159.966 185.925 153.369 184.869 147.709 183.111C146.189 183.287 144.662 183.408 143.133 183.475C134.665 183.476 126.28 181.808 118.457 178.568C110.633 175.328 103.524 170.578 97.5365 164.59C91.5486 158.602 86.7989 151.494 83.5585 143.67C80.3182 135.846 78.6506 127.461 78.6511 118.993C78.6506 110.525 80.3182 102.14 83.5585 94.3162C86.7989 86.4926 91.5486 79.3839 97.5365 73.3961C103.524 67.4083 110.633 62.6586 118.457 59.4182C126.28 56.1778 134.665 54.5103 143.133 54.5108C145.128 54.5129 147.121 54.6074 149.106 54.7942C142.495 52.948 135.664 52.0081 128.8 52.0003Z" fill="#FFF59B"/>
<path d="M149.684 121.463C145.24 126.449 137.483 127.607 128.67 127.632C121.971 127.613 115.236 127.316 110.753 124.207C106.275 125.006 104.396 129.984 104.798 135.798C107.669 177.262 133.924 174.58 134.159 174.512C114.95 165.14 118.097 149.863 117.466 144.996C118.257 153.234 127.069 176.685 159.947 176.685C159.947 166.802 159.996 141.412 156.795 133.584C155.786 130.534 153.035 122.376 149.684 121.463Z" fill="#A9AEFE"/>
<path d="M148.394 92.8475H108.333V118.778H148.394V92.8475Z" fill="#F3EDF7"/>
<path d="M96.2662 83.9875C97.7671 88.5856 100.79 93.1177 104.844 94.8367C103.713 98.245 103.708 102.292 103.708 106.626C103.708 118.772 114.882 128.61 128.677 128.657C142.471 128.61 153.646 118.772 153.646 106.626C153.646 102.292 153.641 98.245 152.51 94.8367C156.564 93.1177 159.587 88.5856 161.087 83.9875C156.188 83.9123 148.392 85.7147 141.739 85.9262C138.408 85.059 134.132 84.5808 128.677 84.575C123.221 84.5809 118.946 85.059 115.615 85.9262C108.962 85.7147 101.166 83.9121 96.2662 83.9875ZM112.971 95.4438C114.34 95.4097 116.175 95.5967 118.65 96.0509C120.307 96.3548 122.405 97.166 123.663 97.9113C126.007 99.2996 126.31 100.888 128.677 100.888C131.044 100.888 131.347 99.2996 133.69 97.9113C134.948 97.166 137.047 96.3548 138.704 96.0509C150.02 93.9748 148.123 97.3423 148.123 103.042C148.123 108.926 143.354 113.696 137.47 113.696C135.589 113.686 133.745 113.18 132.124 112.227C132.085 112.31 132.052 112.387 132.006 112.462L129.617 116.339C129.357 116.761 129.016 116.974 128.677 116.966C128.338 116.974 127.996 116.761 127.737 116.339L125.348 112.462C125.302 112.387 125.268 112.31 125.23 112.227C123.609 113.18 121.764 113.686 119.884 113.696C114 113.696 109.23 108.926 109.23 103.042C109.23 98.5892 108.081 95.5661 112.971 95.4438Z" fill="#A9AEFE"/>
<path d="M124.148 106.697C123.717 107.443 123.098 108.063 122.351 108.493C121.605 108.924 120.759 109.151 119.897 109.151C119.036 109.151 118.189 108.924 117.443 108.493C116.697 108.063 116.077 107.443 115.646 106.697" stroke="#0E0E43" stroke-width="3" stroke-miterlimit="9.1" stroke-linecap="round"/>
<path d="M141.707 106.697C141.277 107.443 140.657 108.063 139.911 108.493C139.165 108.924 138.318 109.151 137.457 109.151C136.595 109.151 135.748 108.924 135.002 108.493C134.256 108.063 133.636 107.443 133.206 106.697" stroke="#0E0E43" stroke-width="3" stroke-miterlimit="9.1" stroke-linecap="round"/>
</svg>