<svg width="256" height="256" title="Node.js" viewBox="0 0 256 256" fill="none" xmlns="http://www.w3.org/2000/svg" id="nodejs">
<style>
#nodejs {
    rect {fill: #15191C}

    @media (prefers-color-scheme: light) {
        rect {fill: #F4F2ED}
    }
}
</style>
<rect width="256" height="256" rx="40" fill="#15191C"/>
<path d="M127.989 218.428C125.576 218.428 123.17 217.796 121.057 216.571L98.9853 203.512C95.6925 201.671 97.3013 201.016 98.3839 200.633C102.782 199.107 103.669 198.754 108.367 196.092C108.856 195.814 109.503 195.919 110.006 196.22L126.966 206.286C127.583 206.625 128.447 206.625 129.011 206.286L195.13 168.126C195.746 167.773 196.137 167.066 196.137 166.337V90.0321C196.137 89.2879 195.739 88.5887 195.107 88.2128L129.019 50.0829C128.41 49.7295 127.598 49.7295 126.981 50.0829L60.908 88.2204C60.2689 88.5887 59.863 89.3104 59.863 90.0321V166.337C59.863 167.066 60.2689 167.758 60.908 168.104L79.0182 178.569C88.8439 183.485 94.8656 177.696 94.8656 171.878V96.5425C94.8656 95.475 95.7226 94.6405 96.7901 94.6405H105.172C106.217 94.6405 107.089 95.4825 107.089 96.5425V171.878C107.089 184.996 99.9476 192.514 87.5132 192.514C83.6942 192.514 80.6796 192.514 72.2823 188.372L54.9314 178.396C50.6462 175.922 48 171.291 48 166.337V90.0321C48 85.0779 50.6538 80.447 54.9314 77.9812L121.05 39.7761C125.237 37.408 130.793 37.408 134.943 39.7761L201.054 77.9812C205.339 80.4545 208 85.0779 208 90.0321V166.337C208 171.291 205.339 175.907 201.054 178.396L134.943 216.571C132.838 217.796 130.44 218.428 127.989 218.428ZM181.372 143.198C181.372 128.914 171.719 125.11 151.399 122.426C130.868 119.712 128.778 118.306 128.778 113.503C128.778 109.533 130.545 104.233 145.753 104.233C159.338 104.233 164.344 107.158 166.404 116.314C166.585 117.179 167.374 117.81 168.261 117.81H176.839C177.373 117.81 177.876 117.577 178.237 117.201C178.598 116.795 178.794 116.277 178.741 115.728C177.41 99.9555 166.931 92.6032 145.753 92.6032C126.899 92.6032 115.652 100.557 115.652 113.901C115.652 128.373 126.839 132.372 144.934 134.161C166.585 136.281 168.261 139.446 168.261 143.701C168.261 151.091 162.33 154.241 148.399 154.241C130.906 154.241 127.057 149.851 125.763 141.145C125.613 140.213 124.816 139.529 123.861 139.529H115.314C114.254 139.529 113.404 140.371 113.404 141.431C113.404 152.572 119.464 165.849 148.399 165.849C169.359 165.856 181.372 157.609 181.372 143.198Z" fill="#5FA04E"/>
</svg>