<svg width="256" height="256" title="Node-RED" viewBox="0 0 256 256" fill="none" xmlns="http://www.w3.org/2000/svg">
<rect width="256" height="256" rx="40" fill="#8F0000"/>
<path d="M51.4294 126.746C51.4968 115.082 42.1275 105.808 30.4838 105.808H0V120.119H30.4838C34.4151 120.119 37.7143 122.974 37.7143 126.913V147.662C37.7143 151.6 34.4152 155.036 30.4838 155.036H0V168.773H30.4838C42.1275 168.773 51.4289 159.326 51.4289 147.662L51.4286 137.971C99.6026 138.662 113.622 151.209 128.954 164.638C143.72 177.573 160.279 191.476 203.428 191.819L203.43 196.575C203.435 208.238 212.973 218 224.616 218H256V203.117H224.616C220.685 203.117 217.714 200.513 217.714 196.574V175.825C217.714 171.887 220.685 168.772 224.616 168.772H256V155.035H224.616C212.973 155.035 203.435 164.161 203.43 175.825L203.428 180.74C162.651 180.605 151.069 169.278 136.239 156.288C123.586 145.203 108.716 133.016 75.9554 128.583C76.2401 128.338 76.5028 128.1 76.7776 127.848C83.0853 122.054 86.4867 115.053 89.8144 109.009C93.1419 102.964 96.2729 97.9202 101.401 94.3941C105.562 91.5335 111.479 89.401 120.572 89.0053L120.572 93.857C120.575 105.521 129.965 115.537 141.609 115.537H225.8C237.444 115.537 246.858 105.521 246.858 93.857V73.1073C246.858 61.4436 237.444 52 225.8 52H141.609C129.966 52 120.567 61.4431 120.572 73.1073L120.575 77.9201C109.601 78.3617 101.284 81.0295 95.1454 85.2496C87.7015 90.3679 83.5916 97.3624 80.1247 103.659C76.6583 109.955 73.7243 115.597 69.2906 119.67C65.4315 123.215 60.0942 125.952 51.429 126.973L51.4294 126.746ZM141.606 66.3093H225.797C229.728 66.3093 232.569 69.1685 232.569 73.1067V93.8564C232.569 97.7945 229.728 100.654 225.797 100.654H141.606C137.675 100.654 134.285 97.7947 134.285 93.8564V73.1067C134.285 69.1686 137.675 66.3093 141.606 66.3093Z" fill="white"/>
</svg>