<svg width="256" height="256" viewBox="0 0 256 256" fill="none" xmlns="http://www.w3.org/2000/svg" id="notion">
<style>
#notion {
    rect {fill: #15191C}

    @media (prefers-color-scheme: light) {
        rect {fill: #F4F2ED}
    }
}
</style>
<rect width="256" height="256" rx="25" fill="#15191C"/>
<path d="M65.1153 58.5357L148.941 52.3442C159.238 51.461 161.883 52.0563 168.358 56.7632L195.116 75.6135C199.529 78.8555 200.998 79.7387 200.998 83.2684V186.652C200.998 193.131 198.646 196.964 190.409 197.549L93.0658 203.445C86.8849 203.737 83.9414 202.854 80.704 198.729L60.9993 173.105C57.4649 168.389 56 164.86 56 160.733V68.8372C56 63.5395 58.3527 59.122 65.1153 58.5357Z" fill="white"/>
<path fill-rule="evenodd" clip-rule="evenodd" d="M148.941 52.3457L65.1153 58.5372C58.3527 59.122 56 63.541 56 68.8372V160.733C56 164.858 57.4649 168.388 60.9993 173.105L80.704 198.727C83.9414 202.852 86.8849 203.737 93.0658 203.443L190.411 197.55C198.641 196.964 201 193.131 201 186.653V83.27C201 79.922 199.677 78.957 195.784 76.0998L168.358 56.7632C161.885 52.0563 159.238 51.461 148.941 52.3442V52.3457ZM95.267 81.5778C87.3181 82.1126 85.5154 82.2338 81.0009 78.5631L69.5238 69.4341C68.3573 68.2525 68.9436 66.7784 71.8825 66.4845L152.466 60.596C159.233 60.0052 162.757 62.3639 165.404 64.4242L179.224 74.4379C179.815 74.7364 181.285 76.4982 179.517 76.4982L96.2971 81.5081L95.267 81.5778ZM86.0002 185.77V98.0057C86.0002 94.1729 87.1773 92.405 90.701 92.1081L186.284 86.5119C189.526 86.2195 190.991 88.2798 190.991 92.1065V179.286C190.991 183.119 190.4 186.361 185.108 186.653L93.6415 191.956C88.3498 192.248 86.0017 190.486 86.0017 185.77H86.0002ZM176.29 102.711C176.876 105.362 176.29 108.013 173.639 108.316L169.23 109.19V173.989C165.402 176.049 161.878 177.226 158.933 177.226C154.227 177.226 153.051 175.752 149.526 171.337L120.697 125.98V169.863L129.816 171.928C129.816 171.928 129.816 177.23 122.458 177.23L102.174 178.408C101.583 177.226 102.174 174.282 104.229 173.696L109.527 172.227V114.205L102.175 113.609C101.584 110.958 103.054 107.13 107.174 106.833L128.939 105.368L158.935 151.312V110.666L151.289 109.787C150.698 106.541 153.051 104.182 155.99 103.894L176.29 102.711Z" fill="black"/>
</svg>