<svg width="256" height="256" title="Notion" viewBox="0 0 256 256" fill="none" xmlns="http://www.w3.org/2000/svg" id="notion">
<style>
#notion {
    rect {fill: #15191C}
    path {fill: white}

    @media (prefers-color-scheme: light) {
        rect {fill: #F4F2ED}
        path {fill: black}
    }
}
</style>
<rect width="256" height="256" rx="40" fill="#15191C"/>
<path fill-rule="evenodd" clip-rule="evenodd" d="M150.555 45.38L58.056 52.1994C50.5991 52.8465 48 57.7313 48 63.5556V164.864C48 169.415 49.6193 173.305 53.518 178.503L75.2632 206.754C78.8283 211.298 82.0738 212.279 88.8982 211.938L196.318 205.453C205.401 204.806 208 200.582 208 193.436V79.4696C208 75.7816 206.541 74.71 202.239 71.5718L201.502 71.029L171.98 50.251C164.843 45.06 161.903 44.4059 150.555 45.38ZM91.3375 77.5978C82.5602 78.1962 80.5726 78.3284 75.5898 74.2786L62.9207 64.2027C61.6281 62.9015 62.2814 61.2802 65.5268 60.9601L154.454 54.4678C161.917 53.8137 165.809 56.4162 168.728 58.6847L183.982 69.7278C184.629 70.0548 186.248 71.9962 184.309 71.9962L92.4634 77.5213L91.3375 77.5978ZM81.1008 192.468V95.7038C81.1008 91.4869 82.4004 89.5386 86.2991 89.2115L191.766 83.0463C195.345 82.7192 196.964 84.9947 196.964 89.2115V185.308C196.964 189.546 196.318 193.116 190.473 193.436L89.5445 199.281C83.693 199.608 81.1008 197.666 81.1008 192.461V192.468ZM180.744 100.895C181.39 103.831 180.744 106.754 177.811 107.088L172.953 108.055V179.477C168.728 181.752 164.836 183.047 161.591 183.047C156.399 183.047 155.1 181.432 151.201 176.561L119.4 126.565V174.94L129.463 177.215C129.463 177.215 129.463 183.061 121.339 183.061L98.9543 184.355C98.301 183.054 98.9543 179.804 101.227 179.157L107.064 177.542V113.559L98.9543 112.912C98.308 109.99 99.9272 105.773 104.472 105.446L128.49 103.831L161.591 154.482V109.669L153.154 108.695C152.501 105.126 155.1 102.523 158.345 102.203L180.744 100.902V100.895Z" fill="white"/>
</svg>