<svg width="256" height="256" title="NumPy" viewBox="0 0 256 256" fill="none" xmlns="http://www.w3.org/2000/svg" id="numpy">
<style>
#numpy {
    rect {fill: #15191C}

    @media (prefers-color-scheme: light) {
        rect {fill: #F4F2ED}
    }
}
</style>
<rect width="256" height="256" rx="40" fill="#15191C"/>
<path d="M116.745 80.7129L89.9645 67.138L60.566 81.8719L88.0748 95.7437L116.745 80.7129Z" fill="#4DABCF"/>
<path d="M129.028 86.9353L157.106 101.177L127.975 115.867L100.423 101.973L129.028 86.9353Z" fill="#4DABCF"/>
<path d="M166.533 67.3409L195.384 81.8719L169.577 94.8817L141.441 80.6259L166.533 67.3409Z" fill="#4DABCF"/>
<path d="M154.113 61.0822L128.141 48L102.449 60.8794L129.215 74.4325L154.113 61.0822Z" fill="#4DABCF"/>
<path d="M133.81 173.404V209L165.271 193.23L165.242 157.62L133.81 173.404Z" fill="#4DABCF"/>
<path d="M165.228 145.19L165.192 109.956L133.81 125.624V160.872L165.228 145.19Z" fill="#4DABCF"/>
<path d="M203 138.591V174.324L176.162 187.769L176.14 152.202L203 138.591Z" fill="#4DABCF"/>
<path d="M203 126.095V91.0787L176.111 104.501L176.133 139.808L203 126.095Z" fill="#4DABCF"/>
<path d="M122.702 125.624L101.512 114.918V161.162C101.512 161.162 75.5898 105.776 73.1952 100.8C72.8851 100.155 71.6157 99.4525 71.2911 99.2786C66.6174 96.8302 53 89.9052 53 89.9052V171.637L71.8393 181.778V139.04C71.8393 139.04 97.48 188.529 97.7468 189.072C98.0137 189.616 100.574 194.824 103.329 196.657C106.986 199.098 122.688 208.58 122.688 208.58L122.702 125.624Z" fill="#4D77CF"/>
</svg>