<svg width="256" height="256" title="Nuxt.js" viewBox="0 0 256 256" fill="none" xmlns="http://www.w3.org/2000/svg" id="nuxtjs">
<style>
#nuxtjs {
    rect {fill: #15191C}

    @media (prefers-color-scheme: light) {
        rect {fill: #F4F2ED}
    }
}
</style>
<rect width="256" height="256" rx="40" fill="#15191C"/>
<path d="M139.176 185.179H204.231C206.298 185.179 208.328 184.652 210.117 183.65C211.895 182.659 213.381 181.217 214.425 179.47C215.455 177.744 215.999 175.771 216 173.761C215.998 171.75 215.452 169.778 214.42 168.053L170.73 94.6513C169.686 92.9048 168.201 91.4638 166.423 90.4731C164.625 89.4683 162.599 88.9413 160.539 88.9426C158.473 88.9426 156.444 89.4705 154.654 90.4724C152.877 91.4633 151.391 92.9045 150.347 94.6513L139.176 113.433L117.335 76.7079C116.29 74.9614 114.804 73.5204 113.026 72.5298C111.227 71.5254 109.201 70.9987 107.141 71C105.074 71 103.045 71.5272 101.255 72.5291C99.4766 73.5197 97.9905 74.9606 96.9453 76.7072L42.5808 168.054C41.5491 169.779 41.0029 171.751 41 173.761C40.9993 175.765 41.5425 177.735 42.575 179.47C43.6192 181.217 45.105 182.659 46.8829 183.65C48.6723 184.652 50.7023 185.179 52.7688 185.179H93.6043C109.784 185.179 121.717 178.286 129.926 164.836L149.859 131.352L160.536 113.433L192.578 167.26H149.859L139.176 185.179ZM92.9385 167.241L64.4405 167.235L107.159 95.4694L128.474 131.352L114.203 155.335C108.751 164.061 102.557 167.241 92.9385 167.241Z" fill="#00DC82"/>
</svg>