<svg width="256" height="256" title="OAuth" viewBox="0 0 256 256" fill="none" xmlns="http://www.w3.org/2000/svg" id="oauth">
<style>
#oauth {
    rect {fill: #15191C}

    @media (prefers-color-scheme: light) {
        rect {fill: #F4F2ED}
    }
}
</style>
<rect width="256" height="256" rx="40" fill="#15191C"/>
<path d="M123.248 48.2322C158.687 45.7803 182.186 63.0841 195.622 84.1669C202.359 94.7377 208.969 110.792 209 127.288C209.032 145.211 203.213 160.733 195.622 172.122C187.821 183.827 177.73 193.495 165.095 199.843C143.973 210.454 114.454 210.745 95.1204 200.527C73.5882 189.149 57.0328 172.907 50.8722 144.742C48.4067 133.472 48.1234 118.908 51.5581 106.412C52.3642 103.481 53.829 100.396 54.9884 97.5142C60.5603 83.6641 70.0442 71.6203 81.7431 63.2904C86.444 59.9433 92.147 56.6144 97.1786 54.3922C103.439 51.6275 113.98 48.8732 123.248 48.2322Z" fill="white"/>
<path d="M191.894 129.011C191.894 163.553 163.893 191.552 129.352 191.552C94.8108 191.552 66.8101 163.553 66.8101 129.011C66.8101 94.4707 94.8108 66.4691 129.352 66.4691C163.892 66.4691 191.894 94.4707 191.894 129.011Z" fill="black"/>
<path d="M122.568 45.24C159.115 42.7058 183.348 60.5907 197.204 82.3815C204.152 93.3073 210.968 109.901 211 126.951C211.033 145.476 205.032 161.519 197.204 173.29C189.159 185.388 178.753 195.381 165.723 201.942C143.941 212.91 113.5 213.21 93.5617 202.649C71.3566 190.889 54.2838 174.102 47.9307 144.991C45.3882 133.342 45.096 118.289 48.6381 105.374C49.4693 102.344 50.9799 99.1559 52.1756 96.177C57.9216 81.8618 67.7019 69.4136 79.7664 60.8039C84.6142 57.3444 90.4954 53.9037 95.6842 51.6069C102.14 48.7493 113.011 45.9025 122.568 45.24ZM110.187 51.2535C96.612 54.773 86.6585 61.0784 77.9978 67.8788C65.509 77.6847 57.5475 91.3689 52.883 107.85C47.6936 126.186 51.027 148.375 58.189 162.324C65.616 176.791 75.5882 188.02 89.6708 195.928C103.371 203.623 122.642 208.563 142.73 204.772C160.579 201.403 174.135 193.628 185.178 182.133C199.953 166.753 211.828 138.426 203.926 108.557C201.813 100.575 199.052 92.2547 194.729 85.2112C192.393 81.4061 188.965 77.6627 185.532 73.892C172.572 59.6603 151.627 47.3965 124.69 49.1309C119.564 49.4609 115.058 49.9902 110.187 51.2535Z" fill="black"/>
<path d="M133.134 204.019L205.404 131.75" stroke="white" stroke-width="1.78766"/>
<path d="M126.816 198.295L199.401 125.711" stroke="white" stroke-width="1.78766"/>
<path d="M120.498 192.573L193.399 119.673" stroke="white" stroke-width="1.78766"/>
<path d="M114.18 186.849L187.396 113.634" stroke="white" stroke-width="1.78766"/>
<path d="M107.862 181.126L181.394 107.595" stroke="white" stroke-width="1.78766"/>
<path d="M101.544 175.404L175.391 101.557" stroke="white" stroke-width="1.78766"/>
<path d="M95.2256 169.68L169.388 95.518" stroke="white" stroke-width="1.78766"/>
<path d="M88.9073 163.956L163.385 89.4791" stroke="white" stroke-width="1.78766"/>
<path d="M82.5892 158.233L157.381 83.4406" stroke="white" stroke-width="1.78766"/>
<path d="M76.2715 152.51L151.38 77.402" stroke="white" stroke-width="1.78766"/>
<path d="M69.9532 146.787L145.377 71.3634" stroke="white" stroke-width="1.78766"/>
<path d="M63.6353 141.064L139.375 65.3246" stroke="white" stroke-width="1.78766"/>
<path d="M57.317 135.34L133.372 59.286" stroke="white" stroke-width="1.78766"/>
<path d="M50.9989 129.617L127.369 53.2474" stroke="white" stroke-width="1.78766"/>
<path d="M50.9744 130.348L124.689 204.066" stroke="white" stroke-width="1.78766"/>
<path d="M56.9523 124.284L130.81 198.146" stroke="white" stroke-width="1.78766"/>
<path d="M62.9303 118.221L136.932 192.225" stroke="white" stroke-width="1.78766"/>
<path d="M68.9082 112.158L143.053 186.306" stroke="white" stroke-width="1.78766"/>
<path d="M74.8857 106.094L149.174 180.385" stroke="white" stroke-width="1.78766"/>
<path d="M80.8636 100.031L155.296 174.465" stroke="white" stroke-width="1.78766"/>
<path d="M86.8416 93.9674L161.417 168.545" stroke="white" stroke-width="1.78766"/>
<path d="M92.8193 87.9041L167.538 162.625" stroke="white" stroke-width="1.78766"/>
<path d="M98.7971 81.8407L173.66 156.705" stroke="white" stroke-width="1.78766"/>
<path d="M104.775 75.7773L179.781 150.785" stroke="white" stroke-width="1.78766"/>
<path d="M110.753 69.7139L185.902 144.865" stroke="white" stroke-width="1.78766"/>
<path d="M116.731 63.6506L192.024 138.945" stroke="white" stroke-width="1.78766"/>
<path d="M122.708 57.5875L198.145 133.025" stroke="white" stroke-width="1.78766"/>
<path d="M128.687 51.524L204.267 127.105" stroke="white" stroke-width="1.78766"/>
<path d="M181.287 74.2457C174.782 67.7412 166.785 61.8799 157.233 58.3278C147.332 54.6459 136.131 51.5424 122.921 52.6681C101.879 54.4617 87.104 63.9029 75.8752 74.9531C68.0101 82.6927 62.0939 92.1769 58.1887 103.251C52.4548 119.512 52.8027 138.705 59.2499 155.25C64.7492 169.362 73.7501 180.744 86.487 189.561C98.4607 197.851 115.646 204.28 134.948 202.649C158.457 200.664 175.658 188.603 186.946 174.705C189.834 171.149 192.706 167.131 194.374 162.324C196.009 158.861 196.809 156.507 197.558 155.25C200.693 148.225 202.354 140.812 202.863 132.611C204.431 107.387 194.726 87.685 181.287 74.2457ZM174.358 151.095C174.313 151.191 174.273 151.281 174.226 151.38C173.06 154.717 171.051 157.507 169.032 159.977C161.137 169.627 149.109 178.002 132.669 179.381C119.17 180.513 107.153 176.049 98.7794 170.293C91.5033 165.291 85.9722 159.099 82.0938 151.658C81.8572 151.211 79.6048 146.021 79.5982 145.793C76.5255 136.262 76.2589 120.938 79.4126 111.741C81.5173 105.603 85.025 98.9624 89.6707 93.701C96.0851 86.4361 102.504 81.781 112.663 78.4906C117.302 76.988 121.454 75.4587 127.166 75.3071C141.094 74.9363 155.277 81.1899 162.893 88.0412C169.891 94.3373 177.867 106.602 179.872 118.108C181.935 129.951 179.733 141.514 174.358 151.095Z" fill="black"/>
<path d="M150.149 162.456C146.719 162.456 143.71 160.284 142.659 157.051L138.839 145.411H119.729L116.18 156.945C115.109 160.24 112.076 162.446 108.629 162.446C107.801 162.446 106.979 162.315 106.185 162.058C102.065 160.821 99.7255 156.386 100.988 152.177L117.118 101.084C118.165 97.8341 121.249 95.567 124.617 95.567H133.194C136.581 95.567 139.664 97.7955 140.691 100.986L157.654 152.06C159.011 156.236 156.764 160.718 152.65 162.058C151.836 162.322 150.995 162.456 150.149 162.456Z" fill="white" stroke="black" stroke-width="5.36298"/>
<path d="M86.8032 79.2839L86.7831 79.2566C84.7716 76.4999 85.3619 72.6435 88.3243 70.4815C91.2866 68.3197 95.092 68.9265 97.1035 71.683L97.1236 71.7103C99.1351 74.4669 98.5449 78.3236 95.5825 80.4854C92.6201 82.6471 88.8147 82.0406 86.8032 79.2839ZM94.4282 73.7195L94.408 73.6922C93.3973 72.3071 91.5154 71.8307 90.0482 72.9015C88.5944 73.9624 88.4814 75.8523 89.4921 77.2377L89.5122 77.265C90.5232 78.6501 92.4048 79.1265 93.8586 78.0656C95.3261 76.9948 95.4391 75.1049 94.4282 73.7195Z" fill="white"/>
<path d="M106.196 61.2156L109.219 60.2457L117.694 70.0974L114.331 71.1762L112.859 69.4201L108.494 70.8206L108.334 73.1009L105.036 74.159L106.196 61.2156ZM111.17 67.2694L108.877 64.4567L108.632 68.0838L111.17 67.2694Z" fill="white"/>
<path d="M123.138 64.1794L123.165 57.5067L126.51 57.5199L126.483 64.1248C126.477 65.8396 127.339 66.6579 128.664 66.6634C129.988 66.6686 130.857 65.8912 130.863 64.2274L130.89 57.5379L134.235 57.5511L134.209 64.1389C134.194 67.976 131.997 69.6484 128.618 69.6349C125.239 69.6211 123.124 67.8977 123.138 64.1794Z" fill="white"/>
<path d="M146.314 63.0134L142.905 61.9727L143.747 59.2121L153.717 62.255L152.875 65.0155L149.465 63.975L146.838 72.5812L143.688 71.6198L146.314 63.0134Z" fill="white"/>
<path d="M162.623 66.107L165.365 67.9318L162.901 71.635L166.42 73.9773L168.885 70.2739L171.627 72.0987L165.042 81.9931L162.3 80.1683L164.802 76.4084L161.282 74.0661L158.78 77.826L156.038 76.0012L162.623 66.107Z" fill="white"/>
<path d="M172.309 174.269L172.33 174.296C174.446 176.974 174.003 180.851 171.125 183.124C168.247 185.397 164.421 184.936 162.306 182.259L162.285 182.232C160.169 179.554 160.612 175.677 163.489 173.404C166.367 171.131 170.193 171.591 172.309 174.269ZM164.901 180.121L164.922 180.148C165.985 181.494 167.884 181.898 169.31 180.772C170.722 179.656 170.763 177.763 169.7 176.417L169.679 176.391C168.616 175.045 166.717 174.641 165.305 175.756C163.879 176.883 163.838 178.776 164.901 180.121Z" fill="white"/>
<path d="M153.716 193.099L150.739 194.201L141.839 184.732L145.151 183.506L146.7 185.196L150.999 183.604L151.058 181.319L154.306 180.117L153.716 193.099ZM148.481 187.27L150.896 189.979L150.981 186.345L148.481 187.27Z" fill="white"/>
<path d="M136.673 190.839L136.967 197.505L133.626 197.653L133.334 191.054C133.259 189.341 132.358 188.565 131.035 188.624C129.712 188.682 128.881 189.501 128.954 191.163L129.249 197.846L125.908 197.993L125.617 191.412C125.448 187.579 127.562 185.803 130.937 185.654C134.313 185.505 136.509 187.124 136.673 190.839Z" fill="white"/>
<path d="M113.455 193.019L116.897 193.948L116.145 196.735L106.079 194.018L106.831 191.231L110.274 192.16L112.619 183.471L115.8 184.33L113.455 193.019Z" fill="white"/>
<path d="M97.183 190.597L94.3574 188.904L96.6443 185.088L93.0181 182.914L90.7312 186.73L87.9059 185.037L94.0164 174.842L96.8417 176.536L94.5198 180.41L98.1463 182.583L100.468 178.709L103.294 180.403L97.183 190.597Z" fill="white"/>
</svg>