<svg viewBox="0 0 256 256" xmlns="http://www.w3.org/2000/svg" xml:space="preserve" style="fill-rule:evenodd;clip-rule:evenodd;stroke-linejoin:round;stroke-miterlimit:2"><path d="M256 40v176c0 22.077-17.923 40-40 40H40c-22.077 0-40-17.923-40-40V40C0 17.923 17.923 0 40 0h176c22.077 0 40 17.923 40 40" style="fill:#08f"/><path d="M.169-.795v.886h.29V0H.282v-.705h.175v-.09z" style="fill:#fff;fill-rule:nonzero" transform="translate(13.83 146.545)scale(52.64432)"/><path d="M.575-.297v-.11c0-.196-.1-.312-.266-.312-.165 0-.266.116-.266.312v.11c0 .195.101.311.266.311.166 0 .266-.116.266-.311m-.266.206c-.094 0-.146-.072-.146-.207v-.108c0-.136.052-.207.146-.207s.147.071.147.207v.108c0 .135-.053.207-.147.207" style="fill:#fff;fill-rule:nonzero" transform="translate(46.374 146.545)scale(52.64432)"/><path d="M.331 0c.151 0 .242-.076.242-.199A.167.167 0 0 0 .415-.37v-.007A.15.15 0 0 0 .539-.53c0-.109-.08-.175-.213-.175H.079V0zM.195-.611h.1c.08 0 .125.036.125.102 0 .064-.047.1-.133.1H.195zm0 .516V-.32h.1q.155 0 .156.112 0 .113-.154.113z" style="fill:#fff;fill-rule:nonzero" transform="translate(78.915 146.545)scale(52.64432)"/><path d="M.289.014C.43.014.515-.07.515-.212v-.493H.148v.102h.249v.389c0 .078-.04.121-.11.121-.063 0-.107-.041-.109-.102H.064c0 .126.09.209.225.209" style="fill:#fff;fill-rule:nonzero" transform="translate(111.46 146.545)scale(52.64432)"/><path style="fill:#fff;fill-rule:nonzero" transform="translate(144.003 146.545)scale(52.64432)" d="M.051-.364h.517v.103H.051z"/><path d="M.325-.092Q.177-.094.176-.284V-.42q.002-.19.147-.192c.079 0 .134.058.135.147h.12C.576-.625.482-.719.325-.719c-.171 0-.271.11-.271.299v.136c0 .188.1.298.271.298.154 0 .253-.095.253-.245h-.12c-.001.086-.052.139-.133.139" style="fill:#fff;fill-rule:nonzero" transform="translate(176.544 146.545)scale(52.64432)"/><path d="M.459-.795H.172v.09h.175V0H.169v.091h.29z" style="fill:#fff;fill-rule:nonzero" transform="translate(209.088 146.545)scale(52.64432)"/></svg>