<svg width="256" height="256" title="Objective C" viewBox="0 0 256 256" fill="none" xmlns="http://www.w3.org/2000/svg">
<rect width="256" height="256" rx="40" fill="#0088FF"/>
<path d="M33 107V149H46.7784V144.686H38.3688V111.266H46.6834V107H33Z" fill="#FFFFFF"/>
<path d="M81.6609 130.607V125.393C81.6609 116.102 76.9098 110.603 69.0228 110.603C61.1833 110.603 56.3846 116.102 56.3846 125.393V130.607C56.3846 139.851 61.1833 145.35 69.0228 145.35C76.9098 145.35 81.6609 139.851 81.6609 130.607ZM69.0228 140.372C64.5567 140.372 62.0861 136.959 62.0861 130.56V125.44C62.0861 118.993 64.5567 115.628 69.0228 115.628C73.4889 115.628 76.007 118.993 76.007 125.44V130.56C76.007 136.959 73.4889 140.372 69.0228 140.372Z" fill="#FFFFFF"/>
<path d="M99.4365 144.686C106.611 144.686 110.934 141.084 110.934 135.253C110.987 133.193 110.232 131.193 108.83 129.679C107.428 128.166 105.49 127.257 103.427 127.147V126.815C105.121 126.519 106.651 125.621 107.733 124.288C108.816 122.955 109.379 121.277 109.319 119.562C109.319 114.395 105.518 111.266 99.1989 111.266H87.4635V144.686H99.4365ZM92.9749 115.722H97.7261C101.527 115.722 103.665 117.429 103.665 120.558C103.665 123.591 101.432 125.298 97.346 125.298H92.9749V115.722ZM92.9749 140.183V129.517H97.7261C102.636 129.517 105.106 131.287 105.138 134.826C105.138 138.397 102.699 140.183 97.8211 140.183H92.9749Z" fill="#FFFFFF"/>
<path d="M126.813 145.35C133.512 145.35 137.551 141.368 137.551 134.637V111.266H120.114V116.102H131.944V134.542C131.944 138.239 130.044 140.278 126.718 140.278C123.725 140.278 121.634 138.334 121.539 135.442H116.123C116.123 141.415 120.399 145.35 126.813 145.35Z" fill="#FFFFFF"/>
<path d="M144.876 127.431H169.439V132.314H144.876V127.431Z" fill="#FFFFFF"/>
<path d="M187.262 140.325C182.574 140.262 180.215 137.228 180.183 131.223V124.777C180.246 118.772 182.574 115.738 187.167 115.675C190.921 115.675 193.534 118.424 193.581 122.643H199.283C199.188 115.059 194.722 110.603 187.262 110.603C179.138 110.603 174.387 115.817 174.387 124.777V131.223C174.387 140.135 179.138 145.35 187.262 145.35C194.579 145.35 199.283 140.847 199.283 133.736H193.581C193.534 137.813 191.111 140.325 187.262 140.325Z" fill="#FFFFFF"/>
<path d="M223 107H209.364V111.266H217.679V144.686H209.222V149H223V107Z" fill="#FFFFFF"/>
</svg>