<svg width="256" height="256" title="Obsidian" viewBox="0 0 256 256" fill="none" xmlns="http://www.w3.org/2000/svg" id="obsidian">
<style>
#obsidian {
    rect {fill: #15191C}

    @media (prefers-color-scheme: light) {
        rect {fill: #F4F2ED}
    }
}
</style>
<rect width="256" height="256" rx="40" fill="#15191C"/>
<path d="M176.471 202.676C175.39 210.612 167.621 216.802 159.852 214.683C148.884 211.65 136.171 206.914 124.663 206.042L107.089 204.712C104.253 204.506 101.591 203.264 99.611 201.222L69.2826 170.063C67.6563 168.391 66.5722 166.268 66.172 163.97C65.7717 161.672 66.0739 159.307 67.0391 157.184C67.0391 157.184 85.7763 116.054 86.4825 113.893C87.1888 111.774 89.7231 93.1204 91.2187 83.0664C91.629 80.4039 92.9505 77.9664 94.9579 76.1698L130.77 43.9719C131.953 42.9158 133.339 42.1126 134.843 41.6116C136.347 41.1106 137.938 40.9225 139.518 41.0586C141.098 41.1948 142.633 41.6525 144.029 42.4035C145.425 43.1545 146.653 44.1831 147.638 45.426L177.758 83.648C179.44 85.8244 180.347 88.5004 180.334 91.2509C180.334 98.4799 180.957 113.353 184.946 122.95C188.942 131.585 193.903 139.738 199.736 147.255C200.457 148.171 200.886 149.282 200.968 150.446C201.049 151.609 200.78 152.769 200.193 153.777C197.534 158.264 192.341 166.823 184.946 177.832C180.307 185.38 177.412 193.868 176.471 202.676Z" fill="#6C31E3"/>
<path d="M102.852 203.549C116.936 175.007 116.562 154.525 110.537 139.984C105.053 126.523 94.7917 118.048 86.7318 112.772C86.5656 113.561 86.3164 114.309 85.984 115.015L67.0391 157.184C66.0792 159.311 65.7837 161.679 66.1914 163.977C66.5991 166.275 67.691 168.396 69.3242 170.063L99.611 201.222C100.567 202.178 101.688 202.967 102.852 203.549Z" fill="url(#radialGradient1)"/>
<path d="M141.157 145.634C144.937 146.008 148.635 146.839 152.291 148.169C163.841 152.489 174.352 162.211 183.035 180.948C183.658 179.868 184.281 178.829 184.946 177.832C190.252 169.958 195.337 161.937 200.193 153.777C200.785 152.773 201.062 151.615 200.988 150.452C200.914 149.289 200.492 148.175 199.778 147.255C193.931 139.74 188.955 131.587 184.946 122.95C180.957 113.395 180.376 98.4799 180.334 91.2509C180.334 88.5089 179.462 85.8084 177.758 83.648L147.638 45.426L147.139 44.8028C149.341 52.0733 149.217 57.8897 147.846 63.166C146.599 68.0684 144.273 72.5138 141.821 77.2084C140.991 78.7872 140.16 80.4075 139.37 82.0693C135.463 89.5314 133.223 97.7531 132.806 106.166C132.391 116.22 134.426 128.808 141.115 145.634H141.157Z" fill="url(#radialGradient2)"/>
<path d="M141.115 145.634C134.426 128.808 132.391 116.22 132.806 106.166C133.221 96.1948 136.13 88.7166 139.37 82.0693L141.863 77.2084C144.273 72.5138 146.558 68.0684 147.846 63.166C149.375 57.1038 149.13 50.7296 147.139 44.8028C145.073 42.5322 142.192 41.1706 139.126 41.015C136.06 40.8593 133.056 41.9222 130.77 43.9719L94.9579 76.1698C92.9505 77.9664 91.629 80.4039 91.2187 83.0664L86.8565 111.982C86.8565 112.273 86.7734 112.522 86.7318 112.813C94.7917 118.048 105.012 126.523 110.538 139.942C111.618 142.601 112.532 145.385 113.196 148.418C122.275 145.9 131.716 144.945 141.115 145.593L141.115 145.634Z" fill="url(#radialGradient3)"/>
<path d="M159.894 214.683C167.621 216.802 175.39 210.612 176.471 202.635C177.355 195.069 179.593 187.723 183.076 180.948C174.352 162.211 163.841 152.489 152.332 148.169C140.076 143.598 126.74 145.136 113.196 148.418C116.229 162.169 114.443 180.159 102.893 203.549C104.181 204.214 105.635 204.588 107.089 204.712L125.328 206.083C135.216 206.79 149.964 211.9 159.894 214.683Z" fill="url(#radialGradient4)"/>
<path fill-rule="evenodd" clip-rule="evenodd" d="M132.889 105.543C132.432 115.514 133.678 126.897 140.367 143.682L138.29 143.474C132.266 125.983 130.936 117.009 131.393 106.914C131.809 96.818 135.091 89.049 138.332 82.4017C139.163 80.7398 141.074 77.6239 141.905 76.0452C144.314 71.3505 145.934 68.8993 147.305 64.6201C149.3 58.6375 148.884 55.8124 148.635 52.9873C150.172 63.166 144.314 72.0152 139.91 81.0306C135.833 88.6034 133.425 96.9615 132.848 105.543H132.889Z" fill="url(#radialGradient5)"/>
<path fill-rule="evenodd" clip-rule="evenodd" d="M112.532 140.69C113.363 142.518 114.069 144.014 114.567 146.299L112.781 146.714C112.075 144.055 111.535 142.144 110.496 139.859C104.43 125.609 94.7086 118.256 86.8149 112.855C96.3704 118.006 106.217 126.108 112.532 140.69Z" fill="url(#radialGradient6)"/>
<path fill-rule="evenodd" clip-rule="evenodd" d="M114.651 148.127C117.974 163.707 114.235 183.524 103.225 202.801C112.449 183.69 116.936 165.368 113.196 148.376L114.651 148.085V148.127Z" fill="url(#radialGradient7)"/>
<path fill-rule="evenodd" clip-rule="evenodd" d="M152.706 146.673C170.779 153.445 177.758 168.277 182.952 180.699C176.512 167.737 167.58 153.403 152.042 148.085C140.243 144.014 130.272 144.512 113.196 148.376L112.823 146.714C130.936 142.56 140.409 142.061 152.706 146.714V146.673Z" fill="url(#radialGradient8)"/>
<radialGradient id="radialGradient1" cx="0" cy="0" r="1" gradientUnits="userSpaceOnUse" gradientTransform="translate(164.305 209.765) rotate(-110.643) scale(157.524 142.157)">
<stop stop-color="white" stop-opacity="0.4"/>
<stop offset="1" stop-opacity="0.1"/>
</radialGradient>
<radialGradient id="radialGradient2" cx="0" cy="0" r="1" gradientUnits="userSpaceOnUse" gradientTransform="translate(137.437 198.793) rotate(-78.4376) scale(168.111 187.576)">
<stop stop-color="white" stop-opacity="0.6"/>
<stop offset="1" stop-color="white" stop-opacity="0.1"/>
</radialGradient>
<radialGradient id="radialGradient3" cx="0" cy="0" r="1" gradientUnits="userSpaceOnUse" gradientTransform="translate(108.084 210.12) rotate(-73.6749) scale(183.134 161.652)">
<stop stop-color="white" stop-opacity="0.8"/>
<stop offset="1" stop-color="white" stop-opacity="0.4"/>
</radialGradient>
<radialGradient id="radialGradient4" cx="0" cy="0" r="1" gradientUnits="userSpaceOnUse" gradientTransform="translate(162.948 215.092) rotate(-111.845) scale(148.505 134.044)">
<stop stop-color="white" stop-opacity="0.3"/>
<stop offset="1" stop-opacity="0.3"/>
</radialGradient>
<radialGradient id="radialGradient5" cx="0" cy="0" r="1" gradientUnits="userSpaceOnUse" gradientTransform="translate(223.967 101.533) rotate(130.473) scale(142.584 233.703)">
<stop stop-color="white" stop-opacity="0"/>
<stop offset="1" stop-color="white" stop-opacity="0.2"/>
</radialGradient>
<radialGradient id="radialGradient6" cx="0" cy="0" r="1" gradientUnits="userSpaceOnUse" gradientTransform="translate(53.268 56.1673) rotate(46.9828) scale(213.288 452.01)">
<stop stop-color="white" stop-opacity="0.2"/>
<stop offset="1" stop-color="white" stop-opacity="0.4"/>
</radialGradient>
<radialGradient id="radialGradient7" cx="0" cy="0" r="1" gradientUnits="userSpaceOnUse" gradientTransform="translate(206.268 2.39853) rotate(60.2772) scale(179.625 998.822)">
<stop stop-color="white" stop-opacity="0.1"/>
<stop offset="1" stop-color="white" stop-opacity="0.3"/>
</radialGradient>
<radialGradient id="radialGradient8" cx="0" cy="0" r="1" gradientUnits="userSpaceOnUse" gradientTransform="translate(182.495 176.669) rotate(-152.314) scale(76.0059 239.357)">
<stop stop-color="white" stop-opacity="0.2"/>
<stop offset="0.5" stop-color="white" stop-opacity="0.2"/>
<stop offset="1" stop-color="white" stop-opacity="0.3"/>
</radialGradient>
</svg>