<svg width="256" height="256" title="OCaml" viewBox="0 0 256 256" fill="none" xmlns="http://www.w3.org/2000/svg">
<rect width="256" height="256" rx="40" fill="url(#linearGradient)"/>
<path d="M133.117 230.082C132.794 227.88 133.421 225.689 132.758 223.623C132.191 221.82 130.889 221.655 130.033 220.189C127.78 216.343 125.452 211.361 125.237 206.652C125.04 202.423 123.485 198.602 123.273 194.41C123.171 192.387 123.409 190.301 123.336 188.298C123.298 187.324 123.242 186.48 123.049 185.422C123.001 185.161 122.827 184.085 122.747 183.653L123.273 182.342C123.041 181.892 127.76 182.042 129.167 182.051C131.557 182.081 133.803 182.204 136.186 182.319C141.054 182.56 145.489 182.5 150.23 181.768C160.795 180.137 165.652 175.823 168.137 174.029C177.837 167.035 182.28 155.599 182.28 155.599C183.88 152.027 183.874 145.655 187.305 142.802C191.349 139.432 198.139 139.675 202.781 137.608C205.496 136.406 207.456 135.744 210.231 136.32C212.291 136.75 215.999 139.136 216.851 135.786C216.163 135.342 215.894 134.531 215.526 134.081C219.353 133.702 215.599 124.824 214.085 123.051C211.747 120.313 207.845 119.059 203.695 117.958C198.765 116.652 194.293 115.144 189.651 116.055C181.545 117.641 182.151 113.002 177.375 113.002C171.642 113.002 161.443 113.284 159.68 118.857C158.859 121.459 158.013 121.568 156.59 123.564C155.373 125.274 156.802 126.783 156.191 128.735C155.56 130.74 154.634 137.804 153.668 140.269C152.033 144.44 150.085 149.648 146.488 149.648C141.445 150.251 137.482 150.444 133.392 148.959C130.93 148.066 126.805 146.666 124.764 145.806C115.349 141.843 113.803 137.507 113.803 137.507C112.793 135.837 110.132 133.145 109.136 129.632C108.041 125.763 106.193 122.536 105.445 120.522C104.67 118.436 102.818 115.095 101.363 111.482C99.4994 106.857 96.8783 103.406 94.9593 101.692C92.0275 99.0791 89.3214 95.0339 83.3695 96.2091C82.3056 96.4194 78.4397 96.5941 75.477 99.0791C73.4683 100.765 72.8342 104.242 70.974 107.176C69.8993 108.871 68.0097 113.732 66.2762 117.788C65.0747 120.6 64.5149 122.707 63.216 123.742C62.2001 124.552 60.9413 125.599 59.4182 125.028C58.4734 124.674 57.4636 124.074 56.4446 123.278C55.0683 122.203 51.9401 116.879 50.018 112.947C48.3526 109.537 44.7975 104.439 42.7409 101.679C39.7812 97.7075 38.0462 96.7008 33.6731 96.7008C24.2915 96.7008 23.5817 101.954 19.4545 109.593C17.6422 112.948 16.9819 118.274 13.3434 122.447C11.2636 124.835 4.62666 134.653 0.0123707 136.321V136.273L0 136.321V206.304L0.0123707 206.401V205.962C0.310815 205.05 0.627815 204.175 0.988113 203.392C2.77259 199.59 6.9137 196.061 9.21465 192.157C10.4656 190.029 11.8929 187.944 12.7218 185.711C13.4346 183.788 13.7856 180.919 14.8155 179.251C16.0773 177.205 18.0535 176.509 20.0823 176.178C23.2601 175.654 25.96 180.746 30.0253 182.62C31.7588 183.417 39.7379 186.242 42.1332 186.822C46.0779 187.765 50.454 188.552 54.4591 189.361C56.6038 189.794 58.6543 190.046 60.8625 190.27C62.8433 190.468 70.2642 190.714 70.7235 191.25C66.952 193.174 64.7407 198.574 63.3243 202.395C61.8475 206.377 60.8176 210.809 59.0331 214.704C57.0554 219.007 52.9081 220.798 53.4029 225.813C53.5931 227.814 53.9581 229.912 53.6241 232.114C53.2684 234.432 52.3313 236.241 51.6494 238.511C50.7741 241.472 50.0504 253.189 48.7004 256H56.5C56.5 256 58.3806 241.618 58.6729 240.757C60.2161 236.22 62.2635 232.487 65.4134 228.978C68.4844 225.559 68.3251 221.152 70.1189 217.169C72.0611 212.839 74.6728 209.377 77.1377 205.307C81.5927 197.948 84.5308 188.657 94.0021 186.768C95.0134 186.559 100.812 190.74 103.385 193.227C106.333 196.059 109.552 199.341 111.488 203.247C115.237 210.818 118.416 221.784 119.619 227.832C120.31 231.305 120.861 231.512 123.209 234.263C124.29 235.524 126.447 239.462 127.157 240.975C127.903 242.589 129.036 246.263 129.939 248.139C130.471 249.255 131.996 253.037 133 256H140.5C141 256 141 256 141 256C141.003 256 140.774 255.447 140.777 255.445C140.745 255.386 140.716 255.318 140.688 255.255C136.845 247.543 134.386 238.621 133.117 230.082Z" fill="white"/>
<linearGradient id="linearGradient" x1="128" y1="-0.00127088" x2="128" y2="255.999" gradientUnits="userSpaceOnUse">
<stop stop-color="#F29100"/>
<stop offset="1" stop-color="#EC670F"/>
</linearGradient>
</svg>