<svg width="256" height="256" title="Omarchy" viewBox="0 0 256 256" fill="none" xmlns="http://www.w3.org/2000/svg" id="omarchy">
<style>
#omarchy {
    rect {fill: #15191C}

    @media (prefers-color-scheme: light) {
        rect {fill: #F4F2ED}
    }
}
</style>
<rect width="256" height="256" rx="40" fill="#15191C"/>
<path fill-rule="evenodd" clip-rule="evenodd" d="M145.593 124.947H143.247V127.316H140.902V129.684L131.519 129.684V132.053L145.593 132.052V132.053H145.593L145.593 146.263H143.247V148.631H141.214V151H138.556V136.79H131.519V151L124.481 151V136.79H122.136V132.053H124.481V129.684H122.136V124.947H124.481V113.105H126.827V110.737H129.173V108.368H145.593L145.593 124.947ZM131.519 124.947H138.556V113.106H131.519V124.947Z" fill="#90D05A"/>
<path fill-rule="evenodd" clip-rule="evenodd" d="M49.4198 110.737H51.7654V113.105H54.1111V141.526H51.7654V143.894H49.4198V146.263H37.6914V143.894H35.3457V141.526H33V113.105H35.3457V110.737H37.6914V108.368H49.4198V110.737ZM40.037 141.526H47.0741V113.106H40.037V141.526Z" fill="#90D05A"/>
<path d="M79.9136 108.368H89.2963V110.737H91.642V113.105H93.9876V141.526H91.642V143.894H89.2963V146.263H86.9506L86.95 113.106H79.9139V113.105H79.9136V146.263H72.8765V113.106H65.8398V141.526H65.8395V146.263H63.4938V143.894H61.1481V141.526H58.8028V113.105H61.1481V110.737H63.4938V108.368H72.8765V106H79.9136V108.368Z" fill="#90D05A"/>
<path fill-rule="evenodd" clip-rule="evenodd" d="M119.79 141.526H117.444V143.894H115.099V146.263H112.753V129.684L105.716 129.684V146.263H98.679V129.684H96.3333V124.947H98.679V113.105H101.025V110.737H103.371V108.368H119.79L119.79 141.526ZM105.716 124.947H112.753V113.106H105.716V124.947Z" fill="#90D05A"/>
<path d="M171.395 117.842H169.049V120.21H166.704V122.579H164.358V113.106H157.321V141.526H164.358V132.053H166.704V134.421H169.049V136.789H171.395V141.526H169.049V143.894H166.704V146.263L150.284 146.263V113.105H152.629V110.737H154.975V108.368H171.395V117.842Z" fill="#90D05A"/>
<path d="M183.123 124.947H190.16V108.368H192.506V110.737H194.852V113.105H197.198V124.947H199.543V127.316H197.198V141.526H194.852V143.894H192.506V146.263H190.16V129.684H183.123V146.263L176.086 146.263V129.684H171.395V127.316H173.741V124.947H176.086V113.105H178.432V110.737H180.778V108.368H183.123V124.947Z" fill="#90D05A"/>
<path d="M208.926 124.947H215.963V108.368H218.309V110.737H220.654V113.105H223V141.526H220.654V143.894H218.309V146.263L206.58 146.263V143.894H204.235V141.526H201.889V134.421H204.235V132.052H208.926V141.526H215.963V129.684H201.889V113.105H204.235V110.737H206.58V108.368H208.926V124.947Z" fill="#90D05A"/>
</svg>