<svg viewBox="0 0 256 256" xmlns="http://www.w3.org/2000/svg" xml:space="preserve" style="fill-rule:evenodd;clip-rule:evenodd;stroke-linejoin:round;stroke-miterlimit:2"><path d="M256 40v176c0 22.077-17.923 40-40 40H40c-22.077 0-40-17.923-40-40V40C0 17.923 17.923 0 40 0h176c22.077 0 40 17.923 40 40" style="fill:#15191c"/><path d="M14.339 13.673c-6.605 0-11.542 5.406-11.913 11.429.23 1.298.986 3.86 2.17 3.729 1.48-.165 5.208-.001 8.388-5.757 2.323-4.205 7.102-9.402 1.355-9.401" style="fill:url(#a);fill-rule:nonzero" transform="translate(35.536 36.918)scale(3.85266)"/><path d="M12.811 15.921c-2.22 3.515-5.208 8.551-6.217 10.136-1.199 1.884-4.374 1.084-4.111-1.616q-.038.329-.059.662c-.435 7.026 5.136 12.861 12.068 12.861 7.639 0 25.859-9.519 24.015-19.057-1.943-5.606-7.405-9.627-13.596-9.627s-10.158 3.567-12.1 6.641" style="fill:url(#b);fill-rule:nonzero" transform="translate(35.536 36.918)scale(3.85266)"/><path d="M12.811 15.921c-2.22 3.515-5.208 8.551-6.217 10.136-1.199 1.884-4.374 1.084-4.111-1.616q-.038.329-.059.662c-.435 7.026 5.136 12.861 12.068 12.861 7.639 0 25.859-9.519 24.015-19.057-1.943-5.606-7.405-9.627-13.596-9.627s-10.158 3.567-12.1 6.641" style="fill:url(#c);fill-rule:nonzero" transform="translate(35.536 36.918)scale(3.85266)"/><path d="M12.811 15.921c-2.22 3.515-5.208 8.551-6.217 10.136-1.199 1.884-4.374 1.084-4.111-1.616q-.038.329-.059.662c-.435 7.026 5.136 12.861 12.068 12.861 7.639 0 25.859-9.519 24.015-19.057-1.943-5.606-7.405-9.627-13.596-9.627s-10.158 3.567-12.1 6.641" style="fill:url(#d);fill-rule:nonzero" transform="translate(35.536 36.918)scale(3.85266)"/><path d="M12.811 15.921c-2.22 3.515-5.208 8.551-6.217 10.136-1.199 1.884-4.374 1.084-4.111-1.616q-.038.329-.059.662c-.435 7.026 5.136 12.861 12.068 12.861 7.639 0 25.859-9.519 24.015-19.057-1.943-5.606-7.405-9.627-13.596-9.627s-10.158 3.567-12.1 6.641" style="fill:url(#e);fill-rule:nonzero" transform="translate(35.536 36.918)scale(3.85266)"/><path d="M12.811 15.921c-2.22 3.515-5.208 8.551-6.217 10.136-1.199 1.884-4.374 1.084-4.111-1.616q-.038.329-.059.662c-.435 7.026 5.136 12.861 12.068 12.861 7.639 0 25.859-9.519 24.015-19.057-1.943-5.606-7.405-9.627-13.596-9.627s-10.158 3.567-12.1 6.641" style="fill:url(#f);fill-rule:nonzero" transform="translate(35.536 36.918)scale(3.85266)"/><path d="M14.38 37.967s18.241.035 21.336.035c5.615 0 9.884-4.584 9.884-9.933s-4.355-9.906-9.884-9.906c-5.53 0-8.714 4.137-11.106 8.652-2.802 5.291-6.377 11.088-10.23 11.152" style="fill:url(#g);fill-rule:nonzero" transform="translate(35.536 36.918)scale(3.85266)"/><path d="M14.38 37.967s18.241.035 21.336.035c5.615 0 9.884-4.584 9.884-9.933s-4.355-9.906-9.884-9.906c-5.53 0-8.714 4.137-11.106 8.652-2.802 5.291-6.377 11.088-10.23 11.152" style="fill:url(#h);fill-rule:nonzero" transform="translate(35.536 36.918)scale(3.85266)"/><path d="M14.38 37.967s18.241.035 21.336.035c5.615 0 9.884-4.584 9.884-9.933s-4.355-9.906-9.884-9.906c-5.53 0-8.714 4.137-11.106 8.652-2.802 5.291-6.377 11.088-10.23 11.152" style="fill:url(#i);fill-rule:nonzero" transform="translate(35.536 36.918)scale(3.85266)"/><defs><radialGradient id="a" cx="0" cy="0" r="1" gradientUnits="userSpaceOnUse" gradientTransform="matrix(8.72433 10.4537 -14.5717 17.7871 3.245 15.251)"><stop offset="0" style="stop-color:#4894fe;stop-opacity:1"/><stop offset=".7" style="stop-color:#0934b3;stop-opacity:1"/><stop offset="1" style="stop-color:#0934b3;stop-opacity:1"/></radialGradient><radialGradient id="b" cx="0" cy="0" r="1" gradientUnits="userSpaceOnUse" gradientTransform="matrix(-38.3528 44.2395 -33.8028 -27.242 39.797 -.425)"><stop offset="0" style="stop-color:#23c0fe;stop-opacity:1"/><stop offset=".17" style="stop-color:#23c0fe;stop-opacity:1"/><stop offset=".53" style="stop-color:#1c91ff;stop-opacity:1"/><stop offset="1" style="stop-color:#1c91ff;stop-opacity:1"/></radialGradient><radialGradient id="c" cx="0" cy="0" r="1" gradientUnits="userSpaceOnUse" gradientTransform="matrix(-9.11695 -7.65374 -17.0539 21.2628 12.08 16.026)"><stop offset="0" style="stop-color:#fff;stop-opacity:.4"/><stop offset=".66" style="stop-color:#adc0ff;stop-opacity:0"/><stop offset="1" style="stop-color:#adc0ff;stop-opacity:0"/></radialGradient><radialGradient id="d" cx="0" cy="0" r="1" gradientUnits="userSpaceOnUse" gradientTransform="rotate(220.236 18.024 10.465)scale(13.41723 20.37688)"><stop offset="0" style="stop-color:#033acc;stop-opacity:1"/><stop offset="1" style="stop-color:#368eff;stop-opacity:0"/></radialGradient><radialGradient id="e" cx="0" cy="0" r="1" gradientUnits="userSpaceOnUse" gradientTransform="matrix(11.7057 27.0132 -29.1634 12.6346 11.292 8.373)"><stop offset="0" style="stop-color:#3464e3;stop-opacity:0"/><stop offset=".59" style="stop-color:#3464e3;stop-opacity:0"/><stop offset="1" style="stop-color:#033acc;stop-opacity:.6"/></radialGradient><radialGradient id="f" cx="0" cy="0" r="1" gradientUnits="userSpaceOnUse" gradientTransform="rotate(135 19.117 9.46)scale(43.306 67.846)"><stop offset="0" style="stop-color:#4bfde8;stop-opacity:.9"/><stop offset=".54" style="stop-color:#4bfde8;stop-opacity:0"/><stop offset="1" style="stop-color:#4bfde8;stop-opacity:0"/></radialGradient><radialGradient id="h" cx="0" cy="0" r="1" gradientUnits="userSpaceOnUse" gradientTransform="matrix(18.2414 7.23422 -23.1137 30.8096 19.766 20.496)"><stop offset="0" style="stop-color:#fff;stop-opacity:.4"/><stop offset=".79" style="stop-color:#fff;stop-opacity:0"/><stop offset="1" style="stop-color:#fff;stop-opacity:0"/></radialGradient><radialGradient id="i" cx="0" cy="0" r="1" gradientUnits="userSpaceOnUse" gradientTransform="matrix(-20.3789 17.5639 -24.1573 -14.8168 44.99 16.625)"><stop offset="0" style="stop-color:#4bfde8;stop-opacity:.9"/><stop offset=".58" style="stop-color:#4bfde8;stop-opacity:0"/><stop offset="1" style="stop-color:#4bfde8;stop-opacity:0"/></radialGradient><linearGradient id="g" x1="0" y1="0" x2="1" y2="0" gradientUnits="userSpaceOnUse" gradientTransform="rotate(-90 33.991 3.991)scale(19.5841)"><stop offset="0" style="stop-color:#0086ff;stop-opacity:1"/><stop offset=".49" style="stop-color:#0bf;stop-opacity:1"/><stop offset="1" style="stop-color:#0bf;stop-opacity:1"/></linearGradient></defs></svg>