<svg width="256" height="256" title="OpenGL" viewBox="0 0 256 256" fill="none" xmlns="http://www.w3.org/2000/svg" id="opengl">
<style>
#opengl {
    rect {fill: #15191C}

    @media (prefers-color-scheme: light) {
        rect {fill: #F4F2ED}
    }
}
</style>
<rect width="256" height="256" rx="40" fill="#15191C"/>
<path d="M53.8515 121.549C54.5608 119.378 55.6258 117.456 57.0441 115.783C58.4625 114.111 60.2287 112.775 62.3399 111.779C64.4514 110.782 66.9103 110.283 69.7157 110.283C72.5201 110.283 74.9791 110.782 77.0904 111.779C79.2017 112.775 80.9678 114.111 82.3862 115.783C83.8046 117.456 84.8695 119.378 85.5786 121.549C86.2879 123.72 86.6436 125.979 86.6436 128.327C86.6436 130.675 86.2879 132.936 85.5786 135.106C84.8695 137.277 83.8046 139.199 82.3862 140.872C80.9678 142.544 79.2017 143.872 77.0904 144.853C74.9791 145.832 72.5201 146.324 69.7157 146.324C66.9104 146.324 64.4514 145.832 62.3399 144.853C60.2287 143.872 58.4625 142.544 57.0441 140.872C55.6258 139.2 54.5608 137.277 53.8515 135.106C53.1422 132.936 52.7877 130.675 52.7877 128.327C52.7877 125.979 53.1424 123.72 53.8515 121.549ZM58.1684 133.483C58.6312 135.173 59.358 136.694 60.3495 138.046C61.3402 139.399 62.612 140.485 64.1654 141.307C65.7175 142.128 67.5672 142.538 69.7157 142.538C71.8633 142.538 73.7129 142.128 75.2663 141.307C76.8184 140.485 78.0903 139.399 79.082 138.046C80.0725 136.694 80.7991 135.173 81.2618 133.483C81.7244 131.792 81.9559 130.078 81.9559 128.34C81.9559 126.601 81.7244 124.888 81.2618 123.197C80.7991 121.507 80.0723 119.986 79.082 118.633C78.0901 117.281 76.8184 116.195 75.2663 115.374C73.7129 114.552 71.8631 114.142 69.7157 114.142C67.5672 114.142 65.7177 114.552 64.1654 115.374C62.612 116.195 61.3402 117.282 60.3495 118.633C59.3578 119.986 58.6312 121.507 58.1684 123.197C57.7057 124.888 57.4755 126.601 57.4755 128.34C57.4755 130.078 57.7057 131.792 58.1684 133.483Z" fill="#5586A4"/>
<path d="M93.6167 123.608V126.584H93.6911C94.2982 125.366 95.2526 124.479 96.5548 123.927C97.857 123.374 99.2881 123.097 100.851 123.097C102.586 123.097 104.097 123.409 105.385 124.032C106.672 124.656 107.742 125.498 108.595 126.559C109.448 127.622 110.091 128.846 110.526 130.233C110.96 131.62 111.177 133.093 111.177 134.65C111.177 136.208 110.967 137.68 110.548 139.068C110.128 140.455 109.493 141.666 108.639 142.699C107.786 143.732 106.715 144.547 105.428 145.14C104.139 145.734 102.643 146.032 100.937 146.032C100.387 146.032 99.7716 145.976 99.0925 145.863C98.4125 145.748 97.7404 145.565 97.0753 145.31C96.4104 145.055 95.7801 144.707 95.1873 144.268C94.5944 143.829 94.0956 143.284 93.691 142.631H93.6166V153.969H89.8961V123.608H93.6167ZM106.822 131.417C106.548 130.441 106.13 129.571 105.568 128.806C105.005 128.042 104.283 127.433 103.403 126.98C102.522 126.528 101.491 126.301 100.308 126.301C99.0663 126.301 98.0132 126.542 97.1481 127.024C96.2819 127.505 95.5751 128.134 95.0263 128.912C94.4776 129.69 94.0811 130.575 93.8357 131.566C93.5904 132.557 93.4683 133.562 93.4683 134.58C93.4683 135.656 93.5972 136.696 93.8578 137.7C94.117 138.706 94.5286 139.59 95.0915 140.355C95.654 141.119 96.3819 141.735 97.2772 142.201C98.1723 142.669 99.2549 142.902 100.524 142.902C101.794 142.902 102.854 142.662 103.705 142.181C104.556 141.7 105.243 141.063 105.762 140.27C106.281 139.478 106.656 138.572 106.887 137.553C107.118 136.533 107.234 135.487 107.234 134.411C107.234 133.392 107.096 132.394 106.822 131.417Z" fill="#5586A4"/>
<path d="M130.153 144.165C128.472 145.41 126.357 146.032 123.806 146.032C122.008 146.032 120.449 145.749 119.131 145.184C117.811 144.617 116.702 143.824 115.804 142.805C114.905 141.786 114.231 140.568 113.782 139.152C113.333 137.736 113.08 136.193 113.021 134.523C113.021 132.853 113.282 131.324 113.805 129.936C114.327 128.548 115.059 127.344 116.002 126.325C116.945 125.305 118.063 124.514 119.353 123.947C120.644 123.381 122.059 123.097 123.597 123.097C125.599 123.097 127.259 123.502 128.58 124.31C129.901 125.119 130.96 126.147 131.757 127.395C132.555 128.644 133.107 130.006 133.412 131.48C133.716 132.956 133.84 134.36 133.782 135.693H116.965C116.936 136.655 117.051 137.566 117.312 138.428C117.572 139.291 117.991 140.054 118.57 140.719C119.149 141.383 119.886 141.912 120.783 142.308C121.68 142.704 122.735 142.901 123.95 142.901C125.512 142.901 126.792 142.548 127.789 141.839C128.787 141.13 129.445 140.053 129.763 138.606H133.414C132.921 141.068 131.834 142.921 130.153 144.165ZM129.252 130.073C128.92 129.311 128.472 128.653 127.909 128.103C127.345 127.552 126.68 127.114 125.915 126.789C125.149 126.464 124.304 126.301 123.379 126.301C122.426 126.301 121.566 126.464 120.801 126.789C120.034 127.114 119.378 127.559 118.829 128.123C118.28 128.689 117.846 129.346 117.529 130.095C117.21 130.844 117.023 131.642 116.965 132.49H129.838C129.78 131.642 129.584 130.837 129.252 130.073Z" fill="#5586A4"/>
<path d="M139.745 123.608V127.095H139.815C141.356 124.431 143.801 123.097 147.148 123.097C148.632 123.097 149.868 123.296 150.859 123.693C151.848 124.09 152.649 124.643 153.26 125.352C153.872 126.061 154.301 126.904 154.548 127.882C154.795 128.861 154.919 129.945 154.919 131.136V145.596H151.199V130.721C151.199 129.361 150.792 128.285 149.979 127.491C149.165 126.698 148.048 126.301 146.626 126.301C145.494 126.301 144.514 126.471 143.686 126.812C142.858 127.152 142.169 127.633 141.617 128.256C141.067 128.88 140.653 129.609 140.377 130.444C140.101 131.28 139.963 132.194 139.963 133.186V145.595H136.243V123.608H139.745Z" fill="#5586A4"/>
<path d="M180.638 145.357C178.958 146.05 177.261 146.397 175.55 146.397C172.848 146.397 170.419 145.936 168.262 145.016C166.104 144.096 164.284 142.829 162.802 141.213C161.319 139.599 160.183 137.702 159.393 135.522C158.602 133.342 158.207 130.992 158.207 128.473C158.207 125.89 158.601 123.492 159.39 121.28C160.178 119.068 161.311 117.139 162.79 115.491C164.269 113.844 166.086 112.553 168.243 111.615C170.399 110.679 172.828 110.21 175.53 110.21C177.342 110.21 179.095 110.477 180.791 111.011C182.487 111.546 184.019 112.331 185.386 113.366C186.753 114.401 187.881 115.678 188.77 117.194C189.66 118.712 190.204 120.452 190.401 122.418H182.991C182.529 120.485 181.64 119.035 180.323 118.068C179.004 117.101 177.407 116.617 175.53 116.617C173.784 116.617 172.302 116.948 171.083 117.61C169.865 118.273 168.876 119.161 168.118 120.275C167.36 121.39 166.809 122.657 166.464 124.078C166.117 125.499 165.946 126.968 165.946 128.485C165.946 129.939 166.119 131.352 166.465 132.724C166.812 134.096 167.364 135.331 168.122 136.429C168.88 137.527 169.869 138.407 171.09 139.069C172.31 139.731 173.794 140.062 175.543 140.062C178.115 140.062 180.101 139.427 181.502 138.158C182.905 136.888 183.721 135.047 183.952 132.635H176.146V126.956H190.947V145.622H186.022L185.234 141.706C183.85 143.446 182.318 144.664 180.638 145.357Z" fill="#5586A4"/>
<path d="M203.525 111.084V139.188H220.72V145.595H195.787V111.084H203.525Z" fill="#5586A4"/>
<path d="M166.928 149.885C155.088 156.932 137.354 160.943 117.568 160.943C81.9199 160.943 53.0211 146.418 53.0211 128.5C53.0211 110.582 81.9199 96.0566 117.568 96.0566C137.427 96.0566 155.233 100.142 167.073 107.233C154.149 95.352 130.976 87.0041 104.481 87C63.9022 86.9935 31.0035 105.569 31 128.489C30.9965 151.408 63.8891 169.994 104.468 170C130.858 170.004 153.971 161.683 166.928 149.885Z" fill="#5586A4"/>
<path d="M231 142.412C231 142.991 230.855 143.531 230.566 144.031C230.277 144.532 229.883 144.926 229.383 145.214C228.884 145.502 228.344 145.647 227.766 145.647C227.19 145.647 226.653 145.502 226.153 145.214C225.654 144.926 225.259 144.532 224.97 144.031C224.681 143.531 224.536 142.991 224.536 142.412C224.536 141.836 224.681 141.297 224.97 140.795C225.259 140.293 225.654 139.898 226.153 139.61C226.653 139.322 227.19 139.177 227.766 139.177C228.345 139.177 228.884 139.322 229.383 139.61C229.883 139.898 230.277 140.293 230.566 140.795C230.855 141.297 231 141.836 231 142.412ZM230.373 142.412C230.373 141.691 230.119 141.076 229.609 140.566C229.1 140.056 228.485 139.801 227.766 139.801C227.046 139.801 226.432 140.056 225.922 140.566C225.413 141.076 225.158 141.691 225.158 142.412C225.158 143.133 225.413 143.748 225.922 144.258C226.432 144.768 227.046 145.023 227.766 145.023C228.485 145.023 229.1 144.768 229.609 144.258C230.119 143.748 230.373 143.133 230.373 142.412ZM226.301 140.683H227.846C228.284 140.683 228.601 140.771 228.797 140.947C228.993 141.124 229.091 141.361 229.091 141.658C229.091 141.889 229.016 142.09 228.867 142.26C228.717 142.429 228.481 142.552 228.16 142.628C228.292 142.679 228.39 142.733 228.452 142.789C228.539 142.869 228.631 142.986 228.727 143.141C228.732 143.152 228.919 143.486 229.286 144.142H228.269C227.939 143.483 227.718 143.09 227.605 142.961C227.492 142.833 227.379 142.768 227.266 142.768C227.241 142.768 227.205 142.772 227.161 142.781V144.142H226.301V140.683ZM227.161 142.149H227.533C227.781 142.149 227.956 142.109 228.058 142.028C228.16 141.948 228.21 141.844 228.21 141.717C228.21 141.59 228.162 141.486 228.064 141.405C227.967 141.325 227.801 141.285 227.567 141.285H227.161V142.149Z" fill="#5586A4"/>
</svg>