<svg width="256" height="256" title="OpenCV" viewBox="0 0 256 256" fill="none" xmlns="http://www.w3.org/2000/svg" id="opencv">
<style>
#opencv {
    rect {fill: #15191C}

    @media (prefers-color-scheme: light) {
        rect {fill: #F4F2ED}
    }
}
</style>
<rect width="256" height="256" rx="40" fill="#15191C"/>
<path d="M189.144 131.511C200.407 138.153 207.976 150.421 208 164.47C208.036 185.616 190.966 202.789 169.872 202.825C148.777 202.862 131.647 185.749 131.61 164.603C131.585 150.555 139.111 138.26 150.35 131.579L161.326 150.171C161.601 150.637 161.445 151.236 160.998 151.541C156.847 154.374 154.126 159.152 154.135 164.564C154.15 173.239 161.178 180.26 169.832 180.244C178.486 180.229 185.489 173.184 185.475 164.509C185.465 159.097 182.726 154.329 178.566 151.511C178.118 151.207 177.96 150.609 178.234 150.141L189.144 131.511Z" fill="#128DFF"/>
<path d="M104.842 131.287C99.3274 128.188 92.967 126.422 86.1951 126.422C65.1005 126.422 48 143.564 48 164.711C48 185.858 65.1005 203 86.1951 203C107.393 203 124.911 184.959 124.378 163.729H102.876C102.312 163.729 101.867 164.207 101.864 164.774C101.809 173.235 94.7668 180.419 86.1951 180.419C77.5409 180.419 70.5253 173.386 70.5253 164.711C70.5253 156.035 77.5409 149.003 86.1951 149.003C88.4614 149.003 90.6154 149.485 92.5605 150.353C93.0358 150.565 93.603 150.404 93.8671 149.955L104.842 131.287Z" fill="#8BDA67"/>
<path d="M107.931 125.281C96.6802 118.619 89.1331 106.337 89.1331 92.2891C89.1331 71.1426 106.234 54 127.328 54C148.423 54 165.523 71.1426 165.523 92.2891C165.523 106.337 157.976 118.619 146.724 125.281L135.783 106.669C135.508 106.202 135.665 105.603 136.112 105.299C140.267 102.474 142.998 97.7014 142.998 92.2891C142.998 83.6137 135.982 76.5808 127.328 76.5808C118.674 76.5808 111.658 83.6137 111.658 92.2891C111.658 97.7014 114.389 102.474 118.544 105.299C118.991 105.603 119.148 106.202 118.874 106.669L107.931 125.281Z" fill="#FF2A44"/>
</svg>