<svg viewBox="0 0 256 256" xmlns="http://www.w3.org/2000/svg" xml:space="preserve" style="fill-rule:evenodd;clip-rule:evenodd;stroke-linejoin:round;stroke-miterlimit:2"><path d="M256 40v176c0 22.077-17.923 40-40 40H40c-22.077 0-40-17.923-40-40V40C0 17.923 17.923 0 40 0h176c22.077 0 40 17.923 40 40" style="fill:#15191c"/><path d="M1228.63 334.027c-7.43.017-14.39 1.48-20.68 4.35l-.2.091c-2.56 1.205-5 2.642-7.31 4.305l-64.14 33.719 120.02 223.197 62.48-31.599c1.04-.365 2.07-.766 3.08-1.202a46 46 0 0 0 6.11-3.451l1.94-.98-.16-.315c31.37-22.854 33.46-83.915 4.84-141.396-25.52-51.175-69.05-86.801-105.98-86.719" style="fill:url(#a)" transform="translate(-145.574 -28.828)scale(.26611)"/><path d="M1027.3 326.934c-144.981 0-262.514 117.533-262.514 262.518S882.319 851.97 1027.3 851.97c144.99 0 262.52-117.533 262.52-262.518s-117.53-262.518-262.52-262.518" style="fill:url(#b)" transform="translate(-145.574 -28.828)scale(.26611)"/><path d="M1357.39-7.615c-16.63 14.418-32.01 33.122-44.32 54.533-.22.377-.42.757-.64 1.135l44.58 24.906c0-.114-.01-.494-.01-.494s32.9-12.728 49.17-46.832c-8.2-3.206-18.33-7.894-27.68-14.299-10.13-6.939-16.89-13.819-21.1-18.949" style="fill:url(#c)" transform="translate(-198.616 131.637)scale(.26611)"/><path d="M1430.22-39.061c-7.94-.428-16.42.701-25.21 3.353 5.66 7.672 13.07 23.732 6.45 46.957-12.7 44.622-54.44 60.733-54.44 60.733s1.5 32.864-15.69 60.34c-19.82 31.673-48.11 30.245-52.41 29.851 4.39 18.573 14.04 32.384 27.77 39.76 39.27 20.95 101.33-14.703 138.61-79.633s35.67-134.548-3.6-155.498c-6.42-3.429-13.65-5.402-21.48-5.863" style="fill:url(#d)" transform="translate(-198.616 131.637)scale(.26611)"/><path d="M1405.22-35.72c-16.14 4.798-32.6 14.535-47.96 27.926.03.144.05.289.07.435 4.21 5.128 10.96 11.996 21.07 18.924 9.35 6.399 19.47 11.084 27.66 14.289a89 89 0 0 0 5.61-14.617c6.62-23.226-.79-39.286-6.45-46.957" style="fill:url(#e)" transform="translate(-198.616 131.637)scale(.26611)"/><path d="m1360.45 70.742-2.9 1.489c.5-.204 1.31-.55 2.9-1.323zm-3.53 1.813-67.36 34.635c-.64 3.045-1.2 6.07-1.67 9.066 6.32 1.218 14.19 3.775 23.53 8.744 13.33 7.096 20.24 12.512 23.83 16.147a76 76 0 0 0 5.98-8.309c17.11-27.343 15.71-59.968 15.69-60.283m-37.65 82.5-13.9 5.928a55.2 55.2 0 0 0 13.9-5.928" style="fill:url(#f)" transform="translate(-198.616 131.637)scale(.26611)"/><path d="M1312.89 47.803c-11.07 19.642-18.81 40.15-22.84 59.754l67.56-35.166v-.012z" style="fill:url(#g)" transform="translate(-198.616 131.637)scale(.26611)"/><path d="M1093.72-336.426c-17.48-.201-33.09 6.689-33.09 6.689l-25.38 11.848.76 23.762c25.46-.598 49.13-5.056 69.02-12.204.24-4.481.64-9.38 1.36-13.328.97-5.392 2.66-10.746 4.11-14.746-3.95-.879-8.34-1.546-13.26-1.883-1.18-.08-2.35-.125-3.52-.138" style="fill:url(#h)" transform="translate(-145 172.723)scale(.26611)"/><path d="M1031.08-430.697c-73.572 0-136.717 29.591-136.717 66.81 0 15.606 11.004 30.455 29.201 42.44l.702-.108c3.362-3.426 9.498-8.301 20.105-12.691 6.917-2.863 15.532-3.763 23.6-3.77 13.446-.011 25.371 2.457 25.371 2.457l41.778 18 25.87-12.072s17.75-7.839 36.61-6.551c21.18 1.448 32.91 8.843 38.81 14.319l.5.15c17.16-11.757 27.39-26.259 27.39-41.592 0-37.22-59.64-67.393-133.22-67.392" style="fill:url(#i)" transform="translate(-145 172.723)scale(.26611)"/><path d="m1035.17-317.984-.48.225-.18-.078-42.336 20.726c12.086 1.92 24.816 2.967 37.896 2.967 1.96 0 3.91-.033 5.86-.078z" style="fill:url(#j)" transform="translate(-145 172.723)scale(.26611)"/><path d="M968.836-338.232c1.056 3.318 2.15 7.611 3.125 13.172 1.965 11.216 2.256 19.445 2.181 24.285a223 223 0 0 0 18.133 3.637l42.335-20.726-41.601-17.922s-11.227-2.317-24.173-2.446" style="fill:url(#k)" transform="translate(-145 172.723)scale(.26611)"/><path d="M1110.58-334.373c-1.45 3.999-3.14 9.354-4.11 14.746-.72 3.947-1.12 8.846-1.36 13.328 11.91-4.278 22.45-9.52 31.21-15.475-4.5-4.228-12.53-9.655-25.74-12.599" style="fill:#dd6b00;fill-opacity:.41" transform="translate(-145 172.723)scale(.26611)"/><path d="m800.322 558.539-71.877 32.195.467.963c-34.027 18.397-37.044 81.081-6.394 149.942 27.394 61.546 86.518 109.498 123.959 93.699.21-.089.413-.186.621-.277l.566 1.168 79.217-40.786-.317-.613c-36.32 13.887-82.297-11.072-123.459-90.865-31.017-60.13-30.861-121.919-2.783-145.426" style="fill:#964700;fill-opacity:.47" transform="translate(-145.574 -28.828)scale(.26611)"/><path d="M555.494-26.958c-6.248.149-12.073 1.458-17.353 3.908-15.517 7.2-25.129 23.432-28.518 44.741 29.535 18.402 59.7 58.474 73.658 89.216 17.187 37.854 24.181 74.908 20.461 102.983 19.646 10.68 38.551 11.334 55.233 3.596 13.948-6.471 22.54-20.832 25.963-39.745l-2.159 1.844s-27.689-16.513-38.847-38.271c-8.75-17.062-6.432-52.826-6.432-52.826s-48.652-28.413-54.891-64.479c-5.105-29.521 4.76-41.711 4.76-41.711l1.096-.324c-10.164-5.449-20.387-8.637-30.268-8.924a52 52 0 0 0-2.703-.008m73.098 42.299c.485.551.97 1.099 1.451 1.658-.481-.559-.967-1.107-1.451-1.658m3.887 4.539c.423.51.841 1.028 1.261 1.543-.42-.515-.838-1.033-1.261-1.543m2.732 3.367q.603.753 1.201 1.514-.598-.76-1.201-1.514m6.309 8.278q.488.674.974 1.353-.486-.679-.974-1.353m2.746 3.861q.422.603.842 1.211-.42-.608-.842-1.211m3.24 4.756c.241.363.477.732.717 1.098-.24-.366-.476-.735-.717-1.098m5.389 8.49.281.461zm2.619 4.408q.327.568.652 1.139-.325-.571-.652-1.139m2.369 4.178q.309.553.615 1.107-.306-.554-.615-1.107m5.658 10.775q.264.534.526 1.069zm3.151 6.604.306.68zm2.617 5.918c.106.249.216.499.322.748-.106-.25-.216-.499-.322-.748m5.088 12.906.107.305zm1.886 5.469c.15.451.303.901.45 1.351-.147-.45-.3-.9-.45-1.351m2.086 6.58q.171.574.338 1.148-.167-.573-.338-1.148m1.643 5.773c.092.343.19.686.281 1.028-.091-.342-.189-.685-.281-1.028m3.008 12.633c.057.278.108.553.164.83-.056-.277-.107-.552-.164-.83m1.013 5.356q.114.638.223 1.275-.11-.637-.223-1.275m.967 6.066c.073.511.138 1.019.205 1.527-.068-.508-.132-1.016-.205-1.527m.682 5.442c.043.391.094.787.135 1.177-.041-.39-.092-.786-.135-1.177m.537 5.794c.053.715.107 1.432.15 2.141-.043-.71-.097-1.425-.15-2.141m-.395 25.274" style="fill:url(#l)" transform="translate(-75.573 125.674)scale(.26611)"/><path d="m667.396 76.201-30.032 12.123.057.034s-2.318 35.764 6.432 52.826c3.882 7.57 9.769 14.479 15.791 20.304 2.514-2.204 5.369-4.499 8.509-6.673 7.2-4.984 13.197-8.033 17.866-9.915-1.79-21.332-8.043-45.145-18.623-68.699" style="fill:url(#m)" transform="translate(-75.573 125.674)scale(.26611)"/><path d="M510.234 21.835c-4.662 29.314 2.455 68.239 22.188 106.492 23.308 45.185 48.162 72.785 71.931 85.707 3.72-28.075-3.274-65.129-20.461-102.983-13.957-30.742-44.123-70.814-73.658-89.216" style="fill:url(#n)" transform="translate(-75.573 125.674)scale(.26611)"/><path d="m587.881-18.005-1.095.324s-9.866 12.19-4.76 41.711c1.08 6.245 3.452 12.253 6.603 17.932 6.126-1.062 13.321-2.794 21.627-5.621a476 476 0 0 0 26.78-10c-14.912-19.358-31.945-35.119-49.155-44.346" style="fill:#c85e00;fill-opacity:.44" transform="translate(-75.573 125.674)scale(.26611)"/><path d="M637.187 26.282a475 475 0 0 1-26.779 10c-8.307 2.828-15.502 4.56-21.627 5.621 14.973 26.984 47.913 46.328 48.23 46.514l30.031-12.123a248 248 0 0 0-6.771-13.916c-6.76-12.845-14.578-25.053-23.084-36.096" style="fill:url(#o)" transform="translate(-75.573 125.674)scale(.26611)"/><path d="M685.81 145.117c-4.669 1.881-10.666 4.93-17.865 9.914-3.141 2.174-5.995 4.47-8.51 6.673 11.286 10.919 23.056 17.967 23.056 17.967l2.159-1.843c1.778-9.829 2.152-20.891 1.16-32.711" style="fill:#612f00;fill-opacity:.54" transform="translate(-75.573 125.674)scale(.26611)"/><defs><linearGradient id="a" x1="0" y1="0" x2="1" y2="0" gradientUnits="userSpaceOnUse" gradientTransform="rotate(63.369 311.849 1138.949)scale(253.188)"><stop offset="0" style="stop-color:#e47200;stop-opacity:.4"/><stop offset=".42" style="stop-color:#8f4200;stop-opacity:.48"/><stop offset=".64" style="stop-color:#2b1600;stop-opacity:.6"/><stop offset=".81" style="stop-color:#512800;stop-opacity:.55"/><stop offset="1" style="stop-color:#b45600;stop-opacity:.45"/></linearGradient><linearGradient id="c" x1="0" y1="0" x2="1" y2="0" gradientUnits="userSpaceOnUse" gradientTransform="rotate(61.644 669.361 1130.054)scale(68.6428)"><stop offset="0" style="stop-color:#848544;stop-opacity:1"/><stop offset="1" style="stop-color:#c6b763;stop-opacity:1"/></linearGradient><linearGradient id="d" x1="0" y1="0" x2="1" y2="0" gradientUnits="userSpaceOnUse" gradientTransform="rotate(-60.022 830.272 -1035.677)scale(272.664)"><stop offset="0" style="stop-color:#6a793b;stop-opacity:1"/><stop offset=".06" style="stop-color:#98ae58;stop-opacity:1"/><stop offset=".47" style="stop-color:#cce878;stop-opacity:1"/><stop offset=".79" style="stop-color:#9bb159;stop-opacity:1"/><stop offset=".95" style="stop-color:#53602e;stop-opacity:1"/><stop offset="1" style="stop-color:#303818;stop-opacity:1"/></linearGradient><linearGradient id="e" x1="0" y1="0" x2="1" y2="0" gradientUnits="userSpaceOnUse" gradientTransform="rotate(58.917 711.436 1207.684)scale(55.1568)"><stop offset="0" style="stop-color:#241000;stop-opacity:.61"/><stop offset="1" style="stop-color:#7a3b00;stop-opacity:.51"/></linearGradient><linearGradient id="f" x1="0" y1="0" x2="1" y2="0" gradientUnits="userSpaceOnUse" gradientTransform="rotate(-57.599 775.565 -1136.075)scale(62.063)"><stop offset="0" style="stop-color:#8ea252;stop-opacity:1"/><stop offset="1" style="stop-color:#98ad58;stop-opacity:1"/></linearGradient><linearGradient id="g" x1="0" y1="0" x2="1" y2="0" gradientUnits="userSpaceOnUse" gradientTransform="rotate(62.609 609.662 1105.98)scale(37.7057)"><stop offset="0" style="stop-color:#8d8445;stop-opacity:1"/><stop offset="1" style="stop-color:#b9a35a;stop-opacity:1"/></linearGradient><linearGradient id="h" x1="0" y1="0" x2="1" y2="0" gradientUnits="userSpaceOnUse" gradientTransform="translate(1035.25 -315.279)scale(70.725)"><stop offset="0" style="stop-color:#cdba66;stop-opacity:1"/><stop offset="1" style="stop-color:#b29855;stop-opacity:1"/></linearGradient><linearGradient id="i" x1="0" y1="0" x2="1" y2="0" gradientUnits="userSpaceOnUse" gradientTransform="translate(894.363 -374.128)scale(269.938)"><stop offset="0" style="stop-color:#8fa452;stop-opacity:1"/><stop offset=".35" style="stop-color:#2c3516;stop-opacity:1"/><stop offset=".5" style="stop-color:#525f2d;stop-opacity:1"/><stop offset="1" style="stop-color:#97ac57;stop-opacity:1"/></linearGradient><linearGradient id="j" x1="0" y1="0" x2="1" y2="0" gradientUnits="userSpaceOnUse" gradientTransform="rotate(-11.018 -1047.705 -5305.606)scale(42.01883)"><stop offset="0" style="stop-color:#c5ae5a;stop-opacity:1"/><stop offset="1" style="stop-color:#a3854b;stop-opacity:1"/></linearGradient><linearGradient id="k" x1="0" y1="0" x2="1" y2="0" gradientUnits="userSpaceOnUse" gradientTransform="rotate(-40.774 86.658 -1469.747)scale(48.4177)"><stop offset="0" style="stop-color:#8ca151;stop-opacity:1"/><stop offset="1" style="stop-color:#363f1c;stop-opacity:1"/></linearGradient><linearGradient id="l" x1="0" y1="0" x2="1" y2="0" gradientUnits="userSpaceOnUse" gradientTransform="rotate(62.303 283.196 431.784)scale(266.043)"><stop offset="0" style="stop-color:#cebb67;stop-opacity:1"/><stop offset=".32" style="stop-color:#82683a;stop-opacity:1"/><stop offset=".53" style="stop-color:#79733b;stop-opacity:1"/><stop offset=".75" style="stop-color:#70753b;stop-opacity:1"/><stop offset="1" style="stop-color:#c9b965;stop-opacity:1"/></linearGradient><linearGradient id="m" x1="0" y1="0" x2="1" y2="0" gradientUnits="userSpaceOnUse" gradientTransform="rotate(27.896 111.878 1329.41)scale(55.3018)"><stop offset="0" style="stop-color:#7f7a40;stop-opacity:1"/><stop offset="1" style="stop-color:#5c572b;stop-opacity:1"/></linearGradient><linearGradient id="n" x1="0" y1="0" x2="1" y2="0" gradientUnits="userSpaceOnUse" gradientTransform="rotate(63.907 236.424 422.139)scale(207.0739)"><stop offset="0" style="stop-color:#9a8649;stop-opacity:1"/><stop offset=".25" style="stop-color:#7f6638;stop-opacity:1"/><stop offset=".5" style="stop-color:#998649;stop-opacity:1"/><stop offset="1" style="stop-color:#baae5e;stop-opacity:1"/></linearGradient><linearGradient id="o" x1="0" y1="0" x2="1" y2="0" gradientUnits="userSpaceOnUse" gradientTransform="rotate(-89.382 362.078 -278.062)scale(59.29775)"><stop offset="0" style="stop-color:#7f753e;stop-opacity:1"/><stop offset="1" style="stop-color:#bfb461;stop-opacity:1"/></linearGradient><radialGradient id="b" cx="0" cy="0" r="1" gradientUnits="userSpaceOnUse" gradientTransform="rotate(42.286 -152.907 1277.967)scale(524.041 530.706)"><stop offset="0" style="stop-color:#fff755;stop-opacity:1"/><stop offset=".31" style="stop-color:#fdec50;stop-opacity:1"/><stop offset=".61" style="stop-color:#a4932f;stop-opacity:1"/><stop offset=".77" style="stop-color:#504611;stop-opacity:1"/><stop offset="1" style="stop-color:#dac442;stop-opacity:1"/></radialGradient></defs></svg>