<svg width="256" height="256" title="OrcaSlicer" viewBox="0 0 256 256" fill="none" xmlns="http://www.w3.org/2000/svg">
<rect width="256" height="256" rx="40" fill="url(#linearGradient)"/>
<path d="M164.662 63.1602C167.327 68.143 161.146 76.6426 150.857 82.1447C140.568 87.6468 130.067 88.0678 127.402 83.085C124.738 78.1022 130.919 69.6025 141.208 64.1004C151.497 58.5983 161.998 58.1774 164.662 63.1602Z" fill="white"/>
<path d="M145 38H155L159.5 38.5L163.379 38.8342L166.504 39.3911L171.415 40.6163L174.875 41.7302L178 42.8441L180.232 43.7351L181.906 44.5149L184.473 45.7401L187.04 47.0767L189.384 48.4134L192.509 50.4183L194.629 51.8663L196.192 53.0916L197.531 54.2054L198.759 55.2079L199.652 55.8762L200.098 56.3218L201.772 57.7698L203 58.995L203.5 59.5L203 60.4431L202.219 61.3342L186.036 77.4851L185.589 78.0421L184.808 78.7104L184.138 79.4901L183.246 80.2698L182.688 80.9381L180.79 82.8317L180.121 83.3886L179.786 83.8342H179.562L179.339 84.2797L178.893 84.5025L178.67 84.948L174.54 89.0693L173.871 89.849L173.089 90.5173L172.42 91.297L172.643 91.7426L173.536 92.6337L174.317 93.5247L175.321 94.6386L176.326 95.8639L177.442 97.2005L178.112 98.0916L179.674 100.208L181.46 102.881L182.464 104.441L183.58 106.334L184.92 108.785L185.812 110.567L187.152 113.351L188.045 115.468L188.938 117.807L190.054 121.26L191.17 125.158L191.839 128.166L192.286 130.394L192.732 133.178L193.179 136.965L193.402 140.864V146.322L193.067 151.668L192.509 155.79L192.062 158.351L191.393 161.47L190.723 164.032L189.719 167.262L188.045 171.941L186.705 174.948L185.478 177.51L184.027 180.295L182.911 182.188L182.018 183.636L180.79 185.53L179.339 187.646L178.335 188.983L177.219 190.431L176.214 191.656L174.875 193.215L173.536 194.663L172.754 195.554L171.862 196.557L171.304 197.114L170.746 197.559L168.848 199.453L167.955 200.233L167.174 200.901H166.951V201.124L166.17 201.792H165.946V202.015L165.277 202.46L163.938 203.574L161.817 205.134L158.134 207.584L155.679 209.032L154.004 210.035L150.433 211.817L148.647 212.597L146.973 213.376L144.741 214.267L141.504 215.381L139.049 216.161L135.701 217.052L132.241 217.72L131.125 217.943L127.554 218.389L126.549 218.5H110.143L109.696 218.389L107.241 218.166L103.335 217.498L99.4286 216.606L96.3036 215.715L93.067 214.601L89.6071 213.265L87.933 212.485L86.1473 211.705L84.25 210.703L82.4643 209.812L80.9018 208.921L78.1116 207.25L76.3259 206.025L74.4286 204.688L72.5312 203.24L71.4152 202.349L69.9643 201.124L68.4018 199.787L67.0625 198.562L66.1696 197.671L65.7232 197.337L65.9464 196.78L66.2812 196.334H66.5045L66.7277 195.889L83.4688 179.181L84.25 178.29L84.6964 178.067L84.9196 177.621L86.0357 176.619L86.817 175.839L87.5982 174.948L96.3036 166.26L97.0848 165.592L96.75 165.035L95.0759 163.252L93.7366 161.693L92.5089 160.245L91.3929 158.797L89.8304 156.681L87.5982 153.339L86.2589 151.111L84.6964 148.327L83.8036 146.545L82.4643 143.76L81.5714 141.644L80.6786 139.416L80.0089 137.522L78.8929 134.181L78.3348 132.287L77.442 128.611L76.7723 124.824L76.4375 122.485L75.9911 117.696L75.8795 112.683L75.9911 108.45L76.5491 102.77L77.2188 98.7599L78 95.0842L78.8929 91.7426L80.2321 87.7327L80.6786 86.5074L82.1295 82.9431L83.1339 80.7153L84.3616 78.2649L84.25 77.5965L83.0223 76.1485L82.0179 74.9233L80.3438 73.1411L78.1116 70.9134L77.2188 70.1337L75.8795 69.0198L74.4286 67.9059L72.4196 66.4579L70.0759 65.0099L67.6205 63.5619L65.0536 62.3366L62.2634 61.1114L58.2455 59.7748L54.8973 58.8837L53.558 58.4381L50.5 57.5L49 57L53.558 54.0941L55.0089 53.5371L56.4598 52.8688L59.9196 51.5322L62.8214 50.5297L65.9464 49.5272L68.1786 48.9703L69.7411 48.5248L73.7589 47.6337L79.3393 46.7426L82.7991 46.4084L86.1473 46.1856H93.7366L98.3125 46.5198L101.103 46.854L104.339 47.2995L107.799 47.9678L111.036 48.7475H111.929L114.496 47.2995L116.728 46.0743L118.848 45.0718L120.411 44.2921L122.531 43.401L125.656 42.1757L130.455 40.6163L132.353 40.1708L134.027 39.7252L137.152 39.0569L138.603 38.8342L141.5 38.5L145 38ZM154.004 59.8861L151.772 60.2203L149.54 60.6658L146.527 61.6683L144.183 62.6708L142.397 63.5619L140.946 64.3416L138.826 65.6782L136.817 67.1262L135.701 68.0173L134.027 69.4653L133.58 69.9109V70.1337L133.134 70.3564L131.795 71.9158L130.679 73.3639L129.674 74.9233L128.781 76.9282L128.335 78.599L128.223 79.2673V80.8267L128.558 82.2747L129.116 83.2772L130.121 84.3911L131.348 85.1708L132.688 85.7277L134.92 86.1733H138.268L141.616 85.6163L144.741 84.7252L146.973 83.8342L148.536 83.1658L150.656 82.052L153 80.7153L154.562 79.6015L156.348 78.2649L157.911 76.9282L159.92 74.9233L160.924 73.698L161.817 72.4728L162.71 71.0247L163.603 69.1312L164.049 67.6832L164.161 66.7921V65.1213L163.938 64.1188L163.268 62.7822L162.263 61.6683L160.812 60.7772L159.585 60.3317L158.246 59.9975L157.464 59.8861H154.004Z" fill="#282625"/>
<path d="M188.603 117.696L188.938 117.807L190.054 121.26L191.17 125.158L191.839 128.166L192.286 130.394L192.732 133.178L193.179 136.965L193.402 140.864V146.322L193.067 151.668L192.509 155.79L192.062 158.351L191.393 161.47L190.723 164.032L189.719 167.262L188.045 171.941L186.705 174.948L185.478 177.51L184.027 180.295L182.911 182.188L182.018 183.636L180.79 185.53L179.339 187.646L178.335 188.983L177.219 190.431L176.214 191.656L174.875 193.215L173.536 194.663L172.754 195.554L171.862 196.557L171.304 197.114L170.746 197.559L168.848 199.453L167.955 200.233L167.174 200.901H166.951V201.124L166.17 201.792H165.946V202.015L165.277 202.46L163.938 203.574L161.817 205.134L158.134 207.584L155.679 209.032L154.004 210.035L150.433 211.817L148.647 212.597L146.973 213.376L144.741 214.267L141.504 215.381L139.049 216.161L135.701 217.052L132.241 217.72L131.125 217.943L127.554 218.389L126.549 218.5H110.143L109.696 218.389L107.241 218.166L103.335 217.498L99.4286 216.606L96.3036 215.715L93.067 214.601L89.6071 213.265L87.933 212.485L86.1473 211.705L84.25 210.703L82.4643 209.812L80.9018 208.921L78.1116 207.25L76.3259 206.025L74.4286 204.688L72.5312 203.24L71.4152 202.349L69.9643 201.124L68.4018 199.787L67.0625 198.562L66.1696 197.671L65.8348 197.448V197.225L67.1741 196.668L68.9598 195.777L71.5268 194.441L73.9821 193.104L76.1027 191.99L78.558 190.653L81.7946 188.871L84.5848 187.312L87.7098 185.53L90.6116 183.859L100.321 178.178L103.112 176.507L104.897 175.394L107.464 173.834L109.25 172.72L111.817 171.161L116.058 168.488L118.402 167.04L123.312 163.921L130.679 159.131L132.353 158.017L135.924 155.678L137.263 154.787L139.719 153.116L141.393 152.002L146.973 148.215L149.54 146.433L151.661 144.985L156.125 141.866L159.92 139.193L163.938 136.297L165.5 135.183L169.741 132.064L171.973 130.394L174.094 128.834L176.326 127.163L178.67 125.381L180.455 124.045L181.906 122.931L183.915 121.371L185.366 120.257L187.375 118.698L188.603 117.696Z" fill="#282625"/>
<path d="M172.196 91.4084L172.978 92.0767L174.652 93.8589L175.656 95.0842L176.996 96.6436L178 97.9802L179.116 99.4282L180.121 100.876L182.353 104.218L184.027 107.114L185.254 109.342L186.482 111.903L187.933 115.134L188.826 117.584L188.268 118.141L186.371 119.589L184.696 120.926L182.799 122.374L180.79 123.933L178.558 125.604L176.214 127.386L174.429 128.723L170.188 131.842L168.402 133.178L166.393 134.626L164.607 135.963L162.71 137.299L160.701 138.748L155.009 142.757L152.777 144.317L150.991 145.542L149.094 146.879L146.973 148.327L144.518 149.998L141.728 151.891L140.054 153.005L137.263 154.899L135.589 156.012L132.018 158.351L130.344 159.465L125.879 162.361L123.089 164.144L120.857 165.592L118.737 166.928L116.058 168.599L113.938 169.936L111.259 171.606L109.027 172.943L107.799 173.723L104.897 175.505L102.888 176.73L99.317 178.847L94.4062 181.743L91.5045 183.413L89.6071 184.527L86.7054 186.198L81.5714 189.094L73.9821 193.215L68.2902 196.223L66.1696 197.225L65.7232 197.337L65.9464 196.78L66.2812 196.334H66.5045L66.7277 195.889L83.4688 179.181L84.25 178.29L84.6964 178.067L84.9196 177.621L86.0357 176.619L86.817 175.839L87.5982 174.948L96.3036 166.26L97.1964 165.48L97.8661 165.926L113.714 150.109L114.384 149.329L115.277 148.549L116.281 147.436L138.045 125.715L138.826 124.824L139.607 124.045L140.277 123.488L141.058 122.597L161.817 101.879L162.598 100.988L163.268 100.319H163.491L163.714 99.8738L172.196 91.4084Z" fill="#009688"/>
<linearGradient id="linearGradient" x1="21.4716" y1="-7.06301e-07" x2="234.528" y2="256" gradientUnits="userSpaceOnUse">
<stop stop-color="#DADBD9"/>
<stop offset="1" stop-color="#F9F9F9"/>
</linearGradient>
</svg>