<svg viewBox="0 0 256 256" xmlns="http://www.w3.org/2000/svg" xml:space="preserve" style="fill-rule:evenodd;clip-rule:evenodd;stroke-linejoin:round;stroke-miterlimit:2"><path d="M256 40v176c0 22.077-17.923 40-40 40H40c-22.077 0-40-17.923-40-40V40C0 17.923 17.923 0 40 0h176c22.077 0 40 17.923 40 40" style="fill:#15191c"/><path d="M234.89 77.29c-.05-32.85-25.63-59.77-55.64-69.48C141.97-4.26 92.82-2.51 57.22 14.28 14.08 34.64.53 79.23.03 123.7c-.41 36.56 3.23 132.87 57.55 133.55 40.36.51 46.37-51.49 65.05-76.54 13.29-17.82 30.39-22.85 51.45-28.07 36.2-8.96 60.86-37.52 60.81-75.36z" style="fill:#fff;fill-rule:nonzero" transform="translate(66.683 48.798)scale(.61574)"/></svg>