<svg viewBox="0 0 256 256" xmlns="http://www.w3.org/2000/svg" xml:space="preserve" style="fill-rule:evenodd;clip-rule:evenodd;stroke-linejoin:round;stroke-miterlimit:2"><path d="M256 40v176c0 22.077-17.923 40-40 40H40c-22.077 0-40-17.923-40-40V40C0 17.923 17.923 0 40 0h176c22.077 0 40 17.923 40 40" style="fill:#15191c"/><clipPath id="a"><path d="M256 40v176c0 22.077-17.923 40-40 40H40c-22.077 0-40-17.923-40-40V40C0 17.923 17.923 0 40 0h176c22.077 0 40 17.923 40 40"/></clipPath><g clip-path="url(#a)"><path d="M110.481 63.783c10.859 18.761 17.079 40.542 17.079 63.774H0c47.204 0 88.423-25.654 110.481-63.774" style="fill:#78e600" transform="translate(0 .002)scale(2.0069)"/><path d="M.001 0H127.56c-23.232 0-45.018 6.216-63.781 17.075C45.014 6.216 23.235 0 .001 0" style="fill:#ffab00" transform="translate(0 .002)scale(2.0069)"/><path d="M127.56 0v127.558c0-23.232-6.216-45.019-17.074-63.781C121.344 45.013 127.56 23.233 127.56 0" style="fill:#91bf00" transform="translate(0 .002)scale(2.0069)"/><path d="M127.56 0c-.001 23.232-6.216 45.014-17.074 63.777a128 128 0 0 0-11.737-16.963q.607.04 1.226.041c10.64 0 19.268-8.626 19.268-19.267s-8.628-19.27-19.268-19.27c-10.642 0-19.269 8.628-19.269 19.27q.001.616.041 1.226a128 128 0 0 0-16.964-11.738C82.547 6.216 104.326 0 127.56 0" style="fill:#6c8300" transform="translate(0 .002)scale(2.0069)"/><path d="M.001 127.558c.001-47.2 25.658-88.418 63.778-110.476a128 128 0 0 1 16.966 11.745c.612 9.654 8.335 17.375 17.988 17.988a128 128 0 0 1 11.749 16.967C88.422 101.903 47.204 127.558.001 127.558M63.78 36.192c15.234 0 27.586 12.354 27.586 27.588 0 15.23-12.352 27.584-27.586 27.584S36.194 79.011 36.194 63.781c0-15.235 12.352-27.589 27.586-27.589M27.587 80.704c10.641 0 19.269 8.629 19.269 19.267 0 10.642-8.628 19.27-19.269 19.27-10.638 0-19.268-8.628-19.268-19.27 0-10.638 8.63-19.267 19.268-19.267" style="fill:#6e9600" transform="translate(0 .002)scale(2.0069)"/><path d="M27.588 89.818c5.606 0 10.152 4.548 10.152 10.154s-4.546 10.151-10.152 10.151-10.153-4.545-10.153-10.151 4.546-10.154 10.153-10.154M63.78 49.242c8.027 0 14.537 6.511 14.537 14.537s-6.51 14.537-14.537 14.537-14.537-6.511-14.537-14.537 6.51-14.537 14.537-14.537m36.193-31.807c5.607 0 10.153 4.545 10.153 10.151 0 5.608-4.546 10.153-10.153 10.153-5.606 0-10.153-4.545-10.153-10.153-.001-5.607 4.546-10.151 10.153-10.151M.001 127.557V0c23.232 0 45.014 6.22 63.777 17.078C25.655 39.137.001 80.354.001 127.557" style="fill:#ffe600" transform="translate(0 .002)scale(2.0069)"/><path d="M99.973 8.318c10.64 0 19.269 8.629 19.269 19.269s-8.629 19.268-19.269 19.268q-.62-.001-1.23-.04a128.4 128.4 0 0 0-17.997-17.998 20 20 0 0 1-.04-1.229c-.001-10.641 8.627-19.27 19.267-19.27m0 9.116c5.606 0 10.153 4.546 10.153 10.153 0 5.606-4.547 10.152-10.153 10.152S89.82 33.193 89.82 27.587c-.001-5.608 4.546-10.153 10.153-10.153" style="fill:#32a000" transform="translate(0 .002)scale(2.0069)"/><path d="M98.742 46.814c-9.658-.609-17.388-8.339-17.997-17.998a128.4 128.4 0 0 1 17.997 17.998M27.588 89.818c5.606 0 10.153 4.547 10.153 10.153s-4.547 10.153-10.153 10.153-10.153-4.547-10.153-10.153 4.546-10.153 10.153-10.153M63.78 49.242c8.027 0 14.537 6.51 14.537 14.537s-6.51 14.536-14.537 14.536-14.537-6.509-14.537-14.536 6.51-14.537 14.537-14.537m0-13.05c15.233 0 27.586 12.354 27.586 27.586S79.013 91.364 63.78 91.364 36.194 79.011 36.194 63.779 48.547 36.192 63.78 36.192M27.588 80.703c10.64 0 19.269 8.629 19.269 19.269s-8.629 19.268-19.269 19.268-19.269-8.629-19.269-19.269 8.629-19.268 19.269-19.268" style="fill:#32be00" transform="translate(0 .002)scale(2.0069)"/></g></svg>