<svg width="256" height="256" viewBox="0 0 256 256" fill="none" xmlns="http://www.w3.org/2000/svg" id="perplexity">
<style>
#perplexity {
    rect {fill: #15191C}
    path {fill: #F4F2ED}

    @media (prefers-color-scheme: light) {
        rect {fill: #F4F2ED}
        path {fill: #15191C}
    }
}
</style>
<rect width="256" height="256" rx="25" fill="#15191C"/>
<path fill-rule="evenodd" clip-rule="evenodd" d="M73.4088 41L123.031 86.7197V86.7092V41.1055H132.691V86.9243L182.535 41V93.1272H203V168.316H182.598V214.733L132.691 170.885V215.236H123.031V171.608L73.4651 215.265V168.316H53V93.1272H73.4088V41ZM115.749 102.669H62.6595V158.774H73.4529V141.076L115.749 102.669ZM83.1241 145.31V193.974L123.031 158.824V109.063L83.1241 145.31ZM132.969 158.36V109.016L172.887 145.265V168.316H172.939V193.477L132.969 158.36ZM182.598 158.774H193.34V102.669H140.646L182.598 140.679V158.774ZM172.876 93.1272V62.9476L140.12 93.1272H172.876ZM115.824 93.1272H83.0684V62.9476L115.824 93.1272Z" fill="#F4F2ED"/>
</svg>