<svg version="1.1" id="Layer_1" xmlns="http://www.w3.org/2000/svg" xmlns:xlink="http://www.w3.org/1999/xlink" x="0px" y="0px"
	 width="100%" viewBox="0 0 512 512" enable-background="new 0 0 512 512" xml:space="preserve">
<path fill="#FD4F01" opacity="1.000000" stroke="none" 
	d="
M1.000005,471.000000 
	C1.000000,328.643341 1.000000,186.286682 1.343545,43.313698 
	C5.907449,24.446159 16.553064,11.549824 33.877682,4.329387 
	C37.146523,2.967021 40.620617,2.097133 44.000000,1.000000 
	C185.689987,1.000000 327.379974,1.000000 469.701874,1.346124 
	C489.988617,5.636726 503.312775,17.014769 510.296997,35.793392 
	C511.300262,38.490883 512.103943,41.262623 513.000000,44.000000 
	C513.000000,186.023331 513.000000,328.046661 512.654175,470.675354 
	C508.335114,488.539612 498.583466,501.232513 482.389893,508.642578 
	C478.425415,510.456726 474.138611,511.566467 470.000000,513.000000 
	C327.976685,513.000000 185.953354,513.000000 43.309654,512.658813 
	C24.527845,507.974548 11.457892,497.553925 4.331019,480.093384 
	C3.111916,477.106659 2.104963,474.033325 1.000005,471.000000 
M116.861000,314.534790 
	C116.700508,314.655792 116.540024,314.776794 116.379532,314.897766 
	C116.630928,314.866730 116.882317,314.835663 116.754539,315.468994 
	C135.956512,344.868744 163.049942,363.642426 196.242935,373.905365 
	C214.057846,379.413544 232.105881,377.307190 250.169525,374.599152 
	C263.822174,372.552368 277.592438,370.871643 291.356323,374.098785 
	C297.085449,375.442078 302.800812,376.844116 309.664703,378.493988 
	C305.943512,371.914612 300.619049,369.072235 295.630615,365.948120 
	C283.008209,358.042969 268.789764,357.059448 254.405319,356.062347 
	C246.048920,355.483093 237.773895,353.257355 229.555206,351.368073 
	C225.580261,350.454315 222.728683,347.865448 222.918091,343.209259 
	C223.104813,338.619476 226.550995,337.159149 230.119751,336.058167 
	C233.886337,334.896179 237.747208,334.039825 242.496658,332.808990 
	C239.999222,331.550476 238.424454,330.675659 236.785645,329.944397 
	C226.837494,325.505493 217.200287,327.957123 207.717575,331.513184 
	C186.813538,339.352325 166.158676,337.931885 145.964630,329.389648 
	C136.060257,325.200043 126.669556,319.796112 116.861000,314.534790 
M21.189581,121.225548 
	C43.089607,119.980934 57.564533,130.750168 66.586670,149.779022 
	C72.197968,161.613968 75.045479,174.295258 76.015060,187.332672 
	C77.113480,202.102570 77.146324,216.992935 79.008888,231.657364 
	C85.539284,283.072845 120.839951,313.464630 165.498825,322.640320 
	C175.196045,324.632721 184.886230,324.409698 195.873627,321.742706 
	C193.781265,321.287903 193.047684,321.119873 192.310501,320.969452 
	C165.724457,315.546143 149.267059,299.216736 141.487076,273.633728 
	C137.755295,261.362427 142.814026,250.576080 154.486053,247.524857 
	C159.607086,246.186142 165.424255,246.121613 170.679993,246.980240 
	C181.132751,248.687881 188.174454,256.095154 194.766388,263.717102 
	C205.989655,276.694031 216.787888,290.053711 228.348984,302.719238 
	C241.511154,317.138794 257.576843,325.860809 277.841949,323.923981 
	C298.910614,321.910370 317.792633,314.191162 334.443481,301.120209 
	C338.512207,297.926208 342.392151,294.491730 346.358887,291.167816 
	C346.148834,290.754639 345.938782,290.341492 345.728729,289.928314 
	C344.351166,290.066620 342.927185,290.026001 341.602875,290.369507 
	C312.920135,297.810059 284.662537,295.752350 257.372681,284.906158 
	C232.397278,274.979828 214.282654,257.655579 205.871582,231.375229 
	C201.355804,217.265701 209.242935,206.588531 224.042465,206.837585 
	C233.293655,206.993256 240.505417,211.441650 246.983994,217.540115 
	C257.211487,227.167480 268.355713,235.065414 282.904724,236.584198 
	C298.248718,238.185944 311.962158,233.959686 323.874329,226.248215 
	C312.592133,223.441376 300.642853,221.661224 289.610962,217.467636 
	C268.750061,209.537674 252.602753,194.765045 238.118668,178.151031 
	C225.859741,164.089386 213.774292,149.875732 201.446762,135.874908 
	C177.460220,108.632523 147.840866,93.406372 110.977135,92.984131 
	C81.294724,92.644142 53.717731,100.012138 27.723196,113.927986 
	C24.805935,115.489716 22.175045,117.589714 19.470016,119.522209 
	C19.411852,119.563766 20.065498,120.601685 21.189581,121.225548 
M384.235535,208.469879 
	C405.799133,202.839096 421.204132,210.178986 430.190735,231.036758 
	C430.806610,203.234436 413.529724,184.038605 386.663605,181.827789 
	C374.956177,180.864395 363.951935,184.149155 352.961670,187.559540 
	C315.169800,199.286697 279.733856,195.256073 247.261810,171.615295 
	C246.474854,171.042358 245.564804,170.638504 244.712173,170.155807 
	C251.772598,181.309479 260.794373,190.330429 271.853912,196.990860 
	C307.171539,218.260345 344.427460,222.259979 384.235535,208.469879 
M354.118866,301.615601 
	C344.358704,312.082397 334.396484,322.288666 320.354065,327.447754 
	C326.761017,327.706909 332.902740,327.630676 338.976471,326.949005 
	C360.055756,324.583191 379.731995,318.602814 395.376343,303.327209 
	C401.325134,297.518707 406.900208,291.316650 412.481445,285.145477 
	C418.385956,278.616913 425.488617,275.586151 434.306366,276.826263 
	C437.449432,277.268280 440.610138,277.584808 443.762787,277.958649 
	C443.987335,277.434143 444.211884,276.909637 444.436432,276.385132 
	C441.453827,274.653656 438.663116,272.332062 435.456573,271.289276 
	C418.428589,265.751923 401.693726,266.672668 385.585022,274.729492 
	C373.121643,280.963104 363.791443,290.969116 354.118866,301.615601 
M322.151550,263.686859 
	C307.468048,273.850983 291.450317,277.647430 273.585846,273.710815 
	C277.698792,276.041168 281.755859,277.970062 286.028503,278.839935 
	C312.140564,284.156036 337.101074,281.276062 359.977295,266.903290 
	C375.372070,257.230988 391.807983,253.928085 409.639832,256.803711 
	C412.904877,257.330231 416.202698,257.653534 419.485352,258.070648 
	C406.101532,247.129959 390.823914,243.146194 374.212738,244.486465 
	C355.387756,246.005356 338.404419,252.903748 322.151550,263.686859 
M247.221008,139.259476 
	C237.759613,137.196457 228.226929,136.095474 217.260147,136.226028 
	C219.267242,138.449997 220.121033,139.703186 221.254761,140.604080 
	C231.007538,148.353958 240.218781,156.990433 250.727844,163.538864 
	C269.955719,175.520203 291.286011,181.099548 314.075287,178.906769 
	C320.147827,178.322464 326.029602,175.755249 331.998962,174.098434 
	C331.849335,173.601913 331.699707,173.105392 331.550079,172.608871 
	C331.059723,172.571823 330.544434,172.417038 330.082550,172.514679 
	C312.790466,176.170715 297.978546,171.256668 284.795441,159.894211 
	C273.981537,150.573730 261.906097,143.342621 247.221008,139.259476 
M440.676788,302.699097 
	C445.738251,306.982910 450.720276,311.365082 455.877228,315.530640 
	C467.665680,325.052917 484.989258,325.811768 495.905457,317.493378 
	C491.618896,315.139679 487.004242,313.149719 483.032318,310.272491 
	C479.029419,307.372833 475.680176,303.575317 472.013184,300.205292 
	C470.545502,298.856476 469.049744,297.526489 467.471863,296.311127 
	C454.076935,285.993835 433.773804,286.100220 422.379730,296.099213 
	C428.085846,298.087433 434.080841,300.176270 440.676788,302.699097 
M329.309692,420.264435 
	C332.162689,420.559814 335.015717,420.855225 337.812897,421.144836 
	C334.241333,416.911682 330.375977,413.407715 327.836243,409.118774 
	C320.113556,396.077148 309.250946,387.431122 294.383789,384.536377 
	C287.213989,383.140381 279.787903,383.060699 272.477844,382.384949 
	C272.424561,382.871490 272.371277,383.358002 272.317993,383.844513 
	C284.310120,387.737183 294.407013,394.540924 302.803864,403.859528 
	C309.865387,411.696228 318.106110,417.583466 329.309692,420.264435 
z"/>
<path fill="#FFFCFB" opacity="1.000000" stroke="none" 
	d="
M513.000000,43.531342 
	C512.103943,41.262623 511.300262,38.490883 510.296997,35.793392 
	C503.312775,17.014769 489.988617,5.636726 470.166870,1.346124 
	C484.260040,1.000000 498.520050,1.000000 513.000000,1.000000 
	C513.000000,15.020128 513.000000,29.041407 513.000000,43.531342 
z"/>
<path fill="#FFFDFC" opacity="1.000000" stroke="none" 
	d="
M470.468658,513.000000 
	C474.138611,511.566467 478.425415,510.456726 482.389893,508.642578 
	C498.583466,501.232513 508.335114,488.539612 512.654175,471.140381 
	C513.000000,484.927551 513.000000,498.855103 513.000000,513.000000 
	C498.979858,513.000000 484.958588,513.000000 470.468658,513.000000 
z"/>
<path fill="#FFFDFB" opacity="1.000000" stroke="none" 
	d="
M43.531342,1.000000 
	C40.620617,2.097133 37.146523,2.967021 33.877682,4.329387 
	C16.553064,11.549824 5.907449,24.446159 1.343545,42.848686 
	C1.000000,29.072454 1.000000,15.144910 1.000000,1.000000 
	C15.020146,1.000000 29.041414,1.000000 43.531342,1.000000 
z"/>
<path fill="#FFFDFC" opacity="1.000000" stroke="none" 
	d="
M1.000005,471.468658 
	C2.104963,474.033325 3.111916,477.106659 4.331019,480.093384 
	C11.457892,497.553925 24.527845,507.974548 42.844639,512.658813 
	C29.073322,513.000000 15.146646,513.000000 1.000000,513.000000 
	C1.000000,499.313232 1.000000,485.625275 1.000005,471.468658 
z"/>
<path fill="#FFFEFE" opacity="1.000000" stroke="none" 
	d="
M20.788338,121.200180 
	C20.065498,120.601685 19.411852,119.563766 19.470016,119.522209 
	C22.175045,117.589714 24.805935,115.489716 27.723196,113.927986 
	C53.717731,100.012138 81.294724,92.644142 110.977135,92.984131 
	C147.840866,93.406372 177.460220,108.632523 201.446762,135.874908 
	C213.774292,149.875732 225.859741,164.089386 238.118668,178.151031 
	C252.602753,194.765045 268.750061,209.537674 289.610962,217.467636 
	C300.642853,221.661224 312.592133,223.441376 323.874329,226.248215 
	C311.962158,233.959686 298.248718,238.185944 282.904724,236.584198 
	C268.355713,235.065414 257.211487,227.167480 246.983994,217.540115 
	C240.505417,211.441650 233.293655,206.993256 224.042465,206.837585 
	C209.242935,206.588531 201.355804,217.265701 205.871582,231.375229 
	C214.282654,257.655579 232.397278,274.979828 257.372681,284.906158 
	C284.662537,295.752350 312.920135,297.810059 341.602875,290.369507 
	C342.927185,290.026001 344.351166,290.066620 345.728729,289.928314 
	C345.938782,290.341492 346.148834,290.754639 346.358887,291.167816 
	C342.392151,294.491730 338.512207,297.926208 334.443481,301.120209 
	C317.792633,314.191162 298.910614,321.910370 277.841949,323.923981 
	C257.576843,325.860809 241.511154,317.138794 228.348984,302.719238 
	C216.787888,290.053711 205.989655,276.694031 194.766388,263.717102 
	C188.174454,256.095154 181.132751,248.687881 170.679993,246.980240 
	C165.424255,246.121613 159.607086,246.186142 154.486053,247.524857 
	C142.814026,250.576080 137.755295,261.362427 141.487076,273.633728 
	C149.267059,299.216736 165.724457,315.546143 192.310501,320.969452 
	C193.047684,321.119873 193.781265,321.287903 195.873627,321.742706 
	C184.886230,324.409698 175.196045,324.632721 165.498825,322.640320 
	C120.839951,313.464630 85.539284,283.072845 79.008888,231.657364 
	C77.146324,216.992935 77.113480,202.102570 76.015060,187.332672 
	C75.045479,174.295258 72.197968,161.613968 66.586670,149.779022 
	C57.564533,130.750168 43.089607,119.980934 20.788338,121.200180 
M74.866867,114.453918 
	C80.091583,119.694061 86.238739,121.145981 93.095879,118.418015 
	C96.860634,116.920288 99.080185,113.981758 99.152626,108.883476 
	C91.153831,109.978951 83.478867,110.995033 75.824677,112.149017 
	C75.250717,112.235550 74.825279,113.307274 74.866867,114.453918 
z"/>
<path fill="#FFFDFC" opacity="1.000000" stroke="none" 
	d="
M117.046394,314.941711 
	C126.669556,319.796112 136.060257,325.200043 145.964630,329.389648 
	C166.158676,337.931885 186.813538,339.352325 207.717575,331.513184 
	C217.200287,327.957123 226.837494,325.505493 236.785645,329.944397 
	C238.424454,330.675659 239.999222,331.550476 242.496658,332.808990 
	C237.747208,334.039825 233.886337,334.896179 230.119751,336.058167 
	C226.550995,337.159149 223.104813,338.619476 222.918091,343.209259 
	C222.728683,347.865448 225.580261,350.454315 229.555206,351.368073 
	C237.773895,353.257355 246.048920,355.483093 254.405319,356.062347 
	C268.789764,357.059448 283.008209,358.042969 295.630615,365.948120 
	C300.619049,369.072235 305.943512,371.914612 309.664703,378.493988 
	C302.800812,376.844116 297.085449,375.442078 291.356323,374.098785 
	C277.592438,370.871643 263.822174,372.552368 250.169525,374.599152 
	C232.105881,377.307190 214.057846,379.413544 196.242935,373.905365 
	C163.049942,363.642426 135.956512,344.868744 116.923584,315.171906 
	C117.092636,314.874817 117.046394,314.941711 117.046394,314.941711 
z"/>
<path fill="#FFFDFC" opacity="1.000000" stroke="none" 
	d="
M383.854675,208.630508 
	C344.427460,222.259979 307.171539,218.260345 271.853912,196.990860 
	C260.794373,190.330429 251.772598,181.309479 244.712173,170.155807 
	C245.564804,170.638504 246.474854,171.042358 247.261810,171.615295 
	C279.733856,195.256073 315.169800,199.286697 352.961670,187.559540 
	C363.951935,184.149155 374.956177,180.864395 386.663605,181.827789 
	C413.529724,184.038605 430.806610,203.234436 430.190735,231.036758 
	C421.204132,210.178986 405.799133,202.839096 383.854675,208.630508 
z"/>
<path fill="#FFFCFB" opacity="1.000000" stroke="none" 
	d="
M354.360901,301.357117 
	C363.791443,290.969116 373.121643,280.963104 385.585022,274.729492 
	C401.693726,266.672668 418.428589,265.751923 435.456573,271.289276 
	C438.663116,272.332062 441.453827,274.653656 444.436432,276.385132 
	C444.211884,276.909637 443.987335,277.434143 443.762787,277.958649 
	C440.610138,277.584808 437.449432,277.268280 434.306366,276.826263 
	C425.488617,275.586151 418.385956,278.616913 412.481445,285.145477 
	C406.900208,291.316650 401.325134,297.518707 395.376343,303.327209 
	C379.731995,318.602814 360.055756,324.583191 338.976471,326.949005 
	C332.902740,327.630676 326.761017,327.706909 320.354065,327.447754 
	C334.396484,322.288666 344.358704,312.082397 354.360901,301.357117 
z"/>
<path fill="#FFFCFA" opacity="1.000000" stroke="none" 
	d="
M322.445129,263.470764 
	C338.404419,252.903748 355.387756,246.005356 374.212738,244.486465 
	C390.823914,243.146194 406.101532,247.129959 419.485352,258.070648 
	C416.202698,257.653534 412.904877,257.330231 409.639832,256.803711 
	C391.807983,253.928085 375.372070,257.230988 359.977295,266.903290 
	C337.101074,281.276062 312.140564,284.156036 286.028503,278.839935 
	C281.755859,277.970062 277.698792,276.041168 273.585846,273.710815 
	C291.450317,277.647430 307.468048,273.850983 322.445129,263.470764 
z"/>
<path fill="#FFFBFA" opacity="1.000000" stroke="none" 
	d="
M247.607574,139.393005 
	C261.906097,143.342621 273.981537,150.573730 284.795441,159.894211 
	C297.978546,171.256668 312.790466,176.170715 330.082550,172.514679 
	C330.544434,172.417038 331.059723,172.571823 331.550079,172.608871 
	C331.699707,173.105392 331.849335,173.601913 331.998962,174.098434 
	C326.029602,175.755249 320.147827,178.322464 314.075287,178.906769 
	C291.286011,181.099548 269.955719,175.520203 250.727844,163.538864 
	C240.218781,156.990433 231.007538,148.353958 221.254761,140.604080 
	C220.121033,139.703186 219.267242,138.449997 217.260147,136.226028 
	C228.226929,136.095474 237.759613,137.196457 247.607574,139.393005 
z"/>
<path fill="#FFFCFB" opacity="1.000000" stroke="none" 
	d="
M440.376282,302.482117 
	C434.080841,300.176270 428.085846,298.087433 422.379730,296.099213 
	C433.773804,286.100220 454.076935,285.993835 467.471863,296.311127 
	C469.049744,297.526489 470.545502,298.856476 472.013184,300.205292 
	C475.680176,303.575317 479.029419,307.372833 483.032318,310.272491 
	C487.004242,313.149719 491.618896,315.139679 495.905457,317.493378 
	C484.989258,325.811768 467.665680,325.052917 455.877228,315.530640 
	C450.720276,311.365082 445.738251,306.982910 440.376282,302.482117 
z"/>
<path fill="#FFFBF9" opacity="1.000000" stroke="none" 
	d="
M328.903534,420.190002 
	C318.106110,417.583466 309.865387,411.696228 302.803864,403.859528 
	C294.407013,394.540924 284.310120,387.737183 272.317993,383.844513 
	C272.371277,383.358002 272.424561,382.871490 272.477844,382.384949 
	C279.787903,383.060699 287.213989,383.140381 294.383789,384.536377 
	C309.250946,387.431122 320.113556,396.077148 327.836243,409.118774 
	C330.375977,413.407715 334.241333,416.911682 337.812897,421.144836 
	C335.015717,420.855225 332.162689,420.559814 328.903534,420.190002 
z"/>
<path fill="#FFFDFC" opacity="1.000000" stroke="none" 
	d="
M117.113174,314.839722 
	C116.882317,314.835663 116.630928,314.866730 116.379532,314.897766 
	C116.540024,314.776794 116.700508,314.655792 116.953697,314.738251 
	C117.046394,314.941711 117.092636,314.874817 117.113174,314.839722 
z"/>
<path fill="#FD560A" opacity="1.000000" stroke="none" 
	d="
M74.598831,114.187469 
	C74.825279,113.307274 75.250717,112.235550 75.824677,112.149017 
	C83.478867,110.995033 91.153831,109.978951 99.152626,108.883476 
	C99.080185,113.981758 96.860634,116.920288 93.095879,118.418015 
	C86.238739,121.145981 80.091583,119.694061 74.598831,114.187469 
z"/>
</svg>