<svg width="256" height="256" viewBox="0 0 256 256" fill="none" xmlns="http://www.w3.org/2000/svg">
  <rect width="256" height="256" rx="25" fill="#FD4F00"/>
  <path xmlns="http://www.w3.org/2000/svg" fill="white" d="M 10.152344 59.179688 C 9.796875 58.886719 9.476562 58.378906 9.507812 58.359375 C 10.828125 57.417969 12.113281 56.390625 13.535156 55.628906 C 26.230469 48.835938 39.695312 45.238281 54.1875 45.402344 C 72.1875 45.609375 86.652344 53.042969 98.363281 66.34375 C 104.382812 73.179688 110.28125 80.121094 116.269531 86.988281 C 123.339844 95.101562 131.226562 102.3125 141.410156 106.183594 C 146.796875 108.234375 152.632812 109.101562 158.140625 110.472656 C 152.324219 114.238281 145.628906 116.300781 138.136719 115.519531 C 131.03125 114.777344 125.589844 110.921875 120.597656 106.222656 C 117.433594 103.242188 113.914062 101.070312 109.394531 100.996094 C 102.167969 100.875 98.316406 106.085938 100.523438 112.976562 C 104.628906 125.808594 113.476562 134.265625 125.671875 139.113281 C 138.996094 144.410156 152.792969 145.414062 166.796875 141.78125 C 167.445312 141.613281 168.140625 141.632812 168.8125 141.566406 C 168.914062 141.769531 169.019531 141.96875 169.121094 142.171875 C 167.183594 143.792969 165.289062 145.472656 163.300781 147.03125 C 155.171875 153.414062 145.953125 157.183594 135.664062 158.164062 C 125.769531 159.113281 117.925781 154.851562 111.5 147.8125 C 105.851562 141.628906 100.582031 135.105469 95.101562 128.769531 C 91.882812 125.046875 88.445312 121.429688 83.339844 120.597656 C 80.773438 120.175781 77.933594 120.207031 75.433594 120.863281 C 69.734375 122.351562 67.261719 127.617188 69.085938 133.609375 C 72.882812 146.101562 80.921875 154.074219 93.902344 156.722656 C 94.261719 156.796875 94.621094 156.878906 95.640625 157.101562 C 90.277344 158.402344 85.546875 158.511719 80.808594 157.539062 C 59.003906 153.058594 41.765625 138.21875 38.578125 113.113281 C 37.667969 105.953125 37.652344 98.683594 37.117188 91.472656 C 36.644531 85.105469 35.253906 78.914062 32.511719 73.132812 C 28.109375 63.84375 21.039062 58.585938 10.152344 59.179688 M 36.554688 55.886719 C 39.105469 58.445312 42.109375 59.152344 45.457031 57.820312 C 47.296875 57.089844 48.378906 55.65625 48.414062 53.164062 C 44.507812 53.699219 40.761719 54.195312 37.023438 54.761719 C 36.742188 54.800781 36.535156 55.324219 36.554688 55.886719 Z M 36.554688 55.886719 "/>
  <path xmlns="http://www.w3.org/2000/svg" fill="white" d="M 57.152344 153.78125 C 61.851562 156.152344 66.4375 158.789062 71.273438 160.835938 C 81.132812 165.003906 91.21875 165.699219 101.425781 161.871094 C 106.054688 160.136719 110.761719 158.9375 115.617188 161.105469 C 116.417969 161.460938 117.1875 161.890625 118.40625 162.503906 C 116.085938 163.105469 114.203125 163.523438 112.363281 164.089844 C 110.621094 164.628906 108.9375 165.339844 108.847656 167.582031 C 108.753906 169.855469 110.148438 171.121094 112.085938 171.566406 C 116.101562 172.488281 120.140625 173.574219 124.222656 173.859375 C 131.246094 174.34375 138.1875 174.824219 144.351562 178.6875 C 146.785156 180.210938 149.386719 181.597656 151.203125 184.8125 C 147.851562 184.007812 145.0625 183.320312 142.265625 182.664062 C 135.542969 181.089844 128.820312 181.910156 122.152344 182.910156 C 113.332031 184.230469 104.519531 185.261719 95.820312 182.570312 C 79.613281 177.558594 66.386719 168.394531 57.089844 153.890625 C 57.175781 153.746094 57.152344 153.78125 57.152344 153.78125 Z M 57.152344 153.78125 "/>
  <path xmlns="http://www.w3.org/2000/svg" fill="white" d="M 160.597656 205.171875 C 155.324219 203.898438 151.300781 201.023438 147.851562 197.195312 C 143.753906 192.648438 138.824219 189.324219 132.96875 187.425781 C 132.992188 187.1875 133.019531 186.949219 133.046875 186.710938 C 136.613281 187.042969 140.242188 187.082031 143.742188 187.761719 C 151 189.175781 156.304688 193.398438 160.078125 199.765625 C 161.316406 201.859375 163.203125 203.570312 164.949219 205.636719 C 163.582031 205.496094 162.1875 205.351562 160.597656 205.171875 Z M 160.597656 205.171875 "/>
  <path xmlns="http://www.w3.org/2000/svg" fill="white" d="M 120.902344 68.0625 C 127.882812 69.992188 133.78125 73.523438 139.058594 78.074219 C 145.496094 83.621094 152.730469 86.019531 161.171875 84.234375 C 161.398438 84.1875 161.648438 84.261719 161.890625 84.28125 C 161.960938 84.523438 162.035156 84.765625 162.109375 85.007812 C 159.195312 85.816406 156.320312 87.070312 153.355469 87.355469 C 142.230469 88.425781 131.8125 85.703125 122.425781 79.851562 C 117.292969 76.65625 112.796875 72.4375 108.035156 68.65625 C 107.480469 68.214844 107.0625 67.601562 106.085938 66.515625 C 111.4375 66.453125 116.09375 66.992188 120.902344 68.0625 Z M 120.902344 68.0625 "/>
  <path xmlns="http://www.w3.org/2000/svg" fill="white" d="M 187.429688 101.871094 C 168.175781 108.523438 149.984375 106.574219 132.742188 96.1875 C 127.339844 92.933594 122.9375 88.53125 119.488281 83.082031 C 119.90625 83.320312 120.347656 83.515625 120.734375 83.796875 C 136.589844 95.339844 153.890625 97.308594 172.34375 91.582031 C 177.710938 89.917969 183.085938 88.3125 188.800781 88.78125 C 201.917969 89.863281 210.355469 99.234375 210.054688 112.8125 C 205.667969 102.625 198.144531 99.042969 187.429688 101.871094 Z M 187.429688 101.871094 "/>
  <path xmlns="http://www.w3.org/2000/svg" fill="white" d="M 157.445312 128.648438 C 165.238281 123.488281 173.527344 120.121094 182.722656 119.378906 C 190.832031 118.722656 198.292969 120.667969 204.828125 126.011719 C 203.222656 125.808594 201.613281 125.648438 200.019531 125.390625 C 191.3125 123.988281 183.289062 125.601562 175.769531 130.324219 C 164.601562 137.34375 152.414062 138.75 139.664062 136.152344 C 137.574219 135.726562 135.59375 134.785156 133.585938 133.648438 C 142.308594 135.570312 150.132812 133.714844 157.445312 128.648438 Z M 157.445312 128.648438 "/>
  <path xmlns="http://www.w3.org/2000/svg" fill="white" d="M 173.027344 147.148438 C 177.632812 142.074219 182.1875 137.1875 188.273438 134.144531 C 196.140625 130.210938 204.3125 129.761719 212.625 132.464844 C 214.191406 132.976562 215.554688 134.109375 217.011719 134.953125 C 216.898438 135.210938 216.789062 135.464844 216.679688 135.722656 C 215.140625 135.539062 213.597656 135.386719 212.0625 135.167969 C 207.757812 134.5625 204.289062 136.042969 201.40625 139.230469 C 198.683594 142.246094 195.960938 145.273438 193.054688 148.109375 C 185.414062 155.566406 175.808594 158.488281 165.515625 159.644531 C 162.550781 159.976562 159.550781 160.011719 156.421875 159.886719 C 163.28125 157.367188 168.144531 152.382812 173.027344 147.148438 Z M 173.027344 147.148438 "/>
  <path xmlns="http://www.w3.org/2000/svg" fill="white" d="M 215.027344 147.695312 C 211.953125 146.570312 209.027344 145.550781 206.238281 144.578125 C 211.804688 139.699219 221.71875 139.644531 228.257812 144.683594 C 229.027344 145.277344 229.757812 145.925781 230.476562 146.585938 C 232.265625 148.230469 233.902344 150.085938 235.855469 151.5 C 237.796875 152.90625 240.046875 153.875 242.140625 155.027344 C 236.8125 159.085938 228.351562 158.71875 222.597656 154.066406 C 220.078125 152.035156 217.644531 149.894531 215.027344 147.695312 Z M 215.027344 147.695312 "/>
</svg>