<svg width="256" height="256" title="Pinia" viewBox="0 0 256 256" fill="none" xmlns="http://www.w3.org/2000/svg" id="pinia">
<style>
#pinia {
    rect {fill: #15191C}

    @media (prefers-color-scheme: light) {
        rect {fill: #F4F2ED}
    }
}
</style>
<rect width="256" height="256" rx="40" fill="#15191C"/>
<path fill-rule="evenodd" clip-rule="evenodd" d="M123.186 126.789C135.267 115.279 131.581 101.043 120.639 83.7922C109.697 66.5416 87.672 60.4043 83.563 64.3192C79.454 68.2341 78.5433 96.2241 89.4849 113.475C100.426 130.725 111.105 138.3 123.186 126.789Z" fill="url(#linearGradient1)"/>
<path fill-rule="evenodd" clip-rule="evenodd" d="M133.632 128.383C142.57 142.474 154.518 137.321 169.308 123.23C184.098 109.139 190.231 82.1464 187.191 77.3537C184.151 72.5611 161.05 72.8014 146.26 86.8926C131.47 100.984 124.694 114.291 133.632 128.383Z" fill="url(#linearGradient2)"/>
<path fill-rule="evenodd" clip-rule="evenodd" d="M128.745 120.63C143.586 122.453 149.422 108.742 152.143 86.5801C154.864 64.4181 143.647 40.9942 138.6 40.3745C133.552 39.7547 116.594 59.7191 113.873 81.8812C111.152 104.043 113.905 118.808 128.745 120.63Z" fill="url(#linearGradient3)"/>
<path fill-rule="evenodd" clip-rule="evenodd" d="M125.008 218.637C156.123 218.637 181.357 209.598 181.357 168.607C181.357 127.616 156.123 93.9796 125.008 93.9796C93.8927 93.9796 68.6788 127.616 68.6788 168.607C68.6788 209.598 93.8927 218.637 125.008 218.637Z" fill="url(#linearGradient4)"/>
<path d="M153.468 160.239C157.913 160.239 161.516 158.563 161.516 156.495C161.516 154.428 157.913 152.752 153.468 152.752C149.023 152.752 145.42 154.428 145.42 156.495C145.42 158.563 149.023 160.239 153.468 160.239Z" fill="#EAADCC"/>
<path d="M93.8652 157.965C98.2771 158.507 102.058 157.282 102.31 155.23C102.562 153.178 99.1895 151.075 94.7777 150.534C90.3658 149.992 86.585 151.216 86.333 153.268C86.081 155.32 89.4533 157.423 93.8652 157.965Z" fill="#EAADCC"/>
<path d="M130.164 155.17C127.742 157.138 124.944 157.941 121.771 157.579C118.597 157.216 116.245 155.899 114.714 153.627" stroke="black" stroke-width="6" stroke-linecap="round" stroke-linejoin="round"/>
<path fill-rule="evenodd" clip-rule="evenodd" d="M98.9942 135.688C101.216 135.611 103.258 136.441 104.764 137.846C106.271 139.25 107.241 141.23 107.319 143.451C107.397 145.672 106.567 147.715 105.162 149.221C103.757 150.727 101.777 151.698 99.556 151.775C97.3348 151.853 95.2926 151.023 93.7862 149.618C92.28 148.213 91.3096 146.234 91.232 144.013C91.1544 141.791 91.9844 139.749 93.3891 138.243C94.7937 136.736 96.7731 135.766 98.9942 135.688Z" fill="black"/>
<path fill-rule="evenodd" clip-rule="evenodd" d="M99.4169 142.416C99.3664 140.97 98.1524 139.838 96.7068 139.889C95.2603 139.939 94.1287 141.153 94.1792 142.599C94.2297 144.045 95.4432 145.177 96.8897 145.126C98.3353 145.075 99.4674 143.862 99.4169 142.416Z" fill="white"/>
<path fill-rule="evenodd" clip-rule="evenodd" d="M147.761 137.731C149.982 137.654 152.024 138.484 153.531 139.888C155.037 141.293 156.007 143.272 156.085 145.494C156.163 147.715 155.333 149.757 153.928 151.264C152.523 152.77 150.544 153.741 148.322 153.818C146.101 153.896 144.059 153.066 142.552 151.661C141.046 150.256 140.075 148.277 139.998 146.055C139.92 143.834 140.75 141.792 142.155 140.286C143.56 138.779 145.539 137.809 147.761 137.731Z" fill="black"/>
<path d="M106.197 143.49C106.33 147.313 103.34 150.52 99.5168 150.653C95.6944 150.787 92.4878 147.796 92.3543 143.973C92.2209 140.151 95.211 136.944 99.0334 136.811C102.856 136.677 106.063 139.668 106.197 143.49ZM108.441 143.412C108.265 138.349 104.018 134.389 98.955 134.566C93.8929 134.743 89.9329 138.99 90.1096 144.052C90.2864 149.114 94.533 153.075 99.5952 152.898C104.658 152.721 108.618 148.474 108.441 143.412Z" fill="white" stroke="white" stroke-width="3"/>
<path d="M154.963 145.533C155.096 149.356 152.106 152.562 148.283 152.696C144.461 152.829 141.254 149.839 141.12 146.016C140.987 142.194 143.977 138.987 147.8 138.854C151.623 138.72 154.829 141.71 154.963 145.533ZM157.207 145.454C157.031 140.392 152.784 136.432 147.721 136.609C142.659 136.786 138.699 141.032 138.876 146.095C139.052 151.157 143.299 155.117 148.362 154.941C153.424 154.764 157.384 150.517 157.207 145.454Z" fill="white" stroke="white" stroke-width="3"/>
<path fill-rule="evenodd" clip-rule="evenodd" d="M148.183 144.459C148.132 143.013 146.919 141.881 145.473 141.931C144.026 141.982 142.895 143.196 142.945 144.642C142.996 146.088 144.209 147.22 145.655 147.169C147.102 147.119 148.233 145.905 148.183 144.459Z" fill="white"/>
<path d="M82.3424 172.405L110.044 201.23" stroke="#ECB732" stroke-width="11" stroke-linecap="round"/>
<path d="M106.3 175.774L88.7063 194.491" stroke="#ECB732" stroke-width="11" stroke-linecap="round"/>
<path d="M167.319 172.405L139.617 201.23" stroke="#ECB732" stroke-width="11" stroke-linecap="round"/>
<path d="M143.361 175.774L160.955 194.491" stroke="#ECB732" stroke-width="11" stroke-linecap="round"/>
<path d="M136.248 108.766L117.905 127.109" stroke="#FFC73B" stroke-width="11" stroke-linecap="round"/>
<path d="M132.505 127.109L114.162 108.766" stroke="#FFC73B" stroke-width="11" stroke-linecap="round"/>
<linearGradient id="linearGradient1" x1="6116.21" y1="-4648.92" x2="11119.3" y2="9349.07" gradientUnits="userSpaceOnUse">
<stop stop-color="#52CE63"/>
<stop offset="1" stop-color="#51A256"/>
</linearGradient>
<linearGradient id="linearGradient2" x1="4908.92" y1="6120.87" x2="-9090.32" y2="11121.5" gradientUnits="userSpaceOnUse">
<stop stop-color="#52CE63"/>
<stop offset="1" stop-color="#51A256"/>
</linearGradient>
<linearGradient id="linearGradient3" x1="6223.36" y1="787.489" x2="3458.96" y2="23301.7" gradientUnits="userSpaceOnUse">
<stop stop-color="#8AE99C"/>
<stop offset="1" stop-color="#52CE63"/>
</linearGradient>
<linearGradient id="linearGradient4" x1="18536" y1="10483.4" x2="15549.6" y2="59522.2" gradientUnits="userSpaceOnUse">
<stop stop-color="#FFE56C"/>
<stop offset="1" stop-color="#FFC63A"/>
</linearGradient>
</svg>