<svg width="256" height="256" title="Playwright" viewBox="0 0 256 256" fill="none" xmlns="http://www.w3.org/2000/svg" id="playwright">
<style>
#playwright {
    rect {fill: #15191C}

    @media (prefers-color-scheme: light) {
        rect {fill: #F4F2ED}
    }
}
</style>
<rect width="256" height="256" rx="40" fill="#15191C"/>
<path d="M98.6818 136.069C92.1494 137.923 87.8632 141.173 85.04 144.421C87.7443 142.055 91.3667 139.883 96.2523 138.498C101.25 137.081 105.514 137.092 109.037 137.772V135.017C106.031 134.742 102.586 134.961 98.6818 136.069ZM84.7412 112.911L60.4804 119.302C60.4804 119.302 60.922 119.927 61.741 120.761L82.3117 115.34C82.3117 115.34 82.0199 119.096 79.4885 122.456C84.2771 118.833 84.7412 112.911 84.7412 112.911ZM105.05 169.93C70.9073 179.125 52.844 139.557 47.3752 119.021C44.8486 109.541 43.7453 102.362 43.4514 97.7281C43.4234 97.3091 43.4291 96.8885 43.4685 96.4703C41.6979 96.5763 40.8496 97.4971 41.0219 100.158C41.3158 104.788 42.4191 111.967 44.9457 121.45C50.4124 141.984 68.4778 181.552 102.621 172.356C110.052 170.354 115.635 166.708 119.827 162.052C115.963 165.542 111.129 168.289 105.05 169.93ZM111.465 88.6944V91.1246H124.857C124.583 90.2639 124.306 89.4888 124.031 88.6944H111.465Z" fill="#2D4552"/>
<path d="M127.851 108.707C133.873 110.418 137.059 114.64 138.743 118.377L145.458 120.284C145.458 120.284 144.542 107.206 132.713 103.846C121.646 100.701 114.836 109.995 114.007 111.197C117.227 108.904 121.927 107.026 127.851 108.707ZM181.306 118.437C170.229 115.279 163.422 124.591 162.606 125.777C165.827 123.486 170.526 121.608 176.446 123.296C182.46 125.009 185.642 129.227 187.331 132.966L194.056 134.88C194.056 134.88 193.125 121.8 181.306 118.437ZM174.634 152.92L118.772 137.303C118.772 137.303 119.377 140.369 121.697 144.339L168.731 157.487C172.602 155.247 174.634 152.92 174.634 152.92ZM135.905 186.535C91.6729 174.676 97.02 118.319 104.177 91.6134C107.124 80.6075 110.154 72.4276 112.667 66.9438C111.168 66.6355 109.926 67.425 108.699 69.9202C106.03 75.3301 102.619 84.1396 99.3189 96.4717C92.1637 123.177 86.8159 179.533 131.046 191.392C151.894 196.977 168.135 188.488 180.242 175.157C168.75 185.565 154.078 191.401 135.905 186.535Z" fill="#2D4552"/>
<path d="M111.466 156.722V145.349L79.8679 154.31C79.8679 154.31 82.2024 140.743 98.6818 136.069C103.68 134.653 107.944 134.662 111.466 135.342V88.6944H127.288C125.565 83.3712 123.898 79.2731 122.498 76.4252C120.183 71.7118 117.809 74.8366 112.421 79.3435C108.626 82.514 99.0345 89.2782 84.6004 93.1672C70.167 97.0596 58.4973 96.0273 53.6287 95.1838C46.7265 93.993 43.1164 92.4767 43.4541 97.7274C43.7481 102.358 44.8507 109.538 47.3779 119.02C52.844 139.555 70.91 179.122 105.053 169.926C113.971 167.523 120.266 162.773 124.629 156.719H111.466V156.722V156.722ZM60.4777 119.302L84.7412 112.911C84.7412 112.911 84.0344 122.245 74.9385 124.643C65.8398 127.038 60.4777 119.302 60.4777 119.302Z" fill="#E2574C"/>
<path d="M202.782 89.2345C196.476 90.3398 181.344 91.7173 162.644 86.7052C143.939 81.6958 131.529 72.9348 126.612 68.8168C119.642 62.9789 116.576 58.9211 113.558 65.0584C110.891 70.4711 107.479 79.2806 104.177 91.6134C97.0227 118.319 91.6749 174.674 135.905 186.533C180.125 198.381 203.667 146.899 210.822 120.192C214.124 107.862 215.572 98.5252 215.97 92.5048C216.424 85.6852 211.74 87.6649 202.782 89.2345ZM113.918 111.329C113.918 111.329 120.888 100.488 132.71 103.848C144.539 107.208 145.455 120.286 145.455 120.286L113.918 111.329ZM142.776 159.976C121.981 153.885 118.775 137.303 118.775 137.303L174.634 152.92C174.634 152.918 163.359 165.991 142.776 159.975V159.976ZM162.525 125.898C162.525 125.898 169.486 115.065 181.306 118.435C193.125 121.8 194.056 134.878 194.056 134.878L162.526 125.898H162.525Z" fill="#2EAD33"/>
<path d="M100.424 148.482L79.8678 154.307C79.8678 154.307 82.1004 141.586 97.2435 136.545L85.6046 92.8623L84.599 93.1679C70.1649 97.0603 58.4959 96.028 53.6273 95.1845C46.7251 93.9943 43.1143 92.4774 43.452 97.7288C43.746 102.36 44.8493 109.539 47.3759 119.021C52.8425 139.555 70.9086 179.123 105.051 169.927L106.056 169.611L100.424 148.481L100.424 148.482ZM60.4776 119.302L84.7412 112.91C84.7412 112.91 84.0343 122.244 74.9384 124.642C65.8397 127.037 60.4776 119.302 60.4776 119.302Z" fill="#D65348"/>
<path d="M143.714 160.204L142.773 159.975C121.979 153.884 118.772 137.303 118.772 137.303L147.577 145.354L162.826 86.7537L162.642 86.7058C143.937 81.6958 131.527 72.9348 126.609 68.8161C119.639 62.9782 116.573 58.9211 113.555 65.0584C110.891 70.4711 107.479 79.2806 104.177 91.6134C97.0227 118.319 91.6749 174.674 135.905 186.532L136.811 186.737L143.714 160.204ZM113.918 111.328C113.918 111.328 120.888 100.487 132.71 103.848C144.539 107.208 145.455 120.285 145.455 120.285L113.918 111.328Z" fill="#1D8D22"/>
<path d="M101.471 148.182L95.9584 149.747C97.2613 157.089 99.5568 164.135 103.159 170.359C103.787 170.221 104.409 170.102 105.047 169.927C106.722 169.476 108.274 168.916 109.768 168.306C105.742 162.331 103.079 155.452 101.471 148.182ZM99.3189 96.4724C96.4861 107.046 93.9513 122.264 94.6493 137.529C95.8975 136.987 97.2169 136.482 98.6825 136.066L99.7024 135.838C98.4583 119.533 101.148 102.918 104.177 91.6134C104.895 88.9322 105.664 86.2648 106.483 83.6126C105.149 84.4658 103.787 85.2745 102.399 86.0373C101.282 89.4884 100.255 92.9679 99.3189 96.4724Z" fill="#C04B41"/>
</svg>