<svg width="256" height="256" viewBox="0 0 256 256" fill="none" xmlns="http://www.w3.org/2000/svg">
<g clip-path="url(#clip0_6_34)">
<path d="M217 0H41C18.9086 0 1 17.9086 1 40V216C1 238.091 18.9086 256 41 256H217C239.091 256 257 238.091 257 216V40C257 17.9086 239.091 0 217 0Z" fill="#3D4C73"/>
<path d="M106.95 49.566C106.557 49.6019 106.176 49.7187 105.83 49.909C105.485 50.0993 105.182 50.3591 104.942 50.672C104.379 50.6193 103.815 50.5906 103.25 50.586C102.904 50.586 102.582 50.608 102.286 50.656C100.486 49.95 98.568 49.936 97.742 52.222C97.438 53.138 97.262 54.082 97.23 55.046C96.8871 55.2993 96.5889 55.6082 96.348 55.96C94.614 58.456 94.856 62.856 95.548 65.64C96.718 70.384 101.774 74.116 106.148 72.71C106.508 72.646 106.86 72.51 107.164 72.292C109.5 72.734 112.048 71.948 114.086 69.476C117.112 65.784 117.422 60.794 115.656 56.652C115.648 56.3166 115.564 55.9874 115.411 55.6887C115.259 55.3899 115.041 55.1293 114.774 54.926C113.813 53.3319 112.513 51.9679 110.968 50.93C109.644 50.046 108.21 49.442 106.95 49.566ZM196.864 49.566C196.471 49.6021 196.089 49.7189 195.743 49.9092C195.396 50.0995 195.093 50.3592 194.852 50.672C194.289 50.6193 193.725 50.5906 193.16 50.586C192.816 50.586 192.492 50.608 192.196 50.656C190.406 49.95 188.49 49.936 187.664 52.222C187.352 53.138 187.172 54.082 187.14 55.046C186.804 55.304 186.506 55.606 186.266 55.96C184.524 58.456 184.774 62.856 185.466 65.64C186.636 70.384 191.686 74.116 196.058 72.71C196.418 72.646 196.774 72.51 197.078 72.292C199.414 72.734 201.966 71.948 203.998 69.476C207.03 65.784 207.338 60.794 205.574 56.652C205.562 56.3164 205.477 55.9876 205.323 55.6891C205.169 55.3907 204.951 55.13 204.684 54.926C203.726 53.3322 202.429 51.9682 200.886 50.93C199.558 50.046 198.122 49.442 196.864 49.566ZM58.2 51.29C55.484 51.19 52.838 52.224 51.204 54.79C51.0569 55.0159 50.922 55.2496 50.8 55.49C48.9006 57.1485 47.6224 59.4043 47.176 61.886C46.8896 61.9757 46.6397 62.1552 46.4632 62.398C46.2867 62.6408 46.193 62.9339 46.196 63.234C46.116 66.124 47.6 68.394 49.736 69.91C51.956 71.91 55.266 72.712 58.492 72.81C63.268 72.936 66.554 70.318 68.04 66.85L68.098 66.782C70.634 63.442 70.928 58.802 67.286 56.196C67.0817 56.0496 66.873 55.9095 66.66 55.776C65.9668 54.8619 65.141 54.0564 64.21 53.386C62.453 52.118 60.3645 51.3896 58.2 51.29ZM150.792 51.296C148.078 51.2 145.428 52.232 143.792 54.796C143.645 55.0182 143.512 55.2493 143.394 55.488C141.49 57.1474 140.21 59.4076 139.766 61.894C139.479 61.9823 139.228 62.1615 139.051 62.4045C138.874 62.6476 138.781 62.9415 138.786 63.242C138.696 66.132 140.182 68.394 142.326 69.918C144.546 71.918 147.856 72.72 151.074 72.808C155.85 72.936 159.148 70.318 160.624 66.852L160.68 66.782C163.224 63.442 163.522 58.812 159.88 56.202C159.67 56.058 159.466 55.922 159.258 55.786C158.564 54.871 157.736 54.0648 156.804 53.394C155.047 52.1243 152.958 51.3952 150.792 51.296ZM61.554 56.606C62.5984 56.8701 63.6032 57.2716 64.542 57.8C64.888 58.25 65.166 58.732 65.39 59.246C64.697 58.625 63.8755 58.1647 62.984 57.898C62.8 57.49 62.456 57.158 62.046 57.078L61.926 57.046C61.8063 56.8957 61.6823 56.749 61.554 56.606ZM154.148 56.606C155.191 56.8715 156.194 57.273 157.132 57.8C157.47 58.25 157.76 58.732 157.984 59.246C157.288 58.6265 156.466 58.1664 155.574 57.898C155.39 57.49 155.046 57.158 154.628 57.078L154.508 57.046C154.395 56.8939 154.275 56.747 154.148 56.606ZM105.578 57.878C105.706 57.936 105.832 58.002 105.978 58.082C106.048 58.13 106.124 58.178 106.196 58.234C106.38 59.23 106.322 60.578 105.52 61.02C105.456 59.9734 105.476 58.9234 105.58 57.88L105.578 57.878ZM195.488 57.878C195.624 57.936 195.75 58.002 195.888 58.082L196.114 58.234C196.298 59.23 196.234 60.578 195.43 61.02C195.366 59.97 195.392 58.92 195.49 57.88L195.488 57.878ZM59.18 60.282C59.2539 60.3417 59.3344 60.3927 59.42 60.434C59.68 60.554 59.942 60.632 60.214 60.688C60.246 60.888 60.258 61.092 60.258 61.292C59.808 60.7 58.988 60.652 58.386 61.004L58.274 60.554L59.18 60.282ZM151.774 60.282C151.847 60.3418 151.927 60.3928 152.012 60.434C152.268 60.554 152.536 60.632 152.816 60.688C152.84 60.888 152.848 61.092 152.848 61.292C152.398 60.7 151.578 60.652 150.968 61.004L150.856 60.554L151.774 60.282ZM55.434 61.218C55.458 61.404 55.488 61.588 55.534 61.774C55.608 62.046 55.688 62.316 55.786 62.598C55.506 62.292 55.378 61.838 55.434 61.218ZM148.024 61.226C148.104 61.692 148.214 62.148 148.368 62.598C148.094 62.292 147.968 61.844 148.024 61.226ZM114.09 61.446C114.146 63.396 113.666 65.354 112.59 67.024H112.598C111.932 68.066 111.132 68.778 110.282 69.21C110.842 68.344 111.378 67.31 111.86 66.18C111.972 65.946 112.068 65.714 112.164 65.472C112.518 65.152 112.718 64.668 112.59 64.212C112.591 64.1924 112.597 64.1733 112.606 64.156C113.304 63.636 113.796 62.664 113.988 61.622L114.09 61.446ZM204.01 61.446C204.08 63.4138 203.556 65.3572 202.508 67.024C201.842 68.066 201.05 68.778 200.2 69.21C200.752 68.344 201.296 67.31 201.77 66.18C201.882 65.946 201.99 65.714 202.086 65.472C202.44 65.152 202.636 64.668 202.5 64.212C202.508 64.194 202.508 64.172 202.516 64.156C203.214 63.636 203.714 62.664 203.898 61.622L204.01 61.446ZM97.762 61.844C98.212 63.488 98.868 65.096 99.542 66.508C99.936 67.552 100.432 68.65 101.074 69.454C100.747 69.2458 100.439 69.0088 100.154 68.746C98.66 67.358 98 65.256 97.816 63.274C97.7778 62.7983 97.7598 62.3212 97.762 61.844ZM187.68 61.844C188.12 63.488 188.78 65.096 189.46 66.508C189.846 67.552 190.35 68.65 190.984 69.454C190.657 69.2458 190.349 69.0088 190.064 68.746C188.57 67.358 187.92 65.256 187.726 63.274C187.686 62.7984 187.671 62.3211 187.68 61.844ZM63.22 63.418C63.388 63.908 63.394 64.382 63.29 64.838L62.914 64.102C63.034 63.876 63.138 63.658 63.218 63.418H63.22ZM155.808 63.426C155.978 63.916 155.988 64.39 155.882 64.84L155.504 64.11C155.62 63.8887 155.721 63.6602 155.808 63.426ZM58.844 67.792C58.964 67.938 59.094 68.074 59.224 68.212C58.436 68.436 57.608 68.492 56.796 68.364L56.934 68.196C57.584 68.156 58.226 68.026 58.844 67.792ZM151.434 67.792C151.554 67.938 151.676 68.074 151.814 68.212C151.026 68.436 150.19 68.492 149.386 68.364L149.516 68.192C150.166 68.152 150.816 68.026 151.434 67.792ZM58.2 93.426C55.484 93.326 52.838 94.362 51.204 96.926C51.0569 97.1519 50.922 97.3856 50.8 97.626C48.9004 99.286 47.6224 101.543 47.176 104.026C46.8893 104.116 46.6391 104.296 46.4626 104.539C46.286 104.782 46.1926 105.076 46.196 105.376C46.116 108.264 47.6 110.53 49.736 112.046C51.956 114.054 55.266 114.854 58.492 114.942C63.268 115.062 66.554 112.456 68.04 108.988L68.098 108.914C70.634 105.568 70.928 100.936 67.286 98.328C67.076 98.192 66.876 98.058 66.66 97.922C65.9671 97.0042 65.1413 96.1946 64.21 95.52C62.4519 94.2543 60.3639 93.5268 58.2 93.426ZM150.792 93.426C148.078 93.326 145.428 94.362 143.792 96.926C143.648 97.15 143.514 97.386 143.394 97.626C141.491 99.2835 140.211 101.542 139.766 104.026C139.478 104.114 139.227 104.294 139.051 104.537C138.874 104.781 138.781 105.075 138.786 105.376C138.696 108.264 140.182 110.53 142.326 112.046C144.546 114.054 147.856 114.854 151.074 114.942C155.85 115.062 159.148 112.456 160.624 108.988L160.68 108.914C163.224 105.568 163.522 100.936 159.88 98.328L159.258 97.922C158.562 97.0059 157.735 96.1967 156.804 95.52C155.046 94.2533 152.957 93.5257 150.792 93.426ZM61.554 98.73C62.5962 99.0018 63.6001 99.4036 64.542 99.926C64.888 100.376 65.166 100.866 65.39 101.378C64.6973 100.755 63.8758 100.293 62.984 100.024C62.8 99.624 62.456 99.284 62.046 99.204L61.926 99.18C61.8064 99.0264 61.6823 98.8764 61.554 98.73ZM154.148 98.73C155.188 99.0033 156.191 99.405 157.132 99.926C157.47 100.376 157.76 100.866 157.984 101.378C157.289 100.757 156.466 100.295 155.574 100.024C155.39 99.624 155.046 99.284 154.628 99.204L154.508 99.18C154.395 99.0246 154.275 98.8744 154.148 98.73ZM59.18 102.406C59.2539 102.466 59.3344 102.517 59.42 102.558C59.68 102.678 59.942 102.768 60.214 102.824C60.246 103.024 60.258 103.218 60.258 103.418C59.808 102.824 58.988 102.784 58.386 103.128L58.274 102.688L59.18 102.406ZM151.774 102.406C151.847 102.466 151.927 102.517 152.012 102.558C152.268 102.678 152.536 102.768 152.816 102.824C152.84 103.024 152.848 103.218 152.848 103.418C152.398 102.824 151.578 102.784 150.968 103.128L150.856 102.688L151.774 102.406ZM55.434 103.352C55.498 103.826 55.616 104.292 55.786 104.734C55.506 104.43 55.378 103.97 55.434 103.352ZM148.024 103.352C148.08 103.826 148.198 104.292 148.368 104.734C148.094 104.43 147.968 103.97 148.024 103.352ZM63.218 105.552C63.388 106.04 63.394 106.516 63.29 106.972C63.17 106.724 63.042 106.484 62.914 106.234C63.034 106.018 63.138 105.794 63.218 105.552ZM155.808 105.552C155.978 106.04 155.984 106.516 155.878 106.972C155.75 106.724 155.624 106.484 155.504 106.234C155.624 106.018 155.728 105.794 155.808 105.552ZM58.844 109.926C58.964 110.062 59.094 110.206 59.224 110.344C58.4335 110.56 57.6065 110.609 56.796 110.488L56.934 110.328V110.32C57.584 110.28 58.226 110.15 58.844 109.926ZM151.434 109.926C151.554 110.062 151.676 110.206 151.814 110.344C151.023 110.56 150.197 110.609 149.386 110.488L149.516 110.328V110.32C150.166 110.28 150.816 110.15 151.434 109.926Z" fill="#7FCFBD"/>
<path d="M60.496 138.072C54.286 138.072 49.252 143.192 49.252 149.516V195.262C49.252 201.586 54.286 206.698 60.496 206.698C66.708 206.698 71.74 201.586 71.74 195.262V149.516C71.74 143.2 66.708 138.08 60.496 138.08M150.44 138.072C144.228 138.072 139.204 143.192 139.204 149.516V195.262C139.204 201.586 144.228 206.698 150.44 206.698C156.644 206.698 161.684 201.586 161.684 195.262V149.516C161.684 143.2 156.644 138.08 150.44 138.08M105.472 92.326C99.26 92.326 94.228 97.446 94.228 103.754V195.262C94.228 201.586 99.26 206.698 105.472 206.698C111.684 206.698 116.708 201.586 116.708 195.262V103.754C116.708 97.438 111.684 92.318 105.472 92.318M195.414 92.326C189.204 92.326 184.172 97.446 184.172 103.754V195.262C184.172 201.586 189.204 206.698 195.414 206.698C201.618 206.698 206.658 201.586 206.658 195.262V103.754C206.658 97.438 201.618 92.318 195.414 92.318" fill="white"/>
</g>
<rect x="0.5" y="0.5" width="255" height="255" stroke="black"/>
<defs>
<clipPath id="clip0_6_34">
<rect width="256" height="256" fill="white"/>
</clipPath>
</defs>
</svg>
