<svg width="256" height="256" title="PostCSS" viewBox="0 0 256 256" fill="none" xmlns="http://www.w3.org/2000/svg" id="postcss">
<style>
#postcss {
    rect {fill: #15191C}

    @media (prefers-color-scheme: light) {
        rect {fill: #F4F2ED}
    }
}
</style>
<rect width="256" height="256" rx="40" fill="#15191C"/>
<path fill-rule="evenodd" clip-rule="evenodd" d="M76.7492 114.923C76.9609 115.093 77.3631 115.22 76.9609 115.558C76.6857 115.939 76.347 116.257 76.1141 116.723C75.9024 117.104 75.7331 117.21 75.4156 116.934C75.8389 116.215 76.3047 115.537 76.7492 114.923ZM188.735 173.393L188.777 173.837C188.883 173.626 188.883 173.499 188.946 173.393H188.735ZM167.65 141.872C167.502 141.83 167.269 141.702 166.888 141.597C166.994 141.808 167.057 141.978 167.1 142.147C167.375 142.105 167.502 142.105 167.608 142.041C167.608 141.999 167.608 141.935 167.65 141.872ZM167.375 130.885C167.333 130.885 167.333 130.885 167.269 130.821V130.885C167.333 130.927 167.333 130.927 167.375 130.885ZM167.269 130.927C167.1 130.991 166.93 130.991 166.719 131.054C166.994 131.16 167.269 131.203 167.269 131.33V130.927Z" fill="#DD3735"/>
<path fill-rule="evenodd" clip-rule="evenodd" d="M210.666 117.781C210.56 115.601 210.497 113.42 210.285 111.24C209.883 108.276 209.502 105.27 208.824 102.37C208.274 99.9991 207.553 97.6714 206.665 95.4053C205.607 92.7379 204.548 89.9859 203.193 87.4244C201.034 83.2964 198.197 79.613 195.572 75.7813C193.837 73.3045 191.614 71.3146 189.941 68.7955C188.904 67.346 187.647 66.0674 186.216 65.0062C183.982 63.2469 181.673 61.587 179.293 60.0314C177.528 58.7964 175.705 57.6449 173.832 56.5808C172.35 55.734 170.72 55.0778 169.174 54.3368C167.375 53.4901 165.639 52.4951 163.649 52.1141C163.141 52.0082 162.697 51.8389 162.188 51.6695C160.918 51.225 159.69 50.7169 158.399 50.3358C156.452 49.7008 154.568 48.981 152.556 48.4941C150.597 48.0042 148.611 47.6295 146.608 47.3721C144.364 47.0546 142.099 46.9276 139.855 46.7159C138.415 46.5465 136.976 46.3772 135.579 46.2925C133.462 46.1867 131.281 46.1867 129.164 46.1443C128.106 46.0808 126.984 45.9538 125.925 46.0173C124.317 46.0808 122.708 46.229 121.078 46.4619C119.532 46.6312 117.966 46.9064 116.463 47.1393C114.621 47.351 112.801 47.478 110.959 47.6897C109.223 47.9014 107.445 48.2613 105.709 48.5365C105.095 48.6423 104.481 48.8752 103.867 48.9598C102.533 49.2562 101.157 49.3832 99.8026 49.8066C95.1444 51.1574 90.6339 52.973 86.3389 55.2259C84.222 56.3903 82.2109 57.7874 80.1998 59.1423C76.3508 61.6327 72.7684 64.5128 69.5093 67.737C68.6202 68.6049 67.8793 69.6846 67.0537 70.6795C65.6565 72.3096 64.2593 73.8549 62.9257 75.5485C61.8249 76.9245 60.8087 78.3852 59.7503 79.8247C57.845 82.3861 56.2574 85.117 54.7543 87.869C54.1193 88.9698 53.5689 90.0918 53.0185 91.2137C52.1717 92.8861 51.2826 94.495 50.5205 96.2309C49.9501 97.4263 49.4964 98.674 49.1656 99.9567C48.4035 102.709 47.6203 105.482 46.9005 108.213C46.2978 110.679 45.9992 113.21 46.0114 115.749C45.9479 117.993 46.1596 120.152 46.3925 122.396C46.456 122.947 46.1173 123.624 46.7735 124.068C46.5618 124.682 46.7312 125.021 47.0487 125.127C46.6677 125.741 47.2181 126.122 47.0064 126.693C46.9429 126.799 47.1757 127.032 47.2816 127.202C47.2816 127.35 47.2181 127.583 47.2816 127.752C47.3451 128.26 47.5568 128.747 47.5568 129.318C47.5568 129.699 47.8955 130.165 48.0013 130.546C48.0648 130.694 48.0013 130.97 47.8955 131.097C47.5568 131.478 47.6203 131.816 48.1072 132.049C48.4035 132.769 48.2765 133.108 48.2342 133.446C48.34 133.933 48.1707 134.103 48.2342 134.23C48.6576 135.119 48.8481 136.135 48.8904 137.13C48.8904 137.342 49.0175 137.553 49.1021 137.85C49.1868 137.85 49.1021 138.908 49.1021 138.908C49.3985 138.739 49.6314 138.696 49.9066 138.569C50.0759 139.289 50.2453 139.967 50.457 140.581C50.7322 141.025 50.7322 141.258 50.6263 141.3C50.838 142.316 50.965 143.248 51.3461 144.2C51.3461 143.142 51.2402 142.084 51.0709 141.089C51.8541 141.364 52.5104 141.639 52.9761 141.639L53.1455 141.131C52.8068 140.813 52.5104 140.284 52.1928 139.967C52.2987 140.411 52.1928 140.602 52.1928 140.75L51.4096 140.411C51.6213 140.136 51.833 139.861 52.1928 139.522C52.1928 139.014 51.9176 138.569 51.1344 138.633C51.4731 138.527 51.7906 138.358 52.1928 138.231C52.8068 137.913 52.1293 137.299 52.1293 136.516C52.1928 135.563 51.6213 134.611 51.4731 133.616C51.1767 132.049 51.2402 129.7 51.0709 128.154C50.7322 127.858 50.457 128.578 50.4146 128.641C50.584 129.996 50.7322 131.33 50.838 132.663C50.5205 131.541 50.2876 130.335 50.0124 128.98C49.9489 129.361 49.9066 129.53 49.9066 129.763C49.6314 130.038 49.8431 130.377 50.0124 130.758C49.6314 130.589 49.1656 130.652 49.1656 130.652V132.219C48.6152 131.668 48.4671 131.224 48.1707 130.821L47.8955 129.488C48.0013 129.213 47.8955 129.043 47.8955 128.874C47.8005 128.136 47.7299 127.394 47.6838 126.651C48.1072 126.693 48.4035 126.757 48.6787 126.757C48.1283 126.037 48.5094 125.571 48.7423 125.127C48.8481 124.915 49.2503 124.852 49.3562 124.619C49.7795 123.793 50.5205 123.137 50.5205 122.079C50.5205 121.57 50.6898 121.02 50.7322 120.491C50.8592 119.559 50.965 118.586 51.0285 117.654C51.1344 116.426 51.0285 115.199 51.3037 114.034C52.0586 110.622 53.0996 107.28 54.4156 104.042C55.2624 101.862 56.0457 99.7026 57.1041 97.628C58.586 94.622 60.3219 91.7006 61.9942 88.7581C63.0527 86.9164 64.1747 85.1805 65.339 83.4023C66.4609 81.6664 67.5617 79.8882 68.8531 78.2793C70.6168 75.9935 72.5945 73.8811 74.7593 71.9709C76.9821 69.9598 79.099 67.9064 81.4911 66.0435C84.6097 63.6419 87.9317 61.517 91.4195 59.6927C94.2512 58.2407 97.1712 56.9681 100.162 55.8822C102.068 55.1624 104.121 54.8237 106.069 54.231C108.291 53.4901 110.514 53.1725 112.843 53.109C114.367 53.0455 115.807 52.8973 117.31 52.7068C118.664 52.601 119.998 52.4951 121.438 52.3258C121.268 52.5374 121.226 52.6645 121.162 52.7703L119.257 55.4588C118.77 56.1786 118.199 56.9407 117.712 57.6816C116.823 58.8671 115.87 60.0102 115.023 61.2592C113.753 63.1009 112.589 64.985 111.234 66.8267C109.9 68.6261 108.461 70.2985 107.064 72.0132C105.222 74.4265 103.507 76.8821 101.665 79.2743C99.9719 81.5605 98.2149 83.741 96.5848 86.0273C95.1453 88.0383 93.8752 90.1553 92.478 92.2087L86.2966 101.375L81.3853 108.34C81.2794 108.509 81.1101 108.551 80.9619 108.678C80.4962 109.398 80.4962 109.779 80.3268 110.118C79.9034 110.965 79.4377 111.811 78.9297 112.574C78.6545 113.018 78.2734 113.42 77.9347 113.844C77.8712 113.187 78.8238 112.849 78.3581 112.023L77.5537 113.293L76.8762 114.627C77.0879 114.796 77.4901 114.923 77.0879 115.262L76.601 116.151C76.8436 116.006 77.0528 115.811 77.2149 115.58C77.2149 116.215 76.8762 116.702 76.5799 117.188C76.3682 117.633 75.8178 117.972 75.4367 118.31C75.4791 118.374 75.8601 118.522 75.9236 118.586C76.4317 118.416 76.601 118.162 76.6645 118.31C76.8339 118.099 76.9821 117.929 77.0456 117.76C77.2573 117.188 77.596 116.744 78.1464 116.532C78.3793 116.426 78.5486 116.257 78.718 116.088C80.3903 114.352 82.1051 112.701 83.6081 110.838C85.9367 108.001 88.0536 105.037 90.2976 102.158C91.2502 100.909 92.3722 99.6815 93.3671 98.5171C93.5365 99.7873 93.4306 101.015 93.3671 102.201C93.1978 104.254 93.0919 106.329 92.9226 108.446C92.859 109.292 92.9226 110.118 92.859 110.944C92.859 111.155 92.6897 111.346 92.6897 111.579C92.6897 112.129 92.859 112.743 92.859 113.293L92.3086 119.432C92.2451 119.856 92.4568 120.322 92.5838 120.703C92.3086 123.73 92.9226 126.905 92.4145 130.081C92.7955 129.467 92.9226 129.086 92.9226 128.683C92.9649 128.366 92.9226 128.027 92.9226 127.625V127.075C92.9649 126.058 93.1978 125 93.0707 124.005C92.9431 122.925 92.986 121.832 93.1978 120.766C93.3036 120.343 93.1342 119.771 93.4094 119.2V120.046C93.3671 123.222 93.473 126.397 93.0284 129.572C92.9649 129.869 93.1978 130.356 92.5838 130.313C92.0758 131.308 92.6897 132.028 92.1393 132.6C92.0334 132.706 92.2451 133.214 92.3086 133.531C92.097 134.209 92.097 134.209 92.4145 134.272C92.4568 135.5 92.5838 136.601 92.6262 137.786C93.5153 135.669 93.0707 133.489 93.473 131.308C93.5365 132.197 93.5788 133.087 93.5365 134.039C93.5365 135.5 93.473 136.876 93.4094 138.337C93.4094 138.612 93.3671 138.887 93.3036 139.183C93.1342 139.967 93.0919 140.729 92.7955 141.47C92.5838 142.02 92.6897 142.867 92.6897 143.523V145.64C92.9014 146.593 92.6474 147.101 92.7955 147.651C92.6262 148.223 92.5838 148.392 92.6262 148.54L92.7955 149.387C93.9175 149.281 93.4306 150.107 93.854 150.551C93.5365 151.017 93.6423 151.186 93.6423 151.398C93.6423 151.906 93.5788 152.351 93.5365 152.859C93.5365 154.129 93.473 155.399 93.473 156.648C93.473 156.817 93.5365 156.966 93.5365 157.135L93.473 158.701C93.5788 158.871 93.473 159.04 93.3036 159.209C93.2613 159.209 93.0919 152.118 93.0919 152.118H92.2451C92.1393 155.463 92.4145 158.469 91.8218 161.602C91.1443 161.665 90.9115 161.771 90.1917 161.771C88.4558 161.771 86.7411 161.771 85.0052 161.834L78.8661 161.877C77.8712 161.877 76.8127 162.004 75.8178 162.004C74.4841 162.004 73.0658 161.834 71.7533 161.834C69.6787 161.834 67.6888 162.004 65.6142 162.046C64.1323 162.11 62.6081 162.11 61.1051 162.173C60.1102 162.216 59.094 162.279 58.0991 162.385C57.6757 162.448 57.2523 162.597 56.7019 162.766C56.5326 162.766 56.1515 162.724 55.8128 162.766C55.2624 162.893 54.7543 163.21 54.2039 163.338C53.3572 163.507 53.1455 163.719 53.2513 164.565V165.116C53.1878 165.222 54.4791 164.946 54.4791 164.946C54.3733 164.946 54.3098 165.285 54.1404 165.56L55.1565 165.179C55.9822 165.56 56.7019 165.349 57.3793 165.518C59.5386 166.068 61.7825 166.301 64.0053 166.513C65.4448 166.619 66.842 166.682 68.2815 166.725C70.3561 166.852 72.4095 166.957 74.4629 166.957C76.1988 166.957 77.8712 166.788 79.5859 166.788C81.978 166.788 84.3913 166.894 86.7835 166.957C87.2915 166.957 87.8419 166.894 88.3923 166.894H92.4568L103.338 166.619C105.391 166.555 107.508 166.449 109.562 166.407L115.912 166.238C118.368 166.174 120.824 166.174 123.216 166.132C125.058 166.132 126.836 166.068 128.677 166.005C130.731 165.941 132.848 165.793 134.922 165.666C136.023 165.624 137.145 165.497 138.267 165.391C139.601 165.285 140.998 165.116 142.332 165.052L148.407 164.777C150.905 164.608 153.403 164.396 155.965 164.354C158.314 164.227 160.707 164.29 163.056 164.227C165.11 164.163 167.184 164.057 169.301 164.015L172.815 163.824C172.815 163.824 175.144 163.782 176.308 163.655C178.319 163.549 180.331 163.337 182.342 163.274C183.612 163.21 184.882 163.274 186.173 163.21C188.227 163.168 190.344 163.041 192.418 163.041C193.18 163.041 194.027 163.168 195.022 163.21C194.599 163.613 194.302 163.846 193.964 164.121C194.175 164.163 194.408 164.29 194.641 164.396C194.381 164.579 194.07 164.676 193.752 164.671C193.646 164.946 193.54 165.052 193.413 165.624H194.408C194.027 165.624 193.688 166.111 193.307 166.471C192.863 166.344 192.461 166.471 192.249 167.063C192.63 167.275 192.588 167.466 192.524 167.698C191.847 167.91 191.36 168.122 191.635 168.842C191.423 168.969 191.127 169.053 190.852 169.244C190.576 169.667 190.068 169.794 190.174 170.408L190.809 170.62C190.513 170.747 190.238 170.916 189.963 171.022C188.968 171.636 189.412 171.911 189.624 172.186C189.454 172.313 189.285 172.398 189.116 172.483C189.243 172.97 189.391 173.097 189.455 173.097L188.608 173.753C188.46 174.261 188.227 174.473 188.015 174.811C187.803 175.15 187.676 175.595 187.38 175.933C186.216 177.203 185.39 178.728 183.887 179.744C183.337 180.125 182.829 180.612 182.32 181.12C181.325 182.072 180.415 183.131 179.357 184.02C177.966 185.183 176.525 186.285 175.038 187.322L169.534 191.112C168.518 191.768 167.417 192.276 166.359 192.89L163.226 194.668C162.548 195.113 161.956 195.727 161.215 196.065C159.373 196.848 157.404 197.526 155.541 198.246C153.7 199.029 152.366 199.706 150.969 200.193C149.699 200.638 148.344 200.977 147.01 201.252C146.566 201.379 146.057 201.252 145.549 201.315C144.618 201.485 143.644 201.717 142.713 201.823C140.257 202.162 137.823 202.374 135.367 202.712C133.906 202.882 132.53 203.136 131.07 203.326C130.075 203.39 129.016 203.263 128 203.263C127.28 203.263 126.518 203.432 125.777 203.326C124.613 203.157 123.449 202.882 122.263 202.649C121.988 202.607 121.607 202.48 121.374 202.607C120.951 202.818 120.527 202.501 120.104 202.607C119.829 202.67 119.532 202.437 119.257 202.437C119.045 202.374 118.749 202.501 118.474 202.437C117.86 202.268 117.31 202.056 116.632 202.098C115.976 202.162 115.298 201.823 114.579 201.675L111.615 200.976C111.23 200.859 110.86 200.695 110.514 200.49C109.405 200.557 108.293 200.421 107.233 200.087C106.45 199.812 105.73 199.431 104.904 199.537C104.672 199.6 104.481 199.473 104.269 199.473C104.1 199.262 103.952 198.817 103.782 198.817C102.66 198.86 102.004 197.928 101.03 197.632C100.543 197.462 100.162 196.912 99.6544 196.743C98.4266 196.256 97.4316 195.197 96.0344 195.028C95.5899 194.964 95.1453 194.732 94.6373 194.583C94.8066 194.795 94.9125 194.964 95.0818 195.134C93.473 194.351 91.9699 193.44 90.4669 192.615C90.2552 192.572 90.0859 192.339 89.9165 192.234L88.4135 191.217C87.5667 191.387 87.228 191.048 87.0163 190.942C85.5133 189.884 83.7774 189.228 82.3379 188.042C81.7028 187.534 81.0042 187.195 80.5597 186.603C79.7856 185.694 78.8349 184.952 77.7653 184.422C76.9186 183.978 76.1565 183.47 75.3732 182.961C74.971 182.686 74.59 182.348 74.59 181.734C74.59 181.353 74.4206 180.95 73.9125 181.183C73.7008 180.844 73.4891 180.463 73.1928 180.336C72.5365 180.082 72.092 179.574 71.5839 179.13C71.0759 178.685 70.6948 178.071 70.0809 177.838C68.9589 177.394 68.3027 176.441 67.6253 175.658C66.0587 173.816 64.6616 171.805 63.222 169.858C63.1162 169.688 62.8833 169.582 62.714 169.434C62.9257 170.027 63.222 170.535 63.4972 171.085C62.9468 170.874 62.5658 170.472 62.2271 170.091C62.1636 170.133 66.0587 176.547 66.0587 176.547L67.0113 178.071C66.6738 178.102 66.3349 178.032 66.0372 177.87C65.7396 177.708 65.4966 177.461 65.339 177.161C64.8521 176.272 64.2805 175.722 63.1797 175.827C63.0527 175.446 62.9468 174.981 62.9045 174.6C62.6716 174.6 62.5023 174.6 62.1212 174.557C62.9045 175.785 63.5608 176.844 64.2805 178.071L63.7301 177.733C64.7251 178.791 65.4448 180.125 66.7361 180.802C67.0113 182.072 68.4509 182.707 68.7896 183.914L68.0063 183.745C67.5829 183.194 67.0537 182.644 66.5668 182.03C66.6726 182.411 66.842 182.75 67.0537 183.025C67.7311 183.872 68.345 184.718 69.1283 185.438C69.4035 185.713 69.7845 185.819 69.7845 186.327C70.2291 186.539 70.4196 186.603 70.5678 186.603C70.6948 186.941 70.5254 187.449 71.2029 187.322C71.6263 188.169 72.0708 188.169 72.6847 187.894C73.4256 188.614 73.8067 188.677 74.3148 188.233L74.3571 189.016C74.5688 188.889 74.5264 188.719 74.5264 188.444L75.0768 188.889C75.6484 189.672 76.1353 190.392 76.9186 191.006C77.977 191.916 78.9297 192.848 79.9246 193.694C81.8722 195.303 84.0526 196.658 86.2331 197.886C88.9004 199.368 91.4619 200.998 94.1927 202.458C97.474 204.173 100.988 205.359 104.608 206.184C105.942 206.459 107.233 206.756 108.567 207.073C109.731 207.412 110.895 207.92 112.081 208.195C113.859 208.597 115.68 208.915 117.479 209.254L118.707 209.423C119.215 209.529 119.808 209.317 119.935 209.487C120.21 209.91 120.421 209.698 120.781 209.656C121.162 209.529 121.607 209.529 122.051 209.529C123.597 209.592 125.1 209.931 126.666 209.804C127.005 209.804 127.513 209.529 127.788 210.079C128.296 209.868 128.572 209.868 128.783 209.804C128.847 210.312 128.783 210.312 128.677 210.376C128.572 210.418 128.402 210.482 128.169 210.651C130.181 211.032 132.086 211.074 133.737 210.651C136.637 210.863 139.156 210.545 141.548 209.698C141.76 209.973 141.929 210.376 142.268 209.804C142.374 209.635 142.67 209.592 142.903 209.529C143.39 209.423 144.004 209.19 144.449 209.36C144.957 209.529 145.126 209.084 145.507 209.084C146.184 209.084 146.777 209.021 147.412 208.915C147.73 208.851 148.069 208.703 148.471 208.576C148.005 208.365 147.56 208.301 147.222 208.301C147.899 207.962 148.513 207.666 149.127 207.412C149.021 207.581 148.915 207.793 148.682 207.793H149.466C149.296 207.793 149.064 208.301 148.788 208.64L154.419 207.243C153.784 206.078 155.076 206.459 155.52 205.782C154.97 205.951 154.419 206.121 153.848 206.226C155.753 205.295 157.701 204.448 159.585 203.623C159.309 203.94 158.971 204.11 158.484 204.406C158.823 204.448 159.034 204.448 159.204 204.512C160.093 204.787 159.881 203.94 160.156 203.453C161.215 203.453 161.638 203.284 162.167 203.115C162.718 202.945 163.268 202.776 163.84 202.564C164.729 202.162 165.554 201.675 166.443 201.231C166.613 201.167 166.888 201.231 167.121 201.231C167.735 200.807 167.968 200.49 168.116 200.553C168.899 200.659 169.45 200.384 169.682 199.664C170.063 199.368 170.339 199.156 170.614 198.987L174.234 196.976C174.678 196.976 174.911 196.976 175.017 196.912C175.758 196.573 176.414 196.192 177.092 195.811C176.895 195.732 176.704 195.64 176.52 195.536C177.092 195.409 177.24 195.367 177.579 195.24C178.912 193.673 180.754 192.615 182.151 191.387C182.765 191.344 182.765 191.175 182.765 191.069C182.977 190.794 183.21 190.434 183.485 190.223C184.713 189.101 186.046 188.169 187.168 186.984C188.777 185.375 190.344 183.702 191.783 181.966C193.117 180.4 194.472 178.833 195.594 177.098C197.139 174.705 198.473 172.25 199.87 169.752C200.865 167.974 201.775 166.174 202.77 164.396C202.876 164.227 203.088 163.994 203.257 163.994C204.76 163.824 206.284 163.719 207.702 163.57C208.062 163.507 208.443 163.274 208.761 163.105C208.613 162.829 208.507 162.491 208.338 162.216C208.126 161.877 207.787 161.602 207.554 161.263C207.343 160.988 207.173 160.649 207.004 160.331L206.496 159.548C206.145 158.93 205.827 158.294 205.543 157.643C205.48 157.474 205.374 157.22 205.437 157.029C206.432 154.849 206.834 152.52 207.766 150.34C208.719 148.117 208.994 145.598 209.459 143.206C209.841 140.919 210.052 138.633 210.327 136.347C210.497 134.717 210.73 133.171 210.772 131.541C211.111 128.98 210.984 126.566 210.941 124.174C210.899 122.057 210.772 119.877 210.666 117.76V117.781ZM70.9065 186.433C70.5043 185.989 70.1656 185.481 69.7845 185.036L69.9539 184.867C70.5678 185.523 71.1817 186.2 71.7956 186.92C71.4569 186.751 71.0547 186.645 70.9065 186.433ZM71.7956 186.92C71.965 186.878 72.1343 186.878 72.2825 186.814C72.4519 187.089 72.5789 187.428 72.7271 187.767C71.965 187.703 71.5627 187.365 71.7956 186.92ZM129.736 209.973V209.804L132.848 209.465V209.635C131.789 209.804 130.773 209.91 129.715 209.952L129.736 209.973ZM143.771 208.513C142.988 208.682 142.141 208.788 141.379 208.915C141.083 208.957 140.744 209.233 140.638 208.746C140.532 208.788 140.426 208.788 140.321 208.851C140.596 209.698 141.252 209.021 141.802 209.36C140.596 209.529 139.431 209.635 138.246 209.783V209.698L139.304 209.508V209.36C138.75 209.289 138.191 209.246 137.632 209.233C137.463 209.233 137.251 209.465 137.082 209.529C136.87 209.571 136.637 209.635 136.362 209.635C135.409 209.677 134.457 209.677 133.568 209.741L133.356 209.698V209.529L144.491 208.026C144.533 208.132 144.533 208.238 144.597 208.343C144.258 208.343 144.046 208.47 143.75 208.513H143.771ZM144.618 207.962L148.28 207.518C145.719 208.238 144.893 208.365 144.597 207.941L144.618 207.962ZM96.0768 95.3418C97.855 92.8649 99.6967 90.4093 101.475 87.9113C102.025 87.1704 102.47 86.3871 103.041 85.6674C103.211 85.4557 103.423 85.3287 103.698 85.117L103.655 85.0111C103.867 84.7359 104.079 84.5031 104.206 84.2702C104.481 83.8468 104.65 83.3388 104.883 82.8307C104.947 82.7249 105.095 82.619 105.095 82.619C105.878 83.0001 105.878 82.1745 106.153 81.8781C106.661 81.3277 107.169 80.7138 107.614 80.1634C107.953 79.7188 108.27 79.3166 108.567 78.8085C108.609 78.6392 108.44 78.3851 108.397 78.1523H108.228C108.397 78.0464 108.567 77.8771 108.736 77.7501L108.842 77.7077C109.181 77.1997 109.498 76.6916 109.837 76.2471C110.514 75.3579 111.234 74.4688 112.017 73.7067C111.89 73.9608 111.806 74.236 111.679 74.4688C111.742 74.4688 111.742 74.5323 111.784 74.5323C112.462 73.6221 113.182 72.7965 113.838 71.9073C113.795 71.8438 113.732 71.7803 113.668 71.7803L112.906 72.6271C112.843 72.5636 112.779 72.5213 112.737 72.5213C113.287 71.7803 113.838 71.0606 114.409 70.235L114.833 71.0817C115.066 70.5102 115.298 70.1291 115.468 69.7269L114.896 70.235L114.727 70.0656L115.743 68.5626L118.918 63.99C119.299 63.4185 119.808 62.9739 120.146 62.4235C121.205 60.3066 122.877 58.613 124.168 56.6655C124.422 56.2844 124.803 55.9457 125.163 55.607C125.439 55.2683 125.65 55.3953 125.883 55.6705L130.392 61.4074C131.514 62.8046 132.615 64.1594 133.673 65.5989C134.944 67.3771 136.193 69.1765 137.484 70.9547C138.923 73.0293 140.363 75.0827 141.76 77.1997C143.877 80.3327 145.888 83.4446 148.005 86.5777C149.55 88.8639 151.117 91.0867 152.62 93.373H149.783C147.158 93.3307 144.491 93.0978 141.866 93.2248C138.31 93.3942 134.668 93.7752 131.112 94.0716C126.603 94.4526 122.03 94.495 117.521 94.495C115.912 94.495 114.282 94.7067 112.673 94.8337C110.726 94.9395 108.821 95.0454 106.873 95.1089C104.587 95.2359 102.364 95.2782 100.099 95.3206C98.8076 95.3841 97.474 95.3206 96.0768 95.3206V95.3418ZM159.966 120.978V121.486C159.923 121.486 159.86 121.549 159.754 121.549C159.542 120.766 159.309 119.919 159.034 119.136C158.527 117.483 157.793 115.909 156.854 114.458C155.732 112.891 154.737 111.282 153.615 109.652C153.34 109.271 152.959 108.932 152.62 108.594C151.434 107.324 150.291 105.969 148.767 105.037C146.553 103.647 144.223 102.45 141.802 101.46C141.135 101.166 140.484 100.834 139.855 100.465H141.189L150.715 100.295C152.789 100.232 154.779 100.232 156.854 100.126C157.341 100.126 157.616 100.295 157.912 100.74C158.399 101.587 158.907 102.412 159.458 103.238C159.521 103.365 159.627 103.513 159.627 103.682C159.627 104.91 159.627 106.202 159.69 107.429C159.733 108.7 159.86 109.949 159.902 111.24C159.902 112.51 159.796 113.844 159.86 115.177C159.902 117.083 159.966 119.03 159.966 120.978ZM100.035 102.306C102.639 102.201 105.158 102.031 107.72 101.925C109.71 101.798 111.784 101.756 113.795 101.629C114.621 101.587 115.404 101.523 116.23 101.629C115.341 102.095 114.452 102.539 113.69 103.09C112.674 103.767 111.721 104.656 110.726 105.376C109.71 106.096 108.821 106.985 107.974 107.937C106.915 109.208 105.772 110.33 104.65 111.557C103.867 112.468 102.957 113.293 102.322 114.246C101.369 115.474 100.522 116.786 99.6332 118.205C99.9084 112.912 100.247 107.662 100.014 102.306H100.035ZM136.404 155.971C134.626 156.415 132.805 156.923 130.943 157.135C129.397 157.347 127.767 157.304 126.158 157.304C124.698 157.304 123.322 157.262 121.861 157.135C120.218 157.057 118.6 156.699 117.077 156.076C115.743 155.463 114.325 154.912 113.012 154.235C111.608 153.618 110.352 152.709 109.329 151.567C108.609 150.678 107.593 149.937 106.704 149.175C106.873 149.831 107.275 150.382 107.889 150.784C107.593 151.123 107.212 150.953 106.661 150.064C106.492 150.17 106.323 150.234 106.217 150.276C106.386 149.895 106.534 149.493 106.704 149.175C106.492 148.71 106.217 148.223 105.984 147.757C105.539 147.037 105.095 146.275 104.714 145.534C104.587 145.365 104.587 145.195 104.481 145.047C104.203 144.722 103.941 144.383 103.698 144.031C103.253 143.354 102.851 142.634 102.301 141.978C102.301 142.147 102.364 142.295 102.364 142.528C102.301 142.528 102.258 142.592 102.258 142.592L101.073 139.734C101.03 139.734 101.03 139.734 100.967 139.797L101.962 143.481L101.792 143.523C101.644 143.311 101.475 143.1 101.369 142.803C101.242 142.38 100.903 142.38 100.628 142.528C100.459 142.634 100.353 143.036 100.416 143.206C100.798 144.137 101.263 145.111 101.687 146.042C101.814 146.381 101.898 146.656 102.089 146.995C102.152 147.101 102.301 147.207 102.301 147.376C102.533 147.82 102.703 148.265 102.978 148.646L104.544 150.678C105.031 151.335 105.476 152.075 105.92 152.732C105.984 152.838 106.132 152.838 106.196 152.901C106.492 153.748 107.424 154.362 108.101 154.023C108.27 155.293 109.667 155.738 110.218 156.987C109.54 156.69 109.054 156.479 108.609 156.246C108.545 156.309 108.545 156.352 108.482 156.457C109.159 156.796 109.816 157.135 110.43 157.516C111.001 157.876 111.552 158.193 112.06 158.574C112.716 159.209 113.499 159.548 114.452 159.76C114.431 159.683 114.395 159.611 114.346 159.548C115.891 160.268 117.521 161.03 118.749 161.665L100.353 161.983C100.353 160.924 100.289 159.929 100.289 158.871C100.289 158.426 100.416 158.024 100.353 157.601C100.184 155.018 100.184 152.456 99.8449 149.937C99.5732 147.286 99.4813 144.62 99.5697 141.957C99.6332 140.517 99.5274 138.993 99.4639 137.553C99.4639 135.606 99.4639 133.7 99.5274 131.753C99.5274 131.478 99.6332 131.245 99.7391 130.97H99.9084C99.9719 131.097 99.9084 131.245 100.014 131.308C100.184 131.478 100.459 131.753 100.586 131.711C100.903 131.478 101.433 131.245 101.517 130.906C101.792 130.25 101.92 129.53 101.92 128.853C101.92 128.366 102.131 128.006 102.343 127.688C102.47 127.519 102.533 127.35 102.639 127.138L101.92 126.63C102.131 125.995 102.089 125.296 102.914 124.936C103.041 124.894 103.041 124.619 103.084 124.45L103.253 123.052C103.359 123.222 103.423 123.264 103.528 123.391C103.564 123.33 103.606 123.273 103.655 123.222C103.655 123.01 103.592 122.544 103.655 122.544C104.312 122.438 104.036 121.698 104.375 121.38C104.417 121.316 104.312 121.168 104.312 121.041C104.312 120.935 104.312 120.766 104.375 120.766C105.137 120.597 105.031 119.75 105.539 119.369C105.709 119.263 105.751 119.094 105.963 118.818C106.429 119.581 105.645 119.983 105.603 120.533C106.534 119.983 106.81 118.628 106.259 118.247C106.471 118.078 106.704 117.866 106.873 117.633C107.487 116.977 108.143 116.363 108.715 115.685C109.096 115.177 109.329 114.563 109.71 114.077C109.921 113.801 110.387 113.569 110.726 113.399C111.735 112.914 112.607 112.187 113.266 111.282L113.732 110.944C113.901 110.838 114.219 110.838 114.282 110.668C114.346 110.562 114.177 110.287 114.071 110.118C114.282 109.991 114.494 109.779 114.96 109.546L114.621 110.33L114.896 110.605C115.404 110.224 116.166 109.758 116.674 109.44C116.594 109.338 116.501 109.246 116.399 109.165L115.066 109.843C115.171 109.673 115.171 109.568 115.235 109.504C116 108.986 116.799 108.519 117.627 108.107C119.575 107.218 121.522 106.329 123.47 105.482C123.809 105.312 124.253 105.44 124.634 105.44C124.803 105.44 124.909 105.44 125.079 105.376C125.968 105.101 126.878 104.826 127.767 104.593C128.148 104.487 128.593 104.423 128.995 104.423C130.646 104.487 132.319 104.487 133.991 104.593C134.732 104.656 135.388 104.804 136.066 105.037C137.93 105.703 139.69 106.629 141.294 107.789C142.903 108.848 144.406 110.012 146.036 110.965C147.544 111.904 148.836 113.152 149.826 114.627C151.053 116.363 152.429 117.929 153.001 120.046L153.848 123.73C153.996 124.407 154.377 125.063 154.229 125.847C153.932 127.244 153.721 128.683 153.488 130.081C153.382 130.652 153.276 131.203 153.319 131.774C153.424 133.489 152.768 134.992 152.091 136.558C151.879 137.066 151.54 137.574 151.265 138.125C151.329 138.188 151.646 138.337 151.71 138.337L152.218 137.342C152.26 137.342 152.26 137.342 152.324 137.405L151.54 139.797C150.906 141.564 150.178 143.295 149.36 144.984C148.936 145.936 148.132 146.72 147.582 147.609C147.031 148.392 146.587 149.218 146.036 149.937C145.528 150.572 145.02 151.186 144.343 151.631C142.861 152.732 141.294 153.854 139.686 154.743C138.669 155.378 137.505 155.695 136.383 155.971H136.404ZM106.704 153.007L106.661 153.07C106.534 153.007 106.365 152.965 106.259 152.859L104.926 150.826C104.82 150.657 104.756 150.509 104.82 150.276C105.434 151.229 106.048 152.118 106.725 153.007H106.704ZM141.358 160.649C143.877 159.591 145.93 158.088 147.815 156.352C148.111 156.076 148.386 155.801 148.725 155.568C150.965 154.084 152.875 152.152 154.335 149.895C156.134 147.312 157.298 144.412 158.738 141.681L159.077 141.067C158.971 147.418 159.712 153.684 160.537 159.993L141.358 160.649ZM197.859 158.977C197.795 159.082 197.689 159.188 197.647 159.315C197.583 159.209 197.584 159.04 197.52 158.807C197.181 159.696 196.462 159.252 195.953 159.252C192.947 159.315 189.878 159.315 186.872 159.315C183.972 159.315 181.029 159.315 178.129 159.358C177.176 159.358 176.181 159.569 175.229 159.654C172.942 159.76 170.677 159.823 168.391 159.866C168.222 159.866 168.052 159.591 167.756 159.358C167.678 159.543 167.571 159.715 167.438 159.866L167.163 159.485L166.994 159.908H166.825C166.719 159.146 166.486 158.426 166.486 157.643C166.486 155.949 166.655 154.298 166.698 152.626C166.761 151.843 166.698 151.123 166.698 150.382L167.333 150.826L167.65 150.276L167.438 150.107C167.544 150.064 167.65 149.937 167.65 149.895C167.714 149.726 167.819 149.556 167.819 149.45C167.819 149.048 167.714 148.71 167.65 148.392C167.714 148.392 167.756 148.392 167.819 148.328L168.158 150.001H168.328C168.116 149.62 168.836 149.281 168.222 148.837C168.158 148.773 168.264 148.434 168.264 148.265C168.095 147.947 167.989 147.609 167.841 147.164C167.883 147.101 168.052 147.037 168.222 146.995C168.01 146.868 167.819 146.783 167.65 146.72C168.222 146.212 168.222 145.936 167.714 145.365C167.819 145.322 167.925 145.322 167.925 145.259C167.925 144.772 167.925 144.264 167.819 143.777C167.714 143.206 167.989 142.528 167.163 142.189C167.206 142.359 167.269 142.486 167.375 142.634L167.036 142.803C166.316 142.147 166.761 141.237 166.613 140.242C166.994 140.348 167.269 140.454 167.544 140.581C167.438 140.178 167.163 139.734 166.994 139.247H166.782V135.563C166.782 135.606 167.163 135.606 167.375 135.669C167.375 135.606 167.438 135.563 167.438 135.5L166.803 134.78L166.93 134.653C166.486 134.103 166.719 133.319 166.719 133.171V129.276C167.269 129.827 166.422 130.546 167.269 130.885V130.335H167.206C167.163 129.488 167.163 128.662 167.1 127.837H166.994L166.867 128.112H166.761L167.1 114.775C167.65 115.495 168.264 116.172 168.666 116.892C169.936 119.221 171.63 121.253 173.175 123.37C174.509 125.212 175.716 127.223 176.965 129.107L181.41 135.966C183.52 139.246 185.773 142.431 188.163 145.513C189.095 146.783 190.111 148.074 191.042 149.366L194.387 154.002L196.165 156.33C196.504 156.775 197.012 157.114 197.351 157.389L197.139 157.347C197.287 157.558 197.393 157.728 197.52 157.833C198.134 158.172 198.176 158.511 197.859 159.019V158.977ZM200.695 145.047V144.666C200.695 144.772 200.759 144.941 200.695 145.047ZM202.601 120.449C202.537 120.449 202.198 120.11 202.135 120.067C202.093 120.237 202.135 120.406 202.029 120.618C201.987 120.449 201.606 120.512 201.606 120.343C201.542 121.126 201.923 121.909 201.86 122.671C202.029 122.587 202.706 122.523 202.876 122.354C202.935 122.408 203.008 122.445 203.088 122.46C201.987 123.306 202.241 124.153 202.749 125.085C202.876 125.296 203.193 125.762 202.876 126.207C202.749 126.312 202.918 126.63 202.982 126.926H203.151V127.032L202.643 127.202C202.537 127.032 201.86 126.715 201.86 126.418V129.276C202.431 129.445 202.431 130.229 202.643 130.61C202.735 130.473 202.806 130.323 202.855 130.165L202.918 130.208C202.876 130.546 202.812 130.885 202.706 131.224C202.601 131.732 202.495 132.176 202.431 132.663C202.431 132.727 202.537 132.833 202.537 132.875C201.923 134.293 202.262 135.839 202.029 137.299C201.86 138.358 202.029 139.48 201.923 140.581C201.817 141.533 201.584 142.549 201.373 143.481C201.309 143.65 201.203 143.692 200.928 143.819C201.034 143.163 200.971 142.697 200.865 142.084C200.801 142.084 200.081 141.702 200.018 141.702C200.018 142.486 200.463 143.544 200.653 144.454C200.463 144.37 199.806 143.989 199.743 143.989C199.637 144.666 199.637 145.555 199.573 146.275C199.531 146.825 199.023 147.334 198.96 147.969C198.96 148.286 199.362 148.498 199.298 149.069H199.743C199.743 147.947 200.251 146.952 200.251 145.767H200.42C200.463 145.894 200.632 146 200.59 146.063C200.463 146.677 200.251 147.334 200.293 147.969C200.293 148.286 200.568 148.604 200.463 149.027C200.357 149.345 200.293 149.683 200.251 150.191C200.187 149.895 200.124 149.789 200.124 149.62L199.51 149.577C199.468 149.895 199.912 150.234 199.849 150.509C199.806 150.572 199.743 150.572 199.637 150.636L197.795 147.947C196.335 145.831 194.895 143.714 193.455 141.533C193.076 141.001 192.737 140.442 192.439 139.861C190.716 136.894 188.8 134.044 186.702 131.33C185.094 129.255 183.802 127.032 182.299 124.852L178.129 118.713C177.621 118.056 177.007 117.442 176.562 116.723C175.123 114.436 173.832 112.065 172.392 109.8C171.164 107.895 169.831 106.053 168.539 104.212L167.206 102.264C167.138 102.148 167.102 102.017 167.1 101.883C166.994 100.655 166.888 99.4274 166.825 98.2419C166.825 97.1411 166.93 96.0192 166.93 94.8549V93.8387C166.93 93.5635 166.994 93.3518 166.994 93.0555L167.142 92.8438C165.533 92.8438 163.861 92.7803 162.252 92.8438C161.194 92.8861 160.622 92.4416 159.923 91.6583C157.806 89.2662 156.24 86.5353 154.398 83.9738C152.663 81.5325 150.899 79.112 149.106 76.7128L144.745 70.9124C143.136 68.6896 141.57 66.4668 139.897 64.2229C137.907 61.5344 135.833 58.8671 133.758 56.1786C132.827 54.9507 131.768 53.7864 130.71 52.4951C131.429 52.6221 132.107 52.728 132.763 52.7915L135.452 52.9608C137.463 53.109 139.474 53.236 141.464 53.5112C143.136 53.7229 144.808 54.0616 146.544 54.358C150.207 54.9507 153.827 55.9669 157.341 57.1312C159.394 57.8086 161.405 58.6977 163.416 59.5233C167.883 61.4091 172.237 63.5507 176.457 65.9376C177.79 66.6785 178.573 67.8428 179.568 68.9013C181.008 70.4043 182.469 71.9073 183.866 73.4739C185.475 75.3156 186.978 77.2208 188.523 79.1049C189.92 80.7984 191.381 82.4497 192.757 84.1432C193.223 84.6301 193.561 85.244 193.942 85.8156C194.831 87.1492 195.848 88.4406 196.61 89.8801C197.16 90.9385 197.499 92.1664 197.88 93.3307L199.573 98.4748C199.954 99.745 200.293 101.1 200.568 102.433C200.78 103.323 200.738 104.275 200.992 105.164C201.352 106.329 200.992 107.62 201.352 108.784L201.5 109.186C201.733 109.398 201.902 109.61 201.563 109.97C201.521 110.012 201.521 110.245 201.563 110.393C201.69 110.287 201.733 110.181 201.839 110.012C201.839 110.139 201.902 110.181 201.902 110.224C201.902 110.457 201.839 110.689 201.902 110.901C201.902 111.007 202.008 111.176 202.071 111.303C202.177 111.176 202.283 111.134 202.495 110.965C203.003 112.87 203.066 114.754 203.066 116.702C203.066 118.543 203.405 120.385 202.643 122.163C202.791 121.549 202.389 120.999 202.558 120.449H202.601Z" fill="#DD3A0A"/>
<path fill-rule="evenodd" clip-rule="evenodd" d="M166.994 142.147C167.057 142.147 167.1 142.211 167.1 142.211L167.036 142.147C167.036 142.084 167.036 142.084 166.994 142.147ZM175.8 197.272C175.165 197.695 174.572 198.119 173.789 198.267C173.726 198.224 173.726 198.161 173.662 198.097L175.567 196.933C175.631 197.039 175.737 197.145 175.779 197.272H175.8ZM71.3299 121.655C71.965 120.872 72.5577 120.089 73.2351 119.327C73.2775 119.369 73.722 119.496 73.7855 119.538L71.7321 122.206C71.6051 122.1 71.4357 121.719 71.3299 121.655ZM55.5164 149.006L54.1828 146.127C54.3391 146.024 54.5105 145.945 54.6908 145.894C55.3047 146.783 55.5799 147.842 56.0245 148.794C56.0245 148.794 55.5799 149.006 55.5164 149.006ZM69.721 122.248C69.3823 122.735 69.0648 123.306 68.7261 123.814C68.6626 123.751 68.0486 124.026 68.0063 123.963C68.3238 123.476 69.1706 122.565 69.4882 122.057L69.721 122.248ZM169.852 199.558C169.894 199.558 169.894 199.495 169.936 199.495C170.339 199.558 170.783 199.622 171.207 199.622C170.487 200.109 170.042 200.045 169.831 199.558H169.852ZM69.8057 124.577C69.8692 124.407 69.975 124.238 70.0809 124.068L70.3561 124.026C70.589 123.624 70.589 123.349 70.8218 123.01C70.7583 122.968 70.6948 122.968 70.6525 122.904C70.3138 123.116 69.975 123.412 69.6363 123.645C69.7634 123.751 69.7634 123.814 69.7634 123.92C69.3188 123.857 69.1283 124.09 68.9166 124.704C68.8742 124.873 68.5779 124.915 68.3027 125.127C68.2603 125.254 68.1968 125.55 68.091 125.804L68.1333 125.868C68.0275 125.974 67.8581 126.037 67.8581 126.037C67.5194 126.376 67.1384 126.672 66.7997 126.99C66.7573 127.159 66.6938 127.329 66.6938 127.477C67.0749 127.096 67.7523 126.376 68.2603 125.931L68.3027 125.974L68.9378 124.979L69.0436 125.148L68.5355 126.545C68.4085 126.588 68.2392 126.715 68.2392 126.651C68.0275 126.82 67.8581 127.032 67.6253 127.202L66.6303 127.879C66.0799 128.387 65.5295 128.832 64.9156 129.318L63.6878 131.224C64.344 131.054 64.5345 131.33 64.471 131.901C65.2331 132.007 65.3178 131.393 65.5295 130.948C65.5718 130.843 65.6353 130.61 65.7412 130.546L67.3501 129.276C67.4771 129.17 67.4771 128.937 67.4771 128.768C67.4771 128.705 67.1807 128.705 67.0113 128.662C67.5194 128.091 68.2392 127.159 68.7472 126.545C69.0224 126.376 69.2976 126.143 69.2976 125.974C69.2553 125.36 69.6363 125.19 70.0809 124.979C69.8692 124.809 69.8057 124.64 69.8057 124.598V124.577Z" fill="#DD3735"/>
<path fill-rule="evenodd" clip-rule="evenodd" d="M70.9488 123.984L70.2714 125.085L69.9539 124.915C69.7422 126.185 68.9378 127.307 68.1757 127.54C68.3874 127.646 68.599 127.752 68.7896 127.71C68.9378 127.646 69.0648 127.371 69.1706 127.202L70.6525 125.021L71.1817 124.174L70.97 123.963L70.9488 123.984ZM52.4045 148.434C52.6797 148.434 52.9549 148.498 53.2937 148.498C53.2937 148.286 53.5689 148.328 53.5689 148.096H53.7382C53.7382 148.371 53.8017 148.604 53.8017 148.879H52.6162C52.5739 148.837 52.341 148.498 52.4045 148.434ZM51.96 145.873C51.7906 145.703 51.5154 145.534 51.5154 145.365C51.4519 145.153 51.6213 144.878 51.7906 144.582L52.0658 145.703C52.0023 145.767 51.96 145.809 51.96 145.873ZM53.3572 142.295C53.5689 142.867 53.7805 143.481 54.0134 144.031C53.8633 144.082 53.7208 144.153 53.59 144.243L52.8491 142.528C52.9126 142.465 53.2301 142.316 53.3572 142.316V142.295ZM177.367 195.642C177.642 195.515 177.96 195.451 178.425 195.345C177.917 195.748 177.515 196.023 177.197 196.362C177.134 196.298 177.07 196.256 177.028 196.256L177.367 195.621V195.642ZM108.884 77.7501L109.837 77.1362L109.943 77.2632C109.604 77.6866 109.308 78.1523 108.927 78.7027C108.884 78.3216 108.884 78.0888 108.821 77.8136C108.757 77.8136 108.821 77.8136 108.884 77.7501ZM125.206 105.99L126.815 105.249C126.772 105.588 126.772 105.821 126.772 106.032C126.588 105.969 126.395 105.933 126.201 105.926C125.862 105.99 125.248 106.434 124.973 106.477C124.931 106.477 125.185 106.053 125.185 105.99H125.206ZM166.994 153.282C167.1 153.854 168.158 154.129 167.1 154.679C167.269 154.806 167.438 154.849 167.608 154.976C167.593 155.055 167.557 155.128 167.502 155.187C167.375 155.251 167.163 155.357 167.057 155.293C166.994 155.293 166.888 155.081 166.888 154.954C166.888 154.468 166.93 153.96 166.994 153.282Z" fill="#DD3735"/>
</svg>