<svg width="256" height="256" title="PowerShell" viewBox="0 0 256 256" fill="none" xmlns="http://www.w3.org/2000/svg" id="powershell">
<style>
#powershell {
    rect {fill: #15191C}

    @media (prefers-color-scheme: light) {
        rect {fill: #F4F2ED}
    }
}
</style>
<rect width="256" height="256" rx="40" fill="#15191C"/>
<path fill-rule="evenodd" clip-rule="evenodd" d="M142.778 64.0265C161.889 64.0198 181.001 63.9617 200.112 64.0423C211.474 64.0888 214.677 67.8851 212.228 79.1055C205.055 111.966 197.722 144.793 190.29 177.596C187.939 187.965 182.539 192.212 171.632 192.244C133.409 192.358 95.1857 192.37 56.9634 192.239C44.4698 192.195 41.1834 187.964 43.8751 176.124C51.1788 143.968 58.5214 111.823 65.923 79.6901C68.7427 67.4449 72.98 64.083 85.442 64.0473C104.554 63.9933 123.666 64.0331 142.778 64.0265Z" fill="#E0EAF5"/>
<path fill-rule="evenodd" clip-rule="evenodd" d="M113.897 188.423C94.7829 188.416 75.6684 188.504 56.5556 188.379C46.8634 188.316 45.101 186.029 47.2828 176.549C54.6794 144.399 62.3144 112.304 69.5466 80.1179C71.4859 71.4854 75.6692 67.67 84.9179 67.7555C123.142 68.1102 161.372 67.8693 199.599 67.9084C209.186 67.9175 210.795 69.968 208.643 79.691C201.656 111.257 194.625 142.813 187.47 174.341C184.792 186.141 181.708 188.392 169.294 188.42C150.828 188.459 132.362 188.43 113.897 188.423Z" fill="#2671BE"/>
<path fill-rule="evenodd" clip-rule="evenodd" d="M130.161 125.418C128.879 123.915 127.472 122.184 125.982 120.529C117.533 111.145 109.159 101.69 100.56 92.4453C96.6249 88.2146 95.3709 84.106 100.097 79.9302C104.767 75.8025 109.355 76.1679 113.639 80.9168C125.569 94.1379 137.486 107.374 149.614 120.413C154.142 125.283 153.087 128.595 148.1 132.203C128.957 146.059 109.922 160.065 90.9085 174.097C86.6346 177.252 82.56 178.042 79.1076 173.382C75.2988 168.242 78.8227 165.184 82.7735 162.307C96.9032 152.015 111.005 141.685 125.047 131.274C127.003 129.824 129.811 128.978 130.161 125.418Z" fill="#FDFDFE"/>
<path fill-rule="evenodd" clip-rule="evenodd" d="M136.213 175.14C131.067 175.14 125.913 175.317 120.779 175.083C116.683 174.898 114.218 172.609 114.269 168.294C114.319 164.215 116.376 161.148 120.468 161.037C131.715 160.736 142.978 160.801 154.229 161.021C157.805 161.09 160.444 163.42 160.422 167.146C160.397 171.42 158.148 174.731 153.571 175.007C147.803 175.356 142.001 175.093 136.213 175.093C136.213 175.107 136.213 175.124 136.213 175.14Z" fill="#FCFDFD"/>
</svg>