<svg width="256" height="256" title="PowerShell" viewBox="0 0 256 256" fill="none" xmlns="http://www.w3.org/2000/svg" id="powershell">
<style>
#powershell {
    rect {fill: #15191C}

    @media (prefers-color-scheme: light) {
        rect {fill: #F4F2ED}
    }
}
</style>
<rect width="256" height="256" rx="40" fill="#15191C"/>
<path fill-rule="evenodd" clip-rule="evenodd" d="M50.126,192.293C47.812,192.293 45.81,191.381 44.491,189.724C43.143,188.031 42.68,185.703 43.221,183.337L68.701,72.023C69.769,67.359 74.251,63.706 78.906,63.706L205.872,63.706C208.187,63.706 210.188,64.617 211.509,66.275C212.857,67.966 213.32,70.295 212.779,72.661L187.299,183.976C186.231,188.639 181.749,192.294 177.093,192.294L50.126,192.294L50.126,192.293Z" fill="url(#_Linear1)"/>
<path fill-rule="evenodd" clip-rule="evenodd" d="M78.906,65.135L205.872,65.135C209.828,65.135 212.296,68.362 211.384,72.343L185.904,183.657C184.993,187.638 181.048,190.865 177.092,190.865L50.126,190.865C46.17,190.865 43.703,187.639 44.614,183.657L70.094,72.343C71.005,68.362 74.951,65.135 78.906,65.135Z" fill="url(#_Linear2)"/>
<path fill-rule="evenodd" clip-rule="evenodd" d="M128.241,161.658L159.121,161.658C162.711,161.658 165.622,164.694 165.622,168.438C165.622,172.183 162.711,175.221 159.121,175.221L128.241,175.221C124.651,175.221 121.741,172.185 121.741,168.438C121.741,164.694 124.651,161.658 128.241,161.658ZM148.271,131.507C147.74,132.577 146.637,133.757 144.686,135.127L87.375,176.288C84.246,178.561 79.754,177.718 77.344,174.403C74.934,171.089 75.515,166.56 78.644,164.285L130.326,126.861L130.326,126.092L97.854,91.548C95.205,88.73 95.48,84.174 98.469,81.369C101.458,78.566 106.027,78.578 108.676,81.395L147.639,122.846C149.851,125.199 150.015,128.762 148.271,131.507Z" fill="2c5591"/>
<path fill-rule="evenodd" clip-rule="evenodd" d="M146.842,130.078C146.311,131.148 145.208,132.328 143.258,133.699L85.946,174.859C82.817,177.132 78.325,176.289 75.915,172.975C73.505,169.66 74.086,165.131 77.215,162.856L128.897,125.432L128.897,124.663L96.425,90.119C93.776,87.302 94.052,82.745 97.041,79.941C100.03,77.137 104.599,77.149 107.248,79.966L146.211,121.417C148.422,123.77 148.587,127.333 146.842,130.078ZM127.363,160.86L158.242,160.86C161.833,160.86 164.743,163.739 164.743,167.29C164.743,170.84 161.833,173.719 158.242,173.719L127.363,173.719C123.772,173.719 120.862,170.84 120.862,167.29C120.862,163.739 123.772,160.86 127.363,160.86Z" fill="white"/>
<defs>
    <linearGradient id="_Linear1" x1="0" y1="0" x2="1" y2="0" gradientUnits="userSpaceOnUse" gradientTransform="matrix(-97.5381,-87.1247,87.1247,-97.5381,172.473,167.725)"><stop offset="0" style="stop-color:#5391fe;stop-opacity:1"/><stop offset="1" style="stop-color:#3e6dbf;stop-opacity:1"/></linearGradient>
    <linearGradient id="_Linear2" x1="0" y1="0" x2="1" y2="0" gradientUnits="userSpaceOnUse" gradientTransform="matrix(96.5416,86.7582,-86.7582,96.5416,73.9671,79.4429)"><stop offset="0" style="stop-color:#5391fe;stop-opacity:1"/><stop offset="1" style="stop-color:#3e6dbf;stop-opacity:1"/></linearGradient>
</defs>
</svg>