<svg width="256" height="256" title="Preact" viewBox="0 0 256 256" fill="none" xmlns="http://www.w3.org/2000/svg" id="preact">
<style>
#preact {
    rect {fill: #15191C}

    @media (prefers-color-scheme: light) {
        rect {fill: #F4F2ED}
    }
}
</style>
<rect width="256" height="256" rx="40" fill="#15191C"/>
<path d="M128 41L203 84.3008V170.902L128 214.203L53 170.902V84.3008L128 41Z" fill="#673AB8"/>
<path d="M73.4287 170.186C83.399 182.948 115.086 173.224 145.001 149.852C174.916 126.48 192.017 98.0873 182.046 85.325C172.075 72.5633 140.389 82.2875 110.474 105.659C80.559 129.032 63.4584 157.425 73.4287 170.186ZM77.6885 166.858C74.3814 162.627 75.8264 154.318 82.1258 143.858C88.7598 132.845 100.021 120.686 113.802 109.919C127.583 99.1525 142.104 91.1668 154.396 87.3945C166.069 83.8127 174.48 84.4209 177.787 88.6531C181.094 92.8853 179.649 101.194 173.349 111.654C166.715 122.667 155.454 134.826 141.673 145.593C127.892 156.359 113.37 164.345 101.079 168.117C89.406 171.699 80.9949 171.09 77.6885 166.858Z" fill="white"/>
<path d="M182.046 170.186C192.017 157.425 174.916 129.032 145.001 105.659C115.086 82.2875 83.3984 72.5633 73.4287 85.325C63.4578 98.0867 80.559 126.48 110.474 149.852C140.389 173.224 172.075 182.949 182.046 170.186ZM177.787 166.858C174.48 171.091 166.069 171.699 154.396 168.117C142.104 164.345 127.583 156.359 113.802 145.593C100.021 134.826 88.7592 122.667 82.1264 111.654C75.8264 101.194 74.3814 92.8859 77.6879 88.6531C80.9949 84.4209 89.4061 83.8127 101.079 87.3945C113.37 91.1668 127.892 99.1525 141.673 109.919C155.454 120.686 166.715 132.845 173.349 143.858C179.649 154.317 181.094 162.625 177.787 166.858Z" fill="white"/>
<path d="M127.738 139.242C134.081 139.242 139.224 134.1 139.224 127.756C139.224 121.412 134.081 116.27 127.738 116.27C121.394 116.27 116.251 121.412 116.251 127.756C116.251 134.1 121.394 139.242 127.738 139.242Z" fill="white"/>
</svg>