<svg width="256" height="256" title="Prisma" viewBox="0 0 256 256" fill="none" xmlns="http://www.w3.org/2000/svg">
<rect width="256" height="256" rx="40" fill="#677EEB"/>
<path fill-rule="evenodd" clip-rule="evenodd" d="M54.4241 162.312C52.5519 159.359 52.5237 155.597 54.3511 152.615L123.16 40.3746C126.987 34.1318 136.229 34.6776 139.294 41.3275L202.155 177.686C204.487 182.745 201.802 188.698 196.465 190.3L98.6816 219.635C94.7474 220.815 90.5083 219.234 88.3091 215.764L54.4241 162.312ZM131.099 73.193C131.762 69.8911 136.286 69.415 137.622 72.5065L180.983 172.839C181.799 174.729 180.783 176.907 178.811 177.495L111.25 197.663C108.767 198.404 106.388 196.235 106.899 193.693L131.099 73.193Z" fill="#F7FAFC"/>
</svg>