<svg width="256" height="256" title="Prometheus" viewBox="0 0 256 256" fill="none" xmlns="http://www.w3.org/2000/svg">
<rect width="256" height="256" rx="40" fill="#E6522C"/>
<path d="M128.497 216.65C112.597 216.65 99.6976 206.028 99.6976 192.926H157.29C157.296 206.022 144.403 216.65 128.497 216.65Z" fill="white"/>
<path d="M80.9295 185.071V167.82H176.064V185.071H80.9295Z" fill="white"/>
<path d="M175.722 158.911H81.2024C80.8851 158.55 80.5679 158.194 80.2633 157.826C73.8913 150.806 69.0357 142.546 66.0001 133.564C65.962 133.354 77.8079 135.981 86.2084 137.872C86.2084 137.872 90.5293 138.874 96.8488 140.023C90.7269 132.972 87.301 123.98 87.1792 114.643C87.1792 94.3398 102.737 76.625 97.1279 62.2983C102.591 62.7424 108.434 73.8269 108.828 91.161C114.365 81.5329 117.214 70.5937 117.076 59.4875C117.076 50.1796 123.205 39.3743 129.341 39C123.871 48.0097 130.756 55.7377 136.878 74.8992C139.175 82.0942 138.883 94.2129 140.654 101.89C141.244 85.9329 143.985 62.6536 154.105 54.621C149.663 64.7728 154.739 77.4054 158.273 83.4964C164.42 92.7768 167.589 103.711 167.359 114.84C167.327 124.107 164.008 133.062 157.994 140.112C164.675 138.843 169.294 137.726 169.294 137.726L191 133.494C188.055 143.085 182.81 151.811 175.722 158.911Z" fill="white"/>
</svg>