<svg width="256" height="256" viewBox="0 0 256 256" fill="none" xmlns="http://www.w3.org/2000/svg" id="custom-icon">
    <style>
        #custom-icon {
            rect { fill: #15191C; }

            @media (prefers-color-scheme: light) {
                rect { fill: #F4F2ED; }
            }
        }
    </style>
    <rect width="256" height="256" rx="25" fill="#15191C" />
    <g transform="translate(14, 54) scale(0.85)">
        <path fill="#ffc836" stroke="#000" stroke-width="7.415493" d="M142.3 67.6c.6-4.7.4-5.4 4-4.6h.8c2.7.2 6.2-.4 8.3-1.3 4.4-2.1 7-5.5 2.7-4.6-10 2-10.7-1.4-10.7-1.4 10.5-15.6 15-35.5 11.1-40.3-10.3-13.3-28.3-7-28.6-6.8h-.1c-2-.4-4.2-.7-6.7-.7-4.5 0-8 1.2-10.5 3.1 0 0-32-13.2-30.6 16.6.4 6.4 9.1 48 19.6 35.4 3.8-4.6 7.5-8.4 7.5-8.4 1.8 1.2 4 1.8 6.3 1.6l.2-.2a7 7 0 000 1.8c-2.6 3-1.8 3.5-7.2 4.7-5.4 1-2.2 3-.2 3.6 2.6.6 8.4 1.5 12.4-4l-.2.6c1.1.9 1 6.1 1.2 9.8.1 3.8.4 7.3 1.1 9.3.8 2 1.7 7.4 8.8 5.9 5.9-1.3 10.4-3.1 10.8-20.1" />
        <path fill="#ff0" d="M105.4 54.2a2.4 2.4 0 114.8 0c0 1.3-1.1 2.4-2.4 2.4-1.3 0-2.4-1-2.4-2.4z" />
        <!-- Continúa con todos los demás elementos del icono -->
    </g>
</svg>
