<svg width="256" height="256" title="Pug" viewBox="0 0 256 256" fill="none" xmlns="http://www.w3.org/2000/svg" id="pug">
<style>
#pug {
    rect {fill: #15191C}

    @media (prefers-color-scheme: light) {
        rect {fill: #F4F2ED}
    }
}
</style>
<rect width="256" height="256" rx="40" fill="#15191C"/>
<path d="M190.805 106.52C190.516 100.167 191.382 94.5358 188.495 89.7709C181.564 77.9308 164.237 71 129.583 71C94.929 71 76.7357 77.9308 69.8049 89.9153C67.0614 94.8246 67.3502 100.311 66.917 106.665C66.6283 111.718 64.318 117.061 65.3287 122.837C66.4839 130.345 66.917 137.853 68.0722 144.784C68.9385 150.415 76.7357 155.18 77.4576 160.523C79.4791 175.251 94.7846 182.037 129.439 182.037V183.192H128.572H129.583V182.037C164.237 182.037 178.965 175.251 180.842 160.523C181.564 155.036 188.783 150.415 189.65 144.784C190.805 137.853 191.238 130.345 192.393 122.837C193.404 117.061 191.094 111.574 190.805 106.52Z" fill="#EFCCA3"/>
<path d="M129.005 111.718C135.214 111.863 139.546 115.761 143.589 119.371C148.354 123.558 156.44 126.446 159.761 130.056C163.082 133.666 167.413 137.276 169.002 142.907C170.59 148.538 171.023 155.758 171.023 157.635C171.023 159.512 172.034 159.079 174.922 157.635C181.708 154.314 189.217 145.362 189.217 145.362C188.35 150.993 180.986 156.047 180.264 161.389C178.532 176.117 164.237 183.192 128.861 183.192H128.717L129.583 183.192" fill="#CCAC8D"/>
<path d="M151.819 100.456C153.119 104.932 157.739 120.093 148.787 115.039C148.787 115.039 152.541 117.205 154.851 125.436C157.306 133.666 163.226 134.677 163.226 134.677C163.226 134.677 172.9 136.554 180.12 130.345C186.184 125.147 187.195 115.906 184.596 108.831C181.997 101.9 177.376 99.7339 170.59 98.29C163.804 96.7017 150.231 95.4022 151.819 100.456Z" fill="#CCAC8D"/>
<path d="M169.002 129.623C176.019 129.623 181.708 123.934 181.708 116.916C181.708 109.899 176.019 104.21 169.002 104.21C161.984 104.21 156.295 109.899 156.295 116.916C156.295 123.934 161.984 129.623 169.002 129.623Z" fill="black"/>
<path d="M165.681 114.606C167.515 114.606 169.002 113.119 169.002 111.285C169.002 109.451 167.515 107.964 165.681 107.964C163.847 107.964 162.36 109.451 162.36 111.285C162.36 113.119 163.847 114.606 165.681 114.606Z" fill="white"/>
<path d="M149.653 116.339C149.653 116.339 161.06 124.136 167.269 131.789C173.478 139.442 173.334 140.885 173.334 140.885L168.857 142.907C168.857 142.907 162.504 130.922 154.707 126.446C146.766 121.97 145.899 118.216 145.899 118.216L149.653 116.339Z" fill="#EFCCA3"/>
<path d="M129.439 111.718C123.23 111.863 118.609 115.761 114.422 119.371C109.657 123.558 101.282 126.446 97.9612 130.056C94.6402 133.666 90.1641 137.276 88.5758 142.907C86.9875 148.538 86.4099 155.758 86.4099 157.635C86.4099 159.512 86.6987 159.656 82.5113 157.635C75.7249 154.458 68.2166 145.362 68.2166 145.362C69.0829 150.993 76.4469 156.047 77.1688 161.389C79.1903 176.117 93.4851 183.192 128.861 183.192L129.583 183.192" fill="#CCAC8D"/>
<path d="M162.937 136.121C156.007 127.601 144.888 119.66 129.439 119.66H129.294C113.844 119.66 102.726 127.601 95.7953 136.121C88.5758 144.928 89.1533 148.394 89.1533 156.769C89.1533 187.091 99.8383 178.427 106.913 182.181C114.133 185.791 121.641 184.636 129.294 184.636H129.439C137.236 184.636 144.6 185.647 151.819 182.037C158.894 178.427 169.579 187.38 169.579 157.057C169.724 148.683 170.157 144.928 162.937 136.121Z" fill="#56332B"/>
<path d="M128.717 127.168C128.717 127.168 127.706 141.174 125.684 143.918L129.439 143.051L128.717 127.168Z" fill="#442823"/>
<path d="M129.727 127.168C129.727 127.168 130.738 141.174 132.76 143.918L129.005 143.051L129.727 127.168Z" fill="#442823"/>
<path d="M117.598 123.847C116.155 120.526 121.353 115.184 129.583 115.039C137.813 115.039 143.011 120.382 141.567 123.847C140.124 127.313 134.925 128.323 129.583 128.468C124.385 128.323 119.042 127.313 117.598 123.847Z" fill="#56332B"/>
<path d="M129.583 127.168C129.583 126.591 134.492 126.446 137.091 124.714C137.091 124.714 131.749 126.446 130.594 125.724C129.439 125.147 129.15 123.414 129.15 123.414C129.15 123.414 128.717 125.147 127.85 125.724C126.839 126.302 120.775 124.714 120.775 124.714C120.775 124.714 128.861 126.735 128.861 127.168C128.861 127.601 128.717 129.045 128.717 130.056C128.717 133.666 128.717 142.618 129.294 143.34C130.161 144.64 129.872 133.666 129.872 130.056C129.727 128.901 129.727 127.746 129.583 127.168Z" fill="black"/>
<path d="M129.872 146.517C132.326 146.517 136.658 148.249 140.557 150.993C136.803 146.805 132.326 143.918 129.872 143.918C127.273 143.918 121.786 147.094 117.887 151.715C121.93 148.538 127.128 146.517 129.872 146.517Z" fill="#7F4A41"/>
<path d="M128.861 172.074C123.374 172.074 118.032 170.341 113.122 169.042C112.112 168.753 111.101 169.475 110.09 169.186C100.993 166.298 93.6295 161.389 89.1533 155.18V156.624C89.1533 186.946 99.8383 178.427 106.913 182.037C114.133 185.647 121.641 184.492 129.294 184.492H129.439C137.236 184.492 144.6 185.502 151.819 181.893C158.894 178.283 169.579 187.091 169.579 156.769C169.579 155.613 169.579 154.458 169.724 153.448C165.536 160.234 157.884 165.576 148.354 168.753C147.487 169.042 145.466 168.32 144.6 168.464C139.402 170.197 134.781 172.074 128.861 172.074Z" fill="#442823"/>
<path d="M115.144 155.758C115.144 155.758 111.534 166.587 113.989 171.352L110.668 169.908C110.668 169.908 113.122 158.934 115.144 155.758ZM143.733 155.758C143.733 155.758 147.343 166.587 144.888 171.352L148.209 169.908C148.209 169.908 145.61 158.934 143.733 155.758Z" fill="#442823"/>
<path d="M105.903 100.456C104.603 104.932 99.9827 120.093 108.935 115.039C108.935 115.039 105.181 117.205 102.871 125.436C100.56 133.666 94.4958 134.677 94.4958 134.677C94.4958 134.677 84.8216 136.554 77.602 130.345C71.5376 125.147 70.5268 115.906 73.1259 108.831C75.7249 101.755 80.3454 99.7339 87.1318 98.29C93.9182 96.7017 107.347 95.4022 105.903 100.456Z" fill="#CCAC8D"/>
<path d="M129.439 143.918C133.337 143.918 145.466 152.292 145.61 162.544V161.967C145.61 151.282 135.792 142.763 129.439 142.763C123.085 142.763 113.267 151.426 113.267 161.967V162.544C113.411 152.292 125.54 143.918 129.439 143.918Z" fill="black"/>
<path d="M132.591 123.926C133.208 123.767 133.467 122.698 133.168 121.54C132.869 120.382 132.126 119.572 131.509 119.731C130.891 119.891 130.632 120.959 130.931 122.117C131.23 123.275 131.973 124.085 132.591 123.926Z" fill="#331712"/>
<path d="M125.169 123.904C125.778 124.093 126.559 123.32 126.914 122.178C127.268 121.036 127.062 119.956 126.452 119.767C125.843 119.578 125.062 120.351 124.707 121.493C124.353 122.636 124.56 123.715 125.169 123.904Z" fill="#331712"/>
<path d="M89.4421 129.623C96.4597 129.623 102.149 123.934 102.149 116.916C102.149 109.899 96.4597 104.21 89.4421 104.21C82.4245 104.21 76.7357 109.899 76.7357 116.916C76.7357 123.934 82.4245 129.623 89.4421 129.623Z" fill="black"/>
<path d="M92.7631 114.606C94.5973 114.606 96.0841 113.119 96.0841 111.285C96.0841 109.451 94.5973 107.964 92.7631 107.964C90.929 107.964 89.4421 109.451 89.4421 111.285C89.4421 113.119 90.929 114.606 92.7631 114.606Z" fill="white"/>
<path d="M133.193 117.061C133.193 116.916 129.872 118.505 129.005 118.649C128.139 118.505 124.818 116.916 124.818 117.061H133.193Z" fill="#7F4A41"/>
<path d="M107.924 116.339C107.924 116.339 96.5173 124.136 90.3085 131.789C84.0996 139.442 84.244 140.885 84.244 140.885L88.7202 142.907C88.7202 142.907 95.0734 130.922 102.871 126.446C110.668 121.97 111.678 118.216 111.678 118.216L107.924 116.339Z" fill="#EFCCA3"/>
<path d="M82.9445 93.2363C82.9445 93.2363 79.0459 103.921 70.3824 108.397C70.3824 108.397 83.9552 106.809 82.9445 93.2363ZM174.056 93.2363C174.056 93.2363 177.954 103.921 186.618 108.397C186.618 108.397 173.045 106.809 174.056 93.2363ZM149.365 113.162C149.365 113.162 140.845 104.21 129.439 103.921H129.727C118.176 104.21 109.801 113.162 109.801 113.162C119.764 106.232 128.283 106.376 129.727 106.376C129.583 106.376 139.402 106.232 149.365 113.162ZM139.402 94.3914C139.402 94.3914 135.07 88.327 129.294 88.1826H129.583C125.251 88.327 119.62 94.3914 119.62 94.3914C124.529 89.6265 129.583 89.7709 129.583 89.7709C129.583 89.7709 134.348 89.6265 139.402 94.3914ZM89.4421 138.72C89.4421 138.72 82.6557 142.041 77.7464 140.019H77.602C73.2703 137.564 71.1044 130.2 71.1044 130.2C71.1044 130.2 75.4361 143.196 89.4421 138.72ZM168.569 138.72C168.569 138.72 175.355 142.041 180.264 140.019C186.04 137.564 186.906 130.2 186.906 130.2C186.906 130.2 182.575 143.196 168.569 138.72Z" fill="#CCAC8D"/>
<path d="M97.2392 92.5143C100.993 91.7924 107.202 91.648 112.112 93.2363C118.32 95.4022 113.267 103.344 114.566 103.777C115.866 104.21 117.598 98.29 129.15 98.8675C140.845 99.4451 142.145 104.643 143.733 103.777C145.322 102.911 142.145 89.3377 159.616 92.5143C159.616 92.5143 141.279 87.605 142.145 100.889C142.145 100.889 131.604 92.8031 116.876 100.023C117.021 100.023 120.775 87.605 97.2392 92.5143ZM161.205 92.5143C161.493 92.5143 161.638 92.6587 161.782 92.6587C161.927 92.6587 161.638 92.5143 161.205 92.5143ZM92.1855 74.7542C92.1855 74.7542 76.5913 94.3914 74.281 101.9C71.9707 109.553 70.238 140.885 68.2166 145.362L60.997 114.462L74.281 82.2625L92.1855 74.7542ZM165.536 74.7542C165.536 74.7542 181.131 94.3914 183.441 101.9C185.751 109.553 187.484 140.885 189.505 145.362L196.725 114.462L183.441 82.2625L165.536 74.7542Z" fill="#CCAC8D"/>
<path d="M164.814 74.7542C164.814 74.7542 181.564 88.7601 186.473 104.932C191.382 121.104 189.361 140.741 193.115 143.196C198.458 146.661 204.522 126.013 206.544 123.847C209.72 120.382 220.261 111.574 220.983 109.986C221.705 108.397 199.613 84.284 189.939 79.5191C178.243 74.0322 163.804 73.599 164.814 74.7542Z" fill="#56332B"/>
<path d="M179.109 83.4177C179.109 83.4177 198.891 108.686 198.602 140.163L206.544 123.992C206.399 123.992 199.468 103.344 179.109 83.4177Z" fill="#442823"/>
<path d="M92.1855 74.7542C92.1855 74.7542 75.4361 88.7601 70.5268 104.932C65.6175 121.104 67.639 140.741 63.8848 143.196C58.5423 146.661 52.4779 126.013 50.4564 123.847C47.2798 120.382 36.7392 111.574 36.0173 109.986C35.2953 108.397 57.3872 84.284 67.0614 79.5191C78.7571 74.0322 93.1963 73.599 92.1855 74.7542Z" fill="#56332B"/>
<path d="M77.8908 83.4177C77.8908 83.4177 58.1092 108.686 58.398 140.163L50.6008 123.992C50.6008 123.992 57.5316 103.344 77.8908 83.4177Z" fill="#442823"/>
<path d="M67.2058 140.741C67.2058 140.741 68.6497 148.538 70.96 150.993C73.2703 153.448 71.682 149.116 71.682 149.116C71.682 149.116 69.2273 147.816 69.6605 137.853C70.0937 127.89 67.2058 140.741 67.2058 140.741ZM190.372 140.741C190.372 140.741 188.928 148.538 186.618 150.993C184.307 153.448 185.896 149.116 185.896 149.116C185.896 149.116 188.35 147.816 187.917 137.853C187.484 127.89 190.372 140.741 190.372 140.741Z" fill="#CCAC8D"/>
<path d="M114.422 135.976C115.06 135.976 115.577 135.459 115.577 134.821C115.577 134.183 115.06 133.666 114.422 133.666C113.784 133.666 113.267 134.183 113.267 134.821C113.267 135.459 113.784 135.976 114.422 135.976Z" fill="#442823"/>
<path d="M107.78 142.907C108.418 142.907 108.935 142.39 108.935 141.752C108.935 141.114 108.418 140.597 107.78 140.597C107.142 140.597 106.625 141.114 106.625 141.752C106.625 142.39 107.142 142.907 107.78 142.907Z" fill="#442823"/>
<path d="M105.614 135.976C106.252 135.976 106.769 135.459 106.769 134.821C106.769 134.183 106.252 133.666 105.614 133.666C104.976 133.666 104.459 134.183 104.459 134.821C104.459 135.459 104.976 135.976 105.614 135.976Z" fill="#442823"/>
<path d="M142.578 135.976C143.216 135.976 143.733 135.459 143.733 134.821C143.733 134.183 143.216 133.666 142.578 133.666C141.94 133.666 141.423 134.183 141.423 134.821C141.423 135.459 141.94 135.976 142.578 135.976Z" fill="#442823"/>
<path d="M149.22 142.907C149.858 142.907 150.375 142.39 150.375 141.752C150.375 141.114 149.858 140.597 149.22 140.597C148.582 140.597 148.065 141.114 148.065 141.752C148.065 142.39 148.582 142.907 149.22 142.907Z" fill="#442823"/>
<path d="M151.386 135.976C152.024 135.976 152.541 135.459 152.541 134.821C152.541 134.183 152.024 133.666 151.386 133.666C150.748 133.666 150.231 134.183 150.231 134.821C150.231 135.459 150.748 135.976 151.386 135.976Z" fill="#442823"/>
</svg>