<svg width="256" height="256" title="Puppeteer" viewBox="0 0 256 256" fill="none" xmlns="http://www.w3.org/2000/svg" id="puppeteer">
<style>
#puppeteer {
    rect {fill: #15191C}

    @media (prefers-color-scheme: light) {
        rect {fill: #F4F2ED}
    }
}
</style>
<rect width="256" height="256" rx="40" fill="#15191C"/>
<path d="M186.791 138.428H69.0273V131.787C69.0273 127.324 72.6447 123.707 77.1067 123.707H178.712C183.174 123.707 186.791 127.324 186.791 131.787V138.428Z" fill="#DFDEDF"/>
<path d="M178.587 215.447H77.2312C72.7003 215.447 69.0271 211.774 69.0271 207.243V138.428H186.791V207.243C186.791 211.774 183.119 215.447 178.587 215.447Z" fill="white"/>
<path d="M185.329 137.093V131.137C185.329 127.621 182.479 124.77 178.963 124.77H77.037C73.5209 124.77 70.6709 127.621 70.6709 131.137V137.093H185.329ZM185.329 208.094V139.764H70.6709V208.094C70.6709 211.61 73.5209 214.46 77.037 214.46H178.963C182.479 214.46 185.329 211.61 185.329 208.094ZM77.6347 122.1L78.0312 117.77L76.3475 122.134C76.5758 122.117 76.8041 122.1 77.037 122.1H77.6347ZM177.666 114.801L178.254 122.1H178.963C179.342 122.1 179.713 122.131 180.08 122.176L177.666 114.801ZM185.751 125.191C187.146 126.781 188 128.859 188 131.137V208.094C188 213.077 183.946 217.131 178.963 217.131H77.037C72.0542 217.131 68 213.077 68 208.094V131.137C68 128.722 68.9577 126.53 70.5064 124.907L79.5158 101.555L83.4444 58.6393L87.8769 59.0448L84.3369 97.7129L85.5838 98.1938L83.8916 102.58L82.1047 122.1H173.789L168.701 58.9379L173.137 58.5802L176.138 95.8313L176.14 95.8309L185.751 125.191ZM77.9171 129.123C79.0309 129.123 79.9337 130.026 79.9337 131.14C79.9337 132.254 79.0309 133.156 77.9171 133.156C76.8034 133.156 75.9005 132.254 75.9005 131.14C75.9005 130.026 76.8034 129.123 77.9171 129.123ZM84.8115 129.123C85.9252 129.123 86.828 130.026 86.828 131.14C86.828 132.254 85.9252 133.156 84.8115 133.156C83.6977 133.156 82.7949 132.254 82.7949 131.14C82.7949 130.026 83.6977 129.123 84.8115 129.123ZM91.4886 129.123C92.6024 129.123 93.5052 130.026 93.5052 131.14C93.5052 132.254 92.6024 133.156 91.4886 133.156C90.3749 133.156 89.4721 132.254 89.4721 131.14C89.4721 130.026 90.3749 129.123 91.4886 129.123Z" fill="black"/>
<path d="M84.8852 172.882C85.2316 172.481 85.4139 171.954 85.4139 171.3C85.4139 170.646 85.2316 170.14 84.8852 169.739C84.5205 169.339 84.0095 169.149 83.3533 169.149H80.1438V173.472H83.3533C84.0095 173.472 84.5205 173.282 84.8852 172.882ZM83.3533 166.555C84.7389 166.555 85.8334 166.977 86.6538 167.841C87.4745 168.706 87.8758 169.866 87.8758 171.3C87.8758 172.755 87.4745 173.894 86.6725 174.758C85.8517 175.624 84.7577 176.066 83.3533 176.066H80.1438V181.885H77.6636V166.555H83.3533ZM96.7335 175.957V171.485H99.4044V181.582H96.7335V180.671C95.9239 181.48 94.8721 181.885 93.5568 181.885C92.3427 181.885 91.3714 181.48 90.6229 180.692C89.8743 179.903 89.51 178.891 89.51 177.636V171.485H92.181V177.07C92.181 177.778 92.3629 178.365 92.7472 178.79C93.1114 179.215 93.5971 179.437 94.2243 179.437C95.9038 179.437 96.7335 178.284 96.7335 175.957ZM109.824 178.729C110.35 178.182 110.613 177.454 110.613 176.544C110.613 175.633 110.35 174.884 109.824 174.338C109.277 173.792 108.61 173.508 107.78 173.508C107.032 173.508 106.364 173.792 105.777 174.358C105.19 174.925 104.907 175.653 104.907 176.544C104.907 177.434 105.19 178.163 105.777 178.708C106.364 179.275 107.032 179.559 107.78 179.559C108.61 179.559 109.277 179.275 109.824 178.729ZM108.246 171.182C109.561 171.182 110.734 171.688 111.726 172.699C112.717 173.731 113.203 175.006 113.203 176.544C113.203 178.081 112.717 179.356 111.726 180.368C110.734 181.38 109.581 181.885 108.246 181.885C106.93 181.885 105.817 181.521 104.907 180.793V186.399H102.236V171.485H104.907V172.294C105.797 171.546 106.91 171.182 108.246 171.182ZM122.813 178.729C123.339 178.182 123.602 177.454 123.602 176.544C123.602 175.633 123.339 174.884 122.813 174.338C122.267 173.792 121.599 173.508 120.769 173.508C120.021 173.508 119.353 173.792 118.766 174.358C118.18 174.925 117.896 175.653 117.896 176.544C117.896 177.434 118.18 178.163 118.766 178.708C119.353 179.275 120.021 179.559 120.769 179.559C121.599 179.559 122.267 179.275 122.813 178.729ZM121.234 171.182C122.55 171.182 123.723 171.688 124.715 172.699C125.706 173.731 126.192 175.006 126.192 176.544C126.192 178.081 125.706 179.356 124.715 180.368C123.723 181.38 122.57 181.885 121.234 181.885C119.92 181.885 118.807 181.521 117.896 180.793V186.399H115.226V171.485H117.896V172.294C118.787 171.546 119.899 171.182 121.234 171.182ZM130.137 175.37H135.013C134.851 174.743 134.548 174.278 134.123 173.973C133.698 173.67 133.192 173.508 132.625 173.508C132.08 173.508 131.553 173.67 131.088 173.994C130.602 174.318 130.278 174.783 130.137 175.37ZM132.625 171.182C134.002 171.182 135.195 171.667 136.187 172.618C137.178 173.59 137.684 174.823 137.745 176.341V177.252H130.056C130.198 177.96 130.501 178.526 130.967 178.952C131.432 179.376 131.958 179.598 132.585 179.598C133.739 179.598 134.568 179.154 135.094 178.263L137.482 178.769C137.057 179.801 136.41 180.571 135.56 181.097C134.71 181.623 133.718 181.885 132.585 181.885C131.128 181.885 129.894 181.38 128.902 180.388C127.911 179.397 127.405 178.102 127.405 176.544C127.405 174.986 127.911 173.691 128.923 172.679C129.914 171.688 131.149 171.182 132.625 171.182ZM145.109 179.397C145.615 179.397 146.182 179.235 146.789 178.911L147.558 181.137C146.627 181.643 145.757 181.885 144.927 181.885C143.693 181.885 142.721 181.541 142.013 180.873C141.305 180.206 140.961 179.214 140.961 177.859V173.67H138.796V171.485H140.961V168.43H143.632V171.485H146.93V173.67H143.632V177.656C143.632 178.81 144.118 179.397 145.109 179.397ZM150.713 175.37H155.589C155.428 174.743 155.124 174.278 154.699 173.973C154.274 173.67 153.769 173.508 153.202 173.508C152.656 173.508 152.13 173.67 151.664 173.994C151.178 174.318 150.855 174.783 150.713 175.37ZM153.202 171.182C154.578 171.182 155.772 171.667 156.763 172.618C157.755 173.59 158.26 174.823 158.321 176.341V177.252H150.632C150.774 177.96 151.077 178.526 151.543 178.952C152.008 179.376 152.534 179.598 153.161 179.598C154.315 179.598 155.145 179.154 155.67 178.263L158.058 178.769C157.633 179.801 156.986 180.571 156.136 181.097C155.286 181.623 154.295 181.885 153.161 181.885C151.704 181.885 150.47 181.38 149.479 180.388C148.487 179.397 147.981 178.102 147.981 176.544C147.981 174.986 148.487 173.691 149.499 172.679C150.49 171.688 151.725 171.182 153.202 171.182ZM162.711 175.37H167.587C167.425 174.743 167.122 174.278 166.697 173.973C166.272 173.67 165.766 173.508 165.199 173.508C164.654 173.508 164.127 173.67 163.662 173.994C163.176 174.318 162.852 174.783 162.711 175.37ZM165.199 171.182C166.576 171.182 167.769 171.667 168.761 172.618C169.752 173.59 170.258 174.823 170.319 176.341V177.252H162.63C162.772 177.96 163.075 178.526 163.541 178.952C164.006 179.376 164.532 179.598 165.159 179.598C166.313 179.598 167.142 179.154 167.668 178.263L170.056 178.769C169.631 179.801 168.984 180.571 168.134 181.097C167.284 181.623 166.292 181.885 165.159 181.885C163.702 181.885 162.468 181.38 161.476 180.388C160.485 179.397 159.979 178.102 159.979 176.544C159.979 174.986 160.485 173.691 161.497 172.679C162.488 171.688 163.723 171.182 165.199 171.182ZM178.634 171.343C178.938 171.343 179.181 171.364 179.343 171.424L179.201 173.994H178.615C176.207 173.994 175.012 175.431 175.012 178.324V181.582H172.342V171.485H175.012V173.326C175.923 172.011 177.137 171.343 178.634 171.343Z" fill="black"/>
<path d="M166.951 100.174L181.361 93.2174V86.2612L148.069 70.3603L181.361 53.2176V46.5098L167.448 40.0499L128.028 59.677L87.945 40.0499L75.0258 47.0067V52.9692L106.33 70.1118L75.0258 86.0128V93.2174L88.4419 100.174L128.193 79.8013L166.951 100.174Z" fill="#00D8A2"/>
<path d="M168.758 97.3365V94.3402L179.604 88.7195V92.0851L168.758 97.3365ZM75.8986 88.6407L86.3799 94.6576V97.0529L75.8986 91.7504V88.6407ZM129.586 75.9873L165.642 93.8021V97.3843L129.586 78.9132V75.9873ZM89.4957 94.3234L126.47 75.991V78.9123L89.4957 97.6191V94.3234ZM115.676 64.3679L78.2597 46.3032L87.9507 41.3781L128.028 62.1545L167.434 41.387L177.467 46.5259L140.979 64.8887C139.521 65.6227 139.523 67.7063 140.983 68.4371L177.095 86.5107L167.735 91.3609L128.028 71.0157L87.6188 91.7762L78.3896 86.4779L115.697 67.9332C117.175 67.1987 117.163 65.0856 115.676 64.3679ZM76.3646 52.4237V49.1359L111.261 66.5462L107.733 67.9557L76.3646 52.4237ZM147.921 68.1493C147.873 68.1202 144.579 66.5659 144.579 66.5659L179.604 48.9385V52.2409L147.921 68.1493ZM151.427 69.8757L182.212 54.4182C182.524 54.2616 182.721 53.9424 182.721 53.5937V46.2798C182.721 45.9334 182.527 45.6165 182.219 45.4585L167.859 38.1038C167.596 37.9693 167.285 37.9688 167.021 38.1024L128.442 57.6793C128.182 57.8115 127.874 57.8129 127.613 57.6821L88.3533 38.0968C88.0922 37.9665 87.7843 37.9679 87.5236 38.1001L73.2872 45.3348C72.9774 45.4923 72.7824 45.8101 72.7824 46.1574V53.5895C72.7824 53.9406 72.9816 54.2612 73.2966 54.4168L104.211 69.6906L73.4396 84.9695C73.1316 85.1227 72.9338 85.4345 72.9277 85.779L72.7932 93.0873C72.7866 93.4412 72.9835 93.7674 73.2989 93.9273L88.0819 101.407C88.343 101.538 88.651 101.539 88.9125 101.408L127.612 81.9756C127.873 81.8438 128.182 81.8448 128.444 81.9774L166.66 101.409C166.917 101.539 167.22 101.543 167.48 101.417L182.2 94.2906C182.518 94.1363 182.721 93.8138 182.721 93.4604V85.8245C182.721 85.4724 182.52 85.1513 182.205 84.9962L151.427 69.8757Z" fill="black"/>
</svg>