<svg width="256" height="256" title="PWA" viewBox="0 0 256 256" fill="none" xmlns="http://www.w3.org/2000/svg" id="pwa">
<style>
#pwa {
    rect {fill: #15191C}
    path.pwa {fill: #F4F2ED}

    @media (prefers-color-scheme: light) {
        rect {fill: #F4F2ED}
        path.pwa {fill: #3D3D3D}
    }
}
</style>
<rect width="256" height="256" rx="40" fill="#15191C"/>
<path d="M168.115 148.542L173.026 136.123H187.207L180.477 117.284L188.893 96L213 160.005H195.222L191.103 148.542H168.115Z" class="pwa" fill="#F4F2ED"/>
<path d="M152.949 160.006L178.755 96.0001L161.646 96.0002L143.993 137.362L131.44 96.0003H118.289L104.811 137.362L95.305 118.514L86.7029 145.016L95.4366 160.006H112.274L124.454 122.913L136.067 160.006H152.949Z" fill="#5A0FC8"/>
<path d="M59.2402 138.033H69.7784C72.9706 138.033 75.8131 137.677 78.306 136.965L88.6481 105.102C88.0678 104.182 87.4052 103.313 86.6604 102.493C82.7496 98.1643 77.0278 96 69.4947 96H43V160.005H59.2402V138.033ZM73.1891 110.725C74.7167 112.262 75.4804 114.32 75.4804 116.897C75.4804 119.494 74.8086 121.554 73.4653 123.077C71.9926 124.769 69.2808 125.614 65.3303 125.614H59.2402V108.419H65.375C69.0569 108.419 71.6616 109.188 73.1891 110.725Z" class="pwa" fill="#F4F2ED"/>
</svg>