<svg width="256" height="256" title="PyCharm" viewBox="0 0 256 256" fill="none" xmlns="http://www.w3.org/2000/svg" id="pycharm">
<style>
#pycharm {
    rect {fill: #15191C}

    @media (prefers-color-scheme: light) {
        rect {fill: #F4F2ED}
    }
}
</style>
<rect width="256" height="256" rx="40" fill="#15191C"/>
<path d="M65.0928 167.377L65.0971 196.137C65.0971 201.585 69.5131 206 74.9606 206H102.828C105.707 206 108.443 204.741 110.317 202.556L189.535 110.134C191.066 108.346 191.909 106.069 191.909 103.714V74.9533C191.909 69.5058 187.493 65.0897 182.046 65.0897H154.174C151.295 65.0897 148.559 66.348 146.684 68.5335L67.4671 160.955C65.9341 162.743 65.0928 165.021 65.0928 167.377Z" fill="#00D886"/>
<path d="M65.0915 170.834V196.134C65.0915 201.581 69.5075 205.997 74.9551 205.997H106.664C107.13 205.997 107.596 205.963 108.059 205.899L197.531 193.118C202.391 192.424 206 188.262 206 183.353V145.396C206 139.947 201.583 135.53 196.133 135.532L151.236 135.543C150.176 135.543 149.124 135.714 148.119 136.049L71.8354 161.477C67.8082 162.82 65.0915 166.588 65.0915 170.834Z" fill="url(#linearGradient1)"/>
<path d="M51 60.8636V143.13C51 147.076 53.3518 150.642 56.9773 152.196L147.775 191.111C149.002 191.636 150.325 191.908 151.661 191.908H196.136C201.583 191.908 205.999 187.492 205.999 182.045V138.534C205.999 136.585 205.422 134.68 204.339 133.058L152.505 55.3921C150.674 52.65 147.597 51.0042 144.301 51.0042L60.8636 51C55.4161 51 51 55.4161 51 60.8636Z" fill="url(#linearGradient2)"/>
<path d="M176.937 80.0624H80.0624V176.937H176.937V80.0624Z" fill="black"/>
<path fill-rule="evenodd" clip-rule="evenodd" d="M108 92.0932H92.4021V128.434H99.4884V114.702H107.795C110.39 114.702 112.666 114.235 114.622 113.3C116.595 112.349 118.109 111.015 119.165 109.302C120.237 107.589 120.773 105.564 120.773 103.332C120.773 101.1 120.245 99.1366 119.189 97.4401C118.151 95.7438 116.663 94.4295 114.724 93.495C112.786 92.5605 110.544 92.0932 108 92.0932ZM110.647 108.162C109.764 108.595 108.726 108.812 107.532 108.812H99.4842V97.9867H107.532C108.726 97.9867 109.764 98.2105 110.647 98.6613C111.547 99.0924 112.238 99.7153 112.723 100.53C113.208 101.324 113.451 102.295 113.451 103.385C113.451 104.475 113.207 105.436 112.723 106.267C112.239 107.081 111.547 107.711 110.647 108.162Z" fill="white"/>
<path d="M131.846 126.618C134.667 128.244 137.817 129.059 141.295 129.059C144.236 129.059 146.937 128.511 149.394 127.421C151.851 126.331 153.893 124.809 155.52 122.852C157.164 120.879 158.263 118.621 158.817 116.077H151.392C150.907 117.392 150.181 118.553 149.212 119.556C148.259 120.543 147.108 121.305 145.759 121.84C144.41 122.376 142.939 122.645 141.347 122.645C139.201 122.645 137.262 122.11 135.532 121.036C133.801 119.963 132.442 118.493 131.456 116.624C130.487 114.74 130.003 112.617 130.003 110.265C130.003 107.912 130.487 105.799 131.456 103.93C132.443 102.044 133.801 100.565 135.532 99.4915C137.262 98.4178 139.201 97.8824 141.347 97.8824C142.937 97.8824 144.408 98.1521 145.759 98.6875C147.109 99.2229 148.259 99.9946 149.212 100.997C150.181 101.985 150.907 103.136 151.392 104.45H158.817C158.262 101.907 157.164 99.6581 155.52 97.7016C153.893 95.7283 151.851 94.1973 149.394 93.1068C146.937 92.0167 144.236 91.4716 141.295 91.4716C137.815 91.4716 134.666 92.2921 131.846 93.9371C129.024 95.5629 126.809 97.8143 125.2 100.686C123.591 103.541 122.786 106.734 122.786 110.265C122.786 113.795 123.591 116.998 125.2 119.87C126.81 122.725 129.024 124.973 131.846 126.618Z" fill="white"/>
<path d="M92.1563 157.564H130.906V164.83H92.1563V157.564Z" fill="white"/>
<linearGradient id="linearGradient1" x1="55.8034" y1="209.821" x2="220.522" y2="171.629" gradientUnits="userSpaceOnUse">
<stop offset="0.1" stop-color="#00D886"/>
<stop offset="0.59" stop-color="#F0EB18"/>
</linearGradient>
<linearGradient id="linearGradient2" x1="196.357" y1="210.251" x2="40.6707" y2="68.7172" gradientUnits="userSpaceOnUse">
<stop offset="0.3" stop-color="#F0EB18"/>
<stop offset="0.7" stop-color="#00C4F4"/>
</linearGradient>
</svg>