<svg width="256" height="256" title="Qt Widgets" viewBox="0 0 256 256" fill="none" xmlns="http://www.w3.org/2000/svg" id="qtwidgets">
<style>
#qtwidgets {
    rect {fill: #15191C}

    @media (prefers-color-scheme: light) {
        rect {fill: #F4F2ED}
    }
}
</style>
<rect width="256" height="256" rx="40" fill="#15191C"/>
<path d="M106.221 93.7988C98.7679 93.7988 93.6539 96.254 90.8789 101.164C88.1039 106.075 86.7164 113.916 86.7164 124.687C86.7164 135.458 88.0643 143.154 90.76 147.787C93.4557 152.42 98.6093 154.73 106.221 154.73C113.832 154.73 118.959 152.46 121.629 147.906C124.285 143.352 125.606 135.656 125.606 124.806C125.606 113.955 124.232 106.075 121.51 101.164C118.774 96.254 113.674 93.7988 106.221 93.7988Z" fill="#40CD52"/>
<path d="M57.1429 62L36 83.12V194H199.857L221 172.88V62H57.1429ZM136.31 177.196L124.06 182.899L113.475 165.554C111.969 166.029 109.551 166.267 106.221 166.267C93.8521 166.267 85.2364 162.94 80.3471 156.288C75.4711 149.635 73.0396 139.114 73.0396 124.74C73.0396 110.365 75.5107 99.6992 80.4661 92.7164C85.4214 85.7468 93.9975 82.262 106.208 82.262C118.418 82.262 126.98 85.7336 131.896 92.6636C136.812 99.5936 139.27 110.272 139.27 124.687C139.27 134.191 138.252 141.873 136.244 147.734C134.222 153.595 130.905 158.07 126.306 161.158L136.296 177.196H136.31ZM170.971 166.267C164.231 166.267 159.606 164.722 157.109 161.634C154.611 158.545 153.369 152.724 153.369 144.17V116.608H145.758V105.56H153.369V88.334H166.214V105.56H182.626V116.608H166.214V142.744C166.214 147.576 166.57 150.783 167.284 152.367C167.998 153.951 169.821 154.743 172.755 154.743L182.507 154.387L183.101 164.722C177.789 165.752 173.746 166.267 170.971 166.267Z" fill="#40CD52"/>
</svg>