<svg width="256" height="256" title="Quarkus" viewBox="0 0 256 256" fill="none" xmlns="http://www.w3.org/2000/svg" id="quarkus">
<style>
#quarkus {
    rect {fill: #15191C}
    path.quarkus {fill: #FFFFFF}

    @media (prefers-color-scheme: light) {
        rect {fill: #F4F2ED}
        path.quarkus {fill: #091313}
    }
}
</style>
<rect width="256" height="256" rx="40" fill="#15191C"/>
<path d="M183.644 46C198.737 46.0521 210.957 58.2786 211 73.3706V183.629C210.957 198.728 198.727 210.957 183.627 211H167.23L159.714 192.75H183.644C188.654 192.685 192.7 188.639 192.765 183.629V73.3706C192.7 68.3606 188.654 64.315 183.644 64.2499H73.3734C68.3629 64.315 64.3169 68.3606 64.2518 73.3706V183.629C64.3169 188.639 68.3629 192.685 73.3734 192.75H113.726L128.509 161.497L148.892 211H73.3734C58.2732 210.957 46.0427 198.728 46 183.629V73.3706C46.0427 58.2719 58.2732 46.0427 73.3734 46H183.644ZM155.295 136.05V165.38L129.889 150.719L155.295 136.05ZM101.722 106.721V136.05L76.3162 121.381L101.722 106.721ZM153.914 74.9928V104.322L128.509 89.6531L153.914 74.9928Z" fill="#4695EB"/>
<path d="M101.722 136.05L127.128 150.719L101.722 165.38L101.722 136.05ZM155.295 106.721L180.701 121.381L155.295 136.05L155.295 106.721ZM103.103 74.9928L128.509 89.6531L103.103 104.322V74.9928Z" fill="#FF004A"/>
<path d="M101.722 106.721L127.128 121.381V150.719L101.722 136.05V106.721ZM155.295 106.721L155.295 136.05L129.889 150.719L129.889 121.381L155.295 106.721ZM128.509 89.6531L153.914 104.322L128.509 118.991L103.103 104.322L128.509 89.6531Z" class="quarkus" fill="#FFFFFF"/>
</svg>