<svg width="256" height="256" title="Quasar" viewBox="0 0 256 256" fill="none" xmlns="http://www.w3.org/2000/svg" id="quasar">
<style>
#quasar {
    rect {fill: #15191C}
    path.q {fill: #F4F2ED}

    @media (prefers-color-scheme: light) {
        rect {fill: #F4F2ED}
        path.q {fill: #15191C}
    }
}
</style>
<rect width="256" height="256" rx="40" fill="#15191C"/>
<path d="M141.205 128.5C141.205 131.87 139.867 135.101 137.484 137.484C135.101 139.867 131.87 141.205 128.5 141.205C125.13 141.205 121.899 139.867 119.516 137.484C117.133 135.101 115.795 131.87 115.795 128.5C115.795 125.13 117.133 121.899 119.516 119.516C121.899 117.133 125.13 115.795 128.5 115.795C131.87 115.795 135.101 117.133 137.484 119.516C139.867 121.899 141.205 125.13 141.205 128.5Z" fill="white"/>
<path d="M184.887 95.9315C182.126 91.1763 178.772 86.7918 174.904 82.8836L160.229 91.3596C155.699 87.4884 150.499 84.4768 144.887 82.4726C139.976 87.3842 135.961 93.1152 133.021 99.4075C149.373 98.2945 166.257 104.202 181.925 116.462L191.154 111.137C189.733 105.829 187.61 100.709 184.887 95.9315Z" class="q" fill="#F4F2ED"/>
<path d="M128.5 193.62C133.997 193.603 139.459 192.901 144.801 191.497V174.545C150.419 172.565 155.625 169.57 160.161 165.709C158.351 159.003 155.397 152.66 151.428 146.959C144.219 161.685 130.658 173.329 112.216 180.795V191.462C117.532 192.863 123.003 193.588 128.5 193.62Z" class="q" fill="#F4F2ED"/>
<path d="M72.113 95.9486C69.3693 100.714 67.2514 105.813 65.8116 111.12L80.4863 119.596C79.3962 125.446 79.3846 131.447 80.4521 137.301C87.1615 139.095 94.1316 139.71 101.051 139.116C91.9075 125.521 88.5856 107.935 91.3596 88.2432L82.1301 82.9178C78.2494 86.8167 74.883 91.1959 72.113 95.9486Z" class="q" fill="#F4F2ED"/>
<path d="M184.887 161.051C187.627 156.291 189.75 151.188 191.188 145.88L176.531 137.404C177.627 131.497 177.627 125.486 176.565 119.699C169.664 117.884 162.764 117.284 155.966 117.884C165.11 131.479 168.432 149.065 165.658 168.757L174.887 174.082C178.764 170.184 182.124 165.805 184.887 161.051Z" fill="#00B4FF"/>
<path d="M72.113 161.051C74.8737 165.807 78.2283 170.191 82.0959 174.099L96.7706 165.623C101.301 169.494 106.501 172.506 112.113 174.51C117.024 169.599 121.039 163.868 123.979 157.575C107.627 158.688 90.7432 152.781 75.0753 140.521L65.8288 145.846C67.2671 151.171 69.3904 156.291 72.113 161.051Z" fill="#00B4FF"/>
<path d="M128.5 63.3801C123.003 63.3973 117.541 64.0993 112.199 65.5034V82.4555C106.581 84.4352 101.375 87.4301 96.839 91.2911C98.7226 98.1747 101.668 104.459 105.572 110.041C112.781 95.3151 126.342 83.6712 144.784 76.2055V65.5377C139.493 64.1336 133.997 63.4144 128.5 63.3801Z" fill="#00B4FF"/>
<path d="M128.5 52.1986C170.572 52.1986 204.801 86.4281 204.801 128.5C204.801 170.572 170.572 204.801 128.5 204.801C86.4281 204.801 52.1986 170.572 52.1986 128.5C52.1986 86.4281 86.4281 52.1986 128.5 52.1986ZM128.5 41C105.294 41 83.0376 50.2187 66.6282 66.6282C50.2187 83.0376 41 105.294 41 128.5C41 151.706 50.2187 173.962 66.6282 190.372C83.0376 206.781 105.294 216 128.5 216C151.706 216 173.962 206.781 190.372 190.372C206.781 173.962 216 151.706 216 128.5C216 105.294 206.781 83.0376 190.372 66.6282C173.962 50.2187 151.706 41 128.5 41Z" fill="#00B4FF"/>
</svg>