<svg width="256" height="256" title="Qwik" viewBox="0 0 256 256" fill="none" xmlns="http://www.w3.org/2000/svg" id="qwik">
<style>
#qwik {
    rect {fill: #15191C}

    @media (prefers-color-scheme: light) {
        rect {fill: #F4F2ED}
    }
}
</style>
<rect width="256" height="256" rx="40" fill="#15191C"/>
<path d="M184.72 207.111L156.151 178.703L155.714 178.765V178.454L94.9568 118.461L109.928 104.007L101.132 53.5461L59.4008 105.254C52.2896 112.418 50.9796 124.068 56.0947 132.665L82.1691 175.9C86.1614 182.565 93.3973 186.552 101.195 186.49L114.107 186.365L184.72 207.111Z" fill="#18B6F6"/>
<path d="M200.313 104.256L194.574 93.6658L191.579 88.2459L190.394 86.1277L190.27 86.2524L174.55 59.0281C170.62 52.1753 163.26 47.939 155.275 48.0007L141.489 48.3751L100.381 48.4997C92.5839 48.562 85.4728 52.6737 81.5428 59.3396L56.5288 108.929L101.255 53.4212L159.891 117.837L149.473 128.366L155.711 178.765L155.774 178.64V178.765H155.649L155.774 178.889L160.639 183.624L184.281 206.737C185.279 207.671 186.901 206.55 186.215 205.366L171.618 176.647L197.069 129.612L197.88 128.677C198.192 128.303 198.503 127.93 198.753 127.556C203.744 120.765 204.43 111.67 200.313 104.256Z" fill="#AC7EF4"/>
<path d="M160.078 117.588L101.254 53.4837L109.613 103.696L94.6417 118.211L155.586 178.703L150.097 128.49L160.078 117.588Z" fill="white"/>
</svg>