<svg width="256" height="256" title="R" viewBox="0 0 256 256" fill="none" xmlns="http://www.w3.org/2000/svg" id="r">
<style>
#r {
    rect {fill: #15191C}

    @media (prefers-color-scheme: light) {
        rect {fill: #F4F2ED}
    }
}
</style>
<rect width="256" height="256" rx="40" fill="#15191C"/>
<path fill-rule="evenodd" clip-rule="evenodd" d="M128.5 171.808C85.6981 171.808 51 148.57 51 119.904C51 91.2382 85.6981 68 128.5 68C171.302 68 206 91.2382 206 119.904C206 148.57 171.302 171.808 128.5 171.808ZM140.363 88.2927C107.829 88.2927 81.456 104.179 81.456 123.776C81.456 143.373 107.829 159.26 140.363 159.26C172.896 159.26 196.905 148.399 196.905 123.776C196.905 99.1617 172.896 88.2927 140.363 88.2927Z" fill="url(#linearGradient)"/>
<path fill-rule="evenodd" clip-rule="evenodd" d="M169.028 148.392C169.028 148.392 173.719 149.807 176.444 151.186C177.39 151.665 179.026 152.619 180.206 153.873C181.362 155.101 181.925 156.345 181.925 156.345L200.411 187.513L170.533 187.526L156.561 161.289C156.561 161.289 153.7 156.373 151.94 154.948C150.471 153.759 149.845 153.336 148.393 153.336C147.382 153.336 141.294 153.336 141.294 153.336L141.3 187.507L114.861 187.518V100.229H167.954C167.954 100.229 192.136 100.665 192.136 123.672C192.136 146.679 169.028 148.392 169.028 148.392ZM157.529 119.164L141.523 119.153L141.515 133.996L157.529 133.99C157.529 133.99 164.944 133.967 164.944 126.44C164.944 118.762 157.529 119.164 157.529 119.164Z" fill="#276DC3"/>
<linearGradient id="linearGradient" x1="51" y1="68" x2="166.6" y2="217.909" gradientUnits="userSpaceOnUse">
<stop stop-color="#CBCED0"/>
<stop offset="1" stop-color="#84838B"/>
</linearGradient>
</svg>