<svg width="256" height="256" title="RabbitMQ" viewBox="0 0 256 256" fill="none" xmlns="http://www.w3.org/2000/svg" id="rabbitmq">
<style>
#rabbitmq {
    rect {fill: #15191C}

    @media (prefers-color-scheme: light) {
        rect {fill: #F4F2ED}
    }
}
</style>
<rect width="256" height="256" rx="40" fill="#15191C"/>
<path d="M192.386 114.02H147.59C146.852 114.025 146.12 113.883 145.437 113.603C144.754 113.322 144.134 112.909 143.611 112.387C143.089 111.865 142.676 111.244 142.396 110.561C142.115 109.878 141.973 109.146 141.978 108.408V63.6127C141.978 62.8773 141.833 62.1491 141.55 61.4701C141.268 60.7911 140.854 60.1747 140.332 59.6563C139.81 59.138 139.191 58.7279 138.511 58.4496C137.83 58.1714 137.101 58.0306 136.365 58.0352H119.598C118.862 58.0306 118.133 58.1714 117.453 58.4496C116.772 58.7279 116.153 59.138 115.631 59.6563C115.11 60.1747 114.696 60.7911 114.413 61.4701C114.131 62.1491 113.985 62.8773 113.985 63.6127V108.408C113.99 109.146 113.848 109.878 113.568 110.561C113.287 111.244 112.874 111.865 112.352 112.387C111.83 112.909 111.209 113.322 110.526 113.603C109.843 113.883 109.111 114.025 108.373 114.02H91.6053C90.8669 114.025 90.135 113.883 89.4519 113.603C88.7689 113.322 88.1483 112.909 87.6262 112.387C87.1041 111.865 86.6909 111.244 86.4105 110.561C86.1301 109.878 85.9881 109.146 85.9927 108.408V63.6127C85.9974 62.8743 85.8554 62.1424 85.575 61.4593C85.2946 60.7763 84.8813 60.1557 84.3592 59.6336C83.8371 59.1115 83.2165 58.6983 82.5335 58.4179C81.8504 58.1374 81.1185 57.9955 80.3802 58.0001H63.5776C62.8422 58.0001 62.114 58.1455 61.435 58.428C60.7561 58.7105 60.1396 59.1245 59.6213 59.6461C59.1029 60.1677 58.6928 60.7867 58.4146 61.4675C58.1363 62.1482 57.9955 62.8773 58.0001 63.6127V192.421C57.9955 193.159 58.1374 193.891 58.4179 194.574C58.6983 195.257 59.1115 195.878 59.6336 196.4C60.1557 196.922 60.7763 197.335 61.4593 197.616C62.1424 197.896 62.8743 198.038 63.6127 198.033H192.386C193.124 198.038 193.856 197.896 194.539 197.616C195.222 197.335 195.843 196.922 196.365 196.4C196.887 195.878 197.3 195.257 197.58 194.574C197.861 193.891 198.003 193.159 197.998 192.421V119.738C198.017 118.991 197.886 118.248 197.611 117.552C197.337 116.857 196.926 116.224 196.403 115.691C195.879 115.157 195.254 114.735 194.564 114.448C193.874 114.161 193.133 114.015 192.386 114.02ZM169.865 161.587C169.87 162.691 169.656 163.785 169.237 164.806C168.818 165.827 168.201 166.755 167.422 167.538C166.643 168.32 165.717 168.941 164.698 169.364C163.679 169.788 162.585 170.006 161.482 170.006H150.256C149.153 170.006 148.059 169.788 147.04 169.364C146.021 168.941 145.095 168.32 144.316 167.538C143.537 166.755 142.92 165.827 142.501 164.806C142.082 163.785 141.868 162.691 141.873 161.587V150.397C141.868 149.293 142.082 148.199 142.501 147.178C142.92 146.156 143.537 145.228 144.316 144.446C145.095 143.664 146.021 143.043 147.04 142.619C148.059 142.196 149.153 141.978 150.256 141.978H161.482C162.585 141.978 163.679 142.196 164.698 142.619C165.717 143.043 166.643 143.664 167.422 144.446C168.201 145.228 168.818 146.156 169.237 147.178C169.656 148.199 169.87 149.293 169.865 150.397V161.587Z" fill="#FF6600"/>
</svg>