<svg width="256" height="256" title="Raspberry Pi" viewBox="0 0 256 256" fill="none" xmlns="http://www.w3.org/2000/svg" id="raspberrypi">
<style>
#raspberrypi {
    rect {fill: #15191C}

    @media (prefers-color-scheme: light) {
        rect {fill: #F4F2ED}
    }
}
</style>
<rect width="256" height="256" rx="40" fill="#15191C"/>
<path d="M97.5439 42.0024C96.6721 42.0295 95.7332 42.3511 94.6683 43.192C92.0601 42.1856 89.5308 41.8364 87.2689 43.8845C83.7761 43.4318 82.6412 44.3662 81.7812 45.4578C81.0143 45.442 76.0437 44.6697 73.7646 48.0699C68.0365 47.3921 66.2258 51.4396 68.2769 55.2131C67.107 57.0243 65.8948 58.8133 68.6306 62.2662C67.6627 64.1892 68.2626 66.2753 70.5427 68.8002C69.9408 71.5034 71.1239 73.4106 73.2449 74.8972C72.8479 78.5964 76.6373 80.747 77.7687 81.5139C78.2032 83.6694 79.1085 85.7032 83.4367 86.8282C84.1504 90.0403 86.7517 90.5954 89.2707 91.2697C80.9458 96.1087 73.806 102.476 73.8547 118.098L72.6351 120.274C63.0896 126.079 54.5012 144.737 67.9311 159.902C68.8084 164.649 70.2797 168.059 71.5894 171.833C73.5489 187.04 86.3355 194.16 89.7076 195.002C94.6501 198.765 99.9132 202.337 107.036 204.839C113.75 211.765 121.024 214.403 128.338 214.399C128.445 214.399 128.554 214.4 128.662 214.399C135.976 214.403 143.249 211.764 149.964 204.839C157.086 202.337 162.35 198.765 167.292 195.001C170.665 194.159 183.452 187.039 185.41 171.831C186.72 168.058 188.192 164.648 189.069 159.901C202.499 144.734 193.911 126.075 184.364 120.27L183.143 118.095C183.191 102.474 176.052 96.1063 167.727 91.2663C170.246 90.592 172.847 90.0373 173.561 86.8248C177.888 85.6997 178.795 83.6659 179.229 81.5104C180.36 80.744 184.15 78.5934 183.753 74.8938C185.874 73.4072 187.057 71.4999 186.455 68.7967C188.735 66.2723 189.335 64.1863 188.367 62.2628C191.104 58.8118 189.889 57.0223 188.722 55.2112C190.771 51.4371 188.962 47.3901 183.232 48.0679C180.953 44.6677 175.984 45.44 175.215 45.4558C174.355 44.3648 173.221 43.4299 169.729 43.8825C167.466 41.8349 164.937 42.1842 162.329 43.19C159.231 40.7459 157.181 42.7053 154.84 43.4461C151.09 42.2206 150.232 43.8993 148.389 44.583C144.299 43.719 143.056 45.6001 141.095 47.5867L138.815 47.5414C132.646 51.177 129.581 58.5798 128.495 62.3849C127.407 58.5789 124.35 51.176 118.182 47.5414L115.901 47.5867C113.938 45.6006 112.695 43.719 108.605 44.583C106.763 43.9003 105.908 42.2216 102.155 43.4471C100.619 42.9609 99.2053 41.9502 97.541 42.0019L97.5439 42.0024Z" fill="black"/>
<path fill-rule="evenodd" clip-rule="evenodd" d="M148.505 166.944V166.752C148.447 156.767 139.625 148.719 128.797 148.773C117.971 148.823 109.238 156.96 109.297 166.944V167.136C109.351 177.121 118.178 185.169 129.004 185.115C139.832 185.066 148.56 176.929 148.505 166.944ZM117.557 115.303C109.435 109.978 97.7262 113.417 91.4119 122.973C85.0922 132.533 86.5552 144.596 94.6826 149.916C102.805 155.241 114.509 151.808 120.828 142.247C127.143 132.685 125.68 120.623 117.557 115.303ZM139.482 114.337C131.359 119.662 129.891 131.725 136.211 141.282C142.525 150.843 154.234 154.275 162.357 148.956C170.479 143.631 171.942 131.568 165.627 122.012C159.308 112.451 147.604 109.018 139.482 114.337ZM76.9555 124.002C62.405 132.312 64.9318 150.803 72.7829 157.117C79.9203 160.285 85.7276 121.652 76.9555 124.002ZM178.311 123.519C169.538 121.17 175.35 159.807 182.483 156.635C190.334 150.325 192.862 131.829 178.311 123.519ZM148.511 94.7532C142.935 95.6891 175.233 123.894 175.73 117.599C176.242 101.186 163.647 92.1967 148.511 94.7532ZM106.691 94.2705C91.5552 91.714 78.9652 100.708 79.472 117.121C79.9695 123.41 112.267 95.2063 106.691 94.2705ZM128.433 90.4432C119.399 90.2068 110.73 97.1471 110.711 101.171C110.686 106.063 117.853 111.073 128.497 111.196C139.364 111.274 146.299 107.191 146.333 102.142C146.372 96.423 136.448 90.354 128.433 90.4432ZM128.985 190.73C121.158 190.538 109.154 193.868 109.302 198.134C109.178 201.045 118.725 209.443 128.463 209.024C137.866 209.187 147.58 200.799 147.451 197.089C147.432 193.267 136.861 190.391 128.985 190.73ZM99.894 168.087C93.4605 160.62 85.1026 156.167 79.6887 159.463C76.0679 162.216 75.4083 171.589 80.5606 180.8C88.2004 191.78 98.9532 192.879 103.381 190.209C108.061 186.711 105.505 174.84 99.894 168.087ZM156.953 165.939C150.885 173.047 147.511 186.012 151.934 190.184C156.166 193.43 167.524 192.977 175.917 181.332C182.01 173.51 179.967 160.452 176.489 156.984C171.317 152.985 163.898 158.103 156.953 165.939Z" fill="#BC1142"/>
<path fill-rule="evenodd" clip-rule="evenodd" d="M85.2577 57.9986C97.9912 62.3234 109.477 68.0919 119.102 76.0267C130.401 70.6823 122.609 57.2056 117.097 51.8563C116.817 53.2699 116.502 54.1615 116.137 54.4275C114.344 52.472 112.876 50.4721 110.566 48.5905C110.556 49.6939 111.113 50.8958 109.738 51.7725C108.497 50.0781 106.822 48.5659 104.596 47.2852C105.67 49.1619 104.783 49.7284 104.207 50.5066C102.508 49.0289 100.892 47.5315 97.7592 46.369C98.6162 47.4281 99.8132 48.4625 98.5424 49.6791C96.7937 48.5708 95.0357 47.4625 90.878 46.6744C91.8134 47.7335 93.7546 48.7925 92.5773 49.8564C90.38 49.0043 87.9516 48.3836 85.2622 48.0241C86.5478 49.1028 87.6216 50.152 86.5675 50.9844C84.2174 50.2505 80.9817 49.2653 77.8145 50.1175L79.8193 52.1617C80.0409 52.4375 75.13 52.3735 71.8938 52.4227C73.076 54.0925 74.2779 55.6983 74.9822 58.5651C74.6621 58.8951 73.0563 58.7079 71.5441 58.5651C73.0957 61.8801 75.7901 62.7174 76.4205 64.136C75.4699 64.865 74.1547 64.6779 72.7164 64.1804C73.8346 66.5201 76.1792 68.1209 78.0312 70.0173C77.5633 70.3528 76.7456 70.5547 74.8098 70.3227C76.5191 72.1649 78.5879 73.8544 81.0359 75.3715C80.6025 75.8838 79.11 75.8592 77.7259 75.8942C79.9473 78.1004 82.7993 79.2431 85.4789 80.6864C84.144 81.6124 83.1885 81.3957 82.1688 81.3809C84.0598 82.962 87.2817 83.7846 90.2667 84.7353C89.7007 85.6318 89.1338 85.8781 87.9166 86.1293C91.0789 87.9074 95.6111 87.0947 96.8868 88.0015C96.5814 88.8931 95.7091 89.4738 94.6653 89.9615C99.7585 90.2619 113.683 89.7743 116.353 79.0752C111.142 73.2584 101.625 66.4363 85.2577 57.9986ZM172.102 57.9986C155.74 66.4363 146.223 73.2584 141.012 79.0757C143.681 89.7748 157.606 90.2624 162.699 89.962C161.655 89.4743 160.783 88.8931 160.478 88.002C161.753 87.0952 166.285 87.9084 169.448 86.1298C168.231 85.8786 167.664 85.6323 167.098 84.7358C170.083 83.7851 173.305 82.9625 175.196 81.3814C174.176 81.3962 173.221 81.6129 171.885 80.6869C174.565 79.2431 177.417 78.1009 179.639 75.8947C178.254 75.8602 176.762 75.8843 176.328 75.372C178.777 73.8549 180.845 72.1654 182.555 70.3232C180.619 70.5552 179.801 70.3532 179.334 70.0178C181.186 68.1209 183.53 66.5206 184.648 64.1809C183.21 64.6783 181.895 64.8655 180.944 64.1365C181.574 62.7179 184.269 61.8806 185.82 58.5656C184.308 58.7084 182.702 58.8956 182.382 58.5656C183.087 55.6988 184.293 54.0881 185.475 52.4232C182.234 52.374 177.323 52.438 177.545 52.1622L179.549 50.1131C176.387 49.2609 173.146 50.251 170.796 50.9849C169.742 50.1525 170.816 49.0984 172.101 48.0246C169.412 48.3841 166.983 48.9999 164.786 49.852C163.614 48.793 165.55 47.7339 166.486 46.6749C162.328 47.463 160.569 48.5713 158.821 49.6796C157.55 48.4629 158.747 47.4286 159.604 46.3695C156.472 47.532 154.855 49.0294 153.157 50.5071C152.58 49.7289 151.693 49.1575 152.767 47.2857C150.54 48.5664 148.866 50.0786 147.629 51.7681C146.251 50.8913 146.807 49.6944 146.802 48.591C144.487 50.4726 143.019 52.4725 141.226 54.428C140.866 54.162 140.547 53.2704 140.266 51.8568C134.755 57.2061 126.962 70.6833 138.266 76.0272C147.883 68.0919 159.369 62.3234 172.102 57.9986Z" fill="#75A928"/>
</svg>