<svg width="256" height="256" viewBox="0 0 256 256" fill="none" xmlns="http://www.w3.org/2000/svg">
<rect width="256" height="256" rx="25" stroke="black" stroke-width="12" fill="#F4F2ED"/>
<path d="M159 30C180.45 30 201.9 30 224 30C224 51.45 224 72.9 224 95C218.965 90.6844 214.234 86.5647 209.581 81.9155C209.026 81.363 208.472 80.8106 207.9 80.2414C206.101 78.4469 204.305 76.6482 202.51 74.8491C201.25 73.59 199.99 72.3312 198.73 71.0725C196.107 68.4511 193.486 65.8276 190.867 63.2026C187.502 59.8311 184.132 56.465 180.76 53.1004C178.166 50.5103 175.574 47.9173 172.983 45.3234C171.741 44.08 170.497 42.8374 169.253 41.5957C167.524 39.8702 165.8 38.1411 164.076 36.4108C163.093 35.4271 162.111 34.4434 161.098 33.4298C159 31.1818 159 31.1818 159 30Z" fill="#DD1022"/>
<path d="M197.214 183C198.982 183 200.75 183 202.571 183C202.571 186.536 202.571 190.071 202.571 193.714C209.643 193.714 216.714 193.714 224 193.714C224 202.554 224 211.393 224 220.5C215.161 220.5 206.321 220.5 197.214 220.5C197.214 208.125 197.214 195.75 197.214 183Z" fill="black"/>
<path d="M106.143 193.714C114.982 193.714 123.821 193.714 132.929 193.714C132.929 202.554 132.929 211.393 132.929 220.5C124.089 220.5 115.25 220.5 106.143 220.5C106.143 215.196 106.143 209.893 106.143 204.429C113.214 204.429 120.286 204.429 127.571 204.429C127.571 202.661 127.571 200.893 127.571 199.071C120.5 199.071 113.429 199.071 106.143 199.071C106.143 197.304 106.143 195.536 106.143 193.714Z" fill="black"/>
<path d="M138.286 193.714C140.054 193.714 141.821 193.714 143.643 193.714C143.643 200.786 143.643 207.857 143.643 215.143C148.946 215.143 154.25 215.143 159.714 215.143C159.714 208.071 159.714 201 159.714 193.714C161.482 193.714 163.25 193.714 165.071 193.714C165.071 206.089 165.071 218.464 165.071 231.214C156.232 231.214 147.393 231.214 138.286 231.214C138.286 229.446 138.286 227.679 138.286 225.857C145.357 225.857 152.429 225.857 159.714 225.857C159.714 224.089 159.714 222.321 159.714 220.5C152.643 220.5 145.571 220.5 138.286 220.5C138.286 211.661 138.286 202.821 138.286 193.714Z" fill="black"/>
<path d="M202.571 199.071C207.875 199.071 213.179 199.071 218.643 199.071C218.643 204.375 218.643 209.679 218.643 215.143C213.339 215.143 208.036 215.143 202.571 215.143C202.571 209.839 202.571 204.536 202.571 199.071Z" fill="#F4F2ED"/>
<path d="M74 193.714C82.8393 193.714 91.6786 193.714 100.786 193.714C100.786 195.482 100.786 197.25 100.786 199.071C93.7143 199.071 86.6429 199.071 79.3571 199.071C79.3571 206.143 79.3571 213.214 79.3571 220.5C77.5893 220.5 75.8214 220.5 74 220.5C74 211.661 74 202.821 74 193.714Z" fill="black"/>
<path d="M170.429 183C172.196 183 173.964 183 175.786 183C175.786 193.607 175.786 204.214 175.786 215.143C177.554 215.143 179.321 215.143 181.143 215.143C181.143 216.911 181.143 218.679 181.143 220.5C177.607 220.5 174.071 220.5 170.429 220.5C170.429 208.125 170.429 195.75 170.429 183Z" fill="black"/>
<path d="M186.5 193.714C188.268 193.714 190.036 193.714 191.857 193.714C191.857 202.554 191.857 211.393 191.857 220.5C190.089 220.5 188.321 220.5 186.5 220.5C186.5 211.661 186.5 202.821 186.5 193.714Z" fill="black"/>
<path d="M111.5 209.786C116.804 209.786 122.107 209.786 127.571 209.786C127.571 211.554 127.571 213.321 127.571 215.143C122.268 215.143 116.964 215.143 111.5 215.143C111.5 213.375 111.5 211.607 111.5 209.786Z" fill="#F4F2ED"/>
<path d="M84.7143 194.786C90.0179 194.786 95.3214 194.786 100.786 194.786C100.786 196.2 100.786 197.614 100.786 199.071C95.1286 199.071 89.4714 199.071 83.6429 199.071C83.9964 197.657 84.35 196.243 84.7143 194.786Z" fill="black"/>
<path d="M186.5 183C188.268 183 190.036 183 191.857 183C191.857 184.768 191.857 186.536 191.857 188.357C190.089 188.357 188.321 188.357 186.5 188.357C186.5 186.589 186.5 184.821 186.5 183Z" fill="black"/>
</svg>