<svg width="256" height="256" title="React Query" viewBox="0 0 256 256" fill="none" xmlns="http://www.w3.org/2000/svg" id="reactquery">
<style>
#reactquery {
    rect {fill: #15191C}

    @media (prefers-color-scheme: light) {
        rect {fill: #F4F2ED}
    }
}
</style>
<rect width="256" height="256" rx="40" fill="#15191C"/>
<path d="M148.994 147.403L145.638 153.232C145.141 154.095 144.425 154.811 143.563 155.31C142.702 155.808 141.724 156.07 140.728 156.07H115.013C114.017 156.07 113.039 155.808 112.177 155.31C111.315 154.811 110.6 154.095 110.103 153.232L106.746 147.403H148.994ZM158.391 131.086L152.473 141.363H103.268L97.3493 131.086H158.391ZM152.69 115.13L158.401 125.046H97.3397L103.05 115.13H152.69ZM140.727 100.045C141.723 100.045 142.701 100.307 143.563 100.806C144.425 101.304 145.141 102.02 145.638 102.883L149.212 109.089H106.529L110.104 102.883C110.601 102.02 111.316 101.304 112.178 100.806C113.04 100.308 114.018 100.045 115.013 100.045H140.727Z" fill="#00435B"/>
<path d="M77.588 97.3404C74.7395 83.5277 74.1277 72.9334 75.9693 65.2409C77.0644 60.6656 79.0659 56.9332 82.1107 54.2398C85.3249 51.3967 89.3882 50.0015 93.9546 50.0015C101.486 50.0015 109.405 53.4366 117.867 59.9615C121.319 62.6234 124.901 65.8315 128.621 69.5879C128.918 69.2071 129.252 68.8475 129.625 68.5146C140.143 59.1425 148.998 53.3183 156.572 51.0734C161.076 49.7377 165.304 49.6105 169.154 50.9066C173.219 52.2738 176.457 55.1018 178.742 59.0619C182.513 65.5977 183.507 74.1857 182.101 84.7903C181.528 89.1127 180.549 93.8206 179.165 98.9222C179.687 98.9851 180.21 99.1013 180.729 99.2729C194.073 103.696 203.523 108.451 209.244 113.886C212.648 117.119 214.871 120.719 215.675 124.705C216.522 128.911 215.695 133.129 213.413 137.087C209.649 143.614 202.729 148.76 192.87 152.837C188.912 154.474 184.432 155.957 179.428 157.291C179.656 157.806 179.834 158.354 179.952 158.928C182.801 172.741 183.412 183.335 181.571 191.028C180.476 195.603 178.473 199.335 175.429 202.029C172.215 204.872 168.151 206.267 163.585 206.267C156.053 206.267 148.135 202.832 139.673 196.307C136.184 193.616 132.563 190.369 128.799 186.56C128.403 187.179 127.924 187.741 127.375 188.23C116.857 197.603 108.002 203.426 100.428 205.671C95.924 207.007 91.696 207.134 87.846 205.838C83.7814 204.471 80.5432 201.643 78.2579 197.683C74.4872 191.147 73.4933 182.559 74.8987 171.955C75.4928 167.476 76.523 162.583 77.9872 157.268C77.4036 157.208 76.8282 157.085 76.2714 156.901C62.927 152.478 53.477 147.723 47.756 142.287C44.3517 139.054 42.1293 135.454 41.3254 131.469C40.4778 127.263 41.3049 123.044 43.5867 119.086C47.3506 112.56 54.2713 107.412 64.1301 103.336C68.2064 101.65 72.835 100.128 78.0207 98.7636C77.833 98.3035 77.6881 97.8271 77.588 97.3404Z" fill="#002B3B"/>
<path d="M170.641 160.286C171.278 160.173 171.934 160.31 172.473 160.668C173.012 161.025 173.393 161.577 173.537 162.207L173.552 162.284L173.694 163.019C178.281 187.133 175.049 199.191 164 199.191C153.191 199.191 139.429 188.902 122.717 168.325C122.42 167.959 122.232 167.517 122.173 167.05C122.115 166.582 122.188 166.108 122.386 165.68C122.584 165.253 122.898 164.889 123.292 164.631C123.686 164.373 124.144 164.23 124.615 164.22H124.693L125.574 164.226C132.606 164.264 139.443 164.019 146.084 163.49C153.923 162.866 162.109 161.798 170.641 160.286ZM94.7619 142.058L94.8043 142.129L95.2459 142.9C98.7849 149.052 102.471 154.891 106.306 160.418C110.824 166.926 115.903 173.515 121.544 180.184C121.962 180.679 122.174 181.316 122.135 181.963C122.095 182.61 121.808 183.217 121.333 183.658L121.269 183.714L120.702 184.203C102.035 200.197 89.9023 203.39 84.3043 193.782C78.8239 184.378 80.8111 167.277 90.2646 142.48C90.4319 142.041 90.719 141.657 91.0932 141.373C91.4674 141.088 91.9138 140.914 92.3818 140.87C92.8499 140.826 93.3209 140.914 93.7415 141.124C94.1622 141.334 94.5157 141.657 94.7619 142.058ZM180.113 106.474L180.19 106.499L180.893 106.741C203.933 114.756 212.687 123.564 207.154 133.165C201.742 142.555 186.01 149.393 159.958 153.676C159.485 153.754 159.001 153.695 158.561 153.508C158.121 153.32 157.743 153.01 157.472 152.616C157.202 152.221 157.049 151.758 157.033 151.279C157.016 150.801 157.136 150.328 157.378 149.916C161.109 143.568 164.471 137.253 167.461 130.968C170.851 123.842 174.033 116.192 177.007 108.02C177.223 107.426 177.655 106.935 178.216 106.645C178.777 106.354 179.427 106.285 180.037 106.451L180.113 106.474ZM98.7268 102.439C99.0119 102.606 99.2613 102.828 99.4606 103.092C99.6599 103.356 99.8054 103.656 99.8885 103.976C99.9717 104.297 99.991 104.63 99.9453 104.957C99.8996 105.285 99.7898 105.6 99.6223 105.885C95.8898 112.232 92.5293 118.548 89.5393 124.832C86.1486 131.959 82.9665 139.608 79.9929 147.781C79.7721 148.388 79.3267 148.886 78.7486 149.174C78.1705 149.462 77.5039 149.517 76.8866 149.327L76.8101 149.302L76.1073 149.059C53.0668 141.045 44.3134 132.236 49.8464 122.635C55.2577 113.245 70.99 106.408 97.0424 102.125C97.6234 102.029 98.2195 102.14 98.7268 102.439ZM172.696 62.9625C178.176 72.3674 176.189 89.4681 166.735 114.265C166.568 114.704 166.281 115.088 165.907 115.372C165.533 115.657 165.086 115.831 164.618 115.875C164.15 115.919 163.679 115.831 163.258 115.621C162.838 115.411 162.484 115.088 162.238 114.687L162.196 114.615L161.754 113.845C158.215 107.693 154.529 101.853 150.694 96.3266C146.176 89.8188 141.097 83.2303 135.456 76.5612C135.038 76.0663 134.826 75.4289 134.865 74.7818C134.904 74.1347 135.192 73.5277 135.667 73.0872L135.731 73.0304L136.298 72.5417C154.965 56.5476 167.098 53.3546 172.696 62.9625ZM93.9443 57.2394C104.755 57.2394 118.516 67.5275 135.228 88.105C135.525 88.4708 135.713 88.9124 135.772 89.3799C135.83 89.8473 135.756 90.3218 135.559 90.7494C135.361 91.1769 135.047 91.5405 134.653 91.7987C134.259 92.0569 133.801 92.1994 133.33 92.21H133.252L132.371 92.2046C125.339 92.1663 118.502 92.4117 111.861 92.9401C104.022 93.5642 95.8358 94.632 87.3032 96.1441C86.6664 96.2568 86.0107 96.1202 85.4719 95.7626C84.933 95.405 84.5524 94.8538 84.4089 94.2232L84.3925 94.146L84.251 93.4118C79.6641 69.2967 82.8947 57.2394 93.9443 57.2394Z" fill="#FF4154"/>
<path d="M117.081 100.361H138.666C140.217 100.36 141.74 100.77 143.082 101.547C144.424 102.324 145.537 103.442 146.309 104.787L157.147 123.672C157.914 125.007 158.317 126.519 158.317 128.058C158.317 129.598 157.914 131.11 157.147 132.445L146.309 151.33C145.537 152.675 144.424 153.793 143.082 154.57C141.74 155.347 140.217 155.756 138.666 155.756H117.081C113.924 155.756 111.008 154.068 109.437 151.33L98.5996 132.445C97.8335 131.11 97.4303 129.598 97.4303 128.058C97.4303 126.519 97.8335 125.007 98.5996 123.672L109.437 104.787C110.209 103.442 111.323 102.324 112.665 101.547C114.007 100.77 115.53 100.36 117.081 100.361ZM135.376 106.06C138.534 106.06 141.451 107.751 143.022 110.491L150.579 123.676C151.344 125.01 151.746 126.521 151.746 128.058C151.746 129.596 151.344 131.107 150.579 132.441L143.022 145.626C142.25 146.972 141.136 148.091 139.794 148.868C138.451 149.646 136.927 150.056 135.376 150.056H120.371C117.213 150.056 114.295 148.366 112.725 145.626L105.167 132.441C104.402 131.107 104 129.596 104 128.058C104 126.521 104.402 125.01 105.167 123.676L112.725 110.491C113.496 109.145 114.61 108.026 115.952 107.248C117.295 106.471 118.819 106.061 120.37 106.061L135.376 106.06ZM131.83 112.295H123.917C122.366 112.295 120.843 112.704 119.502 113.48C118.16 114.257 117.047 115.373 116.275 116.718L112.281 123.668C111.513 125.004 111.109 126.518 111.109 128.058C111.109 129.599 111.513 131.113 112.281 132.449L116.275 139.4C117.047 140.744 118.16 141.861 119.502 142.637C120.843 143.414 122.366 143.823 123.917 143.823H131.83C134.985 143.823 137.9 142.136 139.472 139.4L143.465 132.449C144.233 131.113 144.637 129.599 144.637 128.058C144.637 126.518 144.233 125.004 143.465 123.668L139.472 116.717C138.699 115.373 137.586 114.256 136.245 113.479C134.903 112.703 133.38 112.295 131.83 112.295ZM128.416 118.262C131.569 118.262 134.481 119.946 136.054 122.678L136.62 123.662C137.39 124.999 137.795 126.515 137.795 128.058C137.795 129.601 137.39 131.117 136.62 132.455L136.054 133.439C135.281 134.781 134.168 135.896 132.827 136.671C131.486 137.447 129.965 137.855 128.416 137.855H127.33C125.782 137.855 124.26 137.447 122.919 136.671C121.578 135.896 120.465 134.781 119.693 133.439L119.126 132.455C118.356 131.117 117.951 129.601 117.951 128.058C117.951 126.515 118.356 124.999 119.126 123.662L119.693 122.678C120.465 121.335 121.578 120.22 122.919 119.445C124.26 118.67 125.782 118.262 127.33 118.262H128.416ZM127.875 124.14C127.186 124.14 126.51 124.321 125.913 124.664C125.317 125.008 124.822 125.503 124.477 126.099C124.133 126.695 123.952 127.37 123.952 128.058C123.952 128.746 124.133 129.422 124.477 130.018C124.821 130.614 125.317 131.109 125.913 131.453C126.509 131.797 127.185 131.978 127.873 131.978C128.562 131.978 129.238 131.797 129.834 131.453C130.43 131.109 130.926 130.614 131.27 130.018C131.614 129.422 131.795 128.746 131.795 128.058C131.795 127.37 131.614 126.695 131.27 126.099C130.926 125.503 130.431 125.009 129.835 124.665C129.239 124.321 128.563 124.14 127.875 124.14ZM96.0813 128.058H103.136Z" fill="#FFD94C"/>
</svg>