<?xml version="1.0" encoding="UTF-8"?>
<!DOCTYPE svg PUBLIC "-//W3C//DTD SVG 1.1//EN" "http://www.w3.org/Graphics/SVG/1.1/DTD/svg11.dtd">
<svg xmlns="http://www.w3.org/2000/svg" version="1.1" width="1067px" height="1067px" style="shape-rendering:geometricPrecision; text-rendering:geometricPrecision; image-rendering:optimizeQuality; fill-rule:evenodd; clip-rule:evenodd" xmlns:xlink="http://www.w3.org/1999/xlink">
<g><path style="opacity:1" fill="#13191d" d="M 88.5,-0.5 C 384.833,-0.5 681.167,-0.5 977.5,-0.5C 1016.63,6.83129 1044.13,28.8313 1060,65.5C 1062.66,73.1627 1064.83,80.8294 1066.5,88.5C 1066.5,384.833 1066.5,681.167 1066.5,977.5C 1059.17,1016.63 1037.17,1044.13 1000.5,1060C 992.837,1062.66 985.171,1064.83 977.5,1066.5C 681.167,1066.5 384.833,1066.5 88.5,1066.5C 49.3715,1059.17 21.8715,1037.17 6,1000.5C 3.33838,992.837 1.17171,985.171 -0.5,977.5C -0.5,681.167 -0.5,384.833 -0.5,88.5C 6.83129,49.3715 28.8313,21.8715 65.5,6C 73.1627,3.33838 80.8294,1.17171 88.5,-0.5 Z"/></g>
<g><path style="opacity:1" fill="#024856" d="M 335.5,148.5 C 344.216,147.132 352.882,147.465 361.5,149.5C 352.848,148.854 344.182,148.521 335.5,148.5 Z"/></g>
<g><path style="opacity:1" fill="#00d6fc" d="M 711.5,412.5 C 708.781,411.087 705.781,410.42 702.5,410.5C 685.321,407.184 667.988,404.518 650.5,402.5C 649.5,402.833 648.5,403.167 647.5,403.5C 658.797,421.256 669.464,439.422 679.5,458C 668.331,463.24 658.664,470.407 650.5,479.5C 638.17,459.654 626.003,439.654 614,419.5C 608.957,411.913 603.79,404.413 598.5,397C 546.193,392.399 493.86,392.399 441.5,397C 411.889,440.549 385.889,486.216 363.5,534C 385.812,581.813 411.812,627.313 441.5,670.5C 493.805,674.257 546.138,674.424 598.5,671C 611.233,651.689 623.566,632.189 635.5,612.5C 636.167,616.167 636.833,619.833 637.5,623.5C 637.5,650.5 637.5,677.5 637.5,704.5C 631.855,705.127 626.189,705.627 620.5,706C 597.82,738.175 573.487,769.009 547.5,798.5C 573.677,825.326 603.177,847.659 636,865.5C 636.333,871.833 636.667,878.167 637,884.5C 639.424,893.442 642.424,902.109 646,910.5C 613.708,897.448 584.208,879.948 557.5,858C 545.595,847.141 533.428,836.641 521,826.5C 493.385,852.452 463.219,874.952 430.5,894C 407.763,906.691 383.43,915.024 357.5,919C 337.154,921.889 318.154,918.222 300.5,908C 298.237,906.383 296.237,904.55 294.5,902.5C 291.769,898.766 288.436,895.766 284.5,893.5C 268.996,873.507 259.829,850.84 257,825.5C 255.083,798.829 255.083,772.162 257,745.5C 260.509,723.764 264.343,702.097 268.5,680.5C 217.426,667.13 171.426,643.963 130.5,611C 116.335,598.514 104.835,584.014 96,567.5C 92.9026,560.121 90.5692,552.455 89,544.5C 88.1772,536.323 88.3439,528.323 89.5,520.5C 90.7682,518.095 91.4349,515.428 91.5,512.5C 92.8626,505.766 95.3626,499.433 99,493.5C 102.791,486.895 107.291,480.895 112.5,475.5C 118.833,469.833 124.833,463.833 130.5,457.5C 148.55,441.623 168.55,428.457 190.5,418C 216.067,406.089 242.401,396.256 269.5,388.5C 263.265,361.091 258.765,333.424 256,305.5C 254.787,282.05 255.621,258.716 258.5,235.5C 260.04,233.162 260.706,230.495 260.5,227.5C 263.512,207.42 271.512,189.754 284.5,174.5C 287.5,172.167 290.167,169.5 292.5,166.5C 304.402,155.077 318.735,149.077 335.5,148.5C 344.182,148.521 352.848,148.854 361.5,149.5C 375.486,152.132 389.152,155.965 402.5,161C 445.949,181.589 484.949,208.756 519.5,242.5C 546.18,217.672 574.846,195.506 605.5,176C 625.293,164.402 646.293,155.736 668.5,150C 719.208,139.456 753.874,158.123 772.5,206C 779.4,225.54 782.9,245.707 783,266.5C 784.753,294.059 783.086,321.392 778,348.5C 775.56,362.197 773.06,375.864 770.5,389.5C 811.611,400.811 850.277,417.645 886.5,440C 892.5,444.667 898.5,449.333 904.5,454C 881.5,454.667 858.5,454.667 835.5,454C 811.807,441.672 786.974,432.172 761,425.5C 760.055,425.905 759.388,426.572 759,427.5C 756.307,436.623 753.474,445.623 750.5,454.5C 737.483,454.832 724.483,454.499 711.5,453.5C 716.447,440.658 720.781,427.658 724.5,414.5C 719.9,414.72 715.567,414.054 711.5,412.5 Z"/></g>
<g><path style="opacity:1" fill="#0095b2" d="M 292.5,166.5 C 290.167,169.5 287.5,172.167 284.5,174.5C 286.167,170.833 288.833,168.167 292.5,166.5 Z"/></g>
<g><path style="opacity:1" fill="#04414e" d="M 702.5,185.5 C 694.799,185.309 687.132,185.642 679.5,186.5C 680.263,185.732 681.263,185.232 682.5,185C 689.346,184.179 696.013,184.346 702.5,185.5 Z"/></g>
<g><path style="opacity:1" fill="#13191d" d="M 326.5,374.5 C 323.572,374.565 320.905,375.232 318.5,376.5C 314.756,376.685 311.089,377.352 307.5,378.5C 306.833,378.167 306.167,377.833 305.5,377.5C 294.724,336.86 290.557,295.527 293,253.5C 294.087,233.801 300.087,215.801 311,199.5C 323.046,186.439 337.88,181.939 355.5,186C 380.73,191.288 404.064,200.955 425.5,215C 450.081,231.072 473.081,249.238 494.5,269.5C 468.035,298.627 443.368,329.127 420.5,361C 388.892,363.701 357.559,368.201 326.5,374.5 Z"/></g>
<g><path style="opacity:1" fill="#13191d" d="M 702.5,185.5 C 717.422,187.576 727.922,195.576 734,209.5C 740.792,224.792 744.792,240.792 746,257.5C 748.959,299.013 744.792,339.679 733.5,379.5C 716.578,375.649 699.578,372.315 682.5,369.5C 679.155,367.783 675.489,367.116 671.5,367.5C 659.924,365.436 648.257,364.103 636.5,363.5C 632.1,361.896 627.434,361.229 622.5,361.5C 620.097,361.607 618.264,360.607 617,358.5C 595.594,327.251 572.094,297.584 546.5,269.5C 575.777,239.721 609.11,215.555 646.5,197C 657.169,192.325 668.169,188.825 679.5,186.5C 687.132,185.642 694.799,185.309 702.5,185.5 Z"/></g>
<g><path style="opacity:1" fill="#00819a" d="M 260.5,227.5 C 260.706,230.495 260.04,233.162 258.5,235.5C 258.565,232.572 259.232,229.905 260.5,227.5 Z"/></g>
<g><path style="opacity:1" fill="#13191d" d="M 569.5,356.5 C 566.713,357.477 563.713,357.81 560.5,357.5C 530.17,356.398 499.837,356.231 469.5,357C 485.023,335.817 501.857,315.65 520,296.5C 537.467,315.791 553.967,335.791 569.5,356.5 Z"/></g>
<g><path style="opacity:1" fill="#008aa5" d="M 569.5,356.5 C 570.043,356.56 570.376,356.893 570.5,357.5C 567.02,358.806 563.687,358.806 560.5,357.5C 563.713,357.81 566.713,357.477 569.5,356.5 Z"/></g>
<g><path style="opacity:1" fill="#0d5869" d="M 622.5,361.5 C 627.434,361.229 632.1,361.896 636.5,363.5C 631.63,363.31 626.964,362.644 622.5,361.5 Z"/></g>
<g><path style="opacity:1" fill="#095060" d="M 671.5,367.5 C 675.489,367.116 679.155,367.783 682.5,369.5C 678.64,369.192 674.974,368.525 671.5,367.5 Z"/></g>
<g><path style="opacity:1" fill="#0087a1" d="M 326.5,374.5 C 324.162,376.04 321.495,376.706 318.5,376.5C 320.905,375.232 323.572,374.565 326.5,374.5 Z"/></g>
<g><path style="opacity:1" fill="#131a1e" d="M 389.5,401.5 C 390.873,401.343 392.207,401.51 393.5,402C 375.531,430.095 358.698,458.928 343,488.5C 332.793,465.896 324.127,442.562 317,418.5C 316.219,417.056 316.386,415.723 317.5,414.5C 341.432,409.248 365.432,404.914 389.5,401.5 Z"/></g>
<g><path style="opacity:1" fill="#00849e" d="M 702.5,410.5 C 705.781,410.42 708.781,411.087 711.5,412.5C 708.219,412.58 705.219,411.913 702.5,410.5 Z"/></g>
<g><path style="opacity:1" fill="#13191d" d="M 283.5,434.5 C 283.861,438.915 285.194,442.915 287.5,446.5C 297.179,476.048 308.513,504.882 321.5,533C 305.565,568.704 291.731,605.204 280,642.5C 279.612,643.428 278.945,644.095 278,644.5C 240.411,634.428 205.578,618.595 173.5,597C 153.393,583.898 137.893,566.731 127,545.5C 126.433,542.832 125.933,540.166 125.5,537.5C 126.254,532.537 126.587,527.537 126.5,522.5C 128.185,516.796 130.685,511.463 134,506.5C 153.312,483.02 176.812,465.02 204.5,452.5C 207.331,451.921 209.664,450.588 211.5,448.5C 214.833,447.167 218.167,445.833 221.5,444.5C 223.819,444.008 225.819,443.008 227.5,441.5C 244.457,435.248 261.457,429.248 278.5,423.5C 280.749,426.921 282.416,430.587 283.5,434.5 Z"/></g>
<g><path style="opacity:1" fill="#0090ad" d="M 283.5,434.5 C 285.405,438.216 286.739,442.216 287.5,446.5C 285.194,442.915 283.861,438.915 283.5,434.5 Z"/></g>
<g><path style="opacity:1" fill="#0088a3" d="M 227.5,441.5 C 225.819,443.008 223.819,444.008 221.5,444.5C 222.911,442.461 224.911,441.461 227.5,441.5 Z"/></g>
<g><path style="opacity:1" fill="#00839c" d="M 211.5,448.5 C 209.664,450.588 207.331,451.921 204.5,452.5C 206.336,450.412 208.669,449.079 211.5,448.5 Z"/></g>
<g><path style="opacity:1" fill="#00d7fd" d="M 525.5,610.5 C 519.819,610.365 514.152,610.032 508.5,609.5C 476.295,603.468 455.129,584.801 445,553.5C 437.085,511.165 452.251,480.332 490.5,461C 524.679,449.288 554.179,456.455 579,482.5C 595.216,502.847 600.549,525.847 595,551.5C 587.637,577.066 571.804,595.233 547.5,606C 540.303,608.206 532.97,609.706 525.5,610.5 Z"/></g>
<g><path style="opacity:1" fill="#00a3c3" d="M 130.5,457.5 C 124.833,463.833 118.833,469.833 112.5,475.5C 117.5,468.5 123.5,462.5 130.5,457.5 Z"/></g>
<g><path style="opacity:1" fill="#00d8fe" d="M 941.5,521.5 C 942.426,541.48 942.759,561.48 942.5,581.5C 942.667,680.167 942.5,778.834 942,877.5C 937.695,899.804 924.529,913.637 902.5,919C 838.833,919.667 775.167,919.667 711.5,919C 694.686,915.527 682.519,906.027 675,890.5C 673.69,886.93 672.857,883.263 672.5,879.5C 671.508,762.855 671.174,646.188 671.5,529.5C 672.581,526.373 673.247,523.04 673.5,519.5C 678.737,501.099 690.737,489.599 709.5,485C 773.833,484.333 838.167,484.333 902.5,485C 923.132,489.135 936.132,501.302 941.5,521.5 Z"/></g>
<g><path style="opacity:1" fill="#007e97" d="M 91.5,512.5 C 91.4349,515.428 90.7682,518.095 89.5,520.5C 89.2938,517.505 89.9605,514.838 91.5,512.5 Z"/></g>
<g><path style="opacity:1" fill="#13191d" d="M 716.5,518.5 C 777.168,518.333 837.834,518.5 898.5,519C 901.63,521.128 904.463,523.628 907,526.5C 908.659,642.124 908.992,757.79 908,873.5C 906.628,877.862 904.128,881.362 900.5,884C 839.224,885.655 777.891,885.989 716.5,885C 711.243,882.744 707.743,878.91 706,873.5C 705.188,758.163 705.521,642.83 707,527.5C 709.102,523.227 712.269,520.227 716.5,518.5 Z"/></g>
<g><path style="opacity:1" fill="#00859f" d="M 673.5,519.5 C 673.247,523.04 672.581,526.373 671.5,529.5C 671.159,525.84 671.825,522.507 673.5,519.5 Z"/></g>
<g><path style="opacity:1" fill="#134350" d="M 126.5,522.5 C 126.587,527.537 126.254,532.537 125.5,537.5C 124.861,536.903 124.528,536.07 124.5,535C 125.008,530.665 125.675,526.499 126.5,522.5 Z"/></g>
<g><path style="opacity:1" fill="#00d7fd" d="M 782.5,537.5 C 799.837,537.333 817.17,537.5 834.5,538C 841.343,542.2 843.176,548.033 840,555.5C 838.127,557.709 835.96,559.542 833.5,561C 816.5,561.667 799.5,561.667 782.5,561C 775.574,556.422 773.741,550.255 777,542.5C 778.73,540.598 780.563,538.931 782.5,537.5 Z"/></g>
<g><path style="opacity:1" fill="#005f70" d="M 941.5,521.5 C 942.302,522.952 942.802,524.618 943,526.5C 943.829,545.005 943.662,563.338 942.5,581.5C 942.759,561.48 942.426,541.48 941.5,521.5 Z"/></g>
<g><path style="opacity:1" fill="#131a1e" d="M 342.5,578.5 C 358.703,607.898 375.703,636.898 393.5,665.5C 393.167,665.833 392.833,666.167 392.5,666.5C 366.375,663.154 340.375,659.154 314.5,654.5C 322.084,628.403 331.418,603.07 342.5,578.5 Z"/></g>
<g><path style="opacity:1" fill="#034957" d="M 508.5,609.5 C 514.152,610.032 519.819,610.365 525.5,610.5C 519.767,611.798 514.1,611.465 508.5,609.5 Z"/></g>
<g><path style="opacity:1" fill="#0090ac" d="M 637.5,623.5 C 636.833,619.833 636.167,616.167 635.5,612.5C 635.461,611.244 635.961,610.244 637,609.5C 637.499,614.155 637.666,618.821 637.5,623.5 Z"/></g>
<g><path style="opacity:1" fill="#13191d" d="M 300.5,706.5 C 301.924,704.485 302.59,702.152 302.5,699.5C 302.139,695.159 303.806,692.159 307.5,690.5C 344.861,698.003 382.527,703.503 420.5,707C 443.662,738.834 468.329,769.501 494.5,799C 463.036,831.436 426.369,856.436 384.5,874C 366.417,881.349 347.75,883.682 328.5,881C 312.793,873.275 302.96,860.775 299,843.5C 291.823,816.963 289.489,789.963 292,762.5C 294.293,743.743 297.126,725.077 300.5,706.5 Z"/></g>
<g><path style="opacity:1" fill="#055465" d="M 302.5,699.5 C 302.59,702.152 301.924,704.485 300.5,706.5C 300.41,703.848 301.076,701.515 302.5,699.5 Z"/></g>
<g><path style="opacity:1" fill="#007890" d="M 501.5,710.5 C 490.986,710.172 480.653,710.506 470.5,711.5C 469.957,711.44 469.624,711.107 469.5,710.5C 480.326,709.177 490.993,709.177 501.5,710.5 Z"/></g>
<g><path style="opacity:1" fill="#008099" d="M 545.5,710.5 C 554.009,709.179 562.675,709.179 571.5,710.5C 571.376,711.107 571.043,711.44 570.5,711.5C 562.35,710.507 554.017,710.174 545.5,710.5 Z"/></g>
<g><path style="opacity:1" fill="#13191d" d="M 501.5,710.5 C 516.167,710.5 530.833,710.5 545.5,710.5C 554.017,710.174 562.35,710.507 570.5,711.5C 555.132,732.204 538.799,752.204 521.5,771.5C 503.079,752.624 486.079,732.624 470.5,711.5C 480.653,710.506 490.986,710.172 501.5,710.5 Z"/></g>
<g><path style="opacity:1" fill="#03333c" d="M 671.5,529.5 C 671.174,646.188 671.508,762.855 672.5,879.5C 671.732,878.737 671.232,877.737 671,876.5C 670.167,760.666 670.334,644.999 671.5,529.5 Z"/></g>
<g><path style="opacity:1" fill="#00d5fb" d="M 801.5,837.5 C 820.275,836.43 826.775,844.763 821,862.5C 814.125,870.255 806.291,871.422 797.5,866C 788.514,855.035 789.848,845.535 801.5,837.5 Z"/></g>
<g><path style="opacity:1" fill="#008da9" d="M 284.5,893.5 C 288.436,895.766 291.769,898.766 294.5,902.5C 290.564,900.234 287.231,897.234 284.5,893.5 Z"/></g>
</svg>
