<svg width="256" height="256" viewBox="0 0 1067 1067" fill="none" xmlns="http://www.w3.org/2000/svg" id="react-native">
    <style>
        #react-native {
            rect {
                fill: #15191C
            }

            @media (prefers-color-scheme: light) {
                rect {
                    fill: #F4F2ED
                }
            }
        }
    </style>
    <rect width="1067" height="1067" rx="104" fill="#15191C" />
    <path
        d="M 330 149.479 C 308.197 153.184, 292.405 162.779, 280.367 179.638 C 252.981 217.992, 247.906 289.028, 266.519 373.500 C 268.337 381.750, 269.751 388.534, 269.662 388.577 C 269.573 388.619, 261.850 391.157, 252.500 394.216 C 192.053 413.997, 148.401 438.224, 119.722 467.909 C 107.624 480.431, 102.483 487.601, 96.409 500.424 C 90.719 512.436, 88.752 520.993, 88.693 534 C 88.634 546.851, 91.029 556.410, 97.615 569.607 C 106.538 587.486, 124.019 606.890, 146.223 623.561 C 173.444 644, 214.948 664.426, 255 677.095 C 262.425 679.444, 268.582 681.403, 268.682 681.448 C 268.783 681.494, 267.148 690.074, 265.050 700.516 C 253.098 759.993, 251.866 807.944, 261.337 845 C 268.880 874.512, 281.924 895.447, 300.516 907.883 C 313.313 916.442, 326.472 920, 345.327 920 C 378.059 920, 413.817 906.905, 456 879.470 C 473.022 868.399, 503.652 844.024, 517.850 830.250 C 519.693 828.463, 521.390 827, 521.622 827 C 521.855 827, 528.222 832.533, 535.772 839.295 C 564.854 865.341, 594.952 886.858, 620 899.509 C 626.718 902.903, 646.213 911.120, 646.608 910.726 C 646.765 910.568, 645.342 906.577, 643.446 901.855 C 639.226 891.343, 638 885.186, 638 874.495 L 638 866.263 625.250 859.102 C 605.321 847.909, 583.221 831.347, 559.755 810.016 L 548.221 799.532 550.361 796.928 C 551.537 795.496, 559.925 785.434, 569 774.569 C 578.075 763.704, 592.831 744.844, 601.792 732.657 C 610.753 720.471, 618.686 709.770, 619.422 708.878 C 620.362 707.740, 623.302 707.045, 629.285 706.546 C 636.077 705.981, 637.880 705.497, 638.155 704.168 C 638.345 703.251, 638.275 681.575, 638 656 L 637.500 609.500 631.594 619.500 C 622.243 635.334, 601.134 668.644, 599.693 669.840 C 598.972 670.439, 590.758 671.390, 581.441 671.954 C 561.372 673.170, 481.213 673.257, 458.708 672.087 C 445.016 671.376, 442.720 671.016, 441.449 669.383 C 439.321 666.651, 419.605 635.731, 409.956 619.995 C 398.730 601.687, 384.055 575.084, 373.003 553.007 L 363.841 534.703 372.840 516.602 C 387.921 486.266, 403.785 458.469, 429.746 416.890 C 442.662 396.202, 440.238 398.080, 455.500 396.941 C 478.119 395.254, 545.673 394.621, 569.006 395.878 C 601.965 397.652, 598.655 396.692, 604.997 406.317 C 615.816 422.735, 628.850 443.927, 639.398 462.250 C 645.334 472.563, 650.364 481, 650.575 481 C 650.786 481, 652.874 478.922, 655.215 476.382 C 660.257 470.913, 669.804 463.930, 675.750 461.363 C 678.087 460.354, 680 459.063, 680 458.494 C 680 457.297, 665.454 431.786, 655.199 415 C 651.336 408.675, 648.574 403.354, 649.063 403.175 C 651.810 402.169, 721.935 414.602, 723.749 416.416 C 724.654 417.320, 722.279 425.647, 716.621 441.410 C 714.072 448.510, 712.102 454.413, 712.243 454.526 C 712.384 454.640, 720.928 455.017, 731.228 455.364 C 752.707 456.088, 751.179 456.704, 754.458 446 C 755.385 442.975, 756.506 439.600, 756.951 438.500 C 757.395 437.400, 758.410 434.250, 759.207 431.500 C 760.989 425.345, 760.272 425.324, 781 432.132 C 800.177 438.431, 811.209 442.733, 825.897 449.640 L 837.294 455 871.147 455 C 889.766 455, 905 454.712, 905 454.360 C 905 453.579, 903.717 452.554, 893.365 445.064 C 867.972 426.695, 831.809 409.165, 792 395.930 C 780.725 392.182, 771.504 388.751, 771.508 388.307 C 771.512 387.863, 772.516 383.225, 773.738 378 C 783.988 334.181, 787.373 282.742, 782.457 245.500 C 775.323 191.457, 751.374 157.592, 714.500 149.403 C 706.278 147.577, 685.449 147.665, 674.543 149.573 C 669.617 150.435, 659.628 153.101, 652.345 155.497 C 614.060 168.095, 574.486 193.679, 528.220 235.741 L 520.255 242.982 512.232 235.594 C 459.213 186.772, 404.619 155.784, 360.500 149.468 C 348.553 147.758, 340.114 147.761, 330 149.479 M 687.500 186.077 C 678.288 187.095, 667.002 190.110, 655.684 194.577 C 645.341 198.659, 627.131 207.943, 622.317 211.589 C 620.566 212.915, 618.727 214, 618.231 214 C 616.902 214, 597.877 227.200, 587.500 235.322 C 569.823 249.158, 548 268.298, 548 269.966 C 548 270.372, 550.757 273.808, 554.128 277.602 C 573.840 299.793, 595.467 327.112, 614.500 353.865 C 620.081 361.710, 619.469 361.437, 635 363.005 C 664.085 365.942, 699.647 371.614, 724.691 377.309 L 734.882 379.627 736.494 372.383 C 744.007 338.613, 746.457 317.043, 746.477 284.500 C 746.495 255.086, 745.391 244.552, 740.501 227.500 C 731.232 195.174, 715.616 182.969, 687.500 186.077 M 332.500 187.331 C 319.832 190.629, 312.316 197.350, 305.392 211.571 C 296.647 229.532, 293.750 247.483, 293.701 284 C 293.660 314.056, 295.558 330.240, 303.179 364.834 C 306.108 378.129, 306.488 379.134, 308.418 378.687 C 337.142 372.046, 401.721 362, 415.693 362 C 420.872 362, 420.766 362.101, 432.500 345.979 C 445.838 327.653, 462.784 306.284, 476.417 290.597 C 483.063 282.950, 489.833 275.112, 491.461 273.178 L 494.423 269.664 487.961 263.749 C 436.633 216.763, 384.774 188.139, 348 186.497 C 341.140 186.191, 335.767 186.480, 332.500 187.331 M 512.825 305.822 C 496.990 324.038, 491.831 330.202, 482.548 342 C 477.139 348.875, 472.135 355.175, 471.428 356 C 470.288 357.330, 475.785 357.500, 520.071 357.500 C 547.532 357.500, 569.990 357.275, 569.979 357 C 569.947 356.249, 544.442 324.412, 537.065 315.913 C 529.057 306.689, 520.741 297.977, 520.034 298.072 C 519.740 298.111, 516.496 301.599, 512.825 305.822 M 376.500 404.476 C 360.891 406.817, 338.074 410.868, 324.766 413.660 C 316.073 415.484, 316.383 414.793, 319.667 425 C 323.233 436.082, 337.689 474.961, 342.326 485.940 L 343.779 489.380 346.783 483.431 C 352.960 471.194, 369.103 442.676, 380.852 423.244 C 387.534 412.195, 393 402.894, 393 402.577 C 393 402.260, 392.663 402.051, 392.250 402.113 C 391.837 402.176, 384.750 403.239, 376.500 404.476 M 267.471 428.484 C 187.301 453.104, 130.141 494.654, 126.334 531.076 C 123.679 556.483, 157.556 591.591, 210.155 617.942 C 233.630 629.702, 278.091 646.280, 279.601 643.836 C 279.917 643.326, 281.652 638.316, 283.457 632.704 C 290.739 610.067, 305.605 571.264, 317.382 544.154 L 321.876 533.808 317.815 524.654 C 305.528 496.960, 294.681 469.125, 285.415 441.508 C 282.463 432.713, 279.700 425.422, 279.274 425.306 C 278.848 425.191, 273.537 426.621, 267.471 428.484 M 510.209 456.102 C 492.207 458.815, 479.313 465.464, 465.987 478.905 C 455.486 489.498, 450.801 496.969, 446.257 510.369 C 443.731 517.818, 443.500 519.758, 443.502 533.500 C 443.503 549.675, 444.784 556.388, 449.798 566.500 C 460.490 588.065, 478.801 603.040, 502 609.192 C 511.731 611.772, 528.876 612.004, 537.766 609.675 C 566.043 602.266, 587.380 581.700, 595.205 554.309 C 598.102 544.168, 598.337 523.895, 595.669 514.239 C 589.485 491.855, 574.956 474.122, 554.500 463.992 C 539.867 456.745, 524.317 453.975, 510.209 456.102 M 710.362 485.474 C 693.226 489.255, 679.948 501.096, 673.827 518.054 L 671.500 524.500 671.354 700 C 671.193 892.673, 670.866 881.731, 677.159 894.279 C 680.647 901.232, 689.673 910.489, 696.601 914.217 C 707.626 920.150, 704.729 920, 808.105 920 C 899.607 920, 903.003 919.934, 909.145 918.023 C 921.573 914.158, 932.515 904.884, 938.393 893.235 C 944.330 881.466, 944.034 892.547, 943.558 699.986 C 943.233 568.995, 942.818 522.469, 941.947 519.500 C 937.712 505.065, 925.588 492.543, 910.172 486.682 C 904.524 484.535, 904.110 484.525, 810.500 484.323 C 734.544 484.159, 715.322 484.380, 710.362 485.474 M 717.753 519.957 C 715.693 520.357, 713.059 521.542, 711.901 522.590 C 706.723 527.276, 707 517.082, 707.004 702.700 C 707.007 872.321, 707.043 875.559, 708.960 878.701 C 713.017 885.357, 707.376 885, 808.605 885 L 900.310 885 904.163 880.949 L 908.017 876.898 907.758 702.030 L 907.500 527.161 905 524.485 C 899.606 518.712, 904.557 518.990, 809.300 519.115 C 761.010 519.178, 719.814 519.557, 717.753 519.957 M 789 537.680 C 782.758 538.322, 780.871 539.036, 778.415 541.686 C 776.495 543.758, 776 545.376, 776 549.575 C 776 554.199, 776.420 555.303, 779.368 558.429 L 782.736 562 808.403 562 C 830.562 562, 834.414 561.775, 836.586 560.352 C 842.075 556.755, 843.800 547.558, 839.912 542.615 C 835.794 537.381, 833.798 536.986, 812.300 537.160 C 801.410 537.248, 790.925 537.482, 789 537.680 M 339.002 589.196 C 333.271 602.958, 320.657 638.088, 316.581 651.635 C 315.997 653.574, 316.559 653.917, 322.719 655.382 C 335.498 658.421, 392.784 667.319, 393.846 666.430 C 394.037 666.271, 392.828 664.157, 391.160 661.733 C 383.425 650.490, 366.931 622.057, 346.471 584.696 L 343.292 578.892 339.002 589.196 M 304.748 693.250 C 297.127 728.613, 294.620 745.102, 293.003 770.500 C 290.696 806.755, 294.880 835.995, 305.452 857.500 C 310.639 868.050, 316.783 874.764, 324.902 878.751 C 330.279 881.392, 331.111 881.500, 346 881.495 C 359.840 881.491, 362.517 881.200, 371 878.781 C 383.623 875.181, 397.794 869.337, 411.924 861.904 C 435.221 849.649, 466.659 826.876, 486.199 808.102 L 495.152 799.500 482.454 785 C 466.825 767.154, 446.010 741.284, 431.679 721.894 L 420.884 707.287 411.692 706.630 C 389.421 705.039, 341.969 698.241, 316.360 692.971 C 304.606 690.553, 305.333 690.535, 304.748 693.250 M 479.947 722.852 C 487.543 732.796, 503.168 751.436, 517.701 767.892 L 521.580 772.284 533.114 758.892 C 548.450 741.085, 571 712.979, 571 711.671 C 571 711.414, 548.511 711.204, 521.025 711.204 L 471.051 711.204 479.947 722.852 M 800.970 839.250 C 794.875 842.329, 792 846.896, 792 853.500 C 792 862.549, 798.107 869.057, 807.209 869.706 C 822.349 870.787, 830.538 853.699, 820.186 842.627 C 814.707 836.767, 808.162 835.617, 800.970 839.250"
        stroke="none" fill="#61DAFB" fill-rule="evenodd" />
</svg>
