<svg xmlns="http://www.w3.org/2000/svg" fill="none" width="256" height="256" viewBox="0 0 256 256" id="react-native">
    <style>
        #react-native {
            rect {
                fill: #15191C
            }

            @media (prefers-color-scheme: light) {
                rect {
                    fill: #F4F2ED
                }
            }
        }
    </style>
    <rect width="256" height="256" rx="25" fill="#15191C" />

    <path style=" stroke:none;fill-rule:evenodd;fill:rgb(1.568628%,85.882354%,98.431373%);fill-opacity:1;"
        d="M 79.015625 35.863281 C 70.648438 37.382812 65.414062 42.992188 62.835938 53.199219 C 61.6875 57.75 61.335938 61.089844 61.339844 67.417969 C 61.34375 74.753906 61.859375 79.453125 63.621094 88.242188 C 64.160156 90.921875 64.558594 93.144531 64.507812 93.183594 C 64.460938 93.222656 62.464844 93.914062 60.074219 94.714844 C 49.230469 98.355469 40.980469 102.371094 34.472656 107.183594 C 31.628906 109.285156 26.667969 114.167969 25.269531 116.242188 C 23.003906 119.601562 21.648438 123.042969 21.351562 126.199219 C 20.710938 132.980469 23.621094 139.199219 30.511719 145.753906 C 37.300781 152.214844 48.078125 158.148438 60.445312 162.234375 C 63.148438 163.128906 64.300781 163.617188 64.296875 163.867188 C 64.296875 164.066406 63.96875 165.902344 63.566406 167.949219 C 59.121094 190.503906 60.949219 206.597656 68.921875 215.125 C 72.554688 219.007812 76.84375 220.730469 82.855469 220.730469 C 94.222656 220.726562 107.746094 213.9375 122.496094 200.835938 L 125.152344 198.476562 L 128.734375 201.597656 C 135.933594 207.871094 142.285156 212.433594 147.835938 215.316406 C 150.335938 216.617188 154.6875 218.570312 155.082031 218.570312 C 155.144531 218.570312 154.769531 217.332031 154.246094 215.820312 C 153.453125 213.535156 153.261719 212.617188 153.121094 210.398438 L 152.953125 207.730469 L 150.433594 206.28125 C 145.097656 203.210938 138.761719 198.453125 133.652344 193.683594 L 131.625 191.792969 L 134.515625 188.328125 C 138.253906 183.84375 142.132812 178.902344 145.847656 173.894531 L 148.824219 169.886719 L 149.925781 169.738281 C 150.535156 169.660156 151.464844 169.515625 151.992188 169.421875 L 152.953125 169.253906 L 153.003906 157.742188 C 153.046875 147.449219 153.015625 146.285156 152.691406 146.714844 C 152.492188 146.976562 150.902344 149.515625 149.152344 152.351562 C 144.386719 160.082031 143.957031 160.6875 143.117188 160.847656 C 142.71875 160.921875 138.175781 161.101562 133.015625 161.25 C 122.734375 161.539062 107.261719 161.269531 106.355469 160.785156 C 105.882812 160.535156 102.800781 155.84375 98.613281 149.015625 C 96.082031 144.886719 92.855469 139.082031 89.761719 133.101562 L 87.3125 128.367188 L 90.074219 122.902344 C 93.175781 116.769531 96.644531 110.621094 101.003906 103.527344 C 104.707031 97.507812 105.695312 96.046875 106.285156 95.730469 C 107.15625 95.265625 113.777344 95.019531 125.480469 95.019531 C 137.214844 95.019531 142.410156 95.234375 143.566406 95.761719 C 144.359375 96.121094 148.175781 102.066406 154.125 112.210938 C 155.921875 115.273438 156.398438 115.742188 156.761719 114.796875 C 156.949219 114.300781 160.414062 111.621094 161.722656 110.960938 C 162.355469 110.636719 162.945312 110.257812 163.035156 110.117188 C 163.199219 109.851562 161.566406 106.804688 158.34375 101.367188 C 157.328125 99.652344 156.3125 97.890625 156.089844 97.457031 L 155.683594 96.664062 L 156.476562 96.792969 C 168.078125 98.660156 173.132812 99.621094 173.539062 100.027344 C 173.652344 100.136719 173.089844 102.207031 172.292969 104.625 C 171.496094 107.042969 170.867188 109.046875 170.898438 109.074219 C 170.925781 109.105469 172.90625 109.207031 175.292969 109.300781 C 180.585938 109.511719 180.265625 109.703125 181.558594 105.542969 C 182.054688 103.9375 182.609375 102.574219 182.785156 102.503906 C 183.503906 102.226562 192.960938 105.578125 198.113281 107.933594 L 200.804688 109.164062 L 208.96875 109.164062 C 213.457031 109.164062 217.132812 109.082031 217.132812 108.976562 C 217.132812 108.664062 213.183594 105.832031 210.441406 104.179688 C 204.800781 100.777344 198.496094 97.925781 189.902344 94.890625 C 187.394531 94.003906 185.308594 93.25 185.269531 93.214844 C 185.234375 93.179688 185.632812 91.003906 186.160156 88.382812 C 189.78125 70.339844 188.816406 54.472656 183.535156 45.242188 C 181.351562 41.421875 178.738281 38.882812 175.234375 37.167969 C 172.679688 35.917969 170.671875 35.519531 166.960938 35.511719 C 163.167969 35.507812 160.699219 35.933594 156.460938 37.324219 C 147.558594 40.242188 137.753906 46.523438 127.335938 55.972656 C 126.050781 57.144531 124.898438 58.0625 124.78125 58.019531 C 124.664062 57.976562 123.359375 56.863281 121.878906 55.542969 C 105.75 41.164062 89.90625 33.886719 79.015625 35.863281 M 163.027344 45.019531 C 157.394531 46.214844 150.246094 49.734375 143.550781 54.609375 C 138.230469 58.484375 131.660156 64.171875 131.769531 64.808594 C 131.808594 65.03125 133.230469 66.84375 134.933594 68.832031 C 138.730469 73.277344 142.945312 78.621094 146.121094 83.011719 C 147.4375 84.832031 148.703125 86.394531 148.933594 86.484375 C 149.164062 86.574219 151.890625 86.960938 154.992188 87.34375 C 161.492188 88.144531 168.070312 89.214844 172.828125 90.25 C 174.652344 90.644531 176.195312 90.921875 176.253906 90.863281 C 176.464844 90.652344 178.023438 82.519531 178.425781 79.519531 C 179.042969 74.910156 179.046875 60.996094 178.429688 57.972656 C 177.171875 51.773438 174.984375 47.597656 172.125 45.921875 C 169.917969 44.625 166.488281 44.289062 163.027344 45.019531 M 78.933594 45.304688 C 76.253906 46.300781 74.882812 47.679688 73.285156 50.984375 C 71.140625 55.421875 70.65625 58.660156 70.667969 68.378906 C 70.675781 74.09375 70.769531 76.328125 71.101562 78.574219 C 71.660156 82.359375 73.332031 90.222656 73.648438 90.539062 C 73.820312 90.710938 75.109375 90.550781 77.796875 90.027344 C 85.175781 88.589844 94.367188 87.183594 97.855469 86.957031 C 98.996094 86.882812 100.171875 86.773438 100.464844 86.714844 C 100.824219 86.640625 102.097656 85.148438 104.289062 82.230469 C 108.316406 76.867188 111.234375 73.234375 115.398438 68.386719 L 118.585938 64.671875 L 117.535156 63.746094 C 108.910156 56.128906 103.320312 52.148438 96.445312 48.734375 C 92.96875 47.007812 89.777344 45.851562 86.804688 45.242188 C 84.351562 44.742188 80.363281 44.773438 78.933594 45.304688 M 121.695312 75.035156 C 118.300781 78.964844 113.246094 85.203125 113.246094 85.464844 C 113.246094 85.570312 118.480469 85.652344 124.882812 85.652344 C 131.28125 85.652344 136.515625 85.585938 136.515625 85.507812 C 136.515625 85.332031 133.898438 82.007812 130.777344 78.214844 C 127.707031 74.492188 125.183594 71.738281 124.832031 71.738281 C 124.675781 71.738281 123.261719 73.222656 121.695312 75.035156 M 92.609375 96.757812 C 85.441406 97.855469 76.992188 99.40625 76.492188 99.714844 C 76.355469 99.800781 76.320312 100.21875 76.40625 100.683594 C 76.574219 101.582031 79.382812 109.4375 81.226562 114.171875 C 82.539062 117.53125 82.410156 117.507812 83.847656 114.683594 C 84.886719 112.636719 88.960938 105.492188 91.8125 100.710938 C 93.0625 98.617188 94.046875 96.828125 94.007812 96.730469 C 93.964844 96.632812 93.335938 96.644531 92.609375 96.757812 M 62.621094 103.378906 C 46.46875 108.703125 34.679688 116.519531 31.3125 124.132812 C 30.496094 125.980469 30.195312 127.871094 30.484375 129.382812 C 31.828125 136.476562 41.871094 144.816406 56.257812 150.792969 C 60.859375 152.703125 66.363281 154.601562 66.808594 154.429688 C 66.984375 154.363281 67.53125 153.085938 68.023438 151.589844 C 69.457031 147.25 72.585938 138.980469 74.890625 133.445312 C 76.058594 130.632812 77.015625 128.210938 77.015625 128.054688 C 77.015625 127.902344 76.109375 125.667969 75.003906 123.089844 C 73.035156 118.511719 70.585938 112.132812 68.25 105.507812 C 67.257812 102.699219 67.011719 102.210938 66.59375 102.21875 C 66.320312 102.226562 64.535156 102.746094 62.621094 103.378906 M 121.550781 109.535156 C 117.707031 110.261719 115.050781 111.714844 111.921875 114.804688 C 109.488281 117.207031 108.300781 119 107.179688 121.9375 C 106.445312 123.871094 106.425781 124.023438 106.425781 127.878906 C 106.425781 131 106.515625 132.140625 106.855469 133.265625 C 109.015625 140.410156 115.632812 145.890625 122.933594 146.578125 C 129.09375 147.160156 134.164062 145.21875 138.496094 140.613281 C 139.800781 139.226562 140.578125 138.117188 141.398438 136.476562 C 142.984375 133.308594 143.332031 131.769531 143.335938 127.878906 C 143.34375 124.378906 142.933594 122.460938 141.625 119.847656 C 137.898438 112.429688 129.386719 108.054688 121.550781 109.535156 M 171.304688 116.367188 C 166.828125 116.875 163.320312 119.785156 161.566406 124.4375 L 160.988281 125.972656 L 160.996094 165.492188 C 161.003906 203.902344 161.121094 211.304688 161.730469 213.054688 C 162.195312 214.378906 163.558594 216.375 164.871094 217.65625 C 166.625 219.359375 168.496094 220.230469 171.035156 220.511719 C 172.277344 220.652344 182.082031 220.71875 195.304688 220.679688 L 217.492188 220.609375 L 218.890625 220.046875 C 221.988281 218.796875 225.273438 215.273438 226.03125 212.378906 C 226.410156 210.941406 226.589844 163.355469 226.304688 140.234375 L 226.109375 124.402344 L 225.308594 122.84375 C 224.21875 120.734375 221.804688 118.355469 219.695312 117.324219 C 218.347656 116.664062 217.652344 116.488281 215.738281 116.335938 C 212.816406 116.097656 173.417969 116.128906 171.304688 116.367188 M 179.824219 124.738281 C 171.238281 124.886719 170.898438 124.933594 170.308594 126.027344 C 169.75 127.066406 169.601562 138.257812 169.671875 174.066406 C 169.742188 207.820312 169.773438 210.101562 170.167969 210.824219 C 170.445312 211.332031 170.890625 211.6875 171.488281 211.882812 C 172.15625 212.097656 177.980469 212.199219 194.132812 212.273438 L 215.878906 212.371094 L 216.878906 211.332031 L 217.882812 210.292969 L 217.722656 168.308594 C 217.578125 129.773438 217.53125 126.285156 217.167969 125.867188 C 216.136719 124.6875 216.011719 124.675781 201.535156 124.636719 C 194.082031 124.617188 184.308594 124.660156 179.824219 124.738281 M 188.941406 128.957031 C 188.808594 129 188.394531 129.105469 188.019531 129.1875 C 187.648438 129.269531 187.078125 129.621094 186.761719 129.964844 C 186.273438 130.492188 186.183594 130.832031 186.183594 132.132812 C 186.183594 133.515625 186.253906 133.746094 186.882812 134.375 L 187.585938 135.078125 L 200.613281 135.078125 L 201.316406 134.375 C 201.933594 133.757812 202.015625 133.503906 202.015625 132.25 C 202.015625 131.152344 201.898438 130.671875 201.496094 130.164062 C 200.554688 128.964844 199.859375 128.839844 194.285156 128.859375 C 191.480469 128.867188 189.074219 128.914062 188.941406 128.957031 M 82.089844 139.65625 C 81.964844 139.976562 81.515625 141.101562 81.09375 142.15625 C 79.207031 146.84375 76.054688 155.886719 76.054688 156.621094 C 76.054688 156.960938 77.488281 157.273438 83.882812 158.324219 C 90.960938 159.488281 94.019531 159.902344 94.199219 159.722656 C 94.273438 159.644531 94.019531 159.117188 93.632812 158.546875 C 92.429688 156.78125 88.496094 150.0625 85.648438 144.914062 C 84.152344 142.210938 82.792969 139.789062 82.621094 139.535156 C 82.324219 139.09375 82.304688 139.097656 82.089844 139.65625 M 73.296875 166.027344 C 73.09375 166.359375 71.527344 174.484375 71.148438 177.183594 C 70.214844 183.832031 70.015625 191.691406 70.664062 196.25 C 71.738281 203.820312 74.414062 209.097656 78.027344 210.777344 C 79.195312 211.324219 79.574219 211.371094 82.910156 211.371094 C 87.089844 211.375 88.933594 211.003906 93.082031 209.335938 C 100.644531 206.296875 108.289062 201.328125 115.820312 194.558594 L 118.792969 191.882812 L 118.332031 191.371094 C 114.652344 187.308594 107.164062 178.105469 103.269531 172.867188 C 102.09375 171.28125 101.042969 169.921875 100.933594 169.84375 C 100.824219 169.761719 99.699219 169.628906 98.4375 169.546875 C 93.875 169.246094 82.335938 167.578125 75.152344 166.183594 C 74.195312 165.996094 73.359375 165.925781 73.296875 166.027344 M 113.25 170.730469 C 113.261719 171.046875 117.296875 176.078125 121.476562 180.980469 L 125.121094 185.253906 L 125.722656 184.554688 C 130.328125 179.207031 136.878906 171.109375 136.722656 170.953125 C 136.515625 170.746094 113.246094 170.527344 113.25 170.730469 M 192.171875 201.355469 C 190.582031 202.160156 189.953125 203.238281 190.074219 204.960938 C 190.261719 207.601562 192.285156 209.128906 194.9375 208.628906 C 196.085938 208.414062 197.617188 206.890625 197.832031 205.75 C 198.070312 204.472656 197.761719 203.304688 196.929688 202.359375 C 195.496094 200.722656 194.035156 200.417969 192.171875 201.355469 " />

</svg>
