<svg width="256" height="256" title="Red Hat" viewBox="0 0 256 256" fill="none" xmlns="http://www.w3.org/2000/svg" id="redhat">
<style>
#redhat {
    rect {fill: #15191C}

    @media (prefers-color-scheme: light) {
        rect {fill: #F4F2ED}
    }
}
</style>
<rect width="256" height="256" rx="40" fill="#15191C"/>
<path d="M156.396 138.345C167.568 138.345 183.733 136.034 183.733 122.704C183.767 121.675 183.674 120.646 183.457 119.64L176.803 90.651C175.267 84.2727 173.918 81.3792 162.755 75.7802C154.092 71.3369 135.221 64 129.639 64C124.441 64 122.932 70.7187 116.734 70.7187C110.768 70.7187 106.338 65.7021 100.756 65.7021C95.3977 65.7021 91.9057 69.366 89.2086 76.9C89.2086 76.9 81.6977 98.1492 80.7331 101.231C80.5798 101.797 80.5136 102.383 80.5366 102.969C80.5366 111.228 112.956 138.309 156.396 138.309M185.448 128.115C186.993 135.452 186.993 136.222 186.993 137.19C186.993 149.731 172.936 156.692 154.458 156.692C112.697 156.719 76.1158 132.173 76.1158 115.949C76.1134 113.691 76.5724 111.456 77.4644 109.383C62.4426 110.135 43 112.823 43 130.041C43 158.242 109.616 193 162.362 193C202.801 193 213 174.653 213 160.168C213 148.773 203.176 135.837 185.466 128.115" fill="#EE0000"/>
<path d="M185.448 128.115C186.993 135.452 186.993 136.222 186.993 137.19C186.993 149.731 172.936 156.692 154.458 156.692C112.697 156.719 76.1158 132.173 76.1158 115.949C76.1134 113.691 76.5724 111.456 77.4644 109.383L80.7331 101.267C80.5834 101.821 80.5172 102.395 80.5366 102.969C80.5366 111.228 112.956 138.309 156.396 138.309C167.568 138.309 183.733 135.998 183.733 122.668C183.767 121.639 183.674 120.61 183.457 119.604L185.448 128.115Z" fill="black"/>
</svg>