<svg width="256" height="256" title="Redis" viewBox="0 0 256 256" fill="none" xmlns="http://www.w3.org/2000/svg" id="redis">
<style>
#redis {
    rect {fill: #15191C}

    @media (prefers-color-scheme: light) {
        rect {fill: #F4F2ED}
    }
}
</style>
<rect width="256" height="256" rx="40" fill="#15191C"/>
<path d="M201.726 164.742C193.188 169.196 148.96 187.38 139.544 192.287C130.127 197.195 124.898 197.149 117.457 193.593C110.017 190.039 62.9517 171.028 54.4683 166.973C50.2267 164.945 48.004 163.24 48.004 161.628V145.455C48.004 145.455 109.284 132.115 119.179 128.565C129.075 125.014 132.498 124.887 140.923 127.971C149.347 131.054 199.682 140.136 208 143.186V159.135C208 160.734 206.083 162.527 201.735 164.751L201.726 164.742Z" fill="#A41E11"/>
<path d="M201.727 148.564C193.188 153.018 148.96 171.202 139.544 176.109C130.127 181.017 124.898 180.97 117.457 177.416C110.017 173.861 62.9517 154.85 54.4684 150.795C45.985 146.74 45.8153 143.954 54.1417 140.691L119.175 115.513C129.067 111.967 132.494 111.835 140.918 114.919C149.342 118.003 193.303 135.5 201.617 138.596C209.93 141.693 210.257 144.153 201.718 148.607L201.727 148.564Z" fill="#D82C20"/>
<path d="M201.726 138.367C193.188 142.821 148.96 161.005 139.544 165.912C130.127 170.82 124.898 170.773 117.457 167.219C110.017 163.664 62.9517 144.653 54.4683 140.599C50.2267 138.57 48.004 136.866 48.004 135.254V119.08C48.004 119.08 109.284 105.74 119.179 102.19C129.075 98.6396 132.498 98.5123 140.923 101.596C149.347 104.68 199.682 113.761 208 116.811V132.76C208 134.358 206.083 136.153 201.735 138.375L201.726 138.367Z" fill="#A41E11"/>
<path d="M201.727 122.193C193.188 126.647 148.96 144.831 139.544 149.739C130.127 154.647 124.898 154.6 117.457 151.046C110.017 147.491 62.9517 128.48 54.4684 124.425C45.985 120.369 45.8153 117.583 54.1417 114.321L119.175 89.1466C129.067 85.5963 132.494 85.4691 140.918 88.5528C149.342 91.6364 193.303 109.137 201.625 112.179C209.947 115.221 210.266 117.736 201.727 122.189V122.193Z" fill="#D82C20"/>
<path d="M201.726 111.017C193.188 115.47 148.96 133.654 139.544 138.566C130.127 143.478 124.898 143.427 117.457 139.873C110.017 136.318 62.9517 117.307 54.4683 113.252C50.2267 111.225 48.004 109.52 48.004 107.908V91.7255C48.004 91.7255 109.284 78.3855 119.179 74.8352C129.075 71.2849 132.498 71.1576 140.923 74.2414C149.347 77.3251 199.682 86.4065 208 89.4562V105.405C208 107.005 206.083 108.798 201.735 111.021L201.726 111.017Z" fill="#A41E11"/>
<path d="M201.727 94.8389C193.188 99.2927 148.96 117.477 139.544 122.385C130.127 127.292 124.898 127.246 117.457 123.691C110.017 120.137 62.9517 101.125 54.4684 97.0701C45.985 93.015 45.8153 90.2282 54.1417 86.9664L119.175 61.792C129.067 58.2417 132.494 58.1145 140.918 61.1982C149.342 64.2819 193.303 81.783 201.625 84.8243C209.947 87.8656 210.266 90.3809 201.727 94.8347V94.8389Z" fill="#D82C20"/>
<path d="M131.994 88.171L126.98 79.8361L110.972 78.3939L122.917 74.0844L119.332 67.4673L130.514 71.8363L141.058 68.3835L138.207 75.2211L148.956 79.2508L135.094 80.6929L131.994 88.171ZM105.288 104.764L142.36 99.0721L131.162 115.496L105.288 104.764Z" fill="white"/>
<path d="M95.2945 98.7794C106.239 98.7794 115.112 95.3402 115.112 91.0978C115.112 86.8552 106.239 83.4161 95.2945 83.4161C84.3498 83.4161 75.4774 86.8552 75.4774 91.0978C75.4774 95.3402 84.3498 98.7794 95.2945 98.7794Z" fill="white"/>
<path d="M187.288 89.978L165.359 98.6395L165.342 81.3038L187.288 89.978Z" fill="#7A0C00"/>
<path d="M165.363 98.6395L162.988 99.5726L141.075 90.9111L165.35 81.3079L165.363 98.6395Z" fill="#AD2115"/>
</svg>