<svg width="256" height="256" title="Regex" viewBox="0 0 256 256" fill="none" xmlns="http://www.w3.org/2000/svg" id="regex">
<style>
#regex {
    rect {fill: #15191C}

    @media (prefers-color-scheme: light) {
        rect {fill: #F4F2ED}
    }
}
</style>
<rect width="256" height="256" rx="40" fill="#15191C"/>
<path d="M60.7477 127.963C60.7223 136.842 61.9342 145.686 64.3529 154.272C66.7857 162.639 70.3673 170.676 75.0082 178.182C75.3884 178.813 75.6588 179.496 75.8093 180.206C75.9554 180.722 75.9554 181.264 75.8093 181.78C75.6426 182.21 75.3678 182.595 75.0082 182.905L73.8866 183.729L67.237 187.477C63.8663 182.701 60.8933 177.689 58.3442 172.486C55.9523 167.642 53.97 162.63 52.4157 157.495C50.8822 152.587 49.7573 147.575 49.0508 142.504C47.6497 132.202 47.6497 121.775 49.0508 111.474C49.7573 106.402 50.8822 101.391 52.4157 96.4826C53.9768 91.3504 55.9589 86.3386 58.3442 81.4918C60.8867 76.8102 63.778 72.3018 66.9967 68L73.6462 71.8226L74.7679 72.6471C75.1229 72.96 75.3969 73.3446 75.569 73.7714C75.7151 74.2873 75.7151 74.8297 75.569 75.3455C75.4159 76.0549 75.1456 76.7377 74.7679 77.3693C65.4741 92.8074 60.6418 110.245 60.7477 127.963ZM87.8267 154.272C87.8055 152.758 88.105 151.255 88.708 149.85C89.2818 148.513 90.125 147.291 91.1916 146.252C92.8871 144.663 95.0523 143.586 97.4083 143.158C99.7643 142.73 102.203 142.973 104.411 143.854C107.297 145 109.594 147.15 110.82 149.85C111.463 151.246 111.79 152.752 111.782 154.272C111.793 155.793 111.466 157.298 110.82 158.694C110.212 160.032 109.342 161.253 108.256 162.292C107.158 163.323 105.85 164.138 104.411 164.69C101.379 165.841 97.9883 165.841 94.957 164.69C93.5397 164.141 92.2582 163.324 91.1916 162.292C90.0946 161.228 89.2328 159.972 88.6554 158.596C88.078 157.219 87.7964 155.75 87.8267 154.272ZM174.351 118.894L170.026 125.939L156.005 118.444L153.281 116.72C152.469 116.166 151.741 115.51 151.118 114.771C151.81 116.597 152.082 118.538 151.919 120.468V135.458H143.907V120.468C143.861 118.53 144.186 116.601 144.869 114.771C143.605 116.261 142.022 117.486 140.222 118.369L126.282 125.865L121.956 118.819L135.816 111.323C137.663 110.267 139.698 109.531 141.825 109.15C139.677 108.889 137.622 108.17 135.816 107.051L121.475 99.4807L125.802 92.435L139.822 99.9304L142.466 101.729C143.268 102.323 143.994 103.002 144.629 103.753C143.988 101.892 143.743 99.931 143.907 97.9816V82.9908H151.919V97.9816C151.992 98.9798 151.992 99.9815 151.919 100.98C151.786 101.909 151.517 102.817 151.118 103.678C152.456 102.209 154.055 100.966 155.845 100.005L169.785 92.5099L174.111 99.5556L160.251 107.051L157.367 108.4C156.45 108.78 155.478 109.032 154.483 109.15C155.466 109.319 156.431 109.57 157.367 109.899C158.378 110.281 159.344 110.758 160.251 111.323L174.351 118.894ZM194.941 127.963C194.965 119.084 193.753 110.241 191.336 101.654C188.945 93.0951 185.391 84.858 180.761 77.1444C180.383 76.5128 180.113 75.83 179.959 75.1206C179.827 74.6033 179.827 74.0639 179.959 73.5466C180.12 73.1143 180.396 72.7274 180.761 72.4223L181.882 71.5978L188.772 68C192.098 72.7881 195.044 77.7985 197.585 82.9908C199.972 87.837 201.954 92.849 203.514 97.9816C205.048 102.89 206.173 107.902 206.878 112.973C207.583 117.943 207.958 122.95 208 127.963C207.984 132.975 207.636 137.982 206.958 142.954C206.254 148.025 205.128 153.037 203.594 157.945C202.041 163.079 200.058 168.092 197.665 172.936C195.126 178.129 192.18 183.139 188.852 187.926L182.122 184.178L181.001 183.354C180.634 183.051 180.358 182.664 180.2 182.23C180.064 181.713 180.064 181.173 180.2 180.656C180.35 179.946 180.621 179.262 181.001 178.632C185.594 171.016 189.121 162.879 191.496 154.422C193.87 145.78 195.027 136.886 194.941 127.963Z" fill="#3366CC"/>
</svg>