<svg width="256" height="256" title="Render" viewBox="0 0 256 256" fill="none" xmlns="http://www.w3.org/2000/svg" id="render">
<style>
#render {
    rect {fill: #15191C}
    path {fill: #F4F2ED}

    @media (prefers-color-scheme: light) {
        rect {fill: #F4F2ED}
        path {fill: #15191C}
    }
}
</style>
<rect width="256" height="256" rx="40" fill="#15191C"/>
<path d="M171.74 45.0469C150.193 44.032 132.084 59.6071 128.991 80.1323C128.867 81.085 128.681 82.0101 128.529 82.9284C123.724 108.493 101.355 127.852 74.4923 127.852C64.9097 127.852 55.914 125.394 48.085 121.093C47.8715 120.972 47.63 120.91 47.3847 120.912C47.1395 120.914 46.8991 120.981 46.6878 121.105C46.4765 121.23 46.3017 121.408 46.181 121.621C46.0603 121.835 45.9979 122.077 46.0001 122.322V210.691H128.501V148.563C128.501 137.131 137.739 127.852 149.123 127.852H169.752C193.101 127.852 211.886 108.404 210.968 84.7441C210.139 63.4526 192.949 46.0618 171.74 45.0469Z" fill="#F4F2ED"/>
</svg>