<svg width="256" height="256" title="Rider" viewBox="0 0 256 256" fill="none" xmlns="http://www.w3.org/2000/svg" id="rider">
<style>
#rider {
    rect {fill: #15191C}

    @media (prefers-color-scheme: light) {
        rect {fill: #F4F2ED}
    }
}
</style>
<rect width="256" height="256" rx="40" fill="#15191C"/>
<path d="M166.16 190.469H195.848C197.173 190.469 198.484 190.205 199.707 189.693C200.929 189.181 202.037 188.431 202.966 187.486C203.896 186.542 204.628 185.422 205.121 184.192C205.613 182.962 205.856 181.646 205.835 180.321L205.409 153.574C205.387 152.16 205.064 150.767 204.463 149.487C203.862 148.207 202.995 147.069 201.922 146.148L109.508 66.9362C107.697 65.3847 105.392 64.5317 103.007 64.5313H75.5215C72.8719 64.5313 70.3309 65.5838 68.4573 67.4573C66.5838 69.3309 65.5313 71.8719 65.5313 74.5215V101.169C65.5313 104.051 66.7761 106.791 68.9437 108.687L159.582 187.998C161.403 189.591 163.741 190.469 166.16 190.469Z" fill="#007DFE"/>
<path d="M169.703 190.469H196.01C198.659 190.469 201.2 189.416 203.074 187.543C204.947 185.669 206 183.128 206 180.479V150.045C206 149.561 205.966 149.076 205.893 148.597L192.699 58.542C192.351 56.1688 191.161 54 189.347 52.4317C187.532 50.8634 185.214 50.0002 182.815 50H145.523C144.211 50 142.912 50.2585 141.7 50.7607C140.487 51.2629 139.386 51.999 138.458 52.9269C137.531 53.8549 136.795 54.9565 136.293 56.1688C135.791 57.3812 135.533 58.6805 135.533 59.9927L135.545 104.809C135.545 105.839 135.705 106.863 136.017 107.844L160.185 183.518C160.83 185.536 162.1 187.297 163.811 188.546C165.521 189.795 167.585 190.469 169.703 190.469Z" fill="url(#linearGradient1)"/>
<path d="M60.9902 205H143.642C145.606 205 147.526 204.421 149.163 203.336C150.8 202.25 152.08 200.706 152.845 198.897L191.105 108.263C191.636 107.009 191.905 105.657 191.89 104.296L191.527 59.9055C191.505 57.2708 190.443 54.7515 188.573 52.8962C186.702 51.0409 184.174 49.9999 181.539 50H138.754C136.804 50.0006 134.896 50.5714 133.266 51.642L55.5047 102.765C54.1208 103.675 52.9846 104.914 52.1983 106.371C51.412 107.828 51.0002 109.458 51 111.114V195.01C51 197.659 52.0525 200.2 53.9261 202.074C55.7996 203.947 58.3407 205 60.9902 205Z" fill="url(#linearGradient2)"/>
<path d="M176.938 79.0625H80.0625V175.938H176.938V79.0625Z" fill="black"/>
<path d="M130.922 156.563H92.1719V163.828H130.922V156.563ZM92.1525 91.1525H107.754C110.297 91.1525 112.54 91.6199 114.477 92.5548C116.415 93.4896 117.909 94.8047 118.958 96.5024C120.004 98.1977 120.527 100.159 120.527 102.392C120.527 104.625 119.994 106.631 118.929 108.35C117.866 110.075 116.349 111.407 114.388 112.349C112.424 113.293 110.142 113.763 107.546 113.763H99.2389V127.495H92.1525V91.1525ZM110.413 107.21C111.307 106.766 111.995 106.134 112.479 105.313C112.964 104.49 113.206 103.536 113.206 102.446C113.206 101.356 112.964 100.382 112.479 99.5758C111.995 98.7717 111.305 98.1469 110.416 97.7061C109.525 97.2653 108.481 97.0449 107.287 97.0449H99.2389V107.871H107.287C108.481 107.871 109.525 107.653 110.416 107.21H110.413ZM104.044 111.479H111.779L121.307 127.5H113.182L104.044 111.479ZM127.563 91.1525H141.399C144.843 91.1525 147.928 91.9299 150.655 93.4896C153.347 95.013 155.562 97.2553 157.052 99.9657C158.592 102.727 159.362 105.844 159.362 109.324C159.362 112.804 158.592 115.923 157.054 118.684C155.563 121.394 153.347 123.637 150.655 125.16C147.931 126.718 144.843 127.495 141.399 127.495H127.563V91.1525ZM147.006 119.915C148.633 118.946 149.888 117.558 150.772 115.749C151.653 113.94 152.096 111.801 152.096 109.324C152.096 106.846 151.653 104.705 150.772 102.899C149.888 101.089 148.633 99.7017 147.006 98.7306C145.378 97.7618 143.484 97.2774 141.321 97.2774H134.649V121.368H141.321C143.484 121.368 145.378 120.883 147.006 119.915Z" fill="white"/>
<linearGradient id="linearGradient1" x1="208.083" y1="200.534" x2="169.786" y2="35.8795" gradientUnits="userSpaceOnUse">
<stop offset="0.21" stop-color="#007DFE"/>
<stop offset="0.55" stop-color="#FFB700"/>
</linearGradient>
<linearGradient id="linearGradient2" x1="210.001" y1="59.8498" x2="68.733" y2="215.265" gradientUnits="userSpaceOnUse">
<stop offset="0.23" stop-color="#FFB700"/>
<stop offset="0.73" stop-color="#FF0A67"/>
</linearGradient>
</svg>