<svg width="256" height="256" title="Ruby" viewBox="0 0 256 256" fill="none" xmlns="http://www.w3.org/2000/svg" id="ruby">
<style>
#ruby {
    rect {fill: #15191C}

    @media (prefers-color-scheme: light) {
        rect {fill: #F4F2ED}
    }
}
</style>
<rect width="256" height="256" rx="40" fill="#15191C"/>
<path fill-rule="evenodd" clip-rule="evenodd" d="M171.085 153.022L82.5899 205.57L197.175 197.794L206 82.2535L171.085 153.022Z" fill="url(#linearGradient1)"/>
<path fill-rule="evenodd" clip-rule="evenodd" d="M197.362 197.715L187.514 129.74L160.688 165.163L197.362 197.715Z" fill="url(#linearGradient2)"/>
<path fill-rule="evenodd" clip-rule="evenodd" d="M197.495 197.715L125.343 192.051L82.9732 205.422L197.495 197.715Z" fill="url(#linearGradient3)"/>
<path fill-rule="evenodd" clip-rule="evenodd" d="M83.0749 205.437L101.099 146.388L61.4361 154.869L83.0749 205.437Z" fill="url(#linearGradient4)"/>
<path fill-rule="evenodd" clip-rule="evenodd" d="M160.681 165.359L144.095 100.395L96.6324 144.886L160.681 165.359Z" fill="url(#linearGradient5)"/>
<path fill-rule="evenodd" clip-rule="evenodd" d="M202.237 101.311L157.371 64.667L144.878 105.058L202.237 101.311Z" fill="url(#linearGradient6)"/>
<path fill-rule="evenodd" clip-rule="evenodd" d="M181.255 51.6024L154.868 66.1847L138.22 51.4068L181.255 51.6024Z" fill="url(#linearGradient7)"/>
<path fill-rule="evenodd" clip-rule="evenodd" d="M51 174.676L62.0541 154.516L53.1122 130.499L51 174.676Z" fill="url(#linearGradient8)"/>
<path fill-rule="evenodd" clip-rule="evenodd" d="M52.5177 129.74L61.5143 155.259L100.607 146.489L145.238 105.01L157.833 65.0034L138 51L104.283 63.6187C93.6596 73.4994 73.0456 93.0494 72.3024 93.4171C71.5671 93.7926 58.6902 118.13 52.5177 129.74Z" fill="white"/>
<path fill-rule="evenodd" clip-rule="evenodd" d="M84.1076 83.8963C107.131 61.0684 136.812 47.5813 148.203 59.0735C159.586 70.5657 147.514 98.4943 124.491 121.314C101.467 144.135 72.1538 158.365 60.7711 146.873C49.3806 135.388 61.084 106.716 84.1076 83.8963Z" fill="url(#linearGradient9)"/>
<path fill-rule="evenodd" clip-rule="evenodd" d="M83.0749 205.413L100.959 146.176L160.352 165.257C138.877 185.394 114.993 202.417 83.0749 205.413Z" fill="url(#linearGradient10)"/>
<path fill-rule="evenodd" clip-rule="evenodd" d="M145.316 104.894L160.563 165.288C178.502 146.427 194.602 126.149 202.487 101.068L145.316 104.894Z" fill="url(#linearGradient11)"/>
<path fill-rule="evenodd" clip-rule="evenodd" d="M202.331 101.373C208.433 82.9576 209.841 56.5388 181.067 51.6337L157.457 64.6749L202.331 101.373Z" fill="url(#linearGradient12)"/>
<path fill-rule="evenodd" clip-rule="evenodd" d="M51 174.41C51.8449 204.804 73.7732 205.257 83.114 205.524L61.5378 155.134L51 174.41Z" fill="#9E1209"/>
<path fill-rule="evenodd" clip-rule="evenodd" d="M145.401 104.988C159.186 113.46 186.966 130.475 187.53 130.788C188.405 131.281 199.507 112.067 202.026 101.209L145.401 104.988Z" fill="url(#linearGradient13)"/>
<path fill-rule="evenodd" clip-rule="evenodd" d="M100.935 146.176L124.843 192.302C138.979 184.635 150.049 175.294 160.188 165.288L100.935 146.176Z" fill="url(#linearGradient14)"/>
<path fill-rule="evenodd" clip-rule="evenodd" d="M61.4439 155.196L58.0565 195.533C64.448 204.263 73.2412 205.022 82.4647 204.341C75.7915 187.733 62.4609 154.524 61.4439 155.196Z" fill="url(#linearGradient15)"/>
<path fill-rule="evenodd" clip-rule="evenodd" d="M157.317 64.7766L204.811 71.4419C202.276 60.7007 194.492 53.7694 181.224 51.6024L157.317 64.7766Z" fill="url(#linearGradient16)"/>
<linearGradient id="linearGradient1" x1="182.363" y1="223.19" x2="141.42" y2="150.756" gradientUnits="userSpaceOnUse">
<stop stop-color="#FB7655"/>
<stop offset="0.41" stop-color="#E42B1E"/>
<stop offset="0.99" stop-color="#990000"/>
<stop offset="1" stop-color="#990000"/>
</linearGradient>
<linearGradient id="linearGradient2" x1="231.809" y1="145.118" x2="130.735" y2="19.0542" gradientUnits="userSpaceOnUse">
<stop stop-color="#871101"/>
<stop offset="0.99" stop-color="#911209"/>
<stop offset="1" stop-color="#911209"/>
</linearGradient>
<linearGradient id="linearGradient3" x1="168.45" y1="390.013" x2="86.2397" y2="383.554" gradientUnits="userSpaceOnUse">
<stop stop-color="#871101"/>
<stop offset="0.99" stop-color="#911209"/>
<stop offset="1" stop-color="#911209"/>
</linearGradient>
<linearGradient id="linearGradient4" x1="128.519" y1="62.1823" x2="140.122" y2="174.755" gradientUnits="userSpaceOnUse">
<stop stop-color="white"/>
<stop offset="0.23" stop-color="#E57252"/>
<stop offset="0.46" stop-color="#DE3B20"/>
<stop offset="0.99" stop-color="#A60003"/>
<stop offset="1" stop-color="#A60003"/>
</linearGradient>
<linearGradient id="linearGradient5" x1="122.57" y1="76.2689" x2="128.201" y2="179.376" gradientUnits="userSpaceOnUse">
<stop stop-color="white"/>
<stop offset="0.23" stop-color="#E4714E"/>
<stop offset="0.56" stop-color="#BE1A0D"/>
<stop offset="0.99" stop-color="#A80D00"/>
<stop offset="1" stop-color="#A80D00"/>
</linearGradient>
<linearGradient id="linearGradient6" x1="108.296" y1="75.1031" x2="145.44" y2="188.135" gradientUnits="userSpaceOnUse">
<stop stop-color="white"/>
<stop offset="0.18" stop-color="#E46342"/>
<stop offset="0.4" stop-color="#C82410"/>
<stop offset="0.99" stop-color="#A80D00"/>
<stop offset="1" stop-color="#A80D00"/>
</linearGradient>
<linearGradient id="linearGradient7" x1="72.0934" y1="141.185" x2="207.869" y2="117.808" gradientUnits="userSpaceOnUse">
<stop stop-color="white"/>
<stop offset="0.54" stop-color="#C81F11"/>
<stop offset="0.99" stop-color="#BF0905"/>
<stop offset="1" stop-color="#BF0905"/>
</linearGradient>
<linearGradient id="linearGradient8" x1="93.8175" y1="83.6677" x2="96.0697" y2="174.033" gradientUnits="userSpaceOnUse">
<stop stop-color="white"/>
<stop offset="0.31" stop-color="#DE4024"/>
<stop offset="0.99" stop-color="#BF190B"/>
<stop offset="1" stop-color="#BF190B"/>
</linearGradient>
<linearGradient id="linearGradient9" x1="18.9659" y1="240.011" x2="212.304" y2="40.9349" gradientUnits="userSpaceOnUse">
<stop stop-color="#BD0012"/>
<stop offset="0.07" stop-color="white"/>
<stop offset="0.17" stop-color="white"/>
<stop offset="0.27" stop-color="#C82F1C"/>
<stop offset="0.33" stop-color="#820C01"/>
<stop offset="0.46" stop-color="#A31601"/>
<stop offset="0.72" stop-color="#B31301"/>
<stop offset="0.99" stop-color="#E82609"/>
<stop offset="1" stop-color="#E82609"/>
</linearGradient>
<linearGradient id="linearGradient10" x1="142.128" y1="151.787" x2="67.7976" y2="137.685" gradientUnits="userSpaceOnUse">
<stop stop-color="#8C0C01"/>
<stop offset="0.54" stop-color="#990C00"/>
<stop offset="0.99" stop-color="#A80D0E"/>
<stop offset="1" stop-color="#A80D0E"/>
</linearGradient>
<linearGradient id="linearGradient11" x1="173.945" y1="147.998" x2="96.1087" y2="69.4156" gradientUnits="userSpaceOnUse">
<stop stop-color="#7E110B"/>
<stop offset="0.99" stop-color="#9E0C00"/>
<stop offset="1" stop-color="#9E0C00"/>
</linearGradient>
<linearGradient id="linearGradient12" x1="194.964" y1="165.571" x2="145.316" y2="110.95" gradientUnits="userSpaceOnUse">
<stop stop-color="#79130D"/>
<stop offset="0.99" stop-color="#9E120B"/>
<stop offset="1" stop-color="#9E120B"/>
</linearGradient>
<radialGradient id="linearGradient13" cx="0" cy="0" r="1" gradientUnits="userSpaceOnUse" gradientTransform="translate(100.601 113.153) scale(107.838 205.8)">
<stop stop-color="#A80D00"/>
<stop offset="0.99" stop-color="#7E0E08"/>
<stop offset="1" stop-color="#7E0E08"/>
</radialGradient>
<radialGradient id="linearGradient14" cx="0" cy="0" r="1" gradientUnits="userSpaceOnUse" gradientTransform="translate(72.0015 114.157) scale(136.999 175.5)">
<stop stop-color="#A30C00"/>
<stop offset="0.99" stop-color="#800E08"/>
<stop offset="1" stop-color="#800E08"/>
</radialGradient>
<linearGradient id="linearGradient15" x1="138.684" y1="208.223" x2="117.222" y2="60.6095" gradientUnits="userSpaceOnUse">
<stop stop-color="#8B2114"/>
<stop offset="0.43" stop-color="#9E100A"/>
<stop offset="0.99" stop-color="#B3100C"/>
<stop offset="1" stop-color="#B3100C"/>
</linearGradient>
<linearGradient id="linearGradient16" x1="171.978" y1="58.665" x2="201.235" y2="71.5795" gradientUnits="userSpaceOnUse">
<stop stop-color="#B31000"/>
<stop offset="0.44" stop-color="#910F08"/>
<stop offset="0.99" stop-color="#791C12"/>
<stop offset="1" stop-color="#791C12"/>
</linearGradient>
</svg>