<svg width="256" height="256" title="Rust" viewBox="0 0 256 256" fill="none" xmlns="http://www.w3.org/2000/svg" id="rust">
<style>
#rust {
    rect {fill: #15191C}
    path {fill: #F4F2ED}

    @media (prefers-color-scheme: light) {
        rect {fill: #F4F2ED}
        path {fill: #15191C}
    }
}
</style>
<rect width="256" height="256" rx="40" fill="#15191C"/>
<path d="M209.864 126.434L202.939 122.147C202.881 121.474 202.816 120.801 202.744 120.129L208.695 114.581C208.989 114.303 209.207 113.954 209.33 113.568C209.452 113.183 209.475 112.772 209.395 112.375C209.316 111.978 209.138 111.608 208.877 111.299C208.615 110.99 208.28 110.752 207.902 110.607L200.294 107.761C200.106 107.103 199.907 106.448 199.696 105.797L204.443 99.2063C204.681 98.877 204.83 98.4922 204.877 98.0887C204.925 97.6851 204.868 97.2762 204.712 96.9009C204.557 96.5255 204.308 96.1962 203.989 95.9444C203.67 95.6925 203.292 95.5265 202.891 95.4621L194.872 94.1599C194.559 93.554 194.237 92.953 193.905 92.3573L197.274 84.959C197.444 84.5901 197.516 84.1836 197.483 83.7789C197.45 83.3742 197.313 82.9847 197.085 82.6482C196.859 82.3111 196.55 82.037 196.189 81.8518C195.827 81.6666 195.425 81.5764 195.019 81.5895L186.875 81.8755C186.457 81.3464 186.028 80.8265 185.588 80.3162L187.46 72.3892C187.552 71.9939 187.542 71.5815 187.431 71.1911C187.32 70.8007 187.111 70.4451 186.824 70.1579C186.537 69.8708 186.181 69.6616 185.791 69.5501C185.4 69.4387 184.988 69.4286 184.593 69.5209L176.664 71.3937C176.147 70.9589 175.625 70.5297 175.098 70.106L175.383 61.9624C175.403 61.5549 175.317 61.1494 175.133 60.7851C174.95 60.4208 174.675 60.1101 174.336 59.8832C173.997 59.6563 173.605 59.5209 173.199 59.4901C172.792 59.4592 172.384 59.5341 172.015 59.7073L164.617 63.083C164.018 62.7558 163.419 62.4285 162.814 62.1157L161.505 54.0904C161.437 53.6912 161.269 53.3158 161.017 52.9993C160.764 52.6827 160.436 52.4354 160.061 52.2804C159.687 52.1254 159.28 52.0678 158.878 52.1129C158.475 52.1581 158.091 52.3046 157.76 52.5387L151.162 57.2859C150.512 57.0774 149.857 56.8802 149.2 56.6947L146.353 49.0867C146.209 48.7085 145.971 48.3731 145.662 48.1119C145.352 47.8506 144.982 47.672 144.585 47.5928C144.188 47.5135 143.778 47.5362 143.392 47.6587C143.006 47.7812 142.657 47.9995 142.379 48.2933L136.831 54.2512C136.16 54.1755 135.487 54.1104 134.813 54.056L130.525 47.13C130.312 46.7846 130.014 46.4994 129.66 46.3016C129.305 46.1038 128.906 46 128.5 46C128.094 46 127.695 46.1038 127.34 46.3016C126.986 46.4994 126.688 46.7846 126.475 47.13L122.187 54.0553C121.514 54.1132 120.841 54.1783 120.169 54.2506L114.614 48.2926C114.338 47.9952 113.989 47.7737 113.603 47.6489C113.216 47.5242 112.804 47.5005 112.406 47.58C112.008 47.6595 111.636 47.8397 111.327 48.1033C111.018 48.3669 110.782 48.7052 110.641 49.086L107.794 56.6933C107.132 56.8817 106.485 57.0831 105.831 57.2846L99.2395 52.5387C98.9091 52.3046 98.5246 52.1581 98.1222 52.113C97.7197 52.0678 97.3124 52.1255 96.9383 52.2806C96.5642 52.4357 96.2356 52.6831 95.9831 52.9997C95.7306 53.3163 95.5626 53.6918 95.4946 54.0911L94.1863 62.1157C93.5803 62.4286 92.9794 62.751 92.3836 63.083L84.9846 59.7073C84.6151 59.5382 84.2083 59.4666 83.8032 59.4992C83.3981 59.5318 83.008 59.6677 82.6703 59.8937C82.3325 60.1198 82.0583 60.4287 81.8737 60.7908C81.6891 61.1529 81.6004 61.5562 81.6158 61.9624L81.9018 70.106C81.3719 70.5255 80.8498 70.9548 80.3357 71.3937L72.408 69.5202C72.0127 69.4278 71.6003 69.4378 71.2099 69.5492C70.8195 69.6605 70.464 69.8696 70.1769 70.1567C69.8898 70.4438 69.6807 70.7993 69.5694 71.1897C69.458 71.5801 69.448 71.9925 69.5404 72.3878L71.4056 80.3155C70.9738 80.8311 70.5428 81.353 70.1248 81.8748L61.9812 81.5895C61.575 81.574 61.1717 81.6627 60.8096 81.8473C60.4475 82.0319 60.1387 82.3061 59.9126 82.6439C59.6865 82.9817 59.5506 83.3717 59.518 83.7768C59.4854 84.1819 59.557 84.5887 59.7262 84.9583L63.1018 92.3566C62.7697 92.9522 62.4472 93.5532 62.1345 94.1592L54.1168 95.4614C53.7176 95.5294 53.3423 95.6974 53.0257 95.9499C52.7092 96.2023 52.4618 96.5309 52.3068 96.9049C52.1517 97.2789 52.094 97.6861 52.1391 98.0884C52.1841 98.4908 52.3304 98.8751 52.5644 99.2056L57.3109 105.797C57.1042 106.449 56.9048 107.103 56.7128 107.76L49.1055 110.606C48.7273 110.75 48.3918 110.988 48.1305 111.297C47.8692 111.607 47.6905 111.977 47.6112 112.374C47.5319 112.771 47.5545 113.182 47.677 113.567C47.7994 113.953 48.0177 114.302 48.3114 114.58L54.2625 120.129C54.187 120.8 54.1221 121.473 54.0679 122.146L47.1426 126.434C46.7939 126.644 46.5055 126.942 46.3054 127.296C46.1052 127.651 46 128.052 46 128.459C46 128.867 46.1052 129.267 46.3054 129.622C46.5055 129.977 46.7939 130.274 47.1426 130.485L54.0679 134.772C54.1229 135.447 54.1931 136.122 54.2625 136.79L48.3114 142.345C48.0141 142.622 47.7925 142.97 47.6679 143.356C47.5432 143.743 47.5195 144.155 47.5991 144.553C47.6787 144.952 47.8589 145.323 48.1226 145.632C48.3863 145.941 48.7246 146.177 49.1055 146.319L56.7128 149.166C56.9005 149.827 57.1026 150.482 57.3109 151.129L52.5644 157.72C52.3241 158.049 52.1728 158.435 52.1248 158.839C52.0769 159.244 52.134 159.654 52.2907 160.031C52.4474 160.407 52.6983 160.737 53.0193 160.988C53.3404 161.239 53.7207 161.403 54.1236 161.465L62.1414 162.766C62.4549 163.371 62.7753 163.97 63.1094 164.569L59.7337 171.968C59.5646 172.337 59.4929 172.744 59.5256 173.149C59.5582 173.554 59.694 173.944 59.9201 174.282C60.1462 174.62 60.455 174.894 60.8171 175.079C61.1793 175.263 61.5826 175.352 61.9888 175.336L70.1248 175.051C70.5497 175.58 70.9738 176.102 71.4125 176.617L69.5473 184.551C69.4543 184.946 69.4639 185.359 69.5752 185.749C69.6865 186.139 69.8958 186.495 70.1831 186.781C70.4705 187.068 70.8264 187.277 71.217 187.387C71.6076 187.497 72.02 187.506 72.4149 187.412L80.3419 185.547C80.8575 185.985 81.38 186.41 81.9087 186.828L81.6234 194.971C81.6052 195.378 81.6924 195.783 81.8764 196.146C82.0604 196.509 82.3351 196.819 82.6739 197.045C83.0127 197.271 83.404 197.406 83.8102 197.437C84.2163 197.467 84.6235 197.392 84.9922 197.219L92.3905 193.85C92.9887 194.185 93.5875 194.504 94.1932 194.818L95.5015 202.836C95.5685 203.235 95.7358 203.612 95.9879 203.929C96.24 204.247 96.5685 204.495 96.9428 204.651C97.317 204.807 97.7247 204.865 98.1276 204.82C98.5305 204.775 98.9155 204.629 99.2464 204.395L105.838 199.648C106.489 199.858 107.143 200.058 107.8 200.246L110.647 207.854C110.786 208.237 111.022 208.577 111.331 208.842C111.64 209.106 112.012 209.287 112.411 209.367C112.81 209.447 113.223 209.422 113.61 209.296C113.997 209.171 114.345 208.947 114.621 208.648L120.176 202.697C120.844 202.773 121.519 202.836 122.194 202.899L126.481 209.824C126.696 210.168 126.994 210.452 127.349 210.648C127.703 210.845 128.102 210.948 128.507 210.948C128.912 210.948 129.311 210.845 129.665 210.648C130.019 210.452 130.318 210.168 130.532 209.824L134.82 202.899C135.495 202.836 136.17 202.773 136.838 202.697L142.386 208.648C142.664 208.941 143.013 209.16 143.398 209.282C143.784 209.404 144.195 209.427 144.592 209.348C144.988 209.269 145.359 209.09 145.668 208.829C145.977 208.568 146.215 208.232 146.359 207.854L149.206 200.246C149.864 200.059 150.519 199.859 151.169 199.648L157.76 204.395C158.09 204.635 158.475 204.786 158.88 204.834C159.285 204.882 159.695 204.825 160.071 204.669C160.448 204.512 160.777 204.261 161.029 203.94C161.28 203.619 161.444 203.239 161.505 202.836L162.814 194.818C163.419 194.504 164.018 194.178 164.616 193.85L172.015 197.219C172.385 197.386 172.79 197.456 173.194 197.423C173.598 197.39 173.986 197.254 174.323 197.03C174.66 196.805 174.934 196.498 175.12 196.138C175.306 195.777 175.397 195.376 175.384 194.971L175.099 186.828C175.628 186.412 176.147 185.985 176.657 185.547L184.585 187.412C184.98 187.504 185.391 187.494 185.781 187.383C186.17 187.272 186.525 187.063 186.812 186.777C187.099 186.491 187.308 186.137 187.42 185.747C187.532 185.358 187.544 184.947 187.453 184.552L185.588 176.617C186.019 176.102 186.45 175.58 186.868 175.05L195.012 175.336C195.419 175.355 195.825 175.269 196.189 175.085C196.554 174.902 196.864 174.627 197.091 174.288C197.318 173.949 197.453 173.558 197.484 173.151C197.515 172.744 197.44 172.336 197.267 171.967L193.898 164.569C194.225 163.97 194.552 163.372 194.865 162.766L202.883 161.465C203.282 161.397 203.658 161.229 203.975 160.976C204.291 160.724 204.539 160.395 204.694 160.021C204.849 159.647 204.906 159.239 204.861 158.837C204.816 158.435 204.67 158.05 204.436 157.72L199.689 151.129L200.287 149.166L207.895 146.319C208.276 146.178 208.615 145.942 208.878 145.633C209.142 145.324 209.322 144.952 209.402 144.554C209.481 144.155 209.457 143.743 209.333 143.356C209.208 142.97 208.986 142.622 208.689 142.345L202.738 136.79C202.807 136.122 202.876 135.447 202.932 134.772L209.857 130.485C210.206 130.274 210.494 129.977 210.695 129.622C210.895 129.267 211 128.867 211 128.459C211 128.052 210.895 127.651 210.695 127.296C210.494 126.942 210.206 126.644 209.857 126.434L209.864 126.434ZM163.517 183.877C162.25 183.598 161.146 182.83 160.444 181.74C159.742 180.649 159.5 179.325 159.771 178.057C160.043 176.789 160.805 175.68 161.891 174.972C162.978 174.264 164.3 174.015 165.57 174.279C166.209 174.405 166.817 174.658 167.357 175.021C167.898 175.384 168.361 175.852 168.719 176.396C169.077 176.94 169.323 177.55 169.443 178.19C169.563 178.831 169.555 179.488 169.418 180.125C169.281 180.762 169.019 181.365 168.647 181.9C168.274 182.435 167.8 182.89 167.25 183.239C166.7 183.588 166.086 183.824 165.444 183.934C164.802 184.043 164.144 184.024 163.509 183.877H163.517ZM161.164 167.966C160.59 167.843 159.998 167.834 159.42 167.94C158.842 168.046 158.291 168.265 157.799 168.584C157.306 168.903 156.881 169.317 156.548 169.801C156.216 170.285 155.982 170.829 155.86 171.404L153.404 182.875C145.817 186.319 137.395 188.234 128.521 188.234C119.745 188.247 111.074 186.337 103.116 182.638L100.659 171.167C100.538 170.593 100.304 170.049 99.9711 169.565C99.6384 169.082 99.2134 168.669 98.7206 168.35C98.2277 168.031 97.6768 167.813 97.0993 167.707C96.5219 167.602 95.9293 167.612 95.3558 167.737L85.2287 169.908C83.347 167.97 81.5983 165.908 79.9947 163.734H129.273C129.83 163.734 130.205 163.637 130.205 163.129V145.694C130.205 145.185 129.837 145.088 129.273 145.088H114.858V134.035H130.449C131.869 134.035 138.056 134.438 140.033 142.346C140.652 144.775 142.01 152.688 142.943 155.222C143.868 158.061 147.64 163.734 151.664 163.734H176.219C176.518 163.73 176.816 163.7 177.11 163.644C175.407 165.957 173.542 168.146 171.528 170.193L161.164 167.966ZM93.0031 183.64C92.3685 183.787 91.711 183.807 91.0689 183.697C90.4267 183.588 89.8128 183.352 89.2629 183.002C88.713 182.653 88.2381 182.198 87.8658 181.663C87.4936 181.129 87.2314 180.526 87.0947 179.889C86.958 179.252 86.9494 178.594 87.0694 177.954C87.1894 177.314 87.4357 176.704 87.7938 176.159C88.152 175.615 88.6148 175.148 89.1554 174.784C89.696 174.421 90.3036 174.169 90.9426 174.043C92.2062 173.793 93.5172 174.05 94.593 174.758C95.6689 175.466 96.4233 176.569 96.6937 177.828C96.964 179.087 96.7286 180.402 96.0382 181.49C95.3478 182.577 94.2578 183.349 93.0031 183.64ZM74.3083 107.83C74.5919 108.422 74.7538 109.064 74.7846 109.72C74.8153 110.375 74.7143 111.031 74.4874 111.646C74.2605 112.262 73.9123 112.826 73.4636 113.305C73.0148 113.784 72.4745 114.168 71.8747 114.434C71.2749 114.701 70.6278 114.844 69.9716 114.856C69.3154 114.868 68.6635 114.748 68.0545 114.503C67.4455 114.259 66.8918 113.894 66.426 113.432C65.9603 112.969 65.5921 112.418 65.3431 111.811C64.8603 110.63 64.8566 109.307 65.3328 108.123C65.809 106.94 66.7277 105.988 67.8939 105.47C69.0601 104.952 70.3822 104.909 71.5797 105.35C72.7772 105.79 73.7559 106.679 74.3083 107.83ZM68.5662 121.451L79.1174 116.76C79.6542 116.521 80.1387 116.18 80.5432 115.754C80.9478 115.328 81.2645 114.827 81.4752 114.279C81.6859 113.731 81.7865 113.146 81.7712 112.559C81.7559 111.972 81.6251 111.394 81.3862 110.858L79.2151 105.944H87.7622V144.462H70.5215C68.3955 136.986 67.7339 129.17 68.5731 121.444L68.5662 121.451ZM114.865 117.713V106.361H135.216C136.268 106.361 142.636 107.579 142.636 112.34C142.636 116.294 137.75 117.713 133.734 117.713H114.865ZM188.824 127.931C188.824 129.435 188.769 130.931 188.657 132.407H182.469C181.85 132.407 181.599 132.81 181.599 133.422V136.262C181.599 142.951 177.827 144.406 174.521 144.775C171.375 145.13 167.888 143.459 167.456 141.532C165.597 131.091 162.508 128.857 157.622 125.008C163.683 121.159 169.99 115.479 169.99 107.879C169.99 99.6724 164.359 94.5009 160.524 91.9606C155.144 88.411 149.186 87.7014 147.578 87.7014H83.5931C92.436 77.8135 104.294 71.1196 117.329 68.6581L124.874 76.5713C125.278 76.9966 125.762 77.3379 126.299 77.5755C126.835 77.8131 127.413 77.9425 128 77.9561C128.587 77.9697 129.17 77.8673 129.717 77.6548C130.264 77.4423 130.763 77.1238 131.187 76.7178L139.623 68.6443C148.224 70.2575 156.371 73.7226 163.5 78.7992C170.628 83.8759 176.567 90.4425 180.904 98.0437L175.126 111.094C174.648 112.178 174.618 113.407 175.043 114.513C175.468 115.619 176.314 116.512 177.395 116.996L188.518 121.938C188.712 123.915 188.81 125.905 188.81 127.931H188.824ZM124.881 61.9349C125.821 61.0378 127.08 60.551 128.379 60.5817C129.023 60.5969 129.657 60.7387 130.245 60.9989C130.834 61.2592 131.365 61.6328 131.81 62.0985C132.254 62.5642 132.602 63.1128 132.834 63.7131C133.066 64.3133 133.178 64.9534 133.163 65.5968C133.148 66.2402 133.006 66.8743 132.746 67.4629C132.485 68.0515 132.112 68.583 131.646 69.0272C130.693 69.8501 129.46 70.275 128.202 70.214C126.944 70.1531 125.758 69.6109 124.889 68.6997C124.02 67.7886 123.534 66.5782 123.533 65.3189C123.531 64.0597 124.014 62.8481 124.881 61.9349ZM182.212 108.067C182.471 107.478 182.844 106.947 183.31 106.503C183.775 106.059 184.324 105.711 184.924 105.479C185.524 105.248 186.164 105.137 186.807 105.153C187.45 105.17 188.083 105.313 188.671 105.575C189.559 105.967 190.311 106.613 190.832 107.433C191.352 108.252 191.618 109.208 191.596 110.179C191.573 111.149 191.263 112.091 190.704 112.886C190.146 113.68 189.365 114.291 188.459 114.641C187.553 114.991 186.564 115.064 185.617 114.852C184.67 114.639 183.806 114.151 183.137 113.448C182.467 112.745 182.021 111.859 181.855 110.902C181.69 109.946 181.811 108.961 182.205 108.074L182.212 108.067Z" fill="#F4F2ED"/>
</svg>