<svg width="256" height="256" viewBox="0 0 256 256" fill="none" xmlns="http://www.w3.org/2000/svg" id="sap">
<style>
#sap {
    rect {fill: #15191C}

    @media (prefers-color-scheme: light) {
        rect {fill: #F4F2ED}
    }
}
</style>
<rect width="256" height="256" rx="25" fill="#15191C"/>
<path d="M230 82H45V173.484H138.516" fill="url(#linearGradient)"/>
<path d="M136.484 100.297V143.396L120.626 100.297H104.769L91.3516 136.077C89.7253 127.132 80.3736 123.879 73.0549 121.44C68.1758 119.813 62.8901 117.78 62.8901 114.934C62.8901 112.901 65.7363 110.868 71.022 111.275C74.6813 111.681 77.9341 111.681 84.4396 114.934L90.9451 103.956C84.8462 100.703 76.7143 99.0769 70.2088 99.0769C62.4835 99.0769 55.978 101.516 51.9121 105.582C49.0659 108.429 47.8462 112.088 47.4396 116.154C47.4396 121.846 49.4725 125.912 53.9451 129.165C57.6044 131.604 62.0769 133.231 66.1429 134.451C71.4286 136.077 75.4945 137.703 75.4945 140.549C75.0879 144.209 71.022 145.022 68.1758 145.022C63.2967 145.429 59.2308 144.615 53.1319 140.956L47.4396 151.934C53.5385 155.593 60.044 157.22 67.7692 157.22C73.0549 157.22 81.1868 155.593 85.6593 151.527L84.8462 155.187H100.297L103.143 148.275C109.242 149.901 116.154 150.308 122.253 148.275L124.286 155.187H151.934V138.923H157.626C171.857 138.923 180.396 132.011 180.396 119.813C180.396 105.989 172.264 100.297 154.78 100.297H136.484ZM106.802 136.077L112.495 117.78H112.901L118.593 136.077C114.527 137.297 110.462 137.297 106.802 136.077ZM151.934 126.725V112.088H156C161.286 112.088 165.352 113.714 165.352 119C165.352 124.692 161.286 126.725 156 126.725H151.934Z" fill="#F4F2ED"/>
<linearGradient id="linearGradient" x1="45" y1="82" x2="45" y2="173.484" gradientUnits="userSpaceOnUse">
<stop stop-color="#00AAEE"/>
<stop offset="1" stop-color="#0055AA"/>
</linearGradient>
</svg>