<svg width="256" height="256" title="Scala" viewBox="0 0 256 256" fill="none" xmlns="http://www.w3.org/2000/svg">
<rect width="256" height="256" rx="40" fill="#DC322F"/>
<path fill-rule="evenodd" clip-rule="evenodd" d="M74.7587 105.893C76.2349 107.928 88.6824 111.766 107.25 115.763C125.817 119.322 145.127 133.373 160.144 129.041C170.301 126.104 181.32 99.9405 181.32 96.0546V95.6557C181.32 92.9428 179.286 90.7645 175.831 88.9532C161.668 81.7161 158.987 79.051 153.736 80.4953C126.48 88.0196 78.3573 84.1737 74.7587 105.893Z" fill="#A9A9A9" fill-opacity="0.75"/>
<path fill-rule="evenodd" clip-rule="evenodd" d="M74.7587 159.018C76.2349 161.085 88.6824 164.891 107.25 168.896C127.996 172.679 146.037 185.006 161.061 180.666C171.219 177.729 181.32 153.074 181.32 149.18V148.797C181.32 146.092 179.286 143.906 175.831 142.102C165.027 136.357 150.752 130.03 145.51 131.474C118.205 138.983 81.7086 140.634 74.7587 159.018Z" fill="#A9A9A9" fill-opacity="0.75"/>
<path fill-rule="evenodd" clip-rule="evenodd" d="M161.021 53.1906C135.919 60.4436 96.095 64.5369 74.639 64.5369V105.51C74.6462 105.651 74.6989 105.785 74.7906 105.893C89.4324 105.893 134.634 101.105 161.907 93.605C166.664 92.3946 171.327 90.845 175.863 88.9691C179.198 87.4691 181.352 85.8892 181.352 84.2455V42.9214C181.32 46.8152 171.179 50.2622 161.021 53.1906Z" fill="white"/>
<path fill-rule="evenodd" clip-rule="evenodd" d="M161.021 106.324C145.997 110.657 125.722 113.88 107.25 115.763C94.8503 117.032 83.2645 117.694 74.639 117.694V158.635C74.6462 158.776 74.6989 158.911 74.7906 159.018C89.4324 159.018 134.634 154.231 161.907 146.738C166.663 145.524 171.326 143.975 175.863 142.102C179.198 140.594 181.352 139.022 181.352 137.379V96.0546C181.32 99.9405 171.179 103.387 161.021 106.324Z" fill="white"/>
<path fill-rule="evenodd" clip-rule="evenodd" d="M161.021 159.489C145.997 163.822 125.722 167.037 107.25 168.928C94.8343 170.197 83.2326 170.859 74.6071 170.859V212.151C89.0973 212.151 134.531 207.404 161.875 199.872C171.953 197.095 181.32 193.935 181.32 190.504V149.18C181.32 153.106 171.179 156.521 161.021 159.489Z" fill="white"/>
</svg>