<svg width="256" height="256" title="scikit-learn" viewBox="0 0 256 256" fill="none" xmlns="http://www.w3.org/2000/svg" id="scikitlearn">
<style>
#scikitlearn {
    rect {fill: #15191C}
    path.learn {fill: #F4F2ED}

    @media (prefers-color-scheme: light) {
        rect {fill: #F4F2ED}
        path.learn {fill: #15191C}
    }
}
</style>
<rect width="256" height="256" rx="40" fill="#15191C"/>
<path d="M177.9 162.78C200.494 140.188 204.249 107.314 186.287 89.3526C168.327 71.3936 135.454 75.148 112.862 97.7394C90.2689 120.331 96.8045 163.494 104.476 171.167C110.676 177.367 155.309 185.372 177.9 162.78Z" fill="#F89939"/>
<path d="M85.1929 130.134C72.0857 117.027 53.0107 114.845 42.5872 125.268C32.1664 135.689 34.3452 154.767 47.455 167.872C60.5649 180.984 85.6099 177.191 90.0581 172.739C93.6578 169.145 98.3041 143.243 85.1929 130.134Z" fill="#3499CD"/>
<path d="M130.418 157.243C128.102 159.374 126.071 160.947 124.325 161.958C122.579 162.972 120.914 163.478 119.33 163.478C117.507 163.478 116.037 162.772 114.922 161.358C113.806 159.943 113.249 158.046 113.249 155.659C113.249 152.083 114.024 147.789 115.575 142.783C117.122 137.773 119.007 133.157 121.22 128.934L127.711 126.531C127.914 126.463 128.069 126.428 128.172 126.428C128.664 126.428 129.071 126.791 129.383 127.513C129.699 128.239 129.857 129.215 129.857 130.441C129.857 133.916 129.057 137.28 127.454 140.533C125.852 143.788 123.349 147.262 119.943 150.958C119.806 152.73 119.738 153.947 119.738 154.612C119.738 156.095 120.01 157.268 120.555 158.137C121.101 159.008 121.824 159.44 122.727 159.44C123.649 159.44 124.627 159.111 125.667 158.446C126.704 157.78 128.288 156.402 130.417 154.306V157.243H130.418ZM120.633 147.254C122.795 144.849 124.552 142.152 125.897 139.168C127.242 136.183 127.913 133.615 127.913 131.464C127.913 130.837 127.821 130.327 127.635 129.944C127.447 129.561 127.207 129.368 126.918 129.368C126.29 129.368 125.373 130.937 124.172 134.076C122.97 137.214 121.791 141.607 120.633 147.254Z" class="learn" fill="#F4F2ED"/>
<path d="M149.531 157.243C147.369 159.374 145.427 160.947 143.706 161.958C141.985 162.972 140.088 163.478 138.009 163.478C135.692 163.478 133.823 162.737 132.398 161.257C130.977 159.772 130.267 157.824 130.267 155.404C130.267 151.794 131.518 148.527 134.025 145.606C136.526 142.683 139.304 141.223 142.353 141.223C143.937 141.223 145.205 141.633 146.16 142.45C147.114 143.269 147.591 144.341 147.591 145.67C147.591 149.197 143.844 152.057 136.349 154.255C137.029 157.575 138.809 159.237 141.688 159.237C142.813 159.237 143.885 158.935 144.906 158.332C145.93 157.726 147.471 156.383 149.532 154.306L149.531 157.243ZM136.143 152.517C140.502 151.29 142.684 149.025 142.684 145.721C142.684 144.086 142.087 143.268 140.896 143.268C139.771 143.268 138.699 144.123 137.678 145.837C136.653 147.548 136.143 149.773 136.143 152.517Z" class="learn" fill="#F4F2ED"/>
<path d="M176.82 157.243C174.094 159.832 172.144 161.52 170.969 162.305C169.794 163.088 168.67 163.479 167.596 163.479C164.904 163.479 163.636 161.103 163.789 156.35C162.086 158.785 160.513 160.582 159.074 161.743C157.635 162.901 156.15 163.479 154.615 163.479C153.118 163.479 151.845 162.778 150.796 161.372C149.746 159.967 149.225 158.243 149.225 156.197C149.225 153.643 149.926 151.207 151.331 148.889C152.738 146.572 154.539 144.7 156.736 143.269C158.932 141.838 160.876 141.122 162.561 141.122C164.691 141.122 166.182 142.102 167.034 144.06L172.256 141.174H173.689L171.433 148.659C170.275 152.425 169.694 155.006 169.694 156.402C169.694 157.867 170.212 158.599 171.252 158.599C171.914 158.599 172.647 158.246 173.448 157.538C174.249 156.831 175.371 155.753 176.819 154.306V157.243H176.82ZM158.116 158.65C159.82 158.65 161.425 157.198 162.935 154.294C164.443 151.389 165.196 148.709 165.196 146.256C165.196 145.304 164.981 144.557 164.557 144.022C164.13 143.483 163.559 143.216 162.845 143.216C161.141 143.216 159.525 144.664 158.004 147.56C156.479 150.457 155.716 153.123 155.716 155.556C155.716 156.478 155.942 157.223 156.393 157.794C156.844 158.365 157.417 158.65 158.116 158.65Z" class="learn" fill="#F4F2ED"/>
<path d="M195.908 157.243C191.632 161.433 188.335 163.53 186.019 163.53C184.979 163.53 184.101 163.091 183.387 162.216C182.673 161.338 182.313 160.251 182.313 158.956C182.313 156.554 183.601 153.336 186.173 149.298C184.911 149.946 183.533 150.396 182.033 150.652C180.926 152.696 179.187 154.894 176.821 157.242H176.234V154.945C177.562 153.566 178.763 152.083 179.837 150.498C178.37 149.851 177.638 148.888 177.638 147.613C177.638 146.299 178.084 144.899 178.981 143.406C179.875 141.917 181.105 141.173 182.673 141.173C184.002 141.173 184.665 141.852 184.665 143.216C184.665 144.289 184.282 145.821 183.514 147.815C186.341 147.508 188.812 145.346 190.925 141.325L193.249 141.222L190.873 147.763C189.886 150.523 189.247 152.403 188.958 153.398C188.669 154.394 188.523 155.277 188.523 156.042C188.523 156.758 188.69 157.331 189.021 157.754C189.353 158.183 189.801 158.394 190.363 158.394C190.975 158.394 191.564 158.184 192.126 157.769C192.688 157.348 193.948 156.195 195.908 154.305V157.243H195.908Z" class="learn" fill="#F4F2ED"/>
<path d="M221 157.243C217.065 161.401 213.691 163.479 210.881 163.479C209.74 163.479 208.82 163.079 208.122 162.277C207.422 161.478 207.073 160.405 207.073 159.059C207.073 157.237 207.823 154.451 209.323 150.705C210.123 148.695 210.525 147.415 210.525 146.872C210.525 146.326 210.31 146.053 209.886 146.053C209.648 146.053 209.331 146.174 208.94 146.41C208.581 146.649 208.164 146.983 207.687 147.408C207.262 147.799 206.783 148.276 206.256 148.837C205.795 149.318 205.3 149.862 204.775 150.473L203.343 152.135C202.713 152.901 202.321 153.709 202.168 154.562C201.912 156.009 201.742 157.34 201.656 158.55C201.604 159.451 201.579 160.668 201.579 162.204L195.932 163.53C195.746 161.231 195.651 159.518 195.651 158.396C195.651 155.653 195.97 153.055 196.61 150.602C197.249 148.148 198.274 145.39 199.689 142.322L205.922 141.122C204.611 144.649 203.751 147.424 203.343 149.45C206.136 146.334 208.351 144.176 209.993 142.974C211.632 141.772 213.092 141.174 214.367 141.174C215.234 141.174 215.958 141.501 216.535 142.156C217.115 142.811 217.403 143.633 217.403 144.617C217.403 146.25 216.671 148.942 215.208 152.691C214.202 155.262 213.699 156.931 213.699 157.701C213.699 158.726 214.117 159.239 214.953 159.239C216.199 159.239 218.216 157.594 221 154.307V157.243Z" class="learn" fill="#F4F2ED"/>
<path d="M145.418 125.429L144.259 125.757C144.186 125.564 144.078 125.376 143.936 125.194C143.798 125.008 143.608 124.855 143.368 124.734C143.127 124.614 142.819 124.554 142.444 124.554C141.93 124.554 141.501 124.673 141.159 124.909C140.82 125.143 140.65 125.44 140.65 125.801C140.65 126.121 140.767 126.375 141 126.561C141.234 126.747 141.598 126.901 142.094 127.025L143.34 127.332C144.091 127.514 144.651 127.793 145.019 128.168C145.387 128.54 145.571 129.019 145.571 129.606C145.571 130.087 145.433 130.517 145.156 130.896C144.882 131.275 144.499 131.574 144.007 131.793C143.515 132.012 142.943 132.121 142.291 132.121C141.434 132.121 140.725 131.935 140.164 131.563C139.602 131.192 139.247 130.648 139.098 129.934L140.322 129.628C140.439 130.08 140.659 130.419 140.984 130.645C141.312 130.871 141.74 130.984 142.269 130.984C142.87 130.984 143.348 130.856 143.701 130.601C144.058 130.342 144.237 130.032 144.237 129.672C144.237 129.38 144.135 129.136 143.931 128.939C143.727 128.738 143.413 128.589 142.99 128.491L141.591 128.163C140.822 127.98 140.257 127.698 139.896 127.315C139.539 126.929 139.36 126.446 139.36 125.866C139.36 125.392 139.493 124.973 139.759 124.609C140.029 124.244 140.395 123.958 140.858 123.75C141.325 123.543 141.853 123.439 142.444 123.439C143.275 123.439 143.927 123.621 144.401 123.985C144.879 124.35 145.218 124.831 145.418 125.429Z" fill="white"/>
<path d="M150.925 132.121C150.138 132.121 149.46 131.935 148.891 131.563C148.323 131.192 147.885 130.679 147.579 130.027C147.273 129.375 147.12 128.629 147.12 127.791C147.12 126.938 147.276 126.185 147.59 125.533C147.907 124.877 148.348 124.365 148.913 123.996C149.482 123.625 150.145 123.439 150.903 123.439C151.494 123.439 152.026 123.548 152.5 123.767C152.974 123.985 153.362 124.292 153.664 124.685C153.967 125.079 154.155 125.538 154.227 126.063H152.937C152.839 125.68 152.62 125.341 152.281 125.046C151.946 124.747 151.494 124.598 150.925 124.598C150.422 124.598 149.981 124.729 149.602 124.991C149.227 125.25 148.933 125.617 148.722 126.09C148.514 126.561 148.41 127.113 148.41 127.747C148.41 128.396 148.512 128.961 148.716 129.442C148.924 129.923 149.216 130.297 149.591 130.563C149.97 130.829 150.415 130.962 150.925 130.962C151.26 130.962 151.565 130.904 151.838 130.787C152.112 130.67 152.343 130.503 152.533 130.284C152.722 130.065 152.857 129.803 152.937 129.497H154.227C154.155 129.992 153.974 130.439 153.686 130.836C153.402 131.23 153.025 131.543 152.554 131.777C152.088 132.006 151.545 132.121 150.925 132.121Z" fill="white"/>
<path d="M156.114 131.946V123.548H157.404V131.946H156.114ZM156.77 122.148C156.518 122.148 156.301 122.063 156.119 121.891C155.941 121.72 155.851 121.514 155.851 121.274C155.851 121.033 155.941 120.827 156.119 120.656C156.301 120.484 156.518 120.399 156.77 120.399C157.021 120.399 157.236 120.484 157.415 120.656C157.597 120.827 157.688 121.033 157.688 121.274C157.688 121.514 157.597 121.72 157.415 121.891C157.236 122.063 157.021 122.148 156.77 122.148Z" fill="white"/>
<path d="M160.97 128.884L160.948 127.288H161.211L164.885 123.548H166.481L162.567 127.506H162.457L160.97 128.884ZM159.767 131.946V120.749H161.058V131.946H159.767ZM165.104 131.946L161.823 127.791L162.742 126.894L166.744 131.946H165.104Z" fill="white"/>
<path d="M168.142 131.946V123.548H169.432V131.946H168.142ZM168.798 122.148C168.547 122.148 168.33 122.063 168.148 121.891C167.969 121.72 167.88 121.514 167.88 121.274C167.88 121.033 167.969 120.827 168.148 120.656C168.33 120.484 168.547 120.399 168.798 120.399C169.05 120.399 169.265 120.484 169.443 120.656C169.626 120.827 169.717 121.033 169.717 121.274C169.717 121.514 169.626 121.72 169.443 121.891C169.265 122.063 169.05 122.148 168.798 122.148Z" fill="white"/>
<path d="M175.448 123.548V124.642H171.096V123.548H175.448ZM172.364 121.536H173.655V129.54C173.655 129.905 173.708 130.178 173.813 130.361C173.923 130.539 174.061 130.659 174.229 130.721C174.4 130.78 174.58 130.809 174.77 130.809C174.912 130.809 175.029 130.802 175.12 130.787C175.211 130.769 175.284 130.754 175.339 130.743L175.601 131.902C175.514 131.935 175.391 131.968 175.235 132.001C175.078 132.037 174.879 132.055 174.639 132.055C174.274 132.055 173.917 131.977 173.567 131.82C173.221 131.664 172.933 131.425 172.703 131.104C172.477 130.783 172.364 130.379 172.364 129.89V121.536Z" fill="white"/>
</svg>