<svg viewBox="0 0 256 256" xmlns="http://www.w3.org/2000/svg" xml:space="preserve" style="fill-rule:evenodd;clip-rule:evenodd;stroke-linejoin:round;stroke-miterlimit:2"><path d="M256 40v176c0 22.077-17.923 40-40 40H40c-22.077 0-40-17.923-40-40V40C0 17.923 17.923 0 40 0h176c22.077 0 40 17.923 40 40" style="fill:#15191c"/><path d="M447.04 386.119c.745 62.386-26.18 122.437-73.816 164.621-37.911 33.939-85.741 53.435-135.48 55.333-22.992 18.724-50.871 29.858-80.725 31.822-3.187.219-6.375.353-9.562.353-76.259 0-140.432-61.815-146.273-140.741-.065-.907-.129-2.183-.194-3.812a12 12 0 0 1-.146-1.747c-1.488-33.233-.744-60.689.211-78.171.873-16.121 1.424-45.122 1.488-51.873v-.42c.405-23.594 6.036-46.617 16.278-67.255-2.913-23.091-2.848-47.793.275-73.705l.405-4.03c.08-.487.08-1.058.129-1.545.081-.42.146-.907.21-1.394 2.573-22.049 7.055-58.17 26.051-95.199 31.617-62.1 91.598-99.145 160.382-99.145h2.913C230.835 6.684 255.187 0 280.218 0h2.654C362.513 1.478 427.3 69.775 427.3 152.295c0 .907-2.718 99.901-5.777 133.772 16.488 29.925 25.177 63.864 25.517 100.052" style="fill:#fff" transform="translate(64.187 36.899)scale(.28546)"/><path d="M379.345 386.496c.551 41.327-17.766 81.748-50.273 110.547-27.604 24.72-62.877 38.372-99.17 38.372-6.246-.067-12.557-.42-18.738-1.276a90 90 0 0 1-4.465 5.709c-13.98 16.407-33.252 26.13-54.286 27.39a58 58 0 0 1-4.806.201c-41.05 0-75.579-33.367-78.638-75.887-.064-.84-.129-1.696-.129-2.603l-.065-.638c-1.359-30.278-.679-55.198.13-70.765 1.019-18.019 1.569-48.649 1.634-55.266.34-20.705 7.993-39.497 20.42-53.804-6.181-22.167-8.155-48.784-4.353-80.253l.486-4.585c.064-.353.064-.705.129-1.058 2.168-18.439 5.421-45.693 18.786-71.739 19.95-39.144 56.583-61.613 100.417-61.613 2.443 0 5.016.067 7.669.218 4.612.285 9.288.84 13.835 1.696 14.238-13.317 33.17-21.562 53.929-21.125 42.879.772 77.748 37.515 77.748 81.882 0 .974-3.802 119.481-5.631 129.759-1.084 6.414-2.912 12.527-5.291 18.304 19.741 23.661 30.387 53.166 30.662 86.534" style="fill:#f9a83a" transform="translate(64.187 36.899)scale(.28546)"/><path d="M208.175 301.929c-20.339-3.291-31.196-17.414-25.808-61.109l.631-5.273c4.531-37.969 8.333-46.416 25.938-45.425 5.145.336 11.083 3.711 17.005 8.766 5.502 6.6 17.718 15.147 24.595 32.074 4.935 12.427 6.634 20.538 7.346 29.254l1.084 10.697v-.051c1.456 7.322 6.861 13.334 14.336 14.644 9.628 1.83 18.915-4.82 20.598-14.812.226-1.192 4.579-116.274 4.579-118.154 0-10.143-7.831-18.372-17.669-18.54-9.806-.05-17.766 8.229-17.766 18.338 0 .218-.049 16.104-.373 32.125-13.98-15.785-31.875-29.925-51.907-31.151-53.622-2.972-59.48 48.196-63.007 77.684l-.534 5.223c-7.233 58.271 11.504 95.031 55.499 102.168 47.814 7.792 79.738 19.194 80.03 49.724.178 11.872-5.842 24.047-16.343 33.417-12.653 11.168-29.578 16.189-45.532 13.468-4.951-.789-9.595-2.2-14.045-3.728-6.262-3.627-22.038-13.585-30.047-25.088-6.747-9.707-9.094-24.955-9.822-34.627.081-4.333.097-7.204.097-7.524.178-10.193-7.702-18.489-17.41-18.724-9.854-.235-17.944 7.994-18.122 18.17 0 .336-.437 36.391-1.715 58.104-1.829 34.979 0 64.602 0 65.895.728 10.16 9.142 17.817 18.947 17.146 9.773-.538 17.216-9.337 16.537-19.514 0-.168-.874-14.526-.761-34.358 13.009 8.615 30.096 16.994 50.435 20.588 26.536 4.618 53.671-3.342 74.398-21.831 18.56-16.473 29.19-38.993 28.899-61.781-.631-68.028-74.609-79.984-110.093-85.795" style="fill:#fff" transform="translate(64.187 36.899)scale(.28546)"/></svg>