<svg width="256" height="256" title="Scratch" viewBox="0 0 256 256" fill="none" xmlns="http://www.w3.org/2000/svg" id="scratch">
<style>
#scratch {
    rect {fill: #15191C}
    path.scratch {fill: #FFFFFF}

    @media (prefers-color-scheme: light) {
        rect {fill: #F4F2ED}
        path.scratch {fill: #202020}
    }
}
</style>
<rect width="256" height="256" rx="40" fill="#15191C"/>
<path fill-rule="evenodd" clip-rule="evenodd" d="M187.996 146.449C188.196 163.164 180.969 179.253 168.182 190.555C158.006 199.648 145.167 204.871 131.816 205.38C125.644 210.396 118.161 213.379 110.148 213.905C109.292 213.964 108.436 214 107.581 214C87.1112 214 69.8857 197.438 68.3178 176.293C68.3003 176.05 68.2832 175.708 68.2657 175.271C68.2412 175.116 68.2281 174.96 68.2265 174.803C67.8271 165.899 68.0268 158.543 68.2832 153.86C68.5175 149.54 68.6654 141.77 68.6826 139.962V139.849C68.7913 133.528 70.3028 127.359 73.052 121.83C72.2701 115.644 72.2875 109.025 73.1258 102.083L73.2345 101.003C73.256 100.873 73.256 100.72 73.2691 100.589C73.2909 100.477 73.3083 100.346 73.3255 100.216C74.0162 94.3085 75.2192 84.6309 80.3182 74.7101C88.8049 58.0722 104.905 48.147 123.368 48.147H124.15C129.961 44.7908 136.498 43 143.217 43H143.929C165.307 43.396 182.697 61.6942 182.697 83.803C182.697 84.046 181.968 110.569 181.147 119.643C185.572 127.661 187.905 136.754 187.996 146.449Z" class="scratch" fill="#FFFFFF"/>
<path fill-rule="evenodd" clip-rule="evenodd" d="M169.825 146.55C169.973 157.623 165.056 168.452 156.331 176.168C148.921 182.791 139.453 186.449 129.711 186.449C128.034 186.431 126.34 186.336 124.681 186.107C124.303 186.633 123.903 187.143 123.483 187.637C119.73 192.032 114.557 194.637 108.911 194.975C108.482 195.011 108.052 195.029 107.621 195.029C96.6024 195.029 87.334 186.089 86.5129 174.697C86.4957 174.472 86.4782 174.243 86.4782 174L86.4608 173.829C86.096 165.717 86.2785 159.04 86.4957 154.869C86.7692 150.042 86.9168 141.835 86.9343 140.062C87.0256 134.515 89.0798 129.48 92.4155 125.647C90.7564 119.708 90.2265 112.577 91.247 104.146L91.3775 102.917C91.3947 102.823 91.3947 102.728 91.4121 102.634C91.9941 97.6937 92.8672 90.3917 96.4547 83.4135C101.81 72.926 111.643 66.9061 123.409 66.9061C124.065 66.9061 124.755 66.924 125.468 66.9645C126.706 67.0408 127.961 67.1895 129.181 67.4189C133.003 63.851 138.085 61.6419 143.657 61.759C155.167 61.9659 164.526 71.8101 164.526 83.6969C164.526 83.9579 163.506 115.708 163.015 118.462C162.724 120.181 162.233 121.818 161.595 123.366C166.894 129.705 169.751 137.61 169.825 146.55Z" fill="#F9A83A"/>
<path fill-rule="evenodd" clip-rule="evenodd" d="M123.879 123.893C118.42 123.011 115.505 119.228 116.952 107.521L117.121 106.108C118.337 95.9353 119.358 93.6722 124.083 93.9377C125.464 94.0277 127.058 94.9319 128.648 96.2863C130.125 98.0546 133.404 100.344 135.25 104.88C136.574 108.209 137.03 110.382 137.222 112.717L137.512 115.583V115.57C137.903 117.531 139.354 119.142 141.361 119.493C143.945 119.983 146.438 118.202 146.89 115.525C146.95 115.205 148.119 84.3724 148.119 83.8687C148.119 81.1511 146.017 78.9464 143.376 78.9014C140.744 78.888 138.607 81.1061 138.607 83.8146C138.607 83.873 138.594 88.1292 138.507 92.4215C134.754 88.1924 129.951 84.404 124.574 84.0755C110.181 83.2792 108.608 96.9882 107.661 104.889L107.518 106.288C105.577 121.9 110.606 131.749 122.415 133.661C135.25 135.749 143.819 138.803 143.897 146.983C143.945 150.164 142.329 153.426 139.51 155.936C136.114 158.928 131.571 160.274 127.289 159.545C125.96 159.333 124.713 158.955 123.519 158.546C121.838 157.574 117.603 154.906 115.453 151.824C113.642 149.223 113.012 145.138 112.817 142.547C112.838 141.386 112.843 140.617 112.843 140.531C112.891 137.8 110.775 135.577 108.17 135.514C105.524 135.451 103.353 137.656 103.305 140.383C103.305 140.473 103.188 150.132 102.845 155.95C102.354 165.321 102.845 173.258 102.845 173.604C103.04 176.327 105.299 178.378 107.931 178.198C110.554 178.054 112.552 175.697 112.37 172.97C112.37 172.925 112.135 169.078 112.165 163.765C115.657 166.073 120.244 168.318 125.703 169.281C132.826 170.518 140.11 168.385 145.673 163.432C150.655 159.018 153.509 152.985 153.431 146.879C153.261 128.653 133.404 125.45 123.879 123.893Z" class="scratch" fill="#FFFFFF"/>
</svg>