<svg width="256" height="256" title="Sentry" viewBox="0 0 256 256" fill="none" xmlns="http://www.w3.org/2000/svg">
<rect width="256" height="256" rx="40" fill="#362D59"/>
<path d="M141.638 62.4662C135.636 52.5113 121.205 52.5113 115.21 62.4662L93.4716 99.6941C110.079 107.985 124.229 120.475 134.517 135.926C144.804 151.376 150.871 169.249 152.115 187.769H136.846C135.604 171.895 130.238 156.62 121.28 143.457C112.322 130.293 100.082 119.696 85.7717 112.715L65.6555 147.503C73.7005 151.111 80.7092 156.684 86.0372 163.71C91.3651 170.735 94.8412 178.987 96.146 187.707H61.0906C60.6741 187.679 60.2713 187.547 59.9188 187.323C59.5663 187.099 59.2751 186.791 59.0716 186.427C58.8682 186.062 58.7589 185.653 58.7537 185.235C58.7485 184.818 58.8475 184.406 59.0418 184.036L68.7561 167.522C65.4668 164.777 61.7074 162.651 57.66 161.246L48.0419 177.759C47.0409 179.476 46.391 181.375 46.13 183.345C45.8689 185.315 46.002 187.317 46.5214 189.236C47.0408 191.154 47.9361 192.95 49.1555 194.519C50.3749 196.089 51.8939 197.4 53.6244 198.377C55.9045 199.661 58.474 200.342 61.0906 200.357H109.098C109.99 189.356 108.024 178.311 103.393 168.292C98.7619 158.273 91.6217 149.62 82.6642 143.171L90.2954 129.958C101.599 137.72 110.683 148.296 116.651 160.642C122.619 172.988 125.265 186.677 124.326 200.357H164.992C165.938 179.635 161.429 159.027 151.917 140.593C142.404 122.159 128.22 106.544 110.783 95.3079L126.21 68.8737C126.554 68.2984 127.11 67.8818 127.759 67.7145C128.408 67.5472 129.096 67.6425 129.675 67.9799C131.428 68.9424 196.706 182.847 197.93 184.167C198.146 184.553 198.256 184.989 198.248 185.432C198.241 185.874 198.117 186.307 197.889 186.686C197.661 187.065 197.336 187.377 196.949 187.59C196.561 187.803 196.124 187.91 195.682 187.9H179.959C180.158 192.107 180.158 196.308 179.959 200.488H195.75C198.42 200.503 201.047 199.812 203.364 198.486C205.682 197.161 207.609 195.247 208.949 192.938C210.29 190.629 210.997 188.007 211 185.337C211.003 182.667 210.3 180.043 208.964 177.732L141.638 62.4662Z" fill="white"/>
</svg>