<svg width="256" height="256" title="Sequelize" viewBox="0 0 256 256" fill="none" xmlns="http://www.w3.org/2000/svg" id="sequelize">
<style>
#sequelize {
    rect {fill: #15191C}

    @media (prefers-color-scheme: light) {
        rect {fill: #F4F2ED}
    }
}
</style>
<rect width="256" height="256" rx="40" fill="#15191C"/>
<path d="M181.32 96.3125V158.773L128.234 190.121L127.766 190.59V213.852L128.234 214.32L203 171.195V84.1836L202.297 84.0078L181.203 95.7266L181.32 96.3125Z" fill="#2F406A"/>
<path d="M75.0312 159.242L128.234 190.121V214.438L53 171.02V84.3594L53.7617 84.3008L74.7969 96.4883L75.0312 97.1914V159.301" fill="#2379BD"/>
<path d="M75.0312 97.1328L53 84.3594L128.059 41L203 84.1836L181.32 96.3125L128.059 65.9023L75.0312 97.1328Z" fill="#03AFEF"/>
<path d="M127.355 152.094L126.77 151.508V128.07L127.355 127.777L127.473 127.191L147.57 115.473L148.156 115.59V139.789L127.355 152.094Z" fill="#2F406A"/>
<path d="M106.145 140.551V115.414H106.73L127.18 127.309L127.355 127.777V152.094L106.145 140.609" fill="#2379BD"/>
<path d="M127.004 103.109L106.145 115.414L127.355 127.777L148.215 115.59L127.004 103.109Z" fill="#03AFEF"/>
<path d="M101.398 167.387L100.813 166.801V143.363L101.398 143.07L101.516 142.484L121.613 130.766L122.199 130.883V155.082L101.398 167.387Z" fill="#2F406A"/>
<path d="M80.1875 155.844V130.648H80.7734L101.223 142.543L101.398 143.012V167.328L80.1875 155.844Z" fill="#2379BD"/>
<path d="M101.047 118.344L80.1875 130.707L101.398 143.07L122.258 130.883L101.047 118.402" fill="#03AFEF"/>
<path d="M155.129 167.973L154.543 167.387V143.949L155.129 143.656L155.305 143.07L175.402 131.352L175.988 131.469V155.668L155.129 167.973Z" fill="#2F406A"/>
<path d="M133.977 156.43V131.234H134.562L155.012 143.129L155.187 143.598V167.914L133.918 156.43" fill="#2379BD"/>
<path d="M154.836 118.93L133.977 131.293L155.188 143.656L176.047 131.469L154.836 118.988" fill="#03AFEF"/>
<path d="M129.172 183.266L128.586 182.68V159.242L129.172 158.949L129.348 158.363L149.445 146.645L150.031 146.762V170.961L129.172 183.266Z" fill="#2F406A"/>
<path d="M107.961 171.664V146.586H108.547L129.055 158.48L129.172 158.949V183.266L107.961 171.723" fill="#2379BD"/>
<path d="M128.82 134.281L107.961 146.586L129.172 158.949L150.031 146.762L128.82 134.281Z" fill="#03AFEF"/>
<path d="M127.355 118.871L126.77 118.285V94.8477L127.355 94.4961L127.473 93.9102L147.57 82.1914L148.156 82.3672V106.508L127.355 118.813" fill="#2F406A"/>
<path d="M106.145 107.211V82.25H106.73L127.18 94.0859L127.355 94.5547V118.93L106.145 107.211Z" fill="#2379BD"/>
<path d="M127.004 69.8281L106.145 82.1328L127.355 94.4961L148.215 82.3672L127.004 69.8281Z" fill="#03AFEF"/>
<path d="M101.398 134.164L100.813 133.578V110.141L101.398 109.789L101.516 109.203L121.613 97.4844L122.199 97.6601V121.801L101.398 134.105" fill="#2F406A"/>
<path d="M80.1875 122.562V97.4844H80.7734L101.223 109.32L101.398 109.789V134.164L80.1875 122.562Z" fill="#2379BD"/>
<path d="M101.047 85.1211L80.1875 97.4258L101.398 109.789L122.258 97.6602L101.047 85.1211Z" fill="#03AFEF"/>
<path d="M155.129 134.75L154.543 134.164V110.727L155.129 110.375L155.305 109.789L175.402 98.0703L175.988 98.2461V122.387L155.129 134.691" fill="#2F406A"/>
<path d="M133.977 123.148V98.0703H134.563L155.012 109.906L155.188 110.375V134.75L133.977 123.148Z" fill="#2379BD"/>
<path d="M154.836 85.707L133.977 98.0117L155.188 110.375L176.047 98.2461L154.836 85.707Z" fill="#03AFEF"/>
<path d="M129.172 149.984L128.586 149.398V125.961L129.172 125.668L129.348 125.082L149.445 113.363L150.031 113.539V137.68L129.172 149.984Z" fill="#2F406A"/>
<path d="M107.961 138.441V113.363H108.547L129.055 125.199L129.172 125.668L129.172 150.043L107.961 138.441Z" fill="#2379BD"/>
<path d="M128.82 101L107.961 113.305L129.172 125.668L150.031 113.539L128.82 101Z" fill="#03AFEF"/>
</svg>