<svg width="256" height="256" title="Session" viewBox="0 0 256 256" fill="none" xmlns="http://www.w3.org/2000/svg" id="session">
<style>
#session {
    rect {fill: #15191C}

    @media (prefers-color-scheme: light) {
        rect {fill: #F4F2ED}
    }
}
</style>
<rect width="256" height="256" rx="40" fill="#15191C"/>
<path d="M149.312 112.104C149.237 112.831 149.751 113.428 150.315 113.793C160.185 119.589 170.616 124.499 180.319 130.578C215.34 152.516 203.614 206.61 160.891 208.66C137.079 207.823 112.542 209.741 88.8116 208.66C77.0135 208.124 66.8649 203.061 60.7057 192.791C50.8314 176.324 57.2262 155.324 74.352 147.055C84.715 142.053 96.4903 144.275 107.653 143.771C107.974 143.724 107.999 143.9 107.978 143.441C107.935 142.493 107.278 142.06 106.572 141.595C89.889 130.646 69.4381 126.284 60.1777 106.53C47.3274 79.1171 65.5306 48.3885 95.5311 47H169.97C197.298 48.7425 210.908 80.0694 192.698 101.248C188.255 106.415 178.723 111.21 171.929 111.668C165.221 112.122 157.78 111.085 151.135 111.65C150.454 111.707 149.944 111.911 149.312 112.104ZM98.407 56.611C90.3705 56.9191 83.9655 58.4001 77.5738 63.4956C57.8866 79.2064 63.8353 107.889 84.8891 118.86L122.848 139.839L123.447 139.652C123.68 139.209 123.74 138.743 123.783 138.25C124.614 128.031 123.144 116.681 123.772 106.343C124.05 103.749 125.781 102.772 128.2 102.54C141.436 101.985 155.304 103.306 168.468 102.558C197.712 100.898 199.571 61.5444 171.462 56.7895C147.303 56.9689 122.538 55.684 98.407 56.611ZM133.853 115.79C133.464 115.912 133.314 117.411 133.282 117.833C132.497 127.952 133.889 139.076 133.289 149.303C133.007 152.09 131.212 152.905 128.646 153.11C116.293 154.087 102.636 152.458 90.1104 153.092C81.9274 153.507 75.3545 155.539 70.2341 162.237C59.0246 176.897 68.9636 197.096 86.649 198.895C110.587 198.434 134.599 199.382 158.511 199.114C193.226 198.728 203.461 156.516 174.82 138.257C166.209 132.768 156.224 127.891 147.21 122.978C142.778 120.563 138.478 117.811 133.853 115.79Z" fill="#00F782"/>
</svg>