<svg viewBox="0 0 256 256" xmlns="http://www.w3.org/2000/svg" xml:space="preserve" style="fill-rule:evenodd;clip-rule:evenodd;stroke-linejoin:round;stroke-miterlimit:2"><path d="M256 40v176c0 22.077-17.923 40-40 40H40c-22.077 0-40-17.923-40-40V40C0 17.923 17.923 0 40 0h176c22.077 0 40 17.923 40 40" style="fill:#3f444e"/><path d="M13.095 8.133a.62.62 0 0 1 0-.874l2.771-2.773a.617.617 0 0 1 .877 0l2.77 2.772c.24.24.24.635 0 .875l-2.77 2.772a.62.62 0 0 1-.877 0zM11.562 6.6 8.791 3.83a.62.62 0 0 1 0-.877L11.562.182a.617.617 0 0 1 .876-.001l2.773 2.772a.617.617 0 0 1 0 .877L12.438 6.6a.62.62 0 0 1-.876 0m0 2.19a.62.62 0 0 1 .876 0l2.773 2.772a.617.617 0 0 1 0 .877l-2.773 2.771a.62.62 0 0 1-.876 0l-2.771-2.769a.62.62 0 0 1 0-.877zm-4.305 2.115L4.486 8.133a.62.62 0 0 1 0-.876l2.771-2.771a.62.62 0 0 1 .877 0l2.772 2.771a.625.625 0 0 1 0 .876l-2.773 2.772a.62.62 0 0 1-.877 0zm9.485 2.191 2.772 2.771a.614.614 0 0 1 0 .875l-2.77 2.772a.62.62 0 0 1-.876 0l-2.773-2.772a.624.624 0 0 1 0-.875l2.773-2.772c.24-.24.635-.24.875 0zm-4.304 4.303 2.772 2.772a.62.62 0 0 1 0 .876l-2.772 2.771a.617.617 0 0 1-.876 0l-2.771-2.771a.62.62 0 0 1 0-.877l2.771-2.771a.62.62 0 0 1 .876 0m-1.532-1.532c.24.24.24.635 0 .875l-2.772 2.773a.623.623 0 0 1-.876 0l-2.773-2.772a.62.62 0 0 1 0-.875l2.772-2.772a.617.617 0 0 1 .877 0z" style="fill:url(#a);fill-rule:nonzero" transform="translate(34.52 34.522)scale(7.78986)"/><defs><linearGradient id="a" x1="0" y1="0" x2="1" y2="0" gradientUnits="userSpaceOnUse" gradientTransform="rotate(90 6 6)scale(24.0001)"><stop offset="0" style="stop-color:#f0d0b6;stop-opacity:1"/><stop offset="1" style="stop-color:#dab594;stop-opacity:1"/></linearGradient></defs></svg>