<svg width="256" height="256" title="Setapp" viewBox="0 0 256 256" fill="none" xmlns="http://www.w3.org/2000/svg">
<rect width="256" height="256" rx="40" fill="#3F444E"/>
<path d="M136.531 98.3733C135.631 97.4683 135.126 96.2443 135.126 94.9685C135.126 93.6928 135.631 92.4688 136.531 91.5638L158.133 69.9587C158.58 69.5071 159.112 69.1487 159.699 68.904C160.286 68.6593 160.915 68.5334 161.551 68.5334C162.187 68.5334 162.816 68.6593 163.403 68.904C163.99 69.1487 164.522 69.5071 164.97 69.9587L186.564 91.556C188.435 93.4259 188.435 96.5034 186.564 98.3733L164.97 119.971C164.521 120.419 163.988 120.775 163.401 121.018C162.815 121.261 162.186 121.386 161.551 121.386C160.916 121.386 160.288 121.261 159.701 121.018C159.114 120.775 158.582 120.419 158.133 119.971L136.531 98.3733ZM124.58 86.4294L102.977 64.8477C102.528 64.3991 102.172 63.8665 101.929 63.2803C101.686 62.6941 101.561 62.0658 101.561 61.4312C101.561 60.7967 101.686 60.1684 101.929 59.5822C102.172 58.996 102.528 58.4634 102.977 58.0148L124.58 36.4253C125.026 35.9744 125.558 35.6163 126.143 35.3717C126.729 35.127 127.358 35.0007 127.992 35C128.627 34.9993 129.256 35.1242 129.842 35.3675C130.429 35.6107 130.961 35.9676 131.409 36.4175L153.026 58.0148C153.478 58.4618 153.837 58.9939 154.082 59.5803C154.327 60.1667 154.453 60.7958 154.453 61.4312C154.453 62.0666 154.327 62.6957 154.082 63.2822C153.837 63.8686 153.478 64.4007 153.026 64.8477L131.409 86.4294C130.502 87.3333 129.274 87.841 127.994 87.841C126.714 87.841 125.486 87.3333 124.58 86.4294ZM124.58 103.492C125.486 102.588 126.714 102.08 127.994 102.08C129.274 102.08 130.502 102.588 131.409 103.492L153.026 125.089C153.478 125.536 153.837 126.069 154.082 126.655C154.327 127.241 154.453 127.87 154.453 128.506C154.453 129.141 154.327 129.77 154.082 130.357C153.837 130.943 153.478 131.475 153.026 131.922L131.409 153.512C130.502 154.416 129.274 154.923 127.994 154.923C126.714 154.923 125.486 154.416 124.58 153.512L102.977 131.938C102.528 131.489 102.172 130.957 101.929 130.37C101.686 129.784 101.561 129.156 101.561 128.521C101.561 127.887 101.686 127.259 101.929 126.672C102.172 126.086 102.528 125.554 102.977 125.105L124.58 103.492ZM91.0186 119.971L69.4164 98.3733C68.5119 97.4677 68.0039 96.2403 68.0039 94.9607C68.0039 93.6812 68.5119 92.4538 69.4164 91.5482L91.0186 69.9587C91.4674 69.5099 92.0004 69.1539 92.5869 68.9111C93.1735 68.6682 93.8022 68.5431 94.4371 68.5431C95.072 68.5431 95.7007 68.6682 96.2872 68.9111C96.8738 69.1539 97.4067 69.5099 97.8555 69.9587L119.466 91.5482C120.361 92.4588 120.862 93.6842 120.862 94.9607C120.862 96.2372 120.361 97.4627 119.466 98.3733L97.8477 119.971C97.3989 120.419 96.866 120.775 96.2794 121.018C95.6929 121.261 95.0642 121.386 94.4293 121.386C93.7944 121.386 93.1657 121.261 92.5791 121.018C91.9926 120.775 91.4674 120.419 91.0186 119.971ZM164.962 137.041L186.572 158.631C187.024 159.076 187.383 159.606 187.629 160.192C187.874 160.777 188 161.405 188 162.039C188 162.674 187.874 163.302 187.629 163.887C187.383 164.472 187.024 165.003 186.572 165.448L164.977 187.045C164.071 187.949 162.843 188.457 161.563 188.457C160.283 188.457 159.054 187.949 158.148 187.045L136.531 165.448C135.636 164.539 135.135 163.314 135.135 162.039C135.135 160.764 135.636 159.54 136.531 158.631L158.148 137.033C160.019 135.163 163.099 135.163 164.97 137.033L164.962 137.041ZM131.409 170.567L153.019 192.164C153.923 193.07 154.431 194.297 154.431 195.577C154.431 196.856 153.923 198.083 153.019 198.989L131.409 220.579C130.962 221.029 130.43 221.386 129.844 221.63C129.258 221.874 128.629 222 127.994 222C127.359 222 126.731 221.874 126.145 221.63C125.559 221.386 125.027 221.029 124.58 220.579L102.977 198.989C102.528 198.541 102.172 198.008 101.929 197.422C101.686 196.836 101.561 196.207 101.561 195.573C101.561 194.938 101.686 194.31 101.929 193.724C102.172 193.137 102.528 192.605 102.977 192.156L124.58 170.567C125.486 169.663 126.714 169.155 127.994 169.155C129.274 169.155 130.502 169.663 131.409 170.567ZM119.466 158.631C121.336 160.5 121.336 163.578 119.466 165.448L97.8555 187.053C96.9463 187.951 95.7194 188.455 94.441 188.455C93.1625 188.455 91.9356 187.951 91.0264 187.053L69.4086 165.456C68.5065 164.55 68 163.325 68 162.047C68 160.769 68.5065 159.544 69.4086 158.638L91.0186 137.041C91.4659 136.59 91.9983 136.231 92.585 135.986C93.1718 135.742 93.8013 135.616 94.4371 135.616C95.0728 135.616 95.7023 135.742 96.2891 135.986C96.8758 136.231 97.4083 136.59 97.8555 137.041L119.466 158.631Z" fill="url(#linearGradient)"/>
<linearGradient id="linearGradient" x1="127.994" y1="35.0073" x2="127.994" y2="221.997" gradientUnits="userSpaceOnUse">
<stop stop-color="#F0D0B6"/>
<stop offset="1" stop-color="#DAB594"/>
</linearGradient>
</svg>