<svg width="256" height="256" title="ShadCN UI" viewBox="0 0 256 256" fill="none" xmlns="http://www.w3.org/2000/svg" id="shadcnui">
<style>
#shadcnui {
    rect {fill: #15191C}
    path {fill: #F4F2ED}

    @media (prefers-color-scheme: light) {
        rect {fill: #F4F2ED}
        path {fill: #15191C}
    }
}
</style>
<rect width="256" height="256" rx="40" fill="#15191C"/>
<path d="M191.867 126.65L126.65 191.867C124.106 194.411 124.106 198.542 126.65 201.092C129.194 203.636 133.325 203.636 135.875 201.092L201.092 135.875C203.636 133.325 203.636 129.194 201.092 126.65C198.542 124.106 194.411 124.106 191.867 126.65ZM178.824 54.9078L54.9078 178.824C52.3641 181.368 52.3641 185.499 54.9078 188.049C57.4577 190.592 61.5889 190.592 64.1326 188.049L188.049 64.1326C190.592 61.5889 190.592 57.4577 188.049 54.9078C185.499 52.3641 181.368 52.3641 178.824 54.9078Z" fill="#F4F2ED"/>
</svg>