<svg width="256" height="256" title="Shizuku" viewBox="0 0 256 256" fill="none" xmlns="http://www.w3.org/2000/svg" id="shizuku">
<style>
#shizuku {
    rect {fill: #15191C}

    @media (prefers-color-scheme: light) {
        rect {fill: #F4F2ED}
    }
}
</style>
<rect width="256" height="256" rx="40" fill="#15191C"/>
<path d="M124.821 41H132.458L136.556 41.2794L140.654 41.7451L144.193 42.3039L147.919 43.049L152.017 44.0734L156.021 45.2842L159.933 46.6812L163.751 48.2645L166.359 49.4753L167.943 50.2203L172.04 52.4556L174.089 53.6663L176.418 55.1565L178.467 56.5535L180.05 57.6711L181.54 58.7887L184.148 60.8377L186.756 63.0729L188.153 64.3768L188.525 64.6562V64.8425L188.898 65.0287L192.158 68.2885L192.809 69.0335L193.461 69.6855L194.113 70.4305L195.231 71.7344L196.255 72.9452L197.28 74.2491L198.584 75.9255L199.888 77.6951L202.868 82.1655L204.358 84.6802L205.662 87.0085L206.966 89.5232L207.711 91.1064L208.363 92.5035L209.294 94.5524L210.878 98.6503L211.995 102.003L212.833 104.797L214.044 109.64L214.882 114.018L215.348 117.184L215.721 120.537L216 124.914V131.806L215.814 135.159L215.441 138.885L214.976 142.33L214.23 146.428L213.392 150.061L212.275 154.065L211.157 157.418L210.505 159.281L209.387 162.075L208.177 164.869L206.593 168.129L205.383 170.457L204.265 172.413L203.147 174.276L201.844 176.325L200.447 178.374L199.143 180.236L197.839 181.913L196.907 183.123L196.069 184.148L194.952 185.452L194.3 186.197L192.623 188.06L191.226 189.55L188.618 192.158L187.873 192.809L186.569 194.02L185.824 194.672L184.614 195.697L183.123 196.907L181.913 197.839L179.957 199.329L178.467 200.353L175.673 202.216L173.717 203.427L171.482 204.731L169.246 205.941L166.732 207.245L163.472 208.736L159.56 210.319L156.114 211.53L152.575 212.647L147.732 213.858L144.007 214.603L140.468 215.162L136.277 215.627L132.179 215.907L130.13 216H126.777L121.841 215.721L118.115 215.348L114.111 214.789L110.199 214.044L106.287 213.113L102.376 211.995L99.0229 210.878L95.1112 209.387L92.5966 208.27L90.1751 207.152L87.7536 205.941L85.6115 204.731L83.9351 203.799L81.9792 202.589L80.396 201.564L78.347 200.167L77.0431 199.236L75.553 198.118L73.8765 196.814L72.6658 195.79L71.6413 194.952L70.71 194.113L69.9649 193.461L68.4747 192.064L67.3571 191.04L65.3081 188.991L64.6562 188.246L63.166 186.663L60.9308 184.055L59.8132 182.658L58.6024 181.075L57.2986 179.305L55.9947 177.442L54.4114 175.021L53.1075 172.879L51.9899 170.923L50.7791 168.688L49.9409 167.104L48.5439 164.031L47.5194 161.703L46.2155 158.257L45.0048 154.717L44.0734 151.551L43.2352 148.198L42.4902 144.659L41.9313 141.213L41.4657 137.487L41.1863 134.228L41 130.316V126.311L41.2794 121.375L41.6519 117.743L42.2108 113.831L42.8627 110.385L43.7009 106.846L44.5391 103.68L45.4705 100.699L46.4018 98.0915L47.4263 95.4838L48.4508 93.0623L49.6615 90.4545L51.1517 87.4742L52.2693 85.5184L52.8281 84.4939L54.0389 82.4449L54.6908 81.4204L56.5535 78.6264L57.6711 77.0431L59.1613 75.0873L60.372 73.504L61.4896 72.2001L62.3278 71.1756L63.5386 69.8717L64.1905 69.1267L64.4699 68.7541H64.6562L64.8425 68.3816L65.4013 67.7296L66.0532 67.1708L66.5189 66.612L67.1708 66.0532L68.5679 64.6562H68.7541V64.4699L69.4992 63.818L70.71 62.7004L71.7344 61.8622L72.6658 61.0239L73.5971 60.2789L74.901 59.2544L76.1118 58.323L77.7882 57.1123L79.6509 55.8084L81.793 54.4114L83.7488 53.2006L85.7046 52.083L87.9399 50.8723L90.082 49.7547L93.5279 48.1714L96.6945 46.8675L100.234 45.5636L103.773 44.446L107.219 43.5146L110.944 42.6764L113.924 42.1176L117.836 41.5588L121.655 41.1863L124.821 41Z" fill="#4659B6"/>
<path d="M64.5631 95.4838L65.0287 95.67L67.264 97.1602L68.4747 98.0915L69.9649 99.2092L71.1756 100.141L72.4795 101.258L73.504 102.096L74.901 103.4L75.6461 104.052L77.7882 106.194L78.6264 107.219L79.6509 108.336L80.6754 109.64L81.9792 111.41L82.9106 112.807L84.1213 114.763L84.8664 116.253L86.0772 118.767L86.8222 120.723L86.9154 120.816L87.5673 120.91L89.9888 121.003L92.5035 121.375L95.0181 121.934L97.6259 122.679L100.886 123.797L103.866 125.007L106.567 126.218L109.64 127.708L112.621 129.292L115.228 130.875L117.184 132.179L118.674 133.296L119.978 134.414L120.816 135.252L124.542 134.321L127.15 133.855L130.502 133.483L133.948 133.296H135.345L138.791 133.483L142.237 133.855L145.031 134.321L147.453 134.88L149.502 135.532L151.458 136.277L152.389 136.742L152.575 137.115L152.389 139.536L151.83 142.889L151.085 145.87L149.968 149.316L148.571 152.762L147.453 155.183L146.615 156.766L145.87 158.257L144.566 160.585L143.076 163.006L141.213 165.8L140.747 166.546L140.933 167.663L141.399 170.271L141.679 172.413L141.865 174.648L141.958 176.418V182.006L141.772 184.8L141.399 188.153L140.84 191.599L140.282 194.3L139.536 197.28L138.326 201.192L137.301 203.986L136.37 206.221L135.252 208.642L134.135 210.878L132.831 213.113L131.62 215.069L130.968 215.907L130.13 216H126.777L121.841 215.721L118.115 215.348L114.111 214.789L110.199 214.044L106.287 213.113L102.376 211.995L99.0229 210.878L95.1112 209.387L92.5966 208.27L90.1751 207.152L87.7536 205.941L85.6115 204.731L83.9351 203.799L81.9792 202.589L80.396 201.564L78.347 200.167L77.0431 199.236L75.553 198.118L73.8765 196.814L72.6658 195.79L71.6413 194.952L70.71 194.113L69.9649 193.461L68.4747 192.064L67.3571 191.04L65.3081 188.991L64.6562 188.246L63.166 186.663L60.9308 184.055L59.8132 182.658L58.6024 181.075L57.2986 179.305L55.9947 177.442L54.4114 175.021L53.1075 172.879L51.9899 170.923L50.7791 168.688L49.9409 167.104L48.5439 164.031L47.5194 161.703L46.2155 158.257L45.0048 154.717L44.0734 151.551L43.2352 148.198L42.4902 144.659L41.9313 141.213L41.4657 137.487L41.1863 134.228L41 130.316V126.311L41.0931 124.356L41.6519 124.169L43.9803 123.145L47.0538 122.12L48.1714 121.841L48.2645 121.655L48.4508 119.699L48.9164 117.557L49.7547 115.042L50.686 112.9L51.7105 110.851L52.735 109.081L54.132 106.846L55.3427 105.077L56.6466 103.307L57.9505 101.724L58.6024 100.979L59.7201 99.6748L61.3965 97.9984L62.1416 97.3465L63.0729 96.5083L64.5631 95.4838Z" fill="#F4F4FA"/>
<path d="M103.493 85.5184H153.879L154.811 87.1017L155.649 88.5918L156.86 90.827L158.07 92.9691L159.467 95.5769L160.678 97.8121L161.889 99.9542L163.193 102.376L164.403 104.518L165.8 107.126L167.011 109.268L168.408 111.875L169.712 114.204L171.016 116.625L172.227 118.767L173.437 121.003L174.555 123.052L176.045 125.753L177.349 128.174L177.908 129.105L178.001 129.571L177.442 130.689L176.604 132.086L175.207 134.507L174.462 135.718L171.854 140.282L170.923 141.865L169.619 144.1L168.129 146.708L165.521 151.178L164.031 153.786L162.541 156.301L161.33 158.443L160.026 160.678L158.629 163.1L157.325 165.335L156.114 167.477L154.904 169.526L153.972 171.016L153.786 171.109H141.512L141.027 168.594L140.654 166.825L140.747 166.359L142.796 163.286L144.007 161.33L145.404 158.908L146.428 157.046L147.267 155.276L148.012 153.786L149.036 151.458L150.061 148.757L150.992 145.87L151.737 142.889L152.296 139.536L152.482 137.115L152.296 136.742L150.526 135.997L148.664 135.345L146.335 134.693L142.982 134.042L139.816 133.669L137.581 133.483L135.345 133.39H133.948L130.502 133.576L127.15 133.948L124.542 134.414L120.816 135.345L119.606 134.135L118.674 133.39L117.464 132.458L115.508 131.154L113.366 129.85L111.875 129.012L108.895 127.429L106.008 126.032L103.214 124.821L100.327 123.704L97.0671 122.586L93.9005 121.748L91.479 121.282L89.9888 121.096L87.5673 121.003L86.9154 120.91L86.636 120.537L85.8909 118.581L85.5184 117.743L85.7046 117.184L86.1703 116.346L86.7291 115.415L87.2879 114.39L88.4987 112.155L89.7094 110.013L91.0133 107.591L92.2241 105.449L93.6211 102.841L94.7387 100.792L95.7632 99.0229L96.322 97.9984L97.719 95.3906L98.3709 94.273L98.9298 93.2485L100.327 90.6408L102.189 87.2879L103.214 85.6115L103.493 85.5184Z" fill="#6D7AC1"/>
<path d="M110.292 164.776H111.224L112.434 165.055L113.645 165.707L114.483 166.546L115.135 167.663L115.321 168.222L115.415 169.153L115.135 170.271L114.483 171.202L113.645 171.947L112.621 172.413L112.155 172.506H111.037L110.106 172.32L108.802 171.668L107.778 170.737L107.219 169.805L107.032 169.246L106.939 168.036L107.219 166.918L107.778 166.08L108.616 165.335L109.733 164.869L110.292 164.776Z" fill="#4659B6"/>
<path d="M65.0287 143.262H66.5189L67.7296 143.634L68.661 144.193L69.4992 145.031L70.058 145.963L70.2443 146.522L70.3374 147.546L69.9649 148.757L69.3129 149.595L68.5679 150.247L67.6365 150.713L66.1464 150.899L64.9356 150.713L64.0043 150.34L63.166 149.688L62.5141 149.036L61.9553 147.919L61.8622 147.639V146.149L62.2347 145.218L62.7935 144.473L63.5386 143.821L64.6562 143.355L65.0287 143.262Z" fill="#4659B6"/>
<path d="M141.958 174.555H142.144L142.33 175.207L142.703 175.114L142.796 175.673V177.629L142.889 178.187L142.796 178.56V179.864L142.889 181.354L142.796 181.726V183.03L142.61 183.496L142.703 183.869L142.517 184.52V184.893H142.33V185.452L142.237 186.011L142.33 186.383L142.144 186.569L142.051 188.246L141.772 188.805L141.585 190.202L141.12 192.53L140.933 192.903L140.747 193.461L140.561 193.368V192.53L141.12 189.457L141.492 186.569L141.772 183.682L141.865 182.006L141.958 181.354V174.555Z" fill="#3F4EAF"/>
<path d="M175.114 202.309L175.393 202.402L172.786 203.986L170.457 205.29L167.849 206.687L165.335 207.897L164.497 208.27H164.31V208.084L165.8 207.338L167.57 206.407L169.06 205.662L169.526 205.476L170.271 205.103L170.457 204.917H170.923L171.016 204.638L171.575 204.358H171.761L171.854 204.172L172.879 203.613L173.065 203.427H173.437V203.241L174.183 202.868L174.834 202.402L175.114 202.309Z" fill="#5061B9"/>
<path d="M191.785 188.618L192.064 188.712L188.618 192.158L188.339 192.251L188.246 191.971L188.712 191.412L189.363 190.854L189.829 190.295L190.109 190.109L190.202 189.922L190.481 189.829L190.574 189.55L190.854 189.457L190.947 189.177L191.319 188.805L191.692 188.712L191.785 188.618Z" fill="#4D5FB8"/>
<path d="M62.8866 96.5083L63.0729 96.6014L61.5828 97.9984L60.8377 98.6503L59.5338 99.9542L58.6956 100.979L58.0436 101.538L58.2299 101.165L59.2544 99.9542L61.8622 97.3465L62.8866 96.5083Z" fill="#6E7BC2"/>
<path d="M62.3278 97.1602L62.5141 97.2533L58.8819 100.886V100.606L60.2789 99.116L61.3965 97.9984L62.1416 97.3465L62.3278 97.1602Z" fill="#DBDCE4"/>
<path d="M159.095 210.133H159.84L159.56 210.319L156.114 211.53L155.369 211.716L155.462 211.436L156.58 211.25V211.064L157.232 210.878H157.605V210.691L158.629 210.412L159.095 210.133Z" fill="#5162B9"/>
<path d="M162.82 208.642H163.472L163.193 208.829L160.305 210.039L159.84 210.133V209.853L160.678 209.574L161.609 209.294L161.703 209.108L162.448 208.829L162.82 208.642Z" fill="#4F61B8"/>
<path d="M185.918 194.113L186.197 194.3L185.172 195.231L184.148 196.069L184.055 195.79H184.241L184.427 195.417H184.614L184.8 195.045L185.079 194.765H185.266L185.359 194.486H185.731L185.918 194.113Z" fill="#4E60B8"/>
<path d="M113.366 165.707L113.738 165.8L114.483 166.546L114.67 166.825V167.104L114.297 167.011L114.111 166.918V166.732H113.924L113.459 166.173V165.987H113.272L113.366 165.707Z" fill="#4251B0"/>
<path d="M180.981 198.118L181.261 198.304L179.677 199.515L178.839 200.074L178.746 199.795L179.305 199.422L179.771 199.236V199.049L180.236 198.956L180.329 198.677L180.981 198.118Z" fill="#5061B9"/>
<path d="M191.785 188.618L192.064 188.712L190.667 190.109L190.481 189.736L190.574 189.55L190.854 189.457L190.947 189.177L191.319 188.805L191.692 188.712L191.785 188.618Z" fill="#4F61B8"/>
<path d="M150.992 212.833H151.551L151.178 213.02L148.105 213.765H147.919V213.579L148.85 213.485L148.943 213.299L150.34 213.02L150.992 212.833Z" fill="#5465BA"/>
<path d="M171.575 204.358L171.854 204.544L169.991 205.569H169.805L169.898 205.29L170.364 205.01L170.457 204.917H170.923L171.016 204.638L171.575 204.358Z" fill="#5263B9"/>
<path d="M132.644 213.299L132.924 213.392L132.738 213.858L132.272 214.603H132.086L132.365 213.765L132.644 213.299Z" fill="#4453B1"/>
<path d="M68.7541 144.473L69.1267 144.659L69.5923 145.218V145.497L69.1267 145.311L68.8473 144.938V144.752L68.661 144.659L68.7541 144.473Z" fill="#4050B0"/>
<path d="M57.9505 101.538V101.817L56.6466 103.4V103.121L57.4848 102.003L57.9505 101.538Z" fill="#6E7BC2"/>
<path d="M175.114 202.309L175.393 202.402L173.717 203.427V203.147L174.276 202.775L175.114 202.309Z" fill="#5263B9"/>
<path d="M176.977 201.098L177.256 201.192L175.673 202.216L175.393 202.309L175.486 202.03L176.511 201.378L176.977 201.098Z" fill="#5364BA"/>
<path d="M133.855 211.623L133.948 211.902L133.483 212.647L133.39 212.833H133.203V213.02L133.017 212.927L133.39 212.088H133.576L133.762 211.716L133.855 211.623Z" fill="#3D4DAE"/>
<path d="M183.31 196.349L183.682 196.442L182.472 197.373L182.378 197.094L182.844 196.721H183.123L183.31 196.349Z" fill="#5163B9"/>
<path d="M202.216 175.021L202.495 175.114L202.309 175.58L201.937 176.045L201.844 175.486L202.216 175.021Z" fill="#4C5EB7"/>
<path d="M139.536 197.559L139.63 197.839L139.536 198.491L139.257 198.584L139.164 198.863L139.071 198.491L139.257 197.932H139.443L139.536 197.559Z" fill="#4453B1"/>
<path d="M169.619 205.383H169.805V205.662L168.874 206.128L168.594 206.035L169.06 205.662L169.526 205.476L169.619 205.383Z" fill="#4D5FB8"/>
<path d="M139.909 196.162L140.095 196.442L140.002 196.628H139.816L139.909 197.094L139.536 197.466L139.63 196.535L139.909 196.162Z" fill="#4352B1"/>
<path d="M188.06 192.158L188.339 192.344L187.408 193.275H187.221L187.408 192.903L187.687 192.53H187.966L188.06 192.158Z" fill="#5364BA"/>
<path d="M144.1 214.23H145.497V214.324L144.007 214.603H143.728L143.821 214.324L144.1 214.23Z" fill="#5566BA"/>
<path d="M185.918 194.113L186.197 194.3L185.452 194.952H185.359V194.486H185.731L185.918 194.113Z" fill="#5062B9"/>
<path d="M162.82 208.642H163.472L163.193 208.829L162.261 209.201L162.448 208.829L162.82 208.642Z" fill="#5364BA"/>
<path d="M178.374 200.074L178.746 200.167L177.815 200.819H177.629L177.722 200.54L178.374 200.074Z" fill="#5163B9"/>
<path d="M56.4604 103.4V103.68L55.6221 104.797V104.518L55.9947 103.959L56.4604 103.4Z" fill="#6E7BC2"/>
</svg>