<svg width="256" height="256" title="Shopify" viewBox="0 0 256 256" fill="none" xmlns="http://www.w3.org/2000/svg" id="shopify">
<style>
#shopify {
    rect {fill: #15191C}

    @media (prefers-color-scheme: light) {
        rect {fill: #F4F2ED}
    }
}
</style>
<rect width="256" height="256" rx="40" fill="#15191C"/>
<path d="M179.261 80.5018C179.17 79.6875 178.446 79.3256 177.903 79.2351C177.361 79.1446 166.503 79.0541 166.503 79.0541C166.503 79.0541 157.364 70.1868 156.459 69.282C155.554 68.3772 153.835 68.6486 153.111 68.8296C153.111 68.8296 151.392 69.3725 148.497 70.2773C148.044 68.7391 147.32 66.839 146.325 64.9388C143.068 58.6955 138.363 55.4382 132.572 55.4382C132.21 55.4382 131.757 55.4382 131.395 55.5286C131.214 55.3477 131.034 55.1667 130.853 54.8953C128.319 52.1808 125.152 50.914 121.352 51.0045C113.932 51.1855 106.603 56.524 100.541 66.1151C96.2882 72.8108 93.1213 81.2257 92.2165 87.7404C83.7111 90.3644 77.7393 92.1741 77.6488 92.2646C73.3961 93.6218 73.2151 93.7123 72.6723 97.784C72.2198 100.77 61 187.724 61 187.724L155.192 204.011L196 193.877C196 193.877 179.351 81.2257 179.261 80.5018ZM143.792 71.725C141.62 72.3584 139.177 73.1728 136.462 73.9871C136.372 70.2773 135.92 65.0293 134.2 60.5052C139.901 61.591 142.615 67.9248 143.792 71.725ZM131.576 75.5253C126.6 77.0635 121.261 78.6922 115.832 80.4114C117.371 74.6205 120.266 68.8296 123.795 65.0293C125.152 63.5816 126.962 62.0434 129.133 61.1386C131.214 65.3912 131.576 71.4536 131.576 75.5253ZM121.442 55.9811C123.162 55.9811 124.609 56.343 125.876 57.1573C123.885 58.1526 121.895 59.6908 120.085 61.6815C115.38 66.7485 111.761 74.53 110.313 82.1305C105.789 83.4878 101.446 84.845 97.374 86.1118C100.088 74.1681 110.042 56.343 121.442 55.9811Z" fill="#95BF47"/>
<path d="M177.903 79.2351C177.361 79.1446 166.503 79.0541 166.503 79.0541C166.503 79.0541 157.364 70.1868 156.459 69.282C156.097 68.9201 155.645 68.7391 155.192 68.7391V204.011L196 193.877C196 193.877 179.351 81.3162 179.261 80.5018C179.08 79.6875 178.446 79.3256 177.903 79.2351Z" fill="#5E8E3E"/>
<path d="M132.572 100.227L127.867 117.962C127.867 117.962 122.619 115.519 116.285 115.971C107.056 116.514 106.965 122.305 107.056 123.843C107.599 131.805 128.41 133.525 129.586 152.074C130.491 166.732 121.804 176.685 109.318 177.499C94.2976 178.404 86.0637 169.627 86.0637 169.627L89.2306 156.145C89.2306 156.145 97.555 162.389 104.16 162.027C108.503 161.755 110.042 158.226 109.861 155.693C109.227 145.378 92.2165 145.921 91.1307 129C90.2259 114.704 99.6361 100.227 120.357 98.8698C128.5 98.1459 132.572 100.227 132.572 100.227Z" fill="white"/>
</svg>