<svg width="256" height="256" title="Slackware Linux" viewBox="0 0 256 256" fill="none" xmlns="http://www.w3.org/2000/svg" id="slackwarelinux">
<style>
#slackwarelinux {
    rect {fill: #15191C}
    path {fill: #FFFFFF}

    @media (prefers-color-scheme: light) {
        rect {fill: #F4F2ED}
        path {fill: #212121}
    }
}
</style>
<rect width="256" height="256" rx="40" fill="#15191C"/>
<path d="M53.2762 116.544L50.4278 117.354C50.2487 116.877 49.9844 116.414 49.6351 115.964C49.2948 115.506 48.829 115.128 48.2378 114.832C47.6467 114.535 46.8898 114.387 45.9672 114.387C44.7043 114.387 43.6518 114.679 42.8098 115.263C41.9768 115.839 41.5603 116.571 41.5603 117.461C41.5603 118.253 41.847 118.878 42.4202 119.336C42.9935 119.795 43.8892 120.177 45.1073 120.482L48.1706 121.238C50.0158 121.687 51.3907 122.375 52.2954 123.301C53.2 124.218 53.6524 125.4 53.6524 126.848C53.6524 128.035 53.312 129.096 52.6313 130.031C51.9595 130.966 51.019 131.703 49.8098 132.243C48.6006 132.782 47.1943 133.052 45.591 133.052C43.4861 133.052 41.744 132.593 40.3646 131.676C38.9852 130.759 38.1119 129.419 37.7446 127.657L40.7542 126.902C41.0408 128.017 41.5827 128.853 42.3799 129.41C43.186 129.968 44.2385 130.247 45.5373 130.247C47.0152 130.247 48.1886 129.932 49.0574 129.302C49.9352 128.664 50.3741 127.9 50.3741 127.01C50.3741 126.291 50.1233 125.688 49.6217 125.203C49.1201 124.708 48.3498 124.339 47.3108 124.097L43.8713 123.288C41.9813 122.838 40.593 122.141 39.7062 121.197C38.8284 120.244 38.3895 119.053 38.3895 117.623C38.3895 116.454 38.7165 115.42 39.3703 114.521C40.0332 113.622 40.9333 112.917 42.0709 112.404C43.2174 111.892 44.5162 111.635 45.9672 111.635C48.0094 111.635 49.6127 112.085 50.7771 112.984C51.9505 113.883 52.7835 115.07 53.2762 116.544Z" fill="#FFFFFF"/>
<path d="M61.5962 105V132.62H58.4254V105H61.5962Z" fill="#FFFFFF"/>
<path d="M73.4766 133.106C72.1688 133.106 70.982 132.858 69.9161 132.364C68.8502 131.86 68.0038 131.137 67.3768 130.193C66.7498 129.24 66.4363 128.089 66.4363 126.74C66.4363 125.553 66.6692 124.591 67.135 123.854C67.6007 123.108 68.2233 122.523 69.0025 122.101C69.7818 121.678 70.6417 121.363 71.5821 121.157C72.5316 120.941 73.4855 120.77 74.4439 120.644C75.6979 120.482 76.7145 120.361 77.4938 120.28C78.282 120.19 78.8553 120.042 79.2136 119.835C79.5808 119.628 79.7644 119.269 79.7644 118.756V118.648C79.7644 117.318 79.4017 116.284 78.6761 115.546C77.9596 114.809 76.8713 114.44 75.4113 114.44C73.8975 114.44 72.7107 114.773 71.8509 115.438C70.991 116.104 70.3864 116.814 70.0371 117.569L67.0275 116.49C67.5649 115.232 68.2815 114.252 69.1772 113.55C70.0818 112.84 71.0671 112.346 72.133 112.067C73.2079 111.779 74.2648 111.635 75.3038 111.635C75.9666 111.635 76.728 111.716 77.5879 111.878C78.4567 112.031 79.2942 112.35 80.1003 112.836C80.9154 113.321 81.5917 114.054 82.1291 115.034C82.6665 116.014 82.9352 117.327 82.9352 118.972V132.62H79.7644V129.815H79.6032C79.3882 130.265 79.0299 130.746 78.5283 131.258C78.0267 131.771 77.3594 132.207 76.5264 132.566C75.6934 132.926 74.6768 133.106 73.4766 133.106ZM73.9602 130.247C75.2142 130.247 76.2712 129.999 77.131 129.505C77.9999 129.01 78.6537 128.372 79.0926 127.59C79.5405 126.808 79.7644 125.985 79.7644 125.122V122.209C79.6301 122.37 79.3345 122.519 78.8777 122.654C78.4298 122.78 77.9103 122.892 77.3191 122.991C76.7369 123.081 76.1682 123.162 75.6128 123.234C75.0664 123.297 74.6231 123.35 74.2827 123.395C73.4587 123.503 72.6883 123.679 71.9718 123.921C71.2642 124.155 70.6909 124.51 70.252 124.987C69.8221 125.454 69.6071 126.093 69.6071 126.902C69.6071 128.008 70.0147 128.844 70.8298 129.41C71.6538 129.968 72.6973 130.247 73.9602 130.247Z" fill="#FFFFFF"/>
<path d="M97.1064 133.052C95.1717 133.052 93.5057 132.593 92.1084 131.676C90.7111 130.759 89.6362 129.496 88.8838 127.886C88.1314 126.277 87.7552 124.438 87.7552 122.37C87.7552 120.267 88.1404 118.41 88.9107 116.801C89.69 115.182 90.7738 113.919 92.1621 113.011C93.5594 112.094 95.1896 111.635 97.0526 111.635C98.5037 111.635 99.8114 111.905 100.976 112.444C102.14 112.984 103.094 113.739 103.838 114.71C104.581 115.681 105.042 116.814 105.221 118.109H102.051C101.809 117.165 101.271 116.329 100.438 115.6C99.6144 114.863 98.5037 114.494 97.1064 114.494C95.8703 114.494 94.7865 114.818 93.855 115.465C92.9324 116.104 92.2114 117.007 91.6919 118.176C91.1813 119.336 90.926 120.698 90.926 122.263C90.926 123.863 91.1768 125.257 91.6784 126.443C92.189 127.63 92.9055 128.552 93.8281 129.208C94.7596 129.864 95.8524 130.193 97.1064 130.193C97.9304 130.193 98.6784 130.049 99.3501 129.761C100.022 129.473 100.591 129.06 101.056 128.52C101.522 127.981 101.854 127.333 102.051 126.578H105.221C105.042 127.801 104.599 128.902 103.891 129.882C103.193 130.853 102.266 131.627 101.11 132.202C99.9637 132.768 98.6291 133.052 97.1064 133.052Z" fill="#FFFFFF"/>
<path d="M112.813 125.068L112.759 121.13H113.404L122.432 111.905H126.356L116.736 121.669H116.467L112.813 125.068ZM109.857 132.62V105H113.028V132.62H109.857ZM122.97 132.62L114.909 122.37L117.166 120.159L127.001 132.62H122.97Z" fill="#FFFFFF"/>
<path d="M135.112 132.62L128.824 111.905H132.156L136.617 127.765H136.832L141.239 111.905H144.625L148.978 127.711H149.193L153.653 111.905H156.985L150.698 132.62H147.581L143.066 116.706H142.744L138.229 132.62H135.112Z" fill="#FFFFFF"/>
<path d="M167.25 133.106C165.942 133.106 164.756 132.858 163.69 132.364C162.624 131.86 161.777 131.137 161.15 130.193C160.523 129.24 160.21 128.089 160.21 126.74C160.21 125.553 160.443 124.591 160.909 123.854C161.374 123.108 161.997 122.523 162.776 122.101C163.555 121.678 164.415 121.363 165.356 121.157C166.305 120.941 167.259 120.77 168.218 120.644C169.472 120.482 170.488 120.361 171.267 120.28C172.056 120.19 172.629 120.042 172.987 119.835C173.354 119.628 173.538 119.269 173.538 118.756V118.648C173.538 117.318 173.175 116.284 172.45 115.546C171.733 114.809 170.645 114.44 169.185 114.44C167.671 114.44 166.484 114.773 165.625 115.438C164.765 116.104 164.16 116.814 163.811 117.569L160.801 116.49C161.339 115.232 162.055 114.252 162.951 113.55C163.855 112.84 164.841 112.346 165.907 112.067C166.982 111.779 168.038 111.635 169.077 111.635C169.74 111.635 170.502 111.716 171.362 111.878C172.23 112.031 173.068 112.35 173.874 112.836C174.689 113.321 175.365 114.054 175.903 115.034C176.44 116.014 176.709 117.327 176.709 118.972V132.62H173.538V129.815H173.377C173.162 130.265 172.804 130.746 172.302 131.258C171.8 131.771 171.133 132.207 170.3 132.566C169.467 132.926 168.45 133.106 167.25 133.106ZM167.734 130.247C168.988 130.247 170.045 129.999 170.905 129.505C171.774 129.01 172.427 128.372 172.866 127.59C173.314 126.808 173.538 125.985 173.538 125.122V122.209C173.404 122.37 173.108 122.519 172.651 122.654C172.203 122.78 171.684 122.892 171.093 122.991C170.511 123.081 169.942 123.162 169.386 123.234C168.84 123.297 168.397 123.35 168.056 123.395C167.232 123.503 166.462 123.679 165.745 123.921C165.038 124.155 164.465 124.51 164.026 124.987C163.596 125.454 163.381 126.093 163.381 126.902C163.381 128.008 163.788 128.844 164.603 129.41C165.427 129.968 166.471 130.247 167.734 130.247Z" fill="#FFFFFF"/>
<path d="M182.496 132.62V111.905H185.56V115.034H185.775C186.151 114.009 186.831 113.177 187.817 112.539C188.802 111.901 189.913 111.581 191.149 111.581C191.382 111.581 191.673 111.586 192.022 111.595C192.371 111.604 192.636 111.617 192.815 111.635V114.872C192.707 114.845 192.461 114.805 192.076 114.751C191.7 114.688 191.301 114.656 190.88 114.656C189.877 114.656 188.981 114.868 188.193 115.29C187.414 115.704 186.796 116.279 186.339 117.016C185.891 117.745 185.667 118.576 185.667 119.511V132.62H182.496Z" fill="#FFFFFF"/>
<path d="M204.598 133.052C202.609 133.052 200.894 132.611 199.452 131.73C198.019 130.84 196.913 129.599 196.133 128.008C195.363 126.407 194.978 124.546 194.978 122.424C194.978 120.303 195.363 118.432 196.133 116.814C196.913 115.187 197.996 113.919 199.385 113.011C200.782 112.094 202.412 111.635 204.275 111.635C205.35 111.635 206.412 111.815 207.46 112.175C208.508 112.534 209.461 113.119 210.321 113.928C211.181 114.728 211.866 115.789 212.377 117.111C212.888 118.432 213.143 120.06 213.143 121.993V123.342H197.235V120.59H209.918C209.918 119.421 209.685 118.379 209.22 117.461C208.763 116.544 208.109 115.821 207.258 115.29C206.416 114.76 205.422 114.494 204.275 114.494C203.012 114.494 201.92 114.809 200.997 115.438C200.083 116.059 199.38 116.868 198.888 117.866C198.395 118.864 198.149 119.934 198.149 121.076V122.91C198.149 124.474 198.417 125.801 198.955 126.888C199.501 127.967 200.258 128.79 201.225 129.356C202.193 129.914 203.317 130.193 204.598 130.193C205.431 130.193 206.183 130.076 206.855 129.842C207.536 129.599 208.122 129.24 208.615 128.763C209.108 128.278 209.488 127.675 209.757 126.956L212.82 127.819C212.498 128.862 211.956 129.779 211.195 130.57C210.433 131.352 209.493 131.964 208.373 132.404C207.254 132.836 205.995 133.052 204.598 133.052Z" fill="#FFFFFF"/>
<path d="M158.348 141.053C158.615 140.99 158.851 140.937 159.056 140.892C159.27 140.838 159.471 140.785 159.658 140.731C159.854 140.677 160.041 140.624 160.22 140.57C160.398 140.516 160.585 140.453 160.781 140.382L160.848 140.422V149.564C160.848 149.778 160.862 149.953 160.888 150.087C160.915 150.212 160.969 150.315 161.049 150.396C161.129 150.468 161.241 150.521 161.383 150.557C161.535 150.593 161.731 150.62 161.972 150.638V150.852H158.388V150.638C158.628 150.611 158.825 150.579 158.976 150.544C159.128 150.499 159.248 150.436 159.337 150.356C159.426 150.266 159.484 150.154 159.511 150.02C159.547 149.886 159.565 149.716 159.565 149.51V142.208C159.565 141.85 159.515 141.608 159.417 141.483C159.328 141.348 159.163 141.281 158.923 141.281C158.851 141.281 158.771 141.286 158.682 141.295C158.602 141.295 158.521 141.299 158.441 141.308H158.348V141.053Z" fill="#FFFFFF"/>
<path d="M173.168 143.845V149.295C173.168 149.573 173.177 149.796 173.194 149.966C173.221 150.127 173.275 150.257 173.355 150.356C173.435 150.445 173.547 150.508 173.689 150.544C173.841 150.579 174.046 150.611 174.304 150.638V150.852H170.68V150.638C170.948 150.62 171.157 150.593 171.309 150.557C171.469 150.512 171.59 150.445 171.67 150.356C171.759 150.257 171.817 150.127 171.844 149.966C171.87 149.796 171.884 149.573 171.884 149.295V145.738C171.884 145.398 171.844 145.161 171.763 145.026C171.692 144.883 171.567 144.812 171.389 144.812C171.318 144.812 171.233 144.816 171.135 144.825C171.046 144.834 170.952 144.847 170.854 144.865L170.747 144.879V144.651L173.101 143.805L173.168 143.845ZM172.405 140.382C172.619 140.382 172.802 140.462 172.954 140.624C173.105 140.776 173.181 140.959 173.181 141.174C173.181 141.398 173.105 141.586 172.954 141.738C172.811 141.881 172.624 141.952 172.392 141.952C172.169 141.952 171.986 141.881 171.844 141.738C171.701 141.586 171.63 141.398 171.63 141.174C171.63 140.959 171.705 140.776 171.857 140.624C172.009 140.462 172.191 140.382 172.405 140.382Z" fill="#FFFFFF"/>
<path d="M183.053 144.49C183.472 144.373 183.833 144.266 184.136 144.167C184.448 144.069 184.787 143.948 185.153 143.805L185.273 143.832V145.053C185.531 144.812 185.759 144.61 185.955 144.449C186.151 144.288 186.329 144.163 186.49 144.073C186.659 143.975 186.82 143.908 186.971 143.872C187.132 143.827 187.301 143.805 187.479 143.805C188.041 143.805 188.482 144.006 188.803 144.409C189.124 144.812 189.285 145.375 189.285 146.1V149.617C189.285 149.984 189.347 150.235 189.472 150.369C189.597 150.503 189.842 150.593 190.208 150.638V150.852H187.038V150.638C187.225 150.62 187.381 150.588 187.506 150.544C187.631 150.499 187.729 150.427 187.8 150.329C187.881 150.23 187.934 150.101 187.961 149.94C187.988 149.778 188.001 149.577 188.001 149.335V146.127C188.001 145.143 187.631 144.651 186.891 144.651C186.766 144.651 186.646 144.664 186.53 144.691C186.414 144.718 186.294 144.762 186.169 144.825C186.053 144.888 185.924 144.977 185.781 145.094C185.647 145.21 185.487 145.353 185.3 145.523V149.832C185.3 150.11 185.371 150.306 185.514 150.423C185.656 150.53 185.924 150.602 186.316 150.638V150.852H183.08V150.638C183.276 150.62 183.432 150.593 183.548 150.557C183.673 150.512 183.771 150.445 183.842 150.356C183.913 150.266 183.962 150.154 183.989 150.02C184.016 149.877 184.029 149.698 184.029 149.483V145.671C184.029 145.295 183.989 145.04 183.909 144.906C183.829 144.762 183.682 144.691 183.468 144.691C183.307 144.691 183.169 144.713 183.053 144.758V144.49Z" fill="#FFFFFF"/>
<path d="M205.883 150.315C205.491 150.414 205.139 150.512 204.827 150.611C204.515 150.709 204.163 150.834 203.771 150.987L203.73 150.96V149.684L203.062 150.342C202.857 150.557 202.616 150.723 202.34 150.839C202.063 150.946 201.782 151 201.497 151C200.935 151 200.485 150.821 200.146 150.463C199.817 150.105 199.652 149.622 199.652 149.013V145.174C199.652 144.816 199.585 144.57 199.451 144.436C199.326 144.302 199.077 144.221 198.702 144.194V143.926H200.922V148.96C200.922 149.282 201.029 149.559 201.243 149.792C201.457 150.016 201.716 150.127 202.019 150.127C202.25 150.127 202.482 150.083 202.714 149.993C202.955 149.895 203.178 149.752 203.383 149.564C203.481 149.492 203.552 149.398 203.597 149.282C203.641 149.156 203.664 148.991 203.664 148.785V145.161C203.664 144.973 203.646 144.821 203.61 144.704C203.583 144.579 203.525 144.481 203.436 144.409C203.356 144.337 203.24 144.288 203.089 144.261C202.937 144.226 202.745 144.203 202.513 144.194V143.926H204.934V149.215C204.934 149.573 204.992 149.81 205.108 149.926C205.224 150.033 205.456 150.087 205.803 150.087H205.883V150.315Z" fill="#FFFFFF"/>
<path d="M218.577 150.638C218.827 150.62 218.987 150.588 219.059 150.544C219.139 150.49 219.179 150.396 219.179 150.262C219.179 150.208 219.17 150.159 219.152 150.114C219.134 150.069 219.108 150.02 219.072 149.966L217.695 147.845L216.504 149.725C216.388 149.895 216.304 150.029 216.25 150.127C216.206 150.226 216.183 150.297 216.183 150.342C216.183 150.441 216.228 150.517 216.317 150.57C216.406 150.615 216.567 150.638 216.799 150.638V150.852H214.579V150.638C214.703 150.629 214.81 150.611 214.9 150.584C214.989 150.557 215.073 150.517 215.154 150.463C215.234 150.409 215.314 150.338 215.394 150.248C215.484 150.15 215.582 150.02 215.689 149.859L217.44 147.322L215.996 145.107C215.871 144.928 215.76 144.78 215.662 144.664C215.573 144.548 215.484 144.454 215.394 144.382C215.314 144.311 215.229 144.261 215.14 144.234C215.051 144.208 214.949 144.194 214.833 144.194H214.672V143.953H217.842V144.194C217.61 144.203 217.44 144.23 217.333 144.275C217.235 144.319 217.186 144.405 217.186 144.53C217.186 144.628 217.249 144.798 217.374 145.04C217.498 145.282 217.672 145.563 217.895 145.886C217.931 145.939 217.966 145.993 218.002 146.047C218.038 146.091 218.073 146.145 218.109 146.208C218.18 146.1 218.252 145.993 218.323 145.886C218.403 145.769 218.488 145.648 218.577 145.523C218.756 145.273 218.889 145.071 218.978 144.919C219.076 144.758 219.125 144.628 219.125 144.53C219.125 144.431 219.081 144.355 218.992 144.302C218.912 144.248 218.756 144.212 218.524 144.194V143.953H220.931V144.194C220.681 144.203 220.449 144.266 220.235 144.382C220.021 144.49 219.843 144.651 219.701 144.865L218.43 146.704L220.369 149.698C220.601 150.056 220.811 150.302 220.998 150.436C221.194 150.57 221.408 150.638 221.64 150.638V150.852H218.577V150.638Z" fill="#FFFFFF"/>
<path d="M223.969 113.51V110.745H225.365C225.477 110.745 225.599 110.778 225.731 110.842C225.863 110.905 225.975 111.002 226.067 111.135C226.161 111.265 226.209 111.429 226.209 111.629C226.209 111.831 226.16 112.004 226.063 112.146C225.966 112.286 225.848 112.392 225.708 112.465C225.572 112.537 225.442 112.573 225.32 112.573H224.313V112.124H225.134C225.216 112.124 225.304 112.082 225.399 112C225.496 111.918 225.544 111.794 225.544 111.629C225.544 111.459 225.496 111.344 225.399 111.285C225.304 111.225 225.221 111.195 225.149 111.195H224.574V113.51H223.969ZM225.634 112.206L226.321 113.51H225.656L224.984 112.206H225.634ZM225.014 115.158C224.601 115.158 224.214 115.081 223.854 114.926C223.493 114.771 223.176 114.556 222.902 114.281C222.628 114.007 222.414 113.688 222.26 113.326C222.106 112.964 222.029 112.576 222.029 112.161C222.029 111.747 222.106 111.358 222.26 110.996C222.414 110.634 222.628 110.315 222.902 110.041C223.176 109.766 223.493 109.551 223.854 109.396C224.214 109.242 224.601 109.164 225.014 109.164C225.427 109.164 225.814 109.242 226.175 109.396C226.536 109.551 226.853 109.766 227.127 110.041C227.4 110.315 227.614 110.634 227.769 110.996C227.923 111.358 228 111.747 228 112.161C228 112.576 227.923 112.964 227.769 113.326C227.614 113.688 227.4 114.007 227.127 114.281C226.853 114.556 226.536 114.771 226.175 114.926C225.814 115.081 225.427 115.158 225.014 115.158ZM225.014 114.439C225.432 114.439 225.813 114.336 226.156 114.132C226.5 113.927 226.773 113.652 226.977 113.307C227.181 112.963 227.283 112.581 227.283 112.161C227.283 111.742 227.181 111.359 226.977 111.015C226.773 110.67 226.5 110.395 226.156 110.191C225.813 109.986 225.432 109.883 225.014 109.883C224.596 109.883 224.216 109.986 223.872 110.191C223.529 110.395 223.255 110.67 223.051 111.015C222.847 111.359 222.745 111.742 222.745 112.161C222.745 112.581 222.847 112.963 223.051 113.307C223.255 113.652 223.529 113.927 223.872 114.132C224.216 114.336 224.596 114.439 225.014 114.439Z" fill="#FFFFFF"/>
<path d="M28 144.224H152.013V146.334H28V144.224Z" fill="#FFFFFF"/>
<path d="M28 130.51H30.1019V144.224H28V130.51Z" fill="#FFFFFF"/>
</svg>