<svg width="256" height="256" title="Slack" viewBox="0 0 256 256" fill="none" xmlns="http://www.w3.org/2000/svg" id="slack">
<style>
#slack {
    rect {fill: #15191C}

    @media (prefers-color-scheme: light) {
        rect {fill: #F4F2ED}
    }
}
</style>
<rect width="256" height="256" rx="40" fill="#15191C"/>
<path d="M80.7853 150.307C80.7853 159.897 73.0407 167.648 63.4584 167.648C53.876 167.648 46.1314 159.897 46.1314 150.307C46.1314 140.717 53.876 132.967 63.4584 132.967H80.7853V150.307ZM89.4488 150.307C89.4488 140.717 97.1934 132.967 106.776 132.967C116.358 132.967 124.103 140.717 124.103 150.307V193.659C124.103 203.249 116.358 211 106.776 211C97.1934 211 89.4488 203.249 89.4488 193.659V150.307Z" fill="#E01E5A"/>
<path d="M106.776 80.6815C97.1933 80.6815 89.4487 72.9307 89.4487 63.3408C89.4487 53.7508 97.1933 46 106.776 46C116.358 46 124.103 53.7508 124.103 63.3408V80.6815H106.776ZM106.776 89.4833C116.358 89.4833 124.103 97.2341 124.103 106.824C124.103 116.414 116.358 124.165 106.776 124.165H63.327C53.7446 124.165 46 116.414 46 106.824C46 97.2341 53.7446 89.4833 63.327 89.4833H106.776Z" fill="#36C5F0"/>
<path d="M176.215 106.824C176.215 97.2341 183.959 89.4833 193.542 89.4833C203.124 89.4833 210.869 97.2341 210.869 106.824C210.869 116.414 203.124 124.165 193.542 124.165H176.215V106.824ZM167.551 106.824C167.551 116.414 159.807 124.165 150.224 124.165C140.642 124.165 132.897 116.414 132.897 106.824V63.3408C132.897 53.7508 140.642 46 150.224 46C159.807 46 167.551 53.7508 167.551 63.3408V106.824Z" fill="#2EB67D"/>
<path d="M150.224 176.318C159.807 176.318 167.551 184.069 167.551 193.659C167.551 203.249 159.807 211 150.224 211C140.642 211 132.897 203.249 132.897 193.659V176.318H150.224ZM150.224 167.648C140.642 167.648 132.897 159.897 132.897 150.307C132.897 140.717 140.642 132.967 150.224 132.967H193.673C203.255 132.967 211 140.717 211 150.307C211 159.897 203.255 167.648 193.673 167.648H150.224Z" fill="#ECB22E"/>
</svg>