<svg width="256" height="256" viewBox="0 0 256 256" fill="none" xmlns="http://www.w3.org/2000/svg">
<rect width="256" height="256" rx="25" fill="#29B5E8"/>
<path fill-rule="evenodd" clip-rule="evenodd" d="M197.968 117.509L179.402 128.207L197.968 138.815C199.079 139.457 200.052 140.311 200.832 141.329C201.612 142.347 202.184 143.508 202.515 144.747C202.847 145.986 202.931 147.278 202.763 148.55C202.595 149.821 202.178 151.047 201.536 152.157C200.894 153.267 200.04 154.24 199.023 155.021C198.005 155.801 196.843 156.373 195.604 156.704C194.365 157.035 193.073 157.12 191.802 156.952C190.531 156.784 189.305 156.367 188.195 155.725L154.928 136.561C153.403 135.679 152.145 134.401 151.286 132.864C150.426 131.326 149.998 129.585 150.046 127.824C150.072 127.061 150.19 126.304 150.396 125.569C151.077 123.105 152.695 121.005 154.905 119.719L188.172 100.622C189.287 99.9777 190.518 99.5595 191.795 99.3915C193.072 99.2234 194.37 99.3089 195.614 99.6429C196.858 99.9769 198.024 100.553 199.045 101.338C200.066 102.123 200.922 103.102 201.564 104.218C202.21 105.325 202.628 106.549 202.797 107.819C202.965 109.088 202.879 110.379 202.545 111.615C202.21 112.852 201.633 114.01 200.848 115.021C200.062 116.033 199.083 116.879 197.968 117.509ZM180.394 169.365L147.138 150.235C145.65 149.381 143.965 148.931 142.249 148.931C140.534 148.93 138.848 149.378 137.359 150.231C135.871 151.083 134.631 152.311 133.764 153.791C132.897 155.271 132.432 156.952 132.415 158.667V196.883C132.501 199.422 133.571 201.829 135.397 203.594C137.224 205.36 139.665 206.347 142.206 206.347C144.747 206.347 147.188 205.36 149.014 203.594C150.841 201.829 151.91 199.422 151.997 196.883V175.464L170.608 186.162C171.719 186.805 172.945 187.222 174.216 187.391C175.488 187.56 176.781 187.476 178.02 187.146C179.259 186.815 180.421 186.243 181.44 185.463C182.458 184.683 183.313 183.71 183.956 182.6C184.598 181.49 185.016 180.264 185.185 178.992C185.353 177.72 185.27 176.428 184.939 175.189C184.608 173.949 184.037 172.787 183.257 171.769C182.477 170.75 181.504 169.895 180.394 169.253V169.365ZM142.065 131.984L128.199 145.681C127.725 146.122 127.11 146.381 126.463 146.413H122.393C121.748 146.375 121.135 146.116 120.657 145.681L106.87 131.939C106.439 131.468 106.184 130.863 106.149 130.225V126.167C106.186 125.527 106.441 124.918 106.87 124.442L120.657 110.7C121.136 110.268 121.749 110.013 122.393 109.979H126.463C127.108 110.009 127.723 110.264 128.199 110.7L142.02 124.442C142.446 124.919 142.697 125.528 142.73 126.167V130.225C142.699 130.861 142.448 131.467 142.02 131.939L142.065 131.984ZM131.017 128.174C130.964 127.516 130.69 126.897 130.24 126.415L126.238 122.458C125.758 122.027 125.146 121.772 124.502 121.737H124.355C123.714 121.77 123.104 122.025 122.63 122.458L118.628 126.415C118.199 126.899 117.948 127.516 117.918 128.162V128.309C117.946 128.946 118.198 129.552 118.628 130.022L122.653 133.968C123.128 134.399 123.737 134.654 124.378 134.689H124.524C125.168 134.654 125.781 134.399 126.26 133.968L130.262 129.989C130.694 129.517 130.953 128.913 130.995 128.275L131.017 128.174ZM68.463 87.0493L101.73 106.123C103.219 106.977 104.906 107.426 106.623 107.426C108.34 107.426 110.027 106.977 111.516 106.123C113.006 105.27 114.246 104.041 115.114 102.56C115.982 101.079 116.447 99.3965 116.464 97.6798V59.4979C116.378 56.9587 115.308 54.5524 113.482 52.7866C111.655 51.0208 109.214 50.0338 106.673 50.0338C104.133 50.0338 101.691 51.0208 99.8646 52.7866C98.0379 54.5524 96.9686 56.9587 96.8825 59.4979V80.9167L78.248 70.2073C77.1377 69.5648 75.9118 69.1473 74.6401 68.9786C73.3684 68.8099 72.076 68.8933 70.8366 69.2241C69.5972 69.5549 68.4351 70.1266 67.4166 70.9065C66.3981 71.6864 65.5432 72.6593 64.9007 73.7696C64.2582 74.8799 63.8407 76.1059 63.672 77.3775C63.5033 78.6492 63.5867 79.9416 63.9175 81.1811C64.2483 82.4205 64.82 83.5826 65.5999 84.6011C66.3798 85.6196 67.3527 86.4745 68.463 87.1169V87.0493ZM141.468 107.431C143.432 107.586 145.397 107.142 147.104 106.157L180.36 86.9929C181.47 86.3504 182.443 85.4956 183.223 84.4771C184.003 83.4586 184.574 82.2965 184.905 81.057C185.236 79.8176 185.319 78.5252 185.151 77.2535C184.982 75.9819 184.565 74.7559 183.922 73.6456C183.28 72.5353 182.425 71.5624 181.406 70.7825C180.388 70.0026 179.226 69.4309 177.986 69.1001C175.483 68.4321 172.817 68.7857 170.575 70.0833L151.963 80.8829V59.464C151.877 56.9249 150.807 54.5185 148.981 52.7528C147.154 50.987 144.713 50 142.172 50C139.632 50 137.19 50.987 135.364 52.7528C133.537 54.5185 132.468 56.9249 132.381 59.464V97.6798C132.378 100.154 133.315 102.537 135.002 104.347C136.688 106.157 138.999 107.26 141.468 107.431ZM107.412 148.961C105.447 148.801 103.48 149.246 101.775 150.235L68.463 169.32C66.2206 170.618 64.5856 172.753 63.9175 175.256C63.2495 177.759 63.6031 180.425 64.9007 182.668C66.1983 184.91 68.3335 186.545 70.8366 187.213C73.3397 187.881 76.0057 187.528 78.248 186.23L96.8825 175.532V196.951C96.9686 199.49 98.0379 201.896 99.8646 203.662C101.691 205.428 104.133 206.415 106.673 206.415C109.214 206.415 111.655 205.428 113.482 203.662C115.308 201.896 116.378 199.49 116.464 196.951V158.667C116.459 156.206 115.523 153.837 113.844 152.037C112.165 150.236 109.867 149.138 107.412 148.961ZM98.3931 131.071C99.0352 128.959 98.9385 126.691 98.1187 124.642C97.299 122.593 95.8052 120.884 93.8838 119.798L60.6507 100.645C58.4063 99.3591 55.7446 99.0133 53.2462 99.6828C50.7478 100.352 48.6156 101.983 47.3147 104.218C46.6706 105.325 46.2524 106.548 46.0841 107.817C45.9157 109.086 46.0007 110.376 46.3341 111.612C46.6675 112.848 47.2426 114.005 48.0263 115.018C48.8099 116.03 49.7865 116.877 50.8995 117.509L69.4663 128.207L50.8995 138.815C49.7892 139.456 48.8159 140.308 48.0351 141.325C47.2544 142.341 46.6815 143.501 46.3491 144.739C46.0167 145.977 45.9314 147.268 46.0981 148.539C46.2647 149.81 46.68 151.035 47.3203 152.146C47.9606 153.256 48.8133 154.229 49.8297 155.01C50.8461 155.791 52.0064 156.364 53.2443 156.696C54.4821 157.029 55.7733 157.114 57.0441 156.947C58.3149 156.781 59.5404 156.365 60.6507 155.725L93.8838 136.561C96.0239 135.366 97.6313 133.404 98.3818 131.071H98.3931ZM203.402 67.6934H201.903V69.5309H203.391C204.078 69.5309 204.518 69.2153 204.518 68.6291C204.518 68.0429 204.112 67.6934 203.391 67.6934H203.402ZM200.088 66.0024H203.47C205.296 66.0024 206.513 67.0057 206.513 68.5614C206.519 68.9945 206.409 69.4212 206.195 69.7977C205.981 70.1742 205.671 70.4868 205.296 70.7033L206.615 72.5972V72.9805H204.71L203.391 71.1768H201.903V72.9805H200.076L200.088 66.0024ZM209.444 69.6324C209.499 68.779 209.376 67.9235 209.083 67.1201C208.79 66.3167 208.334 65.5828 207.742 64.965C207.151 64.3472 206.438 63.8589 205.648 63.531C204.858 63.2031 204.009 63.0428 203.154 63.0602C199.423 63.0602 196.942 65.7544 196.942 69.6324C196.942 73.33 199.423 76.1933 203.154 76.1933C204.009 76.2139 204.86 76.0562 205.651 75.7302C206.442 75.4043 207.157 74.9173 207.749 74.3002C208.342 73.6831 208.8 72.9495 209.094 72.1458C209.387 71.3422 209.511 70.4862 209.456 69.6324H209.444ZM211 69.6324C211 74.0176 208.069 77.6814 203.109 77.6814C198.149 77.6814 195.342 73.9838 195.342 69.6324C195.342 65.281 198.239 61.5834 203.109 61.5834C207.979 61.5834 210.989 65.2359 210.989 69.6324H211Z" fill="white"/>
</svg>