<svg width="256" height="256" title="Socket.IO" viewBox="0 0 256 256" fill="none" xmlns="http://www.w3.org/2000/svg" id="socketio">
<style>
#socketio {
    rect {fill: #15191C}
    path {fill: #F4F2ED}

    @media (prefers-color-scheme: light) {
        rect {fill: #F4F2ED}
        path {fill: #15191C}
    }
}
</style>
<rect width="256" height="256" rx="40" fill="#15191C"/>
<path d="M128.061 46.0007C121.163 46.0205 114.294 46.8934 107.609 48.5995C75.4359 56.5951 49.9035 85.743 46.631 118.79C42.5748 150.063 58.3728 182.628 85.4314 198.777C111.974 215.4 147.943 214.726 173.936 197.244C197.29 182.077 211.83 154.428 210.963 126.538C210.565 98.9285 195.082 72.1106 171.372 57.9281C158.434 49.9463 143.234 45.9388 128.061 46.0007ZM127.628 57.6607C161.624 57.6126 194.925 83.8799 198.313 119.017C204.81 157.927 172.513 197.477 133.087 198.626C95.592 202.366 59.3559 170.577 58.2903 132.924C55.4922 102.442 75.5871 72.1862 104.337 62.115C111.747 59.1632 119.652 57.6472 127.628 57.6607ZM162.627 79.8312C144.155 94.1649 126.466 109.447 108.393 124.221C116.663 124.338 124.974 124.331 133.286 124.29C142.98 109.405 152.941 94.7217 162.627 79.8312ZM123.683 132.45C113.989 147.341 104.02 162.073 94.327 176.956C112.841 162.657 130.454 147.258 148.651 132.573C140.329 132.473 132.006 132.432 123.683 132.45Z" fill="#F4F2ED"/>
</svg>