<svg width="256" height="256" title="SonarQube" viewBox="0 0 256 256" fill="none" xmlns="http://www.w3.org/2000/svg">
<rect width="256" height="256" rx="40" fill="#290042"/>
<path d="M175.823 118.538C175.823 106.11 173.562 94.1793 169.079 83.0513C168.197 83.4337 167.469 83.7779 167.01 84.0073C164.979 85.0398 163.829 87.2578 164.097 89.514C164.634 94.1411 164.979 99.5329 164.979 104.39C164.979 127.104 157.621 148.901 144.286 165.766C131.679 181.712 114.742 191.922 96.3098 194.866C96.3482 194.866 96.4248 194.943 96.4632 194.943C107.231 201.061 120.413 201.444 131.526 196.014C157.544 183.241 175.861 153.299 175.861 118.5H175.823V118.538Z" fill="#D3121D"/>
<path d="M180.919 80.7566C179.195 80.7184 177.586 80.8331 176.091 81.0625C180.728 92.8406 183.104 105.46 183.104 118.538C183.104 157.543 161.3 192.227 129.495 204.847C131.104 204.962 132.713 205 134.361 205H134.591C149.919 205 164.48 197.963 174.099 186.071C186.284 171.004 193.757 150.775 193.757 128.519C193.757 111.311 189.35 94.8291 180.958 80.7566H180.919Z" fill="#D3121D"/>
<path d="M210.962 128.52C210.962 118.118 208.893 108.214 205.137 99.1891C203.413 95.0209 200.999 91.1968 197.78 88.0228C195.979 86.2638 194.063 84.7724 191.994 83.7017C191.457 83.434 190.921 83.1663 190.384 82.9369C197.32 96.7417 200.999 112.42 200.999 128.52C200.999 151.12 193.641 172.879 180.536 189.551C199.045 175.593 211 153.452 211 128.52H210.962Z" fill="#D3121D"/>
<path d="M189.312 75.212C175.364 60.91 155.897 52 134.323 52C91.9423 52 57.2249 87.0283 57.6847 129.284C57.7996 139.609 59.9455 149.475 63.7775 158.423C62.5129 158.27 61.2484 158.193 59.9838 158.27C56.5351 158.423 51.7069 157.199 49.4843 156.587C47.3384 155.976 45.3075 157.735 46.2271 159.8V159.876C53.8527 177.275 70.7133 188.595 86.8075 188.557C87.8805 188.557 88.9534 188.48 90.0264 188.404C127.733 185.536 157.66 148.978 157.66 104.466C157.66 101.674 157.545 98.8828 157.315 96.0912C157.201 94.5616 155.246 94.0262 154.326 95.2499C143.903 109.016 128.461 133.261 109.11 120.642C101.714 115.785 97.6904 105.384 99.9509 94.7528C103.974 75.7091 126.238 63.2044 136.01 67.105C136.776 67.4109 139.535 68.5199 140.455 71.0055C141.873 74.8296 137.581 78.0035 135.358 84.7721C132.982 92.1142 134.323 99.9153 136.01 100.221C137.849 100.604 140.991 93.7968 148.694 87.5636C154.288 83.0895 158.503 81.7893 161.147 77.0475C163.715 72.4586 159.155 67.4874 160.688 67.0667C162.259 66.6079 163.676 71.9997 168.275 74.6384C172.107 76.8563 175.555 75.4796 180.613 75.2884C180.613 75.2884 182.759 75.212 186.246 75.7091C186.246 75.7091 187.243 75.862 188.814 76.168C189.351 76.2827 189.734 75.5944 189.351 75.212H189.312ZM132.178 134.179C132.752 133.528 133.826 132.267 135.665 132.075C136.01 132.075 137.849 131.884 139.075 133.032C140.876 134.752 140.378 138.079 138.769 139.991C137.274 141.75 134.362 142.936 132.293 141.597C130.568 140.489 130.492 138.117 130.492 137.926C130.492 136.091 131.565 134.829 132.14 134.179H132.178Z" fill="#FFFFFF"/>
</svg>