<svg width="256" height="256" title="Spring Boot" viewBox="0 0 256 256" fill="none" xmlns="http://www.w3.org/2000/svg" id="springboot">
<style>
#springboot {
    rect {fill: #15191C}

    @media (prefers-color-scheme: light) {
        rect {fill: #F4F2ED}
    }
}
</style>
<rect width="256" height="256" rx="40" fill="#15191C"/>
<path d="M205.953 119.35L174.42 64.6501C171.691 59.9004 164.976 56 159.485 56H96.4832C91.0238 56 84.2781 59.9004 81.5484 64.6501L50.0473 119.35C47.3176 124.1 47.3176 131.869 50.0473 136.619L81.5484 191.35C84.2781 196.1 90.9925 200 96.4832 200H159.517C164.976 200 171.691 196.1 174.452 191.35L205.953 136.619C208.682 131.869 208.682 124.1 205.953 119.35ZM121.176 86.2595C121.176 82.6737 124.094 79.7484 127.671 79.7484C131.247 79.7484 134.165 82.6737 134.165 86.2595V125.169C134.165 128.755 131.247 131.68 127.671 131.68C124.094 131.68 121.176 128.755 121.176 125.169V86.2595ZM127.671 169.332C103.386 169.332 83.6192 149.515 83.6192 125.169C83.6506 111.203 90.2394 98.0865 101.409 89.7195C103.982 87.8008 107.59 88.3355 109.504 90.9148C111.418 93.4941 110.885 97.1114 108.312 99.0301C93.9104 109.756 90.8983 130.17 101.597 144.608C112.296 159.046 132.659 162.066 147.061 151.339C155.312 145.206 160.176 135.486 160.176 125.169C160.144 114.82 155.25 105.101 146.935 98.9358C144.362 97.0485 143.829 93.3997 145.712 90.8204C147.594 88.2412 151.234 87.7064 153.806 89.5937C165.07 97.9292 171.691 111.14 171.722 125.169C171.722 149.547 151.955 169.332 127.671 169.332Z" fill="#6DB33F"/>
</svg>