<svg width="256" height="256" title="Spring" viewBox="0 0 256 256" fill="none" xmlns="http://www.w3.org/2000/svg" id="spring">
<style>
#spring {
    rect {fill: #15191C}

    @media (prefers-color-scheme: light) {
        rect {fill: #F4F2ED}
    }
}
</style>
<rect width="256" height="256" rx="40" fill="#15191C"/>
<path d="M197.791 52.9342C195.431 58.5959 192.376 63.9422 188.697 68.8501C180.819 60.7004 171.387 54.2136 160.958 49.7735C150.529 45.3334 139.315 43.0303 127.981 43.0003C116.646 42.9703 105.42 45.2141 94.9682 49.599C84.516 53.9839 75.0495 60.4207 67.1288 68.5286C59.2081 76.6365 52.9941 86.2507 48.8546 96.8025C44.715 107.354 42.734 118.629 43.0287 129.96C43.3233 141.291 45.8878 152.448 50.5702 162.77C55.2526 173.092 61.958 182.37 70.2894 190.056L73.4376 192.854C85.3845 202.93 99.8871 209.502 115.339 211.844C130.791 214.185 146.59 212.204 160.985 206.12C175.381 200.036 187.812 190.086 196.901 177.372C205.99 164.659 211.383 149.677 212.483 134.088C214.932 112.75 208.46 85.4656 197.791 52.9342ZM82.5324 190.755C81.6331 191.86 80.4265 192.674 79.0649 193.094C77.7033 193.513 76.248 193.519 74.8827 193.112C73.5175 192.705 72.3037 191.902 71.3947 190.805C70.4856 189.708 69.9222 188.366 69.7756 186.949C69.629 185.531 69.9058 184.103 70.571 182.843C71.2362 181.583 72.26 180.548 73.5129 179.87C74.7658 179.192 76.1917 178.9 77.6103 179.032C79.0289 179.164 80.3766 179.713 81.483 180.611C82.9334 181.84 83.8526 183.581 84.0482 185.472C84.2438 187.363 83.7006 189.256 82.5324 190.755ZM197.267 165.395C176.454 193.204 131.679 183.759 103.171 185.158C103.171 185.158 98.0985 185.508 93.0264 186.208C93.0264 186.208 94.9503 185.333 97.3989 184.459C117.512 177.463 126.957 176.064 139.2 169.767C162.112 158.049 185.024 132.339 189.571 105.754C180.826 131.289 154.241 153.327 130.105 162.247C113.49 168.368 83.5818 174.315 83.5818 174.315L82.3575 173.615C62.0691 163.646 61.3695 119.571 98.4483 105.404C114.714 99.1078 130.105 102.606 147.77 98.4082C166.484 94.0357 188.172 80.0437 196.917 61.6792C206.711 91.2373 218.604 137.061 197.267 165.395Z" fill="#6DB33F"/>
</svg>