<svg width="256" height="256" title="Spring Cloud" viewBox="0 0 256 256" fill="none" xmlns="http://www.w3.org/2000/svg" id="springcloud">
<style>
#springcloud {
    rect {fill: #15191C}

    @media (prefers-color-scheme: light) {
        rect {fill: #F4F2ED}
    }
}
</style>
<rect width="256" height="256" rx="40" fill="#15191C"/>
<path d="M101.137 163.156C100.719 163.67 100.158 164.049 99.5243 164.245C98.8908 164.44 98.2136 164.444 97.5783 164.254C96.9429 164.065 96.3779 163.691 95.9547 163.18C95.5315 162.67 95.269 162.045 95.2005 161.385C95.1319 160.726 95.2603 160.06 95.5695 159.473C95.8787 158.887 96.3547 158.405 96.9375 158.088C97.5203 157.772 98.1837 157.636 98.8439 157.697C99.504 157.758 100.131 158.013 100.646 158.431C100.989 158.708 101.274 159.051 101.484 159.439C101.694 159.827 101.826 160.252 101.871 160.691C101.917 161.13 101.876 161.574 101.75 161.997C101.624 162.42 101.416 162.813 101.137 163.156ZM154.416 151.395C144.701 164.306 124.026 159.957 110.801 160.574C110.801 160.574 108.45 160.71 106.079 161.096C106.079 161.096 106.977 160.72 108.116 160.323C117.403 157.103 121.801 156.455 127.516 153.538C138.14 148.092 148.723 136.227 150.875 123.892C146.78 135.768 134.473 145.96 123.264 150.11C115.596 152.932 101.722 155.692 101.722 155.692L101.158 155.399C91.7562 150.81 91.4533 130.311 108.586 123.767C116.097 120.882 123.285 122.471 131.402 120.537C140.062 118.446 150.091 111.975 154.176 103.477C158.741 117.045 164.236 138.266 154.385 151.448L154.416 151.395Z" fill="#6DB33F"/>
<path d="M87.5984 184C77.1063 184.008 66.9994 180.045 59.3056 172.907C51.6118 165.768 46.9003 155.983 46.1163 145.513C45.3323 135.044 48.5339 124.665 55.0787 116.459C61.6235 108.254 71.0273 102.828 81.4034 101.271C86.7731 93.8281 93.4799 85.4653 103.216 79.7576C113.158 73.937 124.636 71.288 136.121 72.1639C147.606 73.0399 158.551 77.3992 167.496 84.6603L167.6 84.7544C172.137 88.6493 176.23 93.0352 179.802 97.8318C182.918 101.803 185.271 106.319 186.739 111.15C186.833 111.494 186.916 111.693 186.958 111.819C187.167 111.923 187.533 112.08 187.825 112.205L188.943 112.697C194.499 115.234 199.362 119.075 203.119 123.892C207.406 129.383 210.065 135.967 210.795 142.896C211.525 149.825 210.296 156.82 207.247 163.084C204.199 169.348 199.454 174.63 193.553 178.328C187.651 182.026 180.831 183.991 173.868 184H87.5984ZM131.778 80.3639C123.223 80.37 114.823 82.6499 107.437 86.9706C99.0272 91.9046 92.9576 99.5148 88.1416 106.215L87.9431 106.508C87.4958 107.289 86.8749 107.956 86.1286 108.458C85.3822 108.96 84.5304 109.284 83.639 109.404C75.2218 110.4 67.5036 114.578 62.0654 121.084C56.6271 127.589 53.8804 135.929 54.3879 144.395C54.8953 152.861 58.6184 160.813 64.7947 166.621C70.971 172.429 79.1329 175.655 87.6088 175.637H173.837C179.238 175.636 184.529 174.116 189.109 171.251C193.688 168.386 197.371 164.291 199.737 159.433C202.103 154.575 203.058 149.15 202.493 143.775C201.927 138.401 199.864 133.293 196.538 129.035C194.606 126.564 192.297 124.412 189.695 122.659C188.367 121.762 186.97 120.972 185.516 120.296L184.587 119.889C183.382 119.461 182.263 118.82 181.285 117.997C180.001 116.748 179.105 115.154 178.705 113.407C177.511 109.556 175.608 105.961 173.095 102.808C169.9 98.5292 166.246 94.6137 162.199 91.1311C153.6 84.1446 142.855 80.3415 131.778 80.3639Z" fill="#6DB33F"/>
</svg>