<svg width="256" height="256" title="SPSS" viewBox="0 0 256 256" fill="none" xmlns="http://www.w3.org/2000/svg">
<rect width="256" height="256" rx="40" fill="#CC1E4C"/>
<path fill-rule="evenodd" clip-rule="evenodd" d="M213.834 108.166C211.362 108.166 209.54 109.992 209.54 112.337C209.54 114.683 211.362 116.509 213.834 116.509C216.177 116.509 218 114.684 218 112.337C218 109.99 216.177 108.166 213.834 108.166ZM213.706 108.819H213.834C215.656 108.819 217.089 110.383 217.089 112.337C217.089 114.293 215.655 115.856 213.834 115.856C211.883 115.856 210.452 114.293 210.452 112.337C210.452 110.383 211.754 108.948 213.706 108.819ZM212.143 109.991V114.814H212.924V112.729H213.706L215.007 114.814H215.787L214.485 112.598C215.267 112.598 215.655 112.077 215.655 111.295C215.655 110.383 215.136 109.991 213.963 109.991H212.143ZM212.924 112.078V110.512H213.964C214.615 110.512 215.006 110.773 215.006 111.295C215.006 111.816 214.615 112.077 214.094 112.077L212.924 112.078ZM81.991 126.675C79.7788 124.98 77.0455 123.547 73.4015 122.504C68.7164 120.938 62.0786 119.375 59.3442 118.462C57.653 117.811 56.8725 116.767 56.8725 115.334C56.8725 113.38 59.215 112.207 62.0796 112.077C66.7647 112.207 68.1964 114.814 68.4559 116.768H81.9921L81.991 126.675ZM98.9107 139.319H108.932C117.652 139.188 124.681 134.757 128.194 128.5C128.455 127.978 128.715 127.457 128.974 126.936C129.495 127.587 130.016 127.978 130.538 128.5C133.01 130.585 136.002 132.149 139.256 133.193C144.464 135.018 148.498 136.32 149.928 136.842C152.532 138.014 154.225 138.796 154.225 141.143C154.225 143.879 151.102 145.054 147.977 145.184C143.682 145.054 139.257 142.968 139.387 138.537H122.208C123.119 149.875 134.311 158.739 147.588 159C155.656 158.87 163.076 156.523 167.891 150.787C172.706 155.74 178.303 158.87 186.244 159C198.737 158.87 211.753 152.743 211.883 139.448C211.883 135.276 210.711 131.496 208.109 128.499C205.765 125.762 202.382 123.806 197.697 122.504C193.01 120.938 186.373 119.375 183.641 118.462C181.948 117.811 181.167 116.767 181.167 115.334C181.167 113.38 183.51 112.207 186.373 112.077C191.06 112.207 192.491 114.814 192.751 116.768H209.019C209.149 105.56 199.779 98 186.372 98C176.35 98 169.582 101.78 166.329 107.254C162.685 101.519 155.396 98 146.286 98C136.654 98 130.147 101.649 126.632 106.863C122.727 101.781 116.219 98.5207 108.41 98.5207H81.991V107.124C78.347 101.388 71.0579 98 62.0786 98C48.1516 98 40.603 105.69 39.8215 114.553C39.8215 120.027 42.4245 124.98 46.5896 128.499C48.9321 130.584 51.7967 132.148 55.05 133.192C60.256 135.017 64.2908 136.319 65.7226 136.841C68.3256 138.013 70.0179 138.795 70.0179 141.142C70.0179 143.878 66.7636 145.053 63.7709 145.183C59.4755 145.053 55.051 142.967 55.1813 138.536H38C38.9107 149.874 50.1044 158.738 63.3801 158.999C70.6682 158.868 77.4363 156.913 81.9921 152.611V158.086H98.9118V139.319H98.9107ZM98.9107 112.598H108.021C111.406 112.598 114.268 115.466 114.268 118.985C114.268 122.504 111.406 125.37 108.021 125.37H98.9107V112.598ZM168.022 128.5C165.679 125.763 162.295 123.807 157.61 122.505C152.925 120.939 146.288 119.376 143.684 118.463C141.862 117.812 141.08 116.768 141.08 115.336C141.08 113.381 143.424 112.208 146.288 112.078C151.104 112.208 152.404 114.815 152.665 116.769H164.117C164.768 121.332 167.11 125.371 170.755 128.501C173.228 130.586 176.091 132.15 179.344 133.194C184.55 135.019 188.586 136.321 189.887 136.843C192.621 138.015 194.313 138.797 194.313 141.144C194.313 143.88 191.06 145.055 188.065 145.185C183.771 145.055 179.345 142.969 179.476 138.538H171.798C171.536 134.627 170.365 131.237 168.022 128.5Z" fill="white"/>
</svg>