<svg width="256" height="256" title="Spyder" viewBox="0 0 256 256" fill="none" xmlns="http://www.w3.org/2000/svg" id="spyder">
<style>
#spyder {
    rect {fill: #15191C}
    path.sp {fill: #F4F2ED}

    @media (prefers-color-scheme: light) {
        rect {fill: #F4F2ED}
        path.sp {fill: #15191C}
    }
}
</style>
<rect width="256" height="256" rx="40" fill="#15191C"/>
<path d="M194.475 55.0329C189.684 51.1276 183.692 48.9966 177.511 49H74.9533C70.5774 48.9947 66.2672 50.0639 62.4011 52.1137C57.8404 54.5277 54.0606 58.1894 51.5031 62.6712C51.0051 63.5293 50.561 64.4176 50.1733 65.3308C49.9462 65.9471 49.6705 66.5471 49.4597 67.1472C49.0368 68.3793 48.7115 69.6427 48.4867 70.9258C48.1604 72.5871 47.9974 74.2763 48.0002 75.9694V178.528C47.9858 182.571 48.8955 186.565 50.6598 190.204C52.8663 194.779 56.3205 198.637 60.6243 201.334C64.9282 204.031 69.9066 205.457 74.9857 205.448H129.687C129.878 205.45 130.067 205.415 130.244 205.343C130.421 205.272 130.582 205.166 130.718 205.031C130.854 204.897 130.961 204.737 131.035 204.561C131.108 204.385 131.146 204.196 131.146 204.005V197.518C131.146 197.131 130.992 196.76 130.719 196.486C130.445 196.212 130.074 196.058 129.687 196.058H122.584L101.387 153.05L149.796 88.9432C150.212 88.3797 150.515 87.7409 150.688 87.062L195.01 93.8408V103.814C195.014 104.2 195.169 104.569 195.442 104.842C195.715 105.115 196.084 105.27 196.47 105.274H203.054C203.438 105.27 203.805 105.114 204.075 104.841C204.346 104.568 204.497 104.199 204.497 103.814V75.9532C204.5 71.9381 203.601 67.9738 201.866 64.3528C200.131 60.7318 197.605 57.5468 194.475 55.0329ZM138.655 58.4709L140.941 76.7316L105.117 71.2502L103.496 58.4709H138.655ZM74.9533 58.4709H94.6573L96.0682 69.823L69.9422 65.8984L61.6713 64.6173C63.3053 62.6888 65.3402 61.1399 67.634 60.0784C69.9279 59.0168 72.4257 58.4683 74.9533 58.4709ZM94.9006 78.5479L76.6237 102.874L62.2227 73.5206L94.9006 78.5479ZM57.4711 83.7212L69.18 107.447L57.4711 108.89V83.7212ZM57.4711 117.778L73.2505 115.783L89.5975 148.882L57.4711 152.92V117.778ZM112.853 196.058H76.4129C73.9163 196.052 71.4454 195.553 69.1417 194.591C66.838 193.629 64.7466 192.222 62.9873 190.45C61.228 188.679 59.8352 186.578 58.8887 184.268C57.9421 181.958 57.4604 179.484 57.4711 176.987V161.597L93.6518 157.056L112.853 196.058ZM97.0737 144.358L80.8564 111.631L104.615 80.1697L141.233 85.7808L97.0737 144.358ZM194.978 85.0673L149.893 78.0614L147.445 58.4223H176.052C181.077 58.4394 185.891 60.4478 189.438 64.0073C192.986 67.5669 194.978 72.3874 194.978 77.4127V85.0673Z" fill="#8C0000"/>
<path d="M202.34 117.81C202.661 117.826 202.976 117.907 203.265 118.047C203.555 118.188 203.813 118.385 204.025 118.627C204.237 118.869 204.398 119.151 204.498 119.456C204.599 119.762 204.637 120.084 204.611 120.405V127.378C204.656 127.708 204.625 128.045 204.519 128.361C204.413 128.677 204.235 128.964 203.999 129.199C203.764 129.435 203.476 129.613 203.16 129.719C202.844 129.825 202.508 129.857 202.178 129.811H171.998C164.521 129.811 160.143 132.406 160.143 138.244V140.368C160.143 144.909 162.251 148.801 170.214 151.72L191.783 160.316C206.719 165.992 208 174.279 208 183.198V184.982C208 203.162 197.118 206.729 175.225 206.729C161.1 206.729 148.288 205.594 145.531 205.27C143.585 205.108 143.098 204.135 143.098 202.837V195.685C143.053 195.355 143.084 195.019 143.19 194.703C143.296 194.387 143.474 194.1 143.71 193.864C143.945 193.628 144.233 193.451 144.549 193.345C144.865 193.238 145.201 193.207 145.531 193.253H175.549C188.523 193.253 192.577 191.793 192.577 184.82V182.874C192.577 178.171 190.631 175.089 183.171 172.008L160.127 163.235C147.639 158.369 144.558 148.963 144.558 140.044V136.622C144.558 118.783 160.127 116.35 177.495 116.35C185.799 116.335 194.096 116.822 202.34 117.81Z" class="sp" fill="#F4F2ED"/>
</svg>