<svg width="256" height="256" viewBox="0 0 256 256" fill="none" xmlns="http://www.w3.org/2000/svg" id="custom-icon">
    <style>
        #custom-icon {
            rect { fill: #15191C; }

            @media (prefers-color-scheme: light) {
                rect { fill: #F4F2ED; }
            }
        }
    </style>
    <rect width="256" height="256" rx="25" fill="#15191C" />
    <path 
        d="M15.676 69.912c-.671-.107-2.39-.537-3.813-.926L9.27 68.26l1.33-2.444 1.329-2.444-1.074-1.33c-1.518-1.88-3.478-6.002-3.491-7.33-.014-3.103 4.014-7.601 8.956-10.018 3.397-1.665 6.096-1.705 9.48-.12l2.551 1.194.739-1.06c.402-.578.738-1.343.738-1.679s.336-.631.739-.631.738.107.738.228c0 .296-2.967 7.788-3.155 7.976-.081.08-.887-.295-1.8-.832-2.578-1.518-5.814-2.525-8.325-2.592-5.841-.148-7.869 5.56-3.746 10.554l1.45 1.76 3.961-3.21c4.445-3.585 4.955-3.666 8.42-1.275 3.893 2.685 3.96 6.767.2 11.037-3.33 3.8-6.753 4.848-12.635 3.867zm9.964-4.095c1.933-1.517 1.799-4.324-.296-6.553-2.632-2.793-3.45-2.672-8.083 1.195-4.606 3.84-4.633 3.693.873 5.452 3.638 1.181 5.921 1.141 7.506-.094zM63.05 80.614c-1.317-.483-4.862-1.947-7.896-3.263-8.191-3.572-9.346-3.639-11.79-.671-.564.685-1.181 1.114-1.356.94-.524-.524 1.034-3.035 2.914-4.686 1.53-1.343 2.04-1.531 3.733-1.343 1.074.12 4.646 1.37 7.935 2.766 7.426 3.155 9.601 3.827 12.435 3.827 3.45 0 5.223-2.417 4.135-5.626-.268-.806-.188-1.075.35-1.075 1.006 0 1.517 3.76.792 5.922-.31.926-1.209 2.242-2.001 2.9-1.182.994-1.934 1.209-4.15 1.195-1.49-.013-3.786-.402-5.102-.886z" 
        fill="#333"
        transform="translate(80, 80) scale(1.5)" />
</svg>
