<svg width="256" height="256" title="SQLite" viewBox="0 0 256 256" fill="none" xmlns="http://www.w3.org/2000/svg" id="sqlite">
<style>
#sqlite {
    rect {fill: #15191C}

    @media (prefers-color-scheme: light) {
        rect {fill: #F4F2ED}
    }
}
</style>
<rect width="256" height="256" rx="40" fill="#15191C"/>
<path d="M175.875 44.1597H60.0771C52.3065 44.1597 46 50.5226 46 58.2368V185.944C46 193.715 52.3628 200.021 60.0771 200.021H136.375C135.53 162.069 148.481 88.4181 175.903 44.0471L175.875 44.1597Z" fill="#0F80CC"/>
<path d="M171.652 48.2981H60.0772C57.4287 48.3056 54.8908 49.361 53.018 51.2337C51.1453 53.1065 50.0899 55.6444 50.0824 58.2929V176.681C75.3649 166.968 113.289 158.606 139.528 159C147.618 121.387 158.334 84.3932 171.652 48.2981Z" fill="url(#linearGradient)"/>
<path d="M202.903 39.9926C194.964 32.954 185.363 35.7695 175.875 44.1594L171.652 48.2699C155.435 65.444 140.682 97.3145 135.727 121.668C137.493 125.525 138.888 129.541 139.894 133.662L140.513 136.477L141.133 139.349C141.133 139.349 140.992 138.786 140.401 137.096L140.007 135.97C139.928 135.762 139.843 135.555 139.753 135.351C138.139 131.975 136.382 128.668 134.489 125.441C133.464 128.434 132.497 131.447 131.589 134.478C135.305 141.291 137.557 152.947 137.557 152.947C137.557 152.947 137.36 152.187 136.431 149.569C135.587 147.232 131.476 139.996 130.519 138.307C128.83 144.501 128.182 148.668 128.773 149.681C129.899 151.652 131.026 155.312 132.011 158.803C133.531 164.994 134.771 171.251 135.727 177.554L135.868 179.299C135.576 186.34 135.717 193.392 136.29 200.415C137.022 209.227 138.402 216.801 140.147 220.855L141.33 220.207C138.796 212.212 137.726 201.766 138.177 189.688C138.881 171.247 143.104 149.006 150.959 125.835C164.276 90.5575 182.632 62.4596 199.468 49.0582C184.124 62.9101 163.375 107.732 157.181 124.314C150.227 142.896 145.3 160.352 142.315 177.047C147.439 161.393 163.994 154.636 163.994 154.636C163.994 154.636 172.159 144.613 181.619 130.283L163.459 135.126L157.603 137.716C157.603 137.716 172.525 128.622 185.391 124.483C203.044 96.6951 222.273 57.1948 202.903 39.9644" fill="#003B57"/>
<linearGradient id="linearGradient" x1="120.215" y1="50.9165" x2="120.215" y2="169.558" gradientUnits="userSpaceOnUse">
<stop stop-color="#97D9F6"/>
<stop offset="0.92024" stop-color="#0F80CC"/>
<stop offset="1" stop-color="#0F80CC"/>
</linearGradient>
</svg>