<svg width="256" height="256" title="SQL Server" viewBox="0 0 256 256" fill="none" xmlns="http://www.w3.org/2000/svg" id="sqlserver">
<style>
#sqlserver {
    rect {fill: #15191C}
    path.sqlser {fill: #F4F2ED}

    @media (prefers-color-scheme: light) {
        rect {fill: #F4F2ED}
        path.sqlser {fill: #15191C}
    }
}
</style>
<rect width="256" height="256" rx="40" fill="#15191C"/>
<path d="M127.698 78.7795C120.845 68.5026 119.364 54.7679 119.041 49.1238C101.634 52.8879 84.3412 59.6398 85.3399 64.6125C85.4658 65.2378 86.2547 65.9889 87.564 66.7191L85.5162 70.3825C83.0151 68.9809 81.6094 67.3653 81.2275 65.435C80.0987 59.8077 86.4729 54.7175 100.707 49.8707C107.242 47.695 113.899 45.9029 120.644 44.5036L123.149 44V46.564C123.149 46.7402 123.258 64.558 131.189 76.4547L127.698 78.7795ZM134.693 211.901H133.64C99.2634 211.901 61.0052 201.103 56.4857 183.034C53.7287 171.997 62.7467 159.803 82.5619 147.78L84.744 151.364C66.9137 162.186 58.3237 173.068 60.5604 182.018C64.484 197.704 100.741 207.482 132.541 207.7C136.322 202.048 156.636 168.842 145.042 124.306L149.099 123.248C162.314 173.991 135.596 210.688 135.327 211.053L134.693 211.901Z" class="sqlser" fill="#F4F2ED"/>
<path d="M72.5032 196.399C70.2414 196.399 69.121 196.152 68.9363 196.106C68.5731 196.019 68.2397 195.836 67.9709 195.577C67.7021 195.318 67.5076 194.991 67.4078 194.631C67.308 194.272 67.3064 193.892 67.4033 193.531C67.5001 193.17 67.6919 192.842 67.9586 192.581C68.2607 192.278 98.1598 162.333 102.197 138.12L106.334 138.808C102.864 159.639 82.3521 183.386 74.2069 192.132C82.3437 191.666 102.889 187.856 142.331 165.778C111.55 162.405 106.683 137.764 106.632 137.499L110.757 136.74C110.954 137.772 115.902 161.964 149.548 161.964H149.582C150.044 161.963 150.494 162.115 150.861 162.396C151.228 162.676 151.492 163.071 151.612 163.517C151.732 163.963 151.702 164.437 151.525 164.864C151.348 165.291 151.036 165.648 150.635 165.879C103.489 193.193 80.6274 196.395 72.5032 196.399Z" class="sqlser" fill="#F4F2ED"/>
<path d="M91.7771 206.445C91.3309 206.449 90.8953 206.309 90.5338 206.048C90.1723 205.786 89.9038 205.416 89.7675 204.991C89.6312 204.566 89.6342 204.109 89.776 203.686C89.9178 203.263 90.1911 202.896 90.5559 202.639C90.6986 202.534 98.1639 197.025 106.108 184.897C102.94 183.499 99.8622 181.906 96.8924 180.126C93.166 177.889 90.3503 175.489 88.2479 173.03C77.4633 175.875 67.5095 177 58.7685 176.257L59.121 172.077C66.9933 172.744 75.9442 171.813 85.6462 169.392C79.0453 158.112 85.1048 146.916 85.1888 146.765L88.8564 148.808C88.5752 149.32 83.548 158.754 89.9013 168.25C99.1375 165.598 108.991 161.674 119.188 156.576C121.771 147.989 123.493 139.167 124.328 130.239C124.362 129.907 124.474 129.587 124.655 129.307C124.837 129.026 125.082 128.793 125.372 128.627C125.662 128.46 125.987 128.365 126.32 128.349C126.654 128.333 126.987 128.397 127.291 128.536C127.425 128.599 140.988 134.793 150.807 138.834C151.158 138.978 151.463 139.214 151.69 139.518C151.917 139.821 152.058 140.18 152.097 140.558C152.136 140.935 152.072 141.315 151.912 141.659C151.753 142.003 151.503 142.297 151.189 142.51C142.075 148.757 132.575 154.422 122.746 159.471C120.199 167.655 116.737 175.525 112.427 182.933C127.962 188.737 141.445 188.825 141.617 188.825C142.083 188.823 142.537 188.977 142.906 189.261C143.275 189.546 143.539 189.946 143.656 190.397C143.773 190.848 143.736 191.326 143.552 191.754C143.367 192.182 143.045 192.536 142.637 192.761C123.585 203.344 93.2584 206.324 91.9785 206.445H91.7771ZM110.178 186.584C105.814 193.357 101.525 198.221 98.3192 201.397C106.704 200.163 121.403 197.461 133.602 192.421C125.586 191.432 117.721 189.472 110.178 186.584ZM92.7968 171.746C94.4459 173.391 96.5022 174.998 99.0493 176.53C102.138 178.384 105.273 179.958 108.365 181.292C111.973 175.208 114.983 168.788 117.354 162.123C108.873 166.16 100.64 169.383 92.7968 171.746ZM128.193 133.55C127.411 140.418 126.131 147.221 124.362 153.903C131.638 150.007 138.727 145.769 145.604 141.205C139.772 138.717 133.969 136.165 128.193 133.55ZM106.045 75.9385C105.545 75.9371 105.062 75.7587 104.681 75.435C97.9247 69.6524 89.9726 57.8858 89.6369 57.3864C89.3751 56.9966 89.2516 56.5303 89.2862 56.0621C89.3207 55.5939 89.5113 55.1507 89.8275 54.8036C90.1437 54.4565 90.5671 54.2255 91.0301 54.1475C91.4931 54.0695 91.9689 54.149 92.3813 54.3734C92.4275 54.386 96.3175 55.989 122.666 60.3784C123.039 60.4385 123.388 60.5979 123.677 60.84C123.966 61.082 124.185 61.3976 124.309 61.7535C124.434 62.1093 124.46 62.4923 124.385 62.8618C124.31 63.2313 124.137 63.5738 123.883 63.853C116.506 72.0485 107.186 75.6574 106.792 75.8042C106.552 75.8917 106.3 75.9371 106.045 75.9385ZM96.4896 59.7657C99.1375 63.3285 102.952 68.1417 106.443 71.3855C110.632 69.45 114.512 66.9077 117.958 63.8404C107.119 61.9898 100.505 60.6722 96.4896 59.7657Z" class="sqlser" fill="#F4F2ED"/>
<path d="M122.49 133.848C122.196 133.848 121.906 133.786 121.637 133.667C121.369 133.547 121.129 133.372 120.932 133.154C120.736 132.936 120.587 132.678 120.496 132.399C120.405 132.12 120.374 131.824 120.405 131.532C121.63 119.996 103.93 115.368 103.749 115.326C103.39 115.234 103.062 115.049 102.798 114.79C102.533 114.53 102.343 114.205 102.245 113.848C102.147 113.491 102.145 113.114 102.24 112.756C102.334 112.398 102.522 112.071 102.784 111.809C103.653 110.94 124.349 90.416 150.316 79.1446C150.669 78.9916 151.056 78.9382 151.436 78.9902C151.817 79.0423 152.176 79.1977 152.474 79.4397C152.772 79.6816 152.998 80.0008 153.128 80.3624C153.257 80.724 153.285 81.1141 153.208 81.4903C148.231 105.594 125.05 132.031 124.068 133.143C123.869 133.364 123.625 133.541 123.353 133.662C123.082 133.784 122.788 133.847 122.49 133.848ZM108.273 112.384C113.241 114.251 121.945 118.574 124.148 126.467C130.228 118.88 143.208 101.402 148.054 84.7803C129.645 93.6346 114.144 106.987 108.273 112.384Z" fill="#B71C1C"/>
<path d="M85.7134 150.466L83.7201 146.773C91.6218 142.514 100.673 134.675 108.088 125.565C101.777 129.887 98.164 132.845 98.0507 132.942L95.3692 129.711C95.5329 129.576 102.772 123.639 114.803 116.198C118.105 110.886 120.644 105.422 121.949 100.185C122.171 99.2955 122.364 98.4352 122.52 97.6043C114.442 94.7214 106.989 93.0135 101.869 92.2792C101.49 92.2257 101.132 92.0694 100.835 91.827C100.538 91.5847 100.313 91.2657 100.185 90.9046C100.057 90.5435 100.03 90.1541 100.107 89.7788C100.184 89.4034 100.363 89.0563 100.623 88.7752C100.98 88.3891 109.503 79.2578 120.153 74.2432C120.557 74.0529 121.012 73.9967 121.45 74.0827C121.889 74.1688 122.289 74.3926 122.591 74.7216C122.872 75.0279 128.634 81.4987 127.169 94.8851C132.016 96.7735 137.01 99.0689 141.819 101.801C153.396 96.5972 166.544 91.9141 180.547 89.0857C180.916 89.016 181.296 89.0444 181.651 89.1681C182.005 89.2918 182.32 89.5066 182.565 89.7907C183.056 90.3782 183.191 91.1881 182.914 91.9015C177.458 105.884 162.83 120.819 162.209 121.448C161.999 121.658 161.748 121.821 161.471 121.928C161.194 122.034 160.898 122.081 160.602 122.065C160.306 122.049 160.016 121.971 159.752 121.836C159.488 121.701 159.256 121.511 159.07 121.28C154.37 115.372 148.227 110.479 141.601 106.496C133.407 110.292 125.443 114.564 117.748 119.291C109.272 132.522 96.477 144.671 85.7134 150.466ZM146.196 104.457C151.609 107.948 156.649 112.052 160.816 116.828C164.29 113.06 172.628 103.534 177.358 94.0752C166.237 96.635 155.713 100.34 146.196 104.457ZM126.502 99.1108C126.364 99.7948 126.204 100.496 126.028 101.209C125.147 104.73 123.745 108.347 121.949 111.956C126.912 109.118 131.976 106.461 137.131 103.991C133.68 102.172 130.132 100.542 126.502 99.1108ZM106.565 88.8297C111.227 89.7445 116.972 91.2385 123.103 93.387C123.741 85.6531 121.651 80.9154 120.388 78.8172C114.614 81.8302 109.557 86.0685 106.565 88.8297Z" fill="#B71C1C"/>
<path d="M106.573 109.09C106.573 127.47 91.2567 142.073 80.2203 152.732C78.3739 154.536 72.1213 154.83 72.1213 154.83C73.674 153.236 75.4364 151.557 77.3248 149.753C87.8157 139.597 102.377 125.707 102.377 109.09C102.377 89.4089 94.446 81.6456 88.1934 75.435C85.4238 72.6234 83.0738 69.9377 81.6471 66.6646L82.9479 66.119C84.3747 66.7485 86.0113 67.4619 87.2702 68.0074C88.2773 69.4761 89.6201 70.9029 91.1728 72.4556C97.5932 78.876 106.573 87.6883 106.573 109.09Z" fill="#B71C1C"/>
<path d="M211 114.52C211 114.52 208.461 114.881 207.748 114.965C170.988 119.035 133.053 129.61 111.357 138.296C103.51 141.444 95.3692 145.262 87.9417 149.543C87.8997 149.585 87.8577 149.585 87.7738 149.627C83.4096 152.144 72.7928 157.348 64.1903 161.922C76.7793 148.536 100.363 138.213 109.763 134.436C131.038 125.917 167.589 115.636 203.551 111.23C199.313 106.278 188.948 95.7873 168.554 87.9821C156.636 83.3661 138.508 80.7643 122.52 78.4564C97.0897 74.8055 82.6123 72.3716 81.2275 65.4476C80.9337 64.0628 81.1436 62.678 81.773 61.3352C83.1578 63.6012 85.1301 65.1958 86.431 66.119C87.0604 66.5387 87.522 66.7905 87.6899 66.8744L87.7319 66.9164C93.6907 70.0636 109.763 72.3716 123.149 74.302C139.347 76.6519 157.685 79.2956 170.064 84.0375C198.893 95.1579 208.839 111.062 209.259 111.733C209.636 112.363 211 114.52 211 114.52Z" fill="#B71C1C"/>
</svg>