<svg width="256" height="256" title="Stack Overflow" viewBox="0 0 256 256" fill="none" xmlns="http://www.w3.org/2000/svg">
<rect width="256" height="256" rx="40" fill="#FF520F"/>
<path d="M171.663 134.917L171.866 135.024L171.809 135.083L171.663 134.929C167.04 141.123 163.173 147.942 160.185 155.234C160.14 155.34 160.095 155.446 160.049 155.553C157.174 162.668 155.122 170.22 154.051 178.115V178.256C153.476 182.44 153.183 186.719 153.183 191.068C153.183 194.767 153.397 198.419 153.815 202H68V178.115H142.517C142.652 177.134 142.821 176.165 142.991 175.196L71.2021 155.281L77.1779 132.199L149.857 152.362C150.195 151.594 150.533 150.826 150.883 150.069L85.657 111.091L97.1913 90.4086L163.387 129.953C163.906 129.304 164.435 128.654 164.988 128.016L110.755 71.9007L127.082 55L182.183 112.037L188 118.064C181.878 122.922 176.376 128.595 171.663 134.917Z" fill="black"/>
</svg>