<svg viewBox="0 0 256 256" xmlns="http://www.w3.org/2000/svg" xml:space="preserve" style="fill-rule:evenodd;clip-rule:evenodd;stroke-linejoin:round;stroke-miterlimit:2"><path d="M256 40v176c0 22.077-17.923 40-40 40H40c-22.077 0-40-17.923-40-40V40C0 17.923 17.923 0 40 0h176c22.077 0 40 17.923 40 40" style="fill:url(#a)"/><path d="m111.005 96.585.011.579-28.676 41.659c-4.644-.212-9.302.604-13.726 2.425a29.8 29.8 0 0 0-5.487 2.929l-71.645-29.709v39.414l57.805 24.549c2.198 9.991 9.083 18.752 19.198 22.963a32.52 32.52 0 0 0 42.494-17.513 32.6 32.6 0 0 0 2.506-13.39l40.992-29.317 1.007.019c24.556 0 44.516-20.019 44.516-44.608S180.077 52.051 155.484 52c-24.545 0-44.516 19.996-44.516 44.585zm-6.885 84.417c-5.325 12.818-20.018 18.85-32.789 13.529a25.05 25.05 0 0 1-12.906-12.313l14.492 6.006a18.46 18.46 0 0 0 14.132.023 18.45 18.45 0 0 0 10.006-9.98 18.5 18.5 0 0 0-9.943-24.176l-15.016-6.207a24.92 24.92 0 0 1 18.495.282c6.226 2.574 10.987 7.423 13.536 13.624 2.549 6.2 2.535 13.038-.036 19.212m51.433-54.697a29.734 29.734 0 0 1-29.657-29.712 29.74 29.74 0 0 1 29.657-29.706 29.735 29.735 0 0 1 29.665 29.706 29.734 29.734 0 0 1-29.665 29.712m-22.223-29.76a22.306 22.306 0 0 1 22.267-22.322c12.288 0 22.282 9.998 22.282 22.322a22.3 22.3 0 0 1-22.282 22.315 22.3 22.3 0 0 1-22.267-22.315" style="fill:#fff;fill-rule:nonzero" transform="translate(8.662 2.21)scale(1.01683)"/><defs><linearGradient id="a" x1="0" y1="0" x2="1" y2="0" gradientUnits="userSpaceOnUse" gradientTransform="rotate(90 64 64)scale(255.884)"><stop offset="0" style="stop-color:#2089b7;stop-opacity:1"/><stop offset=".32" style="stop-color:#194a7a;stop-opacity:1"/><stop offset=".49" style="stop-color:#163362;stop-opacity:1"/><stop offset=".71" style="stop-color:#11234e;stop-opacity:1"/><stop offset="1" style="stop-color:#0a1c3f;stop-opacity:1"/></linearGradient></defs></svg>