<svg width="256" height="256" title="Streamlit" viewBox="0 0 256 256" fill="none" xmlns="http://www.w3.org/2000/svg" id="streamlit">
<style>
#streamlit {
    rect {fill: #15191C}

    @media (prefers-color-scheme: light) {
        rect {fill: #F4F2ED}
    }
}
</style>
<rect width="256" height="256" rx="40" fill="#15191C"/>
<path d="M127.99 139.544L98.1876 123.79L46.4555 96.4487C46.4079 96.4017 46.3138 96.4017 46.2662 96.4017C44.3775 95.5041 42.4412 97.3934 43.1495 99.2821L69.5091 166.513L69.5137 166.527C69.542 166.593 69.5658 166.659 69.5941 166.725C70.6759 169.232 73.0366 170.781 75.6059 171.39C75.8229 171.438 75.9782 171.48 76.2389 171.533C76.499 171.59 76.8622 171.669 77.1739 171.693C77.2249 171.697 77.2725 171.697 77.3246 171.702H77.3626C77.4 171.707 77.4379 171.707 77.4759 171.712H77.5275C77.5609 171.716 77.5983 171.716 77.6317 171.716H77.6929C77.7309 171.721 77.7683 171.721 77.8063 171.721C111.19 175.361 144.87 175.361 178.253 171.721C178.654 171.721 179.046 171.702 179.424 171.665L179.783 171.622C179.797 171.617 179.816 171.617 179.83 171.612C179.91 171.603 179.99 171.589 180.071 171.575C180.189 171.56 180.307 171.537 180.425 171.513C180.661 171.461 180.768 171.424 181.089 171.313C181.409 171.203 181.941 171.011 182.274 170.85C182.607 170.69 182.838 170.536 183.117 170.361C183.461 170.145 183.796 169.915 184.122 169.672C184.265 169.562 184.363 169.492 184.467 169.393L184.41 169.36L127.99 139.544Z" fill="#FF4B4B"/>
<path d="M209.609 96.4493H209.562L157.811 123.791L186.579 166.636L212.872 99.2826V99.188C213.534 97.2047 211.503 95.4106 209.609 96.4493Z" fill="#7D353B"/>
<path d="M130.748 83.4488C129.425 81.5171 126.545 81.5171 125.27 83.4488L98.1876 123.79L127.99 139.544L184.467 169.393C184.822 169.045 185.107 168.707 185.407 168.35C185.847 167.813 186.239 167.24 186.578 166.635L130.748 83.4488Z" fill="#BD4043"/>
</svg>