<svg width="256" height="256" title="Styled Components" viewBox="0 0 256 256" fill="none" xmlns="http://www.w3.org/2000/svg">
<rect width="256" height="256" rx="40" fill="url(#linearGradient)"/>
<path d="M25.9602 126.5L69.2712 144.152V156.508L18 132.615V125.365L25.9602 126.5ZM69.2712 112.001L26.0229 129.904L18 130.787V123.474L69.2712 99.6441V112.001Z" fill="white"/>
<path d="M229.415 128.598L186.729 112.013V100.576L238 123.209V130.215L229.415 128.598ZM186.729 143.207L229.535 126.263L238 125.005V131.951L186.729 154.644V143.207Z" fill="white"/>
<path fill-rule="evenodd" clip-rule="evenodd" d="M160.068 81.0699C159.864 84.2985 158.407 87.6698 158.812 90.8084C161.357 95.3004 166.959 96.0171 171.58 96.325C174.781 96.896 174.741 94.7801 174.526 92.4029C174.539 88.603 174.552 84.803 174.565 81.0031C169.732 81.0204 164.898 80.9552 160.068 81.0699ZM121.959 90.0995C114.091 91.4321 106.116 95.1852 99.5704 99.7034C94.3018 103.796 104.093 107.763 107.645 108.426C114.792 108.513 121.131 103.701 125.825 98.7063C127.358 96.606 129.273 93.3915 127.347 90.9576C125.876 89.6847 123.738 89.9936 121.959 90.0995ZM138.702 101.521C132.233 102.751 126.078 105.413 120.631 109.118C116.639 110.37 113.348 114.746 118.295 116.938C123.491 121.071 129.512 120.058 134.297 117.268C138.678 114.669 143.411 111.461 145.439 106.567C147.353 101.205 142.413 101.006 138.702 101.521ZM157.054 122.296C155.849 127.319 150.781 129.603 148.086 133.583C145.881 136.486 146.902 139.906 149.412 142.191C150.633 144.72 152.775 146.133 155.072 143.937C160.988 139.922 162.625 132.102 162.379 125.327C162.816 122.528 159.599 125.058 157.054 122.296ZM134.541 131.73C126.685 133.072 118.828 136.893 112.28 141.404C107.196 145.491 116.77 149.308 120.351 149.913C127.631 149.924 134.124 145.241 138.727 139.923C140.327 137.811 142.268 133.709 139.098 132.03C137.68 131.43 136.035 131.606 134.541 131.73Z" fill="#B956A6"/>
<path fill-rule="evenodd" clip-rule="evenodd" d="M99.5704 99.7034C93.5286 102.117 87.6999 105.047 81.9447 108.115C80.8749 112.085 81.7327 117.001 81.4554 121.354C81.4345 139.254 81.4447 157.154 81.4413 175.053C85.885 175.053 90.3289 175.053 94.7726 175.053C97.4639 172.524 100.836 170.672 103.759 168.375C115.017 160.315 126.272 152.225 137.515 144.188C138.342 144.559 137.812 139.329 135.998 142.962C131.697 147.001 125.99 150.323 119.948 149.999C116.52 148.873 110.994 146.963 110.959 142.77C113.372 139.934 106.507 144.255 104.629 144.873C98.521 147.801 92.558 151.069 86.4382 153.942C87.9093 152.365 90.6609 150.895 92.611 149.331C106.546 139.346 120.477 129.323 134.445 119.346C137.132 117.463 139.727 115.409 142.496 113.649C142.749 114.624 143.224 108.988 141.164 112.458C136.965 116.612 131.301 119.705 125.328 119.747C121.969 118.729 114.813 116.295 116.406 111.965C117.183 110.445 109.19 115.204 112.722 112.521C116.481 109.779 120.269 107.085 124.057 104.372C125.971 104.228 125.563 97.135 122.964 101.711C118.597 105.541 112.86 109.045 106.845 108.214C103.467 107.243 99.4128 105.363 98.185 101.836C97.7782 100.989 100.46 99.6697 99.5704 99.7034ZM124.601 104.082C125.208 103.733 124.266 105.039 124.601 104.082Z" fill="#FCCC44"/>
<path fill-rule="evenodd" clip-rule="evenodd" d="M162.775 94.9636C160.888 103.955 158.827 113.365 157.054 122.296C162.148 128.705 162.642 118.248 163.533 115.291C164.973 109.111 166.678 104.444 166.859 98.045C167.241 95.8617 164.67 94.5388 162.775 94.9636ZM168.619 102.014C168.851 102.188 168.46 102.936 168.619 102.014ZM162.676 122.175C162.921 122.702 162.921 121.648 162.676 122.175Z" fill="#62777F"/>
<path fill-rule="evenodd" clip-rule="evenodd" d="M166.116 95.9816C167.705 104.893 162.44 115.717 160.718 124.118C164.628 121.246 167.649 108.215 168.421 103.115C168.62 102.532 168.866 101.063 168.919 101.011C169.164 99.7724 171.454 97.6746 171.58 96.325C172.913 95.3858 165.028 95.2346 166.116 95.9816ZM162.874 122.175C162.628 122.702 162.628 121.648 162.874 122.175Z" fill="#4E5E67"/>
<path fill-rule="evenodd" clip-rule="evenodd" d="M99.7024 99.8517C97.4984 102.055 98.3255 101.517 99.9664 99.6846L99.7024 99.8517ZM123.545 100.943C120.991 104.773 111.783 107.976 110.623 108.224C116.163 107.188 121.325 103.749 124.958 99.7194C124.381 99.9761 124.038 100.58 123.545 100.943ZM98.1879 102.186C99.5643 105.49 104.569 107.685 107 108.197C103.68 107.129 99.7724 105.235 98.1879 102.186ZM124.403 104.097C123.708 104.916 121.233 106.141 119.929 107.342C117.13 109.403 114.235 111.317 111.469 113.429C113.23 113.353 118.392 109.504 115.746 113.41C117.989 117.263 122.871 119.942 127.323 119.697C133.202 118.776 138.623 115.531 142.52 111.019C137.79 115.692 131.535 120.089 124.614 119.484C121.265 118.711 112.112 113.992 118.234 110.684C120.393 108.911 124.115 107.983 124.537 104.868C124.448 104.479 125.174 104.099 124.403 104.097ZM107.645 108.426C109.873 108.717 109.873 108.136 107.645 108.426ZM142.355 113.747C133.516 119.894 124.805 126.281 116.042 132.538C106.112 139.633 96.2236 146.753 86.2955 153.842C90.0283 152.586 93.7682 150.132 97.4766 148.438C102.583 145.741 107.968 143.611 112.746 140.335C122.194 134.783 132.185 129.494 139.452 121C141.038 119.143 142.628 116.155 142.699 114.145C142.47 114.209 142.644 113.341 142.355 113.747ZM112.28 141.404C110.689 143.198 110.043 144.48 111.694 142.199C111.665 142.463 113.033 140.782 112.28 141.404ZM136.473 142.262C132.284 146.671 126.088 149.852 120.275 150.066C126.996 150.115 133.059 146.133 137.612 141.435C137.313 141.074 136.707 142.275 136.473 142.262ZM137.753 143.648C123.679 153.875 109.12 164.482 94.9986 174.672C97.2235 175.369 102.067 175.695 104.277 172.852C108.981 169.613 114.268 167.231 118.987 163.947C125.82 159.521 133.137 154.684 137.017 147.245C137.202 146.247 138.576 144.453 137.753 143.648ZM110.969 144.297C111.622 147.049 119.786 150.207 118.901 149.603C115.891 148.549 112.904 146.908 110.969 144.297Z" fill="#DC9624"/>
<linearGradient id="linearGradient" x1="80.9931" y1="256" x2="175.007" y2="-6.11914e-07" gradientUnits="userSpaceOnUse">
<stop stop-color="#DB7093"/>
<stop offset="1" stop-color="#F3B661"/>
</linearGradient>
</svg>