<svg width="256" height="256" title="Sublime" viewBox="0 0 256 256" fill="none" xmlns="http://www.w3.org/2000/svg" id="sublime">
<style>
#sublime {
    rect {fill: #15191C}

    @media (prefers-color-scheme: light) {
        rect {fill: #F4F2ED}
    }
}
</style>
<rect width="256" height="256" rx="40" fill="#15191C"/>
<path d="M195.982 128.191C195.982 126.136 194.463 124.951 192.599 125.54L64.3825 166.198C62.5151 166.79 61 168.939 61 170.99V212.544C61 214.599 62.5151 215.788 64.3825 215.195L192.599 174.542C194.463 173.949 195.982 171.8 195.982 169.745V128.191Z" fill="url(#linearGradient)"/>
<path d="M61 126.867C61 128.923 62.5151 131.071 64.3825 131.664L192.618 172.325C194.485 172.918 196 171.729 196 169.678V128.12C196 126.069 194.485 123.92 192.618 123.327L64.3825 82.6662C62.5151 82.0737 61 83.2586 61 85.3137V126.867Z" fill="#FF9800"/>
<path d="M195.982 42.8036C195.982 40.7486 194.463 39.5599 192.599 40.1523L64.3825 80.8062C62.5151 81.3987 61 83.5474 61 85.6025V127.156C61 129.212 62.5151 130.396 64.3825 129.807L192.599 89.1499C194.463 88.5575 195.982 86.4087 195.982 84.3574V42.8036Z" fill="#FF9800"/>
<linearGradient id="linearGradient" x1="7500.79" y1="5404.11" x2="8066.92" y2="3511.12" gradientUnits="userSpaceOnUse">
<stop stop-color="#FF9700"/>
<stop offset="0.53" stop-color="#F48E00"/>
<stop offset="1" stop-color="#D06F00"/>
</linearGradient>
</svg>