<svg width="256" height="256" title="SVG" viewBox="0 0 256 256" fill="none" xmlns="http://www.w3.org/2000/svg" id="svg">
<style>
#svg {
    rect {fill: #15191C}

    @media (prefers-color-scheme: light) {
        rect {fill: #F4F2ED}
    }
}
</style>
<rect width="256" height="256" rx="40" fill="#15191C"/>
<path d="M74.4117 117.558C68.8445 112.335 59.8164 112.335 54.2492 117.558C48.682 122.778 48.682 131.242 54.2492 136.465C59.8164 141.684 68.8445 141.684 74.4117 136.465H181.458C187.028 141.684 196.052 141.684 201.623 136.465C207.191 131.242 207.191 122.778 201.623 117.558C196.052 112.335 187.028 112.335 181.458 117.558H74.4117Z" fill="#FFB13B" stroke="black" stroke-width="24.6"/>
<path d="M97.2191 84.8396C97.2191 77.4528 90.8361 71.4681 82.9617 71.4681C75.0841 71.4681 68.701 77.4528 68.701 84.8396C68.701 92.2233 75.0841 98.208 82.9617 98.208L158.653 169.183C158.653 176.567 165.036 182.551 172.91 182.551C180.785 182.551 187.168 176.567 187.168 169.183C187.168 161.8 180.785 155.815 172.91 155.815L97.2191 84.8396Z" fill="#FFB13B" stroke="black" stroke-width="28.725"/>
<path d="M137.9 75.7274C143.367 70.7555 143.367 62.6986 137.9 57.7266C132.43 52.7578 123.566 52.7578 118.1 57.7266C112.633 62.6986 112.633 70.7555 118.1 75.7274V171.274C112.633 176.242 112.633 184.302 118.1 189.271C123.566 194.243 132.43 194.243 137.9 189.271C143.367 184.302 143.367 176.242 137.9 171.274V75.7274Z" fill="#FFB13B" stroke="black" stroke-width="28.695"/>
<path d="M172.91 98.2081C180.785 98.2081 187.168 92.2234 187.168 84.8397C187.168 77.4528 180.785 71.4682 172.91 71.4682C165.036 71.4682 158.653 77.4528 158.653 84.8397L82.9617 155.815C75.0841 155.815 68.701 161.8 68.701 169.183C68.701 176.567 75.0841 182.551 82.9617 182.551C90.8361 182.551 97.2191 176.567 97.2191 169.183L172.91 98.2081Z" fill="#FFB13B" stroke="black" stroke-width="28.725"/>
<path d="M74.4117 117.558C68.8445 112.335 59.8164 112.335 54.2492 117.558C48.682 122.778 48.682 131.242 54.2492 136.465C59.8164 141.684 68.8445 141.684 74.4117 136.465H181.458C187.028 141.684 196.052 141.684 201.623 136.465C207.191 131.242 207.191 122.778 201.623 117.558C196.052 112.335 187.028 112.335 181.458 117.558H74.4117Z" fill="#FFB13B"/>
<path d="M97.2191 84.8396C97.2191 77.4528 90.8361 71.4681 82.9617 71.4681C75.0841 71.4681 68.701 77.4528 68.701 84.8396C68.701 92.2233 75.0841 98.2081 82.9617 98.2081L158.653 169.183C158.653 176.567 165.036 182.551 172.91 182.551C180.785 182.551 187.168 176.567 187.168 169.183C187.168 161.8 180.785 155.815 172.91 155.815L97.2191 84.8396Z" fill="#FFB13B"/>
<path d="M138.019 76.825C143.586 71.602 143.586 63.138 138.019 57.9149C132.448 52.695 123.421 52.695 117.853 57.9149C112.286 63.138 112.286 71.602 117.853 76.825V177.198C112.286 182.417 112.286 190.885 117.853 196.104C123.421 201.328 132.448 201.328 138.019 196.104C143.586 190.885 143.586 182.417 138.019 177.198V76.825Z" fill="#FFB13B"/>
<path d="M172.91 98.2081C180.785 98.2081 187.168 92.2233 187.168 84.8396C187.168 77.4528 180.785 71.4681 172.91 71.4681C165.036 71.4681 158.653 77.4528 158.653 84.8396L82.9617 155.815C75.0841 155.815 68.701 161.8 68.701 169.183C68.701 176.567 75.0841 182.551 82.9617 182.551C90.8361 182.551 97.2191 176.567 97.2191 169.183L172.91 98.2081Z" fill="#FFB13B"/>
<path d="M38 125.422H218V185.065C218 199.081 206.549 209.813 191.604 209.813H64.3958C49.4467 209.813 38 199.081 38 185.065V125.422Z" fill="black"/>
<path d="M64.9438 168.139C60.7215 164.18 58.1083 158.715 58.1083 152.68C58.1083 140.602 68.5576 130.809 81.4321 130.809C94.3128 130.809 104.759 140.602 104.759 152.68H91.0974C91.0974 147.677 86.7666 143.623 81.4321 143.623C76.0974 143.623 71.773 147.677 71.773 152.68C71.773 155.178 72.8566 157.443 74.5965 159.075H74.6029C76.3524 160.723 77.8087 161.198 81.4321 161.739C87.8756 162.368 93.7042 164.187 97.9266 168.145C102.149 172.106 104.759 177.571 104.759 183.607C104.759 195.684 94.3128 205.48 81.4321 205.48C68.5576 205.48 58.1083 195.684 58.1083 183.607H71.773C71.773 188.61 76.0974 192.67 81.4321 192.67C86.7666 192.67 91.0974 188.61 91.0974 183.607C91.0974 181.108 90.0171 178.849 88.274 177.211H88.2676C86.5181 175.57 84.0069 175.006 81.4321 174.553V174.55C75.186 173.652 69.1663 172.099 64.9438 168.139Z" fill="white"/>
<path d="M151.41 130.809L134.909 205.48H121.247L104.759 130.809H118.424L128.093 174.543L137.745 130.809H151.41Z" fill="white"/>
<path d="M174.739 161.739H198.06V183.607H198.067C198.067 195.688 187.62 205.484 174.739 205.484C161.855 205.484 151.416 195.688 151.416 183.607V152.68H151.41C151.41 140.602 161.855 130.812 174.739 130.812C187.615 130.812 198.06 140.602 198.06 152.68H184.399C184.399 147.683 180.068 143.623 174.739 143.623C169.402 143.623 165.078 147.683 165.078 152.68V183.607C165.078 188.61 169.402 192.667 174.739 192.667C180.068 192.667 184.392 188.61 184.399 183.614V174.557H174.739V161.739Z" fill="white"/>
</svg>