<svg width="256" height="256" title="Swagger" viewBox="0 0 256 256" fill="none" xmlns="http://www.w3.org/2000/svg">
<rect width="256" height="256" rx="40" fill="#85EA2D"/>
<path d="M128 53C86.6437 53 53 86.6437 53 128C53 169.356 86.6437 203 128 203C169.35 203 203 169.356 203 128C203 86.6437 169.35 53 128 53ZM128 60.15C165.469 60.15 195.85 90.525 195.85 128C195.85 165.469 165.475 195.85 128 195.85C90.525 195.85 60.15 165.475 60.15 128C60.15 90.525 90.525 60.15 128 60.15ZM105.312 89.675C104.431 89.6576 103.549 89.668 102.669 89.7063C96.525 90.0563 92.8375 92.9375 91.825 98.9062C91.1062 103.062 91.225 107.331 90.9312 111.513C90.85 113.7 90.6187 115.869 90.2125 118C89.375 121.806 87.7313 122.987 83.8625 123.187C83.3504 123.251 82.8415 123.339 82.3375 123.45V132.594C89.375 132.937 90.325 135.419 90.9 142.775C91.1063 145.456 90.8187 148.138 90.9937 150.819C91.1062 153.356 91.45 155.869 91.9688 158.319C93.5875 165.037 100.138 167.288 108.063 165.931V157.912C106.794 157.912 105.669 157.944 104.575 157.912C101.887 157.831 100.881 157.162 100.625 154.569C100.275 151.225 100.363 147.819 100.156 144.444C99.7563 138.187 99.0625 132.019 92.95 128.037C96.0938 125.725 98.375 122.962 99.0938 119.3C99.6125 116.737 99.9312 114.169 100.131 111.569C100.306 108.975 99.9875 106.319 100.219 103.756C100.594 99.6 100.856 97.9 105.844 98.0687C106.594 98.0687 107.313 97.9625 108.15 97.9V89.7125C107.15 89.7125 106.212 89.6875 105.312 89.675ZM152.769 89.7312C151.067 89.693 149.365 89.8186 147.687 90.1062V98.0687C149.219 98.0687 150.4 98.0688 151.581 98.1C153.631 98.125 155.187 98.9125 155.394 101.188C155.594 103.263 155.588 105.369 155.794 107.475C156.2 111.656 156.425 115.894 157.15 120.019C157.787 123.419 160.119 125.956 163.031 128.037C157.925 131.469 156.425 136.369 156.169 141.881C156.025 145.656 155.937 149.462 155.737 153.269C155.562 156.731 154.35 157.856 150.862 157.944C149.881 157.969 148.925 158.056 147.837 158.119V166.275C149.881 166.275 151.756 166.394 153.631 166.275C159.456 165.931 162.975 163.106 164.131 157.45C164.619 154.337 164.906 151.2 164.994 148.05C165.194 145.169 165.169 142.256 165.456 139.4C165.888 134.931 167.937 133.088 172.406 132.794C172.83 132.742 173.247 132.645 173.65 132.506V123.363C172.9 123.275 172.375 123.194 171.831 123.162C168.481 123.019 166.806 121.894 165.975 118.725C165.457 116.692 165.139 114.614 165.025 112.519C164.794 108.656 164.819 104.763 164.563 100.894C164.063 93.4438 159.6 89.9375 152.769 89.7312ZM109.706 122.731C108.351 122.73 107.048 123.25 106.066 124.184C105.084 125.117 104.499 126.393 104.432 127.747C104.365 129.1 104.822 130.427 105.707 131.453C106.593 132.479 107.839 133.124 109.187 133.256H109.531C110.905 133.337 112.253 132.868 113.281 131.954C114.309 131.04 114.932 129.755 115.012 128.381V128.094C115.034 126.695 114.5 125.345 113.528 124.34C112.555 123.334 111.224 122.756 109.825 122.731H109.706ZM127.9 122.731C126.563 122.687 125.262 123.176 124.285 124.09C123.308 125.004 122.733 126.269 122.687 127.606C122.687 127.775 122.688 127.919 122.713 128.094C122.713 131.238 124.85 133.256 128.081 133.256C131.25 133.256 133.244 131.181 133.244 127.925C133.212 124.781 131.106 122.7 127.9 122.731ZM146.419 122.731C145.003 122.706 143.635 123.24 142.61 124.216C141.585 125.193 140.986 126.535 140.944 127.95C140.944 130.887 143.306 133.256 146.25 133.256H146.306C148.962 133.719 151.638 131.15 151.813 128.069C151.956 125.212 149.362 122.731 146.419 122.731Z" fill="#173647"/>
</svg>