<svg width="256" height="256" title="Swift" viewBox="0 0 256 256" fill="none" xmlns="http://www.w3.org/2000/svg">
<rect width="256" height="256" rx="40" fill="#F05138"/>
<path d="M194.658 156.721L194.644 156.706C194.879 155.907 195.122 155.115 195.325 154.298C204.121 119.251 182.657 77.8177 146.326 56C162.245 77.5822 169.286 103.725 163.03 126.585C162.474 128.622 161.803 130.581 161.06 132.483C160.258 131.955 159.241 131.356 157.885 130.603C157.885 130.603 121.746 108.293 82.5787 68.8252C81.5509 67.7903 103.461 100.146 128.334 126.421C116.615 119.844 83.9632 96.0884 63.291 77.1683C65.8317 81.4041 68.8507 85.4829 72.173 89.4082C89.4337 111.301 111.947 138.307 138.918 159.054C119.969 170.652 93.1914 171.551 66.5312 159.065C60.0048 156 53.7975 152.297 48 148.01C59.2836 166.059 76.6657 181.636 97.8161 190.725C123.045 201.569 148.132 200.834 166.816 190.903L166.802 190.928C166.888 190.871 166.998 190.814 167.088 190.76C167.851 190.347 168.615 189.925 169.357 189.483C178.336 184.822 196.067 180.098 205.585 198.615C207.918 203.147 212.864 179.131 194.658 156.721Z" fill="white"/>
</svg>