<svg width="256" height="256" title="SwiftUI" viewBox="0 0 256 256" fill="none" xmlns="http://www.w3.org/2000/svg">
<rect width="256" height="256" rx="40" fill="#0D47A1"/>
<path d="M256 55.1182C256 24.6756 231.324 3.45707e-06 200.882 3.45707e-06H55.1182C24.6756 3.45707e-06 1.86265e-09 24.6756 1.86265e-09 55.1182V119.317C21.3333 142.222 60.4587 170.091 97.0382 169.849C145.735 169.529 217.984 150.514 256 109.561V55.1182Z" fill="#1565C0"/>
<path d="M256 55.1182C256 24.6756 231.324 3.45707e-06 200.882 3.45707e-06H55.1182C24.6756 3.45707e-06 1.86265e-09 24.6756 1.86265e-09 55.1182V117.34C21.3333 142.222 51.3351 151.886 97.3796 152.22C171.684 152.761 229.888 117.881 256 85.2765V55.1182Z" fill="#1E88E5"/>
<path d="M256 55.1182C256.5 22 257 11 249.5 18.5L55.1182 3.45707e-06C24.6756 3.45707e-06 1.86265e-09 24.6756 1.86265e-09 55.1182V113.287C31.3458 132.267 64.5476 136.484 90.1262 137.01C164.7 137.436 231.9 99.776 256 55.9573V55.1182Z" fill="#29B6F6"/>
<path d="M232 3.45707e-06H55.1182C24.6756 3.45707e-06 1.86265e-09 24.6756 1.86265e-09 55.1182V97.6427C29.632 116.9 60.2453 122.404 91.8542 122.148C143.012 122.148 230.277 84.3271 255.5 20C252 4.5 238.5 3.45707e-06 232 3.45707e-06Z" fill="#00E5FF"/>
<path d="M233 6.43823e-06L55.1182 3.45707e-06C24.6756 3.45707e-06 1.86265e-09 24.6756 1.86265e-09 55.1182V81.3654C33.7636 104.1 74.9724 114.098 126.421 101.753C190.016 86.4925 233.065 42.1342 246 5C243 3.00001 239 0.500006 233 6.43823e-06Z" fill="#18FFFF"/>
<path d="M103.36 3.45707e-06H55.1182C24.6756 3.45707e-06 1.86265e-09 24.6756 1.86265e-09 55.1182V122.916L0.448001 123.548C30.6702 166.215 105.337 193.771 154.226 148.885C182.67 113.33 166.229 55.104 144.889 35.9964C134.172 26.3964 117.404 11.9751 103.36 3.45707e-06Z" fill="#448AFF"/>
<path d="M106.475 3.45707e-06H55.1182C24.6756 3.45707e-06 1.86265e-09 24.6756 1.86265e-09 55.1182V124.224C36.1173 152.334 92.48 163.406 132.004 127.111C160.448 91.5556 144.007 33.3298 122.667 14.2222C118.137 10.1689 112.505 5.22667 106.475 3.45707e-06Z" fill="#40C4FF"/>
<path d="M55.1182 3.45707e-06C24.6756 3.45707e-06 1.86265e-09 24.6756 1.86265e-09 55.1182V111.524C33.3227 125.568 73.3511 125.504 103.559 97.7778C126.485 69.12 120.235 25.7564 105.778 3.45707e-06H55.1182Z" fill="#00E5FF"/>
<path d="M24 0C15.5 0 0 7 0 26V88.7253C24.7182 91.4418 50.1689 85.4613 70.9618 66.368C86.0302 47.5307 88.4551 22.3645 84.2667 3.42727e-06L24 0Z" fill="#18FFFF"/>
<path d="M63.1294 77.1804C63.1294 77.1804 103.734 138.548 137.873 159.304C124.954 163.458 96.906 180.43 48 150.438C60.4553 167.511 82.5075 201.751 136.488 198.524C155.403 197.603 166.937 191.601 177.55 187.454C188.164 183.306 198.313 183.763 207.078 199.451C208.926 185.148 209.384 171.766 194.623 156.541C194.623 156.541 209.217 100.902 147.078 57C159.997 82.8376 167.478 97.4083 161.405 133.009C147.565 123.781 96.4484 82.6177 84.9142 69.2354C93.2217 84.0023 117.116 116.394 125.418 124.702C110.657 114.552 63.1294 77.1804 63.1294 77.1804Z" fill="white"/>
</svg>