<svg width="256" height="256" title="Tailscale" viewBox="0 0 256 256" fill="none" xmlns="http://www.w3.org/2000/svg">
<rect width="256" height="256" rx="40" fill="#292828"/>
<path d="M79.2506 144.251C88.2256 144.251 95.5012 136.975 95.5012 128C95.5012 119.025 88.2256 111.749 79.2506 111.749C70.2757 111.749 63 119.025 63 128C63 136.975 70.2757 144.251 79.2506 144.251Z" fill="white"/>
<path d="M128 144.251C136.975 144.251 144.251 136.975 144.251 128C144.251 119.025 136.975 111.749 128 111.749C119.025 111.749 111.749 119.025 111.749 128C111.749 136.975 119.025 144.251 128 144.251Z" fill="white"/>
<path d="M79.2506 193C88.2256 193 95.5012 185.724 95.5012 176.749C95.5012 167.774 88.2256 160.499 79.2506 160.499C70.2757 160.499 63 167.774 63 176.749C63 185.724 70.2757 193 79.2506 193Z" fill="#8C8B8B"/>
<path d="M176.749 193C185.724 193 193 185.724 193 176.749C193 167.774 185.724 160.499 176.749 160.499C167.774 160.499 160.499 167.774 160.499 176.749C160.499 185.724 167.774 193 176.749 193Z" fill="#8C8B8B"/>
<path d="M128 193C136.975 193 144.251 185.724 144.251 176.749C144.251 167.774 136.975 160.499 128 160.499C119.025 160.499 111.749 167.774 111.749 176.749C111.749 185.724 119.025 193 128 193Z" fill="white"/>
<path d="M176.749 144.251C185.724 144.251 193 136.975 193 128C193 119.025 185.724 111.749 176.749 111.749C167.774 111.749 160.499 119.025 160.499 128C160.499 136.975 167.774 144.251 176.749 144.251Z" fill="white"/>
<path d="M79.2506 95.5012C88.2256 95.5012 95.5012 88.2256 95.5012 79.2506C95.5012 70.2756 88.2256 63 79.2506 63C70.2757 63 63 70.2756 63 79.2506C63 88.2256 70.2757 95.5012 79.2506 95.5012Z" fill="#8C8B8B"/>
<path d="M128 95.5012C136.975 95.5012 144.251 88.2256 144.251 79.2506C144.251 70.2756 136.975 63 128 63C119.025 63 111.749 70.2756 111.749 79.2506C111.749 88.2256 119.025 95.5012 128 95.5012Z" fill="#8C8B8B"/>
<path d="M176.749 95.5012C185.724 95.5012 193 88.2256 193 79.2506C193 70.2756 185.724 63 176.749 63C167.774 63 160.499 70.2756 160.499 79.2506C160.499 88.2256 167.774 95.5012 176.749 95.5012Z" fill="#8C8B8B"/>
</svg>