<svg width="256" height="256" title="Targon" viewBox="0 0 256 256" fill="none" xmlns="http://www.w3.org/2000/svg">
<rect width="256" height="256" rx="40" fill="#68C3FF"/>
<path fill-rule="evenodd" clip-rule="evenodd" d="M197.251 67.1215C197.29 67.0676 197.347 67.0286 197.411 67.0107C197.475 66.9929 197.543 66.9974 197.604 67.0234C197.652 67.0437 197.693 67.0761 197.724 67.1175C197.755 67.1588 197.775 67.2076 197.781 67.2589C197.83 67.6515 197.869 68.0441 197.879 68.4367C197.997 74.4236 198.026 80.4204 197.977 86.4172C197.981 93.7519 196.135 100.969 192.61 107.401C187.671 116.083 179.723 122.655 170.268 125.872C166.932 127.05 163.488 127.727 159.936 127.884C126.654 127.923 93.3721 127.923 60.0801 127.884C59.3835 127.845 58.6182 127.492 58.52 126.804C58.5147 126.759 58.5114 126.713 58.5102 126.667C58.2159 116.195 61.6206 107.156 68.7343 99.5394C74.9827 92.8273 83.4557 88.6141 92.5773 87.6832C112.358 87.5262 132.149 87.4379 151.94 87.4281C156.684 87.1819 161.401 86.5418 166.039 85.5142C172.013 84.3621 177.766 82.2684 183.083 79.3113C185.124 78.2317 187.096 77.0245 188.97 75.6996C190.981 74.1685 192.836 72.4607 194.523 70.5567C195.446 69.4182 196.348 68.2699 197.251 67.1215ZM196.682 128.601C196.927 128.277 197.418 128.345 197.477 128.748C197.575 134.283 197.634 139.809 197.634 145.335C197.683 149.604 197.261 153.824 196.339 157.995C193.983 168.101 187.79 176.893 179.07 182.512C174.174 185.653 168.855 187.714 163.096 188.666C162.032 188.792 160.966 188.894 159.897 188.971C126.37 189.01 92.8422 189.01 59.3246 188.971C59.0852 188.971 58.8511 188.901 58.6519 188.768C58.4527 188.635 58.2975 188.446 58.2061 188.225C58.0916 187.875 58.0223 187.512 58 187.145C58.0003 179.801 60.0567 172.603 63.9362 166.367C67.6898 160.571 72.8783 155.844 78.9976 152.646C81.374 151.426 83.8738 150.461 86.4547 149.771C88.6525 149.182 90.9387 149.025 93.2053 149.005L151.164 148.515C162.63 148.202 173.863 145.211 183.966 139.779C187.989 137.424 191.57 134.519 194.739 131.074C195.415 130.272 196.063 129.447 196.682 128.601Z" fill="#191B20"/>
</svg>