<svg width="256" height="256" title="Tauri" viewBox="0 0 256 256" fill="none" xmlns="http://www.w3.org/2000/svg" id="tauri">
<style>
#tauri {
    rect {fill: #15191C}

    @media (prefers-color-scheme: light) {
        rect {fill: #F4F2ED}
    }
}
</style>
<rect width="256" height="256" rx="40" fill="#15191C"/>
<path d="M157.59 105.487C157.59 109.751 155.896 113.841 152.881 116.856C149.865 119.871 145.776 121.565 141.511 121.565C137.247 121.565 133.157 119.871 130.142 116.856C127.127 113.841 125.433 109.751 125.433 105.487C125.433 101.223 127.127 97.133 130.142 94.1177C133.157 91.1024 137.247 89.4085 141.511 89.4085C145.776 89.4085 149.865 91.1024 152.881 94.1177C155.896 97.133 157.59 101.223 157.59 105.487Z" fill="#FFC131"/>
<path d="M114.47 135.451C105.591 135.451 98.392 142.65 98.392 151.53C98.392 160.409 105.591 167.608 114.47 167.608C123.35 167.608 130.549 160.409 130.549 151.53C130.549 142.65 123.35 135.451 114.47 135.451Z" fill="#24C8DB"/>
<path fill-rule="evenodd" clip-rule="evenodd" d="M174.837 157.011C168.376 161.188 161.186 164.114 153.643 165.635C155.829 159.402 156.554 152.751 155.763 146.194C162.158 143.959 167.936 140.248 172.63 135.362C177.323 130.476 180.799 124.553 182.776 118.073C184.753 111.593 185.175 104.739 184.008 98.0652C182.842 91.3916 180.119 85.0868 176.061 79.6619C172.003 74.237 166.724 69.8447 160.651 66.841C154.578 63.8373 147.884 62.3067 141.109 62.3733C134.335 62.4399 127.671 64.1019 121.659 67.2245C115.647 70.3471 110.455 74.8424 106.504 80.3461C98.3234 81.2665 90.3625 83.5905 82.9713 87.2159C85.8931 77.7887 91.0449 69.205 97.9898 62.1922C104.935 55.1795 113.468 49.9446 122.866 46.9313C132.265 43.918 142.251 43.215 151.979 44.8821C161.707 46.5491 170.889 50.537 178.748 56.5077C186.607 62.4784 192.91 70.2558 197.124 79.1808C201.338 88.1057 203.337 97.915 202.954 107.777C202.57 117.639 199.814 127.264 194.92 135.834C190.025 144.405 183.136 151.669 174.837 157.011ZM83.7021 98.3978L98.7574 100.225C99.0989 97.3175 99.7355 94.4524 100.658 91.674C94.7024 93.0585 88.9876 95.3247 83.7021 98.3978Z" fill="#FFC131"/>
<path fill-rule="evenodd" clip-rule="evenodd" d="M81.0711 100.006C87.5718 95.7855 94.8129 92.8345 102.412 91.3086C100.113 97.5399 99.2876 104.219 99.9998 110.822C93.6266 113.089 87.8762 116.824 83.2135 121.725C78.5507 126.626 75.1064 132.555 73.1589 139.033C71.2113 145.511 70.8152 152.356 72.0026 159.016C73.1899 165.675 75.9274 171.962 79.9938 177.368C84.0602 182.774 89.3414 187.147 95.4105 190.134C101.48 193.121 108.166 194.639 114.931 194.564C121.695 194.489 128.346 192.823 134.348 189.702C140.349 186.581 145.532 182.092 149.477 176.597C157.654 175.7 165.615 173.401 173.01 169.801C170.081 179.218 164.926 187.791 157.982 194.794C151.037 201.797 142.508 207.024 133.115 210.032C123.723 213.04 113.744 213.741 104.023 212.076C94.3025 210.41 85.126 206.427 77.2707 200.464C69.4153 194.501 63.1123 186.733 58.8952 177.817C54.6781 168.902 52.6711 159.102 53.0439 149.246C53.4167 139.391 56.1585 129.771 61.0372 121.199C65.9158 112.628 72.7877 105.358 81.0711 100.006Z" fill="#24C8DB"/>
</svg>