<svg width="256" height="256" title="TensorFlow" viewBox="0 0 256 256" fill="none" xmlns="http://www.w3.org/2000/svg" id="tensorflow">
<style>
#tensorflow {
    rect {fill: #15191C}

    @media (prefers-color-scheme: light) {
        rect {fill: #F4F2ED}
    }
}
</style>
<rect width="256" height="256" rx="40" fill="#15191C"/>
<path d="M140.285 67.2164V94.4355L187.427 121.655V94.4355L140.285 67.2164ZM46 94.4355V121.655L69.5706 135.261V108.045L46 94.4355ZM116.712 108.045L93.1412 121.655V203.307L116.712 216.916V162.481L140.285 176.09V148.871L116.712 135.261V108.045Z" fill="#E55B2D"/>
<path d="M140.285 67.2164L69.5706 108.045V135.261L116.712 108.045V135.261L140.285 121.655L140.285 67.2164ZM211 80.8259L187.427 94.4355V121.655L211 108.045V80.8259ZM163.856 135.261L140.285 148.871V176.09L163.856 162.481V135.261ZM140.285 176.09L116.712 162.481V216.916L140.285 203.307L140.285 176.09Z" fill="#ED8E24"/>
<path d="M140.285 40L46 94.4355L69.5706 108.045L140.285 67.2164L187.427 94.4355L211 80.8259L140.285 40ZM140.285 121.655L116.712 135.261L140.285 148.871L163.856 135.261L140.285 121.655Z" fill="#F8BF3C"/>
</svg>