<svg width="256" height="256" title="Three.js" viewBox="0 0 256 256" fill="none" xmlns="http://www.w3.org/2000/svg" id="threejs">
<style>
#threejs {
    rect {fill: #15191C}
    path {fill: #F4F2ED}

    @media (prefers-color-scheme: light) {
        rect {fill: #F4F2ED}
        path {fill: #15191C}
    }
}
</style>
<rect width="256" height="256" rx="40" fill="#15191C"/>
<path d="M57.7756 56.0001C57.5045 56.0044 57.2378 56.0698 56.9953 56.1914C56.7529 56.313 56.541 56.4876 56.3754 56.7024C56.2098 56.9172 56.0948 57.1665 56.0388 57.4319C55.9829 57.6972 55.9875 57.9718 56.0523 58.2351L75.5344 137.106C75.5499 137.198 75.5724 137.288 75.6018 137.376L95.057 216.193C95.1331 216.501 95.2892 216.784 95.5095 217.013C95.7299 217.242 96.0067 217.408 96.312 217.496C96.6173 217.583 96.9403 217.588 97.2483 217.511C97.5564 217.433 97.8385 217.276 98.0662 217.055L215.451 104.133C215.678 103.913 215.843 103.638 215.93 103.334C216.017 103.03 216.023 102.708 215.947 102.402C215.87 102.095 215.715 101.813 215.495 101.586C215.276 101.358 215.001 101.192 214.697 101.104L175.759 89.8819C175.506 89.7377 175.222 89.6569 174.931 89.6463L98.1672 67.5454C97.8761 67.3655 97.5399 67.2721 97.1978 67.2761L58.2873 56.0675C58.1208 56.0206 57.9485 55.998 57.7756 56.0001ZM60.2934 60.4028L93.6568 70.0026L68.614 94.1298L60.2934 60.4028ZM99.7155 71.7529L132.46 81.1776L107.888 104.84L99.7155 71.7529ZM96.2015 72.5607L104.394 105.722L71.5626 96.2975L96.2015 72.5607ZM138.478 82.9144L171.316 92.366L146.664 116.13L138.478 82.9144ZM134.977 83.7895L143.11 116.776L110.439 107.405L134.977 83.7895ZM177.388 94.1163L210.691 103.703L185.682 127.762L177.388 94.1163ZM173.861 94.9241L182.04 128.086L149.215 118.674L173.861 94.9241ZM69.9739 99.6096L103.391 109.196L78.308 133.337L69.9739 99.6096ZM109.389 110.865L142.221 120.29L117.582 144.034L109.389 110.865ZM105.902 111.788L114.223 145.562L80.8123 135.922L105.902 111.788ZM148.138 122.121L181.562 131.714L156.452 155.855L148.138 122.121ZM144.638 122.976L152.952 156.717L119.575 147.09L144.638 122.976ZM79.8092 139.389L112.614 148.854L88.002 172.57L79.8092 139.389ZM119.218 150.745L151.955 160.19L127.397 183.819L119.218 150.745ZM115.583 151.015L123.755 184.183L90.9371 174.758L115.583 151.015ZM89.3551 178.077L123.264 187.784L97.8037 212.275L89.3551 178.077Z" fill="#F4F2ED"/>
</svg>