<svg width="256" height="256" title="Threads" viewBox="0 0 256 256" fill="none" xmlns="http://www.w3.org/2000/svg">
<rect width="256" height="256" rx="40" fill="black"/>
<path d="M164.159 122.034C163.505 121.72 162.844 121.42 162.177 121.134C161.011 99.6435 149.268 87.3403 129.55 87.2144H129.283C117.489 87.2144 107.68 92.248 101.643 101.409L112.487 108.847C116.997 102.004 124.075 100.546 129.288 100.546H129.469C135.961 100.588 140.86 102.476 144.03 106.157C146.338 108.836 147.881 112.54 148.645 117.214C142.889 116.236 136.664 115.934 130.009 116.317C111.263 117.396 99.2107 128.33 100.021 143.522C100.431 151.228 104.27 157.858 110.83 162.189C116.376 165.85 123.52 167.64 130.943 167.235C140.748 166.698 148.439 162.957 153.805 156.117C157.88 150.923 160.457 144.192 161.596 135.71C166.268 138.53 169.731 142.241 171.643 146.701C174.895 154.284 175.085 166.745 164.917 176.903C156.009 185.803 145.301 189.653 129.118 189.772C111.168 189.639 97.5911 183.882 88.7648 172.661C80.4998 162.153 76.2279 146.977 76.0682 127.552C76.2279 108.127 80.499 92.9508 88.7648 82.4436C97.5918 71.2225 111.168 65.4656 129.118 65.3318C147.2 65.4656 161.012 71.25 170.177 82.5254C174.671 88.0549 178.059 95.0072 180.292 103.115L193 99.7245C190.293 89.7454 186.033 81.1466 180.236 74.0148C168.486 59.5607 151.303 52.1535 129.163 52H129.074C106.979 52.1527 89.9878 59.5883 78.5732 74.099C68.4161 87.0097 63.1763 104.977 63.0008 127.499L63 127.552V127.605C63.1763 150.126 68.4161 168.094 78.5732 181.006C89.9878 195.516 106.979 202.952 129.074 203.104H129.163C148.807 202.968 162.653 197.825 174.06 186.428C188.984 171.519 188.535 152.83 183.616 141.357C180.087 133.13 173.359 126.447 164.159 122.034ZM130.241 153.922C122.025 154.385 113.489 150.697 113.069 142.798C112.757 136.941 117.237 130.406 130.746 129.627C132.293 129.538 133.811 129.494 135.303 129.494C140.21 129.494 144.8 129.971 148.974 130.883C147.417 150.324 138.286 153.481 130.241 153.922Z" fill="white"/>
</svg>