<svg width="256" height="256" title="Thunder Client" viewBox="0 0 256 256" fill="none" xmlns="http://www.w3.org/2000/svg" id="thunderclient">
<style>
#thunderclient {
    rect {fill: #15191C}

    @media (prefers-color-scheme: light) {
        rect {fill: #F4F2ED}
    }
}
</style>
<rect width="256" height="256" rx="40" fill="#15191C"/>
<path d="M128.5 206C171.302 206 206 171.302 206 128.5C206 85.6979 171.302 51 128.5 51C85.6979 51 51 85.6979 51 128.5C51 171.302 85.6979 206 128.5 206Z" stroke="#924E96" stroke-width="10"/>
<path d="M133.185 72.4622C136.367 72.4623 138.958 75.0463 138.953 78.2191C138.953 78.3538 138.944 78.7632 138.931 78.8958L134.734 114.243L134.727 114.304H159.995C163.177 114.304 165.768 116.888 165.769 120.061C165.769 121.3 165.357 122.525 164.613 123.515L164.612 123.517L123.881 181.532C122.735 183.066 121.006 183.932 119.196 183.932C116.014 183.932 113.423 181.348 113.423 178.175C113.423 178.115 113.424 177.996 113.428 177.877C113.431 177.757 113.437 177.641 113.445 177.584L113.446 177.581L117.698 137.501L117.705 137.441H97.0488C93.8664 137.441 91.2754 134.857 91.2754 131.684C91.2754 130.445 91.6861 129.22 92.4297 128.23L92.4316 128.228L128.465 74.9066L128.464 74.9056C129.648 73.3257 131.376 72.4622 133.185 72.4622Z" fill="#924E96" stroke="#924E96" stroke-width="0.109375"/>
</svg>