<svg width="256" height="256" title="Thunderbird" viewBox="0 0 256 256" fill="none" xmlns="http://www.w3.org/2000/svg" id="thunderbird">
<style>
#thunderbird {
    rect {fill: #15191C}

    @media (prefers-color-scheme: light) {
        rect {fill: #F4F2ED}
    }
}
</style>
<rect width="256" height="256" rx="40" fill="#15191C"/>
<path d="M112.524 76.6646H112.539C118.049 57.4024 142.059 48 166.526 48C183.433 48 198.611 53.3524 209.016 61.8498C202.806 62.1426 196.675 63.361 190.826 65.4648C199.233 68.5897 206.455 73.3972 211.808 79.3446C207.77 78.6496 203.675 78.3398 199.578 78.4196C209.647 93.0051 215.026 110.315 214.998 128.039C214.998 176.363 175.823 215.538 127.499 215.538C79.9195 215.538 40 175.701 40 128.039C40 120.512 41 112.739 42.9425 105.449C43.4525 103.919 44.1624 102.452 45.1049 101.914C46.2849 101.242 47.3599 103.247 47.5324 103.899C48.8118 108.692 50.5333 113.355 52.6748 117.829C52.4873 107.839 56.7548 98.7393 62.6247 90.8694C66.5396 85.622 70.1696 80.7596 71.8446 66.7272C71.9571 65.7847 72.8496 65.1073 73.752 65.4023C86.4919 69.5722 93.3018 90.7869 92.2443 108.527C99.2817 109.534 99.2492 102.182 99.2492 102.182C96.9992 95.2669 98.4992 82.4145 112.499 76.6646H112.524Z" fill="url(#paint0_linear_189_100)"/>
<path opacity="0.9" d="M212.135 105.757C214.263 153.881 174.701 195.373 126.459 195.373C81.2967 195.373 44.2899 160.466 40.9424 116.162C40.3452 120.311 40.0311 124.495 40.0024 128.687C40.3449 176.091 80.1667 215.538 127.501 215.538C175.826 215.538 215 176.364 215 128.039C215 120.339 214.003 112.872 212.135 105.757Z" fill="url(#paint1_radial_189_100)"/>
<path d="M125.366 83.042C124.424 81.3745 120.071 78.9071 118.169 78.4771C125.369 55.4149 162.049 48.335 184.498 52.4149C193.841 54.1149 205.476 59.2049 209.016 61.8498C198.611 53.3524 183.431 48 166.526 48C142.059 48 118.049 57.4024 112.539 76.6646H112.499C98.4992 82.4145 96.9993 95.2719 99.2492 102.184C101.409 93.9369 111.687 83.802 125.366 83.042Z" fill="url(#paint2_radial_189_100)" style="mix-blend-mode:screen"/>
<path d="M150.794 67.1145C131.139 70.9819 124.716 72.2469 118.139 78.4993C125.526 58.9422 144.384 54.9772 166.853 63.892C161.506 64.9945 156.152 66.0695 150.794 67.117V67.1145Z" fill="url(#paint3_linear_189_100)"/>
<path d="M44.7498 102.772C39.3799 124.757 43.5298 150.596 67.9243 172.281C60.6619 164.339 51.7947 135.014 71.3617 114.064C72.6792 112.652 74.9467 113.689 75.0192 115.619C76.6317 159.159 111.764 185.751 152.268 180.778C139.718 180.073 98.2139 165.536 129.089 159.786C145.226 156.779 170.528 152.066 170.528 129.362C170.528 92.5571 142.071 81.7973 124.814 83.3973C113.004 84.4922 102.491 91.9871 99.2564 102.18C100.499 106.197 95.5464 109.009 92.244 108.537C93.304 90.7997 86.4941 69.5724 73.7517 65.4025C72.8517 65.1075 71.9567 65.785 71.8442 66.7275C70.1693 80.7598 66.5393 85.6222 62.6269 90.8697C56.7547 98.7421 52.4872 107.839 52.6747 117.829C50.5333 113.355 48.8117 108.692 47.5323 103.899C47.3898 103.36 46.6073 101.852 45.6623 101.782C45.1498 101.745 44.8773 102.245 44.7498 102.772Z" fill="url(#paint4_radial_189_100)"/>
<path d="M118.246 162.013C142.006 181.306 189.788 166.841 189.788 119.934C170.498 149.174 145.929 169.343 118.249 162.013H118.246Z" fill="url(#paint5_linear_189_100)" style="mix-blend-mode:screen"/>
<path d="M71.3622 114.064C71.5782 113.823 71.8504 113.638 72.1546 113.526C72.4589 113.415 72.7861 113.38 73.1071 113.424C55.5925 134.787 69.7199 172.304 79.4148 181.521C79.9573 183.056 70.2172 175.074 68.8747 173.206C61.4998 166.949 50.93 135.942 71.3622 114.064Z" fill="url(#paint6_linear_189_100)" style="mix-blend-mode:screen"/>
<path d="M127.499 163.781C151.264 163.781 170.531 148.061 170.531 128.669C170.531 109.277 151.264 93.5571 127.499 93.5571C107.224 93.5571 84.4569 106.747 84.4669 129.182C84.4769 163.849 121.101 183.793 152.321 180.774C149.976 180.501 135.346 179.724 125.459 168.539C124.566 167.531 123.019 165.771 123.721 164.629C124.421 163.486 126.351 163.779 127.496 163.779L127.499 163.781Z" fill="url(#paint7_linear_189_100)"/>
<path opacity="0.6" d="M165.843 112.714L131.834 145.259C128.816 147.404 125.604 147.559 122.434 145.614L89.0769 112.834C90.0286 111.305 91.0986 109.852 92.2769 108.489L95.7768 111.764C104.537 119.974 111.619 126.607 121.601 135.127C126.106 138.972 127.506 138.897 131.926 135.127C143.346 125.377 151.699 118.002 162.556 108.304C163.766 109.686 164.865 111.161 165.841 112.717L165.843 112.714Z" fill="white"/>
<mask id="mask0_189_100" style="mask-type:luminance" maskUnits="userSpaceOnUse" x="84" y="112" width="87" height="70">
<path d="M170.531 128.669C170.531 148.061 151.263 163.781 127.499 163.781C126.351 163.781 124.424 163.486 123.721 164.631C123.019 165.771 124.566 167.531 125.459 168.538C134.749 179.048 148.226 180.371 151.763 180.718L152.321 180.773C121.101 183.793 84.4768 163.849 84.4668 129.181C84.434 123.409 86.0405 117.747 89.0992 112.852L122.619 143.296C125.004 145.461 129.021 145.461 131.406 143.296L165.561 112.274C168.736 117.169 170.531 122.749 170.531 128.669Z" fill="white"/>
</mask>
<g mask="url(#mask0_189_100)">
<path opacity="0.7" d="M74.4995 88.172H183.266V186.788H74.4995V88.172Z" fill="url(#paint8_linear_189_100)"/>
<g filter="url(#filter0_f_189_100)">
<path fill-rule="evenodd" clip-rule="evenodd" d="M117.509 143.501C111.172 136.906 92.1918 114.994 92.1918 114.994L93.6593 115.059L123.374 137.251C125.599 138.869 128.774 138.851 130.979 137.214L160.116 115.089L161.661 114.966C161.661 114.966 143.301 136.359 136.269 143.406C129.236 150.453 123.846 150.096 117.509 143.501Z" fill="#458FCD"/>
</g>
</g>
<path d="M133.536 75.9919C138.141 74.5419 137.736 69.9844 137.736 69.9844C137.736 69.9844 135.434 67.272 130.871 68.7745C126.601 70.1819 125.939 73.2244 125.939 73.2244C125.939 73.2244 128.271 77.6493 133.536 75.9919Z" fill="white"/>
<filter id="filter0_f_189_100" x="60.1918" y="82.9664" width="133.469" height="97.6035" filterUnits="userSpaceOnUse" color-interpolation-filters="sRGB">
<feFlood flood-opacity="0" result="BackgroundImageFix"/>
<feBlend mode="normal" in="SourceGraphic" in2="BackgroundImageFix" result="shape"/>
<feGaussianBlur stdDeviation="16" result="effect1_foregroundBlur_189_100"/>
</filter>
<linearGradient id="paint0_linear_189_100" x1="70.3696" y1="76.8396" x2="193.718" y2="191.893" gradientUnits="userSpaceOnUse">
<stop stop-color="#1B91F3"/>
<stop offset="1" stop-color="#0B68CB"/>
</linearGradient>
<radialGradient id="paint1_radial_189_100" cx="0" cy="0" r="1" gradientUnits="userSpaceOnUse" gradientTransform="translate(70.1419 116.427) rotate(66.5177) scale(73.9891 70.8788)">
<stop offset="0.53" stop-color="#0B4186" stop-opacity="0"/>
<stop offset="1" stop-color="#0B4186" stop-opacity="0.45"/>
</radialGradient>
<radialGradient id="paint2_radial_189_100" cx="0" cy="0" r="1" gradientUnits="userSpaceOnUse" gradientTransform="translate(129.749 86.0395) rotate(-127.997) scale(15.8173 26.1742)">
<stop stop-color="#EF3ACC" stop-opacity="0"/>
<stop offset="1" stop-color="#EF3ACC" stop-opacity="0.64"/>
</radialGradient>
<linearGradient id="paint3_linear_189_100" x1="104.692" y1="106.291" x2="149.076" y2="56.8822" gradientUnits="userSpaceOnUse">
<stop stop-color="#0F5DB0"/>
<stop offset="1" stop-color="#0F5DB0" stop-opacity="0"/>
</linearGradient>
<radialGradient id="paint4_radial_189_100" cx="0" cy="0" r="1" gradientUnits="userSpaceOnUse" gradientTransform="translate(94.4989 175.714) rotate(-64.2624) scale(115.428 142.587)">
<stop offset="0.02" stop-color="#094188"/>
<stop offset="0.97" stop-color="#0B4186" stop-opacity="0"/>
</radialGradient>
<linearGradient id="paint5_linear_189_100" x1="182.478" y1="142.066" x2="161.841" y2="192.738" gradientUnits="userSpaceOnUse">
<stop stop-color="#E247C4" stop-opacity="0"/>
<stop offset="1" stop-color="#E247C4" stop-opacity="0.64"/>
</linearGradient>
<linearGradient id="paint6_linear_189_100" x1="54.5025" y1="96.6246" x2="72.6846" y2="169.804" gradientUnits="userSpaceOnUse">
<stop offset="0.1" stop-color="#EF3ACC"/>
<stop offset="1" stop-color="#EF3ACC" stop-opacity="0"/>
</linearGradient>
<linearGradient id="paint7_linear_189_100" x1="127.499" y1="106.414" x2="127.499" y2="180.413" gradientUnits="userSpaceOnUse">
<stop stop-color="white"/>
<stop offset="0.91" stop-color="#BEE1FE"/>
<stop offset="1" stop-color="#96CEFD"/>
</linearGradient>
<linearGradient id="paint8_linear_189_100" x1="128.884" y1="148.289" x2="128.884" y2="179.288" gradientUnits="userSpaceOnUse">
<stop stop-color="#BCE0FD"/>
<stop offset="1" stop-color="#88CCFC"/>
</linearGradient>
</svg>