<svg width="256" height="256" title="Twitter" viewBox="0 0 256 256" fill="none" xmlns="http://www.w3.org/2000/svg">
<rect width="256" height="256" rx="40" fill="#1D9BF0"/>
<path d="M194.108 94.3771C194.209 95.8318 194.209 97.2864 194.209 98.7544C194.209 143.485 160.156 195.074 97.8898 195.074V195.046C79.496 195.074 61.4844 189.805 46 179.871C48.6746 180.192 51.3626 180.353 54.0573 180.359C69.3004 180.373 84.1079 175.258 96.1 165.84C81.6142 165.565 68.9116 156.121 64.4741 142.332C69.5484 143.311 74.777 143.11 79.7574 141.749C63.9647 138.558 52.6027 124.683 52.6027 108.568C52.6027 108.42 52.6027 108.28 52.6027 108.139C57.3084 110.759 62.5771 112.214 67.9665 112.376C53.092 102.434 48.507 82.6466 57.4893 67.1754C74.6764 88.3241 100.035 101.181 127.257 102.542C124.528 90.7843 128.255 78.4637 137.05 70.1986C150.684 57.382 172.128 58.0389 184.945 71.6666C192.526 70.1718 199.792 67.3899 206.441 63.4484C203.915 71.2846 198.626 77.9408 191.56 82.1706C198.27 81.3796 204.826 79.5831 211 76.8415C206.455 83.652 200.731 89.5843 194.108 94.3771Z" fill="white"/>
</svg>