<svg width="256" height="256" title="Ubuntu" viewBox="0 0 256 256" fill="none" xmlns="http://www.w3.org/2000/svg">
<rect width="256" height="256" rx="40" fill="#E95420"/>
<path d="M158.73 53C152.889 53 147.287 55.3202 143.157 59.4503C139.027 63.5803 136.707 69.1818 136.707 75.0226C136.707 80.8634 139.027 86.4649 143.157 90.5949C147.287 94.725 152.889 97.0452 158.73 97.0452C164.57 97.0452 170.172 94.725 174.302 90.5949C178.432 86.4649 180.752 80.8634 180.752 75.0226C180.752 69.1818 178.432 63.5803 174.302 59.4503C170.172 55.3202 164.57 53 158.73 53ZM128.44 55.2281C102.627 55.0796 78.176 69.0552 65.3305 91.7236C65.8897 91.6924 66.4496 91.6773 67.0097 91.6784C72.9085 91.6846 78.6891 93.3327 83.7042 96.4381C88.5579 89.4277 95.011 83.6737 102.53 79.6521C110.049 75.6305 118.417 73.457 126.942 73.3112C127.298 66.8147 129.63 60.5821 133.626 55.4477C131.901 55.3114 130.171 55.2381 128.44 55.2281ZM188.024 87.4805C185.48 93.4712 181.156 98.535 175.637 101.986C180.042 110.302 182.197 119.626 181.888 129.032C181.579 138.438 178.816 147.599 173.874 155.609C179.03 159.828 182.719 165.57 184.414 172.012C193.854 160.103 199.286 145.515 199.934 130.332C200.583 115.15 196.414 100.151 188.024 87.4805ZM67.0226 101.288C61.1818 101.288 55.5803 103.608 51.4503 107.739C47.3202 111.869 45 117.47 45 123.311C45.0017 129.15 47.3227 134.75 51.4526 138.879C55.5824 143.008 61.183 145.327 67.0226 145.327C72.8634 145.327 78.4649 143.007 82.5949 138.877C86.725 134.747 89.0452 129.145 89.0452 123.304C89.0452 117.464 86.725 111.862 82.5949 107.732C78.4649 103.602 72.8634 101.288 67.0226 101.288ZM80.1134 152.089C74.2213 154.763 67.6518 155.57 61.2877 154.401C65.6894 165.286 72.6976 174.924 81.6963 182.466C90.6949 190.009 101.409 195.226 112.895 197.658C118.036 198.759 123.281 199.298 128.537 199.266C124.494 193.968 122.235 187.524 122.086 180.86C120.272 180.658 118.47 180.364 116.686 179.982C108.903 178.336 101.582 174.978 95.257 170.152C88.9311 165.327 83.7583 159.154 80.1134 152.082V152.089ZM153.77 158.082C147.929 158.082 142.327 160.402 138.197 164.532C134.067 168.662 131.747 174.264 131.747 180.105C131.747 185.945 134.067 191.547 138.197 195.677C142.327 199.807 147.929 202.127 153.77 202.127C159.61 202.127 165.212 199.807 169.342 195.677C173.472 191.547 175.792 185.945 175.792 180.105C175.792 174.264 173.472 168.662 169.342 164.532C165.212 160.402 159.61 158.082 153.77 158.082Z" fill="white"/>
</svg>