<svg width="256" height="256" title="Unity" viewBox="0 0 256 256" fill="none" xmlns="http://www.w3.org/2000/svg">
<rect width="256" height="256" rx="40" fill="black"/>
<path d="M202.825 161.32V82.5566L134.563 43.175V73.4551L161.343 88.8577C162.394 89.3827 162.394 90.958 161.343 91.4831L129.487 109.861C128.612 110.387 127.388 110.387 126.512 109.861L94.6569 91.308C93.6068 90.7829 93.6068 89.2077 94.6569 88.6826L121.437 73.28V43L53.1751 82.3815V161.32L79.4294 146.267V115.287C79.4294 114.237 80.6546 113.362 81.7048 114.062L113.56 132.44C114.436 132.965 115.136 134.015 115.136 135.065V171.821C115.136 172.872 113.91 173.747 112.86 173.047L86.0805 157.644L59.8261 172.696L128.088 212.078L196.349 172.696L170.095 157.644L143.315 173.047C142.44 173.571 141.04 172.872 141.04 171.821V135.065C141.04 134.015 141.564 132.965 142.615 132.44L174.471 114.062C175.346 113.536 176.745 114.237 176.745 115.287V146.267L202.825 161.32Z" fill="#CCCCCC"/>
<path d="M127.912 212.253L196.174 172.871L169.919 157.819L143.14 173.222C142.265 173.747 140.864 173.047 140.864 171.996V135.241C140.864 134.19 141.39 133.14 142.44 132.615L174.295 114.237C175.17 113.712 176.571 114.412 176.571 115.462V146.443L202.825 161.495V82.5568L127.912 125.789V212.253Z" fill="#A6A6A6"/>
<path d="M134.389 43V73.28L161.168 88.6826C162.218 89.2077 162.218 90.7829 161.168 91.308L129.313 109.686C128.438 110.211 127.213 110.211 126.338 109.686L94.6569 91.308C93.6068 90.7829 93.6068 89.2077 94.6569 88.6826L121.437 73.28V43L53.1751 82.3815L128.088 125.613L203 82.3815L134.389 43Z" fill="white"/>
<path d="M112.509 173.047L85.7305 157.645L59.4761 172.697L127.737 212.078V125.614L53 82.5568V161.495L79.2543 146.443V115.462C79.2543 114.412 80.4796 113.537 81.5298 114.237L113.385 132.615C114.26 133.14 114.96 134.19 114.96 135.241V171.996C114.785 172.871 113.56 173.572 112.509 173.047Z" fill="#CCCCCC"/>
</svg>