<svg width="256" height="256" title="Unreal Engine" viewBox="0 0 256 256" fill="none" xmlns="http://www.w3.org/2000/svg" id="unrealengine">
<style>
#unrealengine {
    rect {fill: #15191C}
    path {fill: #F4F2ED}

    @media (prefers-color-scheme: light) {
        rect {fill: #F4F2ED}
        path {fill: #15191C}
    }
}
</style>
<rect width="256" height="256" rx="40" fill="#15191C"/>
<path fill-rule="evenodd" clip-rule="evenodd" d="M180.489 141.083C178.981 148.359 172.269 167.021 150.875 177.13L142.29 167.472L127.802 182.045C119.553 181.934 111.442 179.917 104.101 176.152C96.7609 172.387 90.3905 166.976 85.4878 160.341C87.0292 160.82 88.6209 161.119 90.2312 161.231C92.6029 161.274 95.1731 160.405 95.1731 156.402V117.098C95.2086 116.086 95.0063 115.081 94.5826 114.162C94.1589 113.243 93.5255 112.436 92.7333 111.806C91.9412 111.176 91.0124 110.741 90.0215 110.535C89.0306 110.329 88.0052 110.359 87.0278 110.621C80.3206 112.156 74.9548 128.902 74.9548 128.902C74.8802 121.169 76.4909 113.512 79.6748 106.464C82.8587 99.4162 87.5395 93.1462 93.3917 88.0902C103.383 79.623 113.143 76.6933 120.559 75.545C113.234 79.7196 109.113 86.5341 109.113 92.2541C109.113 101.424 114.651 100.34 116.293 98.9881V152.067C116.57 152.733 116.931 153.363 117.366 153.939C118.1 154.954 119.066 155.777 120.183 156.341C121.301 156.905 122.537 157.193 123.789 157.18C129.337 157.18 136.533 150.849 136.533 150.849V107.869C136.533 103.495 133.238 98.2101 129.938 96.4072C129.938 96.4072 136.044 95.334 140.766 98.9345C141.652 97.85 142.594 96.8129 143.589 95.8277C154.567 85.0424 164.928 81.9839 173.557 80.4493C173.557 80.4493 157.851 92.7906 157.851 109.317C157.851 121.621 158.167 151.621 158.167 151.621C164.011 157.234 172.666 149.131 180.489 141.083Z" fill="#F4F2ED"/>
<path fill-rule="evenodd" clip-rule="evenodd" d="M128.495 41C111.189 41.0011 94.2719 46.1339 79.8832 55.7494C65.4945 65.3649 54.2802 79.0312 47.6585 95.0201C41.0368 111.009 39.3051 128.603 42.6824 145.576C46.0596 162.549 54.3941 178.139 66.632 190.376C78.8698 202.612 94.4613 210.945 111.435 214.32C128.408 217.695 146.002 215.961 161.99 209.337C177.978 202.714 191.643 191.498 201.257 177.108C210.87 162.718 216.001 145.8 216 128.495C216 117.004 213.737 105.625 209.339 95.0094C204.941 84.3934 198.495 74.7476 190.37 66.6228C182.244 58.498 172.597 52.0534 161.981 47.6571C151.364 43.2607 139.986 40.9986 128.495 41ZM128.495 212.496C111.881 212.497 95.6391 207.571 81.8245 198.342C68.0098 189.112 57.2423 175.993 50.8836 160.644C44.5249 145.295 42.8606 128.405 46.1012 112.11C49.3418 95.815 57.3418 80.8468 69.0894 69.0985C80.837 57.3501 95.8046 49.3492 112.099 46.1076C128.394 42.8659 145.284 44.5291 160.634 50.8869C175.984 57.2446 189.103 68.0112 198.334 81.8253C207.564 95.6394 212.491 111.88 212.491 128.495C212.491 150.772 203.641 172.138 187.889 187.891C172.137 203.644 150.772 212.495 128.495 212.496Z" fill="#F4F2ED"/>
</svg>