<svg width="256" height="256" title="Vala" viewBox="0 0 256 256" fill="none" xmlns="http://www.w3.org/2000/svg">
<rect width="256" height="256" rx="40" fill="url(#linearGradient)"/>
<path opacity="0.15" d="M124.281 53C118.119 53 111.934 53.7827 105.75 55.3244C99.6567 56.7859 93.7737 58.8697 88.105 61.576C82.5484 64.1885 77.2491 67.3494 72.281 71.0148C72.2734 71.0211 72.2657 71.0274 72.2582 71.0337C67.5122 74.5517 63.1587 78.6027 59.2777 83.1126C59.2685 83.1251 59.2593 83.1376 59.2503 83.1502C55.6401 87.4187 52.6427 92.2013 50.3501 97.3509C50.3424 97.3681 50.3348 97.3854 50.3273 97.4027C48.1581 102.406 47.0247 107.823 47 113.305C47 117.605 47.5021 121.424 48.7025 124.781C48.7143 124.814 48.7264 124.847 48.739 124.88C49.9804 128.133 51.8426 130.976 54.2935 133.13C54.3147 133.149 54.336 133.169 54.3574 133.187C56.8221 135.28 59.7797 136.742 63.0659 137.652C63.1008 137.662 63.1357 137.671 63.1708 137.68C66.3749 138.487 69.8939 138.868 73.7598 138.868C74.9888 138.868 76.1676 138.364 77.0371 137.467C77.9066 136.57 78.3958 135.352 78.397 134.083C78.397 132.31 77.7944 131.084 77.1829 130.075L77.3974 130.471C77.1442 129.9 76.9188 129.317 76.7219 128.722C76.7219 128.717 76.7128 128.722 76.7128 128.713C76.3887 127.622 76.1175 126.516 75.9003 125.399C75.6543 123.466 75.5445 121.519 75.5717 119.571C75.5717 108.416 78.0455 99.5479 82.8197 92.4618C86.4573 87.1294 91.4916 83.2116 97.2881 79.9538L100.442 218.197C100.47 219.448 100.972 220.638 101.838 221.511C102.705 222.385 103.868 222.874 105.079 222.874H134.884C135.828 222.874 136.75 222.577 137.527 222.02C138.304 221.464 138.897 220.677 139.228 219.762L196.709 60.5058C196.97 59.7819 197.057 59.0036 196.963 58.2374C196.87 57.4712 196.599 56.7396 196.172 56.1052C195.746 55.4708 195.177 54.9524 194.515 54.5939C193.853 54.2355 193.116 54.0476 192.369 54.0466H177.928C176.962 54.0462 176.02 54.3572 175.235 54.9362C174.448 55.5152 173.856 56.3333 173.542 57.2762L138.63 162.177L137.197 58.1437C137.18 56.9687 136.746 55.8411 135.978 54.9752C135.208 54.1094 134.157 53.5658 133.026 53.4479C131.608 53.3014 130.186 53.1914 128.763 53.1178H128.754C127.264 53.0398 125.772 53.0022 124.281 53.0048V53Z" fill="#201C2C"/>
<path opacity="0.3" d="M105.079 218.084L101.747 72.0849C92.0472 75.8409 84.4706 81.7185 79.0179 89.7177C73.6261 97.72 70.9302 107.669 70.9302 119.566C70.9302 122.279 71.0656 124.506 71.3365 126.247C71.6711 127.916 72.0074 129.272 72.3451 130.316C72.6829 131.29 72.9871 132.055 73.258 132.612C73.5926 133.168 73.76 133.655 73.76 134.073C70.1908 134.073 67.0263 133.726 64.2665 133.031C61.5036 132.264 59.179 131.081 57.2925 129.481C55.4729 127.885 54.058 125.763 53.0478 123.116C52.1045 120.477 51.6328 117.207 51.6328 113.31C51.6328 108.58 52.6081 103.918 54.5586 99.3261C56.579 94.7372 59.3068 90.3887 62.7421 86.2806C66.2443 82.1789 70.3202 78.3884 74.9696 74.9089C79.6859 71.4296 84.7033 68.4373 90.0222 65.9323C95.4079 63.3581 100.997 61.3762 106.791 59.987C112.651 58.5223 118.478 57.7899 124.272 57.7899C125.821 57.7899 127.235 57.8245 128.517 57.8937C129.861 57.9629 131.206 58.0666 132.551 58.2049L134.372 189.697L177.914 58.8272H192.36L134.879 218.089H105.075L105.079 218.084Z" fill="#201C2C"/>
<path d="M105.079 213.37L101.747 67.3701C92.0472 71.1262 84.4706 77.0038 79.0179 85.003C73.6261 93.0053 70.9302 102.955 70.9302 114.851C70.9302 117.564 71.0656 119.791 71.3365 121.532C71.6711 123.201 72.0074 124.558 72.3451 125.601C72.6829 126.575 72.9871 127.34 73.258 127.897C73.5926 128.453 73.76 128.941 73.76 129.358C70.1908 129.358 67.0263 129.011 64.2665 128.317C61.5036 127.55 59.179 126.366 57.2925 124.767C55.4729 123.17 54.058 121.048 53.0478 118.402C52.1045 115.762 51.6328 112.493 51.6328 108.595C51.6328 103.865 52.6081 99.2035 54.5586 94.6114C56.579 90.0225 59.3068 85.674 62.7421 81.5659C66.2443 77.4642 70.3202 73.6737 74.9696 70.1943C79.6859 66.7149 84.7033 63.7226 90.0222 61.2176C95.4079 58.6434 100.997 56.6615 106.791 55.2723C112.651 53.8077 118.478 53.0752 124.272 53.0752C125.821 53.0752 127.235 53.1098 128.517 53.179C129.861 53.2482 131.206 53.3519 132.551 53.4902L134.372 184.982L177.914 54.1125H192.36L134.879 213.374H105.075L105.079 213.37Z" fill="white"/>
<linearGradient id="linearGradient" x1="128" y1="0" x2="128" y2="256" gradientUnits="userSpaceOnUse">
<stop stop-color="#AD65D6"/>
<stop offset="1" stop-color="#7B37B2"/>
</linearGradient>
</svg>