<svg width="256" height="256" title="Valkey" viewBox="0 0 256 256" fill="none" xmlns="http://www.w3.org/2000/svg" id="valkey">
<style>
#valkey {
    rect {fill: #15191C}

    @media (prefers-color-scheme: light) {
        rect {fill: #F4F2ED}
    }
}
</style>
<rect width="256" height="256" rx="40" fill="#15191C"/>
<path fill-rule="evenodd" clip-rule="evenodd" d="M84.1258 187.824L53 168.27V85.4157L129.159 42L203 85.4157V172.579L127.834 215L101.675 198.761V158.99L87.4371 150.042V104.969L128.497 81.4387L168.563 104.969V152.031L136.775 169.927V151.036C146.377 147.391 153 138.111 153 126.843C153 115.575 141.742 100.992 127.834 100.992C113.927 100.992 102.669 112.592 102.669 126.843C102.669 141.094 109.623 147.391 118.894 151.036V187.161L127.834 192.795L183.464 161.31V96.0211L128.497 63.5421L71.8742 96.0211V157.333L83.7947 164.956V187.492L84.1258 187.824ZM128.166 115.243C134.457 115.243 139.424 120.546 139.424 127.174C139.424 133.803 134.457 139.105 128.166 139.105C121.874 139.105 116.907 133.803 116.907 127.174C116.907 120.546 121.874 115.243 128.166 115.243Z" fill="#6983FF"/>
</svg>