<svg width="256" height="256" title="Vim" viewBox="0 0 256 256" fill="none" xmlns="http://www.w3.org/2000/svg" id="vim">
<style>
#vim {
    rect {fill: #15191C}

    @media (prefers-color-scheme: light) {
        rect {fill: #F4F2ED}
    }
}
</style>
<rect width="256" height="256" rx="40" fill="#15191C"/>
<path d="M138.897 57.4477C132.974 51.5174 123.364 51.5174 117.441 57.4478L57.4335 117.536C51.5222 123.456 51.5222 133.044 57.4335 138.963L117.103 198.713C123.025 204.643 132.636 204.643 138.559 198.713L198.567 138.623C204.478 132.704 204.478 123.116 198.567 117.197L138.897 57.4477Z" fill="#019833" stroke="#15191C" stroke-width="0.5"/>
<path d="M149.72 54.2792L147.742 56.259V63.528L149.474 65.2617H158.624V72.2852L98.0978 133.715V65.3494H108.157L110.22 63.2829V55.9272L108.315 54.4531H55.3811L53.6494 56.1868V63.7014L55.4103 65.4645H64.6169V183.601C64.6169 188.053 67.8917 191.826 72.2987 192.452C75.1336 192.856 77.99 191.876 79.9814 189.819L203.649 62.039V56.26L201.672 54.2802L149.72 54.2792Z" fill="white" stroke="#15191C" stroke-width="0.5"/>
</svg>