<svg width="256" height="256" title="Visual Studio" viewBox="0 0 256 256" fill="none" xmlns="http://www.w3.org/2000/svg" id="visualstudio">
<style>
#visualstudio {
    rect {fill: #15191C}

    @media (prefers-color-scheme: light) {
        rect {fill: #F4F2ED}
    }
}
</style>
<rect width="256" height="256" rx="40" fill="#15191C"/>
<path d="M73.3945 172.331C72.4864 173.107 71.3808 173.616 70.2008 173.801C69.0207 173.986 67.8124 173.841 66.7101 173.38L54.9719 168.456C53.8011 167.967 52.8001 167.145 52.0937 166.091C51.3874 165.037 51.007 163.799 51 162.53V93.6523C51.0069 92.3836 51.3872 91.1451 52.0936 90.0913C52.7999 89.0375 53.801 88.215 54.9719 87.7266L66.7101 82.8828C67.8123 82.4225 69.0206 82.2768 70.2007 82.4621C71.3807 82.6473 72.4863 83.1562 73.3945 83.9321L76.0258 86.1118C75.4922 85.7281 74.8629 85.4993 74.2074 85.4506C73.5519 85.4019 72.8957 85.5352 72.3111 85.8358C71.7266 86.1364 71.2365 86.5927 70.8948 87.1542C70.5532 87.7157 70.3733 88.3607 70.375 89.018V167.164C70.3733 167.821 70.5532 168.466 70.8948 169.028C71.2365 169.589 71.7266 170.046 72.3111 170.346C72.8957 170.647 73.5519 170.78 74.2074 170.732C74.8629 170.683 75.4922 170.454 76.0258 170.07L73.3945 172.331Z" fill="#52218A"/>
<path d="M54.9719 168.456C53.8011 167.967 52.8001 167.145 52.0937 166.091C51.3874 165.037 51.007 163.799 51 162.53V161.998C51.008 162.743 51.2391 163.469 51.6637 164.082C52.0883 164.695 52.6868 165.166 53.382 165.436C54.0772 165.705 54.8371 165.76 55.5637 165.593C56.2904 165.426 56.9504 165.046 57.4585 164.5L157.562 53.8203C158.98 52.4097 160.8 51.4724 162.771 51.1371C164.743 50.8018 166.77 51.0849 168.574 51.9476L200.51 67.318C202.155 68.109 203.543 69.3485 204.515 70.894C205.486 72.4394 206.001 74.2278 206 76.0531V76.4243C205.999 75.2664 205.669 74.1325 205.05 73.1544C204.43 72.1764 203.545 71.3942 202.499 70.8988C201.452 70.4035 200.286 70.2152 199.137 70.3559C197.988 70.4966 196.902 70.9605 196.006 71.6937L76.0258 170.07L73.3945 172.331C72.4864 173.107 71.3808 173.616 70.2008 173.801C69.0207 173.986 67.8124 173.841 66.7101 173.38L54.9719 168.456Z" fill="#6C33AF"/>
<path d="M54.9719 87.7266C53.801 88.215 52.7999 89.0375 52.0936 90.0913C51.3872 91.1451 51.0069 92.3836 51 93.6523V94.1851C51.0078 93.4396 51.2389 92.7135 51.6635 92.1006C52.088 91.4877 52.6865 91.0161 53.3817 90.7466C54.0769 90.4772 54.8369 90.4223 55.5636 90.5891C56.2903 90.7558 56.9503 91.1365 57.4585 91.6821L157.562 202.362C158.98 203.772 160.8 204.71 162.771 205.045C164.743 205.381 166.77 205.098 168.574 204.235L200.51 188.864C202.155 188.073 203.543 186.834 204.515 185.288C205.486 183.743 206.001 181.954 206 180.129V179.758C205.999 180.916 205.669 182.05 205.05 183.028C204.43 184.006 203.545 184.788 202.499 185.283C201.452 185.779 200.286 185.967 199.137 185.826C197.988 185.685 196.902 185.222 196.006 184.488L76.0258 86.1118L73.3945 83.8516C72.4782 83.0889 71.3688 82.5947 70.189 82.4238C69.0092 82.2528 67.8051 82.4117 66.7101 82.8828L54.9719 87.7266Z" fill="#854CC7"/>
<path d="M168.574 204.235C166.77 205.098 164.743 205.381 162.771 205.045C160.8 204.71 158.98 203.772 157.562 202.362C158.358 203.152 159.37 203.688 160.47 203.905C161.57 204.121 162.709 204.007 163.745 203.578C164.781 203.148 165.666 202.421 166.29 201.49C166.913 200.558 167.247 199.463 167.25 198.341V57.8727C167.254 56.7488 166.924 55.6491 166.303 54.7124C165.682 53.7758 164.797 53.0444 163.76 52.6107C162.723 52.177 161.581 52.0604 160.478 52.2757C159.375 52.491 158.36 53.0285 157.562 53.8203C158.98 52.4097 160.8 51.4724 162.771 51.1371C164.743 50.8018 166.77 51.0849 168.574 51.9476L200.51 67.3023C202.155 68.0932 203.543 69.3327 204.514 70.878C205.486 72.4233 206.001 74.2116 206 76.0368V180.145C206.001 181.971 205.486 183.759 204.515 185.304C203.543 186.85 202.155 188.089 200.51 188.88L168.574 204.235Z" fill="#B179F1"/>
</svg>