<svg width="256" height="256" title="Vitest" viewBox="0 0 256 256" fill="none" xmlns="http://www.w3.org/2000/svg" id="vitest">
<style>
#vitest {
    rect {fill: #15191C}

    @media (prefers-color-scheme: light) {
        rect {fill: #F4F2ED}
    }
}
</style>
<rect width="256" height="256" rx="40" fill="#15191C"/>
<path d="M170.576 97.0212L129.935 155.783C129.504 156.406 128.881 156.872 128.16 157.112C127.44 157.352 126.66 157.349 125.941 157.109C125.222 156.867 124.601 156.398 124.174 155.774C123.747 155.148 123.537 154.402 123.575 153.647L125.201 121.205L98.9426 115.636C98.3814 115.517 97.8586 115.262 97.4203 114.894C96.9821 114.525 96.6419 114.055 96.43 113.524C96.2181 112.994 96.1411 112.419 96.2056 111.851C96.2702 111.284 96.4743 110.74 96.8 110.269L137.442 51.5077C137.872 50.8843 138.496 50.4177 139.216 50.1785C139.937 49.9393 140.717 49.9405 141.436 50.1822C142.156 50.4238 142.776 50.8925 143.203 51.5173C143.63 52.142 143.841 52.8887 143.802 53.644L142.176 86.0867L168.434 91.6551C168.995 91.774 169.518 92.0289 169.957 92.3971C170.395 92.7655 170.735 93.2358 170.946 93.7665C171.159 94.2972 171.235 94.8718 171.171 95.4395C171.107 96.0074 170.903 96.5503 170.576 97.0212Z" fill="#FCC72B"/>
<path d="M128.016 205.083C126.935 205.084 125.865 204.873 124.866 204.459C123.868 204.045 122.96 203.438 122.197 202.673L83.7958 164.275C82.2596 162.731 81.3985 160.64 81.4013 158.462C81.4042 156.283 82.2709 154.194 83.8113 152.654C85.3517 151.113 87.4402 150.246 89.6187 150.243C91.7973 150.241 93.8882 151.101 95.4328 152.637L128.016 185.217L199 114.237C200.547 112.715 202.633 111.865 204.804 111.874C206.975 111.883 209.055 112.749 210.589 114.284C212.124 115.819 212.991 117.899 213 120.069C213.008 122.24 212.159 124.327 210.636 125.874L133.834 202.673C133.071 203.439 132.164 204.045 131.166 204.459C130.167 204.873 129.097 205.084 128.016 205.083Z" fill="#729B1B"/>
<path d="M127.983 205.083C129.064 205.084 130.135 204.873 131.133 204.459C132.132 204.045 133.039 203.438 133.802 202.673L172.204 164.275C173.74 162.731 174.601 160.64 174.598 158.462C174.596 156.283 173.729 154.194 172.188 152.654C170.647 151.113 168.559 150.246 166.38 150.243C164.202 150.241 162.111 151.101 160.566 152.637L127.983 185.217L56.9999 114.237C55.4525 112.715 53.3661 111.865 51.1954 111.874C49.0245 111.883 46.9451 112.749 45.4102 114.284C43.8752 115.819 43.0089 117.899 43.0001 120.069C42.9912 122.24 43.8405 124.327 45.363 125.874L122.165 202.673C122.929 203.439 123.836 204.045 124.834 204.459C125.832 204.873 126.903 205.084 127.983 205.083Z" fill="#729B1B" fill-opacity="0.5"/>
</svg>