<svg width="256" height="256" title="Vite PWA" viewBox="0 0 256 256" fill="none" xmlns="http://www.w3.org/2000/svg" id="vitepwa">
<style>
#vitepwa {
    rect {fill: #15191C}
    path.pwa {fill: #F4F2ED}

    @media (prefers-color-scheme: light) {
        rect {fill: #F4F2ED}
        path.pwa {fill: #3D3D3D}
    }
}
</style>
<rect width="256" height="256" rx="40" fill="#15191C"/>
<path d="M95.6702 155.049C92.9039 150.271 90.0269 145.383 87.2606 140.606C87.0394 140.273 86.9287 139.94 87.0393 139.384C89.8056 130.941 92.5719 122.386 95.3382 113.943C95.3382 113.832 95.4489 113.61 95.5595 113.276C98.7684 119.609 101.867 125.83 105.076 132.163C105.297 131.718 105.407 131.385 105.518 131.052C109.834 117.72 114.149 104.5 118.464 91.168C118.686 90.6125 118.907 90.3904 119.46 90.5014C123.333 90.5014 127.206 90.5014 131.189 90.5014C131.853 90.5014 132.075 90.7237 132.296 91.2792C136.279 104.5 140.263 117.609 144.246 130.83C144.357 131.163 144.468 131.607 144.689 132.163C145.242 131.052 145.685 129.941 146.017 128.941C151.439 116.276 156.749 103.722 162.171 91.0569C162.282 90.7237 162.393 90.5014 162.836 90.5014C168.368 90.5014 173.901 90.5014 179.323 90.5014C179.323 90.5014 179.434 90.5014 179.544 90.5014C178.881 92.0568 178.327 93.5011 177.774 95.0564C169.807 114.721 161.951 134.496 153.984 154.159C153.873 154.382 153.652 154.605 153.762 154.938C148.008 154.938 142.255 154.938 136.501 154.938C136.611 154.715 136.501 154.382 136.39 154.159C135.947 152.715 135.505 151.271 135.062 149.827C131.743 139.273 128.534 128.83 125.214 118.276C125.214 118.053 125.214 117.831 124.882 117.72C120.788 130.052 116.805 142.495 112.71 154.826C106.957 155.049 101.313 155.049 95.6702 155.049Z" fill="#4AA6C0"/>
<path d="M43 155.049C43 133.829 43 112.61 43 91.3902C43 90.7236 43.1107 90.5014 43.8852 90.5014C52.8479 90.5014 61.8108 90.5014 70.7735 90.5014C75.7529 90.5014 80.4002 91.6124 84.3837 94.7231C86.0435 95.9451 87.4819 97.5005 88.6991 99.2781C88.9204 99.6113 88.9204 99.8336 88.8098 100.167C85.4902 110.499 82.06 120.942 78.7405 131.274C78.6298 131.718 78.4085 131.829 77.9659 131.941C75.6422 132.496 73.2079 132.829 70.7735 132.829C67.122 132.829 63.5812 132.829 59.9297 132.829C59.4871 132.829 59.3764 132.829 59.3764 133.385C59.3764 140.495 59.3764 147.716 59.3764 154.826V154.938C53.9545 155.049 48.4219 155.049 43 155.049ZM59.3764 111.61C59.3764 114.276 59.3764 116.943 59.3764 119.72C59.3764 120.275 59.4871 120.387 60.0404 120.387C61.3682 120.387 62.8067 120.387 64.1345 120.387C66.0156 120.387 67.8966 120.387 69.7777 119.942C71.4375 119.498 72.9866 118.942 73.9824 117.498C76.0849 114.498 76.3061 111.165 74.9783 107.833C73.8718 104.833 71.3268 103.611 68.3392 103.278C65.573 102.944 62.8067 103.167 60.0404 103.055C59.4871 103.055 59.3764 103.278 59.3764 103.722C59.3764 106.388 59.3764 109.055 59.3764 111.61Z" class="pwa" fill="#F4F2ED"/>
<path d="M189.088 140.545H172.007L195.919 82V115.455H213L189.088 174V140.545Z" fill="#F7D94B"/>
</svg>