<svg width="256" height="256" title="VitePress" viewBox="0 0 256 256" fill="none" xmlns="http://www.w3.org/2000/svg" id="vitepress">
<style>
#vitepress {
    rect {fill: #15191C}

    @media (prefers-color-scheme: light) {
        rect {fill: #F4F2ED}
    }
}
</style>
<rect width="256" height="256" rx="40" fill="#15191C"/>
<path d="M53.1191 79.1553C52.1907 72.8052 56.7929 66.9341 63.3983 66.0416L159.08 53.1145C165.685 52.2221 171.793 56.6463 172.721 62.9963L191.631 192.346C192.559 198.696 187.957 204.567 181.352 205.459L89.6569 217.848C80.8497 219.038 72.7066 213.139 71.4689 204.673L53.1191 79.1553Z" fill="url(#linearGradient1)"/>
<path d="M62.504 66.6621C61.4983 59.4488 66.4838 52.7794 73.6393 51.7657L169.886 38.13C177.041 37.1162 183.657 42.1419 184.663 49.3552L202.871 179.963C203.877 187.176 198.891 193.846 191.736 194.86L95.4898 208.495C88.3344 209.509 81.7184 204.484 80.7128 197.27L62.504 66.6621Z" fill="url(#linearGradient2)"/>
<path d="M70.9043 69.6329C70.1887 64.5082 73.7359 59.7697 78.8271 59.0495L167.325 46.5299C172.415 45.8096 177.122 49.3802 177.839 54.5051L194.94 176.992C195.655 182.118 192.108 186.856 187.017 187.576L98.5199 200.095C93.4287 200.816 88.7214 197.245 88.0058 192.121L70.9043 69.6329Z" fill="white"/>
<path d="M113.607 169.584L110.461 147.822L117.288 146.889L125.272 153.957L130.942 145.022L137.769 144.091L140.916 165.852L134.088 166.785L132.284 154.304L126.614 163.238L118.63 156.169L120.434 168.65L113.607 169.584ZM156.275 163.753L144.509 154.592L151.336 153.659L149.716 142.457L156.543 141.526L158.162 152.726L164.989 151.793L156.275 163.753Z" fill="url(#linearGradient3)"/>
<path d="M152.807 73.3189L132.772 121.608C132.358 122.605 130.95 122.801 130.26 121.958L96.6525 80.9236C95.9001 80.0051 96.6325 78.6699 97.867 78.7094L125.105 79.5835C125.279 79.5892 125.453 79.5654 125.618 79.5133L150.996 71.5251C152.167 71.1565 153.256 72.2357 152.807 73.3189Z" fill="url(#linearGradient4)"/>
<path d="M136.261 67.5309L117.137 73.8153C116.822 73.9185 116.621 74.2085 116.646 74.5204L118.242 93.9005C118.279 94.357 118.772 94.6485 119.227 94.4831L124.525 92.554C125.021 92.3736 125.545 92.7354 125.511 93.2343L124.979 100.946C124.943 101.465 125.509 101.828 126.01 101.608L129.249 100.184C129.751 99.9635 130.317 100.328 130.28 100.847L129.414 112.965C129.36 113.723 130.459 113.984 130.801 113.294L131.029 112.833L142.653 80.587C142.848 80.047 142.302 79.5354 141.73 79.7217L136.247 81.507C135.732 81.6747 135.214 81.2717 135.292 80.7642L137.218 68.2731C137.297 67.7646 136.776 67.3614 136.261 67.5309Z" fill="url(#linearGradient5)"/>
<linearGradient id="linearGradient1" x1="53.4537" y1="38.4223" x2="205.041" y2="216.178" gradientUnits="userSpaceOnUse">
<stop stop-color="#508AB7"/>
<stop offset="1" stop-color="#2D1342"/>
</linearGradient>
<linearGradient id="linearGradient2" x1="54.1858" y1="56.9432" x2="200.29" y2="200.497" gradientUnits="userSpaceOnUse">
<stop stop-color="#49C7FF"/>
<stop offset="1" stop-color="#BD36FF"/>
</linearGradient>
<linearGradient id="linearGradient3" x1="54.2209" y1="80.7673" x2="217.134" y2="99.9296" gradientUnits="userSpaceOnUse">
<stop stop-color="#4BC7FF"/>
<stop offset="1" stop-color="#B93DFF"/>
</linearGradient>
<linearGradient id="linearGradient4" x1="50.6576" y1="59.0003" x2="178.349" y2="163.188" gradientUnits="userSpaceOnUse">
<stop stop-color="#41D1FF"/>
<stop offset="1" stop-color="#BD34FE"/>
</linearGradient>
<linearGradient id="linearGradient5" x1="122.214" y1="70.4354" x2="132.804" y2="108.513" gradientUnits="userSpaceOnUse">
<stop stop-color="#FFEA83"/>
<stop offset="0.0833333" stop-color="#FFDD35"/>
<stop offset="1" stop-color="#FFA800"/>
</linearGradient>
</svg>