<svg viewBox="0 0 256 256" xmlns="http://www.w3.org/2000/svg" xml:space="preserve" style="fill-rule:evenodd;clip-rule:evenodd;stroke-linejoin:round;stroke-miterlimit:2"><path d="M256 40v176c0 22.077-17.923 40-40 40H40c-22.077 0-40-17.923-40-40V40C0 17.923 17.923 0 40 0h176c22.077 0 40 17.923 40 40" style="fill:url(#a)"/><path d="m138.854 58.849 5.572 18.251c-10.631 3.069-24.285 2.756-33.136.013l5.694-18.264S118.538 55 128 55s10.854 3.849 10.854 3.849m-43.915 70.705 8.433-27.045s10.44 5.302 23.006 5.411c10.287.088 20.088-.486 25.865-5.42l8.461 27.061c-6.938 7.425-21.094 8.881-32.836 8.881-11.743 0-27.188-2.379-32.929-8.888m-4.668 14.972-1.988 6.357-.001.002c4.393 15.109 32.657 15.018 38.763 15.109 13.359.199 35.104-1.823 40.257-14.354l-1.974-7.114s.613-.085 7.507-.085c6.893 0 7.286 3.793 7.286 3.793s12.995 40.333 13.78 46.135-5.016 6.631-5.016 6.631-116.584-.261-122.734-.13c-5.96-.649-3.708-8.463-3.708-8.463l12.604-42.521c1.751-5.713 6.259-5.36 6.259-5.36z" style="fill:#fff" transform="translate(-4.9 -4.9)scale(1.03829)"/><defs><linearGradient id="a" x1="0" y1="0" x2="1" y2="0" gradientUnits="userSpaceOnUse" gradientTransform="rotate(90 64 64)scale(256)"><stop offset="0" style="stop-color:#f79804;stop-opacity:1"/><stop offset="1" style="stop-color:#e25b00;stop-opacity:1"/></linearGradient></defs></svg>