<svg width="256" height="256" title="VLC" viewBox="0 0 256 256" fill="none" xmlns="http://www.w3.org/2000/svg">
<rect width="256" height="256" rx="40" fill="url(#linearGradient)"/>
<path fill-rule="evenodd" clip-rule="evenodd" d="M138.77 55.9964L144.555 74.9462C133.517 78.1327 119.34 77.8077 110.151 74.9597L116.063 55.9964C116.063 55.9964 117.676 52 127.5 52C137.325 52 138.77 55.9964 138.77 55.9964ZM93.1735 129.409L101.929 101.328C101.929 101.328 112.769 106.833 125.816 106.946C136.497 107.038 146.673 106.442 152.672 101.319L161.457 129.416C154.253 137.125 139.555 138.637 127.363 138.637C115.171 138.637 99.1343 136.167 93.1735 129.409ZM88.3267 144.954L86.2626 151.554L86.2616 151.556C90.8228 167.244 120.169 167.149 126.509 167.244C140.379 167.451 162.957 165.351 168.307 152.34L166.258 144.954C166.258 144.954 166.894 144.866 174.052 144.866C181.209 144.866 181.617 148.804 181.617 148.804C181.617 148.804 195.11 190.681 195.925 196.705C196.74 202.73 190.717 203.59 190.717 203.59C190.717 203.59 69.6687 203.319 63.2832 203.455C57.095 202.782 59.4332 194.668 59.4332 194.668L72.5198 150.519C74.3378 144.587 79.0185 144.954 79.0185 144.954H88.3267Z" fill="white"/>
<linearGradient id="linearGradient" x1="128" y1="0" x2="128" y2="256" gradientUnits="userSpaceOnUse">
<stop stop-color="#F79804"/>
<stop offset="1" stop-color="#E25B00"/>
</linearGradient>
</svg>