<svg width="256" height="256" title="VSCodium" viewBox="0 0 256 256" fill="none" xmlns="http://www.w3.org/2000/svg" id="vscodium">
<style>
#vscodium {
    rect {fill: #15191C}

    @media (prefers-color-scheme: light) {
        rect {fill: #F4F2ED}
    }
}
</style>
<rect width="256" height="256" rx="40" fill="#15191C"/>
<path d="M125.634 49.6051C120.925 52.6304 119.567 58.8976 122.601 63.5967C139.281 89.4633 143.218 108.974 141.51 126.071C134.607 158.813 119.6 165.456 106.486 165.456C93.6817 165.456 97.1104 144.354 106.735 138.178C112.48 134.586 119.839 132.251 125.487 132.251C131.084 132.251 135.621 127.722 135.621 122.134C135.621 116.544 131.084 112.015 125.487 112.015C118.89 112.015 112.419 113.403 106.378 115.766C107.613 109.935 108.068 103.633 106.472 96.935C104.05 86.7635 97.0774 77.048 84.9697 67.6299C82.8494 65.9776 80.1599 65.2357 77.4919 65.5662C74.8238 65.8967 72.3967 67.2714 70.745 69.3896C67.3097 73.8012 68.105 80.1592 72.5237 83.5911C82.3874 91.2626 85.6445 96.9416 86.7583 101.616C87.872 106.29 86.9761 111.305 84.7387 118.195C81.8792 127.481 78.5594 135.77 77.1041 143.72C76.388 147.632 76.327 151.89 76.1422 155.292C69.0389 148.359 66.2587 139.206 66.2587 125.83C66.257 120.242 61.7195 115.712 56.1244 115.713C50.5325 115.718 46.0016 120.245 46 125.83C46 144.098 51.3345 161.48 65.6317 173.076C78.5743 185.423 111.487 180.86 111.487 200.682C111.487 206.277 119.664 209 125.259 209C130.998 209 138.22 205.158 138.22 200.682C138.22 178.191 161.889 164.522 200.854 164.581C206.451 164.59 210.992 160.064 211 154.476C211.01 148.886 206.482 144.347 200.885 144.338C198.221 144.334 195.624 144.425 193.063 144.577C197.419 134.318 199.351 123.023 198.952 110.822C198.767 105.236 194.084 100.858 188.492 101.039C182.894 101.221 178.508 105.902 178.691 111.492C179.219 127.466 178.622 141.73 166.737 149.25C163.358 151.386 159.429 153.24 155.704 153.24C158.596 145.362 160.781 137.046 161.675 128.082C162.246 122.362 162.307 115.566 161.655 110.287C160.644 102.108 159.423 92.8323 162.523 85.8448C165.308 79.8271 171.548 77.3074 180.711 77.3074C186.303 77.3024 190.834 72.7735 190.835 67.1904C190.839 61.6007 186.306 57.0668 180.711 57.0619C167.095 57.0619 156.774 64.2378 150.923 72.9073C147.864 66.3643 144.139 59.6213 139.637 52.642C138.184 50.3866 135.894 48.8021 133.268 48.232C131.968 47.9495 130.625 47.9247 129.315 48.1593C128.005 48.3956 126.754 48.8863 125.634 49.6051Z" fill="url(#linearGradient)"/>
<linearGradient id="linearGradient" x1="46" y1="47.999" x2="205.716" y2="201.888" gradientUnits="userSpaceOnUse">
<stop stop-color="#62A0EA"/>
<stop offset="1" stop-color="#1A5FB4"/>
</linearGradient>
</svg>