<svg width="256" height="256" title="Vulkan" viewBox="0 0 256 256" fill="none" xmlns="http://www.w3.org/2000/svg" id="vulkan">
<style>
#vulkan {
    rect {fill: #15191C}

    @media (prefers-color-scheme: light) {
        rect {fill: #F4F2ED}
    }
}
</style>
<rect width="256" height="256" rx="40" fill="#15191C"/>
<path d="M110.141 91.7421H112.666L117.37 91.8566L121.96 92.0857L128.041 92.6582L136.188 93.6888L140.318 94.3759L148.006 95.8645L154.432 97.5822L160.857 99.6434L164.185 100.903L169.578 103.079L172.561 104.453L174.741 105.483L176.577 106.399L181.052 108.69L183.003 109.835L184.609 110.751L186.33 111.781L188.166 112.927L190.576 114.415L191.723 115.217L193.1 116.133L194.707 117.278L196.887 118.881L198.837 120.37L200.673 121.858L201.935 122.889L203.083 123.92L204.345 124.95L208.246 128.844L209.279 130.103L210.426 131.592L211 132.737L210.885 133.309L210.771 133.424L209.738 133.309L207.328 132.279L204.001 130.79L200.214 129.073L197.346 127.813L195.28 126.897L189.773 124.607L188.051 123.92L184.035 122.431L181.511 121.515L177.151 120.141L173.594 119.11L168.316 117.736L161.087 116.133L149.957 114.072L142.499 112.927L137.565 112.354L132.401 112.01H120.468L115.419 112.354L111.862 112.812L106.24 113.843L102.568 114.759L98.2079 116.133L94.6509 117.622L92.7003 118.538L90.0612 120.026L87.6516 121.629L85.5862 123.233L83.8651 124.836L83.0619 125.637L82.0292 126.897L80.8818 128.385L79.6196 130.447L78.7017 132.279L77.7837 134.684L77.3248 136.63L77.21 137.546V141.783L77.669 144.531L78.2427 146.364L78.9312 148.196L80.3081 151.059L81.685 153.349L82.9471 155.066L84.0946 156.555L85.0125 157.7L86.2747 159.074L87.0779 159.99L89.717 162.624L90.6349 163.426L91.8971 164.571L93.1592 165.601L94.3067 166.632L95.5688 167.663L96.0278 168.235L96.831 168.922L97.6342 169.838L97.5195 170.411L96.372 170.296L92.815 168.922L89.3727 167.434L87.5369 166.632L85.701 165.716L82.8324 164.342L80.6523 163.197L77.8985 161.708L75.1446 160.105L72.8498 158.731L70.8992 157.471L69.5223 156.555L67.6864 155.295L65.5063 153.692L63.2114 151.975L61.4903 150.486L60.1134 149.226L58.8512 148.196L55.9826 145.333L55.1794 144.417L54.1467 143.272L53.114 142.012L51.7371 140.18L50.5897 138.462L49.4423 136.516L48.2949 134.34L47.3769 131.935L46.6885 129.76L46.2295 127.698L46 125.752V123.462L46.3442 120.942L47.0327 118.652L47.7211 116.82L48.8686 114.415L50.016 112.583L51.2782 110.98L52.5403 109.491L53.114 108.804L54.032 108.003L55.0647 106.972L56.3268 105.941L58.1627 104.567L60.9166 102.735L63.7851 101.132L67.1127 99.5288L70.2107 98.2692L73.0793 97.2386L77.7837 95.75L84.6683 94.1469L87.7663 93.5743L93.5035 92.7727L98.6669 92.2002L104.06 91.8566L110.141 91.7421Z" fill="#A8182D"/>
<path d="M121.386 120.942L121.845 121.171L122.763 123.92L124.025 127.927L124.943 130.79L125.976 134.111L128.615 142.356L129.533 145.333L131.024 150.028L132.287 154.036L132.516 154.837L132.745 154.952L133.09 153.692L133.778 151.631L134.926 147.967L135.844 145.219L136.647 142.585L137.565 139.837L139.401 134.111L140.433 130.905L142.154 125.523L143.187 122.431L143.302 122.316L144.679 122.431L149.957 123.233L157.3 124.607L161.202 125.408L168.66 127.126L170.611 127.698L170.725 127.927L169.922 129.989L168.43 134.569L166.939 138.92L164.185 147.165L162.12 153.463L157.53 167.205L155.924 172.128L154.547 176.136L153.17 180.259L151.678 184.839L148.924 193.084L148.58 193.885L146.056 194H130.451L116.108 193.885L115.649 192.74L113.813 187.129L111.977 181.404L110.6 177.281L109.338 173.274L106.814 165.601L105.551 161.594L104.519 158.502L102.683 152.776L101.076 147.852L100.044 144.531L99.0111 141.44L97.4047 136.516L95.2246 129.76L94.6509 127.927L96.6015 126.668L100.159 125.065L104.175 123.691L107.158 122.889L112.551 121.858L115.764 121.4L121.386 120.942Z" fill="#A8182D"/>
<path d="M162.234 63H192.067L191.953 63.8016L190.461 68.382L189.428 71.2448L187.937 75.8252L186.56 79.9476L185.412 83.4974L181.052 96.5516L180.478 98.0402L179.79 97.8112L176.348 96.208L173.594 94.9484L171.529 94.0323L169.693 93.3453L166.939 92.2002L163.611 91.0551L159.481 89.6809L154.317 88.0778L154.202 87.7343L154.891 85.9021L156.153 82.0087L158.218 75.4816L159.481 71.5883L161.087 66.6643L162.12 63.229L162.234 63Z" fill="#A8182D"/>
<path d="M73.653 63H103.257L103.716 63.9161L104.748 67.2369L106.584 72.9624L107.617 76.2832L108.535 79.146L109.453 82.1233V82.5813L108.994 82.6958L101.535 82.9248L95.6836 83.3829L89.258 84.1844L84.783 84.8715L81.4555 85.5586H80.8818L80.0786 82.9248L78.7017 78.8024L73.8825 63.9161L73.653 63Z" fill="#A8182D"/>
</svg>