<svg width="256" height="256" title="Windi CSS" viewBox="0 0 256 256" fill="none" xmlns="http://www.w3.org/2000/svg" id="windicss">
<style>
#windicss {
    rect {fill: #15191C}

    @media (prefers-color-scheme: light) {
        rect {fill: #F4F2ED}
    }
}
</style>
<rect width="256" height="256" rx="40" fill="#15191C"/>
<path d="M131.163 78.7542C131.163 64.001 119.162 52 104.409 52C88.8613 52 79.5662 63.6571 79.5662 74.932H94.8542C94.8542 71.7598 97.8201 67.288 104.409 67.288C110.731 67.288 115.875 72.4325 115.875 78.7542C115.875 85.0758 111.261 90.2201 99.6246 90.2201H58V105.508H99.6246C119.264 105.508 131.163 93.5071 131.163 78.7542ZM131.163 78.7542C131.163 64.001 119.162 52 104.409 52C88.8613 52 79.5662 63.6571 79.5662 74.932H94.8542C94.8542 71.7598 97.8201 67.288 104.409 67.288C110.731 67.288 115.875 72.4325 115.875 78.7542C115.875 85.0758 111.261 90.2201 99.6246 90.2201H58V105.508H99.6246C119.264 105.508 131.163 93.5071 131.163 78.7542Z" fill="url(#linearGradient1)"/>
<path d="M165.08 177.42C165.08 192.173 153.079 204.174 138.326 204.174C122.778 204.174 113.482 192.517 113.482 181.242H128.771C128.771 184.414 131.736 188.887 138.326 188.887C144.647 188.887 149.792 183.742 149.792 177.42C149.792 171.098 143.978 165.954 133.541 165.954H87.3512V150.666H133.541C153.18 150.666 165.08 162.667 165.08 177.42ZM165.08 177.42C165.08 192.173 153.079 204.174 138.326 204.174C122.778 204.174 113.482 192.517 113.482 181.242H128.771C128.771 184.414 131.736 188.887 138.326 188.887C144.647 188.887 149.792 183.742 149.792 177.42C149.792 171.098 143.978 165.954 133.541 165.954H87.3512V150.666H133.541C153.18 150.666 165.08 162.667 165.08 177.42Z" fill="url(#linearGradient2)"/>
<path d="M169.087 75.587C152.224 75.587 140.329 88.4105 140.329 105.273H153.87C153.87 96.8913 159.957 90.8043 169.087 90.8043C178.217 90.8043 182.783 96.8913 182.783 105.273C182.783 113.655 176.853 120.561 160.717 120.561H58V135.849H163C186.896 135.849 198 120.491 198 105.273C198 88.4105 186.587 75.587 169.087 75.587Z" fill="url(#linearGradient3)"/>
<path d="M78.0415 150.666H58V166.082H78.0415V150.666Z" fill="url(#linearGradient4)"/>
<linearGradient id="linearGradient1" x1="81.2951" y1="88.7857" x2="358.35" y2="382.871" gradientUnits="userSpaceOnUse">
<stop offset="0.078225" stop-color="#54C8F1"/>
<stop offset="0.572917" stop-color="#41A2EF"/>
<stop offset="1" stop-color="#3386EE"/>
</linearGradient>
<linearGradient id="linearGradient2" x1="27.0614" y1="-191.814" x2="304.61" y2="85.4919" gradientUnits="userSpaceOnUse">
<stop offset="0.078225" stop-color="#54C8F1"/>
<stop offset="0.572917" stop-color="#41A2EF"/>
<stop offset="1" stop-color="#3386EE"/>
</linearGradient>
<linearGradient id="linearGradient3" x1="70.1739" y1="25.1013" x2="291.653" y2="163.468" gradientUnits="userSpaceOnUse">
<stop offset="0.078225" stop-color="#54C8F1"/>
<stop offset="0.572917" stop-color="#41A2EF"/>
<stop offset="1" stop-color="#3386EE"/>
</linearGradient>
<linearGradient id="linearGradient4" x1="70.1739" y1="64.9348" x2="158.435" y2="204.174" gradientUnits="userSpaceOnUse">
<stop offset="0.078225" stop-color="#54C8F1"/>
<stop offset="0.572917" stop-color="#41A2EF"/>
<stop offset="1" stop-color="#3386EE"/>
</linearGradient>
</svg>
