<svg viewBox="0 0 256 256" xmlns="http://www.w3.org/2000/svg" xml:space="preserve" style="fill-rule:evenodd;clip-rule:evenodd;stroke-linejoin:round;stroke-miterlimit:2"><path d="M256 40v176c0 22.077-17.923 40-40 40H40c-22.077 0-40-17.923-40-40V40C0 17.923 17.923 0 40 0h176c22.077 0 40 17.923 40 40" style="fill:#15191c"/><clipPath id="a"><path d="M256 40v176c0 22.077-17.923 40-40 40H40c-22.077 0-40-17.923-40-40V40C0 17.923 17.923 0 40 0h176c22.077 0 40 17.923 40 40"/></clipPath><g clip-path="url(#a)"><path d="M244.688 88.601H117.646V49.969s-13.846-.059 36.784-.079c.78 0 1.77.37 2.29-.26.42-.51.4-1.4.53-2.12 1.36-7.5 3.74-14.66 7.35-21.39 3.15-5.88 7.15-11.08 12.35-15.31 6.01-4.9 12.87-7.88 20.5-9.13 2.38-.39 4.77-.67 7.19-.67.4 0 .81-.03 1.2.05 1.24.24 1.99 1.6 1.53 2.78-.2.53-.53 1.02-.82 1.51-2.54 4.31-4.11 8.95-4.81 13.89-1.27 8.87-.07 17.5 2.55 25.98.41 1.31.91 2.6 1.35 3.9.21.64.62.89 1.28.84.13 0 .26-.01.4-.02.61-.01 1.09 0 1.15.01.49.02-84.272-.018 36.218-.048z" style="fill:#338aff;fill-rule:nonzero" transform="translate(-237.068 77.46)scale(2.01509)"/></g></svg>