<svg width="256" height="256" title="Wolfram Mathematica" viewBox="0 0 256 256" fill="none" xmlns="http://www.w3.org/2000/svg" id="wolframmathematica">
<style>
#wolframmathematica {
    rect {fill: #15191C}

    @media (prefers-color-scheme: light) {
        rect {fill: #F4F2ED}
    }
}
</style>
<rect width="256" height="256" rx="40" fill="#15191C"/>
<path fill-rule="evenodd" clip-rule="evenodd" d="M215.996 99.5599L178.786 91.4565L182.569 53.5636L147.703 68.8784L128.489 36L109.284 68.8812L74.4155 53.5757L78.2062 91.4676L41 99.5804L66.3388 128.007L41.0046 156.44L78.2127 164.544L74.4304 202.436L109.297 187.123L128.51 220L147.716 187.119L182.584 202.424L178.794 164.533L216 156.421L190.662 127.993L215.996 99.5599Z" fill="#DD1100"/>
<path fill-rule="evenodd" clip-rule="evenodd" d="M149.495 99.5395C149.495 99.5395 141.155 104.874 128.114 104.901C115.075 104.928 108.02 99.5395 108.02 99.5395C108.02 99.5395 110.161 108.706 106.67 120.481C104.572 127.54 100.505 133.855 94.9451 138.685C94.9451 138.685 106.554 140.037 114.572 146.081C122.59 152.125 128.456 163.104 128.456 163.104C128.456 163.104 133.49 152.547 141.814 146.304C150.137 140.061 162.118 138.759 162.118 138.759C162.118 138.759 153.44 128.992 150.02 120.326C146.6 111.659 149.495 99.5395 149.495 99.5395ZM137.577 140.428C131.992 144.108 128.493 150.658 128.493 150.658C125.993 146.741 122.811 143.303 119.099 140.507C115.441 137.909 111.282 136.099 106.887 135.195C106.887 135.195 111.803 129.221 113.865 122.665C115.114 118.435 115.574 114.012 115.222 109.616C115.222 109.616 121.954 112.377 128.239 112.435C134.523 112.494 141.779 109.58 141.779 109.58C141.779 109.58 140.066 117.046 142.207 123.056C144.347 129.067 150.027 135.116 150.027 135.116C145.631 136.244 141.433 138.035 137.577 140.428ZM164.075 115.372C161.836 108.064 168.161 73.5053 168.161 73.5053C168.161 73.5053 144.466 89.6211 127.815 89.6211C111.164 89.6211 88.8478 73.4895 88.8478 73.4895C88.8478 73.4895 96.2238 98.5972 91.7213 114.695C87.2197 130.794 64.3519 148.925 64.3519 148.925C64.3519 148.925 94.236 150.646 105.584 158.31C116.931 165.973 128.471 195.498 128.471 195.498C128.471 195.498 143.802 162.967 150.213 158.31C156.624 153.652 192.648 148.884 192.648 148.884C192.648 148.884 166.314 122.68 164.075 115.372ZM146.252 152.657C134.443 160.844 128.479 178.798 128.479 178.798C128.479 178.798 119.628 159.084 109.929 152.36C100.229 145.636 80.3892 143.867 80.3892 143.867C80.3892 143.867 95.6969 130.346 99.3937 118.226C103.091 106.108 98.7609 87.2914 98.7609 87.2914C98.7609 87.2914 115.232 97.4356 127.986 97.4532C140.74 97.4699 158.245 87.3026 158.245 87.3026C158.245 87.3026 153.102 106.301 157.195 118.019C161.286 129.737 176.611 143.837 176.611 143.837C176.611 143.837 158.062 144.47 146.252 152.657Z" fill="white"/>
</svg>