<svg width="256" height="256" title="WordPress" viewBox="0 0 256 256" fill="none" xmlns="http://www.w3.org/2000/svg">
<rect width="256" height="256" rx="40" fill="#21759B"/>
<path d="M193.599 92.9219C199.374 103.489 202.661 115.609 202.661 128.5C202.661 155.856 187.838 179.76 165.79 192.609L188.443 127.111C192.671 116.524 194.081 108.061 194.081 100.546C194.081 97.7619 193.902 95.1906 193.599 92.9219ZM138.73 93.6369C143.178 93.4306 147.2 92.915 147.2 92.915C151.201 92.3994 150.734 86.5213 146.739 86.7344C146.739 86.7344 134.674 87.6625 126.939 87.6625C119.624 87.6625 107.346 86.6312 107.346 86.6312C103.324 86.425 102.801 92.5094 106.83 92.7156C106.83 92.7156 110.542 93.135 114.564 93.3344L126.114 124.994L109.821 173.669L82.8088 93.4375C87.2706 93.2313 91.2925 92.75 91.2925 92.75C95.3144 92.2344 94.84 86.3562 90.8456 86.59C90.8456 86.59 78.8419 87.5387 71.0869 87.5387C69.7119 87.5387 68.0756 87.4837 66.3431 87.4356C79.7631 67.6562 102.616 54.3531 128.5 54.3531C147.812 54.3531 165.384 61.7231 178.591 73.83C178.275 73.8094 177.966 73.7681 177.622 73.7681C170.334 73.7681 165.164 80.1138 165.164 86.9269C165.164 93.0456 168.691 98.2225 172.452 104.328C175.277 109.278 178.571 115.623 178.571 124.794C178.571 131.085 176.137 138.503 172.926 148.712L165.536 173.359L138.723 93.5406L138.73 93.6369ZM128.5 202.64C121.219 202.64 114.193 201.588 107.545 199.636L129.799 134.969L152.59 197.442C152.755 197.807 152.934 198.137 153.126 198.467C145.426 201.169 137.142 202.654 128.5 202.654M54.3256 128.5C54.3256 117.747 56.6356 107.531 60.7537 98.3188L96.1187 195.249C71.3963 183.225 54.3325 157.863 54.3256 128.5ZM128.5 46C83.0219 46 46 83.0219 46 128.5C46 173.978 83.0219 211 128.5 211C173.978 211 211 173.978 211 128.5C211 83.0219 173.978 46 128.5 46Z" fill="white"/>
</svg>