<svg width="256" height="256" title="Xamarin" viewBox="0 0 256 256" fill="none" xmlns="http://www.w3.org/2000/svg" id="xamarin">
<style>
#xamarin {
    rect {fill: #15191C}

    @media (prefers-color-scheme: light) {
        rect {fill: #F4F2ED}
    }
}
</style>
<rect width="256" height="256" rx="40" fill="#15191C"/>
<path fill-rule="evenodd" clip-rule="evenodd" d="M96.2809 61C92.2297 61.0086 88.2641 63.3175 86.2248 66.8396L54.5057 122.16C52.4981 125.692 52.4981 130.308 54.5057 133.84L86.2248 189.16C88.2643 192.683 92.2297 194.992 96.2809 195H159.719C163.77 194.991 167.735 192.683 169.775 189.16L201.494 133.84C203.502 130.308 203.502 125.692 201.494 122.16L169.775 66.8396C167.735 63.3175 163.77 61.008 159.719 61H96.2809ZM96.8566 93.3632C96.9437 93.3547 97.0352 93.3547 97.1225 93.3632H108.065C108.549 93.3733 109.019 93.6545 109.261 94.0765L127.823 127.287C127.916 127.451 127.976 127.634 127.999 127.822C128.022 127.634 128.082 127.451 128.176 127.287L146.693 94.0765C146.943 93.6415 147.434 93.359 147.933 93.3632H158.875C159.844 93.3719 160.57 94.5973 160.116 95.4585L141.997 128L160.116 160.497C160.613 161.363 159.869 162.645 158.875 162.637H147.933C147.426 162.632 146.931 162.33 146.693 161.879L128.176 128.669C128.082 128.504 128.022 128.321 127.999 128.134C127.976 128.322 127.916 128.505 127.823 128.669L109.261 161.879C109.03 162.318 108.558 162.617 108.065 162.637H97.1225C96.1285 162.645 95.3852 161.363 95.8823 160.497L114.001 128L95.8823 95.4585C95.4479 94.6727 95.9779 93.531 96.8566 93.3632Z" fill="#3498DB"/>
</svg>