<svg width="256" height="256" title="Xcode" viewBox="0 0 256 256" fill="none" xmlns="http://www.w3.org/2000/svg" id="xcode">
<style>
#xcode {
    rect {fill: #15191C}

    @media (prefers-color-scheme: light) {
        rect {fill: #F4F2ED}
    }
}
</style>
<rect width="256" height="256" rx="40" fill="#15191C"/>
<path d="M82.075 51.9143H169.985C188.812 51.9143 204.06 67.1624 204.06 85.9893V173.9C204.06 192.726 188.812 207.975 169.985 207.975H82.075C63.2482 207.975 48 192.726 48 173.9V85.9893C48 67.1624 63.2482 51.9143 82.075 51.9143Z" fill="url(#paint0_linear_1_7)"/>
<path d="M167.34 60.3163H84.7201C69.0052 60.3163 56.2465 73.075 56.2465 88.7899V171.41C56.2465 187.125 69.0052 199.884 84.7201 199.884H167.34C183.055 199.884 195.814 187.125 195.814 171.41V88.6343C195.814 72.9194 183.055 60.3163 167.34 60.3163ZM193.48 171.721C193.48 186.036 181.966 197.55 167.651 197.55H84.4089C70.2499 197.55 58.5804 186.036 58.5804 171.721V88.3232C58.5804 74.0085 70.0943 62.4946 84.4089 62.4946H167.807C181.966 62.4946 193.636 74.0085 193.636 88.3232V171.721H193.48Z" fill="white"/>
<path d="M126.264 65.9177C91.0994 65.9177 62.4702 94.5469 62.4702 129.711C62.4702 164.875 91.0994 193.504 126.264 193.504C161.583 193.504 190.057 164.875 190.057 129.711C190.057 94.5469 161.428 65.9177 126.264 65.9177ZM126.264 192.571C91.5662 192.571 63.4038 164.408 63.4038 129.711C63.4038 95.0137 91.5662 66.8513 126.264 66.8513C160.961 66.8513 189.123 95.0137 189.123 129.711C189.123 164.408 160.961 192.571 126.264 192.571Z" fill="#69C5F3"/>
<path d="M126.264 78.9875C98.1011 78.9875 75.3845 101.704 75.3845 129.867C75.3845 158.029 98.1011 180.59 126.264 180.59C154.426 180.59 177.143 157.873 177.143 129.711C177.143 101.549 154.27 78.9875 126.264 78.9875ZM126.264 179.501C98.7235 179.501 76.4736 157.251 76.4736 129.711C76.4736 102.171 98.7235 79.9211 126.264 79.9211C153.804 79.9211 176.054 102.171 176.054 129.711C176.054 157.251 153.648 179.501 126.264 179.501Z" fill="#68C5F4"/>
<path d="M77.5628 141.381H174.653C178.699 141.381 181.81 144.648 181.81 148.538C181.81 152.583 178.543 155.695 174.653 155.695H77.5628C73.5174 155.695 70.4055 152.428 70.4055 148.538C70.2499 144.648 73.5174 141.381 77.5628 141.381Z" fill="white"/>
<path d="M77.2516 142.781H174.653C177.765 142.781 180.41 145.27 180.41 148.538V148.693C180.41 151.805 177.921 154.45 174.653 154.45H77.2516C74.1397 154.45 71.4947 151.961 71.4947 148.693V148.382C71.6503 145.27 74.1397 142.781 77.2516 142.781Z" fill="#0A93E9"/>
<path d="M74.9177 153.828H177.143L177.921 153.361H74.1398L74.9177 153.828Z" fill="#1694EA"/>
<path d="M72.5838 151.961H179.321L179.632 151.494H72.2726L72.5838 151.961Z" fill="#319DEC"/>
<path d="M71.6502 149.005H180.41V148.382H71.6502V149.005Z" fill="#65B1EE"/>
<path d="M72.7394 145.115H179.477L179.632 145.426L179.788 145.737H72.4282L72.5838 145.426L72.7394 145.115Z" fill="#8EC6F3"/>
<path d="M75.0733 143.248H177.143L177.609 143.403L178.076 143.714H74.1398L74.6065 143.403L75.0733 143.248Z" fill="#95CAF3"/>
<path d="M171.852 142.781H171.075C171.075 142.781 173.72 144.648 173.72 148.849C173.72 152.739 171.075 154.45 171.075 154.45H171.852C171.852 154.45 174.498 153.206 174.498 148.849C174.498 144.181 171.852 142.781 171.852 142.781Z" fill="url(#paint1_linear_1_7)"/>
<path d="M164.384 142.781H163.606C163.606 142.781 165.94 144.959 165.94 148.849C165.94 152.272 163.606 154.45 163.606 154.45H164.384C164.384 154.45 166.718 152.739 166.718 148.849C166.562 144.648 164.384 142.781 164.384 142.781Z" fill="url(#paint2_linear_1_7)"/>
<path d="M125.641 142.781H126.419V154.45H125.641V142.781Z" fill="url(#paint3_linear_1_7)"/>
<path d="M118.017 142.781H118.795C118.795 142.781 118.484 145.737 118.484 148.849C118.484 151.65 118.795 154.45 118.795 154.45H118.017C118.017 154.45 117.706 151.65 117.706 148.849C117.706 145.737 118.017 142.781 118.017 142.781Z" fill="url(#paint4_linear_1_7)"/>
<path d="M110.549 142.781H111.327C111.327 142.781 110.549 145.737 110.549 148.849C110.549 151.65 111.327 154.45 111.327 154.45H110.549C110.549 154.45 109.771 151.65 109.771 148.849C109.771 145.737 110.549 142.781 110.549 142.781Z" fill="url(#paint5_linear_1_7)"/>
<path d="M102.925 142.781H103.703C103.703 142.781 102.613 145.737 102.613 148.849C102.613 151.65 103.703 154.45 103.703 154.45H102.925C102.925 154.45 101.835 151.65 101.835 148.849C101.835 145.737 102.925 142.781 102.925 142.781Z" fill="url(#paint6_linear_1_7)"/>
<path d="M95.3005 142.781H96.0785C96.0785 142.781 94.5225 145.27 94.5225 148.849C94.5225 151.961 96.0785 154.45 96.0785 154.45H95.3005C95.3005 154.45 93.7446 151.961 93.7446 148.849C93.7446 145.27 95.3005 142.781 95.3005 142.781Z" fill="url(#paint7_linear_1_7)"/>
<path d="M87.6764 142.781H88.4543C88.4543 142.781 86.1204 144.959 86.1204 148.849C86.1204 152.272 88.4543 154.45 88.4543 154.45H87.6764C87.6764 154.45 85.3425 152.739 85.3425 148.849C85.498 144.648 87.6764 142.781 87.6764 142.781Z" fill="url(#paint8_linear_1_7)"/>
<path d="M80.2079 142.781H80.9858C80.9858 142.781 78.3407 144.648 78.3407 148.849C78.3407 152.739 80.9858 154.45 80.9858 154.45H80.2079C80.2079 154.45 77.5628 153.206 77.5628 148.849C77.5628 144.181 80.2079 142.781 80.2079 142.781Z" fill="url(#paint9_linear_1_7)"/>
<path d="M122.996 83.4998L171.541 167.52C173.564 170.943 172.319 175.3 168.896 177.323C165.473 179.345 161.117 178.101 159.094 174.678L110.549 90.6571C108.526 87.234 109.771 82.8774 113.194 80.8547C116.617 78.832 120.973 80.0767 122.996 83.4998Z" fill="white"/>
<path d="M121.751 84.1221L170.452 168.454C172.008 171.099 171.075 174.678 168.429 176.234L168.118 176.389C165.473 177.945 161.895 177.012 160.339 174.366L111.638 89.8791C110.082 87.234 111.015 83.6554 113.661 82.0994L113.816 81.9438C116.617 80.3879 120.195 81.3214 121.751 84.1221Z" fill="url(#paint10_linear_1_7)"/>
<path d="M110.86 87.5452L161.895 176.078L162.206 176.234L162.517 176.389L162.828 176.545L110.86 86.6117V87.5452Z" fill="url(#paint11_linear_1_7)"/>
<path d="M111.327 84.5889L164.695 177.011H165.318L111.638 84.1221L111.482 84.4333L111.327 84.5889Z" fill="url(#paint12_linear_1_7)"/>
<path d="M113.505 82.255L167.963 176.389L168.429 176.078L113.972 81.9438L113.505 82.255Z" fill="url(#paint13_linear_1_7)"/>
<path d="M117.395 81.3215L170.608 173.588L170.452 173.9L170.297 174.211L116.617 81.1659H116.928L117.395 81.3215Z" fill="url(#paint14_linear_1_7)"/>
<path d="M120.195 82.255L171.23 170.632V171.566L119.262 81.7882L119.573 81.9438L119.884 82.0994L120.195 82.255Z" fill="url(#paint15_linear_1_7)"/>
<path d="M168.896 165.653L168.585 165.031C168.585 165.031 168.274 168.143 164.851 170.321C161.583 172.344 158.627 170.943 158.627 170.943L158.938 171.566C158.938 171.566 161.428 173.277 165.162 170.943C168.896 168.765 168.896 165.653 168.896 165.653ZM165.006 159.118L164.695 158.496C164.695 158.496 163.917 161.608 160.65 163.475C157.693 165.342 154.737 164.408 154.737 164.408L155.048 165.031C155.048 165.031 157.693 166.12 161.117 164.097C164.54 162.075 165.006 159.118 165.006 159.118Z" fill="#3C98EA"/>
<path d="M161.272 152.583L160.961 151.961C160.961 151.961 159.561 154.606 156.604 156.318C153.959 157.873 151.003 157.873 151.003 157.873L151.314 158.496C151.314 158.496 154.115 158.496 156.916 156.94C159.872 155.228 161.272 152.583 161.272 152.583Z" fill="#4CA4ED"/>
<path d="M157.538 146.048L157.227 145.426C157.227 145.426 155.204 148.071 152.559 149.471C150.069 150.872 147.113 151.339 147.113 151.339L147.424 151.961C147.424 151.961 150.381 151.494 152.87 150.094C155.36 148.693 157.538 146.048 157.538 146.048Z" fill="#4DA7EE"/>
<path d="M142.134 119.597L142.445 120.22C142.445 120.22 139.8 121.465 137.155 122.865C134.666 124.265 132.487 126.132 132.487 126.132L132.176 125.51C132.176 125.51 134.51 123.643 136.844 122.243C139.489 120.842 142.134 119.597 142.134 119.597Z" fill="url(#paint16_linear_1_7)"/>
<path d="M138.4 113.063L138.711 113.685C138.711 113.685 135.755 114.618 133.265 116.174C130.776 117.575 128.753 119.753 128.753 119.753L128.442 119.131C128.442 119.131 130.465 116.952 132.954 115.552C135.444 113.841 138.4 113.063 138.4 113.063Z" fill="url(#paint17_linear_1_7)"/>
<path d="M131.398 107.928C133.421 107.306 134.977 106.994 134.977 106.994L134.666 106.372C134.666 106.372 133.265 106.528 131.709 107.15C130.776 107.461 130.62 108.239 131.398 107.928Z" fill="#9DD4F7"/>
<path d="M127.042 93.4578L127.353 94.0801C127.353 94.0801 124.396 93.3022 120.973 95.1693C118.017 97.0364 117.395 99.9927 117.395 99.9927L117.084 99.3703C117.084 99.3703 117.395 96.7252 120.662 94.7025C124.085 92.5242 127.042 93.4578 127.042 93.4578Z" fill="url(#paint18_linear_1_7)"/>
<path d="M123.307 86.7672L123.774 87.3896C123.774 87.3896 120.662 86.1449 117.084 88.1676C113.661 90.3459 113.661 93.3022 113.661 93.3022L113.194 92.6798C113.194 92.6798 112.883 90.0347 116.617 87.7008C120.507 85.3669 123.307 86.7672 123.307 86.7672Z" fill="url(#paint19_linear_1_7)"/>
<path d="M112.883 141.381C126.419 118.042 141.979 90.9683 141.979 90.9683C144.001 87.5452 142.757 83.1886 139.333 81.1659C135.91 79.1431 131.554 80.3879 129.531 83.811C129.531 83.811 110.549 116.797 96.234 141.381H112.883ZM104.48 155.695C97.9456 166.898 93.4333 174.989 93.4333 174.989C91.4106 178.412 87.054 179.657 83.6309 177.634C80.2079 175.611 78.9631 171.255 80.9859 167.831C80.9859 167.831 83.6309 163.008 87.832 155.851C93.1222 155.695 102.769 155.695 104.48 155.695Z" fill="white"/>
<path d="M111.171 141.381C124.863 117.73 140.734 90.1903 140.734 90.1903C142.29 87.5452 141.356 83.9666 138.711 82.4106L138.555 82.255C135.91 80.6991 132.332 81.6327 130.776 84.2777C130.776 84.2777 112.105 116.641 97.79 141.381H111.171ZM102.925 155.695C96.7008 166.587 92.1886 174.366 92.1886 174.366C90.6327 177.012 87.2096 177.945 84.4089 176.389H84.0977C81.4526 174.833 80.5191 171.41 82.075 168.609C82.075 168.609 85.0313 163.475 89.5435 155.695H102.925Z" fill="url(#paint20_linear_1_7)"/>
<path d="M110.704 141.381L141.667 87.8564V86.9228C141.667 86.9228 124.552 116.641 110.237 141.381H110.704ZM102.302 155.695L90.4771 176.234L90.0103 176.545L89.5435 176.7C89.5435 176.7 94.8337 167.52 101.68 155.695H102.302Z" fill="url(#paint21_linear_1_7)"/>
<path d="M108.37 141.381L141.045 84.9001L140.889 84.5889L140.734 84.2777C140.734 84.2777 122.841 115.241 107.904 141.225L108.37 141.381ZM100.124 155.695L87.6764 177.167H87.054C87.054 177.167 92.3442 167.987 99.5015 155.54C99.8127 155.695 100.124 155.695 100.124 155.695Z" fill="url(#paint22_linear_1_7)"/>
<path d="M104.947 141.381C120.351 114.774 138.867 82.5662 138.867 82.5662L138.4 82.255L104.169 141.381H104.947ZM96.5452 155.851C89.6991 167.831 84.5645 176.7 84.5645 176.7L84.0977 176.389C84.0977 176.389 89.0767 167.676 95.9228 155.851C96.234 155.695 96.0784 155.695 96.5452 155.851Z" fill="url(#paint23_linear_1_7)"/>
<path d="M101.213 141.381C116.617 114.774 135.755 81.4771 135.755 81.4771H135.132C135.132 81.4771 115.994 114.618 100.591 141.381H101.213ZM92.1886 155.695C85.9649 166.431 81.7638 173.744 81.7638 173.744L81.9194 174.055L82.075 174.366C82.075 174.366 86.5872 166.587 92.9666 155.695H92.1886Z" fill="url(#paint24_linear_1_7)"/>
<path d="M98.8791 141.381L133.11 82.0994L132.799 82.255L132.487 82.4106L132.332 82.5662C132.332 82.5662 113.349 115.396 98.4124 141.381H98.8791ZM90.6327 155.695C85.1869 165.186 81.2971 171.877 81.2971 171.877V170.632C81.2971 170.632 84.7201 164.72 90.0103 155.54C90.3215 155.695 90.3215 155.695 90.6327 155.695Z" fill="url(#paint25_linear_1_7)"/>
<path d="M129.22 86.7672L128.909 87.3896C128.909 87.3896 131.709 85.9893 135.444 88.012C138.867 89.8791 139.022 93.1466 139.022 93.1466L139.333 92.5242C139.333 92.5242 139.645 89.5679 135.755 87.3896C131.865 85.2113 129.22 86.7672 129.22 86.7672Z" fill="url(#paint26_linear_1_7)"/>
<path d="M125.486 93.4578L125.174 94.0801C125.174 94.0801 128.286 93.1466 131.554 95.0137C134.666 96.7252 135.288 99.6815 135.288 99.6815L135.599 99.0591C135.599 99.0591 135.288 96.2584 131.865 94.3913C128.286 92.3686 125.486 93.4578 125.486 93.4578Z" fill="url(#paint27_linear_1_7)"/>
<path d="M121.596 99.9927L121.285 100.615C121.285 100.615 124.085 100.459 127.197 102.327C129.998 103.883 131.398 106.372 131.398 106.372L131.709 105.75C131.709 105.75 130.309 103.26 127.508 101.704C124.552 99.9927 121.596 99.9927 121.596 99.9927Z" fill="url(#paint28_linear_1_7)"/>
<path d="M117.862 106.683L117.55 107.306C117.55 107.306 120.662 107.772 123.307 109.328C125.797 110.729 127.664 113.063 127.664 113.063L127.975 112.44C127.975 112.44 126.108 110.106 123.619 108.706C120.973 107.15 117.862 106.683 117.862 106.683Z" fill="url(#paint29_linear_1_7)"/>
<path d="M113.972 113.218L113.661 113.841C113.661 113.841 116.617 114.618 119.262 116.174C121.751 117.575 123.774 119.597 123.774 119.597L124.085 118.975C124.085 118.975 122.063 116.952 119.573 115.552C117.084 114.152 113.972 113.218 113.972 113.218Z" fill="url(#paint30_linear_1_7)"/>
<path d="M110.237 119.753L109.771 120.375C109.771 120.375 112.571 121.465 115.216 123.021C117.706 124.421 119.884 126.132 119.884 126.132L120.195 125.51C120.195 125.51 118.017 123.798 115.528 122.398C113.038 120.998 110.237 119.753 110.237 119.753Z" fill="url(#paint31_linear_1_7)"/>
<path d="M106.036 127.066L106.348 126.444L116.461 132.201L116.15 132.823L106.036 127.066Z" fill="url(#paint32_linear_1_7)"/>
<path d="M102.302 133.757L102.613 133.134C102.613 133.134 105.103 135.001 107.748 136.402C110.237 137.802 112.727 138.891 112.727 138.891L112.416 139.358C112.416 139.358 109.771 138.269 107.281 136.868C104.636 135.468 102.302 133.757 102.302 133.757Z" fill="url(#paint33_linear_1_7)"/>
<path d="M99.8126 141.381C99.0347 140.758 98.5679 140.291 98.5679 140.291L98.8791 139.669C98.8791 139.669 99.8127 140.447 101.057 141.381H99.8126Z" fill="#73B9F1"/>
<path d="M93.7445 155.695C94.3669 156.162 94.9893 156.629 95.7673 157.096C98.5679 158.651 101.369 158.496 101.369 158.496L101.057 159.118C101.057 159.118 98.2568 159.274 95.4561 157.718C94.3669 157.096 93.4333 156.318 92.811 155.695H93.7445Z" fill="url(#paint34_linear_1_7)"/>
<path d="M87.054 160.052L87.3652 159.429C87.3652 159.429 88.1432 162.541 91.5662 164.408C94.6781 166.12 97.4788 165.186 97.4788 165.186L97.1676 165.809C97.1676 165.809 94.6781 166.898 91.255 165.031C87.6764 163.008 87.054 160.052 87.054 160.052Z" fill="url(#paint35_linear_1_7)"/>
<path d="M83.1642 166.742L83.4754 166.12C83.4754 166.12 83.7865 169.387 87.5208 171.41C90.9438 173.277 93.5889 171.877 93.5889 171.877L93.1222 172.499C93.1222 172.499 90.7883 174.211 87.054 172.033C83.1642 169.854 83.1642 166.742 83.1642 166.742Z" fill="url(#paint36_linear_1_7)"/>
<path d="M133.577 208.13L200.171 68.2516L183.366 60.3163L113.972 205.796C113.972 205.796 116.15 206.885 118.951 208.13H133.577Z" fill="url(#paint37_linear_1_7)"/>
<path d="M172.942 51.9143L204.06 66.6957V111.351C193.324 106.216 121.44 71.9858 121.44 71.9858C121.44 71.9858 126.419 61.5611 131.087 51.9143H172.942Z" fill="url(#paint38_radial_1_7)"/>
<path d="M95.7672 201.906C95.3005 202.84 94.5225 203.929 94.6781 205.641C94.8337 212.02 105.258 217.933 111.327 217.933C115.528 217.933 116.928 216.221 118.484 213.109C120.04 209.997 97.4788 198.172 95.7672 201.906Z" fill="url(#paint39_radial_1_7)"/>
<path d="M167.496 69.4963C167.496 69.4963 183.522 73.3862 184.767 74.4753C186.012 75.5645 182.744 81.7882 182.122 82.7218C176.987 88.9455 160.961 123.332 160.961 123.332L146.18 114.93C146.18 114.93 159.405 90.3459 164.073 81.6326C167.029 75.7201 167.496 69.4963 167.496 69.4963Z" fill="url(#paint40_linear_1_7)"/>
<path d="M204.527 61.4055C207.328 63.4282 211.062 62.9614 214.018 62.4946C216.041 62.1834 212.929 65.1397 209.506 71.9858C206.083 78.832 206.239 79.2987 205.772 78.832C205.305 78.3652 189.901 69.6519 190.368 68.874C190.991 68.096 193.48 51.1363 194.725 51.6031C199.237 52.6922 200.015 58.138 204.527 61.4055Z" fill="url(#paint41_linear_1_7)"/>
<path d="M180.566 80.5435C181.655 78.832 186.634 68.2516 194.569 68.2516C198.148 68.2516 204.994 77.276 205.616 78.5208C206.083 79.6099 204.527 83.9665 203.749 81.9438C202.816 79.6099 198.926 74.6309 194.725 74.6309C190.524 74.6309 184.767 79.4543 183.366 81.1659C181.966 82.7218 179.477 82.255 180.566 80.5435Z" fill="url(#paint42_linear_1_7)"/>
<path d="M180.255 79.9211C181.033 78.6764 184.611 73.2306 186.323 71.5191C188.034 69.8075 192.391 65.2953 196.125 64.6729C199.859 64.0506 203.749 71.6747 202.504 73.2306C201.571 74.3197 200.015 73.075 198.148 71.5191C196.281 70.1187 195.036 67.318 189.123 71.8302C187.101 73.3862 185.078 74.6309 180.41 81.3215C179.165 83.033 179.477 81.1659 180.255 79.9211Z" fill="url(#paint43_linear_1_7)"/>
<path d="M160.961 125.354C161.583 124.11 162.361 122.243 160.65 120.842C158.783 119.442 150.069 114.774 148.513 114.463C146.958 114.152 145.713 114.463 145.09 115.552C144.468 116.641 96.7008 198.483 95.7672 200.817C94.8337 203.151 94.6781 204.863 96.0784 205.33C97.4788 205.796 113.505 213.42 115.061 215.132C116.617 216.843 117.395 214.976 118.017 214.043C120.973 210.309 160.183 126.599 160.961 125.354Z" fill="url(#paint44_linear_1_7)"/>
<path d="M181.344 79.6099C182.122 78.5208 183.989 75.4089 186.323 72.6082C187.879 70.7411 196.281 66.6957 198.148 60.1607C199.237 56.5821 197.525 53.0034 195.192 51.4475C187.256 46.6241 173.564 39 153.492 39C139.956 39 134.199 43.5122 134.199 43.5122H141.045L164.851 52.8478L167.807 65.2953C167.807 65.2953 168.118 69.4963 166.718 74.3197C165.784 78.2096 165.473 80.5435 164.073 84.4333C165.162 84.9001 167.652 83.1886 170.452 83.9665C172.942 84.5889 174.498 88.012 176.209 85.9893C179.165 82.0994 180.099 81.3215 181.344 79.6099Z" fill="url(#paint45_linear_1_7)"/>
<path d="M167.34 69.9631C166.096 58.4492 163.295 47.5577 134.043 47.7132C135.91 45.8461 140.423 43.979 140.423 43.979L134.043 43.5122C134.043 43.5122 134.977 42.7342 136.844 42.5787C153.959 41.1783 169.207 44.757 168.118 67.0068C167.963 70.5855 167.651 72.1414 167.34 69.9631Z" fill="url(#paint46_linear_1_7)"/>
<path d="M134.043 47.7133C136.066 46.9353 138.867 46.4685 144.157 46.7797C150.692 47.0909 158.938 49.5804 162.361 52.6923C164.073 54.2482 163.917 53.0034 162.05 50.9807C157.227 45.3794 149.914 44.1346 140.423 43.979C139.333 43.8234 135.755 45.8461 134.043 47.7133Z" fill="url(#paint47_linear_1_7)"/>
<path d="M214.33 62.4947L222.887 66.8513C222.887 66.8513 219.62 71.2079 216.975 76.1869C214.174 81.4771 212.307 87.234 212.307 87.234L204.06 82.255C204.06 82.255 206.083 76.6537 209.039 71.2079C211.373 66.6957 214.33 62.4947 214.33 62.4947Z" fill="url(#paint48_linear_1_7)"/>
<path d="M222.887 66.8513C223.51 67.1625 221.487 71.9859 218.531 77.5872C215.574 83.1886 212.774 87.5452 212.307 87.234C211.684 86.9228 213.707 82.0994 216.663 76.4981C219.464 70.8967 222.265 66.5401 222.887 66.8513Z" fill="#BFC0D0"/>
<linearGradient id="paint0_linear_1_7" x1="126.026" y1="208.076" x2="126.026" y2="51.8894" gradientUnits="userSpaceOnUse">
<stop stop-color="#1578E4"/>
<stop offset="1" stop-color="#00C3F2"/>
</linearGradient>
<linearGradient id="paint1_linear_1_7" x1="172.844" y1="154.398" x2="172.844" y2="142.756" gradientUnits="userSpaceOnUse">
<stop stop-color="#1492E7"/>
<stop offset="1" stop-color="#DBEDFB"/>
</linearGradient>
<linearGradient id="paint2_linear_1_7" x1="165.072" y1="154.398" x2="165.072" y2="142.756" gradientUnits="userSpaceOnUse">
<stop stop-color="#1492E7"/>
<stop offset="1" stop-color="#DBEDFB"/>
</linearGradient>
<linearGradient id="paint3_linear_1_7" x1="126.026" y1="154.398" x2="126.026" y2="142.756" gradientUnits="userSpaceOnUse">
<stop stop-color="#1492E7"/>
<stop offset="1" stop-color="#DBEDFB"/>
</linearGradient>
<linearGradient id="paint4_linear_1_7" x1="118.254" y1="154.398" x2="118.254" y2="142.756" gradientUnits="userSpaceOnUse">
<stop stop-color="#1492E7"/>
<stop offset="1" stop-color="#DBEDFB"/>
</linearGradient>
<linearGradient id="paint5_linear_1_7" x1="110.483" y1="154.398" x2="110.483" y2="142.756" gradientUnits="userSpaceOnUse">
<stop stop-color="#1492E7"/>
<stop offset="1" stop-color="#DBEDFB"/>
</linearGradient>
<linearGradient id="paint6_linear_1_7" x1="102.711" y1="154.398" x2="102.711" y2="142.756" gradientUnits="userSpaceOnUse">
<stop stop-color="#1492E7"/>
<stop offset="1" stop-color="#DBEDFB"/>
</linearGradient>
<linearGradient id="paint7_linear_1_7" x1="94.9395" y1="154.398" x2="94.9395" y2="142.756" gradientUnits="userSpaceOnUse">
<stop stop-color="#1492E7"/>
<stop offset="1" stop-color="#DBEDFB"/>
</linearGradient>
<linearGradient id="paint8_linear_1_7" x1="86.9793" y1="154.398" x2="86.9793" y2="142.756" gradientUnits="userSpaceOnUse">
<stop stop-color="#1492E7"/>
<stop offset="1" stop-color="#DBEDFB"/>
</linearGradient>
<linearGradient id="paint9_linear_1_7" x1="79.2074" y1="154.398" x2="79.2074" y2="142.756" gradientUnits="userSpaceOnUse">
<stop stop-color="#1492E7"/>
<stop offset="1" stop-color="#DBEDFB"/>
</linearGradient>
<linearGradient id="paint10_linear_1_7" x1="141.014" y1="177.089" x2="141.014" y2="81.2312" gradientUnits="userSpaceOnUse">
<stop stop-color="#1285E7"/>
<stop offset="1" stop-color="#00B5EF"/>
</linearGradient>
<linearGradient id="paint11_linear_1_7" x1="162.616" y1="176.666" x2="110.675" y2="86.6988" gradientUnits="userSpaceOnUse">
<stop stop-color="#2B90E7"/>
<stop offset="1" stop-color="#00B6EF"/>
</linearGradient>
<linearGradient id="paint12_linear_1_7" x1="165.12" y1="177.209" x2="111.456" y2="84.2606" gradientUnits="userSpaceOnUse">
<stop stop-color="#3795EA"/>
<stop offset="1" stop-color="#49C4F2"/>
</linearGradient>
<linearGradient id="paint13_linear_1_7" x1="168.159" y1="176.288" x2="113.773" y2="82.0885" gradientUnits="userSpaceOnUse">
<stop stop-color="#3696EA"/>
<stop offset="1" stop-color="#90D9F6"/>
</linearGradient>
<linearGradient id="paint14_linear_1_7" x1="170.58" y1="174.105" x2="116.874" y2="81.0834" gradientUnits="userSpaceOnUse">
<stop stop-color="#3097EA"/>
<stop offset="1" stop-color="#B5E5F9"/>
</linearGradient>
<linearGradient id="paint15_linear_1_7" x1="171.359" y1="171.544" x2="119.481" y2="81.6887" gradientUnits="userSpaceOnUse">
<stop stop-color="#3A98EA"/>
<stop offset="1" stop-color="#BCE7FA"/>
</linearGradient>
<linearGradient id="paint16_linear_1_7" x1="132.302" y1="125.706" x2="142.378" y2="119.888" gradientUnits="userSpaceOnUse">
<stop stop-color="#00A4EC"/>
<stop offset="1" stop-color="#B9DFF6"/>
</linearGradient>
<linearGradient id="paint17_linear_1_7" x1="128.422" y1="118.984" x2="138.496" y2="113.167" gradientUnits="userSpaceOnUse">
<stop stop-color="#00A4EC"/>
<stop offset="1" stop-color="#B9DFF6"/>
</linearGradient>
<linearGradient id="paint18_linear_1_7" x1="116.663" y1="98.6219" x2="126.674" y2="92.8432" gradientUnits="userSpaceOnUse">
<stop stop-color="#00B4EF"/>
<stop offset="1" stop-color="#C3E9FA"/>
</linearGradient>
<linearGradient id="paint19_linear_1_7" x1="112.764" y1="91.8661" x2="122.841" y2="86.0484" gradientUnits="userSpaceOnUse">
<stop stop-color="#00B4EF"/>
<stop offset="1" stop-color="#C3E9FA"/>
</linearGradient>
<linearGradient id="paint20_linear_1_7" x1="111.429" y1="177.324" x2="111.429" y2="81.4677" gradientUnits="userSpaceOnUse">
<stop stop-color="#1285E7"/>
<stop offset="1" stop-color="#00B5EF"/>
</linearGradient>
<linearGradient id="paint21_linear_1_7" x1="89.8251" y1="176.904" x2="141.767" y2="86.9399" gradientUnits="userSpaceOnUse">
<stop stop-color="#3194E9"/>
<stop offset="1" stop-color="#71CFF4"/>
</linearGradient>
<linearGradient id="paint22_linear_1_7" x1="87.3076" y1="177.45" x2="140.978" y2="84.4893" gradientUnits="userSpaceOnUse">
<stop stop-color="#5AA6EC"/>
<stop offset="1" stop-color="#A2DEF8"/>
</linearGradient>
<linearGradient id="paint23_linear_1_7" x1="84.2813" y1="176.521" x2="138.668" y2="82.3219" gradientUnits="userSpaceOnUse">
<stop stop-color="#66ABEE"/>
<stop offset="1" stop-color="#BEE8FA"/>
</linearGradient>
<linearGradient id="paint24_linear_1_7" x1="81.8696" y1="174.338" x2="135.576" y2="81.3168" gradientUnits="userSpaceOnUse">
<stop stop-color="#7BB6F0"/>
<stop offset="1" stop-color="#B1E3F9"/>
</linearGradient>
<linearGradient id="paint25_linear_1_7" x1="81.073" y1="171.833" x2="132.977" y2="81.9314" gradientUnits="userSpaceOnUse">
<stop stop-color="#5AA6EC"/>
<stop offset="1" stop-color="#AFE3F9"/>
</linearGradient>
<linearGradient id="paint26_linear_1_7" x1="129.783" y1="85.9721" x2="139.859" y2="91.7898" gradientUnits="userSpaceOnUse">
<stop stop-color="#C1E7FA"/>
<stop offset="1" stop-color="#89D4F5"/>
</linearGradient>
<linearGradient id="paint27_linear_1_7" x1="125.884" y1="92.7265" x2="135.96" y2="98.5426" gradientUnits="userSpaceOnUse">
<stop stop-color="#C1E7FA"/>
<stop offset="1" stop-color="#89D4F5"/>
</linearGradient>
<linearGradient id="paint28_linear_1_7" x1="121.865" y1="99.6893" x2="131.94" y2="105.505" gradientUnits="userSpaceOnUse">
<stop stop-color="#C1E7FA"/>
<stop offset="1" stop-color="#89D4F5"/>
</linearGradient>
<linearGradient id="paint29_linear_1_7" x1="117.956" y1="106.458" x2="128.031" y2="112.275" gradientUnits="userSpaceOnUse">
<stop stop-color="#B0DFF8"/>
<stop offset="1" stop-color="#52BDF2"/>
</linearGradient>
<linearGradient id="paint30_linear_1_7" x1="114.049" y1="113.224" x2="124.127" y2="119.042" gradientUnits="userSpaceOnUse">
<stop stop-color="#B4DEF8"/>
<stop offset="1" stop-color="#4EB5F0"/>
</linearGradient>
<linearGradient id="paint31_linear_1_7" x1="110.144" y1="119.991" x2="120.219" y2="125.807" gradientUnits="userSpaceOnUse">
<stop stop-color="#B4DEF8"/>
<stop offset="1" stop-color="#4EB5F0"/>
</linearGradient>
<linearGradient id="paint32_linear_1_7" x1="106.253" y1="126.733" x2="116.326" y2="132.549" gradientUnits="userSpaceOnUse">
<stop stop-color="#B5DDF8"/>
<stop offset="1" stop-color="#46AEEE"/>
</linearGradient>
<linearGradient id="paint33_linear_1_7" x1="102.357" y1="133.476" x2="112.433" y2="139.294" gradientUnits="userSpaceOnUse">
<stop stop-color="#96CEF4"/>
<stop offset="1" stop-color="#46AAEE"/>
</linearGradient>
<linearGradient id="paint34_linear_1_7" x1="92.9961" y1="155.127" x2="100.717" y2="159.585" gradientUnits="userSpaceOnUse">
<stop stop-color="#8FC1F2"/>
<stop offset="1" stop-color="#3193EA"/>
</linearGradient>
<linearGradient id="paint35_linear_1_7" x1="86.6401" y1="160.701" x2="96.7164" y2="166.518" gradientUnits="userSpaceOnUse">
<stop stop-color="#8FC1F2"/>
<stop offset="1" stop-color="#3193EA"/>
</linearGradient>
<linearGradient id="paint36_linear_1_7" x1="82.7347" y1="167.463" x2="92.8094" y2="173.28" gradientUnits="userSpaceOnUse">
<stop stop-color="#8FC1F2"/>
<stop offset="1" stop-color="#3193EA"/>
</linearGradient>
<linearGradient id="paint37_linear_1_7" x1="145.903" y1="131.474" x2="165.285" y2="140.926" gradientUnits="userSpaceOnUse">
<stop offset="0.001"/>
<stop offset="1" stop-opacity="0"/>
</linearGradient>
<linearGradient id="paint40_linear_1_7" x1="158.406" y1="91.3946" x2="173.598" y2="99.1354" gradientUnits="userSpaceOnUse">
<stop stop-color="#344351"/>
<stop offset="0.1" stop-color="#9697A0"/>
<stop offset="0.181" stop-color="#8B8C95"/>
<stop offset="0.351" stop-color="#787A83"/>
<stop offset="0.47" stop-color="#71747D"/>
<stop offset="0.591" stop-color="#777982"/>
<stop offset="0.749" stop-color="#87898F"/>
<stop offset="0.8" stop-color="#8E8F94"/>
<stop offset="0.849" stop-color="#3D3B42"/>
<stop offset="0.9" stop-color="#606E84"/>
</linearGradient>
<linearGradient id="paint41_linear_1_7" x1="209.948" y1="75.9644" x2="192.8" y2="52.7918" gradientUnits="userSpaceOnUse">
<stop offset="0.27" stop-color="#262B33"/>
<stop offset="0.45" stop-color="#74747E"/>
<stop offset="0.54" stop-color="#B0B0BC"/>
<stop offset="0.73" stop-color="#74747E"/>
</linearGradient>
<linearGradient id="paint42_linear_1_7" x1="179.853" y1="77.7801" x2="205.173" y2="74.5096" gradientUnits="userSpaceOnUse">
<stop offset="0.14" stop-color="#606E84"/>
<stop offset="0.4" stop-color="#9899A5"/>
<stop offset="0.73" stop-color="#475768"/>
<stop offset="0.92" stop-color="#262B33"/>
</linearGradient>
<linearGradient id="paint43_linear_1_7" x1="191.656" y1="79.9336" x2="189.2" y2="66.0017" gradientUnits="userSpaceOnUse">
<stop stop-color="#101215" stop-opacity="0.1"/>
<stop offset="0.46" stop-color="#101215" stop-opacity="0.7"/>
<stop offset="0.7" stop-color="#474951"/>
<stop offset="0.91" stop-color="#7B7D88"/>
</linearGradient>
<linearGradient id="paint44_linear_1_7" x1="116.976" y1="157.595" x2="140.48" y2="169.16" gradientUnits="userSpaceOnUse">
<stop offset="0.115" stop-color="#2C3952"/>
<stop offset="0.374" stop-color="#3D414E"/>
<stop offset="0.55" stop-color="#474A54"/>
<stop offset="0.754" stop-color="#4E5057"/>
<stop offset="0.892" stop-color="#323945"/>
<stop offset="1" stop-color="#143052"/>
</linearGradient>
<linearGradient id="paint45_linear_1_7" x1="153.349" y1="79.7328" x2="171.526" y2="39.8511" gradientUnits="userSpaceOnUse">
<stop offset="0.118" stop-color="#6D7078" stop-opacity="0"/>
<stop offset="0.2" stop-color="#6D7078" stop-opacity="0.7"/>
<stop offset="0.34" stop-color="#35363A"/>
<stop offset="0.374" stop-color="#1D1F22"/>
<stop offset="0.4" stop-color="#101215"/>
<stop offset="0.5" stop-color="#16171A"/>
<stop offset="0.56" stop-color="#292A2E"/>
<stop offset="0.688" stop-color="#4B4D51"/>
<stop offset="0.807" stop-color="#63666B"/>
<stop offset="0.915" stop-color="#72757B"/>
<stop offset="1" stop-color="#777A80"/>
</linearGradient>
<linearGradient id="paint46_linear_1_7" x1="133.987" y1="56.6396" x2="168.159" y2="56.6396" gradientUnits="userSpaceOnUse">
<stop stop-color="#4A4D56"/>
<stop offset="1" stop-color="#29292D"/>
</linearGradient>
<linearGradient id="paint47_linear_1_7" x1="133.987" y1="48.6422" x2="163.534" y2="48.6422" gradientUnits="userSpaceOnUse">
<stop stop-color="#767880"/>
<stop offset="0.41" stop-color="#0C0A0B"/>
</linearGradient>
<linearGradient id="paint48_linear_1_7" x1="207.533" y1="84.5205" x2="219.008" y2="64.645" gradientUnits="userSpaceOnUse">
<stop stop-color="#858997"/>
<stop offset="0.23" stop-color="#244668"/>
<stop offset="0.282" stop-color="#1A3249"/>
<stop offset="0.4" stop-color="#040506"/>
<stop offset="0.464" stop-color="#313236"/>
<stop offset="0.546" stop-color="#65656E"/>
<stop offset="0.607" stop-color="#868691"/>
<stop offset="0.64" stop-color="#92929E"/>
</linearGradient>
<radialGradient id="paint38_radial_1_7" cx="0" cy="0" r="1" gradientUnits="userSpaceOnUse" gradientTransform="translate(174.715 69.5431) rotate(116.706) scale(25.1759 43.5636)">
<stop/>
<stop offset="1" stop-opacity="0"/>
</radialGradient>
<radialGradient id="paint39_radial_1_7" cx="0" cy="0" r="1" gradientUnits="userSpaceOnUse" gradientTransform="translate(106.203 209.309) rotate(26.1166) scale(12.2935 6.99781)">
<stop offset="0.417" stop-color="#0C0C12"/>
<stop offset="1" stop-color="#3D4651"/>
</radialGradient>
</svg>