<svg width="256" height="256" title="Xftp" viewBox="0 0 256 256" fill="none" xmlns="http://www.w3.org/2000/svg" id="xftp">
<style>
#xftp {
    rect {fill: #15191C}

    @media (prefers-color-scheme: light) {
        rect {fill: #F4F2ED}
    }
}
</style>
<path d="M0 0 C0.67661682 -0.0065712 1.35323364 -0.0131424 2.050354 -0.01991272 C4.29284777 -0.03964801 6.5352746 -0.05130803 8.77783203 -0.0612793 C9.92601095 -0.06739259 9.92601095 -0.06739259 11.09738541 -0.07362938 C15.14792868 -0.09448997 19.19843806 -0.10879235 23.24902344 -0.11816406 C27.4346362 -0.1292355 31.61971834 -0.16364325 35.80514336 -0.20333576 C39.02219641 -0.22946657 42.23912227 -0.23785265 45.45627213 -0.24144554 C46.99926466 -0.24631982 48.54225121 -0.25795781 50.08514023 -0.27648354 C52.24468957 -0.30080408 54.40285596 -0.2999241 56.5625 -0.29296875 C57.79112762 -0.29883499 59.01975525 -0.30470123 60.28561401 -0.31074524 C64.17434739 0.29619885 65.0847964 1.03018332 67.41064453 4.17700195 C68.96058142 6.86720042 70.32429117 9.62560935 71.66064453 12.42700195 C72.02416016 13.17208008 72.38767578 13.9171582 72.76220703 14.68481445 C73.65236598 16.51198282 74.53251844 18.3440203 75.41064453 20.17700195 C76.40870888 20.17920179 76.40870888 20.17920179 77.42693615 20.18144608 C93.6185202 20.21850098 109.80986057 20.27749797 126.00126934 20.36090469 C133.83133474 20.40071077 141.66129941 20.43309523 149.49145508 20.44799805 C156.31639142 20.46100651 163.14110628 20.48795032 169.96591789 20.53161502 C173.57951875 20.55424829 177.19284624 20.56991154 180.80652428 20.5688858 C184.84113789 20.56800173 188.87494405 20.59822944 192.90942383 20.63110352 C194.70585327 20.62355797 194.70585327 20.62355797 196.53857422 20.61585999 C204.63713278 20.71822425 204.63713278 20.71822425 208.62947083 23.08612061 C211.64560533 26.62669576 211.54093085 28.82038487 211.55781555 33.42012024 C211.56149224 34.06758609 211.56516893 34.71505193 211.56895703 35.38213795 C211.58001012 37.56156995 211.58384043 39.7409543 211.58764648 41.92041016 C211.59390989 43.47907666 211.60055658 45.03774167 211.6075592 46.59640503 C211.62497977 50.83821737 211.63552374 55.08001843 211.64376473 59.32185769 C211.64891242 61.9709081 211.65498824 64.61995499 211.66127586 67.26900291 C211.68033049 75.55408799 211.69456131 83.83916414 211.70288783 92.12426692 C211.7126637 101.69399696 211.73899111 111.2634959 211.77938873 120.83314449 C211.8095282 128.22598511 211.82435462 135.6187594 211.82766885 143.01166028 C211.83002173 147.42898787 211.83901291 151.84606866 211.86413002 156.26333046 C211.88737811 160.41908115 211.8916573 164.57442198 211.88136864 168.73022079 C211.88087237 170.25522791 211.88721952 171.78025497 211.90092468 173.30520058 C211.9185979 175.3882705 211.91156217 177.46986215 211.89839172 179.55293274 C211.90078008 180.71824681 211.90316843 181.88356089 211.90562916 183.08418751 C211.30581699 186.83199631 210.03407509 188.48596032 207.41064453 191.17700195 C204.19484236 192.78490304 200.68841824 192.32497154 197.15544128 192.32417297 C196.29154716 192.32784966 195.42765304 192.33152635 194.53758031 192.33531445 C191.62571495 192.34637948 188.71388523 192.35019988 185.80200195 192.35400391 C183.72117498 192.36026637 181.64034914 192.36691298 179.55952454 192.37391663 C173.89420257 192.39134527 168.22888905 192.40188323 162.5635469 192.41012216 C159.0266955 192.41526781 155.48984674 192.4213437 151.95299721 192.42763329 C140.89464794 192.4466896 129.83630537 192.46092043 118.77794284 192.46924525 C105.99853017 192.47902368 93.21929043 192.50535726 80.43993872 192.54574615 C70.57153523 192.57586852 60.70318142 192.5907104 50.83473283 192.59402627 C44.93631059 192.59638097 39.038073 192.60539617 33.13969994 192.63048744 C27.59194364 192.65370561 22.04449441 192.65802658 16.49670219 192.64772606 C14.45890534 192.64722908 12.4210937 192.65359697 10.38334274 192.6672821 C7.60412344 192.68490458 4.82601765 192.67794256 2.04679871 192.66474915 C1.23784611 192.67571839 0.42889352 192.68668764 -0.40457278 192.69798928 C-4.17824797 192.65465226 -6.35594072 192.32639038 -9.5666151 190.27151775 C-13.08622619 186.62701589 -12.72036305 184.12561796 -12.73652649 179.13664246 C-12.74204152 178.03681179 -12.74204152 178.03681179 -12.74766797 176.91476232 C-12.75872663 174.44512102 -12.76255232 171.97552176 -12.76635742 169.50585938 C-12.77262039 167.74029913 -12.77926704 165.97474021 -12.78627014 164.20918274 C-12.80369448 159.40333819 -12.81423564 154.5975036 -12.82247567 149.79163527 C-12.82762241 146.7908147 -12.83369826 143.78999723 -12.8399868 140.78917885 C-12.85904221 131.40525319 -12.87327304 122.02133542 -12.88159877 112.63739413 C-12.89137583 101.79590491 -12.91770613 90.95461961 -12.95809966 80.11320227 C-12.98823114 71.73947829 -13.00306479 63.36581285 -13.00637978 54.99203569 C-13.00873352 49.98786114 -13.01773593 44.98390435 -13.04284096 39.97978783 C-13.06607506 35.27248988 -13.07037376 30.56555379 -13.06007957 25.85821342 C-13.05958298 24.13002572 -13.06593981 22.40182049 -13.07963562 20.67368698 C-13.09728505 18.31479267 -13.09028377 15.95720681 -13.07710266 13.59831238 C-13.08807191 12.91387013 -13.09904115 12.22942788 -13.1103428 11.52424496 C-13.04699964 6.83133713 -11.88563369 4.47981492 -8.58935547 1.17700195 C-5.71204743 -0.26165206 -3.21552832 0.02579738 0 0 Z M61.41064453 64.17700195 C56.71472442 69.20723425 53.50224533 73.99380036 50.41064453 80.17700195 C67.57064453 80.17700195 84.73064453 80.17700195 102.41064453 80.17700195 C102.41064453 75.22700195 102.41064453 70.27700195 102.41064453 65.17700195 C108.52312391 68.99730157 114.13612485 73.26254847 119.72314453 77.80200195 C120.76341797 78.64541138 120.76341797 78.64541138 121.82470703 79.50585938 C125.18438325 82.2576136 128.4160985 85.02079662 131.41064453 88.17700195 C124.34867045 93.74611495 117.27813522 99.30392039 110.16064453 104.80200195 C109.61255127 105.22723145 109.06445801 105.65246094 108.49975586 106.09057617 C104.64529406 109.05967719 104.64529406 109.05967719 102.41064453 110.17700195 C102.41064453 105.22700195 102.41064453 100.27700195 102.41064453 95.17700195 C83.60064453 95.17700195 64.79064453 95.17700195 45.41064453 95.17700195 C41.49124954 106.93518692 45.04310649 121.23411588 49.69580078 132.20825195 C56.37100189 145.44709093 67.35811698 155.44036056 81.28564453 160.61450195 C96.28536991 164.98942186 110.84905562 163.38248598 124.59423828 155.9699707 C132.76883968 150.7658902 142.25793046 142.63514415 145.41064453 133.17700195 C125.94064453 133.17700195 106.47064453 133.17700195 86.41064453 133.17700195 C86.41064453 137.79700195 86.41064453 142.41700195 86.41064453 147.17700195 C76.94513488 139.99741843 67.52787673 132.79766904 58.41064453 125.17700195 C61.92158185 121.52302644 65.60566388 118.34670143 69.66064453 115.30200195 C70.80533629 114.43242154 71.94986658 113.56262852 73.09423828 112.69262695 C73.65353027 112.26916992 74.21282227 111.84571289 74.7890625 111.40942383 C77.1147121 109.64190212 79.41955952 107.84814114 81.72314453 106.05200195 C82.94001953 105.10325195 84.15689453 104.15450195 85.41064453 103.17700195 C85.90564453 110.10700195 85.90564453 110.10700195 86.41064453 117.17700195 C107.86064453 117.17700195 129.31064453 117.17700195 151.41064453 117.17700195 C152.78532953 97.93141192 150.975584 82.73806815 138.03564453 67.73950195 C116.41177112 45.49571986 85.12876593 43.25994704 61.41064453 64.17700195 Z " fill="#9BC43C" transform="translate(28.58935546875,31.822998046875)"/>
</svg>
