<svg width="256" height="256" title="XML" viewBox="0 0 256 256" fill="none" xmlns="http://www.w3.org/2000/svg" id="xml">
<style>
#xml {
    rect {fill: #15191C}

    @media (prefers-color-scheme: light) {
        rect {fill: #F4F2ED}
    }
}
</style>
<rect width="256" height="256" rx="40" fill="#15191C"/>
<path fill-rule="evenodd" clip-rule="evenodd" d="M203.367 108.42C203.726 105.294 203.968 101.393 205.19 98.7114C206.109 101.494 206.418 105.093 208.309 107.187C210.759 106.606 213.479 106.747 216 107.293C214.49 109.301 211.2 110.663 209.235 111.954C211.599 113.961 212.753 116.299 214.049 119.081C210.616 119.015 207.483 116.012 204.834 114.392C202.555 116.987 200.946 119.511 197.599 120.443C198.805 117.848 201.629 115.61 201.985 112.914C199.308 111.909 195.989 109.759 194.252 107.58C197.015 107.746 200.604 108.102 203.367 108.427" fill="#AF0084"/>
<path fill-rule="evenodd" clip-rule="evenodd" d="M206.215 128.21C206.477 125.944 206.654 123.105 207.537 121.155C208.205 123.177 208.43 125.787 209.802 127.307C211.568 126.885 213.562 126.985 215.385 127.383C214.287 128.831 211.91 129.835 210.485 130.767C212.209 132.216 213.049 133.922 213.975 135.944C211.482 135.895 209.203 133.707 207.281 132.545C205.629 134.424 204.461 136.26 202.025 136.934C202.901 135.055 204.959 133.42 205.201 131.47C203.264 130.741 200.857 129.175 199.59 127.598C201.584 127.723 204.204 127.981 206.198 128.214" fill="#98C000"/>
<path fill-rule="evenodd" clip-rule="evenodd" d="M197.67 143.842C197.849 142.264 197.972 140.314 198.583 138.966C199.043 140.362 199.199 142.164 200.149 143.211C201.374 142.919 202.742 142.99 204.009 143.265C203.249 144.267 201.602 144.957 200.619 145.603C201.807 146.608 202.386 147.782 203.026 149.173C201.303 149.143 199.736 147.639 198.398 146.822C197.251 148.122 196.446 149.389 194.766 149.862C195.371 148.562 196.788 147.438 196.959 146.09C195.62 145.585 193.954 144.513 193.085 143.408C194.468 143.494 196.275 143.672 197.657 143.836" fill="#F08400"/>
<path fill-rule="evenodd" clip-rule="evenodd" d="M69.9136 142.838C68.4908 142.838 52.3952 158.612 50.8285 160.477C49.521 161.939 48.806 164.636 46.5557 164.937C44.1629 165.261 43.6217 164.324 42.4681 162.513C41.3785 160.792 40.0611 157.738 41.9653 156.49C43.8026 155.301 66.605 134.262 67.3172 133.402C68.2031 132.497 67.2289 130.247 66.8059 126.848C66.2618 122.488 65.9855 118.487 66.3188 114.171C66.6592 109.739 67.7131 104.276 68.8539 99.9734C69.5561 97.3491 69.1502 92.1577 72.7849 92C73.5269 92.1764 79.1229 96.0728 77.6131 101.207C75.434 108.563 73.3404 116.838 73.9813 124.725C74.1052 126.246 74.7134 127.565 75.6762 126.862C86.002 119.434 102.167 111.374 106.298 109.94C108.292 109.301 110.328 108.802 112.394 108.541C113.875 108.717 115 110.118 116.168 111.108C122.022 116.155 110.656 134.053 109.688 139.502C110.598 139.502 111.582 138.114 113.319 136.534C115.171 134.841 118.048 132.174 120.17 130.109C123.417 127.657 126.252 125.405 130.368 124.875C140.266 123.61 137.304 137.953 135.068 143.087C136.345 143.087 139.469 139.473 141.961 137.093C143.219 135.892 144.61 134.626 145.878 133.45C147.388 132.053 148.086 131.328 149.225 131.887C149.988 132.108 153.298 134.124 153.484 137.208C153.639 139.703 152.622 142.155 152.123 144.55C151.709 146.558 151.811 153.083 154.502 153.097C155.563 152.325 156.952 151.994 158.219 151.782C160.256 151.435 160.156 152.1 161.837 152.731C164.472 153.717 162.095 157.478 160.709 158.869C158.843 160.733 156.18 161.967 153.516 161.924C150.582 161.873 148.275 160.059 146.95 157.507C146.228 156.106 145.298 150.939 144.942 149.404C144.583 147.899 144.895 146.092 143.304 147.626C138.818 151.971 134.189 156.015 129.631 160.303C124.604 165.021 119.804 158.539 120.716 153.248C121.614 148.071 126.057 141.746 126.854 136.612C124.732 136.612 121.157 140.341 119.804 141.875C117.611 144.371 115.175 147.138 112.697 149.763C110.205 152.401 108.068 154.825 105.561 157.449C103.753 159.342 101.687 162.038 98.6395 162.21C97.144 161.972 94.7513 159.457 94.3383 156.259C94.0021 153.592 94.6729 150.652 95.6884 148.2C98.6224 141.101 106.67 126.115 108.55 118.658C104.69 119.032 88.325 126.646 77.5006 135.723C74.3673 138.319 77.2599 143.08 78.5703 146.249C79.9731 149.634 84.1106 155.757 85.3497 156.804C88.5971 159.514 86.0035 161.909 82.7861 161.737C81.4202 160.764 79.7666 159.715 78.4848 158.425C77.0919 157.025 75.8926 155.427 74.796 153.793C72.5741 150.48 70.452 146.651 69.8823 142.635" fill="#005FAD"/>
<path fill-rule="evenodd" clip-rule="evenodd" d="M186.276 100.361C185.356 96.9332 181.091 102.168 178.955 104.935C173.044 112.593 167.661 128.167 166.792 131.035C164.143 139.84 163.117 150.682 168.843 158.426C172.176 162.943 178.044 163.287 183.798 161.624C186.76 160.765 189.737 158.627 190.748 156.289C191.585 154.353 192.02 150.739 187.785 153.493C186.148 154.56 183.142 155.73 177.759 155.644C175.95 155.614 172.987 153.005 172.19 150.309C170.788 145.921 171.385 140.056 171.385 140.056C172.61 132.484 176.099 124.281 179.162 117.397C180.351 114.744 183.976 108.119 185.329 106.011C185.329 106.011 187.066 103.257 186.289 100.332L186.276 100.361Z" fill="#005FAD"/>
</svg>