<svg width="256" height="256" title="Xposed" viewBox="0 0 256 256" fill="none" xmlns="http://www.w3.org/2000/svg" id="xposed">
<style>
#xposed {
    rect {fill: #15191C}

    @media (prefers-color-scheme: light) {
        rect {fill: #F4F2ED}
    }
}
</style>
<rect width="256" height="256" rx="40" fill="#15191C"/>
<path d="M118.547 162.905C118.5 173.988 118.454 185.071 118.408 196.154C118.365 205.086 119.277 206.271 128.545 206.374H202.207C209.463 206.271 210.89 204.764 211 197.504L210.901 71.4496C210.89 59.1178 208.889 57.0727 196.515 57.0881C174.076 57.1143 153.706 56.9207 130.259 57.0382C122.269 57.0382 118.365 58.0597 118.281 68.9085L117.969 100.754H139.422V107.35C136.677 109.125 134.151 111.552 133.159 115.59C132.916 116.441 132.884 117.324 132.936 118.138C133.228 122.577 136.123 127.18 142.298 127.88C143.092 127.96 143.871 128.004 144.612 127.946C149.265 127.573 154.091 123.608 154.028 117.629C154.034 116.945 153.93 116.292 153.79 115.669C152.844 111.494 150.299 109.326 147.448 107.497L147.302 100.754L166.417 101.043C170.047 101.521 171.347 103.743 171.623 105.855L171.674 126.846H174.885C177.681 123.221 181.261 121.592 185.205 121.689C190.682 122.167 193.867 126.236 194.489 129.676C194.625 131.031 194.672 132.331 194.502 133.582C193.711 139.316 188.484 142.355 185.119 142.677C184.495 142.72 183.923 142.718 183.346 142.7C179.535 142.527 176.664 140.712 174.885 136.96H171.674L171.53 156.79C171.769 160.574 168.784 162.634 166.592 162.717L118.547 162.905Z" fill="black" stroke="#B1B1B1" stroke-width="3" stroke-linejoin="round"/>
<path d="M122.348 72.0161H204.877V190.895L122.819 191.131L122.348 167.751L169.627 167.516C173.347 167.516 176.412 163.585 176.412 161.359L176.648 145.67C191.855 152.5 200.25 141.642 199.411 131.048C198.855 124.019 195.919 118.633 186.634 117.056C183.042 116.534 180.02 118.009 176.322 119.805L176.587 103.103C176.587 99.1111 169.701 96.2047 167.572 96.2047L122.113 95.9694L122.348 72.0161Z" fill="#87CDDE"/>
<path d="M46 161.446V99.2954H67.4529V105.892C63.2813 108.402 61.2981 111.842 60.9626 115.252C60.8441 122.961 66.4099 126.293 71.2332 126.476C77.1275 126.7 82.4831 122.221 82.1006 115.281C81.8044 111.84 79.6368 108.436 75.4795 106.038L75.3335 99.2954H92.4083C96.6193 99.17 99.7052 101.649 99.7052 106.197V125.387H102.916C105.508 121.73 109.328 120.124 112.91 120.293C119.388 120.536 122.639 125.565 122.608 130.637C122.578 135.744 119.221 140.894 112.485 141.246C109.118 141.204 105.53 140.483 102.916 135.501H99.7052V155.302C99.7052 159.078 96.7699 161.446 93.7335 161.446H46Z" fill="black" stroke="#B2B2B2" stroke-width="3" stroke-linejoin="round"/>
</svg>