<svg width="256" height="256" title="Xshell" viewBox="0 0 256 256" fill="none" xmlns="http://www.w3.org/2000/svg" id="xshell">
<style>
#xshell {
    rect {fill: #15191C}

    @media (prefers-color-scheme: light) {
        rect {fill: #F4F2ED}
    }
}
</style>
<rect width="256" height="256" rx="25" fill="#15191C"/>
<path d="M0 0 C19.65704622 13.14246318 32.03319405 32.52941934 37.10546875 55.6328125 C37.63890504 60.01649685 37.5 64.45897886 37.5 68.875 C25.62 69.37 25.62 69.37 13.5 69.875 C13.83 70.865 14.16 71.855 14.5 72.875 C15.80221364 93.65653355 14.6984664 112.85945689 5.5 131.875 C5.05914062 132.79667969 4.61828125 133.71835938 4.1640625 134.66796875 C-6.07678247 154.72531429 -23.29719883 167.7510501 -43.9921875 175.55078125 C-55.63045292 179.22785494 -67.01946619 180.42671763 -79.1875 180.3125 C-79.88077393 180.30945862 -80.57404785 180.30641724 -81.28833008 180.30328369 C-116.22777345 180.07777093 -145.8615576 166.5134424 -170.5 141.875 C-189.42452069 120.8801044 -202.5 91.26220972 -202.5 62.875 C-180.39 62.875 -158.28 62.875 -135.5 62.875 C-134.21189395 66.73931816 -132.99680087 70.5776087 -131.85253906 74.48144531 C-124.96964536 97.539697 -110.77959027 116.30812794 -89.5 127.875 C-78.33792804 133.15052854 -66.93817151 136.27067782 -54.5625 136.1875 C-53.24100952 136.17904053 -53.24100952 136.17904053 -51.89282227 136.17041016 C-45.66007703 136.05375913 -40.21250341 135.53478995 -34.5 132.875 C-33.17162109 132.27171875 -33.17162109 132.27171875 -31.81640625 131.65625 C-15.62048422 123.56952055 -6.54271616 110.56225526 -0.78515625 93.79296875 C3.52727486 78.84110907 1.80361821 62.53923761 -5.5 48.875 C-12.20773049 37.91568872 -20.90668368 30.23029629 -33.375 26.625 C-43.65632616 24.39604062 -53.25684879 26.07699425 -62.25 31.5 C-69.3519336 36.58177227 -73.89067197 44.32295105 -75.5 52.875 C-76.64877721 64.15003562 -74.37130482 73.17297575 -67.26953125 82.0546875 C-61.09028413 88.411264 -53.94299615 91.86239577 -45.125 92.25 C-39.82844841 92.12046477 -35.65220117 91.29445979 -31.5 87.875 C-29.52273725 85.34796176 -27.94457981 82.73637925 -26.5 79.875 C-27.36625 80.308125 -27.36625 80.308125 -28.25 80.75 C-28.9925 81.12125 -29.735 81.4925 -30.5 81.875 C-31.10328125 82.23722656 -31.7065625 82.59945312 -32.328125 82.97265625 C-37.83536194 85.26073491 -45.46695071 84.97065967 -51.01953125 82.96484375 C-57.67156229 79.0092383 -61.83244413 73.55756234 -63.99609375 66.1640625 C-65.62948977 58.74413948 -64.38804963 51.64610031 -60.43359375 45.11328125 C-56.93959407 40.53533447 -52.53490522 37.80881699 -47.0625 36.125 C-37.31725631 35.17424452 -28.96422678 36.66863286 -21.1875 43.0625 C-11.68291675 52.25545757 -8.44634893 62.28003107 -8.125 75.375 C-8.43786702 88.69225271 -12.26686564 101.19149242 -21.49609375 111.05859375 C-31.40959525 120.04451616 -43.29872887 122.68534881 -56.3671875 122.2265625 C-73.15417112 121.12746183 -87.69524938 113.35361347 -99.125 101.25 C-111.99917041 85.69751517 -117.03873922 66.83992651 -115.5 46.875 C-113.06869954 28.7070864 -103.7860934 12.12851394 -89.65234375 0.4296875 C-63.45899969 -18.49036865 -26.99730968 -16.11377886 0 0 Z " fill="#F9503A" transform="translate(210.5,44.125)"/>
</svg>
