<svg width="256" height="256" title="Yarn" viewBox="0 0 256 256" fill="none" xmlns="http://www.w3.org/2000/svg" id="yarn">
<style>
#yarn {
    rect {fill: #15191C}

    @media (prefers-color-scheme: light) {
        rect {fill: #F4F2ED}
    }
}
</style>
<rect width="256" height="256" rx="40" fill="#15191C"/>
<path d="M216 128.5C216 176.825 176.825 216 128.5 216C80.1751 216 41 176.825 41 128.5C41 80.1751 80.1751 41 128.5 41C176.825 41 216 80.1751 216 128.5Z" fill="#2C8EBB"/>
<path d="M188.204 155.345C187.592 150.519 183.515 147.189 178.282 147.257C170.466 147.359 163.908 151.403 159.558 154.087C157.859 155.141 156.398 155.922 155.141 156.5C155.413 152.558 155.175 147.393 153.136 141.718C150.655 134.922 147.325 130.743 144.947 128.33C147.699 124.32 151.471 118.476 153.238 109.437C154.767 101.723 154.291 89.7282 150.791 83C150.078 81.6408 148.888 80.6553 147.393 80.2476C146.782 80.0777 145.626 79.7379 143.35 80.3835C139.917 73.2816 138.728 72.534 137.811 71.9223C135.908 70.699 133.665 70.4272 131.558 71.2087C128.738 72.2282 126.325 74.9466 124.049 79.7718C123.709 80.4854 123.403 81.165 123.131 81.8447C118.816 82.1505 112.019 83.7136 106.277 89.932C105.563 90.7136 104.17 91.2913 102.709 91.835H102.743C99.7524 92.8883 98.3932 95.3349 96.7282 99.7524C94.4175 105.937 96.7961 112.019 99.1408 115.961C95.9466 118.816 91.699 123.369 89.4563 128.704C86.6699 135.296 86.3641 141.752 86.466 145.252C84.0874 147.767 80.4175 152.49 80.0097 157.791C79.466 165.199 82.1505 170.228 83.3398 172.063C83.6796 172.607 84.0534 173.049 84.4612 173.49C84.3252 174.408 84.2913 175.393 84.4951 176.413C84.9369 178.791 86.432 180.728 88.7087 181.951C93.1942 184.33 99.4466 185.35 104.272 182.937C106.005 184.772 109.165 186.539 114.908 186.539H115.248C116.709 186.539 135.262 185.553 140.665 184.228C143.078 183.65 144.743 182.631 145.83 181.714C149.296 180.626 158.879 177.364 167.917 171.519C174.306 167.374 176.515 166.49 181.272 165.335C185.893 164.214 188.782 160 188.204 155.345ZM180.116 160.34C174.68 161.631 171.927 162.82 165.199 167.204C154.699 174 143.214 177.16 143.214 177.16C143.214 177.16 142.262 178.587 139.51 179.233C134.752 180.388 116.845 181.374 115.214 181.408C110.83 181.442 108.146 180.286 107.398 178.485C105.121 173.049 110.66 170.67 110.66 170.67C110.66 170.67 109.437 169.922 108.723 169.243C108.078 168.597 107.398 167.306 107.194 167.782C106.345 169.854 105.903 174.917 103.626 177.194C100.5 180.354 94.5874 179.301 91.0874 177.466C87.2476 175.427 91.3592 170.636 91.3592 170.636C91.3592 170.636 89.2864 171.859 87.6214 169.345C86.1262 167.034 84.733 163.092 85.1068 158.233C85.5146 152.694 91.699 147.325 91.699 147.325C91.699 147.325 90.6116 139.136 94.1796 130.743C97.4078 123.097 106.107 116.947 106.107 116.947C106.107 116.947 98.801 108.859 101.519 101.587C103.286 96.8301 104 96.8641 104.578 96.6602C106.617 95.8786 108.587 95.0291 110.049 93.432C117.354 85.5485 126.665 87.0437 126.665 87.0437C126.665 87.0437 131.083 73.6214 135.16 76.2379C136.417 77.0534 140.937 87.1116 140.937 87.1116C140.937 87.1116 145.762 84.2913 146.306 85.3447C149.228 91.0194 149.568 101.859 148.277 108.451C146.102 119.325 140.665 125.17 138.49 128.84C137.981 129.689 144.335 132.374 148.345 143.485C152.049 153.646 148.752 162.175 149.33 163.126C149.432 163.296 149.466 163.364 149.466 163.364C149.466 163.364 153.714 163.704 162.243 158.437C166.796 155.616 172.199 152.456 178.35 152.388C184.296 152.286 184.602 159.252 180.116 160.34Z" fill="white"/>
</svg>