<svg width="256" height="256" title="Zod" viewBox="0 0 256 256" fill="none" xmlns="http://www.w3.org/2000/svg" id="zod">
<style>
#zod {
    rect {fill: #15191C}

    @media (prefers-color-scheme: light) {
        rect {fill: #F4F2ED}
    }
}
</style>
<rect width="256" height="256" rx="40" fill="#15191C"/>
<path d="M81.8444 67.6958H176.482L204.213 96.6479L125.749 184.532L52.7757 96.6479L81.8444 67.6958Z" fill="#18253F"/>
<path d="M144.769 163.774H107.676L90.9229 143.265L138.398 143.263L138.399 140.353H165.537L144.769 163.774Z" fill="#274D82"/>
<path d="M196.25 88.391L93.9014 147.482L80.55 130.779L159.785 85.0312L158.33 82.5097L179.435 70.325L196.25 88.391ZM141.414 67.725L64.5625 112.095L52.6104 97.175L104.065 67.4674L141.414 67.725Z" fill="#274D82"/>
<path d="M180.181 59H78.2431L41 96.0521L125.556 197.874L216 96.4007L180.181 59ZM176.457 67.7236L204.124 96.6125L125.79 184.5L52.8056 96.6125L81.8437 67.7236H176.457Z" fill="#3068B7"/>
</svg>